<svg width="24" height="24" viewBox="0 0 24 24" fill="none" xmlns="http://www.w3.org/2000/svg">
<path d="M2.73209 2.07796C2.4614 2.18477 2.18309 2.46325 2.08016 2.74173C2.00391 2.94772 2.00009 3.01639 2.00009 5.25182C2.00009 7.90307 1.98484 7.77718 2.34322 8.1434C2.49572 8.2998 2.6139 8.37991 2.77403 8.44095C2.99896 8.52106 3.00278 8.52106 6.52932 8.51343L10.0635 8.50198L10.2808 8.39517C10.5477 8.26165 10.7802 8.00988 10.8832 7.73141C10.9594 7.52541 10.9632 7.46437 10.9518 5.18697L10.9404 2.85617L10.8374 2.66162C10.7802 2.5548 10.6468 2.38695 10.5401 2.29159C10.1931 1.97878 10.4409 1.99785 6.46451 2.00167C3.0104 2.00167 2.93034 2.00167 2.73209 2.07796ZM9.97581 2.94772L10.1016 3.05835L10.1131 5.19842C10.1207 7.06383 10.1169 7.35375 10.0635 7.45293C9.93768 7.69326 10.1169 7.68563 6.41876 7.67418L3.05996 7.66274L2.9494 7.53685L2.83884 7.41478V5.26708C2.84265 2.97061 2.83884 2.99731 3.03328 2.8905C3.10571 2.84854 3.76909 2.84091 6.48739 2.83709H9.85381L9.97581 2.94772Z" fill="white"/>
<path d="M13.8125 2.06265C13.5952 2.13894 13.2864 2.42123 13.1606 2.66156L13.0576 2.85611L13.0462 7.63217C13.0386 12.3624 13.0386 12.4082 13.1148 12.6142C13.2178 12.8927 13.4503 13.1445 13.7172 13.278L13.9345 13.3848L17.4687 13.3962C20.9952 13.4039 20.999 13.4039 21.224 13.3238C21.3841 13.2627 21.5023 13.1826 21.6586 13.0262C22.0284 12.6524 21.9979 13.1063 21.9979 7.69702C21.9979 2.982 21.9979 2.95148 21.9178 2.74167C21.8111 2.45938 21.5366 2.18472 21.2545 2.07791C21.0448 1.9978 21.0028 1.9978 17.5068 2.00161C14.4721 2.00161 13.9498 2.01306 13.8125 2.06265ZM20.9647 2.89045C21.0219 2.92096 21.0867 2.98963 21.1134 3.04685C21.1477 3.12315 21.1592 4.25612 21.1592 7.71991V12.2976L21.0486 12.4197L20.938 12.5456L17.5792 12.557C14.6207 12.5646 14.2052 12.557 14.1061 12.5074C13.8621 12.3815 13.8735 12.6829 13.8849 7.6398L13.8964 3.05829L14.0222 2.94767L14.1442 2.83704H17.503C20.3318 2.83704 20.8732 2.84467 20.9647 2.89045Z" fill="white"/>
<path d="M2.87724 10.625C2.66374 10.6937 2.45786 10.8272 2.29393 11.0103C1.97749 11.3613 2.00036 10.9684 2.00036 16.2975C2.00036 20.9935 2.00036 21.0431 2.08043 21.2491C2.17574 21.5047 2.4083 21.7564 2.66755 21.8823L2.85817 21.9777L6.42284 21.9891C10.5098 22.0006 10.2048 22.0235 10.5823 21.6534C10.7386 21.5008 10.8186 21.3826 10.8796 21.2224C10.9597 21.0011 10.9597 21.0011 10.9597 16.2937C10.9597 11.6512 10.9597 11.5825 10.8834 11.3765C10.7805 11.1019 10.548 10.8463 10.2811 10.7166L10.0638 10.6098L6.51816 10.6021C4.56998 10.5983 2.93061 10.6098 2.87724 10.625ZM9.8922 11.4872C10.1362 11.613 10.1248 11.3155 10.1133 16.3548L10.1019 20.9363L9.97608 21.0469L9.85408 21.1575H6.49909C3.98286 21.1575 3.12123 21.1461 3.0488 21.1117C2.82767 21.0126 2.83911 21.2529 2.83911 16.2823V11.7084L2.91917 11.6054C2.96492 11.5482 3.03736 11.4833 3.08311 11.4681C3.12505 11.449 4.65385 11.4337 6.47241 11.4337C9.35846 11.4299 9.79689 11.4376 9.8922 11.4872Z" fill="white"/>
<path d="M13.8504 15.5452C13.492 15.6711 13.2175 15.9496 13.0955 16.312C13.0421 16.4722 13.0383 16.7812 13.046 18.8183L13.0574 21.1415L13.1603 21.336C13.2175 21.4428 13.3471 21.6069 13.4501 21.6984C13.8046 22.0189 13.5568 21.9998 17.5256 21.9998C20.9835 21.9998 21.0445 21.9998 21.2504 21.9197C21.5059 21.8243 21.7575 21.5916 21.8833 21.3322L21.9786 21.1415L21.99 18.7992C22.0015 16.1442 22.0091 16.2357 21.7041 15.8962C21.6088 15.7894 21.441 15.6559 21.3343 15.5986L21.1399 15.4957L17.5942 15.488C14.2698 15.4804 14.0372 15.4842 13.8504 15.5452ZM21.0484 16.4608L21.1589 16.5829V18.7191C21.1589 20.2908 21.1475 20.8783 21.1132 20.9507C21.014 21.1682 21.1475 21.1605 17.5027 21.1605H14.144L14.022 21.0499L13.8961 20.9393L13.8847 18.8068C13.8771 17.2237 13.8885 16.6515 13.919 16.5676C13.9457 16.5104 14.0181 16.4264 14.083 16.3883C14.1973 16.3196 14.3269 16.3158 17.5676 16.3235L20.9378 16.3349L21.0484 16.4608Z" fill="white"/>
</svg>
