<svg width="24" height="24" viewBox="0 0 24 24" fill="none" xmlns="http://www.w3.org/2000/svg">
<path d="M14.196 2.1096C14.063 2.21344 14.0547 2.76316 14.0547 8.79781V21.258L14.2376 21.3496C14.4953 21.484 14.7697 21.4718 14.9692 21.3252C15.1355 21.2031 15.1355 15.2356 15.1355 9.05435V2.7937H17.588H20.0405V6.91656C20.0405 10.9234 20.0488 21.3435 20.1984 21.4046C20.4229 21.4901 20.7305 21.484 20.9217 21.3802C21.0714 21.2947 21.0797 10.8623 21.1046 6.78219C21.1212 4.47338 21.1046 2.49441 21.0797 2.38446C20.9799 1.98745 21.1046 1.99966 17.5547 1.99966C14.5369 1.99966 14.3207 2.00577 14.196 2.1096Z" fill="white"/>
<path d="M2.14133 7.99767C2.00831 8.1015 2 8.65122 2 14.6859V21.258L2.1829 21.3496C2.44062 21.484 2.71497 21.4718 2.91449 21.3252C3.08077 21.2031 3.08077 21.1237 3.08077 14.9424V8.68176H5.53328H7.98578V12.8046C7.98578 16.8114 7.9941 21.3435 8.14374 21.4046C8.36821 21.4901 8.67581 21.484 8.86702 21.3802C9.01667 21.2947 9.02498 16.7504 9.04992 12.6702C9.06655 10.3614 9.04992 8.38247 9.02498 8.27252C8.92522 7.87551 9.04992 7.88772 5.50002 7.88772C2.48219 7.88772 2.26603 7.89383 2.14133 7.99767Z" fill="white"/>
</svg>
