<svg width="20" height="20" viewBox="0 0 20 20" fill="none" xmlns="http://www.w3.org/2000/svg">
<g clip-path="url(#clip0_9421_246782)">
<path d="M8.70284 0.0469208C8.58162 0.113392 8.40958 0.281525 8.35093 0.394917C8.31965 0.449658 8.23363 0.973607 8.15543 1.56012L8.01466 2.62757L5.90714 6.8348L3.80352 11.0459L2.50538 12.3363C1.60215 13.2356 1.17986 13.6852 1.10557 13.8221C1.01173 13.9941 1 14.0606 1 14.3891C1 14.6979 1.01564 14.7918 1.08993 14.9443C1.1564 15.0733 1.59433 15.5386 2.66178 16.6061C4.37048 18.3069 4.38612 18.3187 4.90616 18.3187C5.348 18.3148 5.56696 18.2092 6.02444 17.7674L6.38025 17.4272L7.54155 18.5846C8.59335 19.6285 8.73412 19.7576 8.98045 19.871C9.23852 19.9922 9.27371 20 9.6999 20C10.3412 20 10.4858 19.9257 11.1779 19.2258C11.4594 18.9404 11.694 18.6784 11.694 18.6471C11.694 18.6197 10.9785 17.8768 10.1026 17.001C9.22678 16.1251 8.51906 15.4018 8.52688 15.39C8.53861 15.3822 10.3763 14.4594 12.6129 13.3412L16.6794 11.3118L17.6178 11.1867C18.1339 11.1202 18.6501 11.0459 18.7634 11.0225C19.002 10.9756 19.2209 10.8074 19.303 10.608C19.3695 10.4555 19.3734 10.174 19.3148 10.0215C19.2952 9.96285 18.5758 9.21212 17.7234 8.35582C16.2219 6.85435 16.175 6.79961 16.2297 6.71359C16.6364 6.08016 16.7771 5.29423 16.6051 4.61388C16.3744 3.68328 15.6471 2.9521 14.7243 2.7175C14.13 2.565 13.3245 2.67449 12.8084 2.97556C12.6637 3.05767 12.5347 3.12805 12.5191 3.12805C12.5073 3.12805 11.8426 2.47507 11.0489 1.67742C10.2512 0.879765 9.52395 0.175953 9.43011 0.113392C9.28544 0.0195504 9.21505 1.86265e-08 9.01955 1.86265e-08C8.88661 1.86265e-08 8.74585 0.0234604 8.70284 0.0469208ZM10.9863 2.14663C11.9873 3.13587 14.2043 5.34115 15.9091 7.04594C18.9277 10.0684 19.0059 10.1505 19.0059 10.2952C19.0059 10.4086 18.9785 10.4751 18.8964 10.5572C18.7674 10.6862 18.8065 10.6784 17.6217 10.8309L16.7263 10.9482L13.8485 8.09775C12.2649 6.5259 10.3842 4.65689 9.67253 3.94135L8.37048 2.6393L8.50342 1.63441C8.57771 1.08309 8.65982 0.59433 8.67938 0.55132C8.74585 0.430108 8.8827 0.351906 9.02737 0.351906C9.14858 0.351906 9.30499 0.492669 10.9863 2.14663ZM14.74 3.09286C15.4516 3.31965 16.0616 3.9609 16.2493 4.67644C16.3236 4.96579 16.3236 5.50929 16.2493 5.79863C16.1906 6.02151 15.9873 6.46725 15.9247 6.50635C15.9091 6.51808 15.1936 5.826 14.3372 4.9697L12.7771 3.40958L12.9609 3.30401C13.477 2.99902 14.1887 2.91691 14.74 3.09286ZM16.1984 10.9482L16.347 11.0772L12.2884 13.0987L8.23363 15.1241L6.21212 13.1065L4.19453 11.0929L6.21212 7.04985L8.23363 3.01075L12.1437 6.91691C14.2942 9.06354 16.1202 10.8778 16.1984 10.9482ZM5.95015 13.3803L7.94428 15.347L6.70088 16.5826C5.91105 17.3646 5.39883 17.8416 5.30108 17.8886C5.08211 17.9941 4.72239 17.9902 4.51906 17.8807C4.29228 17.7595 1.46921 14.9169 1.39101 14.7331C1.31672 14.5455 1.31672 14.2326 1.39101 14.045C1.43402 13.9472 1.86804 13.4858 2.69306 12.6569C3.37341 11.9765 3.93646 11.4174 3.94428 11.4174C3.9521 11.4174 4.85533 12.3011 5.95015 13.3803ZM10.8573 19.0381C10.6422 19.2532 10.3803 19.4761 10.2708 19.5386C10.0909 19.6364 10.0362 19.6481 9.6999 19.6481C9.12903 19.6481 9.12903 19.6481 7.78397 18.3109L6.6305 17.1691L7.41251 16.3832L8.19453 15.6012L9.71945 17.1261L11.2444 18.651L10.8573 19.0381Z" fill="white" stroke="white" stroke-width="0.5"/>
</g>
<defs>
<clipPath id="clip0_9421_246782">
<rect width="20" height="20" fill="white"/>
</clipPath>
</defs>
</svg>
