<svg width="50" height="50" viewBox="0 0 50 50" fill="none" xmlns="http://www.w3.org/2000/svg">
<path d="M25.0156 32.4746C19.1605 32.4746 16.4395 32.481 15.1523 32.4453C14.8307 32.4364 14.5995 32.425 14.4316 32.4102C14.2631 32.3953 14.161 32.3772 14.0967 32.3564C14.035 32.3365 14.011 32.3154 13.9951 32.2939C13.9859 32.2815 13.9781 32.2679 13.9678 32.249L13.9297 32.1846L13.8154 32.0254L13.8008 25.0439L13.7969 21.1699C13.7972 20.2024 13.7996 19.5274 13.8047 19.0527C13.8098 18.5778 13.8174 18.3042 13.8291 18.1396C13.8408 17.9746 13.8561 17.9246 13.8721 17.8916C13.8952 17.8481 13.934 17.7945 13.9795 17.7441C14.0025 17.7186 14.0271 17.6949 14.0508 17.6738L14.1191 17.6211L14.1211 17.6201L14.2822 17.5107H35.707L35.8838 17.6299L36.0049 17.707C36.0351 17.7287 36.0578 17.7528 36.0791 17.7988C36.1012 17.8468 36.1212 17.9191 36.1377 18.0352C36.1541 18.1509 36.1669 18.3076 36.1768 18.5234C36.2163 19.388 36.2069 21.18 36.1992 25.0186L36.1885 28.9854C36.1846 29.9535 36.1805 30.6041 36.1729 31.0469C36.1652 31.4901 36.1547 31.7238 36.1396 31.8584C36.1322 31.9251 36.1233 31.966 36.1143 31.9951C36.1055 32.0234 36.0961 32.0425 36.083 32.0674L36.082 32.0684C36.0565 32.1194 36.0135 32.1799 35.9648 32.2354C35.916 32.2909 35.8642 32.3389 35.8232 32.3662H35.8223L35.668 32.4746H25.0156ZM37.0498 17.833L37.0459 17.8232L36.9385 17.5889V17.5879C36.7906 17.271 36.4497 16.9312 36.1328 16.7832L36.1318 16.7822L35.8975 16.6758L35.8877 16.6709H35.877L25.0762 16.6602C20.8228 16.6576 18.1099 16.6597 16.4375 16.668C15.6017 16.6721 15.0254 16.6775 14.6465 16.6855C14.4571 16.6896 14.3159 16.694 14.2168 16.6992C14.1675 16.7018 14.128 16.705 14.0977 16.708C14.0683 16.7109 14.0444 16.7143 14.0283 16.7188V16.7197C13.7129 16.8035 13.395 17.0304 13.1934 17.3125L13.1143 17.4365L12.9561 17.7178L12.9502 17.7285V32.2568L12.9561 32.2676L13.0684 32.4775L13.1387 32.6006C13.2091 32.7164 13.2819 32.8122 13.3662 32.8955C13.4789 33.0069 13.6101 33.0944 13.7793 33.1777L14.0908 33.3359L14.1016 33.3408H35.8877L35.8984 33.3359L36.1533 33.2139L36.2725 33.1504C36.5465 32.9883 36.7893 32.7317 36.9277 32.4502L37.0449 32.2158L37.0498 32.2051V17.833Z" fill="white" stroke="white" stroke-width="0.1"/>
<path d="M23.7324 27.918L23.8438 27.9082C23.8798 27.9036 23.9158 27.8964 23.9551 27.8857C24.033 27.8645 24.1213 27.8278 24.248 27.7627C24.5008 27.6328 24.9152 27.3839 25.7158 26.8994L26.4375 26.459C26.6486 26.3279 26.8305 26.2131 26.9814 26.1143C27.1324 26.0154 27.2533 25.9322 27.3428 25.8662C27.4287 25.8028 27.4898 25.7514 27.5195 25.7148H27.5215C27.7203 25.4785 27.8041 25.1722 27.7617 24.833C27.7476 24.7129 27.7315 24.6113 27.6826 24.5117C27.6333 24.4115 27.5532 24.3172 27.4199 24.2061C27.2875 24.0956 27.098 23.9654 26.8262 23.793L25.7363 23.127C24.9685 22.6652 24.5394 22.4101 24.2705 22.2676C24.0004 22.1245 23.8866 22.0918 23.75 22.0781H23.749C23.5698 22.0623 23.3837 22.083 23.248 22.1318L23.2471 22.1328C23.102 22.1876 22.955 22.3004 22.8359 22.4346C22.7466 22.5353 22.6707 22.6507 22.6221 22.7666L22.583 22.8818C22.572 22.9252 22.5637 23.0207 22.5566 23.1484C22.5494 23.2786 22.5439 23.4484 22.5391 23.6436C22.5295 24.0339 22.5244 24.5289 22.5244 25.0225C22.5244 25.516 22.5295 26.009 22.5391 26.3955C22.5439 26.5886 22.5494 26.7555 22.5566 26.8828C22.5603 26.9465 22.5641 27.0012 22.5684 27.0439C22.5725 27.085 22.577 27.119 22.583 27.1406L22.6182 27.2402C22.6614 27.3401 22.7286 27.4399 22.8076 27.5303C22.9132 27.6509 23.0446 27.758 23.1807 27.8301L23.1816 27.8311L23.3037 27.8828C23.3435 27.8963 23.3838 27.9065 23.4268 27.9131C23.5118 27.926 23.6066 27.9257 23.7324 27.918ZM23.5439 26.9863C23.5239 26.9797 23.5094 26.9705 23.4971 26.957C23.4702 26.9275 23.4455 26.8676 23.4287 26.7324C23.3954 26.464 23.3963 25.9479 23.4014 24.9375L23.415 23.7959C23.4214 23.5171 23.431 23.3291 23.4473 23.2021C23.4639 23.073 23.4861 23.0204 23.5078 22.998C23.5258 22.9795 23.5503 22.9746 23.6123 22.9746C23.6065 22.9746 23.6057 22.9732 23.6152 22.9766C23.6224 22.9791 23.6324 22.9834 23.6455 22.9893C23.6722 23.0011 23.7093 23.0195 23.7549 23.043C23.8459 23.0898 23.9712 23.1572 24.1211 23.2412C24.4212 23.4094 24.8201 23.6424 25.2461 23.8975L25.8525 24.2646C26.0408 24.3802 26.2122 24.4874 26.3584 24.5801C26.5046 24.6728 26.6255 24.751 26.7119 24.8096C26.7552 24.8389 26.7899 24.8626 26.8145 24.8809C26.8267 24.89 26.8361 24.8977 26.8428 24.9033L26.8496 24.9102C26.8717 24.9412 26.8811 24.964 26.8828 24.9854C26.8845 25.0072 26.8787 25.0342 26.8604 25.0732L26.8594 25.0752C26.8587 25.076 26.8576 25.0768 26.8564 25.0781C26.852 25.0831 26.8446 25.0901 26.835 25.0986C26.8158 25.1156 26.7884 25.138 26.752 25.165C26.6788 25.2193 26.5734 25.292 26.4375 25.3809C26.1658 25.5584 25.7746 25.8004 25.2822 26.0938H25.2812C24.6761 26.4615 24.2836 26.6932 24.0283 26.8311C23.9007 26.8999 23.8088 26.9453 23.7422 26.9717C23.6739 26.9987 23.6397 27.0029 23.624 27.001H23.623L23.5439 26.9863Z" fill="white" stroke="white" stroke-width="0.1"/>
</svg>
