<svg width="50" height="50" viewBox="0 0 50 50" fill="none" xmlns="http://www.w3.org/2000/svg">
<path d="M32.6124 15.0596C32.2551 15.1609 31.9352 15.4381 31.7486 15.8007C31.5834 16.1206 31.5727 16.1792 31.5887 16.5578L31.6047 16.9683L30.1012 18.008L28.5923 19.0476L28.3151 18.9037C27.7819 18.6264 27.0515 18.7384 26.6303 19.1596C26.3371 19.4475 26.2251 19.7248 26.2144 20.1673L26.2038 20.5618L24.7482 21.4042C23.4686 22.1453 23.282 22.2413 23.2074 22.172C22.8555 21.8574 22.0931 21.7774 21.6186 22.0174C21.464 22.092 21.272 22.236 21.1921 22.3373L21.0428 22.5185L19.7099 22.124C18.4836 21.7614 18.3823 21.7241 18.3663 21.6068C18.329 21.3082 18.169 20.9404 17.9878 20.7431C17.4173 20.1086 16.3936 20.1193 15.8178 20.7751C15.5672 21.063 15.4766 21.3189 15.4766 21.7508C15.4819 23.0037 17.0067 23.6275 17.9238 22.7478L18.169 22.5132L19.4859 22.9024L20.7975 23.2916L20.8562 23.5902C20.9948 24.2886 21.5653 24.7578 22.269 24.7578C22.8502 24.7578 23.282 24.5019 23.554 24.0114C23.6872 23.7608 23.7139 23.6595 23.7139 23.3343V22.9504L25.1748 22.1027L26.6356 21.2496L26.8436 21.4042C27.0941 21.5802 27.5527 21.6868 27.8619 21.6388C28.587 21.5162 29.0935 20.9244 29.0882 20.1993C29.0882 20.0233 29.0775 19.8474 29.0668 19.8047C29.0508 19.7567 29.6053 19.3462 30.581 18.6691C32.0046 17.6827 32.1272 17.6081 32.2125 17.6881C32.3618 17.8267 32.7457 17.9333 33.0709 17.9333C33.7 17.9333 34.2972 17.4695 34.4624 16.851C34.7557 15.758 33.7053 14.7397 32.6124 15.0596ZM33.3801 15.9393C33.6947 16.1579 33.748 16.6004 33.4921 16.8883C33.0122 17.4375 32.1538 16.8937 32.4311 16.2219C32.5644 15.8966 33.0975 15.742 33.3801 15.9393ZM27.9365 19.6235C28.1978 19.7461 28.3577 20.098 28.2724 20.3539C28.2031 20.5671 28.0325 20.7378 27.8086 20.8177C27.67 20.8657 27.5953 20.8551 27.4034 20.7698C26.8862 20.5405 26.8755 19.8314 27.3821 19.6128C27.606 19.5115 27.7126 19.5168 27.9365 19.6235ZM17.236 21.1643C17.6145 21.3936 17.6572 21.8787 17.3213 22.1826C16.7881 22.6731 16.0204 22.0493 16.3563 21.3989C16.5109 21.1003 16.9374 20.9883 17.236 21.1643ZM22.6956 22.8438C22.8075 22.9397 22.8982 23.073 22.9142 23.1796C22.9888 23.5529 22.6529 23.9581 22.2744 23.9581C21.8692 23.9581 21.5439 23.5315 21.6559 23.153C21.7999 22.6838 22.333 22.5239 22.6956 22.8438Z" fill="white"/>
<path d="M31.7118 20.7539C31.4505 20.8712 31.2266 21.1218 31.152 21.3883C31.1093 21.527 31.0987 23.537 31.1093 27.9622L31.1253 34.3335L31.2533 34.5255C31.3226 34.6268 31.4665 34.7707 31.5678 34.8401C31.7544 34.9627 31.7864 34.968 32.986 34.984L34.2176 35L34.4629 34.8454C34.6282 34.7388 34.7455 34.6108 34.8254 34.4508L34.9374 34.2109L34.9267 27.7596L34.9108 21.303L34.7455 21.0951C34.6602 20.9831 34.4789 20.8392 34.3509 20.7699C34.127 20.6579 34.0524 20.6526 33.018 20.6526C32.0743 20.6526 31.8984 20.6686 31.7118 20.7539ZM34.0524 21.5376C34.127 21.6123 34.1377 22.2574 34.1377 27.8449C34.1377 33.5765 34.1323 34.083 34.047 34.1469C33.9831 34.2056 33.7378 34.2216 33.0074 34.2216C32.1223 34.2216 32.0423 34.2163 31.973 34.1203C31.9091 34.0296 31.8984 33.0859 31.8984 27.829C31.8984 22.1508 31.9037 21.6389 31.989 21.5483C32.0637 21.463 32.1703 21.4523 33.0234 21.4523C33.8124 21.4523 33.9831 21.4683 34.0524 21.5376Z" fill="white"/>
<path d="M26.408 24.6135C26.1574 24.6934 25.8588 25.008 25.7788 25.2692C25.7308 25.4345 25.7148 26.5542 25.7148 29.8278C25.7148 33.9385 25.7202 34.1784 25.8161 34.381C25.9334 34.6316 26.1574 34.8555 26.3706 34.9355C26.4613 34.9728 26.9891 34.9941 27.6662 34.9941C28.7059 34.9941 28.8285 34.9835 29.0204 34.8875C29.2817 34.7542 29.4736 34.5036 29.5536 34.1944C29.5963 34.0238 29.6069 32.6855 29.5963 29.6359C29.5803 24.8854 29.6016 25.1839 29.2497 24.8534C28.9565 24.5761 28.8018 24.5441 27.6502 24.5495C27.0477 24.5548 26.5146 24.5815 26.408 24.6135ZM28.7005 25.4505C28.8072 25.5572 28.8072 25.6265 28.8072 29.7638C28.8072 33.8212 28.8018 33.9758 28.7059 34.0931C28.6099 34.2157 28.5726 34.2211 27.7622 34.237C27.3037 34.2477 26.8718 34.2424 26.8025 34.2264C26.4986 34.1464 26.5146 34.4023 26.5146 29.7905C26.5146 25.6265 26.5146 25.5572 26.6212 25.4505C26.7172 25.3545 26.7972 25.3439 27.6609 25.3439C28.5246 25.3439 28.6046 25.3545 28.7005 25.4505Z" fill="white"/>
<path d="M15.5865 25.9949C15.4585 26.0642 15.2772 26.2081 15.1919 26.3201L15.0267 26.528L15.0107 30.3935L15 34.2642L15.1333 34.4935C15.2133 34.6321 15.3625 34.7814 15.5065 34.8614L15.7411 35L16.962 34.984C18.151 34.968 18.183 34.9627 18.3696 34.8401C18.4709 34.7707 18.6148 34.6268 18.6841 34.5255L18.8121 34.3335L18.8281 30.5747C18.8388 27.9996 18.8281 26.7466 18.7854 26.6133C18.7108 26.3468 18.4869 26.0962 18.2256 25.9789C18.039 25.8936 17.8631 25.8776 16.9194 25.8776C15.885 25.8776 15.8104 25.8829 15.5865 25.9949ZM17.943 26.768C18.0337 26.8479 18.039 27.0345 18.039 30.4361C18.039 33.4432 18.0284 34.0296 17.9644 34.1203C17.8951 34.2163 17.8151 34.2216 16.93 34.2216C16.1996 34.2216 15.9544 34.2056 15.8904 34.1469C15.8051 34.083 15.7997 33.7577 15.7997 30.4574C15.7997 27.2425 15.8104 26.8373 15.885 26.7626C16.013 26.6347 17.7991 26.6347 17.943 26.768Z" fill="white"/>
<path d="M21.0591 27.4979C20.8246 27.5832 20.5793 27.8018 20.4513 28.0364C20.3714 28.1803 20.3607 28.5109 20.3447 31.0754C20.3287 34.1411 20.3394 34.2904 20.5793 34.6103C20.8512 34.9622 20.9952 34.9941 22.2801 34.9941C23.1225 34.9941 23.4744 34.9728 23.6023 34.9195C23.8316 34.8289 24.0982 34.5143 24.1675 34.2637C24.2048 34.1357 24.2261 33.0268 24.2261 31.1767V28.2976L24.0875 28.0204C23.9862 27.8124 23.8849 27.7058 23.7036 27.5938C23.453 27.4499 23.4424 27.4499 22.3601 27.4392C21.523 27.4286 21.2191 27.4392 21.0591 27.4979ZM23.3197 28.3296C23.421 28.4309 23.4264 28.5055 23.4264 31.23C23.4264 34.317 23.4424 34.1571 23.0905 34.2211C22.9892 34.2424 22.5573 34.2477 22.1255 34.237C21.3684 34.2211 21.3311 34.2157 21.2351 34.0931C21.1338 33.9705 21.1338 33.8692 21.1445 31.1714C21.1604 28.4736 21.1658 28.3723 21.2617 28.2976C21.3417 28.239 21.5763 28.223 22.2907 28.223C23.1438 28.223 23.2238 28.2336 23.3197 28.3296Z" fill="white"/>
</svg>
