<svg width="24" height="24" viewBox="0 0 24 24" fill="none" xmlns="http://www.w3.org/2000/svg">
<path d="M5.94583 2.05C5.80833 2.15833 5.79167 2.32917 5.79167 3.56667V4.79167H4.51667H3.24167L3.12083 4.9125L3 5.0375L3.00833 13.4375L3.02083 21.8417L3.12083 21.9208C3.21667 22 3.39583 22 10.8833 22C15.8042 22 18.575 21.9833 18.625 21.9583C18.7708 21.8792 18.7917 21.6917 18.7917 20.4333V19.2125L20.0833 19.2C21.3625 19.1875 21.375 19.1875 21.4667 19.0917L21.5625 18.9958V12.8958V6.79167L19.1667 4.39583L16.7708 2H11.3917C7.15417 2 6 2.0125 5.94583 2.05ZM16.25 4.87917C16.25 6.24167 16.2667 7.11667 16.2917 7.16667C16.375 7.32083 16.5292 7.33333 18.7333 7.33333H20.875V12.9167V18.5H13.6875H6.5V10.5833V2.66667H11.375H16.25V4.87917ZM18.6667 4.9375L20.3542 6.625H18.6542H16.9583V4.9375C16.9583 4.00834 16.9625 3.25 16.9708 3.25C16.975 3.25 17.7375 4.00834 18.6667 4.9375ZM5.8 12.25L5.8125 18.9958L5.90833 19.0917L6.00417 19.1875L12.0417 19.2L18.0833 19.2083V20.2708V21.3333H10.8958H3.70833V13.4167V5.5H4.75H5.79167L5.8 12.25Z" fill="white"/>
<path d="M8.12083 4.12051C8.05 4.19551 8 4.28717 8 4.35384C8 4.42051 8.05 4.51217 8.12083 4.58717L8.24167 4.70801H10.4375H12.6292L12.7292 4.60384C12.8 4.53717 12.8333 4.45801 12.8333 4.35384C12.8333 4.24967 12.8 4.17051 12.7292 4.10384L12.6292 3.99967H10.4375H8.24167L8.12083 4.12051Z" fill="white"/>
<path d="M8.12266 5.9125C7.96432 6.07083 7.96432 6.22083 8.12266 6.37917L8.24766 6.5L11.3768 6.49167L14.5102 6.47917L14.5893 6.37917C14.7018 6.24167 14.6935 6.02083 14.5643 5.89583L14.4643 5.79167H11.356H8.24349L8.12266 5.9125Z" fill="white"/>
<path d="M12.2635 9.1L12.1469 9.2L12.1344 12.8C12.1302 14.775 12.1344 16.4375 12.1469 16.4917C12.1594 16.5417 12.2052 16.6208 12.251 16.6667C12.3302 16.7458 12.3969 16.75 13.6885 16.75H15.0469L15.1469 16.6458L15.251 16.5458V12.8958V9.24167L15.1302 9.12083L15.0094 9H13.6927H12.3802L12.2635 9.1ZM14.5427 12.875V16.0417H13.6885H12.8344V12.875V9.70833H13.6885H14.5427V12.875Z" fill="white"/>
<path d="M8.3866 11.4458C8.33243 11.4542 8.25326 11.5125 8.20743 11.5708C8.1241 11.6792 8.1241 11.7167 8.13243 14.1375L8.14493 16.5917L8.24493 16.6708C8.3366 16.7458 8.4241 16.75 9.6866 16.75C10.9491 16.75 11.0366 16.7458 11.1283 16.6708L11.2283 16.5917L11.2408 14.1333L11.2491 11.675L11.1491 11.5542L11.0491 11.4375L9.7616 11.4333C9.05743 11.4292 8.4366 11.4333 8.3866 11.4458ZM10.5408 14.0833V16.0417H9.6866H8.83243V14.0833V12.125H9.6866H10.5408V14.0833Z" fill="white"/>
<path d="M16.3 12.6958C16.2708 12.7083 16.2208 12.7708 16.1875 12.8333C16.1333 12.9333 16.125 13.2417 16.125 14.7083C16.125 16.5542 16.1333 16.6542 16.3125 16.725C16.35 16.7375 16.9875 16.75 17.7292 16.75H19.0792L19.1625 16.6417C19.25 16.5333 19.25 16.4875 19.25 14.7083C19.25 12.9292 19.25 12.8833 19.1625 12.775L19.0792 12.6667L17.7167 12.6708C16.9667 12.6708 16.3292 12.6833 16.3 12.6958ZM18.5417 14.7083V16.0417H17.6875H16.8333V14.7083V13.375H17.6875H18.5417V14.7083Z" fill="white"/>
</svg>
