<svg width="24" height="24" viewBox="0 0 24 24" fill="none" xmlns="http://www.w3.org/2000/svg">
<path d="M10.909 2.35928C8.37669 2.68363 6.10624 3.89896 4.53528 5.77863C4.27346 6.09126 4.22656 6.16941 4.22656 6.29056C4.22656 6.54066 4.46103 6.70088 4.6916 6.60709C4.75021 6.57974 4.86745 6.47032 4.95342 6.35699C5.16835 6.07563 5.90694 5.33705 6.27036 5.04396C7.7319 3.86379 9.45526 3.17992 11.3975 3.00407C14.1095 2.76178 17.1537 3.96149 19.1936 6.07953C19.4203 6.314 19.6469 6.5641 19.6938 6.63054L19.7837 6.7595H19.2913C18.8145 6.7595 18.795 6.7634 18.6973 6.8611C18.6113 6.94707 18.5996 6.98615 18.6192 7.12293C18.6582 7.41601 18.6856 7.42383 19.7094 7.42383H20.6043L20.6981 7.32613C20.7958 7.23234 20.7958 7.23234 20.7958 6.38825C20.7958 5.54416 20.7958 5.54416 20.6981 5.45037C20.5692 5.31751 20.3581 5.31751 20.2292 5.45037C20.1471 5.52853 20.1315 5.58324 20.1315 5.79035V6.04046L19.5375 5.45037C17.9079 3.84035 15.9384 2.82431 13.664 2.41789C13.0661 2.31238 11.546 2.28112 10.909 2.35928Z" fill="white"/>
<path d="M11.3427 5.70064C11.1277 5.77098 10.987 5.86868 10.8815 6.02499C10.7877 6.17349 10.776 6.2282 10.7565 6.63461L10.7369 7.08011L10.3852 7.19343C10.1938 7.25596 9.88113 7.38101 9.69355 7.4748L9.34966 7.64283L9.08784 7.37319C8.78693 7.06838 8.65016 6.99413 8.38442 6.99413C8.09915 6.99804 7.91939 7.10355 7.44654 7.55686C6.96588 8.01408 6.84864 8.20165 6.84864 8.49083C6.84864 8.76047 6.93461 8.9246 7.21598 9.20206L7.46608 9.44825L7.29804 9.77651C7.20426 9.95627 7.0753 10.2611 7.00886 10.4526L6.89163 10.8043L6.45004 10.8238C5.97328 10.8433 5.90294 10.8668 5.72318 11.0739C5.55124 11.2693 5.50825 11.5155 5.52779 12.2306C5.53951 12.9184 5.5825 13.0474 5.84823 13.2623C5.99282 13.3795 6.00846 13.3834 6.45395 13.3952L6.91508 13.4108L7.00105 13.7117C7.05185 13.8797 7.17299 14.1924 7.2785 14.4073L7.46608 14.802L7.23161 15.0286C6.95025 15.31 6.86037 15.4468 6.82519 15.6617C6.77439 15.9939 6.85646 16.1502 7.37229 16.6817C7.88422 17.2053 8.04444 17.3069 8.34535 17.3108C8.60326 17.3108 8.74395 17.2366 9.03313 16.9435L9.27932 16.6973L9.61539 16.8653C9.80297 16.9591 10.1039 17.0881 10.2875 17.1467L10.6197 17.26L10.6392 17.6664C10.6549 18.0181 10.6744 18.0963 10.7643 18.2565C10.9441 18.5613 11.0652 18.5965 11.9484 18.6082C12.8042 18.6199 12.9058 18.5926 13.1207 18.2917C13.2301 18.1354 13.238 18.1002 13.2497 17.686L13.2653 17.2444L13.5662 17.1584C13.7343 17.1115 14.043 16.9865 14.2579 16.8849L14.6448 16.6973L14.9379 16.9786C15.2583 17.2874 15.4498 17.3733 15.7273 17.3382C15.9695 17.3069 16.122 17.1975 16.5831 16.7442C17.0559 16.2791 17.1614 16.1072 17.1653 15.8141C17.1653 15.5679 17.0677 15.3921 16.7824 15.1107L16.5518 14.884L16.7238 14.5441C16.8136 14.3565 16.9426 14.0556 17.0012 13.8719L17.1145 13.5398L17.5405 13.5202C18.0212 13.4968 18.1736 13.4381 18.326 13.2115C18.4667 13.0044 18.494 12.8363 18.494 12.2111C18.494 11.5116 18.4588 11.367 18.2439 11.1521C18.0485 10.9528 17.8805 10.902 17.4194 10.902H17.0677L16.9778 10.5972C16.927 10.433 16.8058 10.1243 16.7081 9.91328L16.5284 9.53422L16.7902 9.26458C16.9309 9.11609 17.0755 8.93242 17.1067 8.85426C17.181 8.67841 17.181 8.39705 17.1067 8.22119C17.0325 8.04534 16.1845 7.1778 16.0008 7.08792C15.8289 7.00976 15.4693 6.99804 15.3287 7.06838C15.274 7.09574 15.1137 7.23642 14.9691 7.37319L14.7112 7.63111L14.3439 7.45135C14.1446 7.34975 13.8359 7.2247 13.66 7.16608L13.3357 7.06057V6.67369C13.3357 6.26337 13.2849 6.07579 13.1285 5.90776C12.9449 5.70846 12.855 5.68892 12.1242 5.67719C11.7491 5.67329 11.3974 5.6811 11.3427 5.70064ZM12.6713 6.96678C12.6909 7.59594 12.7065 7.63111 12.9449 7.68191C13.4255 7.78742 13.9023 7.98672 14.5041 8.3228C14.6526 8.40486 14.7425 8.43222 14.8167 8.41658C14.8714 8.40095 15.0786 8.23682 15.27 8.04534C15.4654 7.85386 15.6413 7.69754 15.6608 7.69754C15.6999 7.69754 15.9617 7.95937 16.3603 8.38923L16.5127 8.55336L16.118 8.95977C15.8719 9.21378 15.7194 9.40136 15.7194 9.45216C15.7194 9.49515 15.8328 9.74916 15.9695 10.011C16.1923 10.4369 16.2978 10.7222 16.458 11.3201C16.4854 11.4178 16.5401 11.5077 16.5909 11.535C16.6417 11.5663 16.8879 11.5937 17.224 11.6054L17.7711 11.6249L17.7828 12.2072C17.7906 12.6488 17.7789 12.7973 17.7437 12.8246C17.7164 12.8403 17.4702 12.8559 17.2005 12.8559C16.587 12.8559 16.5792 12.8637 16.4424 13.3365C16.3095 13.8055 16.1845 14.1025 15.9539 14.5011C15.8445 14.6887 15.7585 14.888 15.7585 14.9466C15.7585 15.0286 15.8484 15.142 16.1376 15.4429L16.5127 15.8297L16.1063 16.2401C15.8836 16.4628 15.6765 16.6465 15.6452 16.6465C15.6139 16.6465 15.4185 16.4784 15.2075 16.2752C14.9379 16.0056 14.805 15.904 14.7347 15.904C14.68 15.904 14.4025 16.0251 14.1133 16.1697C13.6561 16.4042 13.3513 16.5136 12.855 16.623C12.7964 16.6387 12.7143 16.6817 12.6713 16.7246C12.601 16.795 12.5932 16.8575 12.5932 17.3186C12.5932 17.6039 12.5775 17.8618 12.5619 17.8892C12.5346 17.9243 12.3861 17.9361 11.9445 17.9282L11.3622 17.9165L11.3427 17.3812C11.3192 16.7325 11.3192 16.7325 10.8229 16.5879C10.354 16.455 10.0531 16.326 9.65838 16.0994C9.4708 15.99 9.2715 15.904 9.21289 15.904C9.13082 15.904 9.01749 15.9939 8.71659 16.2831L8.32971 16.6582L7.91939 16.2518C7.69664 16.029 7.51297 15.8219 7.51297 15.7907C7.51297 15.7594 7.68101 15.564 7.88422 15.353C8.14214 15.0912 8.25547 14.9466 8.25547 14.884C8.25547 14.8332 8.13432 14.5441 7.98192 14.2432C7.78262 13.8524 7.6771 13.5827 7.60676 13.3053C7.46999 12.7582 7.4778 12.7621 6.79784 12.7386L6.24293 12.7191V12.1134V11.5077L6.7783 11.496C7.427 11.4842 7.44263 11.4725 7.57941 10.9567C7.6732 10.6011 7.93893 9.99926 8.14214 9.68663C8.33753 9.38182 8.31408 9.30757 7.8764 8.86208L7.49734 8.47911L7.59113 8.38923C7.64584 8.33843 7.84123 8.15085 8.03272 7.97109L8.37661 7.64283L8.73613 7.99845C8.93152 8.19775 9.14255 8.3736 9.19726 8.39705C9.33403 8.44785 9.41609 8.4244 9.77171 8.21729C10.139 8.01017 10.5924 7.83041 10.9636 7.74835C11.1199 7.71708 11.284 7.65065 11.3348 7.60766C11.4169 7.53341 11.4208 7.49824 11.4208 7.00976C11.4208 6.72449 11.4325 6.46267 11.4443 6.43141C11.4677 6.3767 11.5459 6.36888 12.0617 6.3767L12.6518 6.38842L12.6713 6.96678Z" fill="white"/>
<path d="M11.4131 9.35801C10.8426 9.47134 10.358 9.73316 9.93207 10.1591C8.96292 11.1283 8.8027 12.5663 9.53347 13.7113C9.93207 14.3405 10.6433 14.8329 11.3741 14.9892C11.718 15.0595 12.3354 15.0595 12.6793 14.9814C13.0427 14.9032 13.6015 14.6297 13.8985 14.3913C14.3636 14.0122 14.7426 13.4104 14.8755 12.8438C14.9458 12.5429 14.9576 11.9215 14.8989 11.6206C14.856 11.4057 14.6996 10.9641 14.6176 10.8313C14.5003 10.6476 14.1721 10.6281 14.0548 10.7961C13.9689 10.9172 13.9806 11.0775 14.0978 11.3666C14.4261 12.1834 14.2463 13.0705 13.625 13.6918C13.2225 14.0943 12.5542 14.3796 12.0032 14.3796C11.2021 14.3796 10.3541 13.8481 10.0024 13.1291C9.47485 12.0466 9.90862 10.7844 10.995 10.2334C11.2881 10.0849 11.5538 10.0184 11.9759 9.98326C12.3901 9.94809 12.5112 9.87385 12.5112 9.66673C12.5112 9.47915 12.4565 9.39318 12.3119 9.34238C12.1478 9.28767 11.7375 9.29158 11.4131 9.35801Z" fill="white"/>
<path d="M13.0176 9.69011C12.912 9.79562 12.8808 9.94412 12.9394 10.077C12.998 10.2216 13.3927 10.4717 13.5607 10.4717C13.8382 10.4717 13.9945 10.0809 13.7913 9.89723C13.4748 9.61586 13.1739 9.5338 13.0176 9.69011Z" fill="white"/>
<path d="M2.80111 8.29139C2.0508 8.66655 2 8.70953 2 8.93228C2 9.06514 2.01954 9.11595 2.1016 9.17847C2.24619 9.2918 2.39078 9.28008 2.66433 9.1433C2.79329 9.07687 2.90662 9.02607 2.91444 9.02607C2.92616 9.02607 2.87145 9.19801 2.7972 9.40513C2.59399 9.96395 2.37125 10.7846 2.29309 11.2535C2.1993 11.8084 2.22665 12.973 2.35171 13.6725C2.62525 15.2434 3.23097 16.6385 4.20012 17.932C4.56354 18.4166 5.5874 19.4404 6.07588 19.8078C7.83441 21.1208 9.81959 21.8008 11.9376 21.8203L12.6762 21.8242L12.77 21.7148C12.899 21.5624 12.8912 21.3983 12.7505 21.2537L12.6371 21.1403H12.0627C9.67891 21.1403 7.42409 20.2259 5.67728 18.5416C3.99691 16.9277 3.01213 14.7354 2.91444 12.3946C2.88708 11.7889 2.93788 11.3747 3.13327 10.6439C3.25051 10.1984 3.55141 9.30743 3.60222 9.24881C3.61785 9.22927 3.68819 9.35042 3.76244 9.51455C3.90703 9.84671 4.02035 9.96395 4.19621 9.96395C4.33689 9.96395 4.5401 9.77637 4.5401 9.64741C4.5401 9.53018 3.93047 8.17025 3.82496 8.05692C3.67646 7.8967 3.4967 7.93969 2.80111 8.29139Z" fill="white"/>
<path d="M20.9704 8.35385C20.8375 8.3812 20.7164 8.52188 20.7164 8.65084C20.7164 8.71727 20.7789 8.95565 20.8571 9.18231C21.3534 10.6438 21.4628 12.1249 21.1814 13.5864C20.7398 15.8842 19.2158 18.0883 17.0743 19.5224C16.6053 19.8351 15.5307 20.4212 15.4916 20.3822C15.4799 20.3743 15.5229 20.2962 15.5776 20.2063C15.7183 19.9953 15.7183 19.7882 15.5776 19.667C15.4682 19.5693 15.3392 19.5537 15.1985 19.6201C15.093 19.667 14.2763 20.9019 14.245 21.0543C14.2059 21.2731 14.3193 21.3591 15.0657 21.6913C15.4877 21.8789 15.816 22 15.8941 22C16.1208 22 16.2771 21.7616 16.1989 21.535C16.1716 21.4607 16.0856 21.3943 15.8511 21.281L15.5385 21.1325L15.773 21.0309C15.9019 20.9761 16.1872 20.8355 16.41 20.7221C18.9813 19.3935 20.8962 17.1465 21.6738 14.536C21.8927 13.8014 21.9747 13.2152 21.9943 12.25C22.0216 10.9799 21.8966 10.1241 21.5292 9.01036C21.3377 8.42419 21.2361 8.30304 20.9704 8.35385Z" fill="white"/>
</svg>
