<svg width="24" height="24" viewBox="0 0 24 24" fill="none" xmlns="http://www.w3.org/2000/svg">
<path d="M16.6574 3.41794C15.7549 4.32042 15.2431 4.86347 15.2431 4.91036C15.2431 4.95333 15.3994 5.56671 15.5908 6.27775L15.9385 7.56701L13.0709 10.4385C11.4847 12.0286 10.1877 13.357 10.1681 13.4195C10.0744 13.6734 10.3322 13.9274 10.5862 13.8336C10.6448 13.8141 11.9848 12.5053 13.5632 10.9269L16.4347 8.06318L17.724 8.41089C18.5327 8.62968 19.0484 8.75079 19.1109 8.73907C19.1695 8.72344 19.7555 8.16867 20.6072 7.32088C21.9981 5.93004 22.002 5.92614 22.002 5.76205C22.002 5.63703 21.9785 5.58233 21.9082 5.52764C21.8535 5.48466 21.2753 5.30886 20.5252 5.1057L19.2398 4.7619L18.8921 3.47264C18.6929 2.71861 18.521 2.14821 18.4741 2.09352C18.4194 2.01929 18.3647 1.99975 18.2397 1.99975C18.0756 1.99975 18.0717 2.00366 16.6574 3.41794ZM18.3647 4.08992C18.521 4.66813 18.6733 5.18384 18.7046 5.23072C18.7671 5.32839 18.8531 5.35574 20.1267 5.69173C20.5877 5.81674 20.9784 5.92614 20.994 5.94176C21.0096 5.95739 20.5525 6.43403 19.9782 7.00833L18.9351 8.04756L17.763 7.7311L16.5871 7.41855L16.2706 6.24259L15.9542 5.06663L16.9934 4.0235C17.5677 3.44919 18.0443 2.99209 18.06 3.00772C18.0756 3.02335 18.2123 3.5078 18.3647 4.08992Z" fill="white"/>
<path d="M9.45962 5.08639C7.6234 5.31299 5.91611 6.12561 4.57997 7.41097C3.27508 8.66897 2.45464 10.2005 2.11084 12.021C2.00536 12.5602 1.96629 13.912 2.0327 14.4902C2.21242 16.006 2.75156 17.3812 3.64623 18.5885C4.00957 19.0807 4.84173 19.9285 5.29883 20.2723C6.4201 21.1162 7.57652 21.628 8.97127 21.8898C9.64715 22.0187 10.9442 22.0382 11.6904 21.9288C13.5931 21.6553 15.2613 20.7997 16.5896 19.4206C17.4921 18.483 18.125 17.4359 18.5235 16.2209C18.8361 15.2755 18.9533 14.5449 18.9533 13.5525C18.9533 12.5211 18.8322 11.7593 18.5157 10.7982C18.3282 10.2278 17.8672 9.26281 17.7382 9.17296C17.6093 9.087 17.453 9.09482 17.3358 9.1964C17.1678 9.34876 17.1717 9.45034 17.3671 9.82149C17.7578 10.556 18.0469 11.4116 18.1953 12.2359C18.3086 12.8571 18.3008 14.2753 18.1836 14.8926C17.5976 17.9634 15.3472 20.37 12.3546 21.1201C11.1669 21.4209 9.78389 21.4209 8.59621 21.1201C5.49417 20.3426 3.18913 17.7837 2.72422 14.6152C2.64217 14.0682 2.64217 12.9821 2.72422 12.4352C2.96644 10.7787 3.71265 9.26672 4.87689 8.07513C6.09583 6.82103 7.69373 6.01231 9.41665 5.774C9.66278 5.73883 10.1238 5.71149 10.4754 5.71149C11.7842 5.71149 12.9758 6.0045 14.1478 6.61788C14.5542 6.82885 14.6479 6.83666 14.8042 6.66476C14.9058 6.55146 14.9136 6.39128 14.8276 6.26626C14.6948 6.07873 13.4876 5.54349 12.7297 5.34034C11.9561 5.12937 11.5654 5.07858 10.6317 5.06686C10.1472 5.05904 9.61981 5.06686 9.45962 5.08639Z" fill="white"/>
</svg>
