<svg width="24" height="24" viewBox="0 0 24 24" fill="none" xmlns="http://www.w3.org/2000/svg">
<path d="M13.4317 0.0494251C12.2177 0.208782 10.8585 0.686852 9.80865 1.32428C8.25726 2.27105 7.0574 3.58809 6.25593 5.22383C4.83109 8.12507 5.00451 11.5559 6.71525 14.3119C6.8418 14.5181 7.00584 14.7618 7.08083 14.8555L7.21676 15.029L6.82305 15.418L6.43403 15.807L6.27936 15.7461C6.04501 15.6476 5.59507 15.6664 5.32322 15.7883C4.98576 15.9336 0.284733 20.6158 0.116002 20.972C-0.0386675 21.3001 -0.0386675 21.7688 0.116002 22.0969C0.265985 22.4109 1.62052 23.7608 1.92517 23.8967C2.23451 24.0373 2.71727 24.0279 3.02661 23.8826C3.38282 23.7139 8.0651 19.0129 8.21039 18.6754C8.33225 18.4036 8.351 17.9536 8.25257 17.7193L8.19164 17.5646L8.58066 17.1756L8.96968 16.7819L9.1431 16.9178C9.23684 16.9928 9.48056 17.1568 9.68679 17.2834C12.4427 18.9941 15.8689 19.1676 18.7748 17.7427C19.8059 17.2365 20.5887 16.6694 21.3761 15.8586C22.6462 14.5415 23.4571 13.0089 23.8367 11.1997C24.0055 10.4029 24.0523 8.87498 23.9352 8.05945C23.7852 7.02363 23.518 6.14717 23.0634 5.22383C21.7089 2.43509 19.0795 0.522808 15.9814 0.0728588C15.433 -0.0115051 13.9941 -0.0208797 13.4317 0.0494251ZM15.6627 0.818087C18.9576 1.20242 21.7463 3.47091 22.8009 6.61586C23.3962 8.39691 23.3915 10.2342 22.7869 12.0387C21.4136 16.1398 17.1766 18.6051 12.963 17.7568C9.91645 17.1428 7.42767 14.9118 6.4809 11.9449C5.27635 8.18131 6.83711 4.07084 10.2539 1.9992C10.8351 1.64299 11.3225 1.4227 12.0256 1.19304C13.2817 0.780592 14.3878 0.668104 15.6627 0.818087ZM8.04166 15.9804L8.32288 16.2616L7.98073 16.6038L7.64327 16.9412L7.35268 16.646L7.0574 16.3554L7.38549 16.0273C7.56359 15.8492 7.72295 15.6992 7.73701 15.6992C7.75107 15.6992 7.88699 15.8258 8.04166 15.9804ZM6.01689 16.5147C6.10126 16.5522 6.45747 16.8709 6.81368 17.2318C7.45579 17.8786 7.54953 18.0193 7.51203 18.277C7.50266 18.3567 6.75275 19.1347 5.09825 20.7939L2.69852 23.1983H2.46417H2.23451L1.51741 22.4812L0.800299 21.7641V21.5345V21.3048L3.15316 18.9473C5.22011 16.8756 5.67474 16.4538 5.82941 16.4491C5.84816 16.4491 5.93253 16.4772 6.01689 16.5147Z" fill="white"/>
<path d="M14.0184 3.44231C13.9809 3.45168 13.7887 3.48449 13.5966 3.51261C12.1999 3.73759 10.7985 4.59999 9.90324 5.78579C9.76732 5.96858 9.54703 6.33417 9.40642 6.60601C8.92835 7.5434 8.75025 8.26988 8.75025 9.32445C8.74556 10.0978 8.80649 10.5056 9.02678 11.1805C9.33143 12.1132 9.76263 12.8116 10.4751 13.524C11.628 14.677 12.9966 15.2441 14.6277 15.2488C15.387 15.2535 15.7994 15.1925 16.4556 14.9863C19.6099 13.9833 21.3254 10.604 20.2708 7.45435C19.46 5.02182 17.1868 3.40013 14.6277 3.42356C14.3324 3.42825 14.0559 3.43762 14.0184 3.44231ZM15.5229 4.28596C16.5822 4.46876 17.5664 4.9937 18.3163 5.76704C18.7429 6.20293 18.9631 6.51696 19.249 7.09814C19.9427 8.49955 19.9568 10.0603 19.2865 11.5226C19.1319 11.8648 18.8272 12.3429 18.6444 12.5444L18.5507 12.6522L18.4335 12.4507C18.1195 11.921 17.6039 11.382 17.093 11.0399C16.8306 10.8665 16.1791 10.5431 16.09 10.5431C16.0619 10.5431 16.1744 10.4118 16.3338 10.2478C17.2477 9.33383 17.2477 7.82931 16.3338 6.91535C15.6167 6.19825 14.473 6.02014 13.5544 6.48415C13.2638 6.63413 12.8467 7.01378 12.6639 7.29968C12.0686 8.2277 12.2092 9.49318 12.992 10.2618L13.2638 10.5337L12.9966 10.6274C12.1811 10.9274 11.3281 11.6867 10.8078 12.5819C10.761 12.6569 10.7281 12.6288 10.5313 12.3663C10.236 11.9679 9.82825 11.1289 9.70639 10.6602C9.54703 10.0369 9.49547 9.39476 9.56109 8.82763C9.82825 6.51227 11.5109 4.69842 13.77 4.29065C14.2574 4.2016 15.0402 4.2016 15.5229 4.28596ZM15.2933 7.15439C16.0385 7.48716 16.4134 8.38706 16.1182 9.12291C15.8557 9.76971 15.3354 10.1306 14.6511 10.1353C14.0465 10.1447 13.5028 9.78377 13.2357 9.21196C13.1279 8.97762 13.1044 8.86513 13.1091 8.57454C13.1138 7.88087 13.4981 7.35124 14.1965 7.08877C14.4449 6.99972 15.0167 7.03253 15.2933 7.15439ZM15.5417 11.218C15.9588 11.3305 16.629 11.6773 16.9477 11.9538C17.4352 12.3757 17.9601 13.1115 17.8898 13.2849C17.8758 13.3224 17.6836 13.4724 17.4633 13.6177C15.8932 14.6395 14.0371 14.7473 12.3545 13.9083C11.9186 13.6927 11.3937 13.3271 11.3937 13.2474C11.3937 13.0928 11.7827 12.5397 12.167 12.1601C12.4904 11.8367 12.6779 11.6914 12.9638 11.5414C13.3716 11.3352 13.7091 11.2133 14.0559 11.1524C14.3699 11.0914 15.2089 11.1336 15.5417 11.218Z" fill="white"/>
</svg>
