<svg width="24" height="24" viewBox="0 0 24 24" fill="none" xmlns="http://www.w3.org/2000/svg">
<g clip-path="url(#clip0_8272_34936)">
<path d="M11.6004 0.072753C11.2734 0.174596 11.0108 0.346121 10.7535 0.608768C10.5391 0.833893 10.2818 1.33239 10.2818 1.52535C10.2818 1.62183 10.2443 1.64863 10.0835 1.67544C9.68148 1.74512 8.63625 2.0292 8.19136 2.19537C4.89488 3.39604 2.32202 6.12435 1.29824 9.49052C0.815827 11.0664 0.633583 13.5803 0.965911 14.0038C1.10527 14.1806 1.47512 14.1967 1.63057 14.0252C1.72169 13.9234 1.73241 13.8376 1.71633 13.2051C1.66273 10.7609 2.37026 8.50425 3.78534 6.57996C4.17663 6.04931 5.10929 5.0952 5.6453 4.67711C6.82989 3.74981 8.07344 3.12803 9.43491 2.77426C10.3408 2.54378 10.2818 2.53842 10.4533 2.89219C10.9733 3.99638 12.4848 4.34478 13.4657 3.59437C14.0232 3.16555 14.2751 2.58666 14.2376 1.83624C14.2001 1.0751 13.8195 0.506925 13.1334 0.185316C12.8386 0.0459528 12.6992 0.013792 12.3187 0.00307178C12.0185 -0.00764847 11.7773 0.013792 11.6004 0.072753ZM12.86 1.08582C13.1012 1.24662 13.3371 1.69151 13.3371 1.99704C13.3371 2.46874 12.8922 2.98867 12.4259 3.06907C12.0882 3.12803 11.7451 3.01011 11.4878 2.74746C10.5552 1.82016 11.7612 0.362201 12.86 1.08582Z" fill="white"/>
<path d="M16.2248 2.60747C16.064 2.77364 16.0264 2.9666 16.1229 3.14885C16.1551 3.20781 16.4231 3.37933 16.7233 3.52942C19.7785 5.09994 21.8315 7.97297 22.3139 11.3552C22.4157 12.0735 22.4157 13.4725 22.3139 14.1907C22.2227 14.8286 22.1423 15.1716 21.9065 15.9328L21.7403 16.4742H21.274C20.9256 16.4742 20.738 16.5063 20.5021 16.5974C20.068 16.769 19.6124 17.2031 19.414 17.6319C19.2747 17.9321 19.2586 18.0286 19.2586 18.4788C19.2586 18.9184 19.28 19.0309 19.4033 19.2936C20.1269 20.8534 22.3192 20.8855 23.075 19.3472C23.209 19.0738 23.2251 18.9827 23.2251 18.5056C23.2251 17.8678 23.134 17.5837 22.7963 17.1656L22.5658 16.8869L22.7748 16.2758C23.134 15.2145 23.2573 14.4855 23.2894 13.2206C23.3109 12.5291 23.2948 11.9234 23.2573 11.5857C22.8767 8.36426 21.1507 5.38403 18.6154 3.58302C17.8167 3.01484 16.7608 2.45203 16.4981 2.45203C16.4338 2.45203 16.3105 2.52171 16.2248 2.60747ZM21.5527 17.4122C21.9923 17.5301 22.3407 18.0018 22.3407 18.4788C22.3407 19.0095 21.9815 19.4383 21.4187 19.5723C20.9578 19.6795 20.3145 19.2239 20.202 18.7093C20.0894 18.1572 20.3896 17.6212 20.931 17.4283C21.1829 17.3425 21.2901 17.3371 21.5527 17.4122Z" fill="white"/>
<path d="M11.3675 6.47787C9.10554 6.82092 7.90487 9.51171 9.15914 11.4467L9.36819 11.7737L9.06266 11.9452C8.29616 12.374 7.48142 13.1244 7.00973 13.8427C6.30756 14.904 5.94843 16.1797 6.17891 16.7908C6.30756 17.1231 6.67741 17.434 7.02045 17.509C7.3903 17.5894 16.3953 17.5894 16.7652 17.509C17.1082 17.434 17.4781 17.1231 17.6067 16.7908C17.8372 16.1851 17.4673 14.8879 16.7598 13.8159C16.3042 13.1244 15.4895 12.3794 14.723 11.9452L14.4174 11.7737L14.6265 11.4521C14.9052 11.0179 15.0446 10.632 15.1035 10.1281C15.2214 9.06681 14.8945 8.13415 14.1441 7.38373C13.5384 6.77267 12.9756 6.51539 12.1019 6.45643C11.8821 6.44035 11.5551 6.45107 11.3675 6.47787ZM12.5092 7.44805C13.0345 7.58206 13.5973 7.99479 13.86 8.43968C14.4228 9.4045 14.262 10.6749 13.474 11.3985C12.2037 12.567 10.1025 11.972 9.663 10.3104C9.36819 9.2169 9.88812 8.06447 10.8905 7.59814C11.4158 7.34621 11.925 7.30333 12.5092 7.44805ZM10.3652 12.5616C10.4241 12.6045 10.6653 12.701 10.9012 12.776C11.6838 13.028 12.7558 12.9422 13.3883 12.5777C13.6188 12.4437 13.7474 12.4705 14.2727 12.7707C15.4144 13.4192 16.2399 14.443 16.6312 15.6812C16.7062 15.9278 16.7705 16.2065 16.7705 16.3084C16.7705 16.6782 17.0492 16.6568 11.8928 16.6568C6.73637 16.6568 7.01509 16.6782 7.01509 16.3084C7.01509 16.0725 7.25094 15.3221 7.45998 14.9147C7.94239 13.9499 8.69281 13.1941 9.663 12.6903C10.1132 12.4544 10.2044 12.4383 10.3652 12.5616Z" fill="white"/>
<path d="M2.03836 15.9598C1.70603 16.0295 1.19682 16.3189 0.977051 16.5655C0.869849 16.6834 0.719765 16.9139 0.639363 17.0801C0.51608 17.3427 0.5 17.4445 0.5 17.943C0.5 18.4469 0.51608 18.538 0.644723 18.8007C0.832328 19.1812 1.21826 19.5672 1.59883 19.7548C1.85611 19.8834 1.95795 19.8995 2.40284 19.8995C2.68157 19.8995 2.99782 19.8781 3.09966 19.8566C3.28191 19.8137 3.29263 19.8191 3.65175 20.2479C4.56834 21.3253 6.00485 22.3866 7.44136 23.0352C8.89396 23.6891 10.3787 24 12.0511 24C14.2219 24 16.0283 23.5069 17.8829 22.408C18.1509 22.2472 18.4243 22.0543 18.4832 21.9792C18.6279 21.7916 18.6226 21.5611 18.4564 21.4003C18.2581 21.1966 18.0383 21.2234 17.572 21.5183C14.5221 23.4104 10.77 23.6194 7.57537 22.0703C6.92143 21.7541 6.33182 21.395 5.75292 20.9554C5.38308 20.6714 4.53082 19.8566 4.21457 19.4814C4.01624 19.2509 4.00552 19.2188 4.08056 19.133C4.36465 18.8114 4.53618 18.0931 4.44505 17.6054C4.32177 16.93 3.82328 16.2921 3.24974 16.0777C2.89062 15.9437 2.36532 15.8901 2.03836 15.9598ZM2.97638 16.9621C3.60351 17.2837 3.75896 18.0985 3.29799 18.6238C2.62797 19.3849 1.38442 18.9293 1.38442 17.9216C1.38442 17.1122 2.25276 16.5869 2.97638 16.9621Z" fill="white"/>
</g>
<defs>
<clipPath id="clip0_8272_34936">
<rect width="24" height="24" fill="white"/>
</clipPath>
</defs>
</svg>
