<svg width="20" height="20" viewBox="0 0 20 20" fill="none" xmlns="http://www.w3.org/2000/svg">
<g clip-path="url(#clip0_8269_98035)">
<g clip-path="url(#clip1_8269_98035)">
<path d="M9.99361 12.956C11.6254 12.956 12.9482 11.6332 12.9482 10.0014C12.9482 8.36967 11.6254 7.04688 9.99361 7.04688C8.36186 7.04688 7.03906 8.36967 7.03906 10.0014C7.03906 11.6332 8.36186 12.956 9.99361 12.956Z" stroke="white" stroke-linecap="round" stroke-linejoin="round"/>
<path d="M16.512 12.6564L16.512 12.6564L16.5141 12.6515C16.5794 12.4991 16.6878 12.3692 16.8261 12.2777C16.964 12.1863 17.1257 12.1372 17.2911 12.1364H17.3636C17.9302 12.1364 18.4736 11.9113 18.8743 11.5106C19.2749 11.11 19.5 10.5666 19.5 10C19.5 9.4334 19.2749 8.89001 18.8743 8.48936C18.4736 8.08872 17.9302 7.86364 17.3636 7.86364H17.2257C17.0602 7.86281 16.8986 7.8137 16.7606 7.72233C16.6461 7.64652 16.5521 7.54435 16.486 7.42491C16.4804 7.37436 16.4671 7.32485 16.4465 7.27812C16.3779 7.12274 16.3575 6.95038 16.3878 6.78327L15.8958 6.69406L16.3878 6.78327C16.4179 6.61695 16.497 6.46343 16.6148 6.34228L16.6615 6.29557C16.8602 6.09716 17.0177 5.86154 17.1253 5.60219C17.2328 5.34284 17.2881 5.06484 17.2881 4.78409C17.2881 4.50334 17.2328 4.22534 17.1253 3.96599C17.0177 3.70664 16.8602 3.47102 16.6615 3.27261C16.4632 3.07417 16.2277 2.91673 15.9686 2.80929C15.7092 2.70178 15.4312 2.64644 15.1505 2.64644C14.8697 2.64644 14.5917 2.70178 14.3324 2.80929C14.073 2.9168 13.8374 3.07438 13.639 3.27301L13.5923 3.31972C13.4711 3.43755 13.3176 3.5166 13.1513 3.54675C12.9842 3.57705 12.8118 3.5566 12.6564 3.48802L12.6564 3.488L12.6515 3.48588C12.4991 3.42058 12.3692 3.31215 12.2777 3.17394L11.8608 3.45002L12.2777 3.17394C12.1863 3.03597 12.1372 2.87433 12.1364 2.70886V2.63636C12.1364 2.06976 11.9113 1.52637 11.5106 1.12573C11.11 0.725081 10.5666 0.5 10 0.5C9.4334 0.5 8.89001 0.725081 8.48936 1.12573C8.08872 1.52637 7.86364 2.06976 7.86364 2.63636V2.77431C7.86281 2.93978 7.8137 3.10142 7.72233 3.2394C7.64652 3.35388 7.54435 3.44792 7.42491 3.51395C7.37436 3.51956 7.32485 3.53285 7.27812 3.55348C7.12274 3.62205 6.95038 3.64251 6.78327 3.61221C6.61695 3.58205 6.46342 3.503 6.34228 3.38517L6.29557 3.33846C6.09716 3.13983 5.86154 2.98225 5.60219 2.87474C5.34284 2.76723 5.06484 2.71189 4.78409 2.71189C4.50334 2.71189 4.22534 2.76723 3.96599 2.87474C3.70673 2.98222 3.47118 3.13973 3.27281 3.33826C3.07427 3.53663 2.91676 3.77218 2.80929 4.03145C2.70178 4.2908 2.64644 4.56879 2.64644 4.84955C2.64644 5.1303 2.70178 5.40829 2.80929 5.66764C2.9168 5.927 3.07438 6.16261 3.27301 6.36102L3.31972 6.40773C3.43754 6.52887 3.5166 6.6824 3.54675 6.84872C3.57705 7.01584 3.5566 7.18819 3.48802 7.34357C3.48377 7.35321 3.47982 7.36298 3.47619 7.37286C3.41731 7.53294 3.31164 7.6716 3.17292 7.77082C3.03559 7.86904 2.87216 7.92412 2.70348 7.92909H2.63636C2.06976 7.92909 1.52637 8.15417 1.12573 8.55482C0.725081 8.95546 0.5 9.49886 0.5 10.0655C0.5 10.6321 0.725081 11.1754 1.12573 11.5761C1.52637 11.9767 2.06976 12.2018 2.63636 12.2018H2.77431C2.93978 12.2026 3.10142 12.2517 3.2394 12.3431L3.51547 11.9263L3.2394 12.3431C3.37761 12.4347 3.48604 12.5646 3.55134 12.717L3.55131 12.717L3.55348 12.7219C3.62205 12.8773 3.64251 13.0496 3.61221 13.2167C3.58205 13.383 3.503 13.5366 3.38518 13.6577L3.33846 13.7044C3.13983 13.9028 2.98225 14.1385 2.87474 14.3978C2.76723 14.6572 2.71189 14.9352 2.71189 15.2159C2.71189 15.4967 2.76723 15.7747 2.87474 16.034C2.98218 16.2932 3.13962 16.5287 3.33807 16.727C3.53648 16.9256 3.7721 17.0832 4.03145 17.1907C4.29079 17.2982 4.56879 17.3536 4.84955 17.3536C5.1303 17.3536 5.4083 17.2982 5.66764 17.1907C5.92699 17.0832 6.16261 16.9256 6.36102 16.727L6.40774 16.6803C6.52888 16.5625 6.68241 16.4834 6.84872 16.4532L6.75952 15.9613L6.84872 16.4532C7.01584 16.4229 7.18819 16.4434 7.34357 16.512C7.35321 16.5162 7.36298 16.5202 7.37286 16.5238C7.53294 16.5827 7.6716 16.6884 7.77082 16.8271C7.86904 16.9644 7.92412 17.1278 7.92909 17.2965V17.3636C7.92909 17.9302 8.15417 18.4736 8.55482 18.8743C8.95546 19.2749 9.49885 19.5 10.0655 19.5C10.6321 19.5 11.1754 19.2749 11.5761 18.8743C11.9767 18.4736 12.2018 17.9302 12.2018 17.3636V17.2257C12.2026 17.0602 12.2517 16.8986 12.3431 16.7606C12.4347 16.6224 12.5646 16.514 12.717 16.4487L12.717 16.4487L12.7219 16.4465C12.8773 16.3779 13.0496 16.3575 13.2167 16.3878C13.383 16.4179 13.5365 16.497 13.6577 16.6148L13.7044 16.6615C13.7045 16.6616 13.7046 16.6617 13.7046 16.6617C13.903 16.8603 14.1385 17.0178 14.3978 17.1253C14.6572 17.2328 14.9352 17.2881 15.2159 17.2881C15.4967 17.2881 15.7747 17.2328 16.034 17.1253C16.2933 17.0178 16.5288 16.8603 16.7272 16.6617C16.9257 16.4634 17.0832 16.2278 17.1907 15.9686C17.2982 15.7092 17.3536 15.4312 17.3536 15.1505C17.3536 14.8697 17.2982 14.5917 17.1907 14.3324C17.0832 14.073 16.9256 13.8374 16.727 13.639L16.6803 13.5923C16.5625 13.4711 16.4834 13.3176 16.4532 13.1513C16.4229 12.9842 16.4434 12.8118 16.512 12.6564Z" stroke="white" stroke-linecap="round" stroke-linejoin="round"/>
</g>
</g>
<defs>
<clipPath id="clip0_8269_98035">
<rect width="20" height="20" fill="white"/>
</clipPath>
<clipPath id="clip1_8269_98035">
<rect width="20" height="20" fill="white"/>
</clipPath>
</defs>
</svg>
