<svg width="20" height="21" viewBox="0 0 20 21" fill="none" xmlns="http://www.w3.org/2000/svg">
<g clip-path="url(#clip0_8269_99539)">
<path d="M9.15438 0.965481C6.49226 1.28261 4.47334 2.19827 2.84302 3.81966C1.29309 5.36959 0.292565 7.49571 0.0468997 9.79156C-0.0156332 10.3499 -0.0156332 11.538 0.0468997 12.0963C0.332765 14.7361 1.61469 17.1481 3.57108 18.7293C5.29967 20.1229 7.73845 20.9492 10.1147 20.9492C14.3044 20.9448 18.1413 18.1442 19.4634 14.1331C19.8207 13.0522 19.9636 12.1544 19.9636 10.9439C19.9636 9.73349 19.8207 8.81783 19.4634 7.7503C19.24 7.07584 18.847 6.24505 18.7085 6.15125C18.5656 6.04851 18.3914 6.05745 18.2485 6.16911C18.0787 6.30311 18.0966 6.48178 18.3378 6.99544C19.2266 8.91163 19.4276 10.8636 18.9542 12.9986C18.4629 15.1962 17.2837 17.0766 15.6087 18.3139C14.3982 19.2117 13.1699 19.7298 11.5217 20.0425C10.9098 20.1542 9.00698 20.1542 8.39505 20.0425C6.32253 19.6494 4.71454 18.841 3.38795 17.5144C1.94075 16.0672 1.07869 14.218 0.774962 11.9266C0.667763 11.1047 0.707962 9.82282 0.864295 9.07689C1.51196 6.00385 3.68721 3.4802 6.70666 2.30547C9.13204 1.35855 11.7406 1.47021 14.0319 2.61814C14.4071 2.80573 14.6081 2.81467 14.7332 2.65387C14.8583 2.49307 14.8538 2.27421 14.7287 2.15807C14.3535 1.81414 12.8081 1.26475 11.611 1.05035C11.2046 0.974413 9.54297 0.920815 9.15438 0.965481Z" fill="white"/>
<path d="M15.4663 2.87419L14.0682 4.26778L14.0727 4.55811C14.0727 4.71891 14.0995 5.13878 14.1307 5.49611L14.1843 6.14377L11.8929 8.44409C9.6239 10.7265 9.60156 10.7489 9.60156 10.9275C9.60156 11.1687 9.74003 11.3027 9.98123 11.3027C10.1554 11.3027 10.2046 11.2536 12.4602 9.01135L14.7605 6.71996L15.4082 6.77356C15.7655 6.80483 16.1854 6.83163 16.3462 6.83163L16.6365 6.8361L18.0301 5.43804C19.3656 4.10698 19.4282 4.03552 19.4282 3.87472C19.4282 3.69159 19.321 3.54865 19.1512 3.50845C19.0932 3.49505 18.709 3.45932 18.2892 3.43252L17.5298 3.37445L17.4718 2.61513C17.445 2.19526 17.4092 1.81113 17.3958 1.75306C17.3556 1.58333 17.2127 1.47613 17.0296 1.47613C16.8688 1.47613 16.7973 1.53867 15.4663 2.87419ZM16.766 3.30299C16.7973 3.81665 16.8509 3.97298 17.0206 4.05338C17.0832 4.08465 17.3467 4.12485 17.6013 4.13825C17.8559 4.15612 18.0926 4.18291 18.1194 4.19631C18.1552 4.21418 17.8336 4.56705 17.2484 5.15217L16.3194 6.08124L15.6226 6.02764L14.9303 5.97404L14.8767 5.28171L14.8231 4.58491L15.7521 3.65585C16.3373 3.07072 16.6901 2.74912 16.708 2.78486C16.7214 2.81166 16.7482 3.04839 16.766 3.30299Z" fill="white"/>
<path d="M9.19304 5.49283L9.1933 5.49279C9.4456 5.45446 9.8254 5.4438 10.1997 5.45639C10.5739 5.46898 10.9478 5.50497 11.1879 5.5617L11.1879 5.5617C11.5017 5.63594 11.8564 5.7561 12.1473 5.8785C12.2927 5.9397 12.4231 6.00184 12.525 6.05954C12.5759 6.08838 12.6204 6.1165 12.6563 6.14323C12.6914 6.16932 12.7212 6.19621 12.7402 6.22329C12.8333 6.35423 12.8229 6.51836 12.7209 6.64875C12.6901 6.68875 12.6538 6.72012 12.6083 6.73921C12.5629 6.75828 12.5124 6.76343 12.4557 6.7574C12.3451 6.74562 12.2016 6.68985 12.0062 6.59501C11.8243 6.50959 11.5536 6.3994 11.4017 6.35003C9.78225 5.8253 7.91893 6.2788 6.62387 7.51131C5.54973 8.53753 5.05624 9.79965 5.15936 11.2692L5.15936 11.2693C5.2269 12.2628 5.59287 13.1855 6.23673 13.981L6.23678 13.981C7.38468 15.4037 9.38686 16.0641 11.1531 15.6064C12.7092 15.2021 13.9898 13.9813 14.5235 12.3864L14.5235 12.3863C14.6977 11.8718 14.7652 11.4362 14.7652 10.8711C14.7652 10.1365 14.6305 9.56293 14.3103 8.89529C14.2153 8.70022 14.1594 8.55689 14.1476 8.44639C14.1416 8.38982 14.1467 8.33932 14.1658 8.29396C14.185 8.24854 14.2164 8.21225 14.2565 8.18144C14.387 8.07979 14.5511 8.0694 14.6821 8.16204C14.7105 8.18158 14.7385 8.21285 14.7658 8.24972C14.7936 8.28748 14.8229 8.33438 14.853 8.3881C14.9131 8.4956 14.9777 8.63334 15.041 8.78639C15.1676 9.09247 15.2907 9.46364 15.3632 9.78421L15.3633 9.78461C15.4363 10.1199 15.4471 10.2641 15.4471 10.9428C15.4471 11.6214 15.4363 11.7657 15.3633 12.0975L15.3632 12.0977C15.1169 13.1899 14.6489 14.0411 13.8519 14.8331C13.0696 15.6141 12.2532 16.0706 11.188 16.3202C10.7073 16.4366 9.8788 16.4724 9.35305 16.4109L9.35273 16.4109C7.97747 16.2411 6.82065 15.6842 5.94265 14.7678L5.94264 14.7678C3.96287 12.7008 3.96287 9.18472 5.94264 7.11776L5.94269 7.11772C6.36311 6.67991 6.78062 6.36818 7.30642 6.09666L7.30672 6.09651C7.94018 5.77489 8.45888 5.60837 9.19304 5.49283Z" fill="white" stroke="white" stroke-width="0.1"/>
</g>
<defs>
<clipPath id="clip0_8269_99539">
<rect width="20" height="20" fill="white" transform="translate(0 0.949219)"/>
</clipPath>
</defs>
</svg>
