<svg width="20" height="20" viewBox="0 0 20 20" fill="none" xmlns="http://www.w3.org/2000/svg">
<g clip-path="url(#clip0_8269_97851)">
<mask id="path-1-inside-1_8269_97851" fill="white">
<path d="M6.66667 20H2.22222C1.63285 20 1.06762 19.7659 0.650874 19.3491C0.234126 18.9324 0 18.3671 0 17.7778V2.22222C0 1.63285 0.234126 1.06762 0.650874 0.650874C1.06762 0.234126 1.63285 0 2.22222 0H6.66667"/>
</mask>
<path d="M6.66667 21C7.21895 21 7.66667 20.5523 7.66667 20C7.66667 19.4477 7.21895 19 6.66667 19V21ZM0 17.7778H-1H0ZM2.22222 0V-1V0ZM6.66667 1C7.21895 1 7.66667 0.552285 7.66667 0C7.66667 -0.552285 7.21895 -1 6.66667 -1V1ZM6.66667 19H2.22222V21H6.66667V19ZM2.22222 19C1.89807 19 1.58719 18.8712 1.35798 18.642L-0.056233 20.0562C0.548051 20.6605 1.36764 21 2.22222 21V19ZM1.35798 18.642C1.12877 18.4128 1 18.1019 1 17.7778H-1C-1 18.6324 -0.660517 19.452 -0.056233 20.0562L1.35798 18.642ZM1 17.7778V2.22222H-1V17.7778H1ZM1 2.22222C1 1.89807 1.12877 1.58719 1.35798 1.35798L-0.056233 -0.056233C-0.660517 0.548051 -1 1.36764 -1 2.22222H1ZM1.35798 1.35798C1.58719 1.12877 1.89807 1 2.22222 1V-1C1.36764 -1 0.548051 -0.660517 -0.056233 -0.056233L1.35798 1.35798ZM2.22222 1H6.66667V-1H2.22222V1Z" fill="white" mask="url(#path-1-inside-1_8269_97851)"/>
<mask id="path-3-inside-2_8269_97851" fill="white">
<path d="M14.4375 15.5564L19.9931 10.0009L14.4375 4.44531"/>
</mask>
<path d="M13.7304 14.8493C13.3399 15.2398 13.3399 15.873 13.7304 16.2635C14.1209 16.6541 14.7541 16.6541 15.1446 16.2635L13.7304 14.8493ZM19.9931 10.0009L20.7002 10.708C21.0907 10.3175 21.0907 9.68429 20.7002 9.29376L19.9931 10.0009ZM15.1446 3.73821C14.7541 3.34768 14.1209 3.34768 13.7304 3.73821C13.3399 4.12873 13.3399 4.7619 13.7304 5.15242L15.1446 3.73821ZM15.1446 16.2635L20.7002 10.708L19.2859 9.29376L13.7304 14.8493L15.1446 16.2635ZM20.7002 9.29376L15.1446 3.73821L13.7304 5.15242L19.2859 10.708L20.7002 9.29376Z" fill="white" mask="url(#path-3-inside-2_8269_97851)"/>
<path d="M19.0052 10H5.67188" stroke="white" stroke-linecap="round" stroke-linejoin="round"/>
</g>
<defs>
<clipPath id="clip0_8269_97851">
<rect width="20" height="20" fill="white"/>
</clipPath>
</defs>
</svg>
