<svg width="20" height="20" viewBox="0 0 20 20" fill="none" xmlns="http://www.w3.org/2000/svg">
<g clip-path="url(#clip0_8024_100143)">
<path d="M3.34783 11H2.56522C2.1501 11 1.75198 10.8379 1.45844 10.5494C1.16491 10.2609 1 9.86956 1 9.46154V2.53846C1 2.13044 1.16491 1.73912 1.45844 1.4506C1.75198 1.16209 2.1501 1 2.56522 1H17.4348C17.8499 1 18.248 1.16209 18.5416 1.4506C18.8351 1.73912 19 2.13044 19 2.53846V10.3077" stroke="white" stroke-linecap="round" stroke-linejoin="round"/>
<path d="M9.0294 5.12413C8.72488 5.27326 8.51745 5.47352 8.38064 5.759C8.29237 5.95073 8.28796 6.02317 8.26148 9.1634C8.24824 10.9231 8.22617 12.3761 8.21293 12.3889C8.19969 12.4016 8.1026 12.3036 8.00109 12.1715C7.71863 11.8222 7.31702 11.4898 6.97277 11.3236C6.70797 11.1958 6.6197 11.1745 6.34608 11.1745C5.91357 11.1745 5.63111 11.264 5.37514 11.4813C5.08827 11.7284 5 11.9244 5 12.3462C5 12.9002 5.16771 13.3646 5.64876 14.1315C5.81206 14.3914 6.62412 15.7933 7.45824 17.2462C8.29237 18.6991 9.00733 19.9135 9.04706 19.9391C9.10443 19.9817 9.63845 19.9944 11.3597 19.9944H13.6016L13.6899 19.8837C13.8444 19.6962 13.8135 19.5172 13.5928 19.3042C13.5884 19.2999 12.6616 19.2829 11.5318 19.2701L9.47957 19.2488L8.00109 16.671C7.18903 15.2521 6.44317 13.9654 6.34166 13.8162C5.84295 13.0578 5.63552 12.4016 5.79441 12.1076C5.92681 11.8733 6.40786 11.8264 6.72563 12.0182C7.16696 12.2909 7.71422 12.9683 8.11584 13.7395C8.22176 13.9441 8.34974 14.1315 8.39388 14.1571C8.53952 14.2295 8.74695 14.2082 8.85728 14.1017L8.95879 14.0037L8.98527 11.7284C9.00292 10.4757 9.01616 8.72453 9.01616 7.83828C9.01616 6.0743 9.02058 6.04447 9.27655 5.83569C9.55018 5.61413 10.0224 5.71639 10.1901 6.02743C10.2607 6.15525 10.2607 6.44499 10.2343 10.0667L10.1989 13.9654L10.296 14.0847C10.4284 14.2466 10.7197 14.2508 10.8742 14.0889L10.9801 13.9781L11.0022 11.6943L11.0242 9.40627L11.1302 9.2614C11.3861 8.91627 11.929 8.92053 12.1497 9.26992C12.2335 9.40201 12.2379 9.50001 12.2379 11.7114C12.2379 13.9142 12.2423 14.025 12.3218 14.1188C12.4365 14.2551 12.7278 14.2594 12.8646 14.123C12.9661 14.025 12.9661 14.025 12.9882 12.1843C13.0103 10.5141 13.0191 10.3309 13.0897 10.2243C13.3368 9.85792 13.8664 9.86218 14.1224 10.2329L14.2239 10.3777V12.2014V14.025L14.3387 14.1102C14.5108 14.2423 14.8065 14.2338 14.9212 14.0974C15.0007 13.9994 15.0051 13.8887 15.0272 12.6488C15.0492 11.4728 15.0625 11.2938 15.1331 11.183C15.2214 11.0339 15.4906 10.8763 15.6539 10.8763C15.8481 10.8763 16.0687 10.9913 16.1658 11.1404C16.2497 11.2768 16.2541 11.3492 16.2541 13.0748C16.2541 15.6271 16.1217 16.7946 15.5877 18.925C15.495 19.3084 15.4155 19.6536 15.4155 19.6962C15.4155 19.7345 15.4553 19.8197 15.5082 19.8837C15.623 20.0243 15.9319 20.0413 16.0511 19.9135C16.2408 19.7132 16.6778 17.7277 16.8984 16.0532C16.9558 15.6228 16.9779 15.022 16.9911 13.3305C17.0132 10.872 17.022 10.9444 16.6645 10.5737C16.307 10.203 15.7245 10.0624 15.2258 10.2243L14.9742 10.3096L14.9301 10.1562C14.7403 9.47444 13.9547 9.0654 13.2265 9.27844C13.0103 9.34236 12.9485 9.32105 12.9441 9.18044C12.9396 8.92906 12.4453 8.44332 12.0923 8.34106C11.8142 8.2601 11.4347 8.2601 11.2008 8.34106C11.1037 8.37515 11.0198 8.40497 11.0154 8.40497C11.011 8.40497 11.0022 7.83402 10.9933 7.13524C10.9801 5.91665 10.9757 5.86125 10.8786 5.69082C10.7506 5.45648 10.5211 5.23491 10.2828 5.11561C10.146 5.04744 9.99593 5.01761 9.70023 5.00483C9.3251 4.99205 9.28538 4.99631 9.0294 5.12413Z" fill="white"/>
</g>
<defs>
<clipPath id="clip0_8024_100143">
<rect width="20" height="20" fill="white"/>
</clipPath>
</defs>
</svg>
