<svg width="20" height="21" viewBox="0 0 20 21" fill="none" xmlns="http://www.w3.org/2000/svg">
<g clip-path="url(#clip0_8275_126461)">
<path d="M15.2589 1.01679C15.2062 1.05896 14.9374 1.53862 14.658 2.08681L14.1519 3.08303L13.0344 3.24116C11.7693 3.42037 11.6797 3.46254 11.6797 3.82624C11.6797 4.01072 11.7324 4.07398 12.5073 4.833L13.3402 5.63947L13.1504 6.72002C13.0502 7.31565 12.9817 7.86383 12.9975 7.93763C13.0133 8.00615 13.0819 8.10103 13.1398 8.1432C13.3612 8.29606 13.5615 8.23807 14.5578 7.71624L15.5225 7.21023L16.5029 7.71624C17.5783 8.2697 17.7628 8.31714 17.9631 8.10103C18.116 7.93763 18.1107 7.84802 17.9104 6.6515L17.7364 5.62892L18.5693 4.833C19.3547 4.07398 19.3969 4.02127 19.3969 3.83151C19.3969 3.452 19.302 3.40983 18.0633 3.24116C17.4623 3.15682 16.951 3.07248 16.9246 3.05667C16.8983 3.04086 16.6664 2.59809 16.4028 2.07099C16.134 1.53862 15.8704 1.08004 15.8019 1.0326C15.6543 0.927183 15.3907 0.921912 15.2589 1.01679ZM15.8862 3.09884C16.0707 3.46781 16.2605 3.80515 16.3079 3.84205C16.3501 3.87895 16.7507 3.96328 17.1882 4.02654L17.9842 4.13723L17.3991 4.69068C16.7191 5.33375 16.7402 5.26522 16.9194 6.24036C16.9774 6.55662 17.0248 6.8518 17.0248 6.8887C17.0248 6.93614 16.7981 6.84126 16.3712 6.61987C15.9705 6.40376 15.6595 6.27199 15.5541 6.27199C15.454 6.27199 15.1113 6.40903 14.7054 6.6146C14.0781 6.92559 14.0202 6.94668 14.0465 6.84126C14.0992 6.57771 14.2837 5.48134 14.2837 5.397C14.2837 5.34956 14.0254 5.04384 13.7039 4.72231L13.124 4.13196L13.8936 4.02127C14.4893 3.93166 14.6896 3.88422 14.7792 3.79988C14.8372 3.7419 15.0322 3.40983 15.2062 3.06194C15.3802 2.70878 15.5277 2.42415 15.533 2.42415C15.5436 2.42415 15.7017 2.72987 15.8862 3.09884Z" fill="white"/>
<path d="M4.25891 1.01679C4.2062 1.05896 3.93736 1.53862 3.65798 2.08681L3.15194 3.08303L2.03442 3.24116C0.7693 3.42037 0.679688 3.46254 0.679688 3.82624C0.679688 4.01072 0.732401 4.07398 1.50728 4.833L2.34015 5.63947L2.15039 6.72002C2.05023 7.31565 1.9817 7.86383 1.99752 7.93763C2.01333 8.00615 2.08186 8.10103 2.13984 8.1432C2.36124 8.29606 2.56155 8.23807 3.55783 7.71624L4.52248 7.21023L5.50294 7.71624C6.57829 8.2697 6.76279 8.31714 6.9631 8.10103C7.11597 7.93763 7.11069 7.84802 6.91038 6.6515L6.73643 5.62892L7.5693 4.833C8.35473 4.07398 8.3969 4.02127 8.3969 3.83151C8.3969 3.452 8.30201 3.40983 7.06325 3.24116C6.46232 3.15682 5.951 3.07248 5.92465 3.05667C5.89829 3.04086 5.66635 2.59809 5.40279 2.07099C5.13395 1.53862 4.87038 1.08004 4.80186 1.0326C4.65426 0.927183 4.3907 0.921912 4.25891 1.01679ZM4.8862 3.09884C5.07069 3.46781 5.26046 3.80515 5.3079 3.84205C5.35007 3.87895 5.75069 3.96328 6.18821 4.02654L6.98418 4.13723L6.39907 4.69068C5.71907 5.33375 5.74015 5.26522 5.91938 6.24036C5.97736 6.55662 6.0248 6.8518 6.0248 6.8887C6.0248 6.93614 5.79814 6.84126 5.37116 6.61987C4.97054 6.40376 4.65953 6.27199 4.55411 6.27199C4.45395 6.27199 4.11132 6.40903 3.70542 6.6146C3.07814 6.92559 3.02015 6.94668 3.04651 6.84126C3.09922 6.57771 3.28372 5.48134 3.28372 5.397C3.28372 5.34956 3.02542 5.04384 2.70387 4.72231L2.12403 4.13196L2.89364 4.02127C3.4893 3.93166 3.68961 3.88422 3.77922 3.79988C3.83721 3.7419 4.03225 3.40983 4.2062 3.06194C4.38015 2.70878 4.52775 2.42415 4.53302 2.42415C4.54356 2.42415 4.7017 2.72987 4.8862 3.09884Z" fill="white"/>
<path d="M8.5764 9.23181C8.36326 9.29478 8.09198 9.60963 8.05323 9.84214C8.02901 9.97777 8.06292 10.2006 8.17433 10.6462L8.3245 11.2614L8.19371 11.7991C8.08714 12.2253 8.03869 12.3416 7.95634 12.3803C7.90306 12.3997 7.42348 12.4966 6.89547 12.5935L5.93632 12.763L5.74255 12.608L5.54394 12.4482H3.52391H1.49904L1.32949 12.5789C0.985556 12.8405 1.00009 12.6758 1.00009 16.2991C1.00009 19.9223 0.985556 19.7576 1.32949 20.0192L1.49904 20.15L3.46094 20.1645C5.33564 20.179 5.42768 20.1742 5.60691 20.0822L5.79099 19.9853L7.62209 20.4648L9.4532 20.9492H12.4857H15.5133L15.7652 20.8233C16.051 20.6828 16.2835 20.4358 16.4143 20.1354C16.4918 19.9611 16.5063 19.8497 16.487 19.5251C16.4773 19.312 16.4482 19.0843 16.4288 19.031C16.4046 18.9487 16.4191 18.9196 16.5112 18.9002C16.7049 18.8518 17.0247 18.537 17.1555 18.2609C17.2717 18.0283 17.2863 17.9508 17.2717 17.5924C17.2523 17.2339 17.233 17.1564 17.0973 16.9385L16.9423 16.6866L17.0973 16.4347C17.2427 16.2022 17.2523 16.1634 17.2523 15.7178C17.2523 15.2722 17.2427 15.2334 17.0973 15.0009L16.9423 14.749L17.0973 14.4971C17.233 14.2792 17.2523 14.1968 17.2669 13.8529C17.2814 13.5332 17.2669 13.4073 17.1894 13.2377C17.0586 12.9374 16.8261 12.6904 16.5402 12.5499L16.2883 12.4239H13.9341C12.1659 12.4239 11.5653 12.4094 11.5217 12.3658C11.4829 12.3271 11.4635 12.0946 11.4635 11.6489C11.4635 10.9417 11.4103 10.6656 11.2068 10.2636C10.9452 9.75011 10.3833 9.34322 9.77291 9.22696C9.45804 9.16884 8.7847 9.16884 8.5764 9.23181ZM9.76323 10.0795C9.9473 10.1328 10.0878 10.22 10.2525 10.3847C10.577 10.7092 10.64 10.9369 10.6788 11.9056C10.7127 12.6661 10.7224 12.7097 10.8435 12.8696C11.1002 13.2038 11.0566 13.199 13.5562 13.199C14.7866 13.199 15.8863 13.2232 15.9929 13.2474C16.4143 13.3443 16.5935 13.7996 16.3271 14.1145C16.1576 14.3179 15.9541 14.3615 15.2081 14.3615H14.5638V14.749V15.1365H15.1839C15.9396 15.1414 16.1479 15.1801 16.3223 15.3787C16.5887 15.6742 16.4288 16.1344 16.0268 16.2506C15.9299 16.2748 15.5569 16.2991 15.2081 16.2991H14.5638V16.6866V17.0741H15.1839C15.9396 17.0789 16.1479 17.1177 16.3223 17.3163C16.5887 17.6118 16.4288 18.0719 16.0268 18.1882C15.9299 18.2124 15.5569 18.2366 15.2081 18.2366H14.5638V18.6241V19.0117H14.7963C15.1645 19.0165 15.397 19.0892 15.5472 19.2539C15.8427 19.5832 15.6199 20.0773 15.1403 20.15C15.024 20.1645 13.7306 20.1742 12.2628 20.1645L9.59852 20.1451L7.84493 19.6753C6.88093 19.4185 6.08164 19.2054 6.06711 19.2054C6.03804 19.2054 6.02351 13.5865 6.05258 13.5865C6.05742 13.5865 6.58059 13.4896 7.21518 13.3733C8.40685 13.1554 8.51342 13.1215 8.71688 12.8551C8.81376 12.7194 9.13348 11.523 9.13832 11.2759C9.13832 11.1936 9.08504 10.8981 9.01722 10.622C8.9494 10.3459 8.89612 10.094 8.89612 10.0601C8.89612 9.97293 9.44835 9.98261 9.76323 10.0795ZM5.20484 13.2571C5.2872 13.3394 5.2872 19.2587 5.20484 19.341C5.12249 19.4234 1.91564 19.4234 1.83329 19.341C1.75094 19.2587 1.75094 13.3394 1.83329 13.2571C1.91564 13.1747 5.12249 13.1747 5.20484 13.2571Z" fill="white"/>
<path d="M4.34375 18.1213V18.543H4.97631H5.60887V18.1213V17.6996H4.97631H4.34375V18.1213Z" fill="white"/>
</g>
<defs>
<clipPath id="clip0_8275_126461">
<rect width="20" height="20" fill="white" transform="translate(0 0.949219)"/>
</clipPath>
</defs>
</svg>
