<svg width="20" height="20" viewBox="0 0 20 20" fill="none" xmlns="http://www.w3.org/2000/svg">
<path d="M4.29514 7.82636L4.19437 7.65H3.99125H1C0.641112 7.65 0.35 7.35889 0.35 7V3C0.35 2.64111 0.641112 2.35 1 2.35H5C5.35889 2.35 5.65 2.64111 5.65 3V4V4.35H6H12.65V5.65H6H5.65V6V7.48469V7.57763L5.69612 7.65834L7.44401 10.7172C7.00736 10.8248 6.62068 11.056 6.3194 11.3691L4.29514 7.82636ZM8 12.35H12C12.3589 12.35 12.65 12.6411 12.65 13V17C12.65 17.3589 12.3589 17.65 12 17.65H8C7.64111 17.65 7.35 17.3589 7.35 17V13C7.35 12.6411 7.64111 12.35 8 12.35ZM15 2.35H19C19.3589 2.35 19.65 2.64111 19.65 3V7C19.65 7.35889 19.3589 7.65 19 7.65H15C14.6411 7.65 14.35 7.35889 14.35 7V3C14.35 2.64111 14.6411 2.35 15 2.35Z" stroke="white" stroke-width="0.7"/>
</svg>
