<svg width="20" height="21" viewBox="0 0 20 21" fill="none" xmlns="http://www.w3.org/2000/svg">
<g clip-path="url(#clip0_8281_126907)">
<path d="M7.12503 2.61113C6.72658 2.70882 6.4297 2.95498 6.25 3.33399L6.14844 3.5528V5.76043V7.96806L6.25 8.18297C6.39454 8.49164 6.56642 8.67138 6.8594 8.81595C7.07425 8.92145 7.17191 8.94489 7.46098 8.95661L7.80864 8.97224V9.61695V10.2617L7.92193 10.375C8.01568 10.4687 8.07037 10.4883 8.22272 10.4883H8.41022L9.17197 9.72635L9.93761 8.96834L11.3634 8.95661L12.7893 8.94489L13.051 8.81595C13.3166 8.68701 13.5119 8.49555 13.6448 8.23376C13.7698 7.98369 13.7893 7.60859 13.7776 5.58069C13.7659 3.82631 13.7541 3.57233 13.6955 3.42385C13.5979 3.17379 13.4182 2.94325 13.2112 2.80259C12.8479 2.55643 12.8361 2.55643 9.93761 2.56034C8.00006 2.56034 7.26957 2.57597 7.12503 2.61113ZM12.6486 3.4473C12.7229 3.48246 12.8205 3.56452 12.8635 3.62313C12.9455 3.73253 12.9455 3.77161 12.9455 5.75261C12.9455 7.58124 12.9377 7.78442 12.8791 7.89382C12.7463 8.13608 12.7033 8.14389 11.0666 8.14389H9.59385L9.10946 8.62058L8.62898 9.09728V8.75343C8.62898 8.4135 8.62898 8.40959 8.49616 8.27674L8.36335 8.14389H7.87115C7.31644 8.14389 7.168 8.10482 7.0469 7.92508C6.97268 7.81568 6.96877 7.72972 6.96877 5.77215C6.96877 3.77161 6.96877 3.73253 7.05081 3.62313C7.23831 3.36915 7.13284 3.37697 9.95715 3.37697C12.3166 3.37697 12.5275 3.38087 12.6486 3.4473Z" fill="white"/>
<path d="M3.37401 7.95032C2.42867 8.09099 1.60052 8.75523 1.26848 9.62656C1.08488 10.115 1.04972 10.705 1.17473 11.2286C1.19426 11.3262 1.29583 11.5685 1.39349 11.7717C1.53802 12.0725 1.63177 12.2015 1.87397 12.4437L2.17476 12.7446L1.81928 12.9517C1.19817 13.319 0.627837 13.9481 0.32314 14.6045C0.0457879 15.2101 0.0223497 15.3508 0.0028179 16.5699C-0.00499484 17.3552 0.00281789 17.6913 0.0340688 17.7538C0.139541 17.9531 0.0926644 17.9491 3.74512 17.9491C7.54211 17.9491 7.36632 17.9609 7.48351 17.6874C7.5343 17.5584 7.54211 17.4021 7.52258 16.6011C7.49914 15.6399 7.46789 15.4055 7.29991 14.9249C7.00303 14.0653 6.29207 13.2526 5.47564 12.8345L5.31157 12.7524L5.61236 12.4516C5.83112 12.2327 5.96003 12.0569 6.07722 11.8342C6.33113 11.3458 6.38192 11.1309 6.37801 10.5643C6.3741 10.1462 6.35848 10.029 6.27254 9.76332C5.99128 8.90762 5.27251 8.22383 4.42873 8.01284C4.11622 7.93469 3.65918 7.90734 3.37401 7.95032ZM4.01466 8.76695C4.78812 8.89589 5.41704 9.52106 5.55377 10.3025C5.66705 10.9707 5.33501 11.7131 4.74906 12.0921C4.08107 12.5258 3.27245 12.4945 2.63962 12.0178C1.93647 11.4786 1.72553 10.5331 2.12788 9.73597C2.35836 9.28272 2.9365 8.85682 3.43652 8.77086C3.72949 8.72397 3.7334 8.72397 4.01466 8.76695ZM4.40139 13.319C5.39751 13.5534 6.21394 14.2958 6.53817 15.2648C6.66708 15.6477 6.71005 16.0033 6.71396 16.6285V17.1286H3.73731H0.76456L0.787998 16.4526C0.819249 15.6634 0.889564 15.3234 1.12785 14.8663C1.5224 14.1083 2.21382 13.5495 3.01072 13.3385C3.3662 13.2447 4.04982 13.2369 4.40139 13.319Z" fill="white"/>
<path d="M16.0139 7.93079C15.2052 8.06364 14.8263 8.24728 14.3536 8.72397C13.5528 9.53279 13.3732 10.7284 13.8888 11.7756C14.0372 12.0686 14.131 12.2054 14.3771 12.4476L14.6818 12.7524L14.5177 12.8345C13.7013 13.2526 12.9903 14.0653 12.6934 14.9249C12.5216 15.4094 12.4942 15.6399 12.4708 16.6011C12.4512 17.4021 12.4591 17.5623 12.5098 17.6874C12.627 17.9609 12.4512 17.9491 16.2482 17.9491C19.8851 17.9491 19.8538 17.9491 19.9554 17.7616C20.0257 17.6287 20.0101 15.7806 19.9358 15.4172C19.7288 14.413 19.053 13.4675 18.1741 12.9517L17.8186 12.7446L18.0959 12.4633C18.4241 12.139 18.6311 11.8029 18.7757 11.3653C18.8616 11.1035 18.8772 10.9785 18.8772 10.6034C18.8811 9.8063 18.6663 9.27491 18.1233 8.72397C17.8538 8.45046 17.7288 8.35669 17.4592 8.22384C17.2756 8.13788 17.0217 8.04019 16.8928 8.00893C16.635 7.94642 16.1701 7.90734 16.0139 7.93079ZM16.8264 8.84901C17.428 9.05219 17.8889 9.57577 18.0295 10.2009C18.2639 11.2598 17.4748 12.307 16.385 12.389C15.4435 12.4633 14.6037 11.7951 14.4435 10.8496C14.3536 10.3025 14.5372 9.73988 14.9474 9.31007C15.4357 8.79821 16.1623 8.61848 16.8264 8.84901ZM16.967 13.3385C17.7756 13.5456 18.4671 14.1043 18.8655 14.8663C19.1038 15.3234 19.1741 15.6634 19.2054 16.4526L19.2288 17.1286H16.2561H13.2794V16.648C13.2794 16.0385 13.3341 15.6126 13.4552 15.2492C13.7794 14.3036 14.5998 13.5573 15.5763 13.319C15.9201 13.2369 16.6076 13.2447 16.967 13.3385Z" fill="white"/>
<path d="M7.82549 12.4385C7.77471 12.458 7.70049 12.5323 7.65752 12.6026C7.40751 13.0051 7.9505 13.4388 8.28644 13.1067C8.37629 13.0129 8.39973 12.9582 8.39973 12.8214C8.39582 12.5049 8.12238 12.3213 7.82549 12.4385Z" fill="white"/>
<path d="M9.78907 12.4626C9.64844 12.5368 9.60156 12.6306 9.60156 12.8299C9.60156 12.9588 9.625 13.0174 9.71485 13.1073C9.96876 13.3574 10.3828 13.1854 10.3828 12.8299C10.3828 12.6267 10.3321 12.5329 10.1875 12.4587C10.0469 12.3845 9.92579 12.3845 9.78907 12.4626Z" fill="white"/>
<path d="M11.7813 12.463C11.6406 12.5372 11.5938 12.631 11.5938 12.8303C11.5938 13.1819 11.9922 13.3538 12.2578 13.1116C12.625 12.7834 12.2149 12.2246 11.7813 12.463Z" fill="white"/>
</g>
<defs>
<clipPath id="clip0_8281_126907">
<rect width="20" height="20" fill="white" transform="translate(0 0.949219)"/>
</clipPath>
</defs>
</svg>
