<svg width="20" height="20" viewBox="0 0 20 20" fill="none" xmlns="http://www.w3.org/2000/svg">
<g clip-path="url(#clip0_8269_98227)">
<path d="M19.5835 14.4817C19.5293 14.4472 19.4672 14.427 19.403 14.423C19.3389 14.419 19.2747 14.4314 19.2167 14.4589C18.8577 14.6291 18.4604 14.7025 18.0643 14.672C17.6682 14.6414 17.2869 14.5079 16.9582 14.2847C16.6296 14.0614 16.3649 13.7562 16.1905 13.3992C16.0161 13.0423 15.9379 12.6459 15.9638 12.2495C15.988 11.8781 16.1026 11.5182 16.2978 11.2013C16.493 10.8844 16.7628 10.6201 17.0836 10.4314C17.4044 10.2428 17.7665 10.1355 18.1383 10.1189C18.5101 10.1024 18.8804 10.1771 19.2167 10.3365C19.2746 10.3641 19.3386 10.3766 19.4026 10.3728C19.4667 10.369 19.5287 10.349 19.583 10.3148C19.6373 10.2806 19.682 10.2331 19.713 10.1769C19.7439 10.1208 19.7602 10.0576 19.7602 9.99348V5.93575C19.7602 5.63331 19.6401 5.34326 19.4262 5.1294C19.2124 4.91555 18.9223 4.79541 18.6199 4.79541H14.7237C14.8284 4.38673 14.8469 3.96075 14.778 3.54455C14.7091 3.12834 14.5544 2.73102 14.3237 2.37784C14.093 2.02466 13.7913 1.72334 13.4379 1.49305C13.0844 1.26276 12.6869 1.10854 12.2706 1.04018C11.8543 0.971829 11.4284 0.990838 11.0198 1.096C10.6113 1.20117 10.2291 1.39019 9.89753 1.65104C9.56599 1.9119 9.29235 2.23889 9.09401 2.61122C8.89567 2.98355 8.77697 3.39307 8.74545 3.81376C8.72171 4.14349 8.75091 4.4749 8.83193 4.79541H4.93575C4.63331 4.79541 4.34326 4.91555 4.1294 5.1294C3.91555 5.34326 3.79541 5.63331 3.79541 5.93575V9.45181C3.38673 9.34714 2.96075 9.32865 2.54455 9.39751C2.12834 9.46637 1.73102 9.62108 1.37784 9.8518C1.02466 10.0825 0.723342 10.3842 0.493053 10.7377C0.262765 11.0911 0.10854 11.4886 0.0401847 11.9049C-0.0281709 12.3212 -0.00916207 12.7472 0.0960027 13.1557C0.201167 13.5643 0.390187 13.9464 0.651045 14.278C0.911902 14.6095 1.23889 14.8832 1.61122 15.0815C1.98355 15.2799 2.39307 15.3986 2.81376 15.4301C3.1435 15.4543 3.47498 15.4251 3.79541 15.3436V18.8597C3.79541 19.1621 3.91555 19.4521 4.1294 19.666C4.34326 19.8799 4.63331 20 4.93575 20H18.6199C18.9223 20 19.2124 19.8799 19.4262 19.666C19.6401 19.4521 19.7602 19.1621 19.7602 18.8597V14.8029C19.7602 14.7388 19.744 14.6757 19.7131 14.6196C19.6822 14.5634 19.6376 14.516 19.5835 14.4817ZM19 18.8597C19 18.9605 18.96 19.0572 18.8887 19.1284C18.8174 19.1997 18.7207 19.2398 18.6199 19.2398H4.93575C4.83494 19.2398 4.73825 19.1997 4.66697 19.1284C4.59568 19.0572 4.55563 18.9605 4.55563 18.8597V14.8029C4.55564 14.7388 4.53944 14.6757 4.50854 14.6196C4.47764 14.5634 4.43304 14.516 4.37888 14.4817C4.32477 14.4473 4.26285 14.4273 4.19888 14.4233C4.13492 14.4193 4.07098 14.4315 4.01302 14.4589C3.67667 14.6185 3.30636 14.6934 2.93442 14.6769C2.56248 14.6605 2.20022 14.5532 1.87927 14.3645C1.55833 14.1759 1.28845 13.9115 1.09321 13.5945C0.897977 13.2775 0.783314 12.9175 0.759238 12.5459C0.733264 12.1494 0.811378 11.7529 0.985838 11.3958C1.1603 11.0387 1.42505 10.7334 1.75385 10.5101C2.08265 10.2868 2.46409 10.1534 2.86036 10.1229C3.25663 10.0925 3.65398 10.1661 4.01302 10.3365C4.07091 10.3639 4.13478 10.3762 4.1987 10.3723C4.26262 10.3684 4.32452 10.3484 4.37865 10.3142C4.43278 10.28 4.47738 10.2326 4.50832 10.1766C4.53926 10.1205 4.55554 10.0575 4.55563 9.99348V5.93575C4.55563 5.83494 4.59568 5.73825 4.66697 5.66697C4.73825 5.59568 4.83494 5.55563 4.93575 5.55563H9.37264C9.43676 5.5557 9.49985 5.53954 9.55605 5.50867C9.61225 5.47779 9.65972 5.4332 9.69405 5.37905C9.72838 5.3249 9.74846 5.26294 9.75241 5.19894C9.75636 5.13494 9.74406 5.07099 9.71664 5.01302C9.55702 4.67667 9.48215 4.30636 9.4986 3.93442C9.51504 3.56248 9.62229 3.20022 9.81098 2.87927C9.99967 2.55833 10.2641 2.28845 10.5811 2.09321C10.8981 1.89798 11.258 1.78331 11.6296 1.75924C12.0262 1.73326 12.4227 1.81138 12.7798 1.98584C13.1369 2.1603 13.4422 2.42505 13.6654 2.75385C13.8887 3.08265 14.0222 3.46409 14.0526 3.86036C14.0831 4.25663 14.0094 4.65398 13.839 5.01302C13.8116 5.07099 13.7993 5.13494 13.8032 5.19894C13.8072 5.26294 13.8273 5.3249 13.8616 5.37905C13.8959 5.4332 13.9434 5.47779 13.9996 5.50867C14.0558 5.53954 14.1189 5.5557 14.183 5.55563H18.6199C18.7207 5.55563 18.8174 5.59568 18.8887 5.66697C18.96 5.73825 19 5.83494 19 5.93575V9.45181C18.6796 9.36984 18.3482 9.33968 18.0184 9.36248C17.5992 9.39614 17.1916 9.51635 16.8213 9.71552C16.451 9.91469 16.126 10.1885 15.8669 10.5196C15.6078 10.8508 15.4202 11.232 15.3159 11.6394C15.2116 12.0467 15.1929 12.4712 15.261 12.8861C15.3291 13.3011 15.4825 13.6974 15.7115 14.05C15.9405 14.4026 16.2402 14.7039 16.5916 14.9348C16.9429 15.1658 17.3384 15.3213 17.7529 15.3917C18.1675 15.4621 18.5921 15.4457 19 15.3436V18.8597Z" fill="white" stroke="white" stroke-width="0.2"/>
</g>
<defs>
<clipPath id="clip0_8269_98227">
<rect width="20" height="20" fill="white"/>
</clipPath>
</defs>
</svg>
