<svg width="20" height="21" viewBox="0 0 20 21" fill="none" xmlns="http://www.w3.org/2000/svg">
<g clip-path="url(#clip0_8281_129658)">
<path d="M2.4732 0.811941C1.32142 1.11105 0.383927 2.05748 0.0892854 3.2048C0.00446427 3.53962 0 3.73605 0 10.7227C0 17.6646 0.00446427 17.9057 0.0848211 18.2316C0.383927 19.3923 1.32589 20.3387 2.48213 20.6334C2.81249 20.7182 2.99552 20.7227 6.90622 20.7227H10.9821V20.2316V19.745L6.91069 19.7316L2.83481 19.7182L2.57588 19.62C1.87946 19.3566 1.31249 18.7762 1.08928 18.1066C1.00892 17.8521 1.00446 17.6244 1.00446 10.7227C1.00446 3.82087 1.00892 3.59319 1.08928 3.33873C1.31249 2.66908 1.87946 2.08873 2.57588 1.82533C2.83481 1.72712 2.85267 1.72712 6.17408 1.71373L9.50889 1.70033V3.07533C9.50889 4.54855 9.53568 4.79855 9.7455 5.32087C10.1785 6.38337 11.1294 7.15123 12.2767 7.35658C12.5044 7.39676 13.0267 7.41462 13.9196 7.41908H15.2232V8.13337V8.84766H15.7142H16.2053V7.82087C16.2053 7.01283 16.1919 6.76283 16.1428 6.66908C16.1071 6.60212 14.7633 5.23605 13.1607 3.63337L10.2455 0.722656L6.51783 0.727119C3.02677 0.727119 2.76785 0.731585 2.4732 0.811941ZM12.5223 4.43248L14.5312 6.44587L13.5044 6.42355C12.3883 6.39676 12.2098 6.36998 11.7321 6.11551C11.1785 5.82087 10.6919 5.16462 10.558 4.53069C10.5134 4.32533 10.491 3.93248 10.491 3.32087C10.491 2.82533 10.4955 2.41908 10.5044 2.41908C10.5089 2.41908 11.4196 3.32533 12.5223 4.43248Z" fill="white"/>
<path d="M3.30469 5.94643V6.4375H5.71539H8.1261V5.94643V5.45536H5.71539H3.30469V5.94643Z" fill="white"/>
<path d="M3.30469 10.7228V11.2139H5.71539H8.1261V10.7228V10.2317H5.71539H3.30469V10.7228Z" fill="white"/>
<path d="M12.5908 10.2942C11.3721 10.5532 10.4033 11.3076 9.88547 12.3969C9.63101 12.9415 9.55511 13.2362 9.52386 13.8701C9.50601 14.2853 9.51493 14.4951 9.57297 14.7853C9.881 16.3076 10.9837 17.4415 12.5015 17.7987C12.9301 17.8969 13.7738 17.888 14.2337 17.7764C14.6444 17.6782 15.1533 17.4594 15.4613 17.2496L15.6578 17.1112L17.3944 18.8523C18.3497 19.8076 19.1488 20.5889 19.1756 20.5889C19.2336 20.5889 19.8676 19.9549 19.8676 19.8969C19.8676 19.8746 19.0863 19.071 18.131 18.1157L16.3899 16.379L16.5283 16.1826C17.2203 15.1737 17.3497 13.6201 16.8363 12.4907C16.3631 11.4415 15.4346 10.6558 14.3096 10.3433C13.939 10.2451 12.9703 10.2139 12.5908 10.2942ZM13.8765 11.2853C14.9479 11.504 15.8006 12.3165 16.0729 13.3835C16.2381 14.0264 16.1622 14.7005 15.8631 15.3165C15.631 15.7898 15.0685 16.3523 14.5997 16.5799C13.4792 17.129 12.2247 16.9192 11.3364 16.0308C10.9256 15.6246 10.6756 15.1514 10.5551 14.5665C10.3006 13.2942 11.0372 11.9415 12.2471 11.4505C12.823 11.2139 13.3006 11.1692 13.8765 11.2853Z" fill="white"/>
<path d="M3.30469 15.5001V15.9912H5.71539H8.1261V15.5001V15.0091H5.71539H3.30469V15.5001Z" fill="white"/>
</g>
<defs>
<clipPath id="clip0_8281_129658">
<rect width="20" height="20" fill="white" transform="translate(0 0.722656)"/>
</clipPath>
</defs>
</svg>
