<svg width="20" height="20" viewBox="0 0 20 20" fill="none" xmlns="http://www.w3.org/2000/svg">
<g clip-path="url(#clip0_8024_101034)">
<path d="M4.02 0.464001C2.636 0.772001 1.568 1.852 1.26 3.256C1.164 3.684 1.196 4.572 1.316 4.992C1.544 5.776 2.08 6.524 2.728 6.964L2.968 7.128L2.676 7.276C1.336 7.936 0.376 9.176 0.084 10.628C0.004 11.012 0 11.168 0 13.612V16.188L0.104 16.296L0.212 16.4H2.704H5.2V18.096V19.788L5.304 19.896L5.412 20H10H14.588L14.696 19.896L14.8 19.788V18.096V16.4H17.296H19.788L19.896 16.296L20 16.188V13.64C20 11.524 19.988 11.032 19.94 10.736C19.772 9.788 19.316 8.916 18.62 8.216C18.204 7.796 17.864 7.544 17.384 7.304L17.04 7.132L17.264 6.98C17.748 6.648 18.176 6.136 18.46 5.56C18.72 5.04 18.78 4.744 18.78 4C18.78 3.432 18.768 3.296 18.688 3.024C18.336 1.808 17.392 0.864002 16.176 0.512001C15.904 0.432001 15.768 0.420002 15.2 0.420002C14.628 0.420002 14.496 0.432001 14.22 0.512001C12.684 0.956001 11.604 2.356 11.596 3.908C11.596 4.136 11.584 4.32 11.572 4.32C11.556 4.32 11.436 4.276 11.304 4.224C10.508 3.908 9.24 3.932 8.556 4.284L8.4 4.36V3.924C8.4 2.364 7.332 0.964001 5.8 0.52C5.396 0.400002 4.436 0.372002 4.02 0.464001ZM5.496 1.32C5.992 1.448 6.328 1.644 6.744 2.056C7.356 2.668 7.588 3.268 7.548 4.132C7.524 4.696 7.42 5.036 7.196 5.308C7.108 5.412 6.984 5.592 6.916 5.708C6.56 6.328 5.696 6.76 4.82 6.764C4.016 6.764 3.44 6.524 2.856 5.944C2.556 5.644 2.464 5.52 2.328 5.24C2.116 4.804 2.04 4.476 2.04 4C2.04 3.524 2.116 3.196 2.328 2.76C2.46 2.484 2.556 2.356 2.856 2.056C3.428 1.484 3.984 1.248 4.784 1.244C5.064 1.24 5.28 1.264 5.496 1.32ZM15.84 1.304C15.984 1.336 16.252 1.436 16.44 1.528C16.716 1.66 16.844 1.756 17.144 2.056C17.444 2.356 17.54 2.484 17.672 2.76C17.884 3.196 17.96 3.524 17.96 4C17.96 4.476 17.884 4.804 17.672 5.24C17.536 5.52 17.444 5.644 17.144 5.94C16.556 6.524 15.984 6.764 15.18 6.764C14.304 6.76 13.44 6.328 13.084 5.708C13.016 5.592 12.892 5.412 12.804 5.308C12.576 5.032 12.472 4.692 12.448 4.132C12.416 3.26 12.644 2.668 13.256 2.056C13.664 1.652 14.004 1.448 14.488 1.32C14.852 1.224 15.476 1.216 15.84 1.304ZM10.64 4.904C10.784 4.936 11.052 5.036 11.24 5.128C11.52 5.264 11.644 5.356 11.94 5.656C12.52 6.24 12.76 6.808 12.76 7.596C12.76 8.08 12.684 8.408 12.472 8.84C12.252 9.288 11.728 9.828 11.292 10.052C10.492 10.468 9.516 10.468 8.708 10.052C8.272 9.828 7.74 9.28 7.528 8.836C7.316 8.404 7.24 8.076 7.24 7.596C7.24 6.808 7.48 6.236 8.056 5.656C8.464 5.252 8.804 5.048 9.288 4.92C9.652 4.824 10.276 4.816 10.64 4.904ZM5.572 7.704C5.748 7.736 6 7.804 6.132 7.856L6.38 7.948L6.452 8.304C6.652 9.268 7.144 10.012 7.968 10.596L8.156 10.732L7.812 10.904C6.208 11.724 5.2 13.348 5.2 15.116V15.6H3.02H0.836L0.848 13.248C0.864 10.584 0.856 10.656 1.212 9.904C2 8.252 3.768 7.36 5.572 7.704ZM15.66 7.656C16.896 7.752 18.168 8.656 18.76 9.86C19.144 10.64 19.136 10.56 19.152 13.248L19.164 15.6H16.98H14.8V15.116C14.8 13.348 13.792 11.724 12.188 10.904L11.844 10.732L12.072 10.576C12.804 10.068 13.368 9.2 13.544 8.308C13.612 7.964 13.616 7.952 13.756 7.896C14.148 7.732 14.948 7.588 15.28 7.624C15.336 7.632 15.508 7.644 15.66 7.656ZM10.46 11.256C11.008 11.3 11.712 11.56 12.244 11.924C12.572 12.144 13.056 12.628 13.276 12.956C13.492 13.272 13.728 13.768 13.844 14.16C13.936 14.456 13.936 14.496 13.952 16.832L13.964 19.2H10H6.036L6.048 16.832C6.064 14.496 6.064 14.456 6.156 14.16C6.364 13.468 6.708 12.888 7.196 12.396C7.7 11.896 8.308 11.544 8.976 11.36C9.28 11.276 9.876 11.204 10.08 11.224C10.136 11.232 10.308 11.244 10.46 11.256Z" fill="white"/>
</g>
<defs>
<clipPath id="clip0_8024_101034">
<rect width="20" height="20" fill="white"/>
</clipPath>
</defs>
</svg>
