<svg width="20" height="20" viewBox="0 0 20 20" fill="none" xmlns="http://www.w3.org/2000/svg">
<path d="M2.4075 0.702349C2.21203 0.80632 2.04983 0.997629 1.99577 1.1931C1.97497 1.27628 1.95418 1.51749 1.95418 1.72544V2.10806L1.48838 2.12469C1.09745 2.13717 0.980996 2.15796 0.810481 2.24114C0.39875 2.44077 0.120104 2.82755 0.0410847 3.30582C-0.012981 3.6219 -0.012981 14.7678 0.0369258 15.1254C0.107627 15.6079 0.369638 15.978 0.798005 16.2026L1.01843 16.319L6.20458 16.3398L11.3907 16.3606L11.5238 16.6101C12.1892 17.8703 13.4411 18.7561 14.8426 18.9599C15.5205 19.0597 16.4313 18.9682 17.0759 18.7395C18.411 18.2571 19.4923 17.0635 19.8832 15.637C19.9955 15.2335 20.0371 14.2354 19.9622 13.7696C19.8624 13.1333 19.6087 12.497 19.2427 11.9522C18.8601 11.3824 18.0866 10.717 17.4794 10.4383L17.2631 10.3385L17.2506 6.75771L17.2381 3.17689L17.13 2.94399C16.9803 2.62792 16.7557 2.39086 16.4771 2.25362C16.2691 2.1538 16.1818 2.13717 15.7742 2.12053L15.3043 2.10806V1.68385C15.3043 1.19726 15.2377 1.00595 15.0007 0.798002C14.8135 0.631645 14.6846 0.606695 14.1106 0.627489C13.5991 0.639965 13.4577 0.702347 13.2622 0.985153C13.1749 1.11824 13.1624 1.18478 13.1499 1.62562L13.1333 2.11637H12.3473H11.5612V1.6589C11.5612 1.04338 11.4614 0.835434 11.0913 0.681555C10.875 0.590059 10.0682 0.594217 9.8852 0.685713C9.52754 0.868704 9.39861 1.14735 9.39861 1.75039V2.11637H8.62922H7.85982V1.68801C7.85982 1.18894 7.7808 0.980993 7.51463 0.76889C7.35659 0.644123 7.33996 0.639965 6.83673 0.627489C6.37093 0.615011 6.30023 0.623329 6.12972 0.702349C6.01327 0.760572 5.89682 0.860386 5.83028 0.964359C5.7263 1.11824 5.71798 1.1723 5.70551 1.62562L5.68887 2.11637H4.90284H4.11681V1.64642C4.11681 1.20142 4.11265 1.16814 3.9962 0.985153C3.80905 0.689871 3.61774 0.619171 3.03133 0.619171C2.64872 0.623329 2.52811 0.635805 2.4075 0.702349ZM3.40148 2.44493C3.40979 3.2975 3.39732 3.5512 3.35989 3.58031C3.28087 3.62605 2.83587 3.6219 2.74021 3.57199C2.66535 3.5304 2.66119 3.47218 2.66119 2.49067C2.66119 1.92506 2.67367 1.426 2.68615 1.38857C2.70694 1.3345 2.76932 1.32618 3.05213 1.3345L3.389 1.34698L3.40148 2.44493ZM7.14449 2.42413C7.15281 3.18105 7.14033 3.51792 7.10706 3.55535C7.04467 3.63021 6.52481 3.63437 6.45411 3.56367C6.40004 3.50961 6.37925 1.4052 6.43332 1.35114C6.44995 1.3345 6.61215 1.33034 6.7993 1.3345L7.13201 1.34698L7.14449 2.42413ZM10.8459 2.44493C10.8542 3.2975 10.8418 3.5512 10.8043 3.58031C10.7752 3.59694 10.6338 3.61358 10.4924 3.61358C10.0931 3.61358 10.1056 3.65517 10.1056 2.45325C10.1056 1.69217 10.1181 1.41352 10.1555 1.37609C10.193 1.33866 10.3136 1.32618 10.5215 1.3345L10.8334 1.34698L10.8459 2.44493ZM14.5889 2.42413C14.5972 3.18105 14.5848 3.51792 14.5515 3.55535C14.4891 3.63021 13.9692 3.63437 13.8985 3.56367C13.8445 3.50961 13.8237 1.4052 13.8777 1.35114C13.8944 1.3345 14.0566 1.33034 14.2437 1.3345L14.5764 1.34698L14.5889 2.42413ZM1.95418 3.18521C1.95418 3.63437 2.00409 3.82152 2.17044 4.01283C2.39086 4.26237 2.499 4.2998 3.03549 4.2998C3.58863 4.2998 3.75498 4.24157 3.96709 3.9754C4.09185 3.81736 4.09601 3.80073 4.10849 3.3183L4.12513 2.82339H4.91116H5.69719V3.24759C5.69719 3.57615 5.71799 3.71755 5.77621 3.84648C5.93425 4.19998 6.2836 4.34139 6.89495 4.31227C7.19855 4.2998 7.29421 4.27484 7.45225 4.18335C7.76416 4.00036 7.83487 3.84232 7.85566 3.28918L7.86814 2.82339H8.63337H9.39861V3.18521C9.39861 3.63437 9.44852 3.82152 9.61487 4.01283C9.83946 4.26653 9.94343 4.2998 10.5007 4.2998C11.0455 4.2998 11.1495 4.26653 11.3616 4.04194C11.528 3.86727 11.5612 3.73419 11.5612 3.25591V2.82339H12.3514H13.1416V3.24759C13.1416 3.57615 13.1624 3.71755 13.2206 3.84648C13.3787 4.19998 13.728 4.34139 14.3394 4.31227C14.7802 4.29148 15.0007 4.19166 15.167 3.93797C15.2751 3.77993 15.2835 3.72587 15.3001 3.29334L15.3126 2.82339H15.6661C15.8865 2.82339 16.057 2.84418 16.1277 2.88161C16.2982 2.96895 16.4646 3.16442 16.5103 3.32661C16.5353 3.41395 16.5519 4.7448 16.5519 6.79098V10.1098L16.4604 10.0848C16.4064 10.0724 16.1693 10.0391 15.9322 10.0141C13.7863 9.76875 11.686 11.2327 11.1454 13.3496C10.979 14.0025 10.9582 14.8426 11.0996 15.4664L11.137 15.6328L6.15467 15.6245C1.1931 15.612 1.16815 15.612 1.05586 15.5247C0.881183 15.3957 0.785528 15.246 0.743939 15.0464C0.698191 14.8093 0.698191 3.64685 0.743939 3.40979C0.785528 3.19769 0.889501 3.04797 1.08081 2.91488C1.19726 2.83586 1.27212 2.82339 1.58404 2.82339H1.95418V3.18521ZM16.3939 10.8043C17.8453 11.1745 18.9391 12.3015 19.2303 13.728C19.3633 14.3727 19.3051 15.1836 19.0764 15.8075C18.727 16.7682 17.8412 17.6748 16.8888 18.0408C16.1735 18.3153 15.2169 18.3694 14.5141 18.1697C12.5511 17.6166 11.3575 15.6079 11.8108 13.6199C12.0561 12.5344 12.8921 11.5238 13.9484 11.0372C14.6929 10.692 15.612 10.6047 16.3939 10.8043Z" fill="white"/>
<path d="M4.24775 6.24607C4.15625 6.34173 4.15625 6.36252 4.15625 7.8223V9.30702L4.26438 9.3902C4.37251 9.47338 4.41826 9.47754 5.9321 9.47754H7.48753L7.58734 9.37357L7.69132 9.27375V7.8015V6.32925L7.59566 6.24191C7.50001 6.15042 7.48337 6.15042 5.91962 6.15042H4.33508L4.24775 6.24607ZM6.9843 7.81398V8.77053H5.92378H4.86326V7.81398V6.85743H5.92378H6.9843V7.81398Z" fill="white"/>
<path d="M15.2769 11.6949L15.1562 11.7988V13.217V14.6352L15.8841 15.363C16.5536 16.0368 16.6243 16.0908 16.7616 16.0908C16.9612 16.0908 17.0985 15.9453 17.0985 15.7332C17.0985 15.5918 17.0527 15.5377 16.4705 14.9513L15.8425 14.3233V13.0673C15.8425 11.6657 15.8425 11.6616 15.5472 11.6158C15.4266 11.595 15.3767 11.6117 15.2769 11.6949Z" fill="white"/>
</svg>
