<svg width="20" height="21" viewBox="0 0 20 21" fill="none" xmlns="http://www.w3.org/2000/svg">
<g clip-path="url(#clip0_8269_97817)">
<path d="M19.5 10.25C19.5 15.4967 15.2467 19.75 10 19.75C4.75329 19.75 0.5 15.4967 0.5 10.25C0.5 5.00329 4.75329 0.75 10 0.75C15.2467 0.75 19.5 5.00329 19.5 10.25Z" stroke="white" stroke-linecap="round" stroke-linejoin="round"/>
<mask id="path-2-inside-1_8269_97817" fill="white">
<path d="M7 7.25448C7.2351 6.58614 7.69915 6.02258 8.30995 5.66361C8.92076 5.30463 9.6389 5.17341 10.3372 5.29319C11.0355 5.41296 11.6688 5.776 12.1251 6.318C12.5813 6.86001 12.8311 7.546 12.83 8.25448C12.83 10.2545 9.83 11.2545 9.83 11.2545"/>
</mask>
<path d="M6.05667 6.92263C5.87339 7.44362 6.14717 8.01454 6.66816 8.19781C7.18915 8.38108 7.76006 8.10731 7.94333 7.58632L6.05667 6.92263ZM12.83 8.25448L11.83 8.25299V8.25448H12.83ZM9.51377 10.3058C8.98983 10.4804 8.70667 11.0468 8.88132 11.5707C9.05596 12.0946 9.62228 12.3778 10.1462 12.2032L9.51377 10.3058ZM7.94333 7.58632C8.10007 7.14076 8.40944 6.76506 8.81664 6.52574L7.80327 4.80148C6.98887 5.28011 6.37014 6.03152 6.05667 6.92263L7.94333 7.58632ZM8.81664 6.52574C9.22384 6.28643 9.7026 6.19894 10.1681 6.27879L10.5062 4.30758C9.57519 4.14788 8.61768 4.32284 7.80327 4.80148L8.81664 6.52574ZM10.1681 6.27879C10.6336 6.35864 11.0559 6.60067 11.3601 6.962L12.8901 5.674C12.2818 4.95133 11.4373 4.46728 10.5062 4.30758L10.1681 6.27879ZM11.3601 6.962C11.6642 7.32334 11.8307 7.78067 11.83 8.25299L13.83 8.25597C13.8314 7.31133 13.4984 6.39667 12.8901 5.674L11.3601 6.962ZM11.83 8.25448C11.83 8.72361 11.4649 9.21269 10.7753 9.67243C10.4609 9.882 10.1394 10.0435 9.89261 10.1532C9.77061 10.2074 9.67034 10.2474 9.60291 10.2731C9.56928 10.2859 9.54406 10.2951 9.52868 10.3005C9.521 10.3033 9.51579 10.3051 9.51324 10.306C9.51197 10.3064 9.51136 10.3066 9.51144 10.3066C9.51148 10.3066 9.51169 10.3065 9.51208 10.3064C9.51227 10.3063 9.51251 10.3062 9.51279 10.3061C9.51293 10.3061 9.51318 10.306 9.51325 10.306C9.51351 10.3059 9.51377 10.3058 9.83 11.2545C10.1462 12.2032 10.1465 12.2031 10.1468 12.203C10.1469 12.2029 10.1472 12.2028 10.1475 12.2027C10.1479 12.2026 10.1485 12.2024 10.149 12.2022C10.1501 12.2019 10.1514 12.2014 10.1529 12.2009C10.1559 12.1999 10.1596 12.1986 10.164 12.1971C10.1728 12.1941 10.1844 12.1901 10.1987 12.185C10.2273 12.1748 10.2665 12.1605 10.3149 12.1421C10.4115 12.1053 10.5456 12.0516 10.7049 11.9808C11.0206 11.8405 11.4491 11.6269 11.8847 11.3365C12.6951 10.7963 13.83 9.78534 13.83 8.25448H11.83Z" fill="white" mask="url(#path-2-inside-1_8269_97817)"/>
<path d="M9.90625 14.2539H9.91625" stroke="white" stroke-width="1.5" stroke-linecap="round" stroke-linejoin="round"/>
</g>
<defs>
<clipPath id="clip0_8269_97817">
<rect width="20" height="20" fill="white" transform="translate(0 0.25)"/>
</clipPath>
</defs>
</svg>
