<svg width="20" height="20" viewBox="0 0 20 20" fill="none" xmlns="http://www.w3.org/2000/svg">
<g clip-path="url(#clip0_8024_101222)">
<path d="M3.18644 4.7078C3.02293 4.87131 3.01097 4.99892 3.13858 5.34189C3.20638 5.52933 3.21436 5.58915 3.17448 5.60112C3.14656 5.60909 2.90728 5.76064 2.64008 5.9401C1.40379 6.75366 0.530409 8.0059 0.111665 9.55725C0.00398804 9.96004 0 10.0079 0 10.9331C0 11.8583 0.00398804 11.9062 0.115653 12.3289C0.275174 12.9471 0.442672 13.3658 0.570289 13.4695C0.658026 13.5333 0.70987 13.5453 0.837488 13.5253C1.01296 13.4974 1.99003 13.1106 4.1994 12.1933C4.99701 11.8623 5.67099 11.5912 5.6989 11.5912C5.72682 11.5912 5.88634 11.9102 6.06181 12.317C6.94716 14.4107 8.19541 17.4017 8.19541 17.4376C8.19541 17.4496 7.78066 17.4815 6.91924 17.5333C4.0997 17.7048 1.93819 18.2153 0.729811 18.989C0.287139 19.2761 0.259222 19.308 0.259222 19.5513C0.259222 19.7387 0.271186 19.7706 0.398804 19.8823C0.582253 20.0418 0.70987 20.0418 1.02493 19.8663C1.88634 19.3918 2.28913 19.2243 3.10668 19.0089C3.94417 18.7856 5.10867 18.6061 6.52044 18.4825C7.29412 18.4147 10.8873 18.4147 11.7846 18.4825C15.1226 18.7377 17.348 19.1525 19.0788 19.8344C19.5852 20.0338 19.7009 20.0378 19.8883 19.8584C19.9761 19.7746 20 19.7148 20 19.5752C20 19.4795 19.9801 19.3678 19.9601 19.3279C19.7767 18.985 17.683 18.3509 15.6132 18.0119C13.8345 17.7208 12.1795 17.5652 9.84646 17.4695L9.2004 17.4456L8.91326 16.7596C8.44267 15.635 6.73978 11.5433 6.668 11.3678L6.60419 11.2003L6.89133 11.0727C7.05085 11.0009 7.99601 10.5981 8.99302 10.1754C9.99003 9.75266 10.9631 9.33392 11.1505 9.2422C11.669 8.99494 11.6889 8.88327 11.338 8.18537C10.5045 6.53033 8.86939 5.32594 7.01894 5.01089C6.1336 4.85934 4.8016 4.94309 4.15155 5.19434C4.10768 5.21029 4.05184 5.1385 3.95214 4.94309C3.80459 4.64399 3.70887 4.5722 3.4656 4.5722C3.35394 4.5722 3.29013 4.60411 3.18644 4.7078ZM7.26221 5.97998C7.72483 6.11159 8.27916 6.35087 8.67797 6.59015C9.3001 6.96503 10.0379 7.72674 10.4088 8.36882L10.5165 8.56024L10.4207 8.59613C10.3729 8.61607 9.001 9.18636 7.37787 9.86832C3.25025 11.5991 1.29212 12.4127 1.18843 12.4446C1.10867 12.4685 1.09272 12.4486 1.03689 12.2611C0.909272 11.8344 0.849452 11.2761 0.87338 10.7337C0.929212 9.44559 1.40778 8.33691 2.31705 7.40371C3.07079 6.62604 3.91625 6.15545 4.9651 5.92415C5.24826 5.86034 5.4317 5.85236 6.1017 5.86433C6.80758 5.87629 6.93918 5.89224 7.26221 5.97998Z" fill="white"/>
<path d="M15.772 0.254803C15.6046 0.358959 15.5637 0.541232 15.5823 1.10293C15.5934 1.54188 15.5971 1.56047 15.6976 1.66463C15.8761 1.85062 16.1105 1.8469 16.3114 1.66463C16.3895 1.58651 16.3932 1.56047 16.3932 0.980176V0.373839L16.2816 0.295721C16.1179 0.180406 15.917 0.161806 15.772 0.254803Z" fill="white"/>
<path d="M13.0253 1.38969C12.8616 1.46036 12.75 1.62032 12.75 1.77655C12.75 1.89559 12.7909 1.95138 13.1331 2.29361C13.5051 2.6656 13.52 2.67676 13.6837 2.67676C13.9329 2.67304 14.0891 2.5168 14.0891 2.25641C14.0891 2.15598 14.0408 2.07786 13.8511 1.85467C13.4865 1.42688 13.2522 1.29669 13.0253 1.38969Z" fill="white"/>
<path d="M18.4245 1.39638C18.2682 1.4745 17.8962 1.85021 17.8293 1.99528C17.6805 2.31147 17.9669 2.6351 18.3203 2.54954C18.4579 2.51234 18.9155 2.06224 18.9638 1.90972C19.0308 1.70513 18.9564 1.50054 18.7779 1.41126C18.603 1.32199 18.5695 1.32199 18.4245 1.39638Z" fill="white"/>
<path d="M15.5366 2.49085C14.7852 2.66941 14.1267 3.39106 14.0561 4.10899C13.9817 4.83809 14.1491 5.35143 14.6029 5.80525C15.5701 6.77614 17.1919 6.49715 17.7871 5.26587C17.9433 4.94224 17.988 4.62978 17.9508 4.16107C17.8912 3.4171 17.2217 2.66941 16.4665 2.49457C16.2694 2.44994 15.7226 2.44622 15.5366 2.49085ZM16.4926 3.40222C16.7046 3.5101 16.9055 3.71097 17.032 3.94904C17.1473 4.17223 17.151 4.62606 17.0357 4.87529C16.846 5.29191 16.5149 5.51138 16.0462 5.5337C15.7784 5.54858 15.7337 5.53742 15.518 5.43327C14.8298 5.09476 14.6512 4.23919 15.1497 3.68493C15.5143 3.27946 16.0202 3.17159 16.4926 3.40222Z" fill="white"/>
<path d="M12.2009 3.82546C12.0856 3.87754 12 4.03377 12 4.20117C12 4.55083 12.119 4.61035 12.8295 4.61035H13.3689L13.4842 4.48016C13.6405 4.3016 13.6442 4.10445 13.4917 3.93334L13.3838 3.81058L12.8295 3.80314C12.5282 3.79942 12.2455 3.80686 12.2009 3.82546Z" fill="white"/>
<path d="M18.6394 3.82934C18.4311 3.91118 18.3418 4.20133 18.4571 4.4208C18.5427 4.58819 18.6654 4.61795 19.2755 4.60307C19.8223 4.59191 19.8223 4.59191 19.9116 4.48776C19.9785 4.40964 20.0008 4.33896 20.0008 4.21249C20.0008 4.07113 19.9822 4.02649 19.8744 3.91862L19.7479 3.79214L19.2346 3.79586C18.9481 3.79586 18.6803 3.81074 18.6394 3.82934Z" fill="white"/>
<path d="M13.4705 6.31374C13.1953 6.51834 12.7935 6.97588 12.7638 7.12095C12.7191 7.36647 12.9312 7.58594 13.2139 7.58594C13.3441 7.58594 13.3887 7.55246 13.7421 7.20279L14.1252 6.81593V6.60761C14.1252 6.42534 14.1141 6.39186 14.0099 6.3063C13.8537 6.17239 13.6602 6.17611 13.4705 6.31374Z" fill="white"/>
<path d="M17.9642 6.37733C17.8192 6.44057 17.715 6.64888 17.7485 6.81628C17.7708 6.93531 18.02 7.2143 18.4515 7.61233C18.6524 7.79832 18.7305 7.84668 18.8235 7.84668C19.11 7.84668 19.3108 7.57513 19.2215 7.3073C19.1695 7.14735 18.4813 6.44429 18.3027 6.36989C18.1539 6.31038 18.1205 6.31038 17.9642 6.37733Z" fill="white"/>
<path d="M15.753 7.47486C15.619 7.57901 15.5781 7.75757 15.5781 8.22999C15.5781 8.81773 15.6823 9 16.0096 9C16.1249 9 16.1993 8.97396 16.2812 8.90328L16.3965 8.80657V8.19651V7.59017L16.2589 7.49346C16.0877 7.37814 15.8869 7.3707 15.753 7.47486Z" fill="white"/>
</g>
<defs>
<clipPath id="clip0_8024_101222">
<rect width="20" height="20" fill="white"/>
</clipPath>
</defs>
</svg>
