<svg width="20" height="20" viewBox="0 0 20 20" fill="none" xmlns="http://www.w3.org/2000/svg">
<path d="M17.0643 13.3674C17.3188 13.8339 17.5751 14.2085 17.8079 14.5034H2.1957C2.4285 14.2085 2.68477 13.8339 2.93925 13.3674C3.73398 11.9103 4.5006 9.57582 4.5006 6.00136C4.5006 4.5423 5.08019 3.14301 6.11186 2.11131C7.14354 1.0796 8.54279 0.5 10.0018 0.5C11.4608 0.5 12.86 1.0796 13.8917 2.11131C14.9234 3.14301 15.503 4.5423 15.503 6.00136C15.503 9.57582 16.2696 11.9103 17.0643 13.3674Z" stroke="white" stroke-linecap="round" stroke-linejoin="round"/>
<path d="M11.7419 18.0039C11.5661 18.3071 11.3137 18.5587 11.01 18.7336C10.7063 18.9085 10.362 19.0006 10.0116 19.0006C9.66114 19.0006 9.31685 18.9085 9.01317 18.7336C8.70949 18.5587 8.4571 18.3071 8.28125 18.0039" stroke="white" stroke-linecap="round" stroke-linejoin="round"/>
</svg>
