<svg width="81" height="17" viewBox="0 0 81 17" fill="none" xmlns="http://www.w3.org/2000/svg">
<path d="M7.788 2.14H7.062L1.98 16H0.198L5.83 0.599999H8.998L14.608 16H12.826L7.788 2.14ZM2.948 10.412H11.924V11.952H2.948V10.412ZM16.4753 5H17.9933L18.1033 6.584C18.4259 6.056 18.8586 5.638 19.4013 5.33C19.9586 5.00733 20.6186 4.846 21.3813 4.846C22.1586 4.846 22.8626 5.03667 23.4933 5.418C24.1386 5.78467 24.6373 6.33467 24.9893 7.068C25.3266 6.32 25.8399 5.76267 26.5293 5.396C27.2186 5.02933 27.9813 4.846 28.8173 4.846C29.6386 4.846 30.3646 5.02933 30.9953 5.396C31.6259 5.748 32.1173 6.28333 32.4693 7.002C32.8213 7.706 32.9973 8.59333 32.9973 9.664V16H31.3473V9.862C31.3473 8.718 31.0979 7.85267 30.5993 7.266C30.1153 6.66467 29.4186 6.364 28.5093 6.364C27.5853 6.364 26.8519 6.68667 26.3093 7.332C25.7666 7.96267 25.4953 8.90133 25.4953 10.148V16H23.8453V9.862C23.8453 8.718 23.6106 7.85267 23.1413 7.266C22.6719 6.66467 21.9826 6.364 21.0733 6.364C20.1493 6.364 19.4233 6.68667 18.8953 7.332C18.3819 7.96267 18.1253 8.90133 18.1253 10.148V16H16.4753V5ZM41.7419 0.599999C43.3846 0.599999 44.8072 0.922666 46.0099 1.568C47.2272 2.19867 48.1732 3.09333 48.8479 4.252C49.5226 5.41067 49.8599 6.77467 49.8599 8.344C49.8599 9.89867 49.5226 11.248 48.8479 12.392C48.1732 13.536 47.2272 14.4233 46.0099 15.054C44.8072 15.6847 43.3846 16 41.7419 16H35.9999V0.599999H41.7419ZM41.6539 13.514C43.3112 13.514 44.5872 13.0593 45.4819 12.15C46.3766 11.226 46.8239 9.95733 46.8239 8.344C46.8239 6.716 46.3766 5.43267 45.4819 4.494C44.5872 3.55533 43.3112 3.086 41.6539 3.086H38.9699V13.514H41.6539ZM52.3552 5H55.1712V16H52.3552V5ZM53.7852 3.592C53.2572 3.592 52.8245 3.43067 52.4872 3.108C52.1499 2.77067 51.9812 2.36 51.9812 1.876C51.9812 1.392 52.1499 0.988666 52.4872 0.665999C52.8245 0.328666 53.2572 0.159999 53.7852 0.159999C54.2839 0.159999 54.7019 0.328666 55.0392 0.665999C55.3912 0.988666 55.5672 1.392 55.5672 1.876C55.5672 2.36 55.3912 2.77067 55.0392 3.108C54.7019 3.43067 54.2839 3.592 53.7852 3.592ZM59.0466 5V1.92H61.9066V5H64.3266V7.486H61.9066V11.952C61.9066 12.524 62.024 12.9273 62.2586 13.162C62.508 13.3967 62.816 13.5213 63.1826 13.536C63.564 13.5507 63.9453 13.5287 64.3266 13.47V15.89C63.652 16.0367 62.992 16.0807 62.3466 16.022C61.716 15.9633 61.1513 15.7947 60.6526 15.516C60.154 15.2227 59.758 14.7827 59.4646 14.196C59.186 13.6093 59.0466 12.8613 59.0466 11.952V7.486H57.4846V5H59.0466ZM72.8008 16L72.5808 14.658C72.2141 15.1127 71.7961 15.472 71.3268 15.736C70.8721 16 70.2561 16.132 69.4788 16.132C68.7454 16.132 68.1001 16.0073 67.5428 15.758C67.0001 15.494 66.5748 15.1347 66.2668 14.68C65.9588 14.2107 65.8048 13.6607 65.8048 13.03C65.8048 12.106 66.1348 11.3433 66.7948 10.742C67.4694 10.126 68.4814 9.73733 69.8308 9.576L72.5808 9.268V8.498C72.5808 8.19 72.4414 7.904 72.1628 7.64C71.8841 7.376 71.4441 7.244 70.8428 7.244C70.3148 7.244 69.8528 7.376 69.4568 7.64C69.0754 7.88933 68.8188 8.27067 68.6868 8.784L66.2668 7.904C66.5601 6.92133 67.1174 6.166 67.9388 5.638C68.7601 5.11 69.7721 4.846 70.9748 4.846C72.4414 4.846 73.5414 5.21267 74.2748 5.946C75.0228 6.66467 75.3968 7.618 75.3968 8.806V16H72.8008ZM72.5808 11.226L70.2048 11.534C69.7208 11.5927 69.3541 11.7393 69.1048 11.974C68.8554 12.194 68.7308 12.4653 68.7308 12.788C68.7308 13.096 68.8554 13.36 69.1048 13.58C69.3541 13.7853 69.7061 13.888 70.1608 13.888C70.6741 13.888 71.1068 13.7927 71.4588 13.602C71.8254 13.4113 72.1041 13.1327 72.2948 12.766C72.4854 12.3993 72.5808 11.9447 72.5808 11.402V11.226ZM77.9773 0.159999H80.7933V16H77.9773V0.159999Z" fill="white"/>
</svg>
