<svg width="24" height="24" viewBox="0 0 24 24" fill="none" xmlns="http://www.w3.org/2000/svg">
<rect width="24" height="24" rx="2" fill="white"/>
<path d="M7.82222 8.44H7.42622L4.65422 16H3.68222L6.75422 7.6H8.48222L11.5422 16H10.5702L7.82222 8.44ZM5.18222 12.952H10.0782V13.792H5.18222V12.952ZM15.5847 7.6C16.4807 7.6 17.2567 7.776 17.9127 8.128C18.5767 8.472 19.0927 8.96 19.4607 9.592C19.8287 10.224 20.0127 10.968 20.0127 11.824C20.0127 12.672 19.8287 13.408 19.4607 14.032C19.0927 14.656 18.5767 15.14 17.9127 15.484C17.2567 15.828 16.4807 16 15.5847 16H12.4527V7.6H15.5847ZM15.5367 14.644C16.4407 14.644 17.1367 14.396 17.6247 13.9C18.1127 13.396 18.3567 12.704 18.3567 11.824C18.3567 10.936 18.1127 10.236 17.6247 9.724C17.1367 9.212 16.4407 8.956 15.5367 8.956H14.0727V14.644H15.5367Z" fill="#260B6A"/>
</svg>
