<svg width="33" height="27" viewBox="0 0 33 27" fill="none" xmlns="http://www.w3.org/2000/svg">
<path d="M23.2987 25.488V22.7607C23.2987 21.3141 22.724 19.9267 21.7011 18.9038C20.6781 17.8808 19.2907 17.3062 17.8441 17.3062H6.93501C5.48838 17.3062 4.10099 17.8808 3.07807 18.9038C2.05514 19.9267 1.48047 21.3141 1.48047 22.7607V25.488" stroke="#FF845C" stroke-width="1.5" stroke-linecap="round" stroke-linejoin="round"/>
<path d="M12.3891 11.8516C15.4016 11.8516 17.8437 9.40951 17.8437 6.39705C17.8437 3.38459 15.4016 0.942505 12.3891 0.942505C9.37665 0.942505 6.93457 3.38459 6.93457 6.39705C6.93457 9.40951 9.37665 11.8516 12.3891 11.8516Z" stroke="#FF845C" stroke-width="1.5" stroke-linecap="round" stroke-linejoin="round"/>
<path d="M31.4806 25.4878V22.7605C31.4797 21.552 31.0774 20.378 30.337 19.4228C29.5965 18.4676 28.5598 17.7854 27.3896 17.4833" stroke="#FF845C" stroke-width="1.5" stroke-linecap="round" stroke-linejoin="round"/>
<path d="M21.9346 1.11951C23.1079 1.41992 24.1478 2.10228 24.8904 3.05902C25.6331 4.01576 26.0362 5.19246 26.0362 6.4036C26.0362 7.61474 25.6331 8.79143 24.8904 9.74817C24.1478 10.7049 23.1079 11.3873 21.9346 11.6877" stroke="#FF845C" stroke-width="1.5" stroke-linecap="round" stroke-linejoin="round"/>
</svg>
