<svg width="108" height="46" viewBox="0 0 108 46" fill="none" xmlns="http://www.w3.org/2000/svg">
<mask id="mask0_8653_103094" style="mask-type:alpha" maskUnits="userSpaceOnUse" x="0" y="0" width="108" height="46">
<rect width="108" height="46" rx="4" fill="#D9D9D9"/>
</mask>
<g mask="url(#mask0_8653_103094)">
<path d="M57.6604 -48.6604L-18 27" stroke="#F4CDCD" stroke-linecap="round" stroke-linejoin="round"/>
<path d="M61.9026 -44.4182L-13.7578 31.2422" stroke="#F4CDCD" stroke-linecap="round" stroke-linejoin="round"/>
<path d="M66.1458 -40.1761L-9.51465 35.4844" stroke="#F4CDCD" stroke-linecap="round" stroke-linejoin="round"/>
<path d="M70.388 -35.9319L-5.27246 39.7285" stroke="#F4CDCD" stroke-linecap="round" stroke-linejoin="round"/>
<path d="M74.6311 -31.6897L-1.0293 43.9707" stroke="#F4CDCD" stroke-linecap="round" stroke-linejoin="round"/>
<path d="M78.8733 -27.4475L3.21289 48.2129" stroke="#F4CDCD" stroke-linecap="round" stroke-linejoin="round"/>
<path d="M83.1165 -23.2053L7.45605 52.4551" stroke="#F4CDCD" stroke-linecap="round" stroke-linejoin="round"/>
<path d="M87.3587 -18.9612L11.6982 56.6992" stroke="#F4CDCD" stroke-linecap="round" stroke-linejoin="round"/>
<path d="M91.6018 -14.719L15.9414 60.9414" stroke="#F4CDCD" stroke-linecap="round" stroke-linejoin="round"/>
<path d="M95.844 -10.4768L20.1836 65.1836" stroke="#F4CDCD" stroke-linecap="round" stroke-linejoin="round"/>
<path d="M100.087 -6.23465L24.4268 69.4258" stroke="#F4CDCD" stroke-linecap="round" stroke-linejoin="round"/>
<path d="M104.329 -1.99051L28.6689 73.6699" stroke="#F4CDCD" stroke-linecap="round" stroke-linejoin="round"/>
<path d="M108.573 2.25168L32.9121 77.9121" stroke="#F4CDCD" stroke-linecap="round" stroke-linejoin="round"/>
<path d="M112.815 6.49387L37.1543 82.1543" stroke="#F4CDCD" stroke-linecap="round" stroke-linejoin="round"/>
<path d="M117.057 10.7361L41.3965 86.3965" stroke="#F4CDCD" stroke-linecap="round" stroke-linejoin="round"/>
<path d="M121.3 14.9782L45.6396 90.6387" stroke="#F4CDCD" stroke-linecap="round" stroke-linejoin="round"/>
<path d="M125.542 19.2224L49.8818 94.8828" stroke="#F4CDCD" stroke-linecap="round" stroke-linejoin="round"/>
</g>
</svg>
