<svg width="17" height="17" viewBox="0 0 17 17" fill="none" xmlns="http://www.w3.org/2000/svg">
<path d="M8.67896 0.311017C8.62174 0.336108 8.53591 0.397045 8.49658 0.443644C8.24982 0.719652 7.45591 2.25741 7.26995 2.82377C7.13048 3.24316 7.08757 3.71631 7.15909 4.02817C7.27353 4.51925 7.67764 5.02466 8.12466 5.23257L8.33923 5.33293V5.66271V5.99607H5.95035C3.32545 5.99607 3.35049 5.99249 2.93565 6.21473C2.68532 6.35094 2.3742 6.66638 2.24546 6.92088C2.03804 7.32951 2.04519 7.18255 2.04519 11.3406V15.1653L1.65539 15.1796C1.32638 15.1868 1.24771 15.2011 1.16546 15.2656C0.97592 15.4054 0.918701 15.5201 0.918701 15.746C0.918701 15.9718 0.97592 16.0865 1.16546 16.2263L1.26201 16.3016H8.91141H16.5608L16.6574 16.2263C16.8469 16.0865 16.9041 15.9718 16.9041 15.746C16.9041 15.5201 16.8469 15.4054 16.6574 15.2656C16.5751 15.2011 16.4964 15.1868 16.1674 15.1796L15.7776 15.1653V11.3406C15.7776 7.18255 15.7848 7.32951 15.5774 6.92088C15.4486 6.66638 15.1375 6.35094 14.8872 6.21473C14.4723 5.99249 14.4974 5.99607 11.8725 5.99607H9.48359V5.66271V5.33293L9.69816 5.23257C9.81618 5.1788 10.0164 5.039 10.138 4.92071C10.6959 4.39737 10.839 3.68047 10.5564 2.82735C10.3633 2.25741 9.573 0.716067 9.32624 0.443644C9.17247 0.271587 8.89353 0.214235 8.67896 0.311017ZM9.06518 2.25741C9.13313 2.39362 9.26903 2.6768 9.36201 2.89546C9.51936 3.25749 9.53366 3.31485 9.53366 3.58369C9.53724 3.82743 9.52293 3.89196 9.46214 3.97798C9.23684 4.28267 8.84704 4.35794 8.55379 4.15721C8.33207 4.00666 8.28558 3.90988 8.28558 3.58369C8.28558 3.31126 8.29989 3.26108 8.46081 2.89546C8.67181 2.41513 8.87565 2.01725 8.91141 2.01725C8.92571 2.01725 8.99366 2.12479 9.06518 2.25741ZM14.3686 7.23632C14.4223 7.27575 14.5009 7.3546 14.5403 7.40837C14.6118 7.50515 14.6154 7.55534 14.6261 9.08235L14.6368 10.656L13.4102 9.83868C12.0441 8.92821 11.9547 8.8852 11.4326 8.8852C10.8711 8.88878 10.678 8.98915 9.64452 9.86377C8.9436 10.4552 8.92571 10.4696 8.76479 10.5126C8.51446 10.5807 8.41075 10.5233 7.62399 9.86019C6.77644 9.15045 6.65486 9.06801 6.32585 8.96406C5.99327 8.86369 5.51764 8.8852 5.20651 9.01065C5.0885 9.06084 4.59499 9.37628 4.10863 9.71681C3.62585 10.0573 3.22175 10.3333 3.21102 10.3333C3.17168 10.3333 3.18956 7.61627 3.2289 7.51232C3.27896 7.3797 3.39698 7.25065 3.5293 7.1933C3.6187 7.15387 4.57711 7.1467 8.95432 7.15387C14.2613 7.16104 14.2721 7.16104 14.3686 7.23632ZM11.5935 10.0466C11.6615 10.0645 12.3731 10.5197 13.1778 11.0574L14.6333 12.036V13.6024V15.1724H8.91141H3.18956V13.459L3.19314 11.7492L4.29817 10.9786C4.90612 10.5556 5.464 10.172 5.53909 10.129C5.69645 10.0358 5.93605 10.0215 6.08267 10.0968C6.13631 10.1254 6.50823 10.4265 6.91234 10.7599C7.37009 11.147 7.73128 11.4195 7.88148 11.4947C8.19976 11.656 8.53949 11.7134 8.87565 11.6632C9.31909 11.5951 9.50148 11.4804 10.3741 10.7527C11.0714 10.1685 11.2717 10.0287 11.4326 10.0143C11.4541 10.0107 11.5256 10.0251 11.5935 10.0466Z" fill="#260B6A"/>
</svg>
