<svg width="19" height="18" viewBox="0 0 19 18" fill="none" xmlns="http://www.w3.org/2000/svg">
<path d="M14.2305 6.82959H15.0305C15.8792 6.82959 16.6931 7.16673 17.2932 7.76685C17.8933 8.36696 18.2305 9.1809 18.2305 10.0296C18.2305 10.8783 17.8933 11.6922 17.2932 12.2923C16.6931 12.8924 15.8792 13.2296 15.0305 13.2296H14.2305" stroke="#260B6A" stroke-width="1.2" stroke-linecap="round" stroke-linejoin="round"/>
<path d="M1.43066 6.82959H14.2307V14.0296C14.2307 14.8783 13.8935 15.6922 13.2934 16.2923C12.6933 16.8924 11.8794 17.2296 11.0307 17.2296H4.63066C3.78197 17.2296 2.96804 16.8924 2.36792 16.2923C1.76781 15.6922 1.43066 14.8783 1.43066 14.0296V6.82959Z" stroke="#260B6A" stroke-width="1.2" stroke-linecap="round" stroke-linejoin="round"/>
<path d="M4.63086 1.22949V3.62949" stroke="#260B6A" stroke-width="1.2" stroke-linecap="round" stroke-linejoin="round"/>
<path d="M7.83105 1.22949V3.62949" stroke="#260B6A" stroke-width="1.2" stroke-linecap="round" stroke-linejoin="round"/>
<path d="M11.0303 1.22949V3.62949" stroke="#260B6A" stroke-width="1.2" stroke-linecap="round" stroke-linejoin="round"/>
</svg>
