<svg width="17" height="14" viewBox="0 0 17 14" fill="none" xmlns="http://www.w3.org/2000/svg">
<path d="M15.6667 11.4705C15.6667 11.8251 15.5262 12.1651 15.2761 12.4158C15.0261 12.6666 14.687 12.8074 14.3333 12.8074H2.33333C1.97971 12.8074 1.64057 12.6666 1.39052 12.4158C1.14048 12.1651 1 11.8251 1 11.4705V4.11727C1 3.76269 1.14048 3.42263 1.39052 3.1719C1.64057 2.92118 1.97971 2.78032 2.33333 2.78032H5L6.33333 0.774902H10.3333L11.6667 2.78032H14.3333C14.687 2.78032 15.0261 2.92118 15.2761 3.1719C15.5262 3.42263 15.6667 3.76269 15.6667 4.11727V11.4705Z" stroke="white" stroke-linecap="round" stroke-linejoin="round"/>
<path d="M8.33341 10.1334C9.80617 10.1334 11.0001 8.93629 11.0001 7.45954C11.0001 5.98279 9.80617 4.78564 8.33341 4.78564C6.86066 4.78564 5.66675 5.98279 5.66675 7.45954C5.66675 8.93629 6.86066 10.1334 8.33341 10.1334Z" stroke="white" stroke-linecap="round" stroke-linejoin="round"/>
</svg>
