<svg width="24" height="24" viewBox="0 0 24 24" fill="none" xmlns="http://www.w3.org/2000/svg">
<rect width="24" height="24" fill="#806BFF"/>
<path d="M9.94484 14.73C9.99863 14.6426 10.0405 14.5552 10.1002 14.4866C12.401 12.0779 14.7018 9.67536 17.0086 7.27286C17.4508 6.81108 17.9887 6.78612 18.401 7.19798C18.7596 7.55991 18.7954 8.10906 18.4907 8.51467C18.4429 8.57707 18.3891 8.63324 18.3413 8.68316C15.7715 11.3665 13.2078 14.0435 10.644 16.7268C10.3691 17.0139 10.0644 17.1761 9.68189 17.0513C9.52054 17.0014 9.35321 16.8953 9.22771 16.7705C8.02054 15.5225 6.82532 14.2744 5.6301 13.0201C5.22373 12.5958 5.22373 12.003 5.6062 11.6036C6.00062 11.198 6.55042 11.198 6.96277 11.6286C7.88309 12.5833 8.80341 13.5443 9.72373 14.5053C9.77154 14.5615 9.8313 14.6176 9.94484 14.73Z" fill="white"/>
</svg>
