<svg width="15" height="18" viewBox="0 0 15 18" fill="none" xmlns="http://www.w3.org/2000/svg">
<path d="M4.73828 11.6462H10.0716M4.73828 8.09074H10.0716M9.18287 3.64616H5.62703C5.39132 3.64616 5.16526 3.55252 4.99859 3.38585C4.83192 3.21918 4.73828 2.99312 4.73828 2.75741V1.86824C4.73828 1.63253 4.83192 1.40647 4.99859 1.2398C5.16526 1.07313 5.39132 0.979492 5.62703 0.979492H9.18287C9.29958 0.979492 9.41515 1.00248 9.52298 1.04714C9.6308 1.09181 9.72878 1.15727 9.81131 1.2398C9.89383 1.32233 9.9593 1.4203 10.004 1.52813C10.0486 1.63596 10.0716 1.75153 10.0716 1.86824V2.75741C10.0716 2.99312 9.97798 3.21918 9.81131 3.38585C9.64463 3.55252 9.41858 3.64616 9.18287 3.64616Z" stroke="#260B6A" stroke-width="1.2" stroke-linecap="round" stroke-linejoin="round"/>
<path d="M12.738 1.86816C12.8548 1.86816 12.9704 1.89117 13.0782 1.93586C13.1861 1.98055 13.2841 2.04605 13.3666 2.12862C13.4492 2.2112 13.5146 2.30922 13.5592 2.4171C13.6039 2.52497 13.6268 2.64059 13.6268 2.75734V16.0907C13.6268 16.3264 13.5331 16.5524 13.3665 16.7191C13.1998 16.8858 12.9737 16.9794 12.738 16.9794H2.07136C1.83565 16.9794 1.6096 16.8858 1.44293 16.7191C1.27625 16.5524 1.18262 16.3264 1.18262 16.0907V2.75734C1.18256 2.64059 1.20551 2.52497 1.25015 2.4171C1.29479 2.30922 1.36024 2.2112 1.44277 2.12862C1.52531 2.04605 1.6233 1.98055 1.73116 1.93586C1.83901 1.89117 1.95462 1.86816 2.07136 1.86816" stroke="#260B6A" stroke-width="1.2" stroke-linecap="round" stroke-linejoin="round"/>
</svg>
