<svg width="24" height="20" viewBox="0 0 24 20" fill="none" xmlns="http://www.w3.org/2000/svg">
<path d="M15.6914 14.2656L11.6914 10.2656L7.69141 14.2656" stroke="#9F9F9F" stroke-linecap="round" stroke-linejoin="round"/>
<path d="M11.6914 10.2656V19.2656" stroke="#9F9F9F" stroke-linecap="round" stroke-linejoin="round"/>
<path d="M20.0809 16.6571C21.0562 16.1253 21.8267 15.284 22.2708 14.2657C22.7148 13.2474 22.8071 12.1103 22.5331 11.0338C22.2591 9.95722 21.6344 9.00259 20.7575 8.32052C19.8807 7.63846 18.8017 7.26781 17.6909 7.26707H16.4309C16.1282 6.09632 15.564 5.00941 14.7808 4.08807C13.9976 3.16673 13.0157 2.43492 11.909 1.94768C10.8022 1.46044 9.59943 1.23043 8.391 1.27496C7.18256 1.31948 5.99995 1.63737 4.93205 2.20474C3.86416 2.7721 2.93879 3.57418 2.2255 4.55066C1.51221 5.52713 1.02957 6.65261 0.813858 7.84247C0.598148 9.03233 0.654983 10.2556 0.980092 11.4203C1.3052 12.5851 1.89012 13.6609 2.69088 14.5671" stroke="#9F9F9F" stroke-linecap="round" stroke-linejoin="round"/>
<path d="M15.6914 14.2656L11.6914 10.2656L7.69141 14.2656" stroke="#9F9F9F" stroke-linecap="round" stroke-linejoin="round"/>
</svg>
