<svg width="23" height="11" viewBox="0 0 23 11" fill="none" xmlns="http://www.w3.org/2000/svg">
<path d="M7.50977 5.45959H15.5098M8.50977 1.45959H5.50977C4.4489 1.45959 3.43148 1.88102 2.68134 2.63117C1.93119 3.38131 1.50977 4.39873 1.50977 5.45959C1.50977 6.52046 1.93119 7.53788 2.68134 8.28802C3.43148 9.03817 4.4489 9.45959 5.50977 9.45959H8.50977M14.5098 1.45959H17.5098C18.5706 1.45959 19.588 1.88102 20.3382 2.63117C21.0883 3.38131 21.5098 4.39873 21.5098 5.45959C21.5098 6.52046 21.0883 7.53788 20.3382 8.28802C19.588 9.03817 18.5706 9.45959 17.5098 9.45959H14.5098" stroke="#FF845C" stroke-width="1.5" stroke-linecap="round" stroke-linejoin="round"/>
</svg>
