<svg width="20" height="20" viewBox="0 0 20 20" fill="none" xmlns="http://www.w3.org/2000/svg">
<path d="M14.86 14.8601C13.4614 15.9262 11.7584 16.5168 10 16.5455C4.27273 16.5455 1 10.0001 1 10.0001C2.01773 8.10343 3.42929 6.44638 5.14 5.14007M8.28182 3.65097C8.845 3.51915 9.4216 3.45325 10 3.45461C15.7273 3.45461 19 10.0001 19 10.0001C18.5033 10.9292 17.911 11.8039 17.2327 12.6101M11.7345 11.7346C11.5098 11.9758 11.2388 12.1692 10.9378 12.3033C10.6367 12.4375 10.3116 12.5096 9.98207 12.5155C9.6525 12.5213 9.32513 12.4606 9.0195 12.3372C8.71387 12.2137 8.43623 12.03 8.20315 11.7969C7.97007 11.5638 7.78632 11.2862 7.66287 10.9806C7.53942 10.6749 7.47879 10.3476 7.48461 10.018C7.49042 9.68842 7.56256 9.36339 7.69672 9.0623C7.83087 8.76122 8.0243 8.49023 8.26545 8.26552" stroke="#E1DCFF" stroke-width="1.5" stroke-linecap="round" stroke-linejoin="round"/>
<path d="M1 1L19 19" stroke="#E1DCFF" stroke-width="1.5" stroke-linecap="round" stroke-linejoin="round"/>
</svg>
