<svg width="24" height="25" viewBox="0 0 24 25" fill="none" xmlns="http://www.w3.org/2000/svg">
<path d="M11.9997 14.5798L7.19966 19.3632C6.94409 19.6187 6.63298 19.7493 6.26633 19.7548C5.89967 19.7604 5.59689 19.6298 5.35801 19.3632C5.09134 19.1076 4.95801 18.8007 4.95801 18.4423C4.95801 18.084 5.09134 17.7715 5.35801 17.5049L10.158 12.7215L5.35801 7.91317C5.09134 7.65762 4.95801 7.35067 4.95801 6.99234C4.95801 6.63401 5.09134 6.32152 5.35801 6.05487C5.59689 5.7993 5.89967 5.6743 6.26633 5.67987C6.63298 5.68542 6.94409 5.81597 7.19966 6.07152L11.9997 10.8549L16.7997 6.07152C17.0552 5.81597 17.3663 5.68542 17.733 5.67987C18.0997 5.6743 18.4024 5.7993 18.6413 6.05487C18.908 6.32152 19.0413 6.63401 19.0413 6.99234C19.0413 7.35067 18.9135 7.65762 18.658 7.91317L13.858 12.7215L18.658 17.5049C18.9135 17.7715 19.0413 18.084 19.0413 18.4423C19.0413 18.8007 18.908 19.1076 18.6413 19.3632C18.4024 19.6298 18.0997 19.7604 17.733 19.7548C17.3663 19.7493 17.0552 19.6187 16.7997 19.3632L11.9997 14.5798Z" fill="#9F9F9F"/>
</svg>
