<svg width="25" height="24" viewBox="0 0 25 24" fill="none" xmlns="http://www.w3.org/2000/svg">
<path d="M12.2189 13.8591L7.4189 18.6425C7.16333 18.898 6.85222 19.0286 6.48557 19.0341C6.1189 19.0397 5.81613 18.9091 5.57725 18.6425C5.31058 18.3869 5.17725 18.08 5.17725 17.7216C5.17725 17.3633 5.31058 17.0508 5.57725 16.7842L10.3772 12.0008L5.57725 7.19246C5.31058 6.93691 5.17725 6.62997 5.17725 6.27164C5.17725 5.9133 5.31058 5.60081 5.57725 5.33416C5.81613 5.0786 6.1189 4.9536 6.48557 4.95916C6.85222 4.96471 7.16333 5.09526 7.4189 5.35081L12.2189 10.1342L17.0189 5.35081C17.2745 5.09526 17.5856 4.96471 17.9522 4.95916C18.3189 4.9536 18.6217 5.0786 18.8605 5.33416C19.1272 5.60081 19.2605 5.9133 19.2605 6.27164C19.2605 6.62997 19.1328 6.93691 18.8772 7.19246L14.0772 12.0008L18.8772 16.7842C19.1328 17.0508 19.2605 17.3633 19.2605 17.7216C19.2605 18.08 19.1272 18.3869 18.8605 18.6425C18.6217 18.9091 18.3189 19.0397 17.9522 19.0341C17.5856 19.0286 17.2745 18.898 17.0189 18.6425L12.2189 13.8591Z" fill="#260B6A"/>
</svg>
