<svg width="25" height="25" viewBox="0 0 25 25" fill="none" xmlns="http://www.w3.org/2000/svg">
<path d="M12.2204 14.3142L7.42036 19.0975C7.16479 19.3531 6.85369 19.4837 6.48704 19.4892C6.12037 19.4948 5.81759 19.3642 5.57871 19.0975C5.31204 18.842 5.17871 18.535 5.17871 18.1767C5.17871 17.8184 5.31204 17.5059 5.57871 17.2392L10.3787 12.4559L5.57871 7.64754C5.31204 7.39199 5.17871 7.08505 5.17871 6.72672C5.17871 6.36838 5.31204 6.05589 5.57871 5.78924C5.81759 5.53367 6.12037 5.40867 6.48704 5.41424C6.85369 5.41979 7.16479 5.55034 7.42036 5.80589L12.2204 10.5892L17.0204 5.80589C17.2759 5.55034 17.587 5.41979 17.9537 5.41424C18.3204 5.40867 18.6231 5.53367 18.862 5.78924C19.1287 6.05589 19.262 6.36838 19.262 6.72672C19.262 7.08505 19.1342 7.39199 18.8787 7.64754L14.0787 12.4559L18.8787 17.2392C19.1342 17.5059 19.262 17.8184 19.262 18.1767C19.262 18.535 19.1287 18.842 18.862 19.0975C18.6231 19.3642 18.3204 19.4948 17.9537 19.4892C17.587 19.4837 17.2759 19.3531 17.0204 19.0975L12.2204 14.3142Z" fill="#260B6A"/>
</svg>
