<svg width="20" height="14" viewBox="0 0 20 14" fill="none" xmlns="http://www.w3.org/2000/svg">
<path d="M0.0078125 0.72231C0.0078125 0.566225 0.0698172 0.416532 0.180186 0.306163C0.290555 0.195794 0.440248 0.133789 0.596334 0.133789H17.8596C18.0157 0.133789 18.1654 0.195794 18.2758 0.306163C18.3861 0.416532 18.4481 0.566225 18.4481 0.72231C18.4481 0.878396 18.3861 1.02809 18.2758 1.13846C18.1654 1.24883 18.0157 1.31083 17.8596 1.31083H0.596334C0.440248 1.31083 0.290555 1.24883 0.180186 1.13846C0.0698172 1.02809 0.0078125 0.878396 0.0078125 0.72231ZM0.596334 7.58839H6.0892C6.24528 7.58839 6.39498 7.52639 6.50534 7.41602C6.61571 7.30565 6.67772 7.15595 6.67772 6.99987C6.67772 6.84378 6.61571 6.69409 6.50534 6.58372C6.39498 6.47335 6.24528 6.41135 6.0892 6.41135H0.596334C0.440248 6.41135 0.290555 6.47335 0.180186 6.58372C0.0698172 6.69409 0.0078125 6.84378 0.0078125 6.99987C0.0078125 7.15595 0.0698172 7.30565 0.180186 7.41602C0.290555 7.52639 0.440248 7.58839 0.596334 7.58839ZM7.65859 12.6889H0.596334C0.440248 12.6889 0.290555 12.7509 0.180186 12.8613C0.0698172 12.9717 0.0078125 13.1213 0.0078125 13.2774C0.0078125 13.4335 0.0698172 13.5832 0.180186 13.6936C0.290555 13.8039 0.440248 13.8659 0.596334 13.8659H7.65859C7.81467 13.8659 7.96437 13.8039 8.07473 13.6936C8.1851 13.5832 8.24711 13.4335 8.24711 13.2774C8.24711 13.1213 8.1851 12.9717 8.07473 12.8613C7.96437 12.7509 7.81467 12.6889 7.65859 12.6889ZM19.8037 8.39663L17.4996 10.2985L18.2019 13.1362C18.2298 13.2487 18.2238 13.3668 18.1847 13.4759C18.1456 13.585 18.0752 13.6801 17.9823 13.7494C17.8894 13.8186 17.7781 13.8589 17.6624 13.8651C17.5467 13.8714 17.4317 13.8433 17.3319 13.7845L14.7208 12.2475L12.1098 13.7845C12.0099 13.8433 11.895 13.8714 11.7793 13.8651C11.6636 13.8589 11.5523 13.8186 11.4594 13.7494C11.3665 13.6801 11.2961 13.585 11.257 13.4759C11.2179 13.3668 11.2119 13.2487 11.2397 13.1362L11.942 10.2985L9.63798 8.39663C9.54748 8.32194 9.48137 8.2219 9.44814 8.10936C9.41492 7.99681 9.4161 7.87691 9.45152 7.76504C9.48695 7.65318 9.55501 7.55445 9.64696 7.48155C9.73891 7.40865 9.85055 7.3649 9.96755 7.35593L13.0082 7.12052L14.1765 4.41234C14.2222 4.30733 14.2977 4.21797 14.3935 4.15521C14.4893 4.09245 14.6014 4.05902 14.7159 4.05902C14.8305 4.05902 14.9425 4.09245 15.0384 4.15521C15.1342 4.21797 15.2096 4.30733 15.2554 4.41234L16.4236 7.12052L19.4643 7.35593C19.5813 7.3649 19.693 7.40865 19.7849 7.48155C19.8769 7.55445 19.9449 7.65318 19.9804 7.76504C20.0158 7.87691 20.017 7.99681 19.9837 8.10936C19.9505 8.2219 19.8844 8.32194 19.7939 8.39663H19.8037ZM17.9302 8.41722L15.9852 8.26715C15.879 8.25804 15.7774 8.2203 15.691 8.15794C15.6046 8.09558 15.5368 8.01094 15.4947 7.91306L14.7208 6.13082L13.9518 7.91306C13.9098 8.01094 13.842 8.09558 13.7556 8.15794C13.6692 8.2203 13.5675 8.25804 13.4614 8.26715L11.5163 8.41722L12.9818 9.62664C13.0672 9.69731 13.131 9.7907 13.1657 9.89604C13.2004 10.0014 13.2047 10.1144 13.1779 10.222L12.7238 12.0602L14.4266 11.0577C14.517 11.0046 14.6199 10.9766 14.7248 10.9766C14.8296 10.9766 14.9326 11.0046 15.023 11.0577L16.7267 12.0602L16.2726 10.222C16.2459 10.1144 16.2501 10.0014 16.2848 9.89604C16.3195 9.7907 16.3833 9.69731 16.4688 9.62664L17.9302 8.41722Z" fill="#260B6A"/>
</svg>
