<svg width="23" height="22" viewBox="0 0 23 22" fill="none" xmlns="http://www.w3.org/2000/svg">
<path d="M11.4119 21C16.9347 21 21.4119 16.5228 21.4119 11C21.4119 5.47715 16.9347 1 11.4119 1C5.88902 1 1.41187 5.47715 1.41187 11C1.41187 16.5228 5.88902 21 11.4119 21Z" stroke="#260B6A" stroke-width="2" stroke-linecap="round" stroke-linejoin="round"/>
<path d="M8.50195 8.00008C8.73706 7.33175 9.20111 6.76819 9.81191 6.40921C10.4227 6.05024 11.1408 5.91902 11.8391 6.03879C12.5374 6.15857 13.1708 6.52161 13.627 7.06361C14.0833 7.60561 14.333 8.2916 14.332 9.00008C14.332 11.0001 11.332 12.0001 11.332 12.0001" stroke="#260B6A" stroke-width="2" stroke-linecap="round" stroke-linejoin="round"/>
<path d="M11.4119 16H11.4219" stroke="#260B6A" stroke-width="2" stroke-linecap="round" stroke-linejoin="round"/>
</svg>
