<svg width="21" height="20" viewBox="0 0 21 20" fill="none" xmlns="http://www.w3.org/2000/svg">
<path fill-rule="evenodd" clip-rule="evenodd" d="M15.5701 1.29913C15.6496 1.25247 15.719 1.19051 15.7744 1.11684C15.8299 1.04317 15.8701 0.959246 15.8929 0.869921C15.9157 0.780595 15.9205 0.687641 15.9072 0.596431C15.8938 0.50522 15.8625 0.417563 15.815 0.338527C15.7676 0.259491 15.7049 0.190643 15.6307 0.135963C15.5565 0.081283 15.4722 0.0418561 15.3827 0.0199611C15.2931 -0.00193392 15.2001 -0.00586272 15.109 0.00840195C15.018 0.0226666 14.9306 0.0548418 14.8521 0.103067L12.672 1.41167C12.0134 1.09485 11.2916 0.931403 10.5607 0.933618C9.83021 0.931544 9.10871 1.09499 8.4504 1.41167L6.26939 0.103067C6.11087 0.0100263 5.92204 -0.0166875 5.74393 0.0287327C5.56582 0.0741528 5.41284 0.188036 5.31824 0.345627C5.22363 0.503219 5.19506 0.691781 5.23871 0.870329C5.28237 1.04888 5.39473 1.20298 5.55138 1.29913L7.19109 2.28315C6.71251 2.73875 6.33157 3.28692 6.07143 3.89433C5.8113 4.50174 5.6774 5.1557 5.67787 5.81647V6.08619C5.43853 6.21268 5.21377 6.35932 5.00357 6.52611C4.93713 6.46283 4.85956 6.41237 4.77478 6.3773L2.91464 5.63325C2.74388 5.56888 2.55469 5.574 2.38766 5.6475C2.22062 5.721 2.08904 5.85704 2.02114 6.02642C1.95324 6.19581 1.95442 6.38507 2.02444 6.55359C2.09445 6.72212 2.22772 6.85649 2.39566 6.9279L4.04374 7.58732C3.60661 8.26627 3.3527 9.07543 3.3527 9.94318V11.1634H1.26005C1.07505 11.1634 0.897624 11.2369 0.766808 11.3677C0.635992 11.4986 0.5625 11.676 0.5625 11.861C0.5625 12.046 0.635992 12.2234 0.766808 12.3542C0.897624 12.485 1.07505 12.5585 1.26005 12.5585H3.3527V12.792C3.3527 13.9825 3.64102 15.1041 4.15163 16.0937L2.39566 16.795C2.31059 16.8291 2.23307 16.8796 2.16752 16.9436C2.10196 17.0076 2.04966 17.084 2.01361 17.1682C1.97755 17.2525 1.95844 17.343 1.95737 17.4346C1.9563 17.5262 1.97328 17.6172 2.00736 17.7023C2.04144 17.7873 2.09193 17.8649 2.15597 17.9304C2.22001 17.996 2.29633 18.0483 2.38058 18.0843C2.46483 18.1204 2.55535 18.1395 2.64699 18.1406C2.73862 18.1416 2.82957 18.1246 2.91464 18.0906L4.77478 17.3465C4.82299 17.3257 4.86935 17.3008 4.91335 17.2721C5.58791 18.1234 6.44634 18.811 7.42435 19.2834C8.40236 19.7558 9.47459 20.0008 10.5607 20C11.6469 20.0007 12.7192 19.7556 13.6972 19.283C14.6752 18.8104 15.5336 18.1226 16.2081 17.2712C16.2524 17.2999 16.2991 17.3248 16.3476 17.3456L18.2077 18.0896C18.3777 18.1502 18.5646 18.1425 18.729 18.0683C18.8935 17.994 19.0227 17.8589 19.0897 17.6913C19.1566 17.5237 19.156 17.3367 19.088 17.1696C19.0199 17.0025 18.8898 16.8682 18.7249 16.795L16.9707 16.0928C17.4975 15.0724 17.7712 13.9403 17.7687 12.792V12.5595H19.8614C20.0464 12.5595 20.2238 12.486 20.3546 12.3552C20.4855 12.2243 20.5589 12.0469 20.5589 11.8619C20.5589 11.6769 20.4855 11.4995 20.3546 11.3687C20.2238 11.2379 20.0464 11.1644 19.8614 11.1644H17.7687V9.94411C17.7687 9.07543 17.5148 8.2672 17.0777 7.58825L18.7249 6.92883C18.8898 6.85563 19.0199 6.72135 19.088 6.55422C19.156 6.38709 19.1566 6.20009 19.0897 6.03252C19.0227 5.86495 18.8935 5.72983 18.729 5.65555C18.5646 5.58127 18.3777 5.57361 18.2077 5.63418L16.3476 6.37823C16.2625 6.4132 16.1846 6.46366 16.1179 6.52704C15.9071 6.35997 15.6814 6.21271 15.4436 6.08712V5.81647C15.4442 5.15554 15.3103 4.5014 15.0502 3.89382C14.7901 3.28624 14.4091 2.73793 13.9304 2.28222L15.5701 1.29913ZM4.7478 12.792V9.94411C4.74768 9.5547 4.82429 9.16908 4.97326 8.80929C5.12222 8.4495 5.34062 8.12258 5.61598 7.84723C5.89133 7.57187 6.21824 7.35347 6.57804 7.20451C6.93783 7.05554 7.32345 6.97893 7.71286 6.97906H13.4086C14.1948 6.97955 14.9487 7.2921 15.5047 7.84804C16.0606 8.40399 16.3732 9.15788 16.3736 9.94411V12.792C16.3739 14.213 15.8536 15.585 14.9111 16.6485C13.9685 17.712 12.6691 18.3934 11.2583 18.564V12.792C11.2583 12.607 11.1848 12.4296 11.054 12.2987C10.9232 12.1679 10.7457 12.0944 10.5607 12.0944C10.3757 12.0944 10.1983 12.1679 10.0675 12.2987C9.93667 12.4296 9.86317 12.607 9.86317 12.792V18.564C8.45237 18.3934 7.15291 17.712 6.21037 16.6485C5.26784 15.585 4.74754 14.213 4.7478 12.792ZM10.5607 2.32872C11.4536 2.32864 12.3125 2.67099 12.9605 3.28524C13.6085 3.89949 13.9962 4.73887 14.0438 5.63046C13.8337 5.6005 13.6218 5.58496 13.4095 5.58395H7.711C7.49584 5.58395 7.28441 5.59946 7.07669 5.63046C7.12432 4.73871 7.51219 3.8992 8.16039 3.28492C8.80858 2.67064 9.6677 2.3284 10.5607 2.32872Z" fill="#260B6A"/>
</svg>
