<svg width="22" height="22" viewBox="0 0 22 22" fill="none" xmlns="http://www.w3.org/2000/svg">
<mask id="path-1-outside-1_386_77352" maskUnits="userSpaceOnUse" x="0.0078125" y="0" width="22" height="22" fill="black">
<rect fill="white" x="0.0078125" width="22" height="22"/>
<path d="M9.61892 4.05556C9.61892 3.24517 9.297 2.46798 8.72397 1.89495C8.15094 1.32192 7.37375 1 6.56337 1C5.75298 1 4.97579 1.32192 4.40276 1.89495C3.82974 2.46798 3.50781 3.24517 3.50781 4.05556C3.50781 4.86594 3.82974 5.64313 4.40276 6.21616C4.97579 6.78919 5.75298 7.11111 6.56337 7.11111C7.37375 7.11111 8.15094 6.78919 8.72397 6.21616C9.297 5.64313 9.61892 4.86594 9.61892 4.05556ZM4.61892 4.05556C4.61892 3.80021 4.66922 3.54736 4.76694 3.31145C4.86465 3.07554 5.00788 2.86118 5.18844 2.68063C5.369 2.50007 5.58335 2.35684 5.81926 2.25912C6.05517 2.16141 6.30802 2.11111 6.56337 2.11111C6.81872 2.11111 7.07156 2.16141 7.30748 2.25912C7.54339 2.35684 7.75774 2.50007 7.9383 2.68063C8.11886 2.86118 8.26208 3.07554 8.3598 3.31145C8.45752 3.54736 8.50781 3.80021 8.50781 4.05556C8.50781 4.57125 8.30295 5.06583 7.9383 5.43049C7.57364 5.79514 7.07907 6 6.56337 6C6.04767 6 5.55309 5.79514 5.18844 5.43049C4.82378 5.06583 4.61892 4.57125 4.61892 4.05556ZM2.67448 8.22222H7.32226C7.14004 8.56667 7.00448 8.94 6.92448 9.33333H2.67448C2.52714 9.33333 2.38583 9.39186 2.28164 9.49605C2.17746 9.60024 2.11892 9.74155 2.11892 9.88889V10.4444C2.11892 11.8444 3.34003 13.3489 5.55892 13.7C5.20115 13.9444 4.90337 14.27 4.69115 14.6489C2.3467 14.0144 1.00781 12.2078 1.00781 10.4444V9.88889C1.00781 9.44686 1.18341 9.02294 1.49597 8.71038C1.80853 8.39782 2.23245 8.22222 2.67448 8.22222ZM8.65115 8.22222C9.21115 7.54444 10.0589 7.11111 11.0078 7.11111C11.6732 7.10995 12.3207 7.32651 12.8516 7.72774C13.3824 8.12897 13.7674 8.69285 13.9478 9.33333C14.1086 9.905 14.0996 10.5111 13.9217 11.0777C13.7439 11.6443 13.405 12.1469 12.9463 12.5241C12.4877 12.9014 11.9292 13.1369 11.3389 13.2021C10.7486 13.2673 10.1521 13.1592 9.62226 12.8911C9.21427 12.6835 8.85816 12.3868 8.58023 12.023C8.3023 11.6593 8.10966 11.2377 8.01654 10.7895C7.92342 10.3413 7.9322 9.87788 8.04224 9.43352C8.15227 8.98915 8.35963 8.57519 8.65115 8.22222ZM9.25226 9.33333C9.14282 9.56417 9.07993 9.8143 9.06716 10.0694C9.05439 10.3246 9.092 10.5797 9.17784 10.8203C9.35121 11.3063 9.71051 11.7034 10.1767 11.9244C10.6429 12.1455 11.1778 12.1722 11.6637 11.9989C12.1496 11.8255 12.5468 11.4662 12.7678 11C12.9888 10.5337 13.0155 9.99863 12.8421 9.51259C12.6686 9.02656 12.3092 8.62935 11.8428 8.40833C11.3765 8.18732 10.8414 8.16061 10.3554 8.33408C9.86937 8.50755 9.47216 8.86699 9.25115 9.33333M17.3245 14.6489C17.1133 14.2695 16.8161 13.9449 16.4567 13.7011C18.6745 13.3489 19.8967 11.8433 19.8967 10.4444V9.88889C19.8967 9.74155 19.8382 9.60024 19.734 9.49605C19.6298 9.39186 19.4885 9.33333 19.3411 9.33333H15.0911C15.013 8.94582 14.8794 8.5716 14.6945 8.22222H19.3411C19.7832 8.22222 20.2071 8.39782 20.5197 8.71038C20.8322 9.02294 21.0078 9.44686 21.0078 9.88889V10.4444C21.0078 12.2078 19.6678 14.0133 17.3245 14.6489ZM15.9934 14.7456C15.6897 14.48 15.3001 14.3335 14.8967 14.3333H7.11892C6.89989 14.3327 6.6829 14.3755 6.48043 14.459C6.27795 14.5426 6.09399 14.6653 5.9391 14.8202C5.78422 14.9751 5.66148 15.159 5.57793 15.3615C5.49438 15.564 5.45167 15.781 5.45226 16V16.5556C5.45226 18.7456 7.51892 21 11.0078 21C14.4967 21 16.5634 18.7456 16.5634 16.5556V16C16.5634 15.5 16.3434 15.0511 15.9934 14.7444M6.56337 16C6.56337 15.8527 6.6219 15.7114 6.72609 15.6072C6.83027 15.503 6.97158 15.4444 7.11892 15.4444H14.8967C15.044 15.4444 15.1854 15.503 15.2895 15.6072C15.3937 15.7114 15.4523 15.8527 15.4523 16V16.5556C15.4523 18.1533 13.8611 19.8889 11.0078 19.8889C8.15448 19.8889 6.56337 18.1533 6.56337 16.5556V16ZM15.4523 1C16.2626 1 17.0398 1.32192 17.6129 1.89495C18.1859 2.46798 18.5078 3.24517 18.5078 4.05556C18.5078 4.86594 18.1859 5.64313 17.6129 6.21616C17.0398 6.78919 16.2626 7.11111 15.4523 7.11111C14.6419 7.11111 13.8647 6.78919 13.2917 6.21616C12.7186 5.64313 12.3967 4.86594 12.3967 4.05556C12.3967 3.24517 12.7186 2.46798 13.2917 1.89495C13.8647 1.32192 14.6419 1 15.4523 1ZM15.4523 2.11111C14.9366 2.11111 14.442 2.31597 14.0773 2.68063C13.7127 3.04528 13.5078 3.53986 13.5078 4.05556C13.5078 4.57125 13.7127 5.06583 14.0773 5.43049C14.442 5.79514 14.9366 6 15.4523 6C15.968 6 16.4625 5.79514 16.8272 5.43049C17.1918 5.06583 17.3967 4.57125 17.3967 4.05556C17.3967 3.53986 17.1918 3.04528 16.8272 2.68063C16.4625 2.31597 15.968 2.11111 15.4523 2.11111Z"/>
</mask>
<path d="M9.61892 4.05556C9.61892 3.24517 9.297 2.46798 8.72397 1.89495C8.15094 1.32192 7.37375 1 6.56337 1C5.75298 1 4.97579 1.32192 4.40276 1.89495C3.82974 2.46798 3.50781 3.24517 3.50781 4.05556C3.50781 4.86594 3.82974 5.64313 4.40276 6.21616C4.97579 6.78919 5.75298 7.11111 6.56337 7.11111C7.37375 7.11111 8.15094 6.78919 8.72397 6.21616C9.297 5.64313 9.61892 4.86594 9.61892 4.05556ZM4.61892 4.05556C4.61892 3.80021 4.66922 3.54736 4.76694 3.31145C4.86465 3.07554 5.00788 2.86118 5.18844 2.68063C5.369 2.50007 5.58335 2.35684 5.81926 2.25912C6.05517 2.16141 6.30802 2.11111 6.56337 2.11111C6.81872 2.11111 7.07156 2.16141 7.30748 2.25912C7.54339 2.35684 7.75774 2.50007 7.9383 2.68063C8.11886 2.86118 8.26208 3.07554 8.3598 3.31145C8.45752 3.54736 8.50781 3.80021 8.50781 4.05556C8.50781 4.57125 8.30295 5.06583 7.9383 5.43049C7.57364 5.79514 7.07907 6 6.56337 6C6.04767 6 5.55309 5.79514 5.18844 5.43049C4.82378 5.06583 4.61892 4.57125 4.61892 4.05556ZM2.67448 8.22222H7.32226C7.14004 8.56667 7.00448 8.94 6.92448 9.33333H2.67448C2.52714 9.33333 2.38583 9.39186 2.28164 9.49605C2.17746 9.60024 2.11892 9.74155 2.11892 9.88889V10.4444C2.11892 11.8444 3.34003 13.3489 5.55892 13.7C5.20115 13.9444 4.90337 14.27 4.69115 14.6489C2.3467 14.0144 1.00781 12.2078 1.00781 10.4444V9.88889C1.00781 9.44686 1.18341 9.02294 1.49597 8.71038C1.80853 8.39782 2.23245 8.22222 2.67448 8.22222ZM8.65115 8.22222C9.21115 7.54444 10.0589 7.11111 11.0078 7.11111C11.6732 7.10995 12.3207 7.32651 12.8516 7.72774C13.3824 8.12897 13.7674 8.69285 13.9478 9.33333C14.1086 9.905 14.0996 10.5111 13.9217 11.0777C13.7439 11.6443 13.405 12.1469 12.9463 12.5241C12.4877 12.9014 11.9292 13.1369 11.3389 13.2021C10.7486 13.2673 10.1521 13.1592 9.62226 12.8911C9.21427 12.6835 8.85816 12.3868 8.58023 12.023C8.3023 11.6593 8.10966 11.2377 8.01654 10.7895C7.92342 10.3413 7.9322 9.87788 8.04224 9.43352C8.15227 8.98915 8.35963 8.57519 8.65115 8.22222ZM9.25226 9.33333C9.14282 9.56417 9.07993 9.8143 9.06716 10.0694C9.05439 10.3246 9.092 10.5797 9.17784 10.8203C9.35121 11.3063 9.71051 11.7034 10.1767 11.9244C10.6429 12.1455 11.1778 12.1722 11.6637 11.9989C12.1496 11.8255 12.5468 11.4662 12.7678 11C12.9888 10.5337 13.0155 9.99863 12.8421 9.51259C12.6686 9.02656 12.3092 8.62935 11.8428 8.40833C11.3765 8.18732 10.8414 8.16061 10.3554 8.33408C9.86937 8.50755 9.47216 8.86699 9.25115 9.33333M17.3245 14.6489C17.1133 14.2695 16.8161 13.9449 16.4567 13.7011C18.6745 13.3489 19.8967 11.8433 19.8967 10.4444V9.88889C19.8967 9.74155 19.8382 9.60024 19.734 9.49605C19.6298 9.39186 19.4885 9.33333 19.3411 9.33333H15.0911C15.013 8.94582 14.8794 8.5716 14.6945 8.22222H19.3411C19.7832 8.22222 20.2071 8.39782 20.5197 8.71038C20.8322 9.02294 21.0078 9.44686 21.0078 9.88889V10.4444C21.0078 12.2078 19.6678 14.0133 17.3245 14.6489ZM15.9934 14.7456C15.6897 14.48 15.3001 14.3335 14.8967 14.3333H7.11892C6.89989 14.3327 6.6829 14.3755 6.48043 14.459C6.27795 14.5426 6.09399 14.6653 5.9391 14.8202C5.78422 14.9751 5.66148 15.159 5.57793 15.3615C5.49438 15.564 5.45167 15.781 5.45226 16V16.5556C5.45226 18.7456 7.51892 21 11.0078 21C14.4967 21 16.5634 18.7456 16.5634 16.5556V16C16.5634 15.5 16.3434 15.0511 15.9934 14.7444M6.56337 16C6.56337 15.8527 6.6219 15.7114 6.72609 15.6072C6.83027 15.503 6.97158 15.4444 7.11892 15.4444H14.8967C15.044 15.4444 15.1854 15.503 15.2895 15.6072C15.3937 15.7114 15.4523 15.8527 15.4523 16V16.5556C15.4523 18.1533 13.8611 19.8889 11.0078 19.8889C8.15448 19.8889 6.56337 18.1533 6.56337 16.5556V16ZM15.4523 1C16.2626 1 17.0398 1.32192 17.6129 1.89495C18.1859 2.46798 18.5078 3.24517 18.5078 4.05556C18.5078 4.86594 18.1859 5.64313 17.6129 6.21616C17.0398 6.78919 16.2626 7.11111 15.4523 7.11111C14.6419 7.11111 13.8647 6.78919 13.2917 6.21616C12.7186 5.64313 12.3967 4.86594 12.3967 4.05556C12.3967 3.24517 12.7186 2.46798 13.2917 1.89495C13.8647 1.32192 14.6419 1 15.4523 1ZM15.4523 2.11111C14.9366 2.11111 14.442 2.31597 14.0773 2.68063C13.7127 3.04528 13.5078 3.53986 13.5078 4.05556C13.5078 4.57125 13.7127 5.06583 14.0773 5.43049C14.442 5.79514 14.9366 6 15.4523 6C15.968 6 16.4625 5.79514 16.8272 5.43049C17.1918 5.06583 17.3967 4.57125 17.3967 4.05556C17.3967 3.53986 17.1918 3.04528 16.8272 2.68063C16.4625 2.31597 15.968 2.11111 15.4523 2.11111Z" fill="#260B6A"/>
<path d="M6.56337 1V0.9V1ZM3.50781 4.05556H3.40781H3.50781ZM6.56337 7.11111V7.21111V7.11111ZM6.56337 2.11111V2.01111V2.11111ZM8.50781 4.05556H8.60781H8.50781ZM6.56337 6V6.1V6ZM2.67448 8.22222V8.12222V8.22222ZM7.32226 8.22222L7.41065 8.26899L7.48829 8.12222H7.32226V8.22222ZM6.92448 9.33333V9.43333H7.00619L7.02247 9.35326L6.92448 9.33333ZM2.11892 9.88889H2.01892H2.11892ZM5.55892 13.7L5.61534 13.7826L5.82317 13.6406L5.57455 13.6012L5.55892 13.7ZM4.69115 14.6489L4.66502 14.7454L4.74029 14.7658L4.77839 14.6978L4.69115 14.6489ZM1.00781 9.88889H0.907812H1.00781ZM8.65115 8.22222L8.57406 8.15853L8.57404 8.15854L8.65115 8.22222ZM11.0078 7.11111V7.21111L11.008 7.21111L11.0078 7.11111ZM13.9478 9.33333L14.0441 9.30625L14.0441 9.30622L13.9478 9.33333ZM9.62226 12.8911L9.5769 12.9802L9.57711 12.9803L9.62226 12.8911ZM9.17784 10.8203L9.08366 10.854L9.17784 10.8203ZM12.7678 11L12.8582 11.0428L12.8582 11.0428L12.7678 11ZM17.3245 14.6489L17.2371 14.6975L17.2752 14.7659L17.3507 14.7454L17.3245 14.6489ZM16.4567 13.7011L16.441 13.6023L16.1914 13.642L16.4006 13.7839L16.4567 13.7011ZM15.0911 9.33333L14.9931 9.35309L15.0093 9.43333H15.0911V9.33333ZM14.6945 8.22222V8.12222H14.5284L14.6061 8.26901L14.6945 8.22222ZM14.8967 14.3333L14.8967 14.2333H14.8967V14.3333ZM7.11892 14.3333L7.11866 14.4333H7.11892V14.3333ZM5.45226 16H5.55226L5.55226 15.9997L5.45226 16ZM15.4523 1V0.9V1ZM15.4523 7.11111V7.21111V7.11111ZM15.4523 2.11111V2.01111V2.11111ZM13.5078 4.05556L13.6078 4.05556L13.5078 4.05556ZM15.4523 6V5.9V6ZM17.3967 4.05556H17.2967H17.3967ZM9.71892 4.05556C9.71892 3.21865 9.38647 2.41602 8.79468 1.82424L8.65326 1.96566C9.20754 2.51994 9.51892 3.27169 9.51892 4.05556H9.71892ZM8.79468 1.82424C8.2029 1.23246 7.40027 0.9 6.56337 0.9V1.1C7.34723 1.1 8.09899 1.41139 8.65326 1.96566L8.79468 1.82424ZM6.56337 0.9C5.72646 0.9 4.92383 1.23246 4.33205 1.82424L4.47347 1.96566C5.02775 1.41139 5.77951 1.1 6.56337 1.1V0.9ZM4.33205 1.82424C3.74027 2.41602 3.40781 3.21865 3.40781 4.05556H3.60781C3.60781 3.27169 3.9192 2.51994 4.47347 1.96566L4.33205 1.82424ZM3.40781 4.05556C3.40781 4.89246 3.74027 5.69509 4.33205 6.28687L4.47347 6.14545C3.9192 5.59118 3.60781 4.83942 3.60781 4.05556H3.40781ZM4.33205 6.28687C4.92383 6.87865 5.72646 7.21111 6.56337 7.21111V7.01111C5.77951 7.01111 5.02775 6.69972 4.47347 6.14545L4.33205 6.28687ZM6.56337 7.21111C7.40027 7.21111 8.2029 6.87865 8.79468 6.28687L8.65326 6.14545C8.09899 6.69972 7.34723 7.01111 6.56337 7.01111V7.21111ZM8.79468 6.28687C9.38647 5.69509 9.71892 4.89246 9.71892 4.05556H9.51892C9.51892 4.83942 9.20754 5.59118 8.65326 6.14545L8.79468 6.28687ZM4.71892 4.05556C4.71892 3.81334 4.76663 3.5735 4.85932 3.34972L4.67455 3.27318C4.5718 3.52122 4.51892 3.78708 4.51892 4.05556L4.71892 4.05556ZM4.85932 3.34972C4.95202 3.12594 5.08788 2.92261 5.25915 2.75134L5.11773 2.60991C4.92788 2.79976 4.77729 3.02514 4.67455 3.27318L4.85932 3.34972ZM5.25915 2.75134C5.43042 2.58006 5.63375 2.4442 5.85753 2.35151L5.78099 2.16674C5.53295 2.26948 5.30757 2.42007 5.11773 2.60991L5.25915 2.75134ZM5.85753 2.35151C6.08131 2.25882 6.32115 2.21111 6.56337 2.21111V2.01111C6.29489 2.01111 6.02904 2.06399 5.78099 2.16674L5.85753 2.35151ZM6.56337 2.21111C6.80558 2.21111 7.04543 2.25882 7.26921 2.35151L7.34574 2.16674C7.0977 2.06399 6.83185 2.01111 6.56337 2.01111V2.21111ZM7.26921 2.35151C7.49298 2.4442 7.69631 2.58006 7.86759 2.75134L8.00901 2.60991C7.81916 2.42007 7.59379 2.26948 7.34574 2.16674L7.26921 2.35151ZM7.86759 2.75134C8.03886 2.92261 8.17472 3.12594 8.26741 3.34972L8.45219 3.27318C8.34945 3.02514 8.19885 2.79976 8.00901 2.60991L7.86759 2.75134ZM8.26741 3.34972C8.36011 3.5735 8.40781 3.81334 8.40781 4.05556L8.60781 4.05556C8.60781 3.78708 8.55493 3.52122 8.45219 3.27318L8.26741 3.34972ZM8.40781 4.05556C8.40781 4.54473 8.21349 5.01387 7.86759 5.35978L8.00901 5.5012C8.39242 5.11779 8.60781 4.59778 8.60781 4.05556L8.40781 4.05556ZM7.86759 5.35978C7.52169 5.70568 7.05255 5.9 6.56337 5.9V6.1C7.10559 6.1 7.6256 5.8846 8.00901 5.5012L7.86759 5.35978ZM6.56337 5.9C6.07419 5.9 5.60505 5.70568 5.25915 5.35978L5.11773 5.5012C5.50114 5.8846 6.02115 6.1 6.56337 6.1V5.9ZM5.25915 5.35978C4.91325 5.01387 4.71892 4.54473 4.71892 4.05556L4.51892 4.05556C4.51892 4.59778 4.73432 5.11779 5.11773 5.5012L5.25915 5.35978ZM2.67448 8.32222H7.32226V8.12222H2.67448V8.32222ZM7.23386 8.17546C7.04726 8.52819 6.90842 8.91054 6.82649 9.3134L7.02247 9.35326C7.10054 8.96946 7.23281 8.60514 7.41065 8.26899L7.23386 8.17546ZM6.92448 9.23333H2.67448V9.43333H6.92448V9.23333ZM2.67448 9.23333C2.50062 9.23333 2.33387 9.3024 2.21093 9.42534L2.35235 9.56676C2.43779 9.48133 2.55366 9.43333 2.67448 9.43333V9.23333ZM2.21093 9.42534C2.08799 9.54828 2.01892 9.71502 2.01892 9.88889H2.21892C2.21892 9.76807 2.26692 9.6522 2.35235 9.56676L2.21093 9.42534ZM2.01892 9.88889V10.4444H2.21892V9.88889H2.01892ZM2.01892 10.4444C2.01892 11.9051 3.28805 13.4419 5.54329 13.7988L5.57455 13.6012C3.39202 13.2559 2.21892 11.7838 2.21892 10.4444H2.01892ZM5.50251 13.6174C5.13197 13.8706 4.82365 14.2077 4.6039 14.6L4.77839 14.6978C4.98309 14.3323 5.27032 14.0183 5.61534 13.7826L5.50251 13.6174ZM4.71727 14.5524C2.4093 13.9278 1.10781 12.1556 1.10781 10.4444H0.907812C0.907812 12.2599 2.2841 14.1011 4.66502 14.7454L4.71727 14.5524ZM1.10781 10.4444V9.88889H0.907812V10.4444H1.10781ZM1.10781 9.88889C1.10781 9.47338 1.27287 9.0749 1.56668 8.78109L1.42526 8.63967C1.09394 8.97098 0.907812 9.42034 0.907812 9.88889H1.10781ZM1.56668 8.78109C1.86049 8.48728 2.25897 8.32222 2.67448 8.32222V8.12222C2.20593 8.12222 1.75657 8.30835 1.42526 8.63967L1.56668 8.78109ZM8.72824 8.28592C9.27009 7.6301 10.0901 7.21111 11.0078 7.21111V7.01111C10.0278 7.01111 9.1522 7.45879 8.57406 8.15853L8.72824 8.28592ZM11.008 7.21111C11.6516 7.20999 12.2779 7.41944 12.7913 7.80752L12.9119 7.64797C12.3636 7.23357 11.6949 7.00991 11.0076 7.01111L11.008 7.21111ZM12.7913 7.80752C13.3047 8.19559 13.6771 8.74097 13.8516 9.36045L14.0441 9.30622C13.8577 8.64473 13.4601 8.06236 12.9119 7.64797L12.7913 7.80752ZM13.8515 9.36041C14.0071 9.91339 13.9983 10.4997 13.8263 11.0478L14.0171 11.1077C14.2008 10.5225 14.2102 9.89661 14.0441 9.30625L13.8515 9.36041ZM13.8263 11.0478C13.6543 11.5958 13.3265 12.082 12.8828 12.4469L13.0099 12.6014C13.4835 12.2118 13.8335 11.6928 14.0171 11.1077L13.8263 11.0478ZM12.8828 12.4469C12.4392 12.8118 11.8989 13.0397 11.3279 13.1027L11.3499 13.3015C11.9594 13.2342 12.5362 12.9909 13.0099 12.6014L12.8828 12.4469ZM11.3279 13.1027C10.7569 13.1657 10.18 13.0612 9.6674 12.8019L9.57711 12.9803C10.1243 13.2572 10.7403 13.3688 11.3499 13.3015L11.3279 13.1027ZM9.66762 12.802C9.27298 12.6011 8.92853 12.3142 8.65969 11.9623L8.50077 12.0838C8.7878 12.4594 9.15556 12.7658 9.5769 12.9802L9.66762 12.802ZM8.65969 11.9623C8.39086 11.6105 8.20452 11.2027 8.11445 10.7692L7.91863 10.8098C8.0148 11.2727 8.21374 11.7081 8.50077 12.0838L8.65969 11.9623ZM8.11445 10.7692C8.02438 10.3356 8.03287 9.88738 8.1393 9.45755L7.94517 9.40948C7.83153 9.86839 7.82246 10.347 7.91863 10.8098L8.11445 10.7692ZM8.1393 9.45755C8.24577 9.02759 8.44637 8.6272 8.72825 8.2859L8.57404 8.15854C8.2729 8.52318 8.05877 8.95072 7.94517 9.40948L8.1393 9.45755ZM9.1619 9.2905C9.04684 9.5332 8.98071 9.79618 8.96728 10.0644L9.16703 10.0744C9.17914 9.83241 9.23881 9.59514 9.34262 9.37617L9.1619 9.2905ZM8.96728 10.0644C8.95386 10.3327 8.9934 10.601 9.08366 10.854L9.27203 10.7867C9.1906 10.5585 9.15492 10.3165 9.16703 10.0744L8.96728 10.0644ZM9.08366 10.854C9.26594 11.3649 9.64371 11.7824 10.1339 12.0148L10.2195 11.8341C9.77731 11.6244 9.43648 11.2477 9.27203 10.7867L9.08366 10.854ZM10.1339 12.0148C10.624 12.2472 11.1864 12.2753 11.6973 12.093L11.6301 11.9047C11.1692 12.0691 10.6618 12.0437 10.2195 11.8341L10.1339 12.0148ZM11.6973 12.093C12.2082 11.9108 12.6258 11.533 12.8582 11.0428L12.6775 10.9572C12.4678 11.3994 12.0911 11.7402 11.6301 11.9047L11.6973 12.093ZM12.8582 11.0428C13.0905 10.5525 13.1186 9.98999 12.9362 9.47898L12.7479 9.54621C12.9124 10.0073 12.8871 10.5148 12.6774 10.9572L12.8582 11.0428ZM12.9362 9.47898C12.7539 8.96797 12.3759 8.55034 11.8856 8.31797L11.8 8.4987C12.2424 8.70835 12.5833 9.08515 12.7479 9.54621L12.9362 9.47898ZM11.8856 8.31797C11.3953 8.0856 10.8328 8.05751 10.3218 8.2399L10.389 8.42826C10.8501 8.26371 11.3576 8.28904 11.8 8.4987L11.8856 8.31797ZM10.3218 8.2399C9.81078 8.42229 9.39315 8.8002 9.16078 9.29051L9.34151 9.37616C9.55117 8.93379 9.92797 8.59282 10.389 8.42826L10.3218 8.2399ZM17.4119 14.6003C17.193 14.2072 16.8851 13.8709 16.5128 13.6184L16.4006 13.7839C16.747 14.0189 17.0335 14.3318 17.2371 14.6975L17.4119 14.6003ZM16.4724 13.7999C18.7265 13.4419 19.9967 11.904 19.9967 10.4444H19.7967C19.7967 11.7827 18.6225 13.2559 16.441 13.6023L16.4724 13.7999ZM19.9967 10.4444V9.88889H19.7967V10.4444H19.9967ZM19.9967 9.88889C19.9967 9.71503 19.9276 9.54828 19.8047 9.42534L19.6633 9.56676C19.7487 9.6522 19.7967 9.76807 19.7967 9.88889H19.9967ZM19.8047 9.42534C19.6818 9.3024 19.515 9.23333 19.3411 9.23333V9.43333C19.462 9.43333 19.5778 9.48133 19.6633 9.56676L19.8047 9.42534ZM19.3411 9.23333H15.0911V9.43333H19.3411V9.23333ZM15.1892 9.31357C15.1092 8.91663 14.9723 8.53331 14.7829 8.17544L14.6061 8.26901C14.7866 8.60988 14.9169 8.97501 14.9931 9.35309L15.1892 9.31357ZM14.6945 8.32222H19.3411V8.12222H14.6945V8.32222ZM19.3411 8.32222C19.7567 8.32222 20.1551 8.48728 20.4489 8.78109L20.5904 8.63967C20.2591 8.30835 19.8097 8.12222 19.3411 8.12222V8.32222ZM20.4489 8.78109C20.7428 9.0749 20.9078 9.47338 20.9078 9.88889H21.1078C21.1078 9.42034 20.9217 8.97098 20.5904 8.63967L20.4489 8.78109ZM20.9078 9.88889V10.4444H21.1078V9.88889H20.9078ZM20.9078 10.4444C20.9078 12.1556 19.6053 13.9267 17.2983 14.5524L17.3507 14.7454C19.7304 14.1 21.1078 12.26 21.1078 10.4444H20.9078ZM16.0592 14.6703C15.7374 14.3888 15.3243 14.2335 14.8967 14.2333L14.8967 14.4333C15.2759 14.4335 15.6421 14.5712 15.9275 14.8208L16.0592 14.6703ZM14.8967 14.2333H7.11892V14.4333H14.8967V14.2333ZM7.11919 14.2333C6.88698 14.2327 6.65694 14.278 6.44228 14.3666L6.51857 14.5514C6.70886 14.4729 6.9128 14.4328 7.11866 14.4333L7.11919 14.2333ZM6.44228 14.3666C6.22763 14.4551 6.03259 14.5853 5.86839 14.7495L6.00982 14.8909C6.15538 14.7453 6.32828 14.63 6.51857 14.5514L6.44228 14.3666ZM5.86839 14.7495C5.7042 14.9137 5.57407 15.1087 5.48549 15.3234L5.67037 15.3996C5.74889 15.2094 5.86425 15.0365 6.00982 14.8909L5.86839 14.7495ZM5.48549 15.3234C5.39691 15.538 5.35164 15.7681 5.35226 16.0003L5.55226 15.9997C5.55171 15.7939 5.59185 15.5899 5.67037 15.3996L5.48549 15.3234ZM5.35226 16V16.5556H5.55226V16H5.35226ZM5.35226 16.5556C5.35226 18.8125 7.47622 21.1 11.0078 21.1V20.9C7.56163 20.9 5.55226 18.6786 5.55226 16.5556H5.35226ZM11.0078 21.1C14.5394 21.1 16.6634 18.8125 16.6634 16.5556H16.4634C16.4634 18.6786 14.454 20.9 11.0078 20.9V21.1ZM16.6634 16.5556V16H16.4634V16.5556H16.6634ZM16.6634 16C16.6634 15.47 16.43 14.9941 16.0593 14.6692L15.9275 14.8197C16.2567 15.1082 16.4634 15.53 16.4634 16H16.6634ZM6.66337 16C6.66337 15.8792 6.71136 15.7633 6.7968 15.6779L6.65538 15.5365C6.53244 15.6594 6.46337 15.8261 6.46337 16H6.66337ZM6.7968 15.6779C6.88223 15.5924 6.9981 15.5444 7.11892 15.5444V15.3444C6.94506 15.3444 6.77832 15.4135 6.65538 15.5365L6.7968 15.6779ZM7.11892 15.5444H14.8967V15.3444H7.11892V15.5444ZM14.8967 15.5444C15.0175 15.5444 15.1334 15.5924 15.2188 15.6779L15.3603 15.5365C15.2373 15.4135 15.0706 15.3444 14.8967 15.3444V15.5444ZM15.2188 15.6779C15.3043 15.7633 15.3523 15.8792 15.3523 16H15.5523C15.5523 15.8261 15.4832 15.6594 15.3603 15.5365L15.2188 15.6779ZM15.3523 16V16.5556H15.5523V16H15.3523ZM15.3523 16.5556C15.3523 18.0825 13.823 19.7889 11.0078 19.7889V19.9889C13.8993 19.9889 15.5523 18.2242 15.5523 16.5556H15.3523ZM11.0078 19.7889C8.19264 19.7889 6.66337 18.0825 6.66337 16.5556H6.46337C6.46337 18.2242 8.11631 19.9889 11.0078 19.9889V19.7889ZM6.66337 16.5556V16H6.46337V16.5556H6.66337ZM15.4523 1.1C16.2361 1.1 16.9879 1.41139 17.5422 1.96566L17.6836 1.82424C17.0918 1.23246 16.2892 0.9 15.4523 0.9V1.1ZM17.5422 1.96566C18.0964 2.51994 18.4078 3.27169 18.4078 4.05556H18.6078C18.6078 3.21865 18.2754 2.41602 17.6836 1.82424L17.5422 1.96566ZM18.4078 4.05556C18.4078 4.83942 18.0964 5.59118 17.5422 6.14545L17.6836 6.28687C18.2754 5.69509 18.6078 4.89246 18.6078 4.05556H18.4078ZM17.5422 6.14545C16.9879 6.69972 16.2361 7.01111 15.4523 7.01111V7.21111C16.2892 7.21111 17.0918 6.87865 17.6836 6.28687L17.5422 6.14545ZM15.4523 7.01111C14.6684 7.01111 13.9166 6.69972 13.3624 6.14545L13.2209 6.28687C13.8127 6.87865 14.6154 7.21111 15.4523 7.21111V7.01111ZM13.3624 6.14545C12.8081 5.59118 12.4967 4.83942 12.4967 4.05556H12.2967C12.2967 4.89246 12.6292 5.69509 13.2209 6.28687L13.3624 6.14545ZM12.4967 4.05556C12.4967 3.27169 12.8081 2.51994 13.3624 1.96566L13.2209 1.82424C12.6292 2.41602 12.2967 3.21865 12.2967 4.05556H12.4967ZM13.3624 1.96566C13.9166 1.41139 14.6684 1.1 15.4523 1.1V0.9C14.6154 0.9 13.8127 1.23246 13.2209 1.82424L13.3624 1.96566ZM15.4523 2.01111C14.91 2.01111 14.39 2.22651 14.0066 2.60992L14.148 2.75134C14.4939 2.40544 14.9631 2.21111 15.4523 2.21111V2.01111ZM14.0066 2.60992C13.6232 2.99332 13.4078 3.51334 13.4078 4.05556L13.6078 4.05556C13.6078 3.56638 13.8021 3.09724 14.148 2.75134L14.0066 2.60992ZM13.4078 4.05556C13.4078 4.59778 13.6232 5.11779 14.0066 5.5012L14.148 5.35978C13.8021 5.01387 13.6078 4.54473 13.6078 4.05556L13.4078 4.05556ZM14.0066 5.5012C14.39 5.8846 14.91 6.1 15.4523 6.1V5.9C14.9631 5.9 14.4939 5.70568 14.148 5.35978L14.0066 5.5012ZM15.4523 6.1C15.9945 6.1 16.5145 5.8846 16.8979 5.5012L16.7565 5.35978C16.4106 5.70568 15.9414 5.9 15.4523 5.9V6.1ZM16.8979 5.5012C17.2813 5.11779 17.4967 4.59778 17.4967 4.05556L17.2967 4.05556C17.2967 4.54473 17.1024 5.01387 16.7565 5.35978L16.8979 5.5012ZM17.4967 4.05556C17.4967 3.51334 17.2813 2.99332 16.8979 2.60992L16.7565 2.75134C17.1024 3.09724 17.2967 3.56638 17.2967 4.05556L17.4967 4.05556ZM16.8979 2.60992C16.5145 2.22651 15.9945 2.01111 15.4523 2.01111V2.21111C15.9414 2.21111 16.4106 2.40544 16.7565 2.75134L16.8979 2.60992Z" fill="#260B6A" mask="url(#path-1-outside-1_386_77352)"/>
</svg>
