<svg width="18" height="22" viewBox="0 0 18 22" fill="none" xmlns="http://www.w3.org/2000/svg">
<path d="M11.0078 1H3.00781C2.47738 1 1.96867 1.21071 1.5936 1.58579C1.21853 1.96086 1.00781 2.46957 1.00781 3V19C1.00781 19.5304 1.21853 20.0391 1.5936 20.4142C1.96867 20.7893 2.47738 21 3.00781 21H15.0078C15.5382 21 16.047 20.7893 16.422 20.4142C16.7971 20.0391 17.0078 19.5304 17.0078 19V7L11.0078 1Z" stroke="#260B6A" stroke-width="1.5" stroke-linecap="round" stroke-linejoin="round"/>
<path d="M11.0078 1V7H17.0078" stroke="#260B6A" stroke-width="1.5" stroke-linecap="round" stroke-linejoin="round"/>
<path d="M13.0078 12H5.00781" stroke="#260B6A" stroke-width="1.5" stroke-linecap="round" stroke-linejoin="round"/>
<path d="M13.0078 16H5.00781" stroke="#260B6A" stroke-width="1.5" stroke-linecap="round" stroke-linejoin="round"/>
<path d="M7.00781 8H6.00781H5.00781" stroke="#260B6A" stroke-width="1.5" stroke-linecap="round" stroke-linejoin="round"/>
</svg>
