<svg width="23" height="20" viewBox="0 0 23 20" fill="none" xmlns="http://www.w3.org/2000/svg">
<path d="M16.5609 8.80512C16.5609 8.45912 16.5609 8.28612 16.6129 8.13212C16.7639 7.68412 17.1629 7.51112 17.5629 7.32912C18.0109 7.12412 18.2349 7.02212 18.4579 7.00412C18.7099 6.98412 18.9629 7.03812 19.1789 7.15912C19.4649 7.31912 19.6649 7.62512 19.8689 7.87312C20.8119 9.01912 21.2839 9.59212 21.4559 10.2231C21.5959 10.7331 21.5959 11.2671 21.4559 11.7761C21.2049 12.6981 20.4099 13.4701 19.8209 14.1861C19.5199 14.5511 19.3689 14.7341 19.1789 14.8411C18.9592 14.963 18.7083 15.0169 18.4579 14.9961C18.2349 14.9781 18.0109 14.8761 17.5619 14.6711C17.1619 14.4891 16.7639 14.3161 16.6129 13.8681C16.5609 13.7141 16.5609 13.5411 16.5609 13.1951V8.80512ZM6.56094 8.80512C6.56094 8.36912 6.54894 7.97812 6.19694 7.67212C6.06894 7.56112 5.89894 7.48412 5.55994 7.32912C5.11094 7.12512 4.88694 7.02212 4.66394 7.00412C3.99694 6.95012 3.63794 7.40612 3.25394 7.87412C2.30994 9.01912 1.83794 9.59212 1.66494 10.2241C1.52575 10.7324 1.52575 11.2688 1.66494 11.7771C1.91694 12.6981 2.71294 13.4711 3.30094 14.1861C3.67194 14.6361 4.02694 15.0471 4.66394 14.9961C4.88694 14.9781 5.11094 14.8761 5.55994 14.6711C5.89994 14.5171 6.06894 14.4391 6.19694 14.3281C6.54894 14.0221 6.56094 13.6311 6.56094 13.1961V8.80512Z" stroke="#260B6A" stroke-width="1.5" stroke-linecap="round" stroke-linejoin="round"/>
<path d="M4.56055 7C4.56055 3.686 7.69455 1 11.5605 1C15.4265 1 18.5605 3.686 18.5605 7M18.5605 15V15.8C18.5605 17.567 16.7705 19 14.5605 19H12.5605" stroke="#260B6A" stroke-width="1.5" stroke-linecap="round" stroke-linejoin="round"/>
</svg>
