<svg width="7" height="6" viewBox="0 0 7 6" fill="none" xmlns="http://www.w3.org/2000/svg">
<path d="M0.613657 5.14249H6.01381C6.06848 5.14232 6.12208 5.12724 6.16882 5.09888C6.21556 5.07051 6.25368 5.02994 6.27908 4.98152C6.30447 4.93311 6.31619 4.87868 6.31295 4.8241C6.30972 4.76952 6.29166 4.71686 6.26072 4.67178L3.56064 0.771669C3.44874 0.609964 3.17933 0.609964 3.06713 0.771669L0.36705 4.67178C0.335797 4.71676 0.317469 4.76945 0.314058 4.82412C0.310647 4.87879 0.322284 4.93335 0.347704 4.98187C0.373124 5.03039 0.411354 5.07102 0.458242 5.09934C0.50513 5.12765 0.558882 5.14258 0.613657 5.14249Z" fill="#26212E"/>
</svg>
