<svg width="7" height="6" viewBox="0 0 7 6" fill="none" xmlns="http://www.w3.org/2000/svg">
<path d="M0.613657 0.642663H6.01381C6.06848 0.642834 6.12208 0.657914 6.16882 0.686278C6.21556 0.714642 6.25368 0.755216 6.27908 0.803633C6.30447 0.852051 6.31619 0.906478 6.31295 0.961057C6.30972 1.01564 6.29166 1.0683 6.26072 1.11338L3.56064 5.01349C3.44874 5.17519 3.17933 5.17519 3.06713 5.01349L0.36705 1.11338C0.335797 1.06839 0.317469 1.0157 0.314058 0.961033C0.310647 0.906364 0.322284 0.851806 0.347704 0.803286C0.373124 0.754765 0.411354 0.714139 0.458242 0.685821C0.50513 0.657503 0.558882 0.642577 0.613657 0.642663Z" fill="#26212E"/>
</svg>
