<svg width="48" height="49" viewBox="0 0 48 49" fill="none" xmlns="http://www.w3.org/2000/svg">
<path d="M12.5907 42.4863C11.6065 42.4863 10.7604 42.1292 10.0522 41.4149C9.34407 40.7006 8.98999 39.847 8.98999 38.8544V8.14421C8.98999 7.15151 9.34407 6.29368 10.0522 5.57072C10.7604 4.84779 11.6065 4.48633 12.5907 4.48633H27.5288C28.0123 4.48633 28.484 4.58865 28.9438 4.79328C29.4036 4.99795 29.7975 5.26573 30.1255 5.59663L38.2893 13.8313C38.6173 14.1622 38.8828 14.5596 39.0857 15.0234C39.2886 15.4872 39.39 15.9629 39.39 16.4507V38.8544C39.39 39.847 39.0316 40.7006 38.3149 41.4149C37.5982 42.1292 36.7478 42.4863 35.7636 42.4863H12.5907ZM27.1731 14.8559C27.1731 15.3742 27.3447 15.8065 27.6879 16.1527C28.0311 16.4988 28.4596 16.6719 28.9734 16.6719H35.7636L27.1731 8.14421V14.8559Z" fill="white"/>
</svg>
