<svg width="36" height="41" viewBox="0 0 36 41" fill="none" xmlns="http://www.w3.org/2000/svg">
<path d="M16.9474 0.627159C16.5116 0.743378 14.5816 1.77145 9.12049 4.80205C3.01014 8.19918 1.80053 8.90542 1.33803 9.33453C0.0928328 10.4967 -0.334091 12.2847 0.244035 13.8581C0.457497 14.4392 0.902209 15.1543 1.26687 15.503C1.40029 15.6282 4.7712 18.033 8.74693 20.8311C13.3808 24.1031 16.1558 26.0073 16.4849 26.1414C16.9118 26.3112 17.1609 26.347 18.0147 26.347C18.913 26.347 19.0998 26.3202 19.5712 26.1235C20.2027 25.8553 34.2022 16.0036 34.7982 15.4136C35.5897 14.618 35.99 13.6167 35.99 12.4277C35.99 11.1314 35.5364 10.0944 34.6025 9.25407C33.9265 8.63723 19.9003 0.841715 19.082 0.627159C18.3527 0.439423 17.6856 0.439423 16.9474 0.627159Z" fill="white"/>
<path d="M1.07118 19.7226C0.235125 20.0891 -0.0405962 21.2692 0.564212 21.9218C0.928876 22.3151 15.7289 32.7211 16.2981 32.9803C17.4099 33.4988 18.833 33.4541 19.9181 32.873C20.2205 32.7211 23.8227 30.2179 27.9318 27.3125C34.7092 22.5297 35.4207 22.0022 35.6075 21.6447C36.1145 20.6881 35.4118 19.5974 34.3001 19.5974C33.8731 19.5974 34.2556 19.3382 25.2902 25.6676C21.7147 28.1975 18.6195 30.3341 18.4061 30.4057C18.1126 30.5129 17.9525 30.5219 17.6856 30.4504C17.4811 30.3967 14.4659 28.3227 9.8498 25.0597C5.73177 22.1542 2.25412 19.7315 2.1296 19.6868C1.8183 19.5617 1.39138 19.5796 1.07118 19.7226Z" fill="white"/>
<path d="M0.928844 26.9549C0.768747 27.0621 0.537497 27.2946 0.421872 27.4644C0.146151 27.8757 0.181728 28.573 0.50192 28.9752C0.768748 29.3239 15.462 39.703 16.1914 40.0695C17.2498 40.597 18.4861 40.6238 19.6512 40.15C19.9714 40.0159 23.0044 37.9329 27.7983 34.5358C34.8871 29.5385 35.4563 29.1183 35.6342 28.7518C35.8832 28.2243 35.8121 27.67 35.4385 27.2499C35.1005 26.8565 34.7448 26.7135 34.22 26.7671C33.8375 26.8029 33.5707 26.9727 31.7118 28.2869C20.8075 35.9841 18.7262 37.4412 18.406 37.5575C18.1036 37.6647 17.9702 37.6737 17.6856 37.5843C17.4721 37.5217 14.4837 35.4745 10.2233 32.4618C6.31875 29.6994 2.87668 27.2856 2.59207 27.0979C1.95168 26.6688 1.40913 26.6241 0.928844 26.9549Z" fill="white"/>
</svg>
