<svg width="22" height="25" viewBox="0 0 22 25" fill="none" xmlns="http://www.w3.org/2000/svg">
<path d="M1.09961 6.12109H3.29961H20.8996" stroke="#FF0000" stroke-width="1.5" stroke-linecap="round" stroke-linejoin="round"/>
<path d="M18.6998 6.1207V21.5207C18.6998 22.1042 18.468 22.6638 18.0554 23.0763C17.6429 23.4889 17.0833 23.7207 16.4998 23.7207H5.4998C4.91633 23.7207 4.35675 23.4889 3.94417 23.0763C3.53159 22.6638 3.2998 22.1042 3.2998 21.5207V6.1207M6.59981 6.1207V3.9207C6.59981 3.33723 6.83159 2.77765 7.24417 2.36507C7.65675 1.95249 8.21633 1.7207 8.79981 1.7207H13.1998C13.7833 1.7207 14.3429 1.95249 14.7554 2.36507C15.168 2.77765 15.3998 3.33723 15.3998 3.9207V6.1207" stroke="#FF0000" stroke-width="1.5" stroke-linecap="round" stroke-linejoin="round"/>
<path d="M8.7998 11.6211V18.2211" stroke="#FF0000" stroke-width="1.5" stroke-linecap="round" stroke-linejoin="round"/>
<path d="M13.2002 11.6211V18.2211" stroke="#FF0000" stroke-width="1.5" stroke-linecap="round" stroke-linejoin="round"/>
</svg>
