<svg width="16" height="18" viewBox="0 0 16 18" fill="none" xmlns="http://www.w3.org/2000/svg">
<path d="M0.820801 4.36523H2.4208H15.2208" stroke="#E1DCFF" stroke-width="1.5" stroke-linecap="round" stroke-linejoin="round"/>
<path d="M13.6209 4.36602V15.566C13.6209 15.9904 13.4523 16.3973 13.1523 16.6974C12.8522 16.9974 12.4452 17.166 12.0209 17.166H4.0209C3.59655 17.166 3.18959 16.9974 2.88953 16.6974C2.58947 16.3973 2.4209 15.9904 2.4209 15.566V4.36602M4.8209 4.36602V2.76602C4.8209 2.34167 4.98947 1.9347 5.28953 1.63464C5.58959 1.33459 5.99655 1.16602 6.4209 1.16602H9.6209C10.0452 1.16602 10.4522 1.33459 10.7523 1.63464C11.0523 1.9347 11.2209 2.34167 11.2209 2.76602V4.36602" stroke="#E1DCFF" stroke-width="1.5" stroke-linecap="round" stroke-linejoin="round"/>
<path d="M6.4209 8.36523V13.1652" stroke="#E1DCFF" stroke-width="1.5" stroke-linecap="round" stroke-linejoin="round"/>
<path d="M9.62085 8.36523V13.1652" stroke="#E1DCFF" stroke-width="1.5" stroke-linecap="round" stroke-linejoin="round"/>
</svg>
