<svg width="14" height="15" viewBox="0 0 14 15" fill="none" xmlns="http://www.w3.org/2000/svg">
<path d="M0.800781 3.75781H2.13411H12.8008" stroke="#26212E" stroke-linecap="round" stroke-linejoin="round"/>
<path d="M11.4671 3.75846V13.0918C11.4671 13.4454 11.3266 13.7846 11.0766 14.0346C10.8265 14.2847 10.4874 14.4251 10.1338 14.4251H3.46712C3.1135 14.4251 2.77436 14.2847 2.52431 14.0346C2.27426 13.7846 2.13379 13.4454 2.13379 13.0918V3.75846M4.13379 3.75846V2.42513C4.13379 2.07151 4.27427 1.73237 4.52431 1.48232C4.77436 1.23227 5.1135 1.0918 5.46712 1.0918H8.13379C8.48741 1.0918 8.82655 1.23227 9.0766 1.48232C9.32665 1.73237 9.46712 2.07151 9.46712 2.42513V3.75846" stroke="#26212E" stroke-linecap="round" stroke-linejoin="round"/>
<path d="M5.46777 7.0918V11.0918" stroke="#26212E" stroke-linecap="round" stroke-linejoin="round"/>
<path d="M8.13379 7.0918V11.0918" stroke="#26212E" stroke-linecap="round" stroke-linejoin="round"/>
</svg>
