<svg width="18" height="18" viewBox="0 0 18 18" fill="none" xmlns="http://www.w3.org/2000/svg">
<path d="M10.2678 15.5469C10.14 15.7673 9.95644 15.9503 9.73563 16.0774C9.51482 16.2046 9.26447 16.2716 9.00965 16.2716C8.75483 16.2716 8.50448 16.2046 8.28366 16.0774C8.06285 15.9503 7.87933 15.7673 7.75146 15.5469" stroke="#26212E" stroke-width="1.2" stroke-linecap="round" stroke-linejoin="round"/>
<path d="M13.8314 9.72621C13.5079 8.54178 13.3536 7.31751 13.3732 6.08984" stroke="#26212E" stroke-width="1.2" stroke-linecap="round" stroke-linejoin="round"/>
<path d="M4.83526 4.82812C4.70891 5.23802 4.64516 5.66465 4.64617 6.09358C4.64617 11.1845 2.46436 12.639 2.46436 12.639H12.6462" stroke="#26212E" stroke-width="1.2" stroke-linecap="round" stroke-linejoin="round"/>
<path d="M13.3733 6.09277C13.3745 5.30227 13.1609 4.5263 12.7554 3.84774C12.3499 3.16919 11.7676 2.61354 11.0709 2.24014C10.3741 1.86675 9.58904 1.68964 8.79945 1.72773C8.00987 1.76582 7.24547 2.01768 6.58789 2.4564" stroke="#26212E" stroke-width="1.2" stroke-linecap="round" stroke-linejoin="round"/>
<path d="M1.00977 1L17.0098 17" stroke="#26212E" stroke-width="1.2" stroke-linecap="round" stroke-linejoin="round"/>
</svg>
