<svg width="20" height="21" viewBox="0 0 20 21" fill="none" xmlns="http://www.w3.org/2000/svg">
<path d="M9.05117 3.63281H2.78915C2.31464 3.63281 1.85956 3.82131 1.52403 4.15684C1.1885 4.49237 1 4.94745 1 5.42196V17.946C1 18.4205 1.1885 18.8756 1.52403 19.2111C1.85956 19.5466 2.31464 19.7351 2.78915 19.7351H15.3132C15.7877 19.7351 16.2428 19.5466 16.5783 19.2111C16.9138 18.8756 17.1023 18.4205 17.1023 17.946V11.684" stroke="#9F9F9F" stroke-width="1.5" stroke-linecap="round" stroke-linejoin="round"/>
<path d="M15.7602 2.29019C16.1161 1.93431 16.5988 1.73437 17.1021 1.73438C17.6054 1.73438 18.0881 1.93431 18.4439 2.29019C18.7998 2.64608 18.9998 3.12876 18.9998 3.63205C18.9998 4.13535 18.7998 4.61803 18.4439 4.97391L9.94548 13.4724L6.36719 14.3669L7.26176 10.7886L15.7602 2.29019Z" stroke="#9F9F9F" stroke-width="1.5" stroke-linecap="round" stroke-linejoin="round"/>
</svg>
