<svg width="14" height="14" viewBox="0 0 14 14" fill="none" xmlns="http://www.w3.org/2000/svg">
<path d="M6.1683 2.02344H1.99356C1.67722 2.02344 1.37383 2.14911 1.15014 2.3728C0.926449 2.59649 0.800781 2.89987 0.800781 3.21622V11.5657C0.800781 11.882 0.926449 12.1854 1.15014 12.4091C1.37383 12.6328 1.67722 12.7585 1.99356 12.7585H10.343C10.6594 12.7585 10.9628 12.6328 11.1865 12.4091C11.4102 12.1854 11.5358 11.882 11.5358 11.5657V7.39096" stroke="#26212E" stroke-linecap="round" stroke-linejoin="round"/>
<path d="M10.7973 1.12836C11.0345 0.891103 11.3563 0.757812 11.6918 0.757812C12.0274 0.757813 12.3492 0.891103 12.5864 1.12836C12.8237 1.36562 12.957 1.68741 12.957 2.02295C12.957 2.35848 12.8237 2.68028 12.5864 2.91754L6.92072 8.58325L4.53516 9.17964L5.13155 6.79408L10.7973 1.12836Z" stroke="#26212E" stroke-linecap="round" stroke-linejoin="round"/>
</svg>
