<svg width="19" height="18" viewBox="0 0 19 18" fill="none" xmlns="http://www.w3.org/2000/svg">
<path d="M8.76645 2.67773H3.20021C2.77843 2.67773 2.37392 2.84529 2.07567 3.14354C1.77742 3.44179 1.60986 3.8463 1.60986 4.26809V15.4005C1.60986 15.8223 1.77742 16.2268 2.07567 16.5251C2.37392 16.8233 2.77843 16.9909 3.20021 16.9909H14.3327C14.7545 16.9909 15.159 16.8233 15.4572 16.5251C15.7555 16.2268 15.923 15.8223 15.923 15.4005V9.83432" stroke="#FF845C" stroke-width="1.5" stroke-linecap="round" stroke-linejoin="round"/>
<path d="M14.7302 1.48429C15.0465 1.16795 15.4756 0.990234 15.923 0.990234C16.3703 0.990234 16.7994 1.16795 17.1157 1.48429C17.4321 1.80063 17.6098 2.22968 17.6098 2.67706C17.6098 3.12443 17.4321 3.55348 17.1157 3.86982L9.56156 11.424L6.38086 12.2192L7.17604 9.03846L14.7302 1.48429Z" stroke="#FF845C" stroke-width="1.5" stroke-linecap="round" stroke-linejoin="round"/>
</svg>
