<svg width="18" height="19" viewBox="0 0 18 19" fill="none" xmlns="http://www.w3.org/2000/svg">
<path d="M3.618 0.507444C2.3724 0.784643 1.4112 1.75664 1.134 3.02024C1.0476 3.40544 1.0764 4.20464 1.1844 4.58264C1.3896 5.28824 1.872 5.96144 2.4552 6.35744L2.6712 6.50504L2.4084 6.63824C1.2024 7.23224 0.3384 8.34824 0.0756 9.65504C0.0036 10.0006 0 10.141 0 12.3406V14.659L0.0936 14.7562L0.1908 14.8498H2.4336H4.68V16.3762V17.899L4.7736 17.9962L4.8708 18.0898H9H13.1292L13.2264 17.9962L13.32 17.899V16.3762V14.8498H15.5664H17.8092L17.9064 14.7562L18 14.659V12.3658C18 10.4614 17.9892 10.0186 17.946 9.75224C17.7948 8.89904 17.3844 8.11424 16.758 7.48424C16.3836 7.10624 16.0776 6.87944 15.6456 6.66344L15.336 6.50864L15.5376 6.37184C15.9732 6.07304 16.3584 5.61224 16.614 5.09384C16.848 4.62584 16.902 4.35944 16.902 3.68984C16.902 3.17864 16.8912 3.05624 16.8192 2.81144C16.5024 1.71704 15.6528 0.867445 14.5584 0.550644C14.3136 0.478643 14.1912 0.467844 13.68 0.467844C13.1652 0.467844 13.0464 0.478643 12.798 0.550644C11.4156 0.950245 10.4436 2.21024 10.4364 3.60704C10.4364 3.81224 10.4256 3.97784 10.4148 3.97784C10.4004 3.97784 10.2924 3.93824 10.1736 3.89144C9.4572 3.60704 8.316 3.62864 7.7004 3.94544L7.56 4.01384V3.62144C7.56 2.21744 6.5988 0.957443 5.22 0.557844C4.8564 0.449844 3.9924 0.424644 3.618 0.507444ZM4.9464 1.27784C5.3928 1.39304 5.6952 1.56944 6.0696 1.94024C6.6204 2.49104 6.8292 3.03104 6.7932 3.80864C6.7716 4.31624 6.678 4.62224 6.4764 4.86704C6.3972 4.96064 6.2856 5.12264 6.2244 5.22704C5.904 5.78504 5.1264 6.17384 4.338 6.17744C3.6144 6.17744 3.096 5.96144 2.5704 5.43944C2.3004 5.16944 2.2176 5.05784 2.0952 4.80584C1.9044 4.41344 1.836 4.11824 1.836 3.68984C1.836 3.26144 1.9044 2.96624 2.0952 2.57384C2.214 2.32544 2.3004 2.21024 2.5704 1.94024C3.0852 1.42544 3.5856 1.21304 4.3056 1.20944C4.5576 1.20584 4.752 1.22744 4.9464 1.27784ZM14.256 1.26344C14.3856 1.29224 14.6268 1.38224 14.796 1.46504C15.0444 1.58384 15.1596 1.67024 15.4296 1.94024C15.6996 2.21024 15.786 2.32544 15.9048 2.57384C16.0956 2.96624 16.164 3.26144 16.164 3.68984C16.164 4.11824 16.0956 4.41344 15.9048 4.80584C15.7824 5.05784 15.6996 5.16944 15.4296 5.43584C14.9004 5.96144 14.3856 6.17744 13.662 6.17744C12.8736 6.17384 12.096 5.78504 11.7756 5.22704C11.7144 5.12264 11.6028 4.96064 11.5236 4.86704C11.3184 4.61864 11.2248 4.31264 11.2032 3.80864C11.1744 3.02384 11.3796 2.49104 11.9304 1.94024C12.2976 1.57664 12.6036 1.39304 13.0392 1.27784C13.3668 1.19144 13.9284 1.18424 14.256 1.26344ZM9.576 4.50344C9.7056 4.53224 9.9468 4.62224 10.116 4.70504C10.368 4.82744 10.4796 4.91024 10.746 5.18024C11.268 5.70584 11.484 6.21704 11.484 6.92624C11.484 7.36184 11.4156 7.65704 11.2248 8.04584C11.0268 8.44904 10.5552 8.93504 10.1628 9.13664C9.4428 9.51104 8.5644 9.51104 7.8372 9.13664C7.4448 8.93504 6.966 8.44184 6.7752 8.04224C6.5844 7.65344 6.516 7.35824 6.516 6.92624C6.516 6.21704 6.732 5.70224 7.2504 5.18024C7.6176 4.81664 7.9236 4.63304 8.3592 4.51784C8.6868 4.43144 9.2484 4.42424 9.576 4.50344ZM5.0148 7.02344C5.1732 7.05224 5.4 7.11344 5.5188 7.16024L5.742 7.24304L5.8068 7.56344C5.9868 8.43104 6.4296 9.10064 7.1712 9.62624L7.3404 9.74864L7.0308 9.90344C5.5872 10.6414 4.68 12.103 4.68 13.6942V14.1298H2.718H0.7524L0.7632 12.013C0.7776 9.61544 0.7704 9.68024 1.0908 9.00344C1.8 7.51664 3.3912 6.71384 5.0148 7.02344ZM14.094 6.98024C15.2064 7.06664 16.3512 7.88024 16.884 8.96384C17.2296 9.66584 17.2224 9.59384 17.2368 12.013L17.2476 14.1298H15.282H13.32V13.6942C13.32 12.103 12.4128 10.6414 10.9692 9.90344L10.6596 9.74864L10.8648 9.60824C11.5236 9.15104 12.0312 8.36984 12.1896 7.56704C12.2508 7.25744 12.2544 7.24664 12.3804 7.19624C12.7332 7.04864 13.4532 6.91904 13.752 6.95144C13.8024 6.95864 13.9572 6.96944 14.094 6.98024ZM9.414 10.2202C9.9072 10.2598 10.5408 10.4938 11.0196 10.8214C11.3148 11.0194 11.7504 11.455 11.9484 11.7502C12.1428 12.0346 12.3552 12.481 12.4596 12.8338C12.5424 13.1002 12.5424 13.1362 12.5568 15.2386L12.5676 17.3698H9H5.4324L5.4432 15.2386C5.4576 13.1362 5.4576 13.1002 5.5404 12.8338C5.7276 12.211 6.0372 11.689 6.4764 11.2462C6.93 10.7962 7.4772 10.4794 8.0784 10.3138C8.352 10.2382 8.8884 10.1734 9.072 10.1914C9.1224 10.1986 9.2772 10.2094 9.414 10.2202Z" fill="white"/>
</svg>
