<svg width="24" height="24" viewBox="0 0 24 24" fill="none" xmlns="http://www.w3.org/2000/svg">
<g clip-path="url(#clip0_1305_20945)">
<path d="M21.0168 9.93513C19.776 7.91433 16.9536 4.52393 12 4.52393C7.04644 4.52393 4.22404 7.91433 2.98324 9.93513C2.59966 10.5555 2.39648 11.2705 2.39648 11.9999C2.39648 12.7293 2.59966 13.4443 2.98324 14.0647C4.22404 16.0855 7.04644 19.4759 12 19.4759C16.9536 19.4759 19.776 16.0855 21.0168 14.0647C21.4004 13.4443 21.6036 12.7293 21.6036 11.9999C21.6036 11.2705 21.4004 10.5555 21.0168 9.93513ZM19.6528 13.2271C18.5872 14.9599 16.1752 17.8759 12 17.8759C7.82484 17.8759 5.41284 14.9599 4.34724 13.2271C4.11935 12.8584 3.99864 12.4334 3.99864 11.9999C3.99864 11.5664 4.11935 11.1415 4.34724 10.7727C5.41284 9.03993 7.82484 6.12393 12 6.12393C16.1752 6.12393 18.5872 9.03673 19.6528 10.7727C19.8807 11.1415 20.0014 11.5664 20.0014 11.9999C20.0014 12.4334 19.8807 12.8584 19.6528 13.2271Z" fill="#1C1C1C"/>
<path d="M12 8C11.2089 8 10.4355 8.2346 9.77772 8.67412C9.11992 9.11365 8.60723 9.73836 8.30448 10.4693C8.00173 11.2002 7.92252 12.0044 8.07686 12.7804C8.2312 13.5563 8.61216 14.269 9.17157 14.8284C9.73098 15.3878 10.4437 15.7688 11.2196 15.9231C11.9956 16.0775 12.7998 15.9983 13.5307 15.6955C14.2616 15.3928 14.8864 14.8801 15.3259 14.2223C15.7654 13.5645 16 12.7911 16 12C15.9987 10.9395 15.5769 9.92285 14.827 9.17298C14.0772 8.42311 13.0605 8.00127 12 8ZM12 14.4C11.5253 14.4 11.0613 14.2592 10.6666 13.9955C10.272 13.7318 9.96434 13.357 9.78269 12.9184C9.60104 12.4799 9.55351 11.9973 9.64612 11.5318C9.73872 11.0662 9.9673 10.6386 10.3029 10.3029C10.6386 9.9673 11.0662 9.73872 11.5318 9.64612C11.9973 9.55351 12.4799 9.60104 12.9184 9.78269C13.357 9.96434 13.7318 10.272 13.9955 10.6666C14.2592 11.0613 14.4 11.5253 14.4 12C14.4 12.6365 14.1471 13.247 13.6971 13.6971C13.247 14.1471 12.6365 14.4 12 14.4Z" fill="#1C1C1C"/>
</g>
<defs>
<clipPath id="clip0_1305_20945">
<rect width="19.2" height="19.2" fill="white" transform="translate(2.40039 2.3999)"/>
</clipPath>
</defs>
</svg>
