<svg width="24" height="24" viewBox="0 0 24 24" fill="none" xmlns="http://www.w3.org/2000/svg">
<g clip-path="url(#clip0_1305_20962)">
<path d="M21.3923 9.84928C20.64 8.61739 19.6911 7.517 18.5831 6.59178L20.9165 4.25845C21.0683 4.10128 21.1523 3.89078 21.1504 3.67228C21.1485 3.45379 21.0608 3.24478 20.9063 3.09027C20.7518 2.93576 20.5428 2.84812 20.3243 2.84622C20.1058 2.84432 19.8953 2.92832 19.7381 3.08012L17.2006 5.62095C15.6276 4.68664 13.8293 4.19967 11.9998 4.21262C6.84063 4.21262 3.90063 7.74428 2.6073 9.84928C2.20774 10.4955 1.99609 11.2403 1.99609 12.0001C1.99609 12.7599 2.20774 13.5047 2.6073 14.151C3.3596 15.3828 4.30854 16.4832 5.41646 17.4085L3.08313 19.7418C3.00354 19.8187 2.94005 19.9106 2.89638 20.0123C2.85271 20.114 2.82972 20.2233 2.82876 20.334C2.82779 20.4446 2.84888 20.5543 2.89078 20.6567C2.93268 20.7592 2.99456 20.8522 3.0728 20.9304C3.15105 21.0087 3.24409 21.0706 3.3465 21.1125C3.44892 21.1544 3.55865 21.1755 3.6693 21.1745C3.77995 21.1735 3.8893 21.1505 3.99097 21.1069C4.09264 21.0632 4.18459 20.9997 4.26147 20.9201L6.8048 18.3768C8.37585 19.311 10.172 19.7987 11.9998 19.7876C17.159 19.7876 20.099 16.256 21.3923 14.151C21.7919 13.5047 22.0035 12.7599 22.0035 12.0001C22.0035 11.2403 21.7919 10.4955 21.3923 9.84928ZM4.0273 13.2785C3.78991 12.8943 3.66417 12.4517 3.66417 12.0001C3.66417 11.5486 3.78991 11.1059 4.0273 10.7218C5.13897 8.91678 7.65147 5.87928 11.9998 5.87928C13.3834 5.87153 14.7475 6.20498 15.9715 6.85012L14.294 8.52762C13.4939 7.99645 12.5347 7.75845 11.5792 7.85399C10.6236 7.94953 9.73052 8.37273 9.05147 9.05179C8.37241 9.73084 7.94921 10.6239 7.85367 11.5795C7.75813 12.535 7.99613 13.4942 8.5273 14.2943L6.6023 16.2193C5.58155 15.3941 4.7105 14.3992 4.0273 13.2785ZM14.4998 12.0001C14.4998 12.6632 14.2364 13.299 13.7676 13.7679C13.2987 14.2367 12.6628 14.5001 11.9998 14.5001C11.6286 14.4987 11.2625 14.4132 10.929 14.2501L14.2498 10.9293C14.4129 11.2628 14.4984 11.6289 14.4998 12.0001ZM9.4998 12.0001C9.4998 11.3371 9.76319 10.7012 10.232 10.2324C10.7009 9.76351 11.3368 9.50012 11.9998 9.50012C12.371 9.50156 12.7371 9.58702 13.0706 9.75012L9.7498 13.071C9.58671 12.7375 9.50124 12.3714 9.4998 12.0001ZM19.9723 13.2785C18.8606 15.0835 16.3481 18.121 11.9998 18.121C10.6162 18.1287 9.2521 17.7953 8.02813 17.1501L9.70563 15.4726C10.5057 16.0038 11.4649 16.2418 12.4204 16.1462C13.376 16.0507 14.2691 15.6275 14.9481 14.9484C15.6272 14.2694 16.0504 13.3763 16.1459 12.4208C16.2415 11.4652 16.0035 10.506 15.4723 9.70595L17.3973 7.78095C18.418 8.60618 19.2891 9.60099 19.9723 10.7218C20.2097 11.1059 20.3354 11.5486 20.3354 12.0001C20.3354 12.4517 20.2097 12.8943 19.9723 13.2785Z" fill="black"/>
</g>
<defs>
<clipPath id="clip0_1305_20962">
<rect width="20" height="20" fill="white" transform="translate(2 2)"/>
</clipPath>
</defs>
</svg>
