<svg width="15" height="18" viewBox="0 0 15 18" fill="none" xmlns="http://www.w3.org/2000/svg">
<path d="M8.75537 1.16602H2.35537C1.93102 1.16602 1.52406 1.33459 1.224 1.63464C0.923942 1.9347 0.755371 2.34167 0.755371 2.76602V15.566C0.755371 15.9904 0.923942 16.3973 1.224 16.6974C1.52406 16.9974 1.93102 17.166 2.35537 17.166H11.9554C12.3797 17.166 12.7867 16.9974 13.0867 16.6974C13.3868 16.3973 13.5554 15.9904 13.5554 15.566V5.96602L8.75537 1.16602Z" stroke="#E1DCFF" stroke-width="1.5" stroke-linecap="round" stroke-linejoin="round"/>
<path d="M8.75537 1.16602V5.96602H13.5554" stroke="#E1DCFF" stroke-width="1.5" stroke-linecap="round" stroke-linejoin="round"/>
<path d="M10.3553 9.9668H3.95532" stroke="#E1DCFF" stroke-width="1.5" stroke-linecap="round" stroke-linejoin="round"/>
<path d="M10.3553 13.166H3.95532" stroke="#E1DCFF" stroke-width="1.5" stroke-linecap="round" stroke-linejoin="round"/>
<path d="M5.55532 6.76562H4.75532H3.95532" stroke="#E1DCFF" stroke-width="1.5" stroke-linecap="round" stroke-linejoin="round"/>
</svg>
