<svg width="20" height="20" viewBox="0 0 20 20" fill="none" xmlns="http://www.w3.org/2000/svg">
<path d="M9.99361 12.4052C11.3492 12.4052 12.4482 11.3062 12.4482 9.95064C12.4482 8.59503 11.3492 7.49609 9.99361 7.49609C8.638 7.49609 7.53906 8.59503 7.53906 9.95064C7.53906 11.3062 8.638 12.4052 9.99361 12.4052Z" stroke="white" stroke-linecap="round" stroke-linejoin="round"/>
<path d="M16.0545 12.4038C15.9456 12.6505 15.9131 12.9243 15.9613 13.1897C16.0094 13.4551 16.1359 13.7 16.3245 13.8929L16.3736 13.9419C16.5258 14.0939 16.6465 14.2744 16.7288 14.473C16.8112 14.6717 16.8536 14.8846 16.8536 15.0997C16.8536 15.3147 16.8112 15.5277 16.7288 15.7263C16.6465 15.925 16.5258 16.1054 16.3736 16.2574C16.2217 16.4095 16.0412 16.5302 15.8425 16.6126C15.6439 16.6949 15.431 16.7373 15.2159 16.7373C15.0009 16.7373 14.7879 16.6949 14.5893 16.6126C14.3906 16.5302 14.2102 16.4095 14.0582 16.2574L14.0091 16.2083C13.8163 16.0197 13.5714 15.8932 13.3059 15.845C13.0405 15.7969 12.7668 15.8294 12.52 15.9383C12.278 16.042 12.0716 16.2142 11.9263 16.4337C11.7809 16.6533 11.7029 16.9105 11.7018 17.1738V17.3129C11.7018 17.7468 11.5294 18.1631 11.2225 18.4699C10.9157 18.7768 10.4994 18.9492 10.0655 18.9492C9.63146 18.9492 9.21525 18.7768 8.90837 18.4699C8.60149 18.1631 8.42909 17.7468 8.42909 17.3129V17.2392C8.42276 16.9684 8.3351 16.7058 8.17751 16.4854C8.01992 16.2651 7.79969 16.0973 7.54545 16.0038C7.29868 15.8949 7.02493 15.8624 6.75952 15.9105C6.4941 15.9586 6.24919 16.0851 6.05636 16.2738L6.00727 16.3229C5.8553 16.475 5.67483 16.5957 5.47617 16.678C5.27752 16.7604 5.06459 16.8028 4.84955 16.8028C4.6345 16.8028 4.42157 16.7604 4.22292 16.678C4.02426 16.5957 3.84379 16.475 3.69182 16.3229C3.53967 16.1709 3.41898 15.9904 3.33663 15.7918C3.25428 15.5931 3.21189 15.3802 3.21189 15.1651C3.21189 14.9501 3.25428 14.7371 3.33663 14.5385C3.41898 14.3398 3.53967 14.1594 3.69182 14.0074L3.74091 13.9583C3.92953 13.7655 4.05606 13.5206 4.10419 13.2552C4.15231 12.9897 4.11982 12.716 4.01091 12.4692C3.90719 12.2272 3.73498 12.0208 3.51547 11.8755C3.29596 11.7301 3.03873 11.6521 2.77545 11.651H2.63636C2.20237 11.651 1.78616 11.4786 1.47928 11.1718C1.1724 10.8649 1 10.4487 1 10.0147C1 9.58068 1.1724 9.16447 1.47928 8.85759C1.78616 8.55071 2.20237 8.37831 2.63636 8.37831H2.71C2.98081 8.37197 3.24346 8.28432 3.46379 8.12673C3.68412 7.96914 3.85195 7.74891 3.94545 7.49467C4.05437 7.2479 4.08686 6.97415 4.03873 6.70874C3.99061 6.44332 3.86408 6.19841 3.67545 6.00558L3.62636 5.95649C3.47422 5.80452 3.35352 5.62405 3.27118 5.42539C3.18883 5.22674 3.14644 5.01381 3.14644 4.79876C3.14644 4.58372 3.18883 4.37079 3.27118 4.17213C3.35352 3.97348 3.47422 3.79301 3.62636 3.64104C3.77834 3.48889 3.95881 3.3682 4.15746 3.28585C4.35611 3.2035 4.56905 3.16111 4.78409 3.16111C4.99913 3.16111 5.21207 3.2035 5.41072 3.28585C5.60937 3.3682 5.78984 3.48889 5.94182 3.64104L5.99091 3.69013C6.18374 3.87875 6.42865 4.00528 6.69406 4.0534C6.95948 4.10153 7.23322 4.06904 7.48 3.96013H7.54545C7.78745 3.85641 7.99383 3.6842 8.1392 3.46469C8.28457 3.24518 8.36259 2.98795 8.36364 2.72467V2.58558C8.36364 2.15159 8.53604 1.73538 8.84292 1.4285C9.14979 1.12162 9.56601 0.949219 10 0.949219C10.434 0.949219 10.8502 1.12162 11.1571 1.4285C11.464 1.73538 11.6364 2.15159 11.6364 2.58558V2.65922C11.6374 2.9225 11.7154 3.17973 11.8608 3.39924C12.0062 3.61875 12.2126 3.79096 12.4545 3.89467C12.7013 4.00359 12.9751 4.03607 13.2405 3.98795C13.5059 3.93983 13.7508 3.81329 13.9436 3.62467L13.9927 3.57558C14.1447 3.42344 14.3252 3.30274 14.5238 3.22039C14.7225 3.13804 14.9354 3.09566 15.1505 3.09566C15.3655 3.09566 15.5784 3.13804 15.7771 3.22039C15.9757 3.30274 16.1562 3.42344 16.3082 3.57558C16.4603 3.72756 16.581 3.90803 16.6634 4.10668C16.7457 4.30533 16.7881 4.51827 16.7881 4.73331C16.7881 4.94835 16.7457 5.16129 16.6634 5.35994C16.581 5.55859 16.4603 5.73906 16.3082 5.89104L16.2591 5.94013C16.0705 6.13296 15.9439 6.37787 15.8958 6.64328C15.8477 6.9087 15.8802 7.18244 15.9891 7.42922V7.49467C16.0928 7.73667 16.265 7.94305 16.4845 8.08842C16.704 8.23379 16.9613 8.31181 17.2245 8.31286H17.3636C17.7976 8.31286 18.2138 8.48526 18.5207 8.79214C18.8276 9.09901 19 9.51523 19 9.94922C19 10.3832 18.8276 10.7994 18.5207 11.1063C18.2138 11.4132 17.7976 11.5856 17.3636 11.5856H17.29C17.0267 11.5866 16.7695 11.6646 16.55 11.81C16.3305 11.9554 16.1583 12.1618 16.0545 12.4038Z" stroke="white" stroke-linecap="round" stroke-linejoin="round"/>
</svg>
