<svg width="25" height="24" viewBox="0 0 25 24" fill="none" xmlns="http://www.w3.org/2000/svg">
<mask id="mask0_352_8" style="mask-type:alpha" maskUnits="userSpaceOnUse" x="0" y="0" width="25" height="24">
<rect x="0.719238" width="24" height="24" fill="#D9D9D9"/>
</mask>
<g mask="url(#mask0_352_8)">
<path d="M4.27713 19.5C3.97965 19.5 3.72897 19.3971 3.52508 19.1914C3.32118 18.9857 3.21924 18.7277 3.21924 18.4175C3.21924 18.1173 3.32118 17.866 3.52508 17.6634C3.72897 17.4608 3.97965 17.3595 4.27713 17.3595H22.1463C22.4437 17.3595 22.6969 17.4624 22.9059 17.6681C23.1148 17.8738 23.2192 18.1267 23.2192 18.4269C23.2192 18.7371 23.1148 18.9936 22.9059 19.1961C22.6969 19.3987 22.4437 19.5 22.1463 19.5H4.27713ZM4.27713 13.5627C3.97965 13.5627 3.72897 13.4598 3.52508 13.2541C3.32118 13.0484 3.21924 12.7954 3.21924 12.4953C3.21924 12.1951 3.32118 11.9438 3.52508 11.7412C3.72897 11.5386 3.97965 11.4373 4.27713 11.4373H22.1463C22.4437 11.4373 22.6969 11.5402 22.9059 11.7459C23.1148 11.9516 23.2192 12.2046 23.2192 12.5047C23.2192 12.8049 23.1148 13.0562 22.9059 13.2588C22.6969 13.4614 22.4437 13.5627 22.1463 13.5627H4.27713ZM4.27713 7.64051C3.97965 7.64051 3.72897 7.53764 3.52508 7.33192C3.32118 7.1262 3.21924 6.86821 3.21924 6.55797C3.21924 6.25781 3.32118 6.00644 3.52508 5.80386C3.72897 5.60129 3.97965 5.5 4.27713 5.5H22.1463C22.4437 5.5 22.6969 5.60286 22.9059 5.80858C23.1148 6.01429 23.2192 6.26721 23.2192 6.56736C23.2192 6.87762 23.1148 7.13404 22.9059 7.33662C22.6969 7.53921 22.4437 7.64051 22.1463 7.64051H4.27713Z" fill="#260B6A"/>
</g>
</svg>
