<svg width="20" height="19" viewBox="0 0 20 19" fill="none" xmlns="http://www.w3.org/2000/svg">
<path d="M1.89844 1.08203C1.80859 1.17578 1.79688 1.21485 1.79688 1.47266V1.76172H1.33984C0.9375 1.76172 0.851562 1.77344 0.683594 1.85547C0.398438 1.98828 0.253906 2.125 0.121094 2.39453L0 2.63281V10.3555V18.0781L0.121094 18.3164C0.253906 18.5859 0.398438 18.7227 0.683594 18.8555L0.878906 18.9492H10.0039H19.1289L19.3672 18.8281C19.6367 18.6953 19.7734 18.5508 19.9062 18.2656L20 18.0703V10.3555V2.64063L19.9062 2.44531C19.7734 2.16016 19.6367 2.01563 19.3672 1.88281C19.1406 1.76953 19.1016 1.76172 18.6641 1.76172H18.2031V1.47266C18.2031 1.21485 18.1914 1.17578 18.1016 1.08203C17.9531 0.937502 17.6719 0.937502 17.5234 1.08203C17.4336 1.17578 17.4219 1.21485 17.4219 1.47266V1.76172H16.8359H16.25V1.47266C16.25 1.21485 16.2383 1.17578 16.1484 1.08203C16 0.937502 15.7188 0.937502 15.5703 1.08203C15.4805 1.17578 15.4688 1.21485 15.4688 1.47266V1.76172H14.8828H14.2969V1.47266C14.2969 1.21485 14.2852 1.17578 14.1953 1.08203C14.0469 0.937502 13.7656 0.937502 13.6172 1.08203C13.5273 1.17578 13.5156 1.21485 13.5156 1.47266V1.76172H12.9297H12.3438V1.47266C12.3438 1.21485 12.332 1.17578 12.2422 1.08203C12.0938 0.937502 11.8125 0.937502 11.6641 1.08203C11.5742 1.17578 11.5625 1.21485 11.5625 1.47266V1.76172H10.9766H10.3906V1.47266C10.3906 1.21485 10.3789 1.17578 10.2891 1.08203C10.1406 0.937502 9.85938 0.937502 9.71094 1.08203C9.62109 1.17578 9.60938 1.21485 9.60938 1.47266V1.76172H9.02344H8.4375V1.47266C8.4375 1.21485 8.42578 1.17578 8.33594 1.08203C8.1875 0.937502 7.90625 0.937502 7.75781 1.08203C7.66797 1.17578 7.65625 1.21485 7.65625 1.47266V1.76172H7.07031H6.48438V1.47266C6.48438 1.21485 6.47266 1.17578 6.38281 1.08203C6.23438 0.937502 5.95312 0.937502 5.80469 1.08203C5.71484 1.17578 5.70312 1.21485 5.70312 1.47266V1.76172H5.11719H4.53125V1.47266C4.53125 1.21485 4.51953 1.17578 4.42969 1.08203C4.34766 1 4.28906 0.980471 4.14062 0.980471C3.99219 0.980471 3.93359 1 3.85156 1.08203C3.76172 1.17578 3.75 1.21485 3.75 1.47266V1.76172H3.16406H2.57812V1.47266C2.57812 1.21485 2.56641 1.17578 2.47656 1.08203C2.39453 1 2.33594 0.980471 2.1875 0.980471C2.03906 0.980471 1.98047 1 1.89844 1.08203ZM1.79688 3.16406C1.79688 3.76953 1.80078 3.79297 1.89062 3.89844C1.97266 3.99219 2.01562 4.00781 2.1875 4.00781C2.35938 4.00781 2.40234 3.99219 2.48438 3.89844C2.57422 3.79297 2.57812 3.76953 2.57812 3.16406V2.54297H3.16406H3.75V3.16406C3.75 3.76953 3.75391 3.79297 3.84375 3.89844C3.92578 3.99219 3.96875 4.00781 4.14062 4.00781C4.3125 4.00781 4.35547 3.99219 4.4375 3.89844C4.52734 3.79297 4.53125 3.76953 4.53125 3.16406V2.54297H5.11719H5.70312V3.16406C5.70312 3.76953 5.70703 3.79297 5.79688 3.89844C5.87891 3.99219 5.92188 4.00781 6.09375 4.00781C6.26562 4.00781 6.30859 3.99219 6.39062 3.89844C6.48047 3.79297 6.48438 3.76953 6.48438 3.16406V2.54297H7.07031H7.65625V3.16406C7.65625 3.76953 7.66016 3.79297 7.75 3.89844C7.83203 3.99219 7.875 4.00781 8.04688 4.00781C8.21875 4.00781 8.26172 3.99219 8.34375 3.89844C8.43359 3.79297 8.4375 3.76953 8.4375 3.16406V2.54297H9.02344H9.60938V3.16406C9.60938 3.76953 9.61328 3.79297 9.70312 3.89844C9.78516 3.99219 9.82812 4.00781 10 4.00781C10.1719 4.00781 10.2148 3.99219 10.2969 3.89844C10.3867 3.79297 10.3906 3.76953 10.3906 3.16406V2.54297H10.9766H11.5625V3.16406C11.5625 3.76953 11.5664 3.79297 11.6562 3.89844C11.7383 3.99219 11.7812 4.00781 11.9531 4.00781C12.125 4.00781 12.168 3.99219 12.25 3.89844C12.3398 3.79297 12.3438 3.76953 12.3438 3.16406V2.54297H12.9297H13.5156V3.16406C13.5156 3.76953 13.5195 3.79297 13.6094 3.89844C13.6914 3.99219 13.7344 4.00781 13.9062 4.00781C14.0781 4.00781 14.1211 3.99219 14.2031 3.89844C14.293 3.79297 14.2969 3.76953 14.2969 3.16406V2.54297H14.8828H15.4688V3.16406C15.4688 3.76953 15.4727 3.79297 15.5625 3.89844C15.6445 3.99219 15.6875 4.00781 15.8594 4.00781C16.0312 4.00781 16.0742 3.99219 16.1562 3.89844C16.2461 3.79297 16.25 3.76953 16.25 3.16406V2.54297H16.8359H17.4219V3.16406C17.4219 3.76953 17.4258 3.79297 17.5156 3.89844C17.5977 3.99219 17.6406 4.00781 17.8125 4.00781C17.9844 4.00781 18.0273 3.99219 18.1094 3.89844C18.1992 3.79297 18.2031 3.76953 18.2031 3.16406V2.54297H18.4883C18.6406 2.54297 18.8359 2.5625 18.9141 2.58203C19.1758 2.65625 19.1797 2.67188 19.1797 3.83985V4.88672H15.375H11.5742L11.4688 4.98828C11.3867 5.07031 11.3672 5.12891 11.3672 5.27735C11.3672 5.42578 11.3867 5.48438 11.4688 5.56641L11.5742 5.66797H15.3945H19.2188L19.2109 11.7695C19.1992 16.9219 19.1914 17.8867 19.1445 17.957C19.0078 18.1602 19.5898 18.1484 10.082 18.1602C4.01172 18.1641 1.19531 18.1563 1.08984 18.1289C0.996094 18.1016 0.910156 18.0469 0.867188 17.9844C0.804688 17.8828 0.800781 17.5078 0.789062 11.7734L0.78125 5.66797H4.60547H8.42578L8.53125 5.56641C8.67578 5.41797 8.67578 5.13672 8.53125 4.98828L8.42578 4.88672H4.60156H0.777344L0.789062 3.85938C0.800781 2.95703 0.808594 2.82031 0.871094 2.72656C0.957031 2.59766 1.10938 2.55078 1.49609 2.54688L1.79688 2.54297V3.16406Z" fill="white"/>
<path d="M9.71973 4.98828C9.6377 5.07031 9.61816 5.12891 9.61816 5.27734C9.61816 5.42578 9.6377 5.48438 9.71973 5.56641C9.80176 5.64844 9.86035 5.66797 10.0088 5.66797C10.1572 5.66797 10.2158 5.64844 10.2979 5.56641C10.3799 5.48438 10.3994 5.42578 10.3994 5.27734C10.3994 5.12891 10.3799 5.07031 10.2979 4.98828C10.2158 4.90625 10.1572 4.88672 10.0088 4.88672C9.86035 4.88672 9.80176 4.90625 9.71973 4.98828Z" fill="white"/>
<path d="M2.57715 6.57031C2.30762 6.70312 2.1709 6.84766 2.03809 7.13281C1.94434 7.32812 1.94434 7.33594 1.94434 8.89453V10.4609L2.06543 10.6992C2.19824 10.9688 2.34277 11.1055 2.62793 11.2383C2.81934 11.332 2.83887 11.332 4.19434 11.332H5.56543L5.80371 11.2109C6.07324 11.0781 6.20996 10.9336 6.34277 10.6484C6.43652 10.4531 6.43652 10.4453 6.43652 8.89062C6.43652 7.33594 6.43652 7.32812 6.34277 7.13281C6.20996 6.84766 6.07324 6.70312 5.80371 6.57031L5.56543 6.44922H4.19043H2.81543L2.57715 6.57031ZM5.47168 7.31641C5.64355 7.43359 5.65918 7.58984 5.64746 8.98047C5.63574 10.3516 5.63184 10.3711 5.4248 10.4805C5.35449 10.5195 5.05371 10.5312 4.1748 10.5312C2.8584 10.5312 2.84277 10.5273 2.76465 10.2383C2.7373 10.1328 2.72559 9.63672 2.7334 8.80078C2.74512 7.375 2.75293 7.35156 3.01074 7.27344C3.08105 7.25 3.62402 7.23828 4.24902 7.24219C5.2373 7.25 5.37793 7.25781 5.47168 7.31641Z" fill="white"/>
<path d="M9.67368 6.51562C9.47837 6.61719 9.39634 6.71484 9.14243 7.15234L8.89634 7.57422L8.5604 7.64062C7.84946 7.77734 7.66977 7.875 7.52915 8.21484C7.39243 8.53516 7.47055 8.79297 7.8104 9.17578C7.93149 9.31641 8.07993 9.48438 8.13462 9.55078L8.23618 9.67188L8.1854 10.1406C8.1229 10.6875 8.16587 10.9297 8.35337 11.1055C8.66977 11.3984 8.93149 11.4062 9.5604 11.1328L10.0135 10.9375L10.4588 11.1328C10.8026 11.2852 10.951 11.332 11.0995 11.332C11.3338 11.332 11.5526 11.2305 11.701 11.0586C11.8651 10.8594 11.8807 10.7422 11.826 10.0391L11.7948 9.625L12.0956 9.29688C12.5604 8.78906 12.6385 8.53125 12.4471 8.14453C12.3104 7.875 12.1698 7.79297 11.5916 7.66406C11.3182 7.60156 11.0916 7.54688 11.0838 7.53906C11.0799 7.53125 10.9901 7.375 10.8846 7.19141C10.6307 6.73828 10.5331 6.61719 10.3573 6.52734C10.1698 6.43359 9.84165 6.42578 9.67368 6.51562ZM10.2479 7.75391C10.3729 7.97266 10.5096 8.1875 10.5487 8.22266C10.5916 8.26172 10.8377 8.33984 11.119 8.40234C11.3924 8.46094 11.6229 8.51953 11.6307 8.53125C11.6385 8.53906 11.5135 8.69531 11.3495 8.875C10.8963 9.375 10.9237 9.29688 10.9823 9.91016C11.0096 10.1992 11.0252 10.4453 11.0135 10.4531C11.0057 10.4609 10.8104 10.3828 10.576 10.2773C10.3416 10.168 10.0956 10.082 10.0252 10.082C9.95493 10.082 9.69712 10.168 9.45493 10.2773C9.21274 10.3828 9.00571 10.4648 8.9979 10.4531C8.99009 10.4453 9.0018 10.2266 9.02915 9.97266C9.05649 9.71484 9.06821 9.46094 9.05259 9.40625C9.04087 9.35156 8.88071 9.13281 8.69712 8.92578C8.51352 8.71875 8.3729 8.53906 8.38071 8.53125C8.38852 8.52344 8.60337 8.47266 8.85727 8.41797C9.11509 8.36328 9.35727 8.29688 9.40024 8.26953C9.44712 8.23828 9.59555 8.01953 9.73227 7.78125C9.8729 7.54297 9.99399 7.34766 10.0057 7.34766C10.0174 7.34766 10.1268 7.53125 10.2479 7.75391Z" fill="white"/>
<path d="M14.1919 6.57031C13.9224 6.70312 13.7856 6.84766 13.6528 7.13281C13.5591 7.32812 13.5591 7.33594 13.5591 8.89453V10.4609L13.6802 10.6992C13.813 10.9688 13.9575 11.1055 14.2427 11.2383C14.4341 11.332 14.4536 11.332 15.8091 11.332H17.1802L17.4185 11.2109C17.688 11.0781 17.8247 10.9336 17.9575 10.6484C18.0513 10.4531 18.0513 10.4453 18.0513 8.89062C18.0513 7.33594 18.0513 7.32812 17.9575 7.13281C17.8247 6.84766 17.688 6.70312 17.4185 6.57031L17.1802 6.44922H15.8052H14.4302L14.1919 6.57031ZM17.0864 7.31641C17.2583 7.43359 17.2739 7.58984 17.2622 8.98047C17.2505 10.3516 17.2466 10.3711 17.0396 10.4805C16.9692 10.5195 16.6685 10.5312 15.7896 10.5312C14.4731 10.5312 14.4575 10.5273 14.3794 10.2383C14.3521 10.1328 14.3403 9.63672 14.3481 8.80078C14.3599 7.375 14.3677 7.35156 14.6255 7.27344C14.6958 7.25 15.2388 7.23828 15.8638 7.24219C16.8521 7.25 16.9927 7.25781 17.0864 7.31641Z" fill="white"/>
<path d="M2.57715 12.625C2.30762 12.7578 2.1709 12.9023 2.03809 13.1875C1.94434 13.3828 1.94434 13.3906 1.94434 14.9492V16.5156L2.06543 16.7539C2.19824 17.0234 2.34277 17.1602 2.62793 17.293C2.81934 17.3867 2.83887 17.3867 4.19434 17.3867H5.56543L5.80371 17.2656C6.07324 17.1328 6.20996 16.9883 6.34277 16.7031C6.43652 16.5078 6.43652 16.5 6.43652 14.9453C6.43652 13.3906 6.43652 13.3828 6.34277 13.1875C6.20996 12.9023 6.07324 12.7578 5.80371 12.625L5.56543 12.5039H4.19043H2.81543L2.57715 12.625ZM5.47168 13.3711C5.64355 13.4883 5.65918 13.6445 5.64746 15.0352C5.63574 16.4062 5.63184 16.4258 5.4248 16.5352C5.35449 16.5742 5.05371 16.5859 4.1748 16.5859C2.8584 16.5859 2.84277 16.582 2.76465 16.293C2.7373 16.1875 2.72559 15.6914 2.7334 14.8555C2.74512 13.4297 2.75293 13.4062 3.01074 13.3281C3.08105 13.3047 3.62402 13.293 4.24902 13.2969C5.2373 13.3047 5.37793 13.3125 5.47168 13.3711Z" fill="white"/>
<path d="M8.5105 12.5586C8.25659 12.6523 8.0105 12.8789 7.86597 13.1484L7.7605 13.3438V14.9453V16.5469L7.86597 16.7461C7.97534 16.9531 8.198 17.1797 8.41284 17.2969C8.53003 17.3594 8.66675 17.3672 10.0066 17.3672C11.3464 17.3672 11.4832 17.3594 11.6003 17.2969C11.8152 17.1797 12.0378 16.9531 12.1472 16.7461L12.2527 16.5469V14.9453V13.3438L12.1472 13.1445C12.0378 12.9375 11.8152 12.7109 11.6003 12.5938C11.4832 12.5312 11.3386 12.5234 10.0652 12.5156C8.95581 12.5078 8.62769 12.5156 8.5105 12.5586ZM11.1472 13.3242C11.2253 13.3477 11.3269 13.4102 11.3738 13.4688C11.448 13.5664 11.4519 13.6172 11.4519 14.9453C11.4519 16.2734 11.448 16.3242 11.3738 16.4219C11.3269 16.4805 11.2253 16.543 11.1472 16.5664C10.9558 16.6172 9.05737 16.6172 8.86597 16.5664C8.78784 16.543 8.68628 16.4805 8.6394 16.4219C8.56519 16.3242 8.56128 16.2734 8.56128 14.9453C8.56128 13.6133 8.56519 13.5664 8.64331 13.4648C8.68628 13.4102 8.78003 13.3477 8.84644 13.3281C9.02222 13.2773 10.9675 13.2773 11.1472 13.3242Z" fill="white"/>
<path d="M14.1919 12.625C13.9224 12.7578 13.7856 12.9023 13.6528 13.1875C13.5591 13.3828 13.5591 13.3906 13.5591 14.9492V16.5156L13.6802 16.7539C13.813 17.0234 13.9575 17.1602 14.2427 17.293C14.4341 17.3867 14.4536 17.3867 15.8091 17.3867H17.1802L17.4185 17.2656C17.688 17.1328 17.8247 16.9883 17.9575 16.7031C18.0513 16.5078 18.0513 16.5 18.0513 14.9453C18.0513 13.3906 18.0513 13.3828 17.9575 13.1875C17.8247 12.9023 17.688 12.7578 17.4185 12.625L17.1802 12.5039H15.8052H14.4302L14.1919 12.625ZM17.0864 13.3711C17.2583 13.4883 17.2739 13.6445 17.2622 15.0352C17.2505 16.4062 17.2466 16.4258 17.0396 16.5352C16.9692 16.5742 16.6685 16.5859 15.7896 16.5859C14.4731 16.5859 14.4575 16.582 14.3794 16.293C14.3521 16.1875 14.3403 15.6914 14.3481 14.8555C14.3599 13.4297 14.3677 13.4062 14.6255 13.3281C14.6958 13.3047 15.2388 13.293 15.8638 13.2969C16.8521 13.3047 16.9927 13.3125 17.0864 13.3711Z" fill="white"/>
</svg>
