<svg width="19" height="18" viewBox="0 0 19 18" fill="none" xmlns="http://www.w3.org/2000/svg">
<path d="M15.9261 1.16602H3.48164C2.4998 1.16602 1.70386 1.96195 1.70386 2.94379V15.3882C1.70386 16.3701 2.4998 17.166 3.48164 17.166H15.9261C16.9079 17.166 17.7039 16.3701 17.7039 15.3882V2.94379C17.7039 1.96195 16.9079 1.16602 15.9261 1.16602Z" stroke="#E1DCFF" stroke-width="1.5" stroke-linecap="round" stroke-linejoin="round"/>
<path d="M6.59285 7.38737C7.32923 7.38737 7.92619 6.79042 7.92619 6.05404C7.92619 5.31766 7.32923 4.7207 6.59285 4.7207C5.85648 4.7207 5.25952 5.31766 5.25952 6.05404C5.25952 6.79042 5.85648 7.38737 6.59285 7.38737Z" stroke="#E1DCFF" stroke-width="1.5" stroke-linecap="round" stroke-linejoin="round"/>
<path d="M17.7039 11.8331L13.2595 7.38867L3.48169 17.1665" stroke="#E1DCFF" stroke-width="1.5" stroke-linecap="round" stroke-linejoin="round"/>
</svg>
