<svg width="22" height="23" viewBox="0 0 22 23" fill="none" xmlns="http://www.w3.org/2000/svg">
<mask id="mask0_7391_9458" style="mask-type:alpha" maskUnits="userSpaceOnUse" x="0" y="0" width="22" height="23">
<rect y="0.949219" width="22" height="22" fill="#D9D9D9"/>
</mask>
<g mask="url(#mask0_7391_9458)">
<path d="M4.8734 1.14934C4.7856 1.26025 4.77635 1.33419 4.77635 1.88875V2.49875L4.60537 2.55883C4.50832 2.58656 4.29574 2.67436 4.12937 2.7483L3.83361 2.88232L3.38997 2.43868C2.75685 1.81018 2.84004 1.78708 1.78638 2.84535C0.72811 3.899 0.751216 3.81582 1.37971 4.44893L1.82335 4.89258L1.68934 5.18834C1.6154 5.3547 1.52759 5.56728 1.49986 5.65971L1.43979 5.83532H0.829778C0.275224 5.83532 0.201284 5.84456 0.0903727 5.93236L-0.0297806 6.02479V7.27253C-0.0297806 8.82528 -0.103721 8.70051 0.797429 8.70051H1.43979L1.47214 8.82528C1.486 8.8946 1.5738 9.10718 1.66161 9.29665L1.82335 9.64325L1.37971 10.0869C0.746595 10.7246 0.723489 10.6368 1.80949 11.7182C2.52579 12.4299 2.7014 12.5824 2.80769 12.5824C2.91398 12.5824 3.03413 12.49 3.39459 12.1387L3.84748 11.6951L4.23104 11.8568C4.44362 11.9446 4.65158 12.0278 4.69317 12.0417C4.75787 12.0648 4.77173 12.1618 4.7856 12.7164C4.79484 13.2663 4.81332 13.3772 4.88264 13.4466C4.95658 13.5205 5.08598 13.5297 6.1766 13.5436C7.74322 13.5621 7.63231 13.6222 7.65079 12.7164L7.66466 12.0648L7.98815 11.94C8.16838 11.8707 8.37633 11.7783 8.45027 11.7413L8.58891 11.6674L9.06028 12.1295C9.50855 12.5685 9.5409 12.5916 9.68416 12.5639C9.90598 12.5223 11.4634 10.9649 11.5049 10.7431C11.5327 10.5999 11.5096 10.5675 11.0705 10.1192L10.6084 9.64787L10.6824 9.50923C10.7193 9.43067 10.8117 9.22271 10.8811 9.0471L11.0058 8.72361L11.6574 8.70975C12.5632 8.69126 12.5031 8.80218 12.4847 7.23556C12.4708 6.14494 12.4615 6.01555 12.3876 5.94161C12.3183 5.87229 12.2074 5.8538 11.6574 5.84456C11.1029 5.83069 11.0058 5.81683 10.9827 5.75213C10.9689 5.71054 10.8857 5.50258 10.7979 5.29L10.6361 4.90644L11.0798 4.45355C11.431 4.09309 11.5234 3.97294 11.5234 3.86665C11.5234 3.76036 11.3709 3.58475 10.6592 2.86846C9.57787 1.78246 9.66567 1.80556 9.02793 2.43868L8.58429 2.88232L8.23769 2.72058C8.04822 2.63277 7.83564 2.54497 7.76632 2.5311L7.64155 2.49875V1.8564C7.64155 0.955248 7.76632 1.02919 6.21357 1.02919H4.96583L4.8734 1.14934ZM6.94836 2.2908C6.94836 2.98399 6.97146 3.02558 7.40124 3.15035C7.57223 3.20119 7.90496 3.33983 8.14065 3.45536C8.38095 3.57089 8.62588 3.66332 8.69058 3.66332C8.77839 3.66332 8.92165 3.55241 9.23127 3.2474L9.65643 2.83149L10.1601 3.33983L10.6639 3.84355L10.2664 4.25022C10.0492 4.47666 9.85977 4.7031 9.84128 4.75856C9.81817 4.83712 9.86439 4.985 10.0169 5.29C10.1278 5.52569 10.2711 5.86304 10.3265 6.04327C10.479 6.53775 10.4652 6.52851 11.1861 6.52851H11.8007V7.26791V8.00732H11.2046C10.4929 8.00732 10.4698 8.02118 10.3265 8.49255C10.2757 8.67278 10.137 9.01475 10.0215 9.24582C9.87363 9.5462 9.81817 9.70332 9.83666 9.77726C9.85514 9.83272 10.0492 10.0592 10.2664 10.2856L10.6685 10.6877L10.1463 11.2052L9.6287 11.7274L9.22665 11.3254C9.00021 11.1082 8.77376 10.9141 8.71831 10.8956C8.64437 10.8771 8.48724 10.9326 8.18686 11.0805C7.9558 11.196 7.61382 11.3346 7.43359 11.3855C6.96222 11.5287 6.94836 11.5518 6.94836 12.2635V12.8597H6.20895H5.46955V12.245C5.46955 11.5241 5.47879 11.538 4.98431 11.3855C4.8087 11.3254 4.47135 11.1868 4.23566 11.0712C3.92604 10.9187 3.78278 10.8725 3.70422 10.9002C3.64414 10.9141 3.4177 11.1082 3.19125 11.3254L2.78458 11.7228L2.28086 11.2191L1.77252 10.7154L2.18844 10.2902C2.49344 9.9806 2.60435 9.83734 2.60435 9.74954C2.60435 9.68484 2.51192 9.43991 2.39639 9.1996C2.28086 8.96392 2.14222 8.63119 2.09139 8.4602C1.96661 8.03042 1.92502 8.00732 1.23183 8.00732H0.663412V7.26791V6.52851H1.25494C1.65699 6.52851 1.86957 6.51002 1.9204 6.46843C1.96199 6.4407 2.06366 6.21426 2.14222 5.97395C2.22078 5.73365 2.35942 5.40554 2.44723 5.24841C2.68291 4.82326 2.67367 4.78166 2.18844 4.29181L1.77252 3.86665L2.29472 3.34907L2.81231 2.83611L3.23285 3.2474C3.54709 3.55703 3.68573 3.66332 3.77354 3.66332C3.83823 3.66332 4.05081 3.58013 4.24028 3.47847C4.43438 3.38142 4.76711 3.24278 4.98431 3.17808C5.23386 3.09952 5.39561 3.02558 5.42333 2.97012C5.44644 2.92391 5.46955 2.62353 5.46955 2.30466V1.72238H6.20895H6.94836V2.2908Z" fill="white"/>
<path d="M5.71513 4.49473C5.11898 4.60564 4.43966 4.99845 4.06071 5.45133C3.65866 5.93657 3.39525 6.65287 3.39062 7.25825C3.39062 7.56326 3.50616 8.12705 3.62169 8.39971C3.95442 9.17146 4.70307 9.80458 5.53952 10.0172C5.88612 10.105 6.51461 10.105 6.88894 10.0172C7.89638 9.78147 8.72359 8.95426 8.95927 7.95607C9.04708 7.57712 9.04708 6.94401 8.95927 6.59741C8.7929 5.93657 8.34002 5.28959 7.79471 4.92913C7.24015 4.55943 6.36673 4.3792 5.71513 4.49473ZM6.6856 5.21103C7.25402 5.35891 7.82244 5.77944 8.07198 6.24157C8.4001 6.85158 8.4232 7.55864 8.13668 8.16864C7.60061 9.29161 6.27431 9.72139 5.18368 9.12987C4.67996 8.85721 4.22708 8.20099 4.12079 7.60023C3.87586 6.16763 5.28997 4.84595 6.6856 5.21103Z" fill="white"/>
<path d="M13.1666 3.50123C12.9031 3.76002 13.0788 4.01419 13.6518 4.19442C15.126 4.66579 16.6002 5.73793 17.6122 7.08734L17.8572 7.41083L17.7416 7.56333C17.529 7.84061 17.4274 8.14561 17.4228 8.49683C17.4181 8.93585 17.6169 9.35639 17.9542 9.62442C18.25 9.85549 18.4533 9.9248 18.8738 9.9248C19.2898 9.9248 19.5486 9.81852 19.8582 9.53662C20.1539 9.25934 20.2787 8.95434 20.2833 8.49221C20.2833 8.06243 20.1863 7.80826 19.9136 7.50788C19.6502 7.21212 19.299 7.06886 18.8461 7.06423L18.4718 7.05961L18.116 6.58362C17.2887 5.48838 16.1658 4.56412 14.9226 3.96336C14.4051 3.70919 13.5316 3.3857 13.3699 3.3857C13.3191 3.3857 13.2266 3.43653 13.1666 3.50123ZM19.1326 7.8175C19.3545 7.91917 19.5023 8.09016 19.5717 8.33509C19.6179 8.48297 19.6132 8.54766 19.5486 8.71865C19.3452 9.2501 18.726 9.39336 18.3378 9.00517C17.9635 8.63085 18.079 8.03932 18.5688 7.8175C18.8045 7.71121 18.8969 7.71121 19.1326 7.8175Z" fill="white"/>
<path d="M14.4213 10.5949C14.3012 10.6919 14.3012 10.7011 14.2873 11.3389L14.2735 11.9905L13.95 12.1153C13.7744 12.1846 13.5664 12.277 13.4878 12.314L13.3492 12.3879L12.8778 11.9258C12.4296 11.4868 12.3972 11.4637 12.254 11.4914C12.1338 11.5145 11.912 11.7132 11.2604 12.3648C10.5626 13.0626 10.4147 13.2336 10.4147 13.3399C10.4147 13.4462 10.5117 13.571 10.8722 13.9407L11.3297 14.4074L11.2558 14.546C11.2188 14.62 11.1264 14.8279 11.0571 15.0082L10.9323 15.3317L10.2807 15.3455C9.3749 15.364 9.43498 15.2531 9.45347 16.8197C9.46733 17.9103 9.47657 18.0397 9.55051 18.1137C9.61983 18.183 9.73998 18.2015 10.2807 18.22L10.9323 18.2431L11.0894 18.6359C11.1772 18.8531 11.265 19.0564 11.2789 19.0888C11.2927 19.1257 11.1264 19.3291 10.8583 19.6017C10.5071 19.9576 10.4147 20.0823 10.4147 20.1886C10.4147 20.2949 10.5672 20.4705 11.2789 21.1868C12.3603 22.2728 12.2771 22.2497 12.9102 21.6166L13.3538 21.1776L13.5803 21.2885C13.7097 21.3486 13.9222 21.4364 14.0563 21.4826L14.2966 21.5704V22.2035C14.2966 23.0954 14.1718 23.0261 15.7245 23.0261H16.9723L17.0647 22.9059C17.1525 22.795 17.1618 22.7211 17.1618 22.1665V21.5565L17.3374 21.4964C17.4298 21.4687 17.6424 21.3809 17.8087 21.307L18.1045 21.173L18.5482 21.6166C19.1813 22.2451 19.0981 22.2682 20.1517 21.2099C21.21 20.1563 21.1869 20.2395 20.5584 19.6063L20.1148 19.1627L20.2488 18.8669C20.3227 18.7006 20.4105 18.488 20.4383 18.3909L20.4983 18.22H21.1083C21.6629 18.22 21.7368 18.2107 21.8477 18.1229L21.9679 18.0305V16.7827C21.9679 15.23 22.0418 15.3548 21.1407 15.3548H20.4983L20.466 15.23C20.4521 15.1607 20.3643 14.9481 20.2765 14.7586L20.1194 14.4167L20.5584 13.9684C21.1869 13.326 21.21 13.4138 20.1286 12.3371C19.4123 11.6254 19.2367 11.4729 19.1304 11.4729C19.0241 11.4729 18.904 11.5653 18.5435 11.9165L18.0906 12.3602L17.7071 12.1984C17.4945 12.1106 17.2865 12.0275 17.2449 12.0136C17.1803 11.9905 17.1664 11.8934 17.1525 11.3389C17.1433 10.7889 17.1248 10.678 17.0555 10.6087C16.9815 10.5348 16.8521 10.5255 15.7615 10.5117C14.5877 10.4978 14.5415 10.5024 14.4213 10.5949ZM16.4686 11.8103C16.4686 12.5312 16.4593 12.5173 16.9538 12.6698C17.134 12.7253 17.4714 12.8685 17.7071 12.9794C18.0075 13.1273 18.1646 13.1781 18.2385 13.1597C18.294 13.1412 18.5204 12.9471 18.7469 12.7299L19.1489 12.3278L19.6573 12.8362L20.1656 13.3399L19.7497 13.7651C19.4447 14.0747 19.3338 14.2179 19.3338 14.3057C19.3338 14.3704 19.4262 14.6154 19.5417 14.8557C19.6573 15.0914 19.7959 15.4241 19.8467 15.5951C19.9715 16.0249 20.0131 16.048 20.7063 16.048H21.2747V16.7874V17.5268H20.6832C20.2811 17.5268 20.0686 17.5453 20.0177 17.5822C19.9761 17.6146 19.8745 17.841 19.7959 18.0813C19.7173 18.3216 19.5787 18.6497 19.4909 18.8069C19.2552 19.232 19.2644 19.2736 19.7497 19.7635L20.1656 20.1886L19.6434 20.7062L19.1258 21.2192L18.7053 20.8079C18.2154 20.3226 18.1738 20.3134 17.7487 20.5491C17.5915 20.6369 17.2634 20.7755 17.0231 20.8541C16.7828 20.9327 16.5564 21.0343 16.5286 21.0759C16.4871 21.1267 16.4686 21.3393 16.4686 21.7414V22.3329H15.7292H14.9898V21.7645C14.9898 21.0713 14.9667 21.0297 14.5369 20.9049C14.3659 20.8541 14.0332 20.7155 13.7975 20.5999C13.5572 20.4844 13.3122 20.392 13.2475 20.392C13.1597 20.392 13.0165 20.5029 12.7068 20.8079L12.2817 21.2238L11.778 20.7155L11.2743 20.2117L11.6717 19.8051C11.8889 19.5786 12.083 19.3522 12.0968 19.2921C12.1246 19.2135 12.0784 19.0703 11.9259 18.7607C11.8103 18.525 11.6717 18.1876 11.6116 18.012C11.4591 17.5175 11.473 17.5268 10.752 17.5268H10.1374V16.7874V16.048H10.7289C11.131 16.048 11.3482 16.0295 11.399 15.9879C11.4452 15.9602 11.5423 15.7476 11.6208 15.5165C11.6994 15.2901 11.8473 14.9435 11.949 14.7448C12.0784 14.4906 12.1246 14.3566 12.1015 14.2826C12.083 14.2226 11.8889 13.9961 11.6717 13.7697L11.2696 13.3676L11.7918 12.85L12.3094 12.3278L12.7115 12.7299C12.9379 12.9471 13.1644 13.1412 13.2198 13.1597C13.2938 13.1781 13.4509 13.1227 13.7513 12.9748C13.9823 12.8593 14.3243 12.7206 14.5045 12.6698C14.9759 12.5265 14.9898 12.5034 14.9898 11.7918V11.1956H15.7292H16.4686V11.8103Z" fill="white"/>
<path d="M15.0173 14.0428C14.0422 14.2785 13.2428 15.078 12.984 16.0808C12.8915 16.4366 12.8915 17.1021 12.9793 17.4579C13.2197 18.396 13.9267 19.1539 14.8371 19.4589C15.3316 19.6207 16.0571 19.6299 16.5377 19.482C17.4296 19.2001 18.1413 18.4885 18.4186 17.5966C18.5526 17.1714 18.5619 16.432 18.4371 16.0299C18.1275 15.0133 17.3881 14.2877 16.3991 14.0382C16.0617 13.9504 15.3824 13.955 15.0173 14.0428ZM16.3252 14.7499C16.7133 14.87 16.9583 15.0271 17.2448 15.3275C17.7069 15.8127 17.9241 16.4967 17.8132 17.1159C17.6607 17.9524 17.0507 18.6179 16.242 18.8304C15.8584 18.9275 15.5904 18.9321 15.2438 18.8443C14.8371 18.738 14.5876 18.5994 14.2733 18.3036C13.7881 17.8507 13.5801 17.3331 13.6125 16.6492C13.6263 16.3072 13.6541 16.2009 13.8019 15.8959C14.07 15.3275 14.5413 14.9208 15.1514 14.7267C15.4333 14.6389 16.0017 14.6482 16.3252 14.7499Z" fill="white"/>
<path d="M2.66718 14.1716C2.25589 14.3056 1.93702 14.5829 1.76603 14.9618C1.62277 15.2807 1.61815 15.8399 1.76141 16.1449C1.90005 16.4545 2.15884 16.7179 2.45923 16.8612C2.67643 16.9629 2.79196 16.986 3.09696 16.9906L3.47129 16.9952L3.8225 17.462C4.87616 18.8622 6.3827 19.9528 8.01863 20.5074C8.50849 20.6691 8.5547 20.6784 8.6841 20.6183C8.7719 20.5767 8.8366 20.4981 8.86433 20.4011C8.93364 20.1515 8.81349 20.0406 8.23583 19.8373C6.65997 19.2827 5.35215 18.3215 4.3216 16.9582L4.08592 16.644L4.20145 16.4915C4.7976 15.7059 4.52956 14.5875 3.65152 14.2224C3.40197 14.1162 2.90749 14.093 2.66718 14.1716ZM3.44818 14.9203C3.60993 15.0034 3.75319 15.1929 3.80864 15.3962C3.90569 15.7567 3.65152 16.1634 3.26333 16.2789C2.90287 16.3898 2.4962 16.1357 2.37142 15.7244C2.32521 15.5719 2.32983 15.5072 2.39453 15.3408C2.56552 14.8833 3.02302 14.7031 3.44818 14.9203Z" fill="white"/>
</g>
</svg>
