<svg width="17" height="18" viewBox="0 0 17 18" fill="none" xmlns="http://www.w3.org/2000/svg">
<path d="M14.4099 8.18945H3.20986C2.32621 8.18945 1.60986 8.9058 1.60986 9.78945V15.3895C1.60986 16.2731 2.32621 16.9895 3.20986 16.9895H14.4099C15.2935 16.9895 16.0099 16.2731 16.0099 15.3895V9.78945C16.0099 8.9058 15.2935 8.18945 14.4099 8.18945Z" stroke="white" stroke-width="1.5" stroke-linecap="round" stroke-linejoin="round"/>
<path d="M4.81006 8.19023V4.99023C4.81006 3.92937 5.23149 2.91195 5.98163 2.16181C6.73178 1.41166 7.74919 0.990234 8.81006 0.990234C9.87092 0.990234 10.8883 1.41166 11.6385 2.16181C12.3886 2.91195 12.8101 3.92937 12.8101 4.99023V8.19023" stroke="white" stroke-width="1.5" stroke-linecap="round" stroke-linejoin="round"/>
</svg>
