<svg width="84" height="26" viewBox="0 0 84 26" fill="none" xmlns="http://www.w3.org/2000/svg">
<path d="M8.50724 7.14H7.78124L2.69924 21H0.917238L6.54924 5.6H9.71724L15.3272 21H13.5452L8.50724 7.14ZM3.66724 15.412H12.6432V16.952H3.66724V15.412ZM17.1945 10H18.7125L18.8225 11.584C19.1452 11.056 19.5778 10.638 20.1205 10.33C20.6778 10.0073 21.3378 9.846 22.1005 9.846C22.8778 9.846 23.5818 10.0367 24.2125 10.418C24.8578 10.7847 25.3565 11.3347 25.7085 12.068C26.0458 11.32 26.5592 10.7627 27.2485 10.396C27.9378 10.0293 28.7005 9.846 29.5365 9.846C30.3578 9.846 31.0838 10.0293 31.7145 10.396C32.3452 10.748 32.8365 11.2833 33.1885 12.002C33.5405 12.706 33.7165 13.5933 33.7165 14.664V21H32.0665V14.862C32.0665 13.718 31.8172 12.8527 31.3185 12.266C30.8345 11.6647 30.1378 11.364 29.2285 11.364C28.3045 11.364 27.5712 11.6867 27.0285 12.332C26.4858 12.9627 26.2145 13.9013 26.2145 15.148V21H24.5645V14.862C24.5645 13.718 24.3298 12.8527 23.8605 12.266C23.3912 11.6647 22.7018 11.364 21.7925 11.364C20.8685 11.364 20.1425 11.6867 19.6145 12.332C19.1012 12.9627 18.8445 13.9013 18.8445 15.148V21H17.1945V10ZM42.4611 5.6C44.1038 5.6 45.5265 5.92267 46.7291 6.568C47.9465 7.19867 48.8925 8.09333 49.5671 9.252C50.2418 10.4107 50.5791 11.7747 50.5791 13.344C50.5791 14.8987 50.2418 16.248 49.5671 17.392C48.8925 18.536 47.9465 19.4233 46.7291 20.054C45.5265 20.6847 44.1038 21 42.4611 21H36.7191V5.6H42.4611ZM42.3731 18.514C44.0305 18.514 45.3065 18.0593 46.2011 17.15C47.0958 16.226 47.5431 14.9573 47.5431 13.344C47.5431 11.716 47.0958 10.4327 46.2011 9.494C45.3065 8.55533 44.0305 8.086 42.3731 8.086H39.6891V18.514H42.3731ZM53.0744 10H55.8904V21H53.0744V10ZM54.5044 8.592C53.9764 8.592 53.5438 8.43067 53.2064 8.108C52.8691 7.77067 52.7004 7.36 52.7004 6.876C52.7004 6.392 52.8691 5.98867 53.2064 5.666C53.5438 5.32867 53.9764 5.16 54.5044 5.16C55.0031 5.16 55.4211 5.32867 55.7584 5.666C56.1104 5.98867 56.2864 6.392 56.2864 6.876C56.2864 7.36 56.1104 7.77067 55.7584 8.108C55.4211 8.43067 55.0031 8.592 54.5044 8.592ZM59.7659 10V6.92H62.6259V10H65.0459V12.486H62.6259V16.952C62.6259 17.524 62.7432 17.9273 62.9779 18.162C63.2272 18.3967 63.5352 18.5213 63.9019 18.536C64.2832 18.5507 64.6645 18.5287 65.0459 18.47V20.89C64.3712 21.0367 63.7112 21.0807 63.0659 21.022C62.4352 20.9633 61.8705 20.7947 61.3719 20.516C60.8732 20.2227 60.4772 19.7827 60.1839 19.196C59.9052 18.6093 59.7659 17.8613 59.7659 16.952V12.486H58.2039V10H59.7659ZM73.52 21L73.3 19.658C72.9333 20.1127 72.5153 20.472 72.046 20.736C71.5913 21 70.9753 21.132 70.198 21.132C69.4647 21.132 68.8193 21.0073 68.262 20.758C67.7193 20.494 67.294 20.1347 66.986 19.68C66.678 19.2107 66.524 18.6607 66.524 18.03C66.524 17.106 66.854 16.3433 67.514 15.742C68.1887 15.126 69.2007 14.7373 70.55 14.576L73.3 14.268V13.498C73.3 13.19 73.1607 12.904 72.882 12.64C72.6033 12.376 72.1633 12.244 71.562 12.244C71.034 12.244 70.572 12.376 70.176 12.64C69.7947 12.8893 69.538 13.2707 69.406 13.784L66.986 12.904C67.2793 11.9213 67.8367 11.166 68.658 10.638C69.4793 10.11 70.4913 9.846 71.694 9.846C73.1607 9.846 74.2607 10.2127 74.994 10.946C75.742 11.6647 76.116 12.618 76.116 13.806V21H73.52ZM73.3 16.226L70.924 16.534C70.44 16.5927 70.0733 16.7393 69.824 16.974C69.5747 17.194 69.45 17.4653 69.45 17.788C69.45 18.096 69.5747 18.36 69.824 18.58C70.0733 18.7853 70.4253 18.888 70.88 18.888C71.3933 18.888 71.826 18.7927 72.178 18.602C72.5447 18.4113 72.8233 18.1327 73.014 17.766C73.2047 17.3993 73.3 16.9447 73.3 16.402V16.226ZM78.6965 5.16H81.5125V21H78.6965V5.16Z" fill="#260B6A"/>
</svg>
