<svg width="188" height="61" viewBox="0 0 188 61" fill="none" xmlns="http://www.w3.org/2000/svg">
<path d="M17.9192 17.4678H16.2692L4.71924 48.9678H0.669238L13.4692 13.9678H20.6692L33.4192 48.9678H29.3692L17.9192 17.4678ZM6.91924 36.2678H27.3192V39.7678H6.91924V36.2678ZM37.663 23.9678H41.113L41.363 27.5678C42.0963 26.3678 43.0797 25.4178 44.313 24.7178C45.5797 23.9844 47.0797 23.6178 48.813 23.6178C50.5797 23.6178 52.1797 24.0511 53.613 24.9178C55.0797 25.7511 56.213 27.0011 57.013 28.6678C57.7797 26.9678 58.9463 25.7011 60.513 24.8678C62.0797 24.0344 63.813 23.6178 65.713 23.6178C67.5797 23.6178 69.2297 24.0344 70.663 24.8678C72.0963 25.6678 73.213 26.8844 74.013 28.5178C74.813 30.1178 75.213 32.1344 75.213 34.5678V48.9678H71.463V35.0178C71.463 32.4178 70.8963 30.4511 69.763 29.1178C68.663 27.7511 67.0797 27.0678 65.013 27.0678C62.913 27.0678 61.2463 27.8011 60.013 29.2678C58.7797 30.7011 58.163 32.8344 58.163 35.6678V48.9678H54.413V35.0178C54.413 32.4178 53.8797 30.4511 52.813 29.1178C51.7463 27.7511 50.1797 27.0678 48.113 27.0678C46.013 27.0678 44.363 27.8011 43.163 29.2678C41.9963 30.7011 41.413 32.8344 41.413 35.6678V48.9678H37.663V23.9678ZM95.0872 13.9678C98.8205 13.9678 102.054 14.7011 104.787 16.1678C107.554 17.6011 109.704 19.6344 111.237 22.2678C112.771 24.9011 113.537 28.0011 113.537 31.5678C113.537 35.1011 112.771 38.1678 111.237 40.7678C109.704 43.3678 107.554 45.3844 104.787 46.8178C102.054 48.2511 98.8205 48.9678 95.0872 48.9678H82.0372V13.9678H95.0872ZM94.8872 43.3178C98.6539 43.3178 101.554 42.2844 103.587 40.2178C105.621 38.1178 106.637 35.2344 106.637 31.5678C106.637 27.8678 105.621 24.9511 103.587 22.8178C101.554 20.6844 98.6539 19.6178 94.8872 19.6178H88.7872V43.3178H94.8872ZM119.208 23.9678H125.608V48.9678H119.208V23.9678ZM122.458 20.7678C121.258 20.7678 120.275 20.4011 119.508 19.6678C118.742 18.9011 118.358 17.9678 118.358 16.8678C118.358 15.7678 118.742 14.8511 119.508 14.1178C120.275 13.3511 121.258 12.9678 122.458 12.9678C123.592 12.9678 124.542 13.3511 125.308 14.1178C126.108 14.8511 126.508 15.7678 126.508 16.8678C126.508 17.9678 126.108 18.9011 125.308 19.6678C124.542 20.4011 123.592 20.7678 122.458 20.7678ZM134.416 23.9678V16.9678H140.916V23.9678H146.416V29.6178H140.916V39.7678C140.916 41.0678 141.183 41.9844 141.716 42.5178C142.283 43.0511 142.983 43.3344 143.816 43.3678C144.683 43.4011 145.549 43.3511 146.416 43.2178V48.7178C144.883 49.0511 143.383 49.1511 141.916 49.0178C140.483 48.8844 139.199 48.5011 138.066 47.8678C136.933 47.2011 136.033 46.2011 135.366 44.8678C134.733 43.5344 134.416 41.8344 134.416 39.7678V29.6178H130.866V23.9678H134.416ZM165.675 48.9678L165.175 45.9178C164.342 46.9511 163.392 47.7678 162.325 48.3678C161.292 48.9678 159.892 49.2678 158.125 49.2678C156.459 49.2678 154.992 48.9844 153.725 48.4178C152.492 47.8178 151.525 47.0011 150.825 45.9678C150.125 44.9011 149.775 43.6511 149.775 42.2178C149.775 40.1178 150.525 38.3844 152.025 37.0178C153.559 35.6178 155.859 34.7344 158.925 34.3678L165.175 33.6678V31.9178C165.175 31.2178 164.859 30.5678 164.225 29.9678C163.592 29.3678 162.592 29.0678 161.225 29.0678C160.025 29.0678 158.975 29.3678 158.075 29.9678C157.209 30.5344 156.625 31.4011 156.325 32.5678L150.825 30.5678C151.492 28.3344 152.759 26.6178 154.625 25.4178C156.492 24.2178 158.792 23.6178 161.525 23.6178C164.859 23.6178 167.359 24.4511 169.025 26.1178C170.725 27.7511 171.575 29.9178 171.575 32.6178V48.9678H165.675ZM165.175 38.1178L159.775 38.8178C158.675 38.9511 157.842 39.2844 157.275 39.8178C156.709 40.3178 156.425 40.9344 156.425 41.6678C156.425 42.3678 156.709 42.9678 157.275 43.4678C157.842 43.9344 158.642 44.1678 159.675 44.1678C160.842 44.1678 161.825 43.9511 162.625 43.5178C163.459 43.0844 164.092 42.4511 164.525 41.6178C164.959 40.7844 165.175 39.7511 165.175 38.5178V38.1178ZM177.44 12.9678H183.84V48.9678H177.44V12.9678Z" fill="#F3F2F7"/>
</svg>
