<svg width="18" height="19" viewBox="0 0 18 19" fill="none" xmlns="http://www.w3.org/2000/svg">
<path d="M0.704178 1.01364C0.605753 1.0523 0.465146 1.15424 0.335084 1.2843C-0.0375247 1.6534 0.00114226 0.697271 0.00114226 9.94922C0.00114226 19.2012 -0.0375247 18.245 0.335084 18.6141C0.704178 18.9867 -0.255466 18.9481 9.01758 18.9481H17.1376L17.3486 18.8461C17.6052 18.7231 17.7879 18.5368 17.9075 18.2802L17.9989 18.0869V9.9668C17.9989 0.693756 18.0375 1.6534 17.6649 1.2843C17.2958 0.915211 17.9672 0.950363 11.1197 0.950363H5.13682L5.06651 1.04176C4.97161 1.16127 4.97161 1.26673 5.06651 1.38624L5.13682 1.47764L11.0669 1.48467C17.4224 1.49521 17.0533 1.48467 17.2536 1.66746C17.454 1.84673 17.454 1.8397 17.4646 3.33014L17.4751 4.7116H15.8933C14.3536 4.7116 14.3044 4.71512 14.2376 4.78191C14.1462 4.8733 14.1462 5.06312 14.2341 5.17209L14.3009 5.25646L15.8862 5.267L17.4716 5.27755L17.4646 11.6119C17.454 17.5174 17.4505 17.9533 17.3942 18.0552C17.3204 18.1923 17.1447 18.3435 17.0216 18.3786C16.8986 18.4103 1.10139 18.4103 0.978362 18.3786C0.855331 18.3435 0.679572 18.1923 0.605753 18.0552C0.54951 17.9533 0.545995 17.5174 0.535449 11.6084L0.528419 5.27403H6.92604C13.7596 5.27403 13.4854 5.28106 13.5486 5.11585C13.5943 4.99633 13.5697 4.86276 13.4889 4.78894L13.408 4.7116H6.96471H0.524904L0.535449 3.33014C0.545995 1.8397 0.545995 1.84673 0.74636 1.66746C0.93618 1.4917 0.908058 1.49521 2.64807 1.47764C4.22639 1.46006 4.29669 1.45655 4.3459 1.39327C4.41972 1.29133 4.40918 1.10503 4.32481 1.02067C4.25802 0.953878 4.20881 0.950363 2.56019 0.953878C1.06273 0.953878 0.844785 0.960909 0.704178 1.01364Z" fill="white"/>
<path d="M2.00576 2.20456C1.82648 2.23269 1.54175 2.43657 1.42927 2.61584C1.28514 2.85487 1.26405 3.20639 1.37654 3.47706C1.6226 4.04652 2.39946 4.1801 2.84588 3.72312C3.00055 3.56494 3.07437 3.38918 3.09195 3.14312C3.13061 2.55608 2.61388 2.10966 2.00576 2.20456ZM2.44164 2.88651C2.57521 3.03415 2.56818 3.17475 2.41703 3.32591C2.28697 3.45597 2.19909 3.47354 2.04442 3.3927C1.92139 3.32942 1.86866 3.24154 1.86866 3.09391C1.86866 2.94275 1.92491 2.85136 2.05497 2.7916C2.20261 2.72833 2.32212 2.75645 2.44164 2.88651Z" fill="white"/>
<path d="M4.39865 2.2439C3.78349 2.46536 3.59367 3.25979 4.04713 3.72379C4.48653 4.17022 5.24581 4.05422 5.50241 3.50233C5.60084 3.28791 5.6149 2.95045 5.53405 2.7536C5.34775 2.30717 4.84859 2.08572 4.39865 2.2439ZM4.83101 2.79227C4.89429 2.82039 4.96459 2.87312 4.98568 2.91178C5.03489 3.00318 5.03489 3.18245 4.9892 3.27385C4.9435 3.3547 4.77477 3.44609 4.66932 3.44609C4.55683 3.44609 4.35646 3.22815 4.35646 3.1016C4.35646 2.9856 4.46895 2.8239 4.58144 2.77821C4.68338 2.73602 4.69392 2.73602 4.83101 2.79227Z" fill="white"/>
<path d="M6.95496 2.22559C6.5015 2.35214 6.2238 2.81614 6.32574 3.27663C6.47689 3.99373 7.36272 4.25033 7.85836 3.71954C8.04818 3.51918 8.1009 3.3856 8.1009 3.09384C8.1009 2.78451 8.02357 2.61226 7.81618 2.42596C7.58066 2.21856 7.25375 2.14474 6.95496 2.22559ZM7.37326 2.81263C7.66854 2.99542 7.55254 3.42778 7.20805 3.42778C6.86708 3.42778 6.75108 2.98839 7.04284 2.80911C7.17993 2.72475 7.22914 2.72475 7.37326 2.81263Z" fill="white"/>
<path d="M2.36945 6.79976C2.14097 6.90521 1.94763 7.09855 1.84218 7.32704C1.75781 7.50631 1.75781 7.50983 1.75781 8.86317C1.75781 10.3888 1.76133 10.4239 2.00739 10.7016C2.08472 10.7895 2.23588 10.902 2.34836 10.9582L2.54873 11.0566H3.93722C5.31869 11.0566 5.32572 11.0566 5.49093 10.9758C5.58233 10.9301 5.71942 10.8317 5.79675 10.7543C5.87409 10.677 5.97251 10.5399 6.01821 10.4485C6.09906 10.2833 6.09906 10.2763 6.09906 8.89481V7.50631L6.00063 7.30595C5.94439 7.19346 5.8319 7.04231 5.74402 6.96497C5.46633 6.71891 5.43117 6.7154 3.90559 6.7154C2.55224 6.7154 2.54873 6.7154 2.36945 6.79976ZM5.26948 7.33055C5.33626 7.36922 5.42063 7.44655 5.46281 7.49928C5.53311 7.59419 5.53663 7.63989 5.54717 8.84559C5.55772 10.0689 5.55421 10.097 5.48039 10.2271C5.4382 10.3009 5.34329 10.3958 5.26948 10.438C5.13941 10.5118 5.11129 10.5153 3.88801 10.5048C2.6823 10.4942 2.63661 10.4907 2.5417 10.4204C2.48897 10.3782 2.41164 10.2938 2.37297 10.2271C2.30618 10.1146 2.30267 10.0337 2.29212 9.07056C2.27454 7.7348 2.2886 7.62583 2.45733 7.44655C2.53115 7.3657 2.63661 7.2954 2.70691 7.27782C2.7737 7.26025 3.3537 7.2497 3.98995 7.25322C5.07966 7.26025 5.15699 7.26376 5.26948 7.33055Z" fill="white"/>
<path d="M7.54719 6.75114C7.27301 6.8355 6.96016 7.14132 6.86876 7.41902C6.81955 7.56314 6.81604 7.77757 6.82307 8.95164L6.83361 10.319L6.93907 10.5089C7.06913 10.7409 7.31871 10.9483 7.56125 11.0221C7.82841 11.0994 10.1625 11.0994 10.4296 11.0221C10.6722 10.9483 10.9218 10.7409 11.0518 10.5089L11.1573 10.319L11.1678 8.95164C11.1784 7.40847 11.1749 7.37332 10.9218 7.08859C10.8444 6.9972 10.7073 6.8812 10.6195 6.82847L10.4542 6.73356L9.04817 6.72653C8.27483 6.72301 7.59992 6.73356 7.54719 6.75114ZM10.3312 7.33466C10.398 7.37332 10.4894 7.45769 10.5316 7.52448C10.6124 7.64048 10.6124 7.65102 10.6124 8.8743C10.6124 10.2698 10.6089 10.2804 10.3453 10.4315C10.2117 10.5089 10.1871 10.5124 8.99545 10.5124C7.25192 10.5124 7.37846 10.6389 7.37846 8.88485C7.37846 7.58775 7.38198 7.55611 7.54719 7.40847C7.71592 7.25732 7.82841 7.24326 9.04817 7.25381C10.1484 7.26084 10.2152 7.26435 10.3312 7.33466Z" fill="white"/>
<path d="M12.5515 6.77164C12.3406 6.84897 12.1051 7.07394 11.9891 7.30595L11.8906 7.50631V8.89481C11.8906 10.2763 11.8906 10.2833 11.9715 10.4485C12.0769 10.6594 12.2878 10.8703 12.4988 10.9758C12.664 11.0566 12.671 11.0566 14.0525 11.0566C15.3953 11.0566 15.4445 11.0531 15.6027 10.9828C15.8241 10.8809 16.0245 10.6911 16.1264 10.4872L16.2143 10.3185L16.2248 8.91941L16.2354 7.51686L16.151 7.33407C16.0421 7.10207 15.8522 6.90873 15.6202 6.79976L15.441 6.7154L14.07 6.71891C12.9557 6.71891 12.671 6.72946 12.5515 6.77164ZM15.2652 7.27782C15.3566 7.29891 15.4515 7.35516 15.5359 7.44655C15.7011 7.62583 15.7151 7.73831 15.6976 9.07056C15.687 10.22 15.68 10.2481 15.4515 10.4134C15.3355 10.4942 15.3285 10.4942 14.0946 10.5048C12.8784 10.5153 12.8503 10.5118 12.7202 10.438C12.6464 10.3958 12.5515 10.3044 12.5093 10.2306C12.439 10.104 12.4355 10.0548 12.4355 8.89832C12.4355 7.62583 12.446 7.54849 12.6042 7.40789C12.7694 7.26025 12.896 7.24619 14.0349 7.24619C14.636 7.24619 15.1879 7.26025 15.2652 7.27782Z" fill="white"/>
<path d="M2.52412 12.6357C2.21479 12.7201 1.97575 12.9345 1.83163 13.2544C1.76133 13.4055 1.75781 13.4829 1.75781 14.787V16.1614L1.86678 16.3759C1.98981 16.6219 2.11636 16.7414 2.39054 16.8715L2.58388 16.9629H3.91965C5.14996 16.9629 5.26948 16.9559 5.42766 16.8961C5.64912 16.8117 5.88463 16.5938 6.00415 16.3653L6.09906 16.1896V14.7835V13.3774L6.00415 13.2016C5.88463 12.9767 5.68778 12.7869 5.46633 12.6849C5.29408 12.6041 5.26596 12.6041 3.98995 12.597C3.01273 12.59 2.64715 12.6006 2.52412 12.6357ZM5.29408 13.2403C5.34681 13.279 5.42414 13.3563 5.46281 13.409C5.53311 13.5004 5.53663 13.5567 5.54717 14.7308C5.55772 16.1017 5.55421 16.1228 5.3222 16.2985L5.19214 16.4005L3.97941 16.411C2.80885 16.4216 2.76667 16.418 2.61903 16.3477C2.52412 16.302 2.42921 16.2212 2.38351 16.1439C2.30267 16.0138 2.30267 16.0032 2.30267 14.7835C2.30267 13.6129 2.30618 13.5461 2.37297 13.4301C2.41515 13.3563 2.51006 13.2755 2.60146 13.2263C2.75964 13.1489 2.77018 13.1454 3.97941 13.156C5.14644 13.1665 5.20269 13.17 5.29408 13.2403Z" fill="white"/>
<path d="M7.64286 12.6181C7.45656 12.6638 7.16832 12.8431 7.05934 12.9802C6.86953 13.2192 6.82031 13.4126 6.82031 13.8977C6.82031 14.3054 6.82383 14.3371 6.90116 14.4074C7.0031 14.5023 7.17183 14.5058 7.2808 14.4179C7.35813 14.3546 7.36517 14.3195 7.38274 13.9328C7.40383 13.4512 7.45304 13.3282 7.68153 13.2192C7.81862 13.1524 7.90299 13.1489 8.99972 13.1489C10.1 13.1489 10.1808 13.1524 10.3179 13.2192C10.4093 13.2649 10.4902 13.3387 10.5394 13.4266C10.6132 13.5602 10.6167 13.5918 10.6167 14.7905C10.6167 16.0103 10.6167 16.0208 10.5394 16.1368C10.4937 16.2001 10.4128 16.288 10.3601 16.3266C10.2617 16.3969 10.223 16.4005 8.99972 16.4005C7.77996 16.4005 7.73777 16.3969 7.64286 16.3266C7.42844 16.1685 7.40032 16.0946 7.38274 15.6377C7.36517 15.2475 7.35813 15.2123 7.2808 15.1491C7.1648 15.0541 6.99256 15.0612 6.89413 15.1666C6.82031 15.2475 6.8168 15.2721 6.82734 15.7185C6.83789 16.1228 6.84843 16.2142 6.91874 16.3512C7.02771 16.5727 7.22104 16.7625 7.45304 16.8715L7.64638 16.9629H8.99972H10.3531L10.5464 16.8715C10.7784 16.7625 10.9717 16.5727 11.0807 16.3512C11.1616 16.1931 11.1616 16.1614 11.1721 14.8327C11.1826 13.5321 11.1791 13.4653 11.1088 13.279C11.0174 13.0329 10.81 12.8185 10.5534 12.699L10.3531 12.6041L9.05245 12.597C8.33887 12.5935 7.70262 12.6041 7.64286 12.6181Z" fill="white"/>
<path d="M12.7061 12.6252C12.3968 12.699 12.1332 12.9134 11.975 13.2192L11.8906 13.3774V14.7835V16.1896L11.9855 16.3688C12.098 16.5797 12.3124 16.7836 12.5374 16.8891C12.6921 16.9594 12.7448 16.9629 14.0525 16.9629H15.4058L15.5991 16.8715C15.8733 16.7414 15.9999 16.6219 16.1229 16.3759L16.2319 16.1614V14.7835V13.4055L16.1229 13.1911C16.0069 12.9591 15.8136 12.7728 15.578 12.6673C15.455 12.6111 15.3003 12.6041 14.1403 12.597C13.4268 12.5935 12.78 12.6076 12.7061 12.6252ZM15.3882 13.2263C15.4796 13.2755 15.5745 13.3563 15.6167 13.4301C15.6835 13.5461 15.687 13.6129 15.687 14.7835C15.687 16.0032 15.687 16.0138 15.6062 16.1439C15.5605 16.2212 15.4656 16.302 15.3707 16.3477C15.223 16.418 15.1808 16.4216 14.0068 16.411C12.8432 16.4005 12.787 16.3969 12.6956 16.3266C12.6429 16.288 12.5655 16.2106 12.5269 16.1579C12.4566 16.0665 12.4531 16.0103 12.4425 14.8784C12.4355 14.2281 12.4425 13.6446 12.4531 13.5813C12.4777 13.4407 12.6253 13.2614 12.7694 13.1981C12.8503 13.163 13.1526 13.1524 14.0525 13.1489C15.209 13.1489 15.2371 13.1489 15.3882 13.2263Z" fill="white"/>
</svg>
