<svg width="18" height="18" viewBox="0 0 18 18" fill="none" xmlns="http://www.w3.org/2000/svg">
<path d="M10.2586 15.6641C10.1307 15.8845 9.94716 16.0674 9.72635 16.1946C9.50554 16.3218 9.25519 16.3888 9.00037 16.3888C8.74555 16.3888 8.4952 16.3218 8.27439 16.1946C8.05357 16.0674 7.87005 15.8845 7.74219 15.6641" stroke="#26212E" stroke-width="1.2" stroke-linecap="round" stroke-linejoin="round"/>
<path d="M13.8221 9.84339C13.4986 8.65896 13.3443 7.4347 13.364 6.20703" stroke="#26212E" stroke-width="1.2" stroke-linecap="round" stroke-linejoin="round"/>
<path d="M4.82501 4.94531C4.69866 5.35521 4.63491 5.78184 4.63592 6.21077C4.63592 11.3017 2.4541 12.7562 2.4541 12.7562H12.6359" stroke="#26212E" stroke-width="1.2" stroke-linecap="round" stroke-linejoin="round"/>
<path d="M13.3636 6.20996C13.3648 5.41946 13.1512 4.64349 12.7456 3.96493C12.3401 3.28638 11.7579 2.73072 11.0611 2.35733C10.3644 1.98393 9.57927 1.80682 8.78969 1.84491C8.00011 1.883 7.2357 2.13486 6.57812 2.57359" stroke="#26212E" stroke-width="1.2" stroke-linecap="round" stroke-linejoin="round"/>
<path d="M1 1.11719L17 17.1172" stroke="#26212E" stroke-width="1.2" stroke-linecap="round" stroke-linejoin="round"/>
</svg>
