<svg width="21" height="22" viewBox="0 0 21 22" fill="none" xmlns="http://www.w3.org/2000/svg">
<path d="M16.4119 7.00195C16.4119 5.41065 15.7797 3.88453 14.6545 2.75931C13.5293 1.63409 12.0032 1.00195 10.4119 1.00195C8.82057 1.00195 7.29444 1.63409 6.16922 2.75931C5.04401 3.88453 4.41187 5.41065 4.41187 7.00195C4.41187 14.002 1.41187 16.002 1.41187 16.002H19.4119C19.4119 16.002 16.4119 14.002 16.4119 7.00195Z" stroke="#260B6A" stroke-width="2" stroke-linecap="round" stroke-linejoin="round"/>
<path d="M12.1419 20.002C11.9661 20.305 11.7137 20.5566 11.4101 20.7315C11.1065 20.9064 10.7623 20.9984 10.4119 20.9984C10.0615 20.9984 9.71727 20.9064 9.41366 20.7315C9.11004 20.5566 8.8577 20.305 8.68188 20.002" stroke="#260B6A" stroke-width="2" stroke-linecap="round" stroke-linejoin="round"/>
</svg>
