<svg width="21" height="23" viewBox="0 0 21 23" fill="none" xmlns="http://www.w3.org/2000/svg">
<path d="M5.80829 1.04995C5.43661 1.19366 5.00546 1.60994 4.82706 1.99649L4.68334 2.3087L4.66847 4.64779L4.65361 6.99184H2.82991C0.763377 6.99184 0.64444 7.00671 0.337186 7.32387C-0.0196246 7.6906 0.000198228 7.30901 0.000198228 13.6275C0.000198228 17.4385 0.0200211 19.3662 0.054711 19.4951C0.119135 19.728 0.352053 20.0006 0.599839 20.1294C0.7832 20.2186 0.92196 20.2236 4.39095 20.2236C7.2504 20.2236 7.98384 20.2384 7.96402 20.288C7.95411 20.3177 7.84508 20.7538 7.72615 21.2494L7.51305 22.1563H6.78456C6.05607 22.1563 6.05112 22.1563 5.952 22.2852C5.8182 22.4536 5.8182 22.6519 5.952 22.8204L6.05112 22.9492H10.09C14.0595 22.9492 14.124 22.9492 14.2231 22.8501C14.342 22.7312 14.3569 22.419 14.2528 22.2752C14.1884 22.191 14.0992 22.1761 13.45 22.1563L12.7165 22.1315L12.5332 21.2395C12.4291 20.7489 12.3449 20.3177 12.3399 20.283C12.3399 20.2384 13.0783 20.2236 15.8733 20.2236C19.1986 20.2236 19.4117 20.2137 19.605 20.1294C19.8478 20.0204 20.0857 19.7429 20.165 19.4852C20.2492 19.2027 20.2443 8.04741 20.16 7.76493C20.0708 7.47255 19.709 7.12565 19.4167 7.05131C19.2581 7.01166 18.599 6.99184 17.3749 6.99184H15.5661L15.5512 4.64779L15.5363 2.3087L15.3926 1.99649C15.2093 1.60003 14.7831 1.19366 14.3965 1.04995C14.124 0.945879 14.0546 0.945879 10.095 0.950835C6.17501 0.950835 6.06598 0.955791 5.80829 1.04995ZM14.1587 1.8726C14.4064 2.0064 14.5898 2.23436 14.6691 2.50693C14.7087 2.65064 14.7186 4.0432 14.7087 7.66582L14.6939 12.6265L14.5452 12.8644C14.4461 13.0229 14.3222 13.1419 14.1785 13.2212L13.9604 13.3351H10.1098H6.25926L6.04121 13.2212C5.89749 13.1419 5.7736 13.0229 5.67448 12.8644L5.52581 12.6265L5.51094 7.66582C5.50103 4.0432 5.51094 2.65064 5.55059 2.50693C5.66457 2.12534 5.94209 1.86764 6.3435 1.78339C6.43766 1.76357 8.19198 1.75366 10.2337 1.75366L13.9505 1.76357L14.1587 1.8726ZM4.66847 10.2973C4.68334 12.7405 4.68334 12.7702 4.79732 13.0477C4.95591 13.4442 5.28794 13.7911 5.68935 13.9893L6.02138 14.1528H10.1098H14.1983L14.5303 13.9893C14.9317 13.7911 15.2638 13.4442 15.4224 13.0477C15.5363 12.7702 15.5363 12.7405 15.5512 10.2973L15.5661 7.83431H17.37C19.1144 7.83431 19.1837 7.83927 19.2779 7.93343C19.377 8.03254 19.377 8.09696 19.377 12.567V17.1015H10.1098H0.842668V12.567C0.842668 8.09696 0.842668 8.03254 0.941783 7.93343C1.03594 7.83927 1.10532 7.83431 2.84973 7.83431H4.65361L4.66847 10.2973ZM19.377 18.5832C19.377 19.0986 19.3621 19.2423 19.2977 19.3018C19.2283 19.3712 18.3264 19.3811 10.0851 19.3811C1.10037 19.3811 0.946738 19.3811 0.892225 19.287C0.867447 19.2324 0.842668 18.9103 0.842668 18.5684V17.944H10.1098H19.377V18.5832ZM11.656 21.185C11.7601 21.7004 11.8344 22.1315 11.8245 22.1414C11.8196 22.1513 11.0415 22.1513 10.1049 22.1464L8.39517 22.1315L8.61817 21.1751L8.84118 20.2236L10.1544 20.2335L11.4677 20.2484L11.656 21.185Z" fill="white"/>
<path d="M9.46594 2.68573C9.09426 2.8344 8.72259 3.21599 8.57887 3.59758C8.47976 3.85032 8.46985 3.95935 8.48967 4.32607C8.50949 4.7374 8.50454 4.76217 8.39055 4.8712C8.17746 5.06447 7.96932 5.40642 7.85038 5.74836C7.75622 6.00606 7.73145 6.17951 7.73145 6.5611C7.73145 7.08145 7.80083 7.30445 8.0387 7.51755C8.32613 7.7802 8.35091 7.78516 10.1052 7.78516C11.022 7.78516 11.7951 7.76533 11.8645 7.7356C12.0677 7.66126 12.3799 7.3441 12.4493 7.15083C12.5434 6.86835 12.5137 6.17455 12.3898 5.79792C12.2659 5.4312 12.1371 5.21314 11.8992 4.94554C11.7307 4.76217 11.7307 4.75722 11.7257 4.25174C11.7208 3.8305 11.701 3.70661 11.6068 3.51829C11.4383 3.1813 11.1955 2.91865 10.8981 2.75511C10.6702 2.63122 10.5661 2.60644 10.1845 2.59653C9.82275 2.58166 9.68895 2.60149 9.46594 2.68573ZM10.5116 3.53812C11.027 3.88501 11.0369 4.51439 10.5413 4.88111C10.4373 4.9604 10.3282 4.98518 10.1102 4.98518C9.78311 4.98518 9.61957 4.89598 9.43125 4.6135C9.09922 4.1328 9.50559 3.42413 10.1102 3.42413C10.2688 3.42413 10.3976 3.45882 10.5116 3.53812ZM9.44116 5.72358C9.88222 5.93668 10.6107 5.87225 11.0468 5.57987L11.2203 5.46093L11.3788 5.67898C11.5771 5.96146 11.6564 6.24393 11.6365 6.62057L11.6217 6.91791H10.1102H8.59869L8.58383 6.60074C8.56896 6.24393 8.65321 5.93172 8.85639 5.64429C8.98524 5.45597 8.98524 5.45597 9.11409 5.54022C9.18347 5.58482 9.33214 5.66907 9.44116 5.72358Z" fill="white"/>
<path d="M6.59549 8.8053C6.45177 8.98866 6.46168 9.22653 6.62026 9.3752L6.74911 9.49414H10.1091H13.4691L13.5979 9.3752C13.7565 9.22653 13.7664 8.98866 13.6227 8.8053L13.5236 8.67645H10.1091H6.6946L6.59549 8.8053Z" fill="white"/>
<path d="M6.7881 10.1981C6.50067 10.3071 6.40651 10.6342 6.59482 10.877L6.69394 11.0059H10.1084H13.5229L13.622 10.877C13.7657 10.6936 13.7558 10.4558 13.5972 10.3071L13.4684 10.1882L10.1679 10.1783C8.34915 10.1733 6.82774 10.1832 6.7881 10.1981Z" fill="white"/>
</svg>
