<svg width="17" height="17" viewBox="0 0 17 17" fill="none" xmlns="http://www.w3.org/2000/svg">
<path d="M8.75781 16.7266C13.1761 16.7266 16.7578 13.1448 16.7578 8.72656C16.7578 4.30828 13.1761 0.726562 8.75781 0.726562C4.33953 0.726562 0.757812 4.30828 0.757812 8.72656C0.757812 13.1448 4.33953 16.7266 8.75781 16.7266Z" fill="#FFF2ED"/>
<path d="M6.84375 6.46772C6.98474 6.06692 7.26304 5.72895 7.62934 5.51367C7.99564 5.29839 8.42631 5.2197 8.84508 5.29153C9.26384 5.36335 9.64367 5.58107 9.9173 5.90611C10.1909 6.23116 10.3407 6.64255 10.34 7.06743C10.34 8.26685 8.54092 8.86655 8.54092 8.86655" stroke="#FF845C" stroke-linecap="round" stroke-linejoin="round"/>
<path d="M8.58594 11.2656H8.59268" stroke="#FF845C" stroke-width="1.5" stroke-linecap="round" stroke-linejoin="round"/>
</svg>
