<svg width="24" height="20" viewBox="0 0 24 20" fill="none" xmlns="http://www.w3.org/2000/svg">
<path d="M15.6914 14.4307L11.6914 10.4307L7.69141 14.4307" stroke="#9F9F9F" stroke-linecap="round" stroke-linejoin="round"/>
<path d="M11.6914 10.4307V19.4307" stroke="#9F9F9F" stroke-linecap="round" stroke-linejoin="round"/>
<path d="M20.0809 16.8211C21.0562 16.2894 21.8267 15.448 22.2708 14.4298C22.7148 13.4115 22.8071 12.2744 22.5331 11.1978C22.2591 10.1213 21.6344 9.16665 20.7575 8.48458C19.8807 7.80252 18.8017 7.43187 17.6909 7.43114H16.4309C16.1282 6.26038 15.564 5.17347 14.7808 4.25213C13.9976 3.33079 13.0157 2.59899 11.909 2.11174C10.8022 1.6245 9.59943 1.3945 8.391 1.43902C7.18256 1.48354 5.99995 1.80144 4.93205 2.3688C3.86416 2.93617 2.93879 3.73824 2.2255 4.71472C1.51221 5.6912 1.02957 6.81667 0.813858 8.00653C0.598148 9.19639 0.654983 10.4197 0.980092 11.5844C1.3052 12.7491 1.89012 13.825 2.69088 14.7311" stroke="#9F9F9F" stroke-linecap="round" stroke-linejoin="round"/>
<path d="M15.6914 14.4307L11.6914 10.4307L7.69141 14.4307" stroke="#9F9F9F" stroke-linecap="round" stroke-linejoin="round"/>
</svg>
