<svg width="9" height="6" viewBox="0 0 9 6" fill="none" xmlns="http://www.w3.org/2000/svg">
<path d="M4.00742 3.4115L1.41948 0.82356C1.25964 0.663704 1.0681 0.583776 0.844863 0.583776C0.621623 0.583776 0.427322 0.663704 0.261959 0.82356C0.096597 0.988922 0.013916 1.18598 0.013916 1.41472C0.013916 1.64348 0.096597 1.84054 0.261959 2.00588L3.42866 5.17258C3.59402 5.33795 3.78694 5.42063 4.00742 5.42063C4.2279 5.42063 4.42082 5.33795 4.58618 5.17258L7.77769 1.98108C7.94305 1.81573 8.02159 1.62281 8.01333 1.40232C8.00506 1.18184 7.91824 0.988922 7.75288 0.82356C7.58752 0.663704 7.3946 0.582403 7.17412 0.579658C6.95364 0.576896 6.76072 0.658197 6.59536 0.82356L4.00742 3.4115Z" fill="#1A1036"/>
</svg>
