<svg width="23" height="21" viewBox="0 0 23 21" fill="none" xmlns="http://www.w3.org/2000/svg">
<path d="M19.6626 5.52051H3.6626C2.55803 5.52051 1.6626 6.41594 1.6626 7.52051V17.5205C1.6626 18.6251 2.55803 19.5205 3.6626 19.5205H19.6626C20.7672 19.5205 21.6626 18.6251 21.6626 17.5205V7.52051C21.6626 6.41594 20.7672 5.52051 19.6626 5.52051Z" stroke="white" stroke-width="1.5" stroke-linecap="round" stroke-linejoin="round"/>
<path d="M15.6626 19.5205V3.52051C15.6626 2.99007 15.4519 2.48137 15.0768 2.10629C14.7017 1.73122 14.193 1.52051 13.6626 1.52051H9.6626C9.13216 1.52051 8.62346 1.73122 8.24838 2.10629C7.87331 2.48137 7.6626 2.99007 7.6626 3.52051V19.5205" stroke="white" stroke-width="1.5" stroke-linecap="round" stroke-linejoin="round"/>
</svg>
