<svg width="17" height="17" viewBox="0 0 17 17" fill="none" xmlns="http://www.w3.org/2000/svg">
<path d="M8.12305 16.2305C12.5413 16.2305 16.123 12.6487 16.123 8.23047C16.123 3.81219 12.5413 0.230469 8.12305 0.230469C3.70477 0.230469 0.123047 3.81219 0.123047 8.23047C0.123047 12.6487 3.70477 16.2305 8.12305 16.2305Z" fill="#FFF2ED"/>
<path d="M6.375 6.43257C6.51599 6.03176 6.79429 5.69379 7.16059 5.47851C7.52689 5.26323 7.95756 5.18454 8.37633 5.25637C8.79509 5.3282 9.17492 5.54591 9.44855 5.87096C9.72217 6.196 9.87193 6.6074 9.87129 7.03227C9.87129 8.23169 8.07217 8.8314 8.07217 8.8314" stroke="#FF845C" stroke-width="1.5" stroke-linecap="round" stroke-linejoin="round"/>
<path d="M8.12109 11.2305H8.12609" stroke="#FF845C" stroke-width="2" stroke-linecap="round" stroke-linejoin="round"/>
</svg>
