<svg width="24" height="25" viewBox="0 0 24 25" fill="none" xmlns="http://www.w3.org/2000/svg">
<path d="M23 4.58984V10.5898H17" stroke="#9F9F9F" stroke-width="2" stroke-linecap="round" stroke-linejoin="round"/>
<path d="M1 20.5898V14.5898H7" stroke="#9F9F9F" stroke-width="2" stroke-linecap="round" stroke-linejoin="round"/>
<path d="M3.51 9.59138C4.01717 8.15817 4.87913 6.87679 6.01547 5.8668C7.1518 4.85682 8.52547 4.15115 10.0083 3.81564C11.4911 3.48014 13.0348 3.52573 14.4952 3.94816C15.9556 4.37059 17.2853 5.1561 18.36 6.23138L23 10.5914M1 14.5914L5.64 18.9514C6.71475 20.0267 8.04437 20.8122 9.50481 21.2346C10.9652 21.657 12.5089 21.7026 13.9917 21.3671C15.4745 21.0316 16.8482 20.3259 17.9845 19.316C19.1209 18.306 19.9828 17.0246 20.49 15.5914" stroke="#9F9F9F" stroke-width="2" stroke-linecap="round" stroke-linejoin="round"/>
</svg>
