<svg width="21" height="20" viewBox="0 0 21 20" fill="none" xmlns="http://www.w3.org/2000/svg">
<path d="M8.78387 16.7431C6.45731 16.7431 4.48034 15.93 2.85295 14.3038C1.22556 12.6776 0.411865 10.7026 0.411865 8.37882C0.411865 6.05503 1.22556 4.07761 2.85295 2.44655C4.48034 0.815518 6.45677 0 8.78225 0C11.1077 0 13.0866 0.815518 14.7188 2.44655C16.351 4.07761 17.1672 6.05557 17.1672 8.38044C17.1672 9.30352 17.0002 10.2154 16.6662 11.1161C16.3322 12.0169 15.9009 12.824 15.3722 13.5376L20.0935 18.2555C20.3058 18.4675 20.4119 18.7077 20.4119 18.976C20.4119 19.2442 20.3058 19.4795 20.0935 19.6819C19.891 19.894 19.6531 20 19.3798 20C19.1065 20 18.8686 19.894 18.6661 19.6819L13.9302 14.964C13.2258 15.502 12.4253 15.933 11.5288 16.2571C10.6323 16.5811 9.7173 16.7431 8.78387 16.7431ZM8.80193 14.7095C10.55 14.7095 12.0397 14.0903 13.2708 12.8517C14.502 11.6132 15.1176 10.1157 15.1176 8.35916C15.1176 6.61233 14.5027 5.12379 13.273 3.89353C12.0432 2.66325 10.5486 2.04811 8.78909 2.04811C7.03986 2.04811 5.54554 2.66253 4.30611 3.89137C3.06667 5.12021 2.44695 6.61375 2.44695 8.37199C2.44695 10.12 3.06667 11.6132 4.30611 12.8517C5.54554 14.0903 7.04414 14.7095 8.80193 14.7095Z" fill="#260B6A"/>
</svg>
