<svg width="15" height="15" viewBox="0 0 15 15" fill="none" xmlns="http://www.w3.org/2000/svg">
<path d="M6.39165 12.2202C4.76306 12.2202 3.37918 11.651 2.24001 10.5127C1.10084 9.37433 0.53125 7.99183 0.53125 6.36518C0.53125 4.73852 1.10084 3.35432 2.24001 2.21259C3.37918 1.07086 4.76269 0.5 6.39052 0.5C8.01836 0.5 9.40356 1.07086 10.5461 2.21259C11.6887 3.35432 12.26 4.7389 12.26 6.36631C12.26 7.01246 12.1431 7.65079 11.9093 8.28129C11.6755 8.9118 11.3736 9.47681 11.0035 9.97632L14.3084 13.2788C14.457 13.4273 14.5312 13.5954 14.5312 13.7832C14.5312 13.9709 14.457 14.1357 14.3084 14.2773C14.1666 14.4258 14.0001 14.5 13.8088 14.5C13.6175 14.5 13.451 14.4258 13.3092 14.2773L9.99411 10.9748C9.50102 11.3514 8.94069 11.6531 8.31311 11.8799C7.68554 12.1068 7.04505 12.2202 6.39165 12.2202ZM6.4043 10.7967C7.62796 10.7967 8.6707 10.3632 9.53251 9.4962C10.3943 8.62924 10.8252 7.58097 10.8252 6.35141C10.8252 5.12863 10.3948 4.08665 9.53402 3.22547C8.67321 2.36428 7.62697 1.93368 6.3953 1.93368C5.17085 1.93368 4.12482 2.36377 3.25722 3.22396C2.38961 4.08415 1.95581 5.12963 1.95581 6.3604C1.95581 7.58397 2.38961 8.62924 3.25722 9.4962C4.12482 10.3632 5.17384 10.7967 6.4043 10.7967Z" fill="#746892" fill-opacity="0.5"/>
</svg>
