<svg width="22" height="22" viewBox="0 0 22 22" fill="none" xmlns="http://www.w3.org/2000/svg">
<path d="M19.4967 1.24609H2.57362C2.16559 1.24609 1.77428 1.40818 1.48576 1.6967C1.19724 1.98522 1.03516 2.37653 1.03516 2.78456V19.7076C1.03516 20.1157 1.19724 20.507 1.48576 20.7955C1.77428 21.084 2.16559 21.2461 2.57362 21.2461H19.4967C19.9047 21.2461 20.296 21.084 20.5846 20.7955C20.8731 20.507 21.0352 20.1157 21.0352 19.7076V2.78456C21.0352 2.37653 20.8731 1.98522 20.5846 1.6967C20.296 1.40818 19.9047 1.24609 19.4967 1.24609Z" stroke="white" stroke-linecap="round" stroke-linejoin="round"/>
<path d="M11.0357 1.24609V4.52609C10.7036 4.22909 10.2927 4.03454 9.85255 3.96593C9.41237 3.89732 8.96175 3.95759 8.55507 4.13945C8.14839 4.32132 7.80305 4.617 7.56072 4.99082C7.3184 5.36464 7.18945 5.8006 7.18945 6.24609C7.18945 6.69158 7.3184 7.12755 7.56072 7.50137C7.80305 7.87519 8.14839 8.17087 8.55507 8.35273C8.96175 8.5346 9.41237 8.59486 9.85255 8.52626C10.2927 8.45765 10.7036 8.2631 11.0357 7.96609V14.5261C11.3677 14.2291 11.7786 14.0345 12.2188 13.9659C12.659 13.8973 13.1096 13.9576 13.5163 14.1395C13.9229 14.3213 14.2683 14.617 14.5106 14.9908C14.7529 15.3646 14.8819 15.8006 14.8819 16.2461C14.8819 16.6916 14.7529 17.1275 14.5106 17.5014C14.2683 17.8752 13.9229 18.1709 13.5163 18.3527C13.1096 18.5346 12.659 18.5949 12.2188 18.5263C11.7786 18.4576 11.3677 18.2631 11.0357 17.9661V21.2461" stroke="white" stroke-linecap="round" stroke-linejoin="round"/>
<path d="M1.03516 11.2466H4.31516C4.01815 11.5786 3.8236 11.9895 3.755 12.4297C3.68639 12.8699 3.74665 13.3205 3.92852 13.7272C4.11038 14.1339 4.40607 14.4792 4.77988 14.7215C5.1537 14.9639 5.58967 15.0928 6.03516 15.0928C6.48065 15.0928 6.91661 14.9639 7.29043 14.7215C7.66425 14.4792 7.95993 14.1339 8.1418 13.7272C8.32366 13.3205 8.38393 12.8699 8.31532 12.4297C8.24671 11.9895 8.05216 11.5786 7.75516 11.2466H14.3152C14.0182 10.9146 13.8236 10.5037 13.755 10.0635C13.6864 9.62331 13.7467 9.17268 13.9285 8.76601C14.1104 8.35933 14.4061 8.01399 14.7799 7.77166C15.1537 7.52934 15.5897 7.40039 16.0352 7.40039C16.4806 7.40039 16.9166 7.52934 17.2904 7.77166C17.6642 8.01399 17.9599 8.35933 18.1418 8.76601C18.3237 9.17268 18.3839 9.62331 18.3153 10.0635C18.2467 10.5037 18.0522 10.9146 17.7552 11.2466H21.0352" stroke="white" stroke-linecap="round" stroke-linejoin="round"/>
</svg>
