<svg width="21" height="20" viewBox="0 0 21 20" fill="none" xmlns="http://www.w3.org/2000/svg">
<path fill-rule="evenodd" clip-rule="evenodd" d="M2.86904 2.70289C4.42835 1.16346 6.37282 0.352587 8.51656 0.0702844C14.1562 -0.67238 19.0037 4.5932 18.481 10.0638C18.3745 11.1787 18.0755 12.3463 17.5408 13.3355C17.3244 13.736 17.1002 14.133 16.8351 14.504C16.8075 14.5426 16.7674 14.5877 16.7243 14.6363C16.6234 14.7497 16.5059 14.882 16.4922 14.9938C16.4809 15.0855 16.5773 15.1734 16.6508 15.2405C16.6676 15.2559 16.6832 15.2701 16.696 15.283L17.3191 15.9062C17.5956 16.1827 17.8785 16.4559 18.1618 16.7296C18.7509 17.2987 19.3422 17.8698 19.883 18.4769C20.295 18.9393 20.283 19.85 19.5393 19.9831C18.9917 20.081 18.6523 19.7373 18.3023 19.3828C18.2733 19.3535 18.2442 19.324 18.215 19.2948L16.0728 17.1526C16.0217 17.1015 15.955 17.0217 15.8794 16.9314C15.6716 16.6831 15.3971 16.3551 15.1994 16.3255C15.0498 16.3032 14.7553 16.5464 14.5258 16.736C14.4263 16.8182 14.339 16.8904 14.2811 16.9263C13.5177 17.4004 12.7231 17.7435 11.8662 18.0085C8.62823 19.0095 4.92332 17.8916 2.63868 15.4388C-0.647536 11.9107 -0.578265 6.10623 2.86904 2.70289ZM3.69819 4.33817C5.09456 2.73254 6.88931 2.01501 8.9451 1.74509C9.66154 1.65102 10.4722 1.78482 11.1652 1.96676C14.591 2.86616 17.0545 6.09585 16.8094 9.67425C16.5671 13.213 13.7805 16.148 10.2694 16.5962C9.37627 16.7101 8.41285 16.6697 7.54292 16.4238C6.22911 16.0525 4.99874 15.4177 4.039 14.4259C1.39482 11.6935 1.17867 7.23531 3.69819 4.33817Z" fill="white"/>
<path fill-rule="evenodd" clip-rule="evenodd" d="M9.47762 11.5C10.5822 11.5 11.4776 10.6046 11.4776 9.5C11.4776 8.39543 10.5822 7.5 9.47762 7.5C8.37305 7.5 7.47762 8.39543 7.47762 9.5C7.47762 10.6046 8.37305 11.5 9.47762 11.5ZM13.4776 9.5C13.4776 10.543 13.0784 11.4928 12.4245 12.2048C13.6748 12.8419 14.6915 13.8717 15.3121 15.1317C15.2839 15.1377 15.2558 15.1446 15.2276 15.1526C15.024 15.2102 15.0155 15.1734 15.1118 15.0895C14.9097 15.2061 14.6796 15.3383 14.4185 15.4874C14.1066 15.6657 13.7978 15.8246 13.4926 15.9657C12.7498 14.5026 11.2308 13.5 9.47762 13.5C7.71422 13.5 6.18772 14.5143 5.44971 15.9913C4.79361 15.6701 4.24662 15.3026 3.82977 14.9544C3.80658 14.9351 3.78349 14.9186 3.7605 14.9047C4.38804 13.7481 5.35635 12.8032 6.53074 12.2048C5.87681 11.4928 5.47762 10.543 5.47762 9.5C5.47762 7.29086 7.26848 5.5 9.47762 5.5C11.6868 5.5 13.4776 7.29086 13.4776 9.5Z" fill="white"/>
</svg>
