<svg width="22" height="20" viewBox="0 0 22 20" fill="none" xmlns="http://www.w3.org/2000/svg">
<path d="M6.62139 3.76583L6.62133 3.7659C6.50703 3.90779 6.43325 4.02765 6.40457 4.13315C6.37473 4.24295 6.39397 4.3371 6.46167 4.4188C6.46557 4.42354 6.47043 4.42789 6.47282 4.43003L6.47295 4.43014C6.47678 4.43358 6.48167 4.43777 6.4874 4.44257C6.49893 4.45223 6.51494 4.46526 6.53506 4.48138C6.57536 4.51367 6.63295 4.55904 6.70582 4.61594C6.8516 4.72978 7.05903 4.8902 7.31263 5.08546C7.81984 5.47601 8.51204 6.00614 9.26569 6.58211L9.26577 6.58217L11.9711 8.64097L11.3883 9.40558L11.3882 9.40578C11.1297 9.74843 10.3157 10.8179 9.39874 12.0226C9.12473 12.3826 8.84152 12.7547 8.56119 13.123C7.56173 14.4348 7.00681 15.1666 6.70182 15.5864C6.5495 15.7961 6.45846 15.9294 6.40541 16.0189C6.35326 16.107 6.33302 16.1601 6.33302 16.2069C6.33302 16.2646 6.33907 16.3138 6.35891 16.3578C6.37909 16.4026 6.41122 16.437 6.45434 16.4693C6.58285 16.5677 6.76899 16.593 6.88655 16.4999M6.62139 3.76583L18.7842 4.30401L18.6263 4.0996L18.6083 4.35528C18.4941 5.96859 17.7393 7.80456 16.3196 9.9477L16.3195 9.94783C16.1869 10.1468 16.066 10.3311 15.9782 10.4666C15.9344 10.5344 15.8989 10.5898 15.8744 10.6287C15.8681 10.6388 15.8625 10.6476 15.8578 10.6553C15.8588 10.6561 15.8598 10.6569 15.8608 10.6577C15.8837 10.6763 15.9175 10.7032 15.9608 10.7372C16.0473 10.8053 16.1711 10.9016 16.3202 11.0169C16.6183 11.2475 17.0169 11.5539 17.4188 11.8616C17.8207 12.1693 18.2259 12.4784 18.5372 12.7144C18.6928 12.8324 18.8249 12.9321 18.9213 13.0042C18.9696 13.0403 19.0088 13.0694 19.0375 13.0904C19.0519 13.1009 19.0635 13.1093 19.0723 13.1155L19.0729 13.1159C19.0814 13.1093 19.0932 13.0983 19.1082 13.0817C19.1444 13.0415 19.1916 12.9776 19.2467 12.8931C19.3567 12.7249 19.4943 12.4817 19.6343 12.2017C20.4215 10.6195 20.6077 8.74989 20.1501 7.0396C20.0628 6.71528 20.0161 6.52127 20.0089 6.39489C20.0052 6.33046 20.0114 6.27888 20.0307 6.23459C20.0501 6.18988 20.0806 6.15775 20.116 6.12882L20.116 6.12881L20.1171 6.12796C20.3128 5.97672 20.5769 6.03372 20.681 6.25561L20.6812 6.2559C20.7065 6.31079 20.7387 6.41134 20.7732 6.53471C20.808 6.65928 20.8462 6.81047 20.8831 6.96885C20.957 7.28522 21.0267 7.63264 21.0563 7.85565L21.0563 7.85594C21.1232 8.38274 21.135 9.39437 21.0759 9.87929L21.0759 9.8794C20.9188 11.1442 20.4632 12.3894 19.7833 13.4229L19.7832 13.423C19.6008 13.6987 19.4722 13.8696 19.358 13.9548C19.2991 13.9988 19.241 14.0225 19.179 14.0242C19.1179 14.0258 19.0593 14.0059 18.9998 13.9746L18.9997 13.9748L18.9962 13.9726C18.9833 13.9644 18.8946 13.8985 18.7499 13.7899C18.6035 13.6802 18.397 13.5247 18.1456 13.3348C17.6428 12.955 16.9604 12.4376 16.2204 11.8733C15.4804 11.311 14.8021 10.7986 14.3048 10.4263C14.0562 10.2401 13.8529 10.089 13.7099 9.98429C13.6384 9.9319 13.5822 9.89126 13.5429 9.86366C13.5316 9.85566 13.5217 9.84884 13.5135 9.8432C13.501 9.85752 13.4845 9.87718 13.4638 9.90209C13.4149 9.96121 13.3441 10.0486 13.2539 10.1614C13.0735 10.3869 12.8158 10.7132 12.4998 11.1161C11.8678 11.9218 11.0029 13.0336 10.058 14.2577L6.68372 18.629L13.7438 18.6482C17.2287 18.658 19.0185 18.6638 19.9472 18.676C20.4112 18.6821 20.6617 18.6898 20.8015 18.7005C20.9383 18.711 20.9814 18.7245 21.0158 18.754L21.0167 18.7547C21.0874 18.8181 21.1183 18.9199 21.1177 19.0158C21.1172 19.1119 21.085 19.2147 21.0135 19.2815L21.0135 19.2815L21.013 19.2819L20.9271 19.36L20.9128 19.373H20.8935H11.0689H1.24422H1.22489L1.21059 19.36L1.12468 19.2819L1.12468 19.2819L1.12408 19.2813C1.04709 19.209 1.01419 19.1041 1.01805 19.0048C1.02191 18.9056 1.06272 18.8047 1.14284 18.7411L1.14284 18.7411L1.14345 18.7406C1.17158 18.719 1.19925 18.6999 1.24989 18.6862C1.29732 18.6734 1.364 18.6654 1.47062 18.66C1.68456 18.6492 2.07479 18.6482 2.8296 18.6482H4.35503L5.05839 17.7231C5.05841 17.7231 5.05843 17.7231 5.05845 17.7231C5.25575 17.4613 5.44329 17.2161 5.58595 17.032C5.65727 16.9399 5.71745 16.8629 5.76204 16.8068C5.80533 16.7522 5.83647 16.714 5.84784 16.7026C5.87665 16.6738 5.91667 16.653 5.95769 16.6393C5.99928 16.6254 6.04562 16.6177 6.09016 16.6177C6.19236 16.6177 6.27964 16.6495 6.34127 16.7129C6.40273 16.7761 6.43302 16.865 6.43302 16.9684C6.43302 17.0452 6.4083 17.1156 6.32414 17.2476C6.24034 17.379 6.09252 17.5789 5.83715 17.9162L5.83711 17.9162C5.67711 18.127 5.53081 18.322 5.42456 18.4658C5.37142 18.5377 5.32842 18.5967 5.29876 18.6382C5.29778 18.6396 5.29682 18.641 5.29587 18.6423C5.29669 18.6423 5.29751 18.6424 5.29834 18.6424C5.34841 18.6453 5.41827 18.6463 5.49537 18.6443L5.49537 18.6443H5.49662H5.75317L9.21349 14.1537L9.21351 14.1537C10.5275 12.4508 11.7018 10.9244 12.3312 10.1063C12.6166 9.73537 12.79 9.51002 12.8136 9.47977L12.909 9.35159L12.7372 9.21799L12.7368 9.21764L12.5659 9.08791L12.2292 9.52498L12.2291 9.52512C12.0262 9.78649 10.7573 11.4497 9.41005 13.2226L9.41001 13.2227C8.73444 14.1091 8.1145 14.9194 7.65903 15.5116C7.43131 15.8077 7.24465 16.0492 7.11271 16.2186C7.04675 16.3032 6.99437 16.3699 6.95733 16.4163C6.93884 16.4395 6.92402 16.4579 6.91318 16.4709C6.90779 16.4774 6.90317 16.4829 6.89947 16.4871L6.89922 16.4873C6.89684 16.4901 6.89178 16.4958 6.88655 16.4999M6.62139 3.76583C6.92047 3.39591 7.44238 2.87794 7.81997 2.57509M6.62139 3.76583L7.81997 2.57509M6.88655 16.4999L6.85552 16.4608L6.88621 16.5002C6.88632 16.5001 6.88643 16.5 6.88655 16.4999ZM20.0696 5.84127L20.0696 5.84124C20.2215 5.80444 20.3343 5.65896 20.3343 5.49979C20.3343 5.47795 20.3284 5.45195 20.3203 5.42548C20.312 5.39794 20.2999 5.36569 20.285 5.32988C20.255 5.2582 20.2123 5.16955 20.1607 5.07097C20.0574 4.8737 19.917 4.6341 19.7678 4.40636L19.7677 4.40626C19.4492 3.92256 19.1304 3.54101 18.6245 3.05467L20.0696 5.84127ZM20.0696 5.84127L20.068 5.84161M20.0696 5.84127L20.068 5.84161M20.068 5.84161C20.0131 5.853 19.962 5.85752 19.913 5.8495C19.863 5.84133 19.8183 5.82063 19.7756 5.78617C19.6934 5.71991 19.617 5.60062 19.518 5.41824M20.068 5.84161L19.518 5.41824M7.81997 2.57509C9.00288 1.61625 10.5856 0.964355 12.0985 0.807175M7.81997 2.57509L12.0985 0.807175M12.0985 0.807175C13.9015 0.618631 15.8811 1.07781 17.3166 2.0177C17.4002 2.07216 17.4788 2.12161 17.5381 2.15734C17.5679 2.17524 17.5924 2.18943 17.6102 2.19903C17.6115 2.19978 17.6129 2.20049 17.6142 2.20117L12.0984 0.807178C12.0985 0.807178 12.0985 0.807175 12.0985 0.807175ZM19.518 5.41824C19.3008 5.02255 19.1109 4.73183 18.7843 4.30422L19.518 5.41824ZM18.2035 2.64455L18.6243 3.05444L17.7564 2.02247L17.7967 2.05159L17.7564 2.02256C17.7564 2.02255 17.7564 2.02255 17.7564 2.02254C17.9117 1.80699 18.0114 1.67652 18.0934 1.60068C18.1353 1.56194 18.1746 1.5355 18.2165 1.51922C18.2585 1.50288 18.2998 1.49807 18.3436 1.49807C18.4519 1.49807 18.5421 1.52297 18.6049 1.58394C18.668 1.6452 18.6943 1.73391 18.6943 1.84093C18.6943 1.91289 18.6828 1.97176 18.6421 2.04879C18.6032 2.12255 18.537 2.21373 18.43 2.35185L18.2035 2.64455ZM13.75 1.53139L13.7499 1.53138C12.9824 1.44611 12.1289 1.49649 11.3569 1.66718C9.85578 2.00467 8.51376 2.78038 7.45853 3.92872L7.45852 3.92873L7.27285 4.13068L7.4171 4.24187L7.4171 4.24186L7.41799 4.24257C7.51875 4.32396 8.2714 4.89723 9.08419 5.51464L9.08427 5.5147L10.5252 6.61343L10.5689 6.55821L10.5691 6.55789C10.9569 6.07613 11.579 5.38359 12.0684 4.89809C13.4298 3.53675 14.7015 2.65205 15.8485 2.27761L16.1168 2.18996L15.938 2.11337L15.9378 2.11328C15.259 1.81849 14.4674 1.60894 13.75 1.53139ZM17.1814 2.8768L17.1811 2.87673C16.9454 2.80564 16.7241 2.80479 16.4097 2.87379C15.7444 3.01994 14.9321 3.45342 14.0784 4.09926C13.2257 4.74442 12.3351 5.59883 11.5133 6.58226L11.5133 6.58232C11.4022 6.71486 11.3009 6.83849 11.2276 6.93079C11.1909 6.977 11.1614 7.01504 11.1412 7.0423C11.1385 7.04594 11.136 7.04934 11.1337 7.05251C11.1376 7.05574 11.1419 7.05926 11.1466 7.06308C11.1764 7.08734 11.2204 7.12232 11.2766 7.16658C11.389 7.25506 11.5497 7.38008 11.7429 7.52951C12.1293 7.82834 12.6451 8.2245 13.163 8.62057C13.6808 9.01664 14.2006 9.41256 14.5947 9.71091C14.7918 9.8601 14.9575 9.98483 15.0757 10.073C15.1349 10.117 15.182 10.1519 15.2153 10.176C15.2258 10.1836 15.2348 10.19 15.2423 10.1953C15.2439 10.1936 15.2457 10.1918 15.2475 10.1898C15.267 10.1687 15.2939 10.1361 15.327 10.0932C15.393 10.0077 15.4812 9.88505 15.5803 9.74136C15.7784 9.45411 16.019 9.08498 16.2117 8.76575C17.1078 7.27932 17.6562 5.88858 17.8237 4.82574C17.9075 4.294 17.8953 3.84848 17.7873 3.51512C17.6799 3.18378 17.4789 2.96495 17.1814 2.8768ZM21.0068 7.86222L21.0068 7.86222L21.0068 7.86222Z" fill="white" stroke="white" stroke-width="0.1"/>
</svg>
