<svg width="21" height="20" viewBox="0 0 21 20" fill="none" xmlns="http://www.w3.org/2000/svg">
<path d="M7.6645 20C6.75694 20 5.98109 19.665 5.33694 18.995C4.69279 18.325 4.31076 17.5626 4.19087 16.7078C3.07087 16.6601 2.13031 16.2179 1.36919 15.3812C0.60809 14.5444 0.227539 13.5118 0.227539 12.2834C0.227539 11.8611 0.280155 11.4543 0.385386 11.0632C0.490635 10.672 0.648509 10.2964 0.859007 9.93628C0.648509 9.5988 0.490635 9.23828 0.385386 8.85473C0.280155 8.47117 0.227539 8.0593 0.227539 7.61913C0.227539 6.50077 0.60995 5.53815 1.37477 4.73128C2.13959 3.92438 3.049 3.4592 4.103 3.33572C4.169 2.3999 4.53473 1.60999 5.2002 0.965996C5.86566 0.321999 6.66316 0 7.59269 0C8.13749 0 8.61926 0.101344 9.03799 0.304035C9.45672 0.506726 9.85217 0.801631 10.2243 1.18875C10.5965 0.806106 10.9884 0.512324 11.4001 0.307405C11.8117 0.102467 12.2873 0 12.8269 0C13.737 0 14.5221 0.323094 15.1822 0.969284C15.8422 1.61545 16.2142 2.40645 16.2982 3.34226C17.3697 3.43243 18.2925 3.88241 19.0665 4.69221C19.8405 5.50201 20.2275 6.477 20.2275 7.61718C20.2275 8.06507 20.1683 8.48653 20.0498 8.88157C19.9313 9.27664 19.7646 9.64388 19.5498 9.98332C19.7474 10.353 19.9001 10.742 20.0079 11.1503C20.1157 11.5587 20.1696 11.9569 20.1696 12.3449C20.1696 13.5536 19.7965 14.5579 19.0505 15.3578C18.3044 16.1577 17.3799 16.5902 16.2771 16.6554C16.1615 17.5233 15.7746 18.2977 15.1162 18.9786C14.4579 19.6595 13.6806 20 12.7841 20C12.2437 20 11.7774 19.9109 11.3851 19.7326C10.9928 19.5543 10.6058 19.2869 10.2243 18.9304C9.84279 19.289 9.45512 19.5569 9.0613 19.7341C8.6675 19.9114 8.2019 20 7.6645 20ZM11.1229 3.42505V16.6208C11.1229 17.056 11.2885 17.4246 11.6196 17.7265C11.9507 18.0284 12.3477 18.1794 12.8105 18.1794C13.2565 18.1794 13.6426 17.9803 13.9689 17.582C14.2951 17.1838 14.4741 16.7765 14.5057 16.3599C14.1269 16.2182 13.7729 16.0306 13.4437 15.7972C13.1145 15.5637 12.8349 15.2774 12.6049 14.9384C12.4483 14.72 12.3904 14.4934 12.4311 14.2587C12.4719 14.024 12.5994 13.8274 12.8136 13.6688C13.0279 13.5103 13.2512 13.4514 13.4836 13.4923C13.7159 13.5332 13.9104 13.6629 14.067 13.8812C14.2919 14.1969 14.569 14.4382 14.8981 14.6051C15.2272 14.7721 15.5912 14.8556 15.9901 14.8556C16.6479 14.8556 17.2105 14.6264 17.6778 14.1681C18.1452 13.7098 18.3788 13.102 18.3788 12.3447C18.3788 12.1858 18.3619 12.018 18.3282 11.8412C18.2944 11.6644 18.2574 11.4874 18.2172 11.3102C17.9153 11.5214 17.5831 11.682 17.2206 11.792C16.8582 11.902 16.4831 11.957 16.0955 11.957C15.841 11.957 15.6287 11.8706 15.4586 11.6979C15.2885 11.5252 15.2034 11.3081 15.2034 11.0467C15.2034 10.7852 15.2885 10.5682 15.4586 10.3955C15.6287 10.2227 15.841 10.1364 16.0955 10.1364C16.7505 10.1364 17.3045 9.88931 17.7574 9.39519C18.2104 8.90106 18.4368 8.30997 18.4368 7.62192C18.4368 6.95214 18.1939 6.37942 17.7081 5.90375C17.2223 5.42811 16.669 5.17203 16.0481 5.1355C15.8598 5.59565 15.5942 6.00231 15.2511 6.35548C14.9081 6.70865 14.5102 6.97179 14.0576 7.14491C13.8163 7.2406 13.5836 7.23486 13.3596 7.12771C13.1356 7.02057 12.984 6.84446 12.9048 6.59938C12.8287 6.35837 12.8419 6.12303 12.9447 5.89334C13.0474 5.66366 13.2151 5.50573 13.4478 5.41956C13.764 5.30909 14.0207 5.09157 14.218 4.767C14.4153 4.44244 14.5139 4.07731 14.5139 3.67161C14.5139 3.15663 14.3451 2.71939 14.0076 2.35989C13.67 2.00038 13.2704 1.82063 12.8087 1.82063C12.3503 1.82063 11.9547 1.97733 11.622 2.29074C11.2893 2.60416 11.1229 2.98227 11.1229 3.42505ZM9.33218 16.6208V3.42505C9.33218 2.98227 9.169 2.60416 8.84263 2.29074C8.51627 1.97733 8.11726 1.82063 7.64561 1.82063C7.18197 1.82063 6.77749 2.00017 6.43217 2.35925C6.08686 2.71834 5.9142 3.15506 5.9142 3.66942C5.9142 4.07785 6.0088 4.43935 6.19801 4.7539C6.38723 5.06848 6.63901 5.28123 6.95338 5.39217C7.18612 5.47834 7.35725 5.63626 7.4668 5.86595C7.57634 6.09563 7.59304 6.32185 7.51689 6.54459C7.42278 6.78995 7.25954 6.97069 7.02718 7.08683C6.79482 7.20297 6.55797 7.2132 6.31663 7.11752C5.86402 6.96266 5.47067 6.70865 5.1366 6.35548C4.80252 6.00231 4.54136 5.59565 4.35314 5.1355C3.74588 5.19465 3.20491 5.4564 2.73024 5.92074C2.25557 6.38508 2.01823 6.95028 2.01823 7.61634C2.01823 8.30881 2.24363 8.90193 2.69443 9.39571C3.14521 9.88949 3.69811 10.1364 4.35314 10.1364C4.60943 10.1364 4.82326 10.2229 4.99463 10.3959C5.166 10.5688 5.25169 10.7847 5.25169 11.0434C5.25169 11.3071 5.166 11.5252 4.99463 11.6979C4.82326 11.8706 4.60943 11.957 4.35314 11.957C3.96101 11.957 3.58161 11.8985 3.21493 11.7816C2.84826 11.6647 2.5097 11.5054 2.19925 11.3037C2.14106 11.4629 2.09635 11.6269 2.06511 11.7956C2.03386 11.9644 2.01823 12.1353 2.01823 12.3084C2.01823 13.0703 2.24717 13.6941 2.70504 14.1796C3.1629 14.6652 3.72039 14.908 4.3775 14.908C4.75723 14.908 5.11687 14.8199 5.45642 14.6439C5.79597 14.4678 6.07822 14.2289 6.30316 13.9271C6.45975 13.727 6.65793 13.6019 6.89771 13.5519C7.13747 13.5019 7.35654 13.5572 7.55494 13.7179C7.75333 13.8756 7.87712 14.0772 7.92633 14.3226C7.97553 14.5679 7.92184 14.7907 7.76525 14.9908C7.53953 15.3167 7.27086 15.5921 6.95922 15.8168C6.64759 16.0415 6.31097 16.2219 5.94936 16.3581C5.981 16.7758 6.15887 17.1838 6.48299 17.582C6.80713 17.9803 7.20122 18.1794 7.66528 18.1794C8.12829 18.1794 8.52187 18.0284 8.846 17.7265C9.17012 17.4246 9.33218 17.056 9.33218 16.6208Z" fill="white"/>
</svg>
