<svg width="20" height="20" viewBox="0 0 20 20" fill="none" xmlns="http://www.w3.org/2000/svg">
<path d="M15.8333 0H4.16667C3.062 0.00132321 2.00296 0.440735 1.22185 1.22185C0.440735 2.00296 0.00132321 3.062 0 4.16667L0 11.6667C0.00132321 12.7713 0.440735 13.8304 1.22185 14.6115C2.00296 15.3926 3.062 15.832 4.16667 15.8333H9.16667V18.3333H7.5C7.27899 18.3333 7.06702 18.4211 6.91074 18.5774C6.75446 18.7337 6.66667 18.9457 6.66667 19.1667C6.66667 19.3877 6.75446 19.5996 6.91074 19.7559C7.06702 19.9122 7.27899 20 7.5 20H12.5C12.721 20 12.933 19.9122 13.0893 19.7559C13.2455 19.5996 13.3333 19.3877 13.3333 19.1667C13.3333 18.9457 13.2455 18.7337 13.0893 18.5774C12.933 18.4211 12.721 18.3333 12.5 18.3333H10.8333V15.8333H15.8333C16.938 15.832 17.997 15.3926 18.7782 14.6115C19.5593 13.8304 19.9987 12.7713 20 11.6667V4.16667C19.9987 3.062 19.5593 2.00296 18.7782 1.22185C17.997 0.440735 16.938 0.00132321 15.8333 0ZM4.16667 1.66667H15.8333C16.4964 1.66667 17.1323 1.93006 17.6011 2.3989C18.0699 2.86774 18.3333 3.50363 18.3333 4.16667V10.8333H1.66667V4.16667C1.66667 3.50363 1.93006 2.86774 2.3989 2.3989C2.86774 1.93006 3.50363 1.66667 4.16667 1.66667ZM15.8333 14.1667H4.16667C3.65145 14.1645 3.14948 14.0033 2.72942 13.7049C2.30936 13.4066 1.99174 12.9858 1.82 12.5H18.18C18.0083 12.9858 17.6906 13.4066 17.2706 13.7049C16.8505 14.0033 16.3486 14.1645 15.8333 14.1667Z" fill="#FFFFFF"/>
</svg>
