<svg width="24" height="19" viewBox="0 0 24 19" fill="none" xmlns="http://www.w3.org/2000/svg">
<path d="M2.33645 0.907997C1.90802 1.04129 1.4653 1.44592 1.30345 1.85531C1.22253 2.06953 1.21776 2.39799 1.20348 8.43414C1.19396 12.7804 1.20824 14.894 1.24157 15.1177C1.3701 15.946 1.91754 16.4173 2.81725 16.4696L3.24092 16.4934V17.1266V17.7645H2.246C1.31297 17.7645 1.24633 17.7692 1.12732 17.8644C0.970226 17.9882 0.955945 18.2405 1.09876 18.3833C1.19396 18.4785 1.25585 18.4785 12 18.4785C22.7442 18.4785 22.806 18.4785 22.9012 18.3833C23.0441 18.2405 23.0298 17.9882 22.8727 17.8644C22.7537 17.7692 22.687 17.7645 21.754 17.7645H20.7591V17.1266V16.4934L21.1828 16.4696C22.0825 16.4173 22.6299 15.946 22.7584 15.1177C22.7918 14.894 22.806 12.7804 22.7965 8.43414C22.7775 1.13173 22.8251 1.83151 22.311 1.31739C21.8111 0.817549 22.887 0.865152 11.981 0.869913C6.74455 0.869913 2.4031 0.888954 2.33645 0.907997ZM21.6159 1.67442C21.8492 1.79342 21.9825 1.97908 22.0444 2.27422C22.0777 2.43131 22.092 4.58776 22.0825 8.81497C22.0682 14.6655 22.0634 15.132 21.9873 15.27C21.8064 15.6033 21.4827 15.7651 21.0114 15.7651H20.7591V11.9616C20.7591 8.19136 20.7591 8.1628 20.6591 8.03427L20.5639 7.9105H18.9739C17.3983 7.9105 17.384 7.9105 17.284 8.01523C17.1888 8.11995 17.1888 8.15804 17.1888 11.9425V15.7651H16.6414H16.0939V14.0514C16.0939 12.3995 16.0892 12.3329 15.9987 12.2424C15.9083 12.152 15.8416 12.1472 14.3373 12.1472C12.8664 12.1472 12.7664 12.152 12.6617 12.2377L12.5474 12.3281L12.5332 14.0466L12.5189 15.7651H12H11.4764L11.4668 12.3424C11.4526 9.05299 11.4478 8.91494 11.3621 8.81973C11.2717 8.71976 11.2383 8.71976 9.6817 8.71976C8.15838 8.71976 8.09174 8.72452 8.00129 8.81497C7.90608 8.91018 7.90608 8.97206 7.90608 12.3376V15.7651H7.35864H6.8112V14.5512C6.8112 13.3992 6.80644 13.3326 6.71599 13.2421C6.62554 13.1517 6.5589 13.1469 5.03082 13.1469H3.4361L3.34089 13.2707C3.24568 13.3897 3.24092 13.4563 3.24092 14.5798V15.7651H2.99338C2.51735 15.7651 2.19364 15.6033 2.01275 15.27C1.93658 15.132 1.93182 14.6655 1.91754 8.81497C1.90802 4.58776 1.9223 2.43131 1.95562 2.27422C2.01751 1.98384 2.1508 1.79342 2.37453 1.67442C2.54591 1.58397 2.74584 1.58397 11.9905 1.57921C21.3018 1.57921 21.4303 1.57921 21.6159 1.67442ZM20.045 13.1945V17.7645H18.9739H17.9029V13.1945V8.62455H18.9739H20.045V13.1945ZM10.7623 13.5991V17.7645H9.69122H8.62014V13.5991V9.43382H9.69122H10.7623V13.5991ZM15.3799 15.3129V17.7645H14.3088H13.2377V15.3129V12.8613H14.3088H15.3799V15.3129ZM6.09714 15.8127V17.7645H5.02606H3.95498V15.8127V13.861H5.02606H6.09714V15.8127ZM7.90608 17.1218V17.7645H7.35864H6.8112V17.1218V16.4792H7.35864H7.90608V17.1218ZM12.5236 17.1218V17.7645H12H11.4764V17.1218V16.4792H12H12.5236V17.1218ZM17.1888 17.1218V17.7645H16.6414H16.0939V17.1218V16.4792H16.6414H17.1888V17.1218Z" fill="white" stroke="white" stroke-width="0.1"/>
<path d="M9.2773 3.73559C8.67273 3.90697 8.27286 4.44965 8.27286 5.10182C8.27286 5.28271 8.30619 5.48741 8.35379 5.60166L8.43471 5.78731L7.09229 7.12974L5.74987 8.47216L5.53565 8.37695C5.23575 8.24366 4.68831 8.27222 4.36936 8.43408C3.93617 8.65305 3.66959 9.07197 3.6315 9.58133C3.60294 10.0002 3.70767 10.3144 3.97901 10.6143C4.50265 11.1999 5.43568 11.2379 5.99265 10.7048C6.383 10.3335 6.53057 9.69557 6.34491 9.21002L6.24971 8.96248L7.60165 7.64862L8.95359 6.32999L9.14401 6.40616C9.39631 6.50613 9.93899 6.50613 10.1913 6.40616L10.3817 6.32999L11.7337 7.64386L13.0808 8.95772L12.9856 9.22906C12.7619 9.90027 13.0666 10.6286 13.7044 10.9428C14.0805 11.1284 14.5756 11.1284 14.9326 10.9428C15.2373 10.7905 15.5372 10.4525 15.6372 10.1621C15.7371 9.87647 15.7324 9.46232 15.6372 9.17669C15.5943 9.05292 15.5657 8.9482 15.5753 8.94344C15.5848 8.93392 16.1894 8.34363 16.9129 7.62957L18.2316 6.32523L18.4267 6.40616C18.7266 6.52517 19.2503 6.50613 19.5502 6.36808C20.0786 6.12054 20.3547 5.68734 20.3547 5.10182C20.3547 4.51629 20.0881 4.07834 19.5787 3.8308C19.3502 3.72131 19.2503 3.69751 18.9504 3.70227C18.7362 3.70703 18.5219 3.74035 18.4124 3.78796C18.1459 3.90697 17.8079 4.23543 17.6841 4.50677C17.5508 4.79239 17.5318 5.26367 17.6413 5.58262L17.7174 5.78731L16.3845 7.11545L15.0564 8.44836L14.8279 8.36743C14.5375 8.27222 14.0567 8.26746 13.8139 8.36743C13.633 8.43884 13.614 8.43884 13.4902 8.34839C13.4188 8.29127 12.8047 7.69622 12.1288 7.02025L10.9006 5.78731L10.9815 5.60166C11.0291 5.48741 11.0624 5.28271 11.0624 5.0923C11.0624 4.52581 10.7245 4.00217 10.2199 3.79272C9.97231 3.68799 9.53912 3.66419 9.2773 3.73559ZM10.0532 4.53533C10.6007 4.92568 10.3389 5.76827 9.66765 5.76827C9.31062 5.76827 9.0726 5.56833 8.98216 5.18274C8.92027 4.93045 9.16781 4.54486 9.47724 4.42109C9.60577 4.36872 9.90091 4.42585 10.0532 4.53533ZM19.3264 4.52105C19.6359 4.74955 19.7358 5.09706 19.5787 5.38744C19.3264 5.8492 18.7123 5.90632 18.4077 5.49217C18.2696 5.30651 18.2554 4.92568 18.3791 4.73051C18.5743 4.41633 19.0503 4.3116 19.3264 4.52105ZM5.36904 9.10053C5.84983 9.39091 5.81175 10.0478 5.30239 10.2954C4.71687 10.581 4.09326 9.90503 4.43125 9.34807C4.63118 9.02436 5.05961 8.91011 5.36904 9.10053ZM14.7422 9.15289C14.9374 9.33379 15.0135 9.51944 14.985 9.74794C14.9564 10.0145 14.8088 10.2145 14.5613 10.3144C14.3042 10.4144 14.0948 10.3763 13.8806 10.1907C13.514 9.86695 13.5521 9.35283 13.9663 9.09577C14.1805 8.96248 14.5708 8.99104 14.7422 9.15289Z" fill="white" stroke="white" stroke-width="0.1"/>
</svg>
