<svg width="19" height="21" viewBox="0 0 19 21" fill="none" xmlns="http://www.w3.org/2000/svg">
<path d="M7.36678 8.36882C6.5935 8.36068 5.83992 8.12394 5.20091 7.6884C4.5619 7.25287 4.06603 6.63802 3.77574 5.92126C3.48544 5.2045 3.4137 4.41787 3.56953 3.66041C3.72537 2.90296 4.10183 2.20855 4.6515 1.6646C5.20117 1.12065 5.89949 0.751488 6.65854 0.60359C7.41758 0.455692 8.20341 0.535671 8.9171 0.833456C9.63078 1.13124 10.2404 1.63352 10.6692 2.27705C11.098 2.92059 11.3269 3.67661 11.3269 4.44993C11.3196 5.49419 10.8988 6.49299 10.1565 7.22754C9.41422 7.96209 8.41106 8.37248 7.36678 8.36882ZM7.36678 1.90608C6.86549 1.91421 6.37778 2.07029 5.96491 2.35471C5.55204 2.63912 5.23242 3.0392 5.04619 3.50468C4.85996 3.97017 4.81543 4.4803 4.9182 4.97101C5.02096 5.46172 5.26644 5.91112 5.62379 6.26277C5.98114 6.61442 6.43443 6.85263 6.92673 6.94749C7.41902 7.04234 7.92837 6.98961 8.3908 6.79592C8.85323 6.60223 9.24811 6.27622 9.52585 5.85883C9.80359 5.44143 9.9518 4.95128 9.95187 4.44993C9.94461 3.77035 9.66861 3.12129 9.18421 2.64461C8.6998 2.16793 8.04638 1.90241 7.36678 1.90608Z" fill="white"/>
<path d="M7.36681 8.36882C6.59354 8.36068 5.83996 8.12394 5.20095 7.6884C4.56194 7.25287 4.06607 6.63802 3.77578 5.92126C3.48548 5.20449 3.41373 4.41787 3.56957 3.66041C3.72541 2.90296 4.10186 2.20855 4.65154 1.6646C5.20121 1.12065 5.89953 0.751488 6.65857 0.60359C7.41762 0.455692 8.20345 0.535671 8.91713 0.833456C9.63082 1.13124 10.2404 1.63352 10.6693 2.27705C11.0981 2.92059 11.3269 3.67661 11.327 4.44993C11.3197 5.49419 10.8988 6.49299 10.1565 7.22754C9.41425 7.96209 8.41109 8.37248 7.36681 8.36882ZM7.36681 1.90608C6.86553 1.91421 6.37782 2.07029 5.96495 2.35471C5.55208 2.63912 5.23245 3.0392 5.04623 3.50468C4.86 3.97017 4.81547 4.4803 4.91824 4.97101C5.021 5.46172 5.26647 5.91112 5.62382 6.26277C5.98117 6.61441 6.43447 6.85263 6.92676 6.94749C7.41906 7.04234 7.92841 6.98961 8.39084 6.79592C8.85327 6.60223 9.24815 6.27622 9.52589 5.85883C9.80363 5.44143 9.95184 4.95128 9.95191 4.44993C9.94465 3.77035 9.66865 3.12129 9.18424 2.64461C8.69984 2.16793 8.04642 1.90241 7.36681 1.90608ZM9.76627 9.2901C6.71679 8.75946 3.57743 9.24244 0.828454 10.6651C0.633316 10.7735 0.471736 10.9334 0.36139 11.1274C0.251043 11.3215 0.196182 11.5421 0.202807 11.7652V14.2128C0.202807 14.3951 0.275242 14.57 0.404178 14.6989C0.533114 14.8279 0.707989 14.9003 0.890332 14.9003C1.07267 14.9003 1.24755 14.8279 1.37648 14.6989C1.50542 14.57 1.57786 14.3951 1.57786 14.2128V11.8546C4.12697 10.5755 7.02579 10.1697 9.82815 10.6995L9.76627 9.2901Z" fill="white"/>
<path d="M17.3908 12.281H12.7844V11.2635C12.7844 11.0811 12.7119 10.9062 12.583 10.7773C12.4541 10.6484 12.2792 10.5759 12.0969 10.5759C11.9145 10.5759 11.7396 10.6484 11.6107 10.7773C11.4818 10.9062 11.4093 11.0811 11.4093 11.2635V12.281H6.39041C6.20806 12.281 6.03319 12.3534 5.90425 12.4824C5.77532 12.6113 5.70288 12.7862 5.70288 12.9685V19.8438C5.70288 20.0261 5.77532 20.201 5.90425 20.3299C6.03319 20.4589 6.20806 20.5313 6.39041 20.5313H17.3908C17.5731 20.5313 17.748 20.4589 17.877 20.3299C18.0059 20.201 18.0783 20.0261 18.0783 19.8438V12.9685C18.0783 12.7862 18.0059 12.6113 17.877 12.4824C17.748 12.3534 17.5731 12.281 17.3908 12.281ZM16.7033 19.1562H7.07793V13.656H11.4093V13.9379C11.4093 14.1203 11.4818 14.2951 11.6107 14.4241C11.7396 14.553 11.9145 14.6254 12.0969 14.6254C12.2792 14.6254 12.4541 14.553 12.583 14.4241C12.7119 14.2951 12.7844 14.1203 12.7844 13.9379V13.656H16.7033V19.1562Z" fill="white"/>
</svg>
