<svg width="21" height="21" viewBox="0 0 21 21" fill="none" xmlns="http://www.w3.org/2000/svg">
<path d="M8.57424 0.324598C7.03887 0.652769 5.71447 1.94201 5.24565 3.57115C5.1597 3.86806 5.15579 3.91885 5.15579 5.71207C5.15579 7.3373 5.16361 7.58733 5.22612 7.88034C5.39802 8.68514 5.76135 9.5212 6.21844 10.1541C6.50364 10.5526 7.01152 11.0331 7.36704 11.2441C7.59754 11.3808 7.63661 11.4199 7.63661 11.5137C7.63661 11.6152 7.60926 11.6309 7.15998 11.8067C4.49945 12.8342 2.59684 13.6702 1.96785 14.0843C1.28807 14.5297 0.803622 15.2134 0.62391 15.9752C0.577028 16.1745 0.565308 16.6003 0.565308 18.2412V20.2649H0.995055H1.4248V18.3506C1.4248 16.3151 1.43262 16.1979 1.62014 15.7916C1.87018 15.2368 2.21398 14.9204 2.98752 14.5258C3.86264 14.0804 6.11687 13.135 7.89055 12.4708C8.14059 12.3771 8.3203 12.2833 8.39062 12.213C8.49611 12.0997 8.49611 12.0958 8.49611 11.5176C8.49611 10.8222 8.49611 10.8222 8.01557 10.5838C7.21858 10.1893 6.50755 9.21647 6.17547 8.06396C6.01529 7.5092 5.98794 7.11852 6.00357 5.51673C6.0231 3.829 6.0231 3.82509 6.34346 3.17265C6.78884 2.278 7.55066 1.58259 8.44923 1.26223L8.78912 1.14112H9.70721C10.5628 1.14112 10.6448 1.14893 10.9183 1.23097C12.0786 1.59821 13.0788 2.65696 13.3835 3.84853C13.446 4.09075 13.4577 4.28218 13.4577 4.91899V5.69254H13.8875H14.3172V4.83695C14.3172 4.05559 14.3094 3.95011 14.2196 3.59849C13.8172 2.00843 12.4303 0.652769 10.8675 0.320691C10.5081 0.242555 8.93757 0.246462 8.57424 0.324598Z" fill="white"/>
<path d="M12.692 6.58717C12.4772 6.68484 12.2975 6.91143 12.2428 7.15365C12.2154 7.28258 12.2076 7.7006 12.2154 8.31006C12.2271 9.34927 12.2349 9.38053 12.4654 9.61493C12.692 9.83762 12.7506 9.84934 13.5672 9.86497L14.3173 9.8806V10.2635V10.6463L13.5672 10.662C12.7506 10.6776 12.692 10.6893 12.4654 10.912C12.2349 11.1464 12.2271 11.1777 12.2154 12.2169C12.1998 13.299 12.2232 13.4944 12.4108 13.7171C12.6295 13.9827 12.7506 14.014 13.5867 14.014H14.3173V14.4242V14.8344H12.7741H11.2309L11.1059 14.9477L10.977 15.061L10.9652 15.9791L10.9535 16.8972L10.2229 16.9128C9.52754 16.9246 9.48456 16.9285 9.31657 17.0222C9.22281 17.0769 9.08998 17.198 9.02356 17.2879L8.90636 17.4598L8.89464 18.5185C8.87901 19.6906 8.89464 19.7882 9.12123 20.0187C9.36736 20.2727 9.31266 20.2649 11.395 20.2649C13.5164 20.2649 13.4773 20.2688 13.7234 19.9679C13.911 19.7453 13.9344 19.5499 13.9188 18.4677C13.9071 17.4285 13.8992 17.3973 13.6687 17.1629C13.4421 16.9402 13.3835 16.9285 12.5709 16.9128L11.8169 16.8972V16.2956V15.6939H14.7275H17.6381V16.2995V16.905H16.9895C16.634 16.905 16.2668 16.9246 16.1769 16.948C15.9659 16.9988 15.7472 17.1785 15.6417 17.3777C15.5674 17.5262 15.5635 17.5965 15.5753 18.6435L15.587 19.7492L15.7042 19.9172C15.7706 20.007 15.8995 20.1242 15.9933 20.175L16.1652 20.2649H18.0678H19.9704L20.1423 20.175C20.2361 20.1242 20.3689 20.007 20.4314 19.9172L20.5486 19.7492L20.5603 18.6435C20.5721 17.5965 20.5681 17.5262 20.4939 17.3777C20.3884 17.1785 20.1697 16.9988 19.9587 16.948C19.8688 16.9246 19.5016 16.905 19.1461 16.905H18.4975V16.0025V15.1001L18.3647 14.9672L18.2319 14.8344H16.7043H15.1768V14.4242V14.014H15.9034C16.7043 14.014 16.7903 13.9945 17.013 13.7679C17.2396 13.5374 17.2552 13.4397 17.2396 12.2677L17.2278 11.2089L17.1106 11.037C17.0442 10.9472 16.9114 10.826 16.8176 10.7713C16.6496 10.6776 16.6067 10.6737 15.9112 10.662L15.1768 10.6463V10.2635V9.8806L15.9112 9.86497C16.6067 9.85325 16.6496 9.84934 16.8176 9.75558C16.9114 9.70088 17.0442 9.57977 17.1106 9.48992L17.2278 9.31802L17.2396 8.25927C17.2552 7.07942 17.2396 6.99347 17.0012 6.74734C16.7707 6.50903 16.8059 6.51294 14.7392 6.51294C12.989 6.51294 12.8405 6.52075 12.692 6.58717ZM16.3879 8.19286V9.01329H14.7275H13.0671V8.19286V7.37243H14.7275H16.3879V8.19286ZM16.3879 12.3341V13.1545H14.7275H13.0671V12.3341V11.5136H14.7275H16.3879V12.3341ZM13.0671 18.5849V19.4054H11.4067H9.74632V18.5849V17.7645H11.4067H13.0671V18.5849ZM19.7087 18.5849V19.4054H18.0678H16.4269V18.5849V17.7645H18.0678H19.7087V18.5849Z" fill="white"/>
<path d="M3.88611 18.3896V20.2649H4.31586H4.7456V18.3896V16.5144H4.31586H3.88611V18.3896Z" fill="white"/>
</svg>
