<svg width="21" height="21" viewBox="0 0 21 21" fill="none" xmlns="http://www.w3.org/2000/svg">
<path d="M17.7161 20.89H3.31079C2.56888 20.89 1.85736 20.5953 1.33276 20.0707C0.808149 19.5461 0.513428 18.8345 0.513428 18.0926V3.68847C0.513428 2.94657 0.808149 2.23505 1.33276 1.71044C1.85736 1.18583 2.56888 0.891113 3.31079 0.891113H17.7161C18.458 0.891113 19.1695 1.18583 19.6941 1.71044C20.2187 2.23505 20.5134 2.94657 20.5134 3.68847V18.0926C20.5134 18.8345 20.2187 19.5461 19.6941 20.0707C19.1695 20.5953 18.458 20.89 17.7161 20.89ZM3.31079 2.01006C2.86564 2.01006 2.43873 2.18689 2.12397 2.50165C1.8092 2.81642 1.63237 3.24333 1.63237 3.68847V18.0926C1.63237 18.5378 1.8092 18.9647 2.12397 19.2795C2.43873 19.5942 2.86564 19.7711 3.31079 19.7711H17.7161C18.1612 19.7711 18.5881 19.5942 18.9029 19.2795C19.2177 18.9647 19.3945 18.5378 19.3945 18.0926V3.68847C19.3945 3.24333 19.2177 2.81642 18.9029 2.50165C18.5881 2.18689 18.1612 2.01006 17.7161 2.01006H3.31079Z" fill="white"/>
<path d="M4.40957 6.73222C4.26119 6.73222 4.11888 6.67328 4.01396 6.56836C3.90904 6.46344 3.8501 6.32113 3.8501 6.17275C3.8501 6.02437 3.90904 5.88207 4.01396 5.77715C4.11888 5.67223 4.26119 5.61328 4.40957 5.61328H10.5145C10.6629 5.61328 10.8052 5.67223 10.9101 5.77715C11.0151 5.88207 11.074 6.02437 11.074 6.17275C11.074 6.32113 11.0151 6.46344 10.9101 6.56836C10.8052 6.67328 10.6629 6.73222 10.5145 6.73222H4.40957ZM7.46093 11.4463C7.31255 11.4463 7.17024 11.3874 7.06532 11.2825C6.9604 11.1775 6.90146 11.0352 6.90146 10.8869C6.90146 10.7385 6.9604 10.5962 7.06532 10.4913C7.17024 10.3863 7.31255 10.3274 7.46093 10.3274H13.5636C13.712 10.3274 13.8543 10.3863 13.9593 10.4913C14.0642 10.5962 14.1231 10.7385 14.1231 10.8869C14.1231 11.0352 14.0642 11.1775 13.9593 11.2825C13.8543 11.3874 13.712 11.4463 13.5636 11.4463H7.46093ZM10.5145 16.1728C10.3661 16.1728 10.2238 16.1138 10.1189 16.0089C10.014 15.904 9.95505 15.7617 9.95505 15.6133C9.95505 15.4649 10.014 15.3226 10.1189 15.2177C10.2238 15.1128 10.3661 15.0538 10.5145 15.0538H16.6184C16.7667 15.0538 16.909 15.1128 17.014 15.2177C17.1189 15.3226 17.1778 15.4649 17.1778 15.6133C17.1778 15.7617 17.1189 15.904 17.014 16.0089C16.909 16.1138 16.7667 16.1728 16.6184 16.1728H10.5145Z" fill="white"/>
</svg>
