<svg width="20" height="21" viewBox="0 0 20 21" fill="none" xmlns="http://www.w3.org/2000/svg">
<path d="M6.78653 10.4846V9.03008C6.78653 8.88542 6.844 8.74669 6.94628 8.6444C7.04857 8.54211 7.18731 8.48464 7.33197 8.48464C7.47663 8.48464 7.61536 8.54211 7.71765 8.6444C7.81994 8.74669 7.87741 8.88542 7.87741 9.03008V10.4846C7.87741 10.6292 7.81994 10.768 7.71765 10.8703C7.61536 10.9726 7.47663 11.03 7.33197 11.03C7.18731 11.03 7.04857 10.9726 6.94628 10.8703C6.844 10.768 6.78653 10.6292 6.78653 10.4846ZM10.241 11.03C10.3856 11.03 10.5244 10.9726 10.6267 10.8703C10.729 10.768 10.7864 10.6292 10.7864 10.4846V8.30283C10.7864 8.15817 10.729 8.01944 10.6267 7.91715C10.5244 7.81486 10.3856 7.75739 10.241 7.75739C10.0963 7.75739 9.95759 7.81486 9.8553 7.91715C9.75301 8.01944 9.69554 8.15817 9.69554 8.30283V10.4846C9.69554 10.6292 9.75301 10.768 9.8553 10.8703C9.95759 10.9726 10.0963 11.03 10.241 11.03ZM13.15 11.03C13.2947 11.03 13.4334 10.9726 13.5357 10.8703C13.638 10.768 13.6954 10.6292 13.6954 10.4846V7.57558C13.6954 7.43092 13.638 7.29218 13.5357 7.18989C13.4334 7.0876 13.2947 7.03014 13.15 7.03014C13.0053 7.03014 12.8666 7.0876 12.7643 7.18989C12.662 7.29218 12.6046 7.43092 12.6046 7.57558V10.4846C12.6046 10.6292 12.662 10.768 12.7643 10.8703C12.8666 10.9726 13.0053 11.03 13.15 11.03ZM18.0589 4.48475V13.5754H18.968C19.1127 13.5754 19.2514 13.6329 19.3537 13.7352C19.456 13.8375 19.5135 13.9762 19.5135 14.1209C19.5135 14.2655 19.456 14.4042 19.3537 14.5065C19.2514 14.6088 19.1127 14.6663 18.968 14.6663H10.7864V16.5608C11.2508 16.6924 11.652 16.9876 11.9158 17.3919C12.1796 17.7961 12.2883 18.2821 12.2219 18.7603C12.1554 19.2384 11.9183 19.6763 11.5542 19.9933C11.1901 20.3103 10.7237 20.4849 10.241 20.4849C9.75826 20.4849 9.29183 20.3103 8.92776 19.9933C8.56368 19.6763 8.32654 19.2384 8.26008 18.7603C8.19362 18.2821 8.30234 17.7961 8.56616 17.3919C8.82999 16.9876 9.23112 16.6924 9.69554 16.5608V14.6663H1.51395C1.36929 14.6663 1.23055 14.6088 1.12826 14.5065C1.02597 14.4042 0.968506 14.2655 0.968506 14.1209C0.968506 13.9762 1.02597 13.8375 1.12826 13.7352C1.23055 13.6329 1.36929 13.5754 1.51395 13.5754H2.42301V4.48475H2.2412C1.90366 4.48475 1.57995 4.35067 1.34127 4.11199C1.10259 3.87332 0.968506 3.5496 0.968506 3.21206V1.75756C0.968506 1.42002 1.10259 1.0963 1.34127 0.857626C1.57995 0.61895 1.90366 0.484863 2.2412 0.484863H18.2408C18.5783 0.484863 18.902 0.61895 19.1407 0.857626C19.3794 1.0963 19.5135 1.42002 19.5135 1.75756V3.21206C19.5135 3.5496 19.3794 3.87332 19.1407 4.11199C18.902 4.35067 18.5783 4.48475 18.2408 4.48475H18.0589ZM10.241 17.5753C10.0612 17.5753 9.88543 17.6286 9.73593 17.7285C9.58644 17.8284 9.46992 17.9704 9.40111 18.1365C9.33231 18.3026 9.31431 18.4854 9.34938 18.6617C9.38446 18.8381 9.47104 19 9.59817 19.1272C9.72531 19.2543 9.88729 19.3409 10.0636 19.376C10.24 19.411 10.4228 19.393 10.5889 19.3242C10.755 19.2554 10.897 19.1389 10.9968 18.9894C11.0967 18.8399 11.15 18.6642 11.15 18.4844C11.15 18.2433 11.0543 18.012 10.8838 17.8416C10.7133 17.6711 10.4821 17.5753 10.241 17.5753ZM2.2412 3.39387H18.2408C18.289 3.39387 18.3352 3.37472 18.3693 3.34062C18.4034 3.30653 18.4226 3.26028 18.4226 3.21206V1.75756C18.4226 1.70934 18.4034 1.66309 18.3693 1.62899C18.3352 1.5949 18.289 1.57574 18.2408 1.57574H2.2412C2.19298 1.57574 2.14673 1.5949 2.11264 1.62899C2.07854 1.66309 2.05939 1.70934 2.05939 1.75756V3.21206C2.05939 3.26028 2.07854 3.30653 2.11264 3.34062C2.14673 3.37472 2.19298 3.39387 2.2412 3.39387ZM16.9681 4.48475H3.51389V13.5754H16.9681V4.48475Z" fill="white"/>
</svg>
