<svg width="21" height="22" viewBox="0 0 21 22" fill="none" xmlns="http://www.w3.org/2000/svg">
<path d="M4.64441 5.5C2.80341 7.148 1.64441 9.334 1.64441 12C1.64441 13.1819 1.8772 14.3522 2.32949 15.4442C2.78179 16.5361 3.44472 17.5282 4.28045 18.364C5.11618 19.1997 6.10833 19.8626 7.20026 20.3149C8.29219 20.7672 9.46251 21 10.6444 21C11.8263 21 12.9966 20.7672 14.0886 20.3149C15.1805 19.8626 16.1726 19.1997 17.0084 18.364C17.8441 17.5282 18.507 16.5361 18.9593 15.4442C19.4116 14.3522 19.6444 13.1819 19.6444 12C19.6444 9.334 18.4854 7.148 16.6444 5.5M10.6444 1V10M10.6444 1C9.94441 1 8.63641 2.994 8.14441 3.5M10.6444 1C11.3444 1 12.6524 2.994 13.1444 3.5" stroke="white" stroke-width="1.5" stroke-linecap="round" stroke-linejoin="round"/>
</svg>
