<svg width="25" height="24" viewBox="0 0 25 24" fill="none" xmlns="http://www.w3.org/2000/svg">
<mask id="mask0_322_5608" style="mask-type:alpha" maskUnits="userSpaceOnUse" x="0" y="0" width="25" height="24">
<rect x="0.227539" width="24" height="24" fill="#D9D9D9"/>
</mask>
<g mask="url(#mask0_322_5608)">
<path d="M13.0828 12.8552V23.9635C13.3666 23.9635 13.6505 24.0005 13.9406 24.0005C15.3192 24.011 16.685 23.7357 17.9519 23.1921C19.1726 22.6762 20.2813 21.9279 21.2165 20.9889C22.1517 20.0496 22.8976 18.9392 23.4134 17.7182C23.9572 16.4556 24.2325 15.0938 24.2219 13.7192C24.2219 13.4292 24.2219 13.1453 24.1848 12.8614L13.0828 12.8552ZM20.0069 19.7979C18.6365 21.2375 16.7804 22.1172 14.7984 22.2664V14.5708H22.4754C22.2897 16.5484 21.4162 18.3981 20.0069 19.7979Z" fill="white"/>
<path d="M11.367 18.8226V11.1394H20.7534C20.7534 10.8555 20.7966 10.5716 20.7966 10.2816C20.8047 8.90523 20.5295 7.54193 19.9882 6.27645C19.4647 5.05843 18.715 3.95069 17.7789 3.01186C16.8416 2.07552 15.7333 1.32763 14.5143 0.808724C13.2495 0.26537 11.8857 -0.00989893 10.5092 0.00028979C9.13057 -0.0102163 7.76476 0.265048 6.49785 0.808724C4.03522 1.84803 2.0756 3.80765 1.03629 6.27028C0.492617 7.53719 0.217353 8.903 0.227859 10.2816C0.216815 11.6602 0.492102 13.0262 1.03629 14.2929C1.55297 15.5098 2.29883 16.6161 3.23326 17.5513C4.17166 18.4864 5.27961 19.2341 6.49785 19.7545C7.76565 20.2953 9.13086 20.5704 10.5092 20.5629C10.7992 20.5629 11.0831 20.5629 11.367 20.5197V18.8226ZM9.65136 18.8226C7.52889 18.6409 5.55879 17.6459 4.15278 16.0455C2.70267 14.4793 1.90957 12.4159 1.9373 10.2816C1.91083 8.14753 2.70376 6.08458 4.15278 4.51765C5.55903 2.91859 7.52944 1.92565 9.65136 1.74675H11.5459C13.4596 1.92851 15.2444 2.79135 16.5755 4.17823C17.9804 5.57851 18.8533 7.42471 19.044 9.39911H9.65136V18.8226Z" fill="white"/>
</g>
</svg>
