<svg width="25" height="24" viewBox="0 0 25 24" fill="none" xmlns="http://www.w3.org/2000/svg">
<mask id="mask0_322_5730" style="mask-type:alpha" maskUnits="userSpaceOnUse" x="0" y="0" width="25" height="24">
<rect x="0.227539" width="24" height="24" fill="#D9D9D9"/>
</mask>
<g mask="url(#mask0_322_5730)">
<mask id="mask1_322_5730" style="mask-type:alpha" maskUnits="userSpaceOnUse" x="1" y="1" width="23" height="22">
<rect x="1.22754" y="1" width="22" height="22" fill="#D9D9D9"/>
</mask>
<g mask="url(#mask1_322_5730)">
</g>
<g clip-path="url(#clip0_322_5730)">
<path d="M10.2069 1.95999C9.71849 2.07815 9.25765 2.48779 9.09616 2.94469C9.06071 3.03528 8.98587 3.41341 8.92285 3.78759C8.76923 4.69352 8.63138 4.95348 8.17841 5.17405C7.99723 5.2607 7.90664 5.2804 7.67819 5.2804C7.43792 5.27646 7.32369 5.24495 6.75257 5.02438C6.1066 4.77623 6.10267 4.77623 5.68909 4.77229C5.30703 4.77229 5.25582 4.78017 5.0195 4.8944C4.8777 4.96136 4.6847 5.09527 4.58623 5.19768C4.37747 5.41038 2.6444 8.3763 2.52623 8.73079C2.42383 9.03014 2.4514 9.50673 2.58532 9.80214C2.73105 10.1094 2.87285 10.2669 3.43216 10.7238C3.70787 10.9523 3.97571 11.1925 4.02692 11.2516C4.36565 11.681 4.37353 12.3072 4.03873 12.7326C3.99541 12.7878 3.72363 13.028 3.4361 13.2683C2.86497 13.737 2.73893 13.8788 2.58926 14.1978C2.4514 14.4933 2.42383 14.9699 2.5223 15.2692C2.56562 15.3874 3.00283 16.1909 3.50306 17.0535C4.48776 18.7629 4.58623 18.8968 5.0195 19.1056C5.25582 19.2198 5.30703 19.2277 5.68909 19.2277C6.10267 19.2238 6.1066 19.2238 6.75257 18.9756C7.32369 18.755 7.43792 18.7235 7.67819 18.7196C8.13903 18.7157 8.50927 18.948 8.72591 19.3734C8.77711 19.4719 8.85195 19.7988 8.92285 20.2124C9.04889 20.9726 9.10009 21.142 9.26946 21.3901C9.43489 21.6304 9.64365 21.7997 9.943 21.9415L10.199 22.0636L12.1054 22.0755C13.3107 22.0833 14.0827 22.0715 14.2048 22.0479C14.6814 21.9455 15.0634 21.6461 15.2801 21.205C15.3904 20.9726 15.4376 20.7953 15.5322 20.2282C15.6582 19.4561 15.7449 19.2277 15.993 19.0111C16.2293 18.8062 16.4578 18.7196 16.7768 18.7235C17.021 18.7235 17.1313 18.755 17.7024 18.9756C18.3484 19.2238 18.3523 19.2238 18.7659 19.2277C19.148 19.2277 19.1992 19.2198 19.4355 19.1056C19.8648 18.8968 19.9672 18.759 20.9441 17.0732C21.4325 16.2224 21.8657 15.4543 21.9051 15.3677C21.9563 15.2534 21.9721 15.1038 21.976 14.8162C21.976 14.4736 21.9642 14.3948 21.8736 14.2057C21.72 13.8867 21.59 13.7409 21.0071 13.2604C20.4438 12.7917 20.2981 12.6144 20.2036 12.3033C20.1287 12.0551 20.1287 11.9449 20.2036 11.6967C20.2981 11.3816 20.4517 11.1965 21.0071 10.7396C21.5822 10.2669 21.72 10.1133 21.8736 9.79427C21.9642 9.6052 21.976 9.52643 21.976 9.18375C21.9721 8.89622 21.9563 8.74654 21.9051 8.63232C21.8657 8.54567 21.4325 7.7776 20.9441 6.92682C19.9672 5.24101 19.8648 5.10315 19.4355 4.8944C19.1992 4.78017 19.148 4.77229 18.7659 4.77229C18.3523 4.77623 18.3484 4.77623 17.7024 5.02438C17.1313 5.24495 17.0171 5.27646 16.7768 5.2804C16.316 5.28434 15.9457 5.05195 15.7291 4.62656C15.6818 4.53203 15.6031 4.20117 15.5322 3.79547C15.4731 3.42522 15.3904 3.03922 15.351 2.93287C15.2171 2.55475 14.8429 2.18056 14.445 2.01513C14.2678 1.94029 14.1457 1.93636 12.3063 1.92848C11.2349 1.92454 10.2896 1.94029 10.2069 1.95999ZM13.8818 3.50006C13.8818 3.50794 13.933 3.81516 14 4.18935C14.1693 5.16617 14.3623 5.59156 14.8626 6.07604C15.4179 6.61959 16.2254 6.91894 16.9541 6.85986C17.3361 6.82835 17.4425 6.80078 18.1672 6.53688C18.4981 6.41477 18.7738 6.32418 18.7777 6.33206C18.7856 6.33994 19.1598 6.9859 19.6088 7.76184C20.2587 8.89228 20.4123 9.18769 20.3729 9.22314C20.3454 9.24677 20.1209 9.4319 19.8806 9.63278C19.3134 10.0976 19.085 10.3575 18.888 10.7553C18.6674 11.1925 18.5965 11.4998 18.5965 12C18.5965 12.5002 18.6674 12.8074 18.888 13.2447C19.085 13.6425 19.3134 13.9024 19.8806 14.3672C20.1209 14.5681 20.3454 14.7532 20.3729 14.7769C20.4123 14.8123 20.2548 15.1116 19.6088 16.2381C19.1598 17.0141 18.7856 17.6601 18.7777 17.6679C18.7738 17.6758 18.4981 17.5852 18.1672 17.4631C17.4425 17.1992 17.3361 17.1716 16.9541 17.1401C16.2254 17.081 15.414 17.3843 14.8586 17.92C14.3663 18.4045 14.1654 18.8378 14 19.8106C13.933 20.1848 13.8818 20.4921 13.8818 20.496C13.8818 20.5039 13.1374 20.5078 12.2275 20.5078C11.3176 20.5078 10.5732 20.5039 10.5732 20.496C10.5732 20.4921 10.522 20.1848 10.455 19.8106C10.2896 18.8378 10.0966 18.4202 9.60032 17.9279C9.04889 17.3843 8.23356 17.081 7.50094 17.1401C7.11888 17.1716 7.01253 17.1992 6.28779 17.4631C5.95693 17.5852 5.68121 17.6758 5.67728 17.6679C5.55517 17.5143 4.04267 14.8162 4.06237 14.7965C4.07812 14.7808 4.30657 14.5917 4.56653 14.3751C5.11797 13.9182 5.32672 13.6937 5.52366 13.3392C5.75999 12.9177 5.85452 12.5278 5.85452 12C5.85452 11.4722 5.75999 11.0823 5.52366 10.6608C5.32672 10.3063 5.11797 10.0818 4.56653 9.6249C4.30657 9.40826 4.07812 9.2192 4.06237 9.20345C4.04267 9.18375 5.55517 6.48567 5.67728 6.33206C5.68121 6.32418 5.95693 6.41477 6.28779 6.53688C7.10312 6.83623 7.1819 6.85198 7.65849 6.85592C8.15084 6.85592 8.45413 6.78502 8.89922 6.56445C9.25765 6.3872 9.52942 6.17844 9.79332 5.86728C10.1518 5.44189 10.3211 5.0165 10.455 4.20117C10.4984 3.92939 10.5456 3.66155 10.5575 3.59853L10.5811 3.49218H12.2314C13.1374 3.49218 13.8818 3.49612 13.8818 3.50006Z" fill="white"/>
<path d="M11.7351 8.14379C11.1836 8.21469 10.5377 8.46284 10.0256 8.80157C9.73809 8.99063 9.21423 9.51843 9.01729 9.81384C8.11924 11.1767 8.11924 12.8231 9.01729 14.1859C9.21423 14.4813 9.73809 15.0091 10.0256 15.1982C11.5263 16.1868 13.3657 16.1002 14.7167 14.9776C15.9023 13.9969 16.3986 12.3347 15.9417 10.8773C15.5045 9.47511 14.3544 8.44314 12.9443 8.17924C12.6213 8.12016 12.0383 8.10047 11.7351 8.14379ZM12.9167 9.79809C13.606 10.0108 14.2126 10.6213 14.441 11.3303C14.5552 11.6887 14.5552 12.311 14.441 12.6695C14.2086 13.3863 13.6139 13.9811 12.897 14.2095C12.5346 14.3277 11.9517 14.3277 11.5775 14.2135C10.8488 13.989 10.2462 13.3942 10.0138 12.6695C9.89958 12.311 9.89958 11.6887 10.0177 11.3303C10.2895 10.4756 11.0773 9.81384 11.9517 9.70356C12.1841 9.67205 12.6686 9.71931 12.9167 9.79809Z" fill="white"/>
</g>
</g>
<defs>
<clipPath id="clip0_322_5730">
<rect width="20.1667" height="20.1667" fill="white" transform="translate(2.14429 1.91675)"/>
</clipPath>
</defs>
</svg>
