<svg width="15" height="25" viewBox="0 0 15 25" fill="none" xmlns="http://www.w3.org/2000/svg">
<path d="M0.4942 0.589375L0.49221 0.591423C0.478786 0.605637 0.463645 0.619291 0.447651 0.633717C0.393597 0.682465 0.329808 0.739994 0.289703 0.857483C0.241418 0.998938 0.214726 1.24368 0.197847 1.74217C0.168487 2.60932 0.168811 4.28738 0.169457 7.63567C0.169561 8.17063 0.169672 8.74823 0.169672 9.37197V9.37393C0.169672 13.4423 0.169672 15.4929 0.181394 16.5379C0.187243 17.0593 0.19602 17.3342 0.209618 17.4849C0.216339 17.5594 0.224784 17.6111 0.237728 17.6493C0.253257 17.6953 0.274393 17.7192 0.292688 17.7375C0.378661 17.8235 0.502004 17.8605 0.644579 17.8605C0.787153 17.8605 0.910496 17.8235 0.996469 17.7375C1.0146 17.7193 1.03573 17.6955 1.05131 17.65C1.06432 17.612 1.07279 17.5609 1.07952 17.4876C1.09314 17.3394 1.10191 17.0696 1.10776 16.5584C1.11948 15.5339 1.11948 13.5243 1.11948 9.538V9.53599C1.11948 9.01466 1.11942 8.526 1.11936 8.06793C1.1189 4.64164 1.11868 2.92732 1.14755 2.0617C1.15572 1.8166 1.16617 1.64171 1.17935 1.5162C1.19271 1.38888 1.20824 1.3197 1.22326 1.28154C1.23546 1.25052 1.2432 1.2495 1.24388 1.24941L1.24393 1.2494C1.24879 1.24719 1.25578 1.245 1.2726 1.24075L1.27701 1.23964C1.29101 1.23612 1.31039 1.23126 1.33113 1.22401C1.33196 1.2239 1.33734 1.22277 1.34998 1.22124C1.36548 1.21937 1.38707 1.21744 1.41552 1.21551C1.47231 1.21166 1.55264 1.20808 1.65889 1.2048C1.87117 1.19824 2.18341 1.19298 2.61028 1.18888C3.46384 1.18068 4.77324 1.17717 6.65245 1.17717C6.9119 1.17717 7.15901 1.17714 7.39438 1.17711C9.7566 1.17684 10.9364 1.1767 11.5358 1.20692C11.7002 1.2152 11.8182 1.22565 11.9036 1.23852C11.9902 1.25158 12.0365 1.26618 12.0619 1.27905C12.0824 1.28944 12.0874 1.29746 12.0917 1.30605C12.0951 1.31289 12.0985 1.32193 12.1033 1.33691C12.1044 1.34048 12.1057 1.3447 12.1071 1.34937C12.1107 1.36082 12.1151 1.37495 12.1198 1.38863C12.1198 1.38906 12.121 1.39444 12.1226 1.40798C12.1244 1.42389 12.1264 1.44606 12.1283 1.47532C12.1322 1.53368 12.1358 1.61641 12.139 1.72593C12.1456 1.94475 12.1509 2.26712 12.155 2.70835C12.1632 3.59063 12.1667 4.94574 12.1667 6.8929V6.89559C12.1667 9.51288 12.1667 10.8595 12.1778 11.5568C12.1834 11.9041 12.1917 12.0953 12.205 12.203C12.2115 12.2555 12.2202 12.2983 12.2357 12.3316C12.2443 12.3499 12.2556 12.367 12.2711 12.3817C12.2835 12.3936 12.296 12.4014 12.306 12.4066C12.3062 12.4068 12.3064 12.4069 12.3067 12.4071L12.3134 12.4123C12.319 12.4169 12.3261 12.423 12.3344 12.4308C12.3512 12.4464 12.3714 12.4668 12.3938 12.4909C12.4383 12.5387 12.4887 12.598 12.5335 12.6562C12.5337 12.6565 12.534 12.6568 12.5342 12.6571L0.4942 0.589375ZM0.4942 0.589375C0.584281 0.499294 0.743401 0.378984 0.86023 0.325686M0.4942 0.589375L0.86023 0.325686M0.86023 0.325686C0.918772 0.298046 0.9806 0.280207 1.11848 0.26733C1.25453 0.254625 1.47235 0.246111 1.84682 0.240255C2.59704 0.228523 3.98875 0.227356 6.64308 0.227356C9.2974 0.227356 10.6891 0.228523 11.4393 0.240255C11.8138 0.246111 12.0316 0.254625 12.1677 0.26733C12.3055 0.280203 12.3674 0.298037 12.4259 0.325665M0.86023 0.325686L12.9165 12.9009L13.0323 12.8824L13.1165 12.8689V12.7836V6.97726C13.1165 6.61414 13.1165 6.27291 13.1166 5.9522C13.1171 3.44372 13.1173 2.19027 13.0865 1.53467C13.0693 1.16807 13.0422 0.973749 12.9928 0.849138C12.952 0.74609 12.8922 0.688004 12.8369 0.634335C12.8221 0.619984 12.8077 0.605947 12.794 0.591454L12.792 0.589344L12.792 0.589375C12.7019 0.499283 12.5427 0.378954 12.4259 0.325665M12.4259 0.325665C12.4257 0.325562 12.4254 0.32546 12.4252 0.325359L12.3838 0.416395L12.4266 0.326023C12.4264 0.325903 12.4261 0.325783 12.4259 0.325665Z" fill="white" stroke="white" stroke-width="0.2"/>
<path d="M4.90281 5.26621C4.90281 5.12363 4.93985 5.00029 5.02582 4.91432C5.05536 4.88478 5.08933 4.85688 5.14948 4.83759C5.20254 4.82058 5.2732 4.81118 5.37514 4.80496C5.58053 4.79242 5.94894 4.7913 6.64302 4.7913C7.3371 4.7913 7.70552 4.79242 7.91091 4.80496C8.01285 4.81118 8.0835 4.82058 8.13657 4.83759C8.19672 4.85688 8.23069 4.88478 8.26022 4.91432C8.34619 5.00029 8.38324 5.12363 8.38324 5.26621C8.38324 5.40878 8.34619 5.53212 8.26022 5.6181C8.23069 5.64763 8.19672 5.67553 8.13657 5.69482C8.0835 5.71184 8.01285 5.72123 7.91091 5.72745C7.70552 5.73999 7.3371 5.74111 6.64302 5.74111C5.94894 5.74111 5.58053 5.73999 5.37514 5.72745C5.2732 5.72123 5.20254 5.71184 5.14948 5.69482C5.08933 5.67553 5.05536 5.64763 5.02582 5.6181C4.93985 5.53212 4.90281 5.40878 4.90281 5.26621Z" fill="white" stroke="white" stroke-width="0.2"/>
<path d="M9.30022 11.5039C9.00498 11.4149 8.60195 11.4149 8.35358 11.5039C8.33559 11.5105 8.31803 11.5169 8.30127 11.523C8.28484 11.529 8.26918 11.5347 8.25464 11.54C8.25396 11.5221 8.25321 11.4958 8.2524 11.4617C8.2522 11.4531 8.25199 11.4441 8.25178 11.4345M9.30022 11.5039L9.32895 11.4081C9.32898 11.4082 9.329 11.4082 9.32902 11.4082M9.30022 11.5039C9.67512 11.6164 10.2 12.1506 10.2047 12.4271M9.30022 11.5039L9.32909 11.4082C9.32907 11.4082 9.32905 11.4082 9.32902 11.4082M9.32902 11.4082C9.01686 11.314 8.59161 11.3124 8.31983 11.4098L8.3194 11.4099L8.25178 11.4345M9.32902 11.4082L10.5046 12.5349C10.275 12.6052 10.2094 12.5818 10.2047 12.4271M8.25178 11.4345L8.18433 11.4591L8.15258 11.4703C8.14752 11.2613 8.14042 10.7598 8.13332 10.1777M8.25178 11.4345C8.25026 11.3659 8.24858 11.2736 8.24678 11.1625C8.24268 10.9097 8.238 10.5608 8.23331 10.1765M8.23331 10.1765C8.23331 10.1766 8.23332 10.1766 8.23332 10.1766L8.13332 10.1777M8.23331 10.1765C8.23331 10.1765 8.23331 10.1765 8.23331 10.1765L8.13332 10.1777M8.23331 10.1765C8.22631 9.50842 8.22163 9.15378 8.2055 8.9434C8.19737 8.83743 8.18601 8.76274 8.16818 8.70037C8.15002 8.63686 8.12629 8.59031 8.09952 8.54161C7.95426 8.26654 7.69619 8.0083 7.42485 7.8676L7.42469 7.86751C7.25992 7.78247 7.08306 7.74889 6.7647 7.73463L6.76375 7.73459C6.56801 7.72769 6.44598 7.72444 6.33889 7.74373C6.22815 7.76368 6.1376 7.80678 6.00226 7.87677C5.66073 8.0501 5.42366 8.28615 5.26826 8.62202L5.26762 8.62339L5.26763 8.6234C5.24172 8.6817 5.2206 8.73491 5.20483 8.83709C5.18978 8.93456 5.17941 9.07741 5.17121 9.31667C5.15475 9.79635 5.14654 10.6815 5.13249 12.4076L5.13249 12.4077C5.12546 13.3752 5.11609 14.2583 5.10672 14.9012C5.10204 15.2227 5.09735 15.4839 5.09297 15.6655C5.09243 15.6878 5.0919 15.709 5.09137 15.7288C5.0736 15.7066 5.05508 15.6827 5.0363 15.6574L5.03485 15.6554L5.03482 15.6554C4.72764 15.2618 4.29014 14.8856 3.9088 14.6949C3.76741 14.6242 3.66526 14.5788 3.55883 14.5525C3.45174 14.5261 3.34573 14.5203 3.19862 14.5203C2.72171 14.5203 2.3961 14.6237 2.10159 14.8827L2.10104 14.8831C1.94277 15.0244 1.83153 15.1578 1.76208 15.3225C1.69309 15.4861 1.66929 15.6713 1.66929 15.9091C1.66929 16.5445 1.85755 17.0738 2.37264 17.9244L2.37268 17.9245C2.54476 18.2082 3.4057 19.7475 4.29211 21.3468C4.73509 22.1461 5.14651 22.8798 5.45253 23.4174C5.60551 23.6862 5.73234 23.9062 5.82368 24.061C5.86929 24.1383 5.9064 24.1999 5.93364 24.2434C5.94718 24.265 5.95885 24.2831 5.9682 24.2966C5.97281 24.3033 5.97762 24.31 5.9823 24.3159C5.98238 24.316 5.98249 24.3161 5.98262 24.3163C5.9847 24.3189 5.99319 24.3298 6.00568 24.3394L6.00568 24.3394C6.02221 24.3521 6.03996 24.3591 6.05226 24.3633C6.06581 24.3679 6.08053 24.3714 6.09551 24.3743C6.12545 24.3802 6.16374 24.3849 6.2103 24.389C6.30383 24.3972 6.4401 24.4034 6.62946 24.4081C7.00871 24.4175 7.60858 24.421 8.52229 24.421H10.9029H10.9522L10.9822 24.382L11.0749 24.2614C11.0751 24.2612 11.0753 24.261 11.0755 24.2608C11.1695 24.1423 11.2159 24.0141 11.1932 23.875C11.1713 23.7407 11.0878 23.6147 10.9643 23.4911C10.9493 23.4761 10.9333 23.47 10.93 23.4687L10.9297 23.4686C10.9241 23.4664 10.9194 23.4652 10.9172 23.4646C10.9124 23.4635 10.9086 23.4629 10.9071 23.4627C10.9035 23.4622 10.9004 23.4619 10.8988 23.4617L10.8865 23.4609C10.8778 23.4605 10.8657 23.46 10.8507 23.4595C10.8205 23.4585 10.7766 23.4573 10.7207 23.456C10.6088 23.4534 10.4476 23.4502 10.2492 23.4466C9.85242 23.4396 9.30626 23.4314 8.70623 23.4244L8.70613 23.4244L6.5852 23.4016L5.04352 20.6173L8.01148 8.58903C8.11458 8.77648 8.11926 8.83741 8.13332 10.1777M10.2047 12.4271L10.3046 12.4241C10.3054 12.4498 10.3081 12.4646 10.3103 12.4723C10.3115 12.4724 10.3128 12.4725 10.3144 12.4726C10.322 12.4729 10.3329 12.4725 10.348 12.4704C10.3786 12.4662 10.4198 12.4563 10.4753 12.4393L10.4756 12.4392C11.2999 12.1894 12.1929 12.667 12.41 13.474C12.41 13.4741 12.4101 13.4742 12.4101 13.4743L12.4281 13.5393L12.5944 13.4809L12.5944 13.4809L12.5956 13.4805C13.1621 13.29 13.8218 13.4547 14.2284 13.8914C14.238 13.9017 14.2474 13.9117 14.2567 13.9216C14.3363 14.0066 14.4067 14.0819 14.4599 14.1758C14.5211 14.284 14.5572 14.4114 14.5791 14.6031C14.6199 14.9596 14.6145 15.5739 14.6039 16.7788C14.6033 16.848 14.6027 16.9192 14.602 16.9924C14.602 16.9924 14.602 16.9924 14.602 16.9925L14.502 16.9916M10.2047 12.4271L13.2082 24.4261C13.3369 24.4335 13.4865 24.4008 13.5782 24.2989L13.5039 24.232L13.5776 24.2995C13.6172 24.2562 13.6521 24.1809 13.6841 24.0977C13.718 24.0094 13.7545 23.8957 13.7927 23.7621C13.869 23.4945 13.9538 23.1409 14.0393 22.7379C14.2103 21.9316 14.3853 20.9225 14.5028 19.9988M14.502 16.9916C14.488 18.8521 14.4646 19.5129 14.4036 19.9862M14.502 16.9916C14.5205 14.8607 14.5302 14.4585 14.3478 14.1843C14.2987 14.1105 14.2357 14.046 14.1553 13.9596C13.7757 13.5519 13.1571 13.3972 12.6275 13.5753L12.455 13.6358L14.502 16.9916ZM14.4036 19.9862L14.5028 19.9988M14.4036 19.9862C14.1693 21.8279 13.7054 24.0117 13.5039 24.232C13.3773 24.3726 13.0493 24.3538 12.9274 24.1992M14.4036 19.9862L14.5028 19.9989C14.5028 19.9989 14.5028 19.9989 14.5028 19.9988M14.5028 19.9988L12.9274 24.1992M12.9274 24.1992C12.8712 24.1289 12.829 24.0352 12.829 23.993C12.829 23.9461 12.9134 23.5665 13.0118 23.1448C13.5788 20.8016 13.7194 19.5175 13.7194 16.7104C13.7194 14.8125 13.7147 14.7328 13.6257 14.5828C13.5226 14.4188 13.2883 14.2923 13.0821 14.2923C12.9087 14.2923 12.6228 14.4657 12.5291 14.6297C12.4541 14.7516 12.4401 14.9484 12.4166 16.2418M12.9274 24.1992L13.5404 14.635M12.4166 16.2418L12.5166 16.2435M12.4166 16.2418L12.5166 16.2436C12.5166 16.2436 12.5166 16.2436 12.5166 16.2435M12.4166 16.2418C12.3932 17.6055 12.3885 17.7274 12.3042 17.8352C12.1823 17.9851 11.8683 17.9945 11.6856 17.8492M12.5166 16.2435C12.5283 15.5959 12.5377 15.2263 12.5533 15.0034C12.5691 14.7779 12.5907 14.7203 12.6143 14.6821L12.616 14.6793L12.6159 14.6793C12.651 14.6179 12.7302 14.5443 12.8277 14.4849C12.9262 14.4249 13.0222 14.3923 13.0821 14.3923C13.1658 14.3923 13.2598 14.4184 13.3453 14.4642C13.4305 14.5099 13.5 14.5713 13.5404 14.635M12.5166 16.2435L11.624 17.928L11.6246 17.9285L11.6856 17.8492M13.5404 14.635C13.5402 14.6347 13.5399 14.6343 13.5397 14.6339L13.6257 14.5829L13.541 14.6361C13.5408 14.6357 13.5406 14.6354 13.5404 14.635ZM11.6856 17.8492L11.6233 17.9275L11.5027 17.8348L11.4637 17.8047V17.7555V15.7497V13.7746M11.6856 17.8492L11.5637 17.7555V15.7497V13.744M11.5637 13.744L11.4809 13.8L11.4637 13.7746M11.5637 13.744H11.4637V13.7746M11.5637 13.744L11.4559 13.5847C11.1841 13.1769 10.6218 13.1723 10.3593 13.5753M11.4637 13.7746L11.3731 13.6407L11.3727 13.6401C11.139 13.2895 10.6649 13.2898 10.4434 13.6295M10.4434 13.6295C10.4434 13.6294 10.4435 13.6293 10.4436 13.6292L10.3593 13.5753M10.4434 13.6295C10.4225 13.6622 10.4008 13.7151 10.386 14.0131C10.3715 14.3055 10.3633 14.8128 10.3515 15.7323M10.4434 13.6295C10.4433 13.6296 10.4432 13.6297 10.4431 13.6299L10.3593 13.5753M10.3593 13.5753C10.2843 13.6924 10.275 13.894 10.2515 15.731M10.3515 15.7323L10.3515 15.7322L10.2515 15.731M10.3515 15.7323L10.3514 15.7403C10.3398 16.7453 10.3339 17.253 10.3174 17.522C10.3092 17.6554 10.2979 17.7405 10.2779 17.8008C10.2549 17.8701 10.2211 17.904 10.1917 17.9333L10.1915 17.9335M10.3515 15.7323L10.2515 15.731M10.2515 15.731C10.2302 17.5756 10.2283 17.7395 10.1466 17.8356C10.1386 17.845 10.1299 17.8537 10.1203 17.8633M10.1915 17.9335C10.1917 17.9333 10.1919 17.9331 10.1921 17.9329L10.1203 17.8633M10.1915 17.9335C10.0948 18.0329 9.95202 18.0748 9.82227 18.0734C9.69336 18.072 9.55239 18.0274 9.46651 17.9219M10.1915 17.9335L10.191 17.934L10.1203 17.8633M10.1203 17.8633C9.97505 18.0132 9.66575 18.0086 9.54391 17.8586M9.46651 17.9219L9.54391 17.8586M9.46651 17.9219C9.46644 17.9218 9.46637 17.9217 9.46629 17.9216L9.54391 17.8586M9.46651 17.9219L8.2786 12.5162M9.54391 17.8586C9.45955 17.7555 9.45487 17.6336 9.45487 15.2108C9.45487 12.7786 9.45018 12.6708 9.36114 12.5255C9.12682 12.1413 8.5504 12.1366 8.2786 12.5162M3.60164 15.5482C4.07027 15.8482 4.65138 16.5933 5.07784 17.4415L4.98839 17.4862C5.04621 17.6019 5.11013 17.7129 5.16613 17.7993C5.19407 17.8424 5.22079 17.8806 5.2444 17.9106C5.25618 17.9256 5.26798 17.9395 5.27942 17.9514C5.28971 17.9622 5.30427 17.9761 5.32162 17.9865L5.32718 17.9898L5.32728 17.9897C5.42449 18.0397 5.53867 18.056 5.64492 18.0434C5.75088 18.0309 5.85794 17.9885 5.93585 17.9106L6.04363 17.8028L6.07246 17.7739L6.07292 17.7332L6.10103 15.2309L4.98849 17.4864C4.56525 16.6446 3.99443 15.9186 3.54822 15.6328M3.60164 15.5482L3.54864 15.633C3.5485 15.6329 3.54836 15.6329 3.54822 15.6328M3.60164 15.5482C3.26423 15.3373 2.75342 15.3889 2.61283 15.6466C2.44412 15.97 2.66438 16.6917 3.19393 17.5259L3.54822 15.6328M3.60164 15.5482L3.54774 15.6325C3.5479 15.6326 3.54806 15.6327 3.54822 15.6328M8.2786 12.5162L8.16613 12.6755L8.14269 15.1921L8.2786 12.5162ZM8.25108 11.5412C8.19735 11.5608 8.15975 11.5742 8.15675 11.5742C8.15564 11.5742 8.15426 11.5387 8.15268 11.4743C8.15399 11.4743 8.15535 11.4742 8.15675 11.4742C8.1942 11.4742 8.21847 11.4942 8.22869 11.5048C8.23899 11.5155 8.2444 11.5259 8.24656 11.5304C8.24852 11.5344 8.24999 11.5381 8.25108 11.5412ZM8.08035 17.8935C7.97669 18.0061 7.82986 18.0584 7.69003 18.057C7.55054 18.0556 7.40694 18.0003 7.31439 17.8831L7.31425 17.8829L7.21115 17.7517L7.18948 17.7241L7.18979 17.689L7.22728 13.4012C7.24134 11.409 7.24836 10.3346 7.24251 9.74051C7.23958 9.44289 7.23343 9.26901 7.22372 9.16156C7.21403 9.05426 7.20151 9.02382 7.19217 9.00631L7.19171 9.00542C7.11846 8.8647 6.97587 8.76692 6.81609 8.73181C6.65628 8.69669 6.49167 8.7268 6.3746 8.82499L6.31034 8.74837C6.03853 8.978 6.03385 9.0108 6.03385 10.9509C6.03385 11.9257 6.01979 13.8518 6.00104 15.2296L8.08035 17.8935Z" fill="white" stroke="white" stroke-width="0.2"/>
<path d="M0.169531 18.8856C0.169531 18.743 0.206574 18.6197 0.292547 18.5337C0.37852 18.4477 0.501863 18.4107 0.644437 18.4107C0.784513 18.4107 0.907933 18.4465 0.995742 18.5343C1.08355 18.6221 1.11934 18.7455 1.11934 18.8856C1.11934 19.0282 1.0823 19.1515 0.996328 19.2375C0.910355 19.3235 0.787012 19.3605 0.644437 19.3605C0.501863 19.3605 0.37852 19.3235 0.292547 19.2375C0.206574 19.1515 0.169531 19.0282 0.169531 18.8856Z" fill="white" stroke="white" stroke-width="0.2"/>
</svg>
