<svg width="25" height="24" viewBox="0 0 25 24" fill="none" xmlns="http://www.w3.org/2000/svg">
<mask id="mask0_322_5798" style="mask-type:alpha" maskUnits="userSpaceOnUse" x="0" y="0" width="25" height="24">
<rect x="0.227539" width="24" height="24" fill="#D9D9D9"/>
</mask>
<g mask="url(#mask0_322_5798)">
<path d="M5.24254 17.995C6.32421 17.2189 7.43643 16.6185 8.5792 16.1938C9.72199 15.769 10.9381 15.5567 12.2275 15.5567C13.517 15.5567 14.7361 15.769 15.885 16.1938C17.0339 16.6185 18.1492 17.2189 19.2309 17.995C19.9825 17.0844 20.531 16.1342 20.8763 15.1442C21.2216 14.1542 21.3942 13.1061 21.3942 12C21.3942 9.415 20.5127 7.24097 18.7496 5.47791C16.9866 3.71485 14.8125 2.83332 12.2275 2.83332C9.64254 2.83332 7.46851 3.71485 5.70545 5.47791C3.94238 7.24097 3.06085 9.415 3.06085 12C3.06085 13.1061 3.23655 14.1542 3.58795 15.1442C3.93934 16.1342 4.49087 17.0844 5.24254 17.995ZM12.2241 12.9167C11.157 12.9167 10.2582 12.5504 9.52795 11.8178C8.79768 11.0853 8.43254 10.1854 8.43254 9.11825C8.43254 8.05108 8.79881 7.15236 9.53136 6.42209C10.2639 5.6918 11.1638 5.32666 12.2309 5.32666C13.2981 5.32666 14.1968 5.69294 14.9271 6.4255C15.6574 7.15805 16.0225 8.0579 16.0225 9.12507C16.0225 10.1923 15.6563 11.091 14.9237 11.8212C14.1912 12.5515 13.2913 12.9167 12.2241 12.9167ZM12.2361 23C10.721 23 9.29421 22.7113 7.95588 22.1337C6.61755 21.5562 5.45032 20.7694 4.4542 19.7733C3.45809 18.7772 2.67129 17.6114 2.09379 16.2759C1.51629 14.9405 1.22754 13.5135 1.22754 11.9951C1.22754 10.4767 1.51629 9.05139 2.09379 7.71916C2.67129 6.38695 3.45809 5.22278 4.4542 4.22666C5.45032 3.23055 6.61612 2.44375 7.95159 1.86625C9.28706 1.28875 10.714 1 12.2324 1C13.7508 1 15.1762 1.28875 16.5084 1.86625C17.8406 2.44375 19.0048 3.23055 20.0009 4.22666C20.997 5.22278 21.7838 6.38715 22.3613 7.71976C22.9388 9.05237 23.2275 10.4763 23.2275 11.9914C23.2275 13.5066 22.9388 14.9333 22.3613 16.2717C21.7838 17.61 20.997 18.7772 20.0009 19.7733C19.0048 20.7694 17.8404 21.5562 16.5078 22.1337C15.1752 22.7113 13.7513 23 12.2361 23ZM12.2275 21.1667C13.2236 21.1667 14.1861 21.0215 15.115 20.7313C16.0439 20.441 16.9392 19.9628 17.8009 19.2967C16.9392 18.6794 16.0409 18.2074 15.1059 17.8804C14.1709 17.5535 13.2114 17.39 12.2275 17.39C11.2436 17.39 10.2842 17.5535 9.3492 17.8804C8.4142 18.2074 7.51586 18.6794 6.6542 19.2967C7.51586 19.9628 8.41114 20.441 9.34004 20.7313C10.2689 21.0215 11.2314 21.1667 12.2275 21.1667ZM12.2275 11.0833C12.802 11.0833 13.2725 10.9 13.6392 10.5333C14.0059 10.1667 14.1892 9.69611 14.1892 9.12166C14.1892 8.54722 14.0059 8.07667 13.6392 7.71C13.2725 7.34333 12.802 7.16 12.2275 7.16C11.6531 7.16 11.1825 7.34333 10.8159 7.71C10.4492 8.07667 10.2659 8.54722 10.2659 9.12166C10.2659 9.69611 10.4492 10.1667 10.8159 10.5333C11.1825 10.9 11.6531 11.0833 12.2275 11.0833Z" fill="white"/>
</g>
</svg>
