<svg width="22" height="23" viewBox="0 0 22 23" fill="none" xmlns="http://www.w3.org/2000/svg">
<path d="M10.8501 21.4937C16.3729 21.4937 20.8501 17.0165 20.8501 11.4937C20.8501 5.9708 16.3729 1.49365 10.8501 1.49365C5.32725 1.49365 0.850098 5.9708 0.850098 11.4937C0.850098 17.0165 5.32725 21.4937 10.8501 21.4937Z" stroke="white" stroke-width="1.5" stroke-linecap="round" stroke-linejoin="round"/>
<path d="M7.94019 8.49373C8.17529 7.8254 8.63934 7.26184 9.25014 6.90287C9.86094 6.54389 10.5791 6.41267 11.2774 6.53245C11.9756 6.65222 12.609 7.01526 13.0653 7.55726C13.5215 8.09927 13.7712 8.78526 13.7702 9.49373C13.7702 11.4937 10.7702 12.4937 10.7702 12.4937" stroke="white" stroke-width="1.5" stroke-linecap="round" stroke-linejoin="round"/>
<path d="M10.8501 16.4937H10.8601" stroke="white" stroke-width="1.5" stroke-linecap="round" stroke-linejoin="round"/>
</svg>
