<svg width="20" height="21" viewBox="0 0 20 21" fill="none" xmlns="http://www.w3.org/2000/svg">
<path d="M9.67038 0.65898C7.68477 0.797173 5.85918 2.12819 5.11003 3.98288L4.87728 4.57201L3.4008 4.60838C1.96796 4.64475 1.90978 4.65202 1.54611 4.8484C1.04425 5.11024 0.673316 5.48845 0.440571 5.98303L0.251465 6.39034V12.6454V18.9004L0.440571 19.3004C0.680589 19.8096 1.08789 20.2169 1.59702 20.4569L1.99706 20.646H10.1068H18.2165L18.6165 20.4569C19.0675 20.2387 19.5111 19.8314 19.7075 19.4386C19.9912 18.8931 20.0057 18.4495 19.9839 12.3181L19.9621 6.39034L19.773 5.98303C19.533 5.46663 19.1402 5.07387 18.6238 4.83385C18.2383 4.65202 18.1365 4.64475 16.7764 4.60838L15.3363 4.57201L15.1035 3.98288C14.2307 1.82998 12.056 0.498968 9.67038 0.65898ZM11.416 2.04091C12.4633 2.38275 13.3361 3.12463 13.8598 4.1138L14.1144 4.60838H10.1141H6.10647L6.23011 4.33199C7.13928 2.34638 9.35036 1.36449 11.416 2.04091ZM18.1365 5.91757C18.3038 5.99758 18.5147 6.17941 18.6165 6.33215L18.7984 6.60126V8.89235C18.7984 11.0816 18.7911 11.2053 18.6456 11.4453C18.5656 11.5835 18.3911 11.7726 18.2529 11.8599L18.0129 12.0271H10.1068H2.20071L1.96069 11.8599C1.8225 11.7726 1.64794 11.5835 1.56793 11.4453C1.42247 11.2053 1.41519 11.0816 1.41519 8.89962C1.41519 6.6449 1.41519 6.60126 1.58248 6.33942C1.67703 6.19396 1.88068 6.01213 2.05524 5.92485C2.36072 5.77211 2.39709 5.77211 10.0995 5.77211C17.6783 5.77211 17.8528 5.77211 18.1365 5.91757ZM2.74621 13.1909H3.48808V16.3548V19.5186H2.94986C2.65165 19.5186 2.31708 19.4823 2.20071 19.4386C1.89523 19.3295 1.53156 18.944 1.45156 18.6458C1.40792 18.5004 1.37883 17.2275 1.37883 15.6492V12.9072L1.69158 13.0454C1.92432 13.1545 2.16434 13.1909 2.74621 13.1909ZM18.762 18.544C18.6747 18.944 18.3765 19.3004 18.0129 19.4386C17.8965 19.4823 17.5619 19.5186 17.2637 19.5186H16.7255V18.4349V17.3439L16.5364 17.1985C16.2818 16.9948 16.0491 17.0093 15.8018 17.2203C15.5981 17.3948 15.5981 17.3948 15.5763 18.4567L15.5545 19.5186H14.8635H14.1798V16.3548V13.1909H14.8708H15.5618V14.1291C15.5618 15.111 15.6345 15.4747 15.8527 15.5911C16.0782 15.7074 16.4273 15.6711 16.58 15.5183C16.7109 15.3874 16.7255 15.2783 16.7255 14.2819V13.1909H17.4746C18.0274 13.1909 18.2892 13.1545 18.5074 13.0599L18.7984 12.929L18.8202 15.5474C18.8347 17.2566 18.8129 18.304 18.762 18.544ZM6.03373 16.3548V19.5186H5.34277H4.65181V16.3548V13.1909H5.34277H6.03373V16.3548ZM13.0161 16.3548V19.5186H10.1068H7.19746V16.3548V13.1909H10.1068H13.0161V16.3548Z" fill="white"/>
<path d="M8.97225 9.27756C8.80496 9.35756 8.65222 9.62667 8.65222 9.8376C8.65222 9.91033 8.71768 10.0558 8.80496 10.1649L8.95043 10.354H10.1069H11.2633L11.4088 10.1649C11.6561 9.85215 11.5615 9.42302 11.2197 9.27028C11.0015 9.16846 9.18317 9.17573 8.97225 9.27756Z" fill="white"/>
</svg>
