<svg width="20" height="21" viewBox="0 0 20 21" fill="none" xmlns="http://www.w3.org/2000/svg">
<path fill-rule="evenodd" clip-rule="evenodd" d="M15.9565 6.63877C16.0924 6.52566 16.2675 6.47111 16.4436 6.48711C16.6196 6.50312 16.7821 6.58836 16.8953 6.72411L19.6728 10.0574C19.781 10.1938 19.8316 10.367 19.8137 10.5401C19.7959 10.7133 19.7111 10.8725 19.5773 10.984C19.4436 11.0954 19.2716 11.1501 19.0981 11.1364C18.9246 11.1227 18.7633 11.0418 18.6487 10.9108L15.8712 7.57744C15.7581 7.44163 15.7035 7.26646 15.7195 7.09044C15.7355 6.91442 15.8208 6.75196 15.9565 6.63877Z" fill="white"/>
<path fill-rule="evenodd" clip-rule="evenodd" d="M15.9565 14.3212C15.8208 14.208 15.7355 14.0455 15.7195 13.8695C15.7035 13.6935 15.7581 13.5183 15.8712 13.3825L18.6487 10.0492C18.704 9.97953 18.7726 9.92165 18.8506 9.87892C18.9285 9.8362 19.0143 9.8095 19.1027 9.80039C19.1911 9.79128 19.2805 9.79994 19.3655 9.82587C19.4505 9.85181 19.5295 9.89448 19.5978 9.95139C19.6661 10.0083 19.7223 10.0783 19.7632 10.1573C19.804 10.2362 19.8287 10.3225 19.8357 10.4112C19.8426 10.4998 19.8318 10.5889 19.8039 10.6733C19.7759 10.7577 19.7313 10.8356 19.6728 10.9025L16.8953 14.2358C16.7821 14.3716 16.6196 14.4568 16.4436 14.4728C16.2675 14.4888 16.0924 14.4343 15.9565 14.3212Z" fill="white"/>
<path fill-rule="evenodd" clip-rule="evenodd" d="M18.8291 10.4805C18.8291 10.6573 18.7588 10.8268 18.6338 10.9519C18.5088 11.0769 18.3392 11.1471 18.1624 11.1471H8.16168C7.98486 11.1471 7.81528 11.0769 7.69025 10.9519C7.56521 10.8268 7.49497 10.6573 7.49497 10.4805C7.49497 10.3037 7.56521 10.1341 7.69025 10.0091C7.81528 9.88404 7.98486 9.8138 8.16168 9.8138H18.1624C18.3392 9.8138 18.5088 9.88404 18.6338 10.0091C18.7588 10.1341 18.8291 10.3037 18.8291 10.4805ZM0.161133 1.14714C0.161133 0.970324 0.231376 0.800755 0.356409 0.675731C0.481441 0.550707 0.651022 0.480469 0.827845 0.480469H12.8287C13.0055 0.480469 13.1751 0.550707 13.3001 0.675731C13.4251 0.800755 13.4954 0.970324 13.4954 1.14714C13.4954 1.32395 13.4251 1.49352 13.3001 1.61854C13.1751 1.74356 13.0055 1.8138 12.8287 1.8138H0.827845C0.651022 1.8138 0.481441 1.74356 0.356409 1.61854C0.231376 1.49352 0.161133 1.32395 0.161133 1.14714ZM0.161133 19.8138C0.161133 19.637 0.231376 19.4674 0.356409 19.3424C0.481441 19.2174 0.651022 19.1471 0.827845 19.1471H12.8287C13.0055 19.1471 13.1751 19.2174 13.3001 19.3424C13.4251 19.4674 13.4954 19.637 13.4954 19.8138C13.4954 19.9906 13.4251 20.1602 13.3001 20.2852C13.1751 20.4102 13.0055 20.4805 12.8287 20.4805H0.827845C0.651022 20.4805 0.481441 20.4102 0.356409 20.2852C0.231376 20.1602 0.161133 19.9906 0.161133 19.8138Z" fill="white"/>
<path fill-rule="evenodd" clip-rule="evenodd" d="M12.8287 0.480469C13.0055 0.480469 13.1751 0.550707 13.3001 0.675731C13.4251 0.800755 13.4954 0.970324 13.4954 1.14714V6.48047C13.4954 6.65728 13.4251 6.82685 13.3001 6.95187C13.1751 7.0769 13.0055 7.14714 12.8287 7.14714C12.6518 7.14714 12.4823 7.0769 12.3572 6.95187C12.2322 6.82685 12.162 6.65728 12.162 6.48047V1.14714C12.162 0.970324 12.2322 0.800755 12.3572 0.675731C12.4823 0.550707 12.6518 0.480469 12.8287 0.480469ZM12.8287 13.8138C13.0055 13.8138 13.1751 13.884 13.3001 14.0091C13.4251 14.1341 13.4954 14.3037 13.4954 14.4805V19.8138C13.4954 19.9906 13.4251 20.1602 13.3001 20.2852C13.1751 20.4102 13.0055 20.4805 12.8287 20.4805C12.6518 20.4805 12.4823 20.4102 12.3572 20.2852C12.2322 20.1602 12.162 19.9906 12.162 19.8138V14.4805C12.162 14.3037 12.2322 14.1341 12.3572 14.0091C12.4823 13.884 12.6518 13.8138 12.8287 13.8138ZM0.827845 0.480469C1.00467 0.480469 1.17425 0.550707 1.29928 0.675731C1.42431 0.800755 1.49456 0.970324 1.49456 1.14714V19.8138C1.49456 19.9906 1.42431 20.1602 1.29928 20.2852C1.17425 20.4102 1.00467 20.4805 0.827845 20.4805C0.651022 20.4805 0.481441 20.4102 0.356409 20.2852C0.231376 20.1602 0.161133 19.9906 0.161133 19.8138V1.14714C0.161133 0.970324 0.231376 0.800755 0.356409 0.675731C0.481441 0.550707 0.651022 0.480469 0.827845 0.480469Z" fill="white"/>
</svg>
