<svg width="25" height="25" viewBox="0 0 25 25" fill="none" xmlns="http://www.w3.org/2000/svg">
<path d="M16.0039 21.4104C17.3432 21.4104 18.6277 20.8783 19.5748 19.9312C20.5219 18.9842 21.0539 17.6997 21.0539 16.3604C21.0539 15.021 20.5219 13.7365 19.5748 12.7895C18.6277 11.8424 17.3432 11.3104 16.0039 11.3104C14.6646 11.3104 13.3801 11.8424 12.433 12.7895C11.486 13.7365 10.9539 15.021 10.9539 16.3604C10.9539 17.6997 11.486 18.9842 12.433 19.9312C13.3801 20.8783 14.6646 21.4104 16.0039 21.4104ZM22.2039 16.3604C22.2039 18.0047 21.5507 19.5817 20.388 20.7444C19.2252 21.9071 17.6482 22.5604 16.0039 22.5604C14.3596 22.5604 12.7826 21.9071 11.6198 20.7444C10.4571 19.5817 9.80391 18.0047 9.80391 16.3604C9.80391 14.716 10.4571 13.139 11.6198 11.9763C12.7826 10.8136 14.3596 10.1604 16.0039 10.1604C17.6482 10.1604 19.2252 10.8136 20.388 11.9763C21.5507 13.139 22.2039 14.716 22.2039 16.3604Z" fill="white" stroke="#806BFF" stroke-width="0.1"/>
<path d="M14.052 17.5404C14.1108 18.2854 14.6995 18.8654 15.7558 18.9354V19.4854H16.2245V18.9316C17.3183 18.8554 17.957 18.2704 17.957 17.4229C17.957 16.6504 17.4695 16.2529 16.5945 16.0479L16.2245 15.9604V14.4604C16.6945 14.5141 16.992 14.7704 17.0633 15.1254H17.8858C17.827 14.4066 17.2108 13.8454 16.2245 13.7841V13.2354H15.7558V13.7979C14.822 13.8891 14.187 14.4504 14.187 15.2454C14.187 15.9479 14.6595 16.3954 15.4458 16.5779L15.7558 16.6541V18.2441C15.2758 18.1716 14.957 17.9066 14.8858 17.5404H14.052ZM15.752 15.8479C15.2908 15.7416 15.0408 15.5229 15.0408 15.1954C15.0408 14.8279 15.3108 14.5529 15.7558 14.4729V15.8479H15.752ZM16.292 16.7804C16.8533 16.9104 17.1108 17.1204 17.1108 17.4916C17.1108 17.9154 16.7895 18.2054 16.2245 18.2591V16.7654L16.292 16.7804Z" fill="white"/>
<path d="M22.2039 3.86035V12.0504C21.8717 11.5732 21.485 11.136 21.0539 10.748V6.36035V6.31035H21.0039C20.3541 6.31035 19.731 6.05223 19.2715 5.59276C18.812 5.1333 18.5539 4.51013 18.5539 3.86035V3.81035H18.5039H6.00391H5.95391V3.86035C5.95391 4.51013 5.69578 5.1333 5.23632 5.59276C4.77685 6.05223 4.15369 6.31035 3.50391 6.31035H3.45391V6.36035V11.3604V11.4104H3.50391C4.15369 11.4104 4.77685 11.6685 5.23632 12.1279C5.69578 12.5874 5.95391 13.2106 5.95391 13.8604V13.9104H6.00391H8.8599C8.73308 14.2819 8.63497 14.6652 8.56556 15.0604H3.50391C3.18565 15.0604 2.88042 14.9339 2.65538 14.7089C2.43033 14.4838 2.30391 14.1786 2.30391 13.8604V3.86035C2.30391 3.54209 2.43033 3.23687 2.65538 3.01182C2.88042 2.78678 3.18565 2.66035 3.50391 2.66035H21.0039C21.3222 2.66035 21.6274 2.78678 21.8524 3.01182C22.0775 3.23687 22.2039 3.54209 22.2039 3.86035Z" fill="white" stroke="#806BFF" stroke-width="0.1"/>
<path d="M14.7514 8.96457L14.7539 8.86082C14.7537 8.43031 14.6422 8.00716 14.4304 7.63235C14.2186 7.25755 13.9136 6.94379 13.545 6.72147C13.1763 6.49914 12.7565 6.37579 12.3261 6.36335C11.8958 6.35091 11.4696 6.44981 11.0887 6.65047C10.7078 6.85113 10.3852 7.14675 10.1521 7.50869C9.91897 7.87064 9.78329 8.28664 9.75817 8.71642C9.73305 9.1462 9.81933 9.57518 10.0087 9.96182C10.198 10.3485 10.484 10.6796 10.8389 10.9233C11.9194 9.89604 13.2815 9.2141 14.7514 8.96457Z" fill="white"/>
</svg>
