<svg width="21" height="18" viewBox="0 0 21 18" fill="none" xmlns="http://www.w3.org/2000/svg">
<path d="M5.34213 1.98352C5.47449 1.84147 5.54654 1.6536 5.54312 1.45948C5.53969 1.26536 5.46105 1.08014 5.32377 0.942856C5.18648 0.80557 5.00127 0.72693 4.80715 0.723505C4.61302 0.72008 4.42515 0.792137 4.28311 0.924495L2.31493 2.89268L1.84536 2.42311C1.70332 2.29075 1.51544 2.2187 1.32132 2.22212C1.1272 2.22555 0.941987 2.30418 0.804701 2.44147C0.667415 2.57876 0.588775 2.76397 0.58535 2.95809C0.581925 3.15221 0.653982 3.34009 0.786339 3.48213L1.78542 4.48121C1.92591 4.62153 2.11636 4.70035 2.31493 4.70035C2.51349 4.70035 2.70394 4.62153 2.84444 4.48121L5.34213 1.98352ZM19.7988 15.1983H8.30939L8.20748 15.2053C8.01941 15.2312 7.84816 15.3275 7.72836 15.4748C7.60855 15.622 7.54911 15.8093 7.56205 15.9987C7.57499 16.1881 7.65935 16.3655 7.79807 16.4951C7.93679 16.6247 8.11954 16.6969 8.30939 16.6969H19.7988L19.9007 16.6899C20.0888 16.664 20.26 16.5677 20.3798 16.4205C20.4996 16.2732 20.559 16.0859 20.5461 15.8965C20.5332 15.7071 20.4488 15.5297 20.3101 15.4001C20.1714 15.2705 19.9886 15.1984 19.7988 15.1983ZM19.7988 8.69731H8.30939L8.20748 8.70431C8.01941 8.73018 7.84816 8.82649 7.72836 8.97376C7.60855 9.12103 7.54911 9.30829 7.56205 9.49769C7.57499 9.6871 7.65935 9.86453 7.79807 9.99414C7.93679 10.1237 8.11954 10.1959 8.30939 10.1959H19.7988L19.9007 10.1889C20.0888 10.1631 20.26 10.0668 20.3798 9.91948C20.4996 9.77221 20.559 9.58495 20.5461 9.39555C20.5332 9.20614 20.4488 9.02871 20.3101 8.8991C20.1714 8.76949 19.9886 8.69737 19.7988 8.69731ZM19.7988 2.20331H8.30939L8.20748 2.21031C8.01941 2.23618 7.84816 2.33249 7.72836 2.47976C7.60855 2.62703 7.54911 2.81429 7.56205 3.00369C7.57499 3.1931 7.65935 3.37053 7.79807 3.50014C7.93679 3.62975 8.11954 3.70187 8.30939 3.70193H19.7988L19.9007 3.69493C20.0888 3.66906 20.26 3.57275 20.3798 3.42548C20.4996 3.27821 20.559 3.09095 20.5461 2.90155C20.5332 2.71214 20.4488 2.53471 20.3101 2.4051C20.1714 2.27549 19.9886 2.20337 19.7988 2.20331ZM5.34213 14.9715C5.41575 14.9029 5.4748 14.8202 5.51575 14.7283C5.5567 14.6364 5.57873 14.5371 5.5805 14.4365C5.58228 14.3359 5.56377 14.236 5.52608 14.1427C5.4884 14.0494 5.4323 13.9646 5.36115 13.8935C5.29 13.8223 5.20524 13.7662 5.11194 13.7285C5.01864 13.6909 4.9187 13.6723 4.81809 13.6741C4.71748 13.6759 4.61826 13.6979 4.52635 13.7389C4.43443 13.7798 4.35171 13.8389 4.28311 13.9125L2.31493 15.8807L1.84536 15.4111C1.70332 15.2787 1.51544 15.2067 1.32132 15.2101C1.1272 15.2135 0.941987 15.2922 0.804701 15.4295C0.667415 15.5668 0.588775 15.752 0.58535 15.9461C0.581925 16.1402 0.653982 16.3281 0.786339 16.4701L1.78542 17.4692C1.92591 17.6095 2.11636 17.6883 2.31493 17.6883C2.51349 17.6883 2.70394 17.6095 2.84444 17.4692L5.34213 14.9715ZM5.34213 7.41849C5.48245 7.55899 5.56127 7.74944 5.56127 7.948C5.56127 8.14657 5.48245 8.33702 5.34213 8.47751L2.84444 10.9752C2.70394 11.1155 2.51349 11.1943 2.31493 11.1943C2.11636 11.1943 1.92591 11.1155 1.78542 10.9752L0.786339 9.97613C0.712721 9.90753 0.653673 9.82481 0.612719 9.73289C0.571765 9.64098 0.549743 9.54176 0.547968 9.44115C0.546193 9.34054 0.5647 9.2406 0.602387 9.1473C0.640073 9.054 0.696166 8.96924 0.767319 8.89809C0.838472 8.82694 0.923227 8.77084 1.01653 8.73316C1.10983 8.69547 1.20977 8.67696 1.31038 8.67874C1.41099 8.68051 1.51021 8.70253 1.60212 8.74349C1.69404 8.78444 1.77676 8.84349 1.84536 8.91711L2.31493 9.38667L4.28311 7.41849C4.4236 7.27817 4.61405 7.19936 4.81262 7.19936C5.01119 7.19936 5.20163 7.27817 5.34213 7.41849Z" fill="white"/>
</svg>
