<svg width="20" height="20" viewBox="0 0 20 20" fill="none" xmlns="http://www.w3.org/2000/svg">
<path d="M15.8333 20H4.16667C1.86667 20 0 18.1333 0 15.8333V4.16667C0 1.86667 1.86667 0 4.16667 0H15.8333C18.1333 0 20 1.86667 20 4.16667V15.8333C20 18.1333 18.1333 20 15.8333 20ZM18.3333 4.16667C18.3333 2.79167 17.2083 1.66667 15.8333 1.66667H4.16667C2.79167 1.66667 1.66667 2.79167 1.66667 4.16667V15.8333C1.66667 17.2083 2.79167 18.3333 4.16667 18.3333H15.8333C17.2083 18.3333 18.3333 17.2083 18.3333 15.8333V4.16667ZM9.16667 15V10.8333C9.16667 10.375 8.79167 10 8.33333 10C7.875 10 7.5 10.375 7.5 10.8333V15C7.5 15.4583 7.875 15.8333 8.33333 15.8333C8.79167 15.8333 9.16667 15.4583 9.16667 15ZM5.83333 15V8.33333C5.83333 7.875 5.45833 7.5 5 7.5C4.54167 7.5 4.16667 7.875 4.16667 8.33333V15C4.16667 15.4583 4.54167 15.8333 5 15.8333C5.45833 15.8333 5.83333 15.4583 5.83333 15ZM12.5 15V5C12.5 4.54167 12.125 4.16667 11.6667 4.16667C11.2083 4.16667 10.8333 4.54167 10.8333 5V15C10.8333 15.4583 11.2083 15.8333 11.6667 15.8333C12.125 15.8333 12.5 15.4583 12.5 15ZM15.8333 15V12.5C15.8333 12.0417 15.4583 11.6667 15 11.6667C14.5417 11.6667 14.1667 12.0417 14.1667 12.5V15C14.1667 15.4583 14.5417 15.8333 15 15.8333C15.4583 15.8333 15.8333 15.4583 15.8333 15Z" fill="#FFFFFF"/>
</svg>
