<svg width="28" height="28" viewBox="0 0 28 28" fill="none" xmlns="http://www.w3.org/2000/svg">
<mask id="mask0_1036_759" style="mask-type:alpha" maskUnits="userSpaceOnUse" x="0" y="0" width="28" height="28">
<rect width="28" height="28" fill="#D9D9D9"/>
</mask>
<g mask="url(#mask0_1036_759)">
<path d="M21.9588 5.88648C21.3902 5.31873 20.6195 4.99985 19.816 4.99985C19.0125 4.99985 18.2418 5.31873 17.6731 5.88648L6.22533 17.3345C5.83578 17.7219 5.52691 18.1826 5.31659 18.6901C5.10626 19.1977 4.99866 19.7418 5.00001 20.2912V22.0083C5.00001 22.2301 5.08813 22.4429 5.24499 22.5997C5.40184 22.7566 5.61458 22.8447 5.83641 22.8447H7.55353C8.10285 22.8463 8.64701 22.7388 9.15453 22.5286C9.66204 22.3185 10.1228 22.0097 10.5102 21.6202L21.9588 10.1713C22.5263 9.60276 22.8451 8.83224 22.8451 8.02891C22.8451 7.22558 22.5263 6.45507 21.9588 5.88648ZM9.32753 20.4376C8.85581 20.9061 8.21844 21.17 7.55353 21.1719H6.67281V20.2912C6.67196 19.9616 6.7365 19.6351 6.8627 19.3305C6.9889 19.026 7.17424 18.7496 7.408 18.5172L15.5763 10.3487L17.5 12.2724L9.32753 20.4376ZM20.7753 8.98868L18.6793 11.0855L16.7556 9.16599L18.8525 7.06915C18.9788 6.94311 19.1287 6.84318 19.2936 6.77508C19.4585 6.70697 19.6353 6.67202 19.8137 6.67221C19.9921 6.6724 20.1688 6.70774 20.3336 6.77621C20.4984 6.84467 20.648 6.94492 20.7741 7.07124C20.9001 7.19755 21 7.34745 21.0681 7.51238C21.1363 7.67731 21.1712 7.85404 21.171 8.03248C21.1708 8.21092 21.1355 8.38757 21.067 8.55236C20.9986 8.71714 20.8983 8.86682 20.772 8.99286L20.7753 8.98868Z" fill="#260B6A"/>
</g>
</svg>
