<svg width="20" height="21" viewBox="0 0 20 21" fill="none" xmlns="http://www.w3.org/2000/svg">
<path fill-rule="evenodd" clip-rule="evenodd" d="M10 0.285156C4.477 0.285156 0 4.76216 0 10.2852C0 15.8082 4.477 20.2852 10 20.2852C15.523 20.2852 20 15.8082 20 10.2852C20 4.76216 15.523 0.285156 10 0.285156ZM6.5 7.78516C6.5 7.32553 6.59053 6.8704 6.76642 6.44576C6.94231 6.02112 7.20012 5.63529 7.52513 5.31028C7.85013 4.98528 8.23597 4.72747 8.66061 4.55158C9.08525 4.37569 9.54037 4.28516 10 4.28516C10.4596 4.28516 10.9148 4.37569 11.3394 4.55158C11.764 4.72747 12.1499 4.98528 12.4749 5.31028C12.7999 5.63529 13.0577 6.02112 13.2336 6.44576C13.4095 6.8704 13.5 7.32553 13.5 7.78516C13.5 8.71341 13.1313 9.60365 12.4749 10.26C11.8185 10.9164 10.9283 11.2852 10 11.2852C9.07174 11.2852 8.1815 10.9164 7.52513 10.26C6.86875 9.60365 6.5 8.71341 6.5 7.78516ZM16.258 15.2692C15.5092 16.2105 14.5575 16.9706 13.4739 17.4929C12.3904 18.0151 11.2029 18.2859 10 18.2852C8.79715 18.2859 7.60965 18.0151 6.52607 17.4929C5.44249 16.9706 4.49081 16.2105 3.742 15.2692C5.363 14.1062 7.575 13.2852 10 13.2852C12.425 13.2852 14.637 14.1062 16.258 15.2692Z" fill="#FF845C"/>
</svg>
