<svg width="16" height="15" viewBox="0 0 16 15" fill="none" xmlns="http://www.w3.org/2000/svg">
<path d="M7.99966 9.23512L3.19966 14.0184C2.94409 14.274 2.63298 14.4046 2.26633 14.4101C1.89967 14.4157 1.59689 14.2851 1.35801 14.0184C1.09134 13.7629 0.958008 13.4559 0.958008 13.0976C0.958008 12.7393 1.09134 12.4268 1.35801 12.1601L6.15801 7.37679L1.35801 2.56844C1.09134 2.31289 0.958008 2.00595 0.958008 1.64761C0.958008 1.28928 1.09134 0.976789 1.35801 0.710139C1.59689 0.454572 1.89967 0.329572 2.26633 0.335139C2.63298 0.340689 2.94409 0.471239 3.19966 0.726789L7.99966 5.51014L12.7997 0.726789C13.0552 0.471239 13.3663 0.340689 13.733 0.335139C14.0997 0.329572 14.4024 0.454572 14.6413 0.710139C14.908 0.976789 15.0413 1.28928 15.0413 1.64761C15.0413 2.00595 14.9135 2.31289 14.658 2.56844L9.85798 7.37679L14.658 12.1601C14.9135 12.4268 15.0413 12.7393 15.0413 13.0976C15.0413 13.4559 14.908 13.7629 14.6413 14.0184C14.4024 14.2851 14.0997 14.4157 13.733 14.4101C13.3663 14.4046 13.0552 14.274 12.7997 14.0184L7.99966 9.23512Z" fill="#A5A5A5"/>
</svg>
