<svg width="84" height="48" viewBox="0 0 84 48" fill="none" xmlns="http://www.w3.org/2000/svg">
<path d="M0.779734 34.8334C0.779734 34.0961 0.901068 33.4241 1.14373 32.8174C1.3864 32.2014 1.72707 31.6741 2.16573 31.2354C2.61373 30.7874 3.12707 30.4421 3.70573 30.1994C4.29373 29.9567 4.93307 29.8354 5.62373 29.8354C6.63173 29.8354 7.51373 30.0687 8.26973 30.5354C9.03507 31.0021 9.61373 31.6647 10.0057 32.5234L9.09573 32.8594C8.88107 32.4021 8.5964 32.0287 8.24173 31.7394C7.88707 31.4407 7.48573 31.2167 7.03773 31.0674C6.58973 30.9181 6.1184 30.8434 5.62373 30.8434C4.92373 30.8434 4.29373 31.0021 3.73373 31.3194C3.17373 31.6367 2.7304 32.0941 2.40373 32.6914C2.0864 33.2887 1.92773 34.0027 1.92773 34.8334C1.92773 35.6547 2.0864 36.3641 2.40373 36.9614C2.7304 37.5587 3.17373 38.0207 3.73373 38.3474C4.29373 38.6647 4.92373 38.8234 5.62373 38.8234C6.12773 38.8234 6.6084 38.7441 7.06573 38.5854C7.52307 38.4267 7.93373 38.1794 8.29773 37.8434C8.67107 37.5074 8.96973 37.0874 9.19374 36.5834L10.1037 36.9194C9.7024 37.8807 9.1144 38.6087 8.33973 39.1034C7.56507 39.5887 6.65973 39.8314 5.62373 39.8314C4.93307 39.8314 4.29373 39.7101 3.70573 39.4674C3.12707 39.2247 2.61373 38.8794 2.16573 38.4314C1.72707 37.9834 1.3864 37.4561 1.14373 36.8494C0.901068 36.2334 0.779734 35.5614 0.779734 34.8334ZM11.9608 29.6534H13.0108V33.6854C13.2348 33.3494 13.5381 33.0927 13.9208 32.9154C14.3035 32.7287 14.7328 32.6354 15.2088 32.6354C15.7221 32.6354 16.1795 32.7521 16.5808 32.9854C16.9821 33.2187 17.2948 33.5641 17.5188 34.0214C17.7521 34.4787 17.8688 35.0481 17.8688 35.7294V39.7334H16.7488V35.8554C16.7488 35.1274 16.5948 34.5721 16.2868 34.1894C15.9788 33.7974 15.5308 33.6014 14.9428 33.6014C14.3361 33.6014 13.8601 33.8067 13.5148 34.2174C13.1788 34.6281 13.0108 35.2254 13.0108 36.0094V39.7334H11.9608V29.6534ZM22.9282 39.8314C22.2655 39.8314 21.6728 39.6867 21.1502 39.3974C20.6275 39.1081 20.2168 38.6974 19.9182 38.1654C19.6195 37.6241 19.4702 36.9847 19.4702 36.2474C19.4702 35.5007 19.6195 34.8567 19.9182 34.3154C20.2262 33.7741 20.6415 33.3587 21.1642 33.0694C21.6962 32.7801 22.2935 32.6354 22.9562 32.6354C23.6188 32.6354 24.2115 32.7801 24.7342 33.0694C25.2662 33.3587 25.6815 33.7741 25.9802 34.3154C26.2882 34.8474 26.4422 35.4821 26.4422 36.2194C26.4422 36.9661 26.2882 37.6101 25.9802 38.1514C25.6722 38.6927 25.2522 39.1081 24.7202 39.3974C24.1882 39.6867 23.5908 39.8314 22.9282 39.8314ZM22.9142 38.8374C23.3248 38.8374 23.7122 38.7487 24.0762 38.5714C24.4402 38.3847 24.7342 38.1001 24.9582 37.7174C25.1915 37.3254 25.3082 36.8307 25.3082 36.2334C25.3082 35.6267 25.1962 35.1321 24.9722 34.7494C24.7482 34.3667 24.4542 34.0867 24.0902 33.9094C23.7355 33.7227 23.3528 33.6294 22.9422 33.6294C22.5315 33.6294 22.1488 33.7227 21.7942 33.9094C21.4395 34.0867 21.1502 34.3714 20.9262 34.7634C20.7115 35.1461 20.6042 35.6361 20.6042 36.2334C20.6042 36.8401 20.7115 37.3347 20.9262 37.7174C21.1408 38.1001 21.4208 38.3847 21.7662 38.5714C22.1208 38.7487 22.5035 38.8374 22.9142 38.8374ZM31.186 39.8314C30.5233 39.8314 29.9307 39.6867 29.408 39.3974C28.8853 39.1081 28.4747 38.6974 28.176 38.1654C27.8773 37.6241 27.728 36.9847 27.728 36.2474C27.728 35.5007 27.8773 34.8567 28.176 34.3154C28.484 33.7741 28.8993 33.3587 29.422 33.0694C29.954 32.7801 30.5513 32.6354 31.214 32.6354C31.8767 32.6354 32.4693 32.7801 32.992 33.0694C33.524 33.3587 33.9393 33.7741 34.238 34.3154C34.546 34.8474 34.7 35.4821 34.7 36.2194C34.7 36.9661 34.546 37.6101 34.238 38.1514C33.93 38.6927 33.51 39.1081 32.978 39.3974C32.446 39.6867 31.8487 39.8314 31.186 39.8314ZM31.172 38.8374C31.5827 38.8374 31.97 38.7487 32.334 38.5714C32.698 38.3847 32.992 38.1001 33.216 37.7174C33.4493 37.3254 33.566 36.8307 33.566 36.2334C33.566 35.6267 33.454 35.1321 33.23 34.7494C33.006 34.3667 32.712 34.0867 32.348 33.9094C31.9933 33.7227 31.6107 33.6294 31.2 33.6294C30.7893 33.6294 30.4067 33.7227 30.052 33.9094C29.6973 34.0867 29.408 34.3714 29.184 34.7634C28.9693 35.1461 28.862 35.6361 28.862 36.2334C28.862 36.8401 28.9693 37.3347 29.184 37.7174C29.3987 38.1001 29.6787 38.3847 30.024 38.5714C30.3787 38.7487 30.7613 38.8374 31.172 38.8374ZM36.9938 37.5914C37.0498 37.8714 37.1525 38.1047 37.3018 38.2914C37.4511 38.4687 37.6425 38.6041 37.8758 38.6974C38.1185 38.7907 38.3985 38.8374 38.7158 38.8374C39.2105 38.8374 39.5838 38.7441 39.8358 38.5574C40.0971 38.3614 40.2278 38.1187 40.2278 37.8294C40.2278 37.5867 40.1485 37.3907 39.9898 37.2414C39.8405 37.0921 39.6398 36.9707 39.3878 36.8774C39.1358 36.7747 38.8558 36.6861 38.5478 36.6114C38.3051 36.5554 38.0438 36.4901 37.7638 36.4154C37.4838 36.3314 37.2178 36.2194 36.9658 36.0794C36.7138 35.9394 36.5085 35.7574 36.3498 35.5334C36.1911 35.3094 36.1118 35.0154 36.1118 34.6514C36.1118 34.2501 36.2191 33.9001 36.4338 33.6014C36.6578 33.2934 36.9611 33.0554 37.3438 32.8874C37.7358 32.7194 38.1838 32.6354 38.6878 32.6354C39.2665 32.6354 39.7798 32.7614 40.2278 33.0134C40.6851 33.2654 41.0025 33.6574 41.1798 34.1894L40.1998 34.5254C40.1345 34.2827 40.0131 34.0961 39.8358 33.9654C39.6678 33.8347 39.4765 33.7461 39.2618 33.6994C39.0565 33.6527 38.8511 33.6294 38.6458 33.6294C38.2258 33.6294 37.8851 33.7134 37.6238 33.8814C37.3718 34.0401 37.2458 34.2827 37.2458 34.6094C37.2458 34.7867 37.2878 34.9361 37.3718 35.0574C37.4558 35.1694 37.5725 35.2627 37.7218 35.3374C37.8711 35.4121 38.0485 35.4774 38.2538 35.5334C38.4591 35.5801 38.6831 35.6361 38.9258 35.7014C39.1965 35.7667 39.4718 35.8507 39.7518 35.9534C40.0318 36.0467 40.2931 36.1727 40.5358 36.3314C40.7785 36.4807 40.9745 36.6767 41.1238 36.9194C41.2825 37.1527 41.3618 37.4467 41.3618 37.8014C41.3618 38.2121 41.2498 38.5714 41.0258 38.8794C40.8018 39.1781 40.4891 39.4114 40.0878 39.5794C39.6958 39.7474 39.2385 39.8314 38.7158 39.8314C37.9971 39.8314 37.3998 39.6727 36.9238 39.3554C36.4571 39.0287 36.1445 38.5527 35.9858 37.9274L36.9938 37.5914ZM46.0043 39.8314C45.351 39.8314 44.7677 39.6727 44.2543 39.3554C43.7503 39.0381 43.3537 38.6041 43.0643 38.0534C42.775 37.5027 42.6303 36.8727 42.6303 36.1634C42.6303 35.4821 42.775 34.8754 43.0643 34.3434C43.3537 33.8114 43.7503 33.3961 44.2543 33.0974C44.7583 32.7894 45.3323 32.6354 45.9763 32.6354C46.611 32.6354 47.1757 32.7754 47.6703 33.0554C48.1743 33.3354 48.5663 33.7227 48.8463 34.2174C49.1263 34.7121 49.257 35.2767 49.2383 35.9114C49.2383 36.0141 49.2337 36.1214 49.2243 36.2334C49.215 36.3454 49.2057 36.4667 49.1963 36.5974H43.7783C43.797 37.0361 43.9043 37.4234 44.1003 37.7594C44.2963 38.0954 44.553 38.3614 44.8703 38.5574C45.197 38.7441 45.5657 38.8374 45.9763 38.8374C46.5177 38.8374 46.975 38.7347 47.3483 38.5294C47.731 38.3241 48.0063 38.0301 48.1743 37.6474L49.0843 38.0114C48.8043 38.5994 48.3983 39.0521 47.8663 39.3694C47.3343 39.6774 46.7137 39.8314 46.0043 39.8314ZM48.0903 35.6874C48.0997 35.2861 48.011 34.9314 47.8243 34.6234C47.647 34.3154 47.395 34.0727 47.0683 33.8954C46.7417 33.7181 46.3637 33.6294 45.9343 33.6294C45.561 33.6294 45.2203 33.7181 44.9123 33.8954C44.6043 34.0727 44.3477 34.3201 44.1423 34.6374C43.9463 34.9454 43.8297 35.2954 43.7923 35.6874H48.0903ZM59.2725 39.7334L59.1885 38.4734C58.9925 38.9027 58.7032 39.2387 58.3205 39.4814C57.9378 39.7147 57.4525 39.8314 56.8645 39.8314C56.3605 39.8314 55.9312 39.7521 55.5765 39.5934C55.2218 39.4347 54.9465 39.2107 54.7505 38.9214C54.5638 38.6227 54.4705 38.2727 54.4705 37.8714C54.4705 37.2834 54.6898 36.8027 55.1285 36.4294C55.5672 36.0467 56.2018 35.8134 57.0325 35.7294L59.1885 35.4914V34.9314C59.1885 34.5394 59.0438 34.2267 58.7545 33.9934C58.4652 33.7507 58.0732 33.6294 57.5785 33.6294C57.0932 33.6294 56.6872 33.7414 56.3605 33.9654C56.0432 34.1894 55.8238 34.5114 55.7025 34.9314L54.7505 34.5954C54.9372 33.9794 55.2778 33.4987 55.7725 33.1534C56.2765 32.8081 56.8878 32.6354 57.6065 32.6354C58.4372 32.6354 59.0812 32.8501 59.5385 33.2794C60.0052 33.6994 60.2385 34.2734 60.2385 35.0014V39.7334H59.2725ZM59.1885 36.3874L57.0185 36.6394C56.5518 36.6954 56.1972 36.8261 55.9545 37.0314C55.7118 37.2274 55.5905 37.4887 55.5905 37.8154C55.5905 38.1421 55.7072 38.4034 55.9405 38.5994C56.1832 38.7954 56.5285 38.8934 56.9765 38.8934C57.4898 38.8934 57.9098 38.7907 58.2365 38.5854C58.5632 38.3801 58.8012 38.1047 58.9505 37.7594C59.1092 37.4047 59.1885 37.0221 59.1885 36.6114V36.3874ZM70.9008 31.3754C70.6955 31.3754 70.5181 31.3054 70.3688 31.1654C70.2195 31.0161 70.1448 30.8387 70.1448 30.6334C70.1448 30.4094 70.2195 30.2274 70.3688 30.0874C70.5181 29.9381 70.6955 29.8634 70.9008 29.8634C71.1155 29.8634 71.2928 29.9381 71.4328 30.0874C71.5821 30.2274 71.6568 30.4094 71.6568 30.6334C71.6568 30.8387 71.5821 31.0161 71.4328 31.1654C71.2928 31.3054 71.1155 31.3754 70.9008 31.3754ZM71.4048 32.7194V39.7334H70.3548V33.6994H65.6088V32.7194H71.4048ZM66.5888 31.9074C66.5888 31.3941 66.6728 30.9601 66.8408 30.6054C67.0088 30.2507 67.2748 29.9941 67.6388 29.8354C68.0121 29.6674 68.5068 29.6067 69.1228 29.6534V30.5914C68.5628 30.5447 68.1755 30.6381 67.9608 30.8714C67.7461 31.0954 67.6388 31.4407 67.6388 31.9074V39.7334H66.5888V31.9074ZM73.8124 29.6534H74.8624V39.7334H73.8124V29.6534ZM79.9379 39.8314C79.2846 39.8314 78.7013 39.6727 78.1879 39.3554C77.6839 39.0381 77.2873 38.6041 76.9979 38.0534C76.7086 37.5027 76.5639 36.8727 76.5639 36.1634C76.5639 35.4821 76.7086 34.8754 76.9979 34.3434C77.2873 33.8114 77.6839 33.3961 78.1879 33.0974C78.6919 32.7894 79.2659 32.6354 79.9099 32.6354C80.5446 32.6354 81.1093 32.7754 81.6039 33.0554C82.1079 33.3354 82.4999 33.7227 82.7799 34.2174C83.0599 34.7121 83.1906 35.2767 83.1719 35.9114C83.1719 36.0141 83.1673 36.1214 83.1579 36.2334C83.1486 36.3454 83.1393 36.4667 83.1299 36.5974H77.7119C77.7306 37.0361 77.8379 37.4234 78.0339 37.7594C78.2299 38.0954 78.4866 38.3614 78.8039 38.5574C79.1306 38.7441 79.4993 38.8374 79.9099 38.8374C80.4513 38.8374 80.9086 38.7347 81.2819 38.5294C81.6646 38.3241 81.9399 38.0301 82.1079 37.6474L83.0179 38.0114C82.7379 38.5994 82.3319 39.0521 81.7999 39.3694C81.2679 39.6774 80.6473 39.8314 79.9379 39.8314ZM82.0239 35.6874C82.0333 35.2861 81.9446 34.9314 81.7579 34.6234C81.5806 34.3154 81.3286 34.0727 81.0019 33.8954C80.6753 33.7181 80.2973 33.6294 79.8679 33.6294C79.4946 33.6294 79.1539 33.7181 78.8459 33.8954C78.5379 34.0727 78.2813 34.3201 78.0759 34.6374C77.8799 34.9454 77.7633 35.2954 77.7259 35.6874H82.0239Z" fill="#9F9F9F"/>
<path d="M45.5488 14.0186L41.5488 10.0186L37.5488 14.0186" stroke="#9F9F9F" stroke-linecap="round" stroke-linejoin="round"/>
<path d="M41.5488 10.0186V19.0186" stroke="#9F9F9F" stroke-linecap="round" stroke-linejoin="round"/>
<path d="M49.9383 16.409C50.9136 15.8773 51.6841 15.0359 52.1282 14.0177C52.5722 12.9994 52.6645 11.8623 52.3905 10.7857C52.1165 9.70918 51.4918 8.75454 50.615 8.07247C49.7382 7.39041 48.6592 7.01976 47.5483 7.01903H46.2883C45.9856 5.84827 45.4215 4.76136 44.6382 3.84002C43.855 2.91868 42.8731 2.18688 41.7664 1.69963C40.6597 1.21239 39.4569 0.982386 38.2484 1.02691C37.04 1.07143 35.8574 1.38933 34.7895 1.95669C33.7216 2.52406 32.7962 3.32613 32.0829 4.30261C31.3696 5.27909 30.887 6.40456 30.6713 7.59442C30.4556 8.78428 30.5124 10.0076 30.8375 11.1723C31.1626 12.337 31.7475 13.4129 32.5483 14.319" stroke="#9F9F9F" stroke-linecap="round" stroke-linejoin="round"/>
<path d="M45.5488 14.0186L41.5488 10.0186L37.5488 14.0186" stroke="#9F9F9F" stroke-linecap="round" stroke-linejoin="round"/>
</svg>
