<svg width="17" height="16" viewBox="0 0 17 16" fill="none" xmlns="http://www.w3.org/2000/svg">
<path d="M13.631 7.45637C13.529 7.36899 13.3978 7.32334 13.2635 7.32852C13.1293 7.33371 13.002 7.38935 12.907 7.48433C12.812 7.57932 12.7564 7.70664 12.7512 7.84087C12.746 7.97509 12.7917 8.10633 12.879 8.20836L14.6124 9.93634H8.12708C7.98563 9.93634 7.84998 9.99253 7.74996 10.0926C7.64994 10.1926 7.59375 10.3282 7.59375 10.4697C7.59375 10.6111 7.64994 10.7468 7.74996 10.8468C7.84998 10.9468 7.98563 11.003 8.12708 11.003H14.6284L12.879 12.7523C12.8232 12.8001 12.7779 12.859 12.7458 12.9251C12.7138 12.9913 12.6958 13.0634 12.693 13.1368C12.6902 13.2103 12.7025 13.2835 12.7294 13.352C12.7562 13.4204 12.7968 13.4825 12.8488 13.5345C12.9008 13.5865 12.963 13.6272 13.0314 13.654C13.0998 13.6808 13.1731 13.6932 13.2465 13.6903C13.32 13.6875 13.392 13.6695 13.4582 13.6375C13.5244 13.6055 13.5832 13.5601 13.631 13.5043L16.6603 10.4697L13.631 7.45637Z" fill="#260B6A"/>
<path d="M1.72681 5.99443H5.78544V1.9358H11.3267V6.40509H12.3934V1.9358C12.3934 1.6529 12.281 1.38159 12.081 1.18156C11.8809 0.98152 11.6096 0.869141 11.3267 0.869141H4.32412L0.660156 4.53311V14.7357C0.660156 15.0186 0.772536 15.2899 0.972573 15.4899C1.17261 15.69 1.44392 15.8023 1.72681 15.8023H11.3267C11.6096 15.8023 11.8809 15.69 12.081 15.4899C12.281 15.2899 12.3934 15.0186 12.3934 14.7357H1.72681V5.99443ZM1.72681 4.97044L4.76145 1.9358H4.92678V5.13577H1.72681V4.97044Z" fill="#260B6A"/>
</svg>
