<svg width="15" height="15" viewBox="0 0 15 15" fill="none" xmlns="http://www.w3.org/2000/svg">
<path d="M7.61489 9.58375L2.81489 14.3671C2.55933 14.6226 2.24822 14.7532 1.88157 14.7587C1.5149 14.7643 1.21213 14.6337 0.973242 14.3671C0.706576 14.1115 0.573242 13.8046 0.573242 13.4462C0.573242 13.0879 0.706576 12.7754 0.973242 12.5088L5.77324 7.72542L0.973242 2.91707C0.706576 2.66152 0.573242 2.35458 0.573242 1.99625C0.573242 1.63791 0.706576 1.32542 0.973242 1.05877C1.21213 0.803205 1.5149 0.678205 1.88157 0.683772C2.24822 0.689322 2.55933 0.819872 2.81489 1.07542L7.61489 5.85877L12.4149 1.07542C12.6705 0.819872 12.9816 0.689322 13.3482 0.683772C13.7149 0.678205 14.0177 0.803205 14.2565 1.05877C14.5232 1.32542 14.6565 1.63791 14.6565 1.99625C14.6565 2.35458 14.5288 2.66152 14.2732 2.91707L9.47322 7.72542L14.2732 12.5088C14.5288 12.7754 14.6565 13.0879 14.6565 13.4462C14.6565 13.8046 14.5232 14.1115 14.2565 14.3671C14.0177 14.6337 13.7149 14.7643 13.3482 14.7587C12.9816 14.7532 12.6705 14.6226 12.4149 14.3671L7.61489 9.58375Z" fill="#A5A5A5"/>
</svg>
