<svg width="17" height="18" viewBox="0 0 17 18" fill="none" xmlns="http://www.w3.org/2000/svg">
<path d="M1.17041 4.09033H2.77041H15.5704" stroke="#FF0000" stroke-width="1.5" stroke-linecap="round" stroke-linejoin="round"/>
<path d="M13.9705 4.09014V15.2901C13.9705 15.7145 13.8019 16.1214 13.5019 16.4215C13.2018 16.7216 12.7949 16.8901 12.3705 16.8901H4.37051C3.94616 16.8901 3.5392 16.7216 3.23914 16.4215C2.93908 16.1214 2.77051 15.7145 2.77051 15.2901V4.09014M5.17051 4.09014V2.49014C5.17051 2.06579 5.33908 1.65882 5.63914 1.35877C5.9392 1.05871 6.34616 0.890137 6.77051 0.890137H9.97051C10.3949 0.890137 10.8018 1.05871 11.1019 1.35877C11.4019 1.65882 11.5705 2.06579 11.5705 2.49014V4.09014" stroke="#FF0000" stroke-width="1.5" stroke-linecap="round" stroke-linejoin="round"/>
<path d="M6.77051 8.09033V12.8903" stroke="#FF0000" stroke-width="1.5" stroke-linecap="round" stroke-linejoin="round"/>
<path d="M9.9707 8.09033V12.8903" stroke="#FF0000" stroke-width="1.5" stroke-linecap="round" stroke-linejoin="round"/>
</svg>
