<svg width="18" height="18" viewBox="0 0 18 18" fill="none" xmlns="http://www.w3.org/2000/svg">
<path d="M8.32699 2.57715H2.76076C2.33897 2.57715 1.93446 2.7447 1.63621 3.04295C1.33796 3.3412 1.17041 3.74571 1.17041 4.1675V15.3C1.17041 15.7217 1.33796 16.1263 1.63621 16.4245C1.93446 16.7228 2.33897 16.8903 2.76076 16.8903H13.8932C14.315 16.8903 14.7195 16.7228 15.0178 16.4245C15.316 16.1263 15.4836 15.7217 15.4836 15.3V9.73373" stroke="#26212E" stroke-width="1.5" stroke-linecap="round" stroke-linejoin="round"/>
<path d="M14.2908 1.3842C14.6071 1.06786 15.0361 0.890137 15.4835 0.890137C15.9309 0.890137 16.3599 1.06786 16.6763 1.3842C16.9926 1.70054 17.1703 2.12959 17.1703 2.57696C17.1703 3.02433 16.9926 3.45338 16.6763 3.76972L9.12211 11.3239L5.94141 12.1191L6.73658 8.93837L14.2908 1.3842Z" stroke="#26212E" stroke-width="1.5" stroke-linecap="round" stroke-linejoin="round"/>
</svg>
