<svg width="17" height="16" viewBox="0 0 17 16" fill="none" xmlns="http://www.w3.org/2000/svg">
<path d="M13.0856 7.45637C12.9836 7.36899 12.8524 7.32334 12.7181 7.32852C12.5839 7.33371 12.4566 7.38935 12.3616 7.48433C12.2666 7.57932 12.211 7.70664 12.2058 7.84087C12.2006 7.97509 12.2463 8.10633 12.3336 8.20836L14.0669 9.93634H7.58167C7.44022 9.93634 7.30457 9.99253 7.20455 10.0926C7.10453 10.1926 7.04834 10.3282 7.04834 10.4697C7.04834 10.6111 7.10453 10.7468 7.20455 10.8468C7.30457 10.9468 7.44022 11.003 7.58167 11.003H14.0829L12.3336 12.7523C12.2778 12.8001 12.2325 12.859 12.2004 12.9251C12.1684 12.9913 12.1504 13.0634 12.1476 13.1368C12.1448 13.2103 12.1571 13.2835 12.184 13.352C12.2108 13.4204 12.2514 13.4825 12.3034 13.5345C12.3554 13.5865 12.4175 13.6272 12.486 13.654C12.5544 13.6808 12.6277 13.6932 12.7011 13.6903C12.7746 13.6875 12.8466 13.6695 12.9128 13.6375C12.979 13.6055 13.0378 13.5601 13.0856 13.5043L16.1149 10.4697L13.0856 7.45637Z" fill="#260B6A"/>
<path d="M1.18165 5.99394H5.24028V1.93531H10.7816V6.4046H11.8482V1.93531C11.8482 1.65241 11.7358 1.38111 11.5358 1.18107C11.3358 0.981032 11.0645 0.868652 10.7816 0.868652H3.77896L0.11499 4.53262V14.7352C0.11499 15.0181 0.22737 15.2894 0.427407 15.4894C0.627444 15.6895 0.898752 15.8018 1.18165 15.8018H10.7816C11.0645 15.8018 11.3358 15.6895 11.5358 15.4894C11.7358 15.2894 11.8482 15.0181 11.8482 14.7352H1.18165V5.99394ZM1.18165 4.96995L4.21629 1.93531H4.38162V5.13528H1.18165V4.96995Z" fill="#260B6A"/>
</svg>
