<svg width="15" height="16" viewBox="0 0 15 16" fill="none" xmlns="http://www.w3.org/2000/svg">
<path d="M12.1824 7.58008H2.38242C1.60922 7.58008 0.982422 8.20688 0.982422 8.98008V13.8801C0.982422 14.6533 1.60922 15.2801 2.38242 15.2801H12.1824C12.9556 15.2801 13.5824 14.6533 13.5824 13.8801V8.98008C13.5824 8.20688 12.9556 7.58008 12.1824 7.58008Z" stroke="white" stroke-linecap="round" stroke-linejoin="round"/>
<path d="M3.78223 7.5793V4.7793C3.78223 3.85104 4.15098 2.9608 4.80735 2.30442C5.46373 1.64805 6.35397 1.2793 7.28223 1.2793C8.21048 1.2793 9.10072 1.64805 9.7571 2.30442C10.4135 2.9608 10.7822 3.85104 10.7822 4.7793V7.5793" stroke="white" stroke-linecap="round" stroke-linejoin="round"/>
</svg>
