<svg width="36" height="41" viewBox="0 0 36 41" fill="none" xmlns="http://www.w3.org/2000/svg">
<path d="M1.98405 0.734375C1.16374 1.13281 0.530927 1.95312 0.335615 2.875C0.265302 3.19531 0.249677 6.59375 0.265302 16.5078L0.28874 29.7109L0.484052 30.1016C0.94499 31.0312 1.78874 31.5469 2.85905 31.5469C3.52311 31.5469 3.71843 31.4141 3.71843 30.9531C3.71843 30.5391 3.49968 30.3672 2.84343 30.2969C2.18718 30.2266 1.85905 30.0234 1.64811 29.5625C1.50749 29.2578 1.49968 28.75 1.49968 16.2656C1.49968 2.13281 1.47624 2.96875 1.92936 2.36719C2.04655 2.21875 2.31999 2.01562 2.53874 1.89844C3.59343 1.375 4.84343 1.92969 5.16374 3.07031C5.22624 3.29688 5.24968 8.44531 5.24968 21.2344C5.24968 38.0781 5.25749 39.1016 5.3903 39.3516C5.46061 39.5 5.61686 39.6875 5.73405 39.7734C5.98405 39.9609 8.27312 40.5312 8.7653 40.5312C8.96062 40.5312 9.68718 40.3906 10.3825 40.2266L11.6481 39.9141L12.9528 40.2266C13.6637 40.3906 14.3981 40.5312 14.57 40.5312C14.7497 40.5312 15.4762 40.3906 16.1794 40.2266L17.4606 39.9141L18.7419 40.2266C19.4372 40.3906 20.1637 40.5312 20.3434 40.5312C20.5309 40.5312 21.2575 40.3906 21.9684 40.2266L23.2575 39.9219L24.5309 40.2266C25.2341 40.3906 25.9606 40.5312 26.1481 40.5312C26.3278 40.5312 27.0544 40.3906 27.7575 40.2266L29.0387 39.9141L30.32 40.2266C31.0231 40.3906 31.7497 40.5312 31.9294 40.5312C32.3122 40.5312 34.4528 40.0391 34.8122 39.8672C34.945 39.8047 35.1403 39.6172 35.2497 39.4609L35.445 39.1719L35.4684 21.5547C35.4762 10.9922 35.4606 3.6875 35.4137 3.32031C35.2809 2.19531 34.6325 1.25 33.6559 0.765625L33.195 0.53125H17.7966L2.39811 0.539062L1.98405 0.734375ZM32.945 1.80469C33.3591 1.99219 33.8278 2.44531 34.0075 2.83594C34.1481 3.14062 34.1559 3.76562 34.1559 20.9688V38.7891L33.0466 39.0469L31.9372 39.3047L30.8356 39.0469C28.9059 38.5859 29.1325 38.5938 27.57 38.9688C26.0153 39.3438 26.2966 39.3516 24.3356 38.8906L23.2262 38.625L21.7809 38.9688L20.3434 39.3047L18.9684 38.9844C18.2106 38.8047 17.5309 38.6562 17.4528 38.6562C17.3825 38.6562 16.695 38.8047 15.9372 38.9844L14.5466 39.3125L13.1872 38.9844C12.4372 38.8047 11.7575 38.6562 11.6794 38.6562C11.6012 38.6562 10.9137 38.8047 10.1559 38.9844L8.7653 39.3125L7.63249 39.0391L6.49968 38.7734V20.9609C6.49968 1.67969 6.52311 2.76562 6.08561 1.97656L5.88249 1.625L19.2575 1.64062C31.9372 1.66406 32.6481 1.67188 32.945 1.80469Z" fill="#806BFF"/>
<path d="M28.7423 4.875C28.7111 4.90625 28.6876 5.01562 28.6876 5.11719C28.6876 5.24219 28.6408 5.29687 28.5314 5.29687C28.1017 5.29687 27.4689 5.73437 27.2189 6.19531C27.0548 6.50781 27.0626 7.29687 27.2267 7.61719C27.4064 7.95312 27.8595 8.3125 28.3126 8.47656L28.6876 8.60937V9.41406C28.6876 9.85937 28.6564 10.2187 28.6251 10.2187C28.5861 10.2187 28.3204 10.0781 28.0314 9.89844C27.4064 9.52344 27.1798 9.53125 27.0001 9.94531C26.8751 10.25 26.9376 10.4844 27.2111 10.7422C27.4533 10.9609 28.047 11.2266 28.297 11.2344C28.547 11.2344 28.6642 11.3125 28.6954 11.5078C28.7189 11.625 28.7892 11.6641 29.0001 11.6641C29.2345 11.6641 29.2736 11.6406 29.297 11.4609C29.3204 11.2891 29.3751 11.2422 29.5783 11.2031C30.0236 11.1172 30.5236 10.7422 30.7189 10.3437C30.9142 9.92969 30.9533 9.25781 30.8048 8.79687C30.6876 8.4375 30.1954 7.98437 29.6954 7.78125L29.3126 7.61719V6.92187V6.23437L29.5314 6.28125C29.6486 6.3125 29.8361 6.38281 29.9533 6.4375C30.3595 6.64844 30.6408 6.51562 30.7501 6.07031C30.8439 5.66406 30.4611 5.38281 29.6486 5.25781C29.3908 5.21875 29.3204 5.17187 29.297 5.03906C29.2814 4.91406 29.2111 4.85937 29.0392 4.84375C28.9064 4.82812 28.7736 4.84375 28.7423 4.875ZM28.7658 6.85937V7.41406L28.5236 7.28906C28.1329 7.08594 28.0704 6.65625 28.3986 6.42969C28.7111 6.21094 28.7658 6.27344 28.7658 6.85937ZM29.7033 9.20312C29.8283 9.44531 29.797 9.8125 29.6251 9.98437C29.3595 10.25 29.3126 10.1719 29.3126 9.51562C29.3126 8.91406 29.3204 8.89062 29.4689 8.96875C29.5548 9.01562 29.6564 9.11719 29.7033 9.20312Z" fill="#806BFF"/>
<path d="M9.125 5.26462C9.01562 5.36618 9 5.74899 9 8.22555V11.0771L9.19531 11.2021C9.46875 11.3818 11.8047 11.3349 12.1641 11.1396C12.75 10.8271 12.9844 10.3349 12.9844 9.42868C12.9844 8.70212 12.8594 8.35055 12.5 8.10055L12.2734 7.93649L12.4688 7.74118C12.7422 7.46774 12.8516 7.08493 12.8125 6.45993C12.7812 5.82712 12.625 5.5693 12.125 5.31149C11.8047 5.15524 11.6719 5.13962 10.5156 5.13962C9.46875 5.13962 9.22656 5.16305 9.125 5.26462ZM11.4766 6.32712C11.6094 6.45212 11.6562 6.57712 11.6562 6.82712C11.6562 7.3193 11.4141 7.48337 10.7109 7.48337H10.1719V6.8193V6.15524H10.7344C11.2031 6.15524 11.3281 6.18649 11.4766 6.32712ZM11.6641 8.64743C11.8359 8.85055 11.875 9.64743 11.7266 9.92087C11.6016 10.1474 11.1797 10.2959 10.6406 10.2959H10.1719V9.35055V8.40524L10.8438 8.42868C11.4375 8.45993 11.5312 8.48337 11.6641 8.64743Z" fill="#806BFF"/>
<path d="M13.8127 5.2655C13.7033 5.36706 13.6877 5.74988 13.6877 8.21863C13.6877 11.3436 13.6642 11.203 14.1877 11.2889C14.3752 11.3202 14.5314 11.2889 14.6642 11.203L14.8595 11.078V8.18738C14.8595 5.41394 14.8517 5.29675 14.7111 5.21863C14.4767 5.10144 13.9533 5.12488 13.8127 5.2655Z" fill="#806BFF"/>
<path d="M15.9375 5.22656C15.8047 5.29688 15.7969 5.52344 15.7969 8.1875V11.0703L15.9688 11.1875C16.1094 11.2891 16.4062 11.3125 17.6094 11.3125C19.2188 11.3125 19.3125 11.2891 19.3125 10.8359C19.3125 10.3203 19.2656 10.2969 18.0625 10.2969H16.9688V7.84375C16.9688 5.07031 16.9844 5.14063 16.3984 5.14063C16.2188 5.14063 16.0078 5.17969 15.9375 5.22656Z" fill="#806BFF"/>
<path d="M19.9531 5.23438C19.8828 5.30469 19.8594 6.07812 19.8594 8.24219V11.1562L20.0625 11.2344C20.1719 11.2812 20.9063 11.3125 21.6953 11.3125H23.1406L23.2656 11.1094C23.375 10.9531 23.3828 10.8516 23.3281 10.625L23.2578 10.3359L22.1484 10.3125L21.0313 10.2891V7.89062C21.0313 5.10938 21.0391 5.14062 20.4141 5.14062C20.2109 5.14062 20.0078 5.17969 19.9531 5.23438Z" fill="#806BFF"/>
<path d="M8.62432 17.6875C8.26494 17.9375 8.24932 18.4453 8.59307 18.7031C8.70244 18.7891 10.2493 18.8047 16.5228 18.8125H24.3196L24.5071 18.6172C24.6321 18.5 24.7024 18.3359 24.7024 18.1875C24.7024 18.0391 24.6321 17.875 24.5071 17.7578L24.3196 17.5625H16.5618C9.56963 17.5625 8.78057 17.5781 8.62432 17.6875Z" fill="#806BFF"/>
<path d="M26.4679 17.7266C26.1945 17.9375 26.1867 18.3984 26.4445 18.6406C26.6242 18.8047 26.6789 18.8125 28.7726 18.8125C30.9211 18.8125 30.9289 18.8125 31.0929 18.6328C31.3429 18.3672 31.3273 17.9375 31.0617 17.7266C30.8586 17.5703 30.757 17.5625 28.7648 17.5625C26.7726 17.5625 26.6711 17.5703 26.4679 17.7266Z" fill="#806BFF"/>
<path d="M8.49938 22.6338C8.30407 22.8525 8.31969 23.3213 8.52282 23.5322L8.69469 23.6963L16.2884 23.7197C20.4603 23.7275 23.9994 23.7197 24.14 23.6963C24.2806 23.6729 24.4681 23.5791 24.5541 23.4932C24.7494 23.2979 24.7494 22.876 24.5463 22.6572L24.3822 22.4854H16.5072C8.81188 22.4854 8.63219 22.4854 8.49938 22.6338Z" fill="#806BFF"/>
<path d="M26.4219 22.6406C26.2188 22.8438 26.2188 23.2656 26.4141 23.5078L26.5625 23.6953H28.7656H30.9688L31.1172 23.5078C31.3125 23.2656 31.3125 22.8438 31.1094 22.6406C30.961 22.4922 30.8516 22.4844 28.7656 22.4844C26.6797 22.4844 26.5703 22.4922 26.4219 22.6406Z" fill="#806BFF"/>
<path d="M8.62427 27.4531C8.52271 27.5234 8.41333 27.6641 8.37427 27.7656C8.28833 27.9922 8.41333 28.3984 8.60864 28.5C8.70239 28.5469 11.6086 28.5781 16.5383 28.5781H24.3196L24.5071 28.3828C24.6321 28.2656 24.7024 28.1016 24.7024 27.9531C24.7024 27.8047 24.6321 27.6406 24.5071 27.5234L24.3196 27.3281H16.5618C9.56958 27.3281 8.78052 27.3438 8.62427 27.4531Z" fill="#806BFF"/>
<path d="M26.4679 27.4922C26.1945 27.7031 26.1867 28.1641 26.4445 28.4062C26.6242 28.5703 26.6789 28.5781 28.7726 28.5781C30.9211 28.5781 30.9289 28.5781 31.0929 28.3984C31.3429 28.1328 31.3273 27.7031 31.0617 27.4922C30.8586 27.3359 30.757 27.3281 28.7648 27.3281C26.7726 27.3281 26.6711 27.3359 26.4679 27.4922Z" fill="#806BFF"/>
<path d="M8.53126 32.3916C8.29689 32.5791 8.29689 33.0635 8.52345 33.2979L8.69532 33.4619L16.2891 33.4854C20.4609 33.4932 24 33.4854 24.1406 33.4619C24.6875 33.3604 24.8985 32.7744 24.5235 32.4229L24.3438 32.251H16.5234C9.12501 32.251 8.69532 32.2588 8.53126 32.3916Z" fill="#806BFF"/>
</svg>
