<svg width="36" height="41" viewBox="0 0 36 41" fill="none" xmlns="http://www.w3.org/2000/svg">
<path d="M1.79362 0.341797C0.97331 0.740234 0.340498 1.56055 0.145185 2.48242C0.0748727 2.80273 0.0592477 6.20117 0.0748727 16.1152L0.0983102 29.3184L0.293623 29.709C0.75456 30.6387 1.59831 31.1543 2.66862 31.1543C3.33269 31.1543 3.528 31.0215 3.528 30.5605C3.528 30.1465 3.30925 29.9746 2.653 29.9043C1.99675 29.834 1.66862 29.6309 1.45769 29.1699C1.31706 28.8652 1.30925 28.3574 1.30925 15.873C1.30925 1.74023 1.28581 2.57617 1.73894 1.97461C1.85612 1.82617 2.12956 1.62305 2.34831 1.50586C3.403 0.982422 4.653 1.53711 4.97331 2.67773C5.03581 2.9043 5.05925 8.05273 5.05925 20.8418C5.05925 37.6855 5.06706 38.709 5.19987 38.959C5.27018 39.1074 5.42643 39.2949 5.54362 39.3809C5.79362 39.5684 8.08269 40.1387 8.57487 40.1387C8.77019 40.1387 9.49675 39.998 10.1921 39.834L11.4577 39.5215L12.7624 39.834C13.4733 39.998 14.2077 40.1387 14.3796 40.1387C14.5592 40.1387 15.2858 39.998 15.9889 39.834L17.2702 39.5215L18.5514 39.834C19.2467 39.998 19.9733 40.1387 20.153 40.1387C20.3405 40.1387 21.0671 39.998 21.778 39.834L23.0671 39.5293L24.3405 39.834C25.0436 39.998 25.7702 40.1387 25.9577 40.1387C26.1374 40.1387 26.8639 39.998 27.5671 39.834L28.8483 39.5215L30.1296 39.834C30.8327 39.998 31.5592 40.1387 31.7389 40.1387C32.1217 40.1387 34.2624 39.6465 34.6217 39.4746C34.7546 39.4121 34.9499 39.2246 35.0592 39.0684L35.2546 38.7793L35.278 21.1621C35.2858 10.5996 35.2702 3.29492 35.2233 2.92773C35.0905 1.80273 34.4421 0.857422 33.4655 0.373047L33.0046 0.138672H17.6061L2.20769 0.146484L1.79362 0.341797ZM32.7546 1.41211C33.1686 1.59961 33.6374 2.05273 33.8171 2.44336C33.9577 2.74805 33.9655 3.37305 33.9655 20.5762V38.3965L32.8561 38.6543L31.7467 38.9121L30.6452 38.6543C28.7155 38.1934 28.9421 38.2012 27.3796 38.5762C25.8249 38.9512 26.1061 38.959 24.1452 38.498L23.0358 38.2324L21.5905 38.5762L20.153 38.9121L18.778 38.5918C18.0202 38.4121 17.3405 38.2637 17.2624 38.2637C17.1921 38.2637 16.5046 38.4121 15.7467 38.5918L14.3561 38.9199L12.9967 38.5918C12.2467 38.4121 11.5671 38.2637 11.4889 38.2637C11.4108 38.2637 10.7233 38.4121 9.9655 38.5918L8.57487 38.9199L7.44206 38.6465L6.30925 38.3809V20.5684C6.30925 1.28711 6.33268 2.37305 5.89518 1.58398L5.69206 1.23242L19.0671 1.24805C31.7467 1.27148 32.4577 1.2793 32.7546 1.41211Z" fill="#FF845C"/>
<path d="M28.5519 4.48242C28.5206 4.51367 28.4972 4.62305 28.4972 4.72461C28.4972 4.84961 28.4503 4.9043 28.341 4.9043C27.9113 4.9043 27.2785 5.3418 27.0285 5.80273C26.8644 6.11523 26.8722 6.9043 27.0363 7.22461C27.216 7.56055 27.6691 7.91992 28.1222 8.08398L28.4972 8.2168V9.02148C28.4972 9.4668 28.466 9.82617 28.4347 9.82617C28.3956 9.82617 28.13 9.68555 27.841 9.50586C27.216 9.13086 26.9894 9.13867 26.8097 9.55273C26.6847 9.85742 26.7472 10.0918 27.0206 10.3496C27.2628 10.5684 27.8566 10.834 28.1066 10.8418C28.3566 10.8418 28.4738 10.9199 28.505 11.1152C28.5285 11.2324 28.5988 11.2715 28.8097 11.2715C29.0441 11.2715 29.0831 11.248 29.1066 11.0684C29.13 10.8965 29.1847 10.8496 29.3878 10.8105C29.8331 10.7246 30.3331 10.3496 30.5285 9.95117C30.7238 9.53711 30.7628 8.86523 30.6144 8.4043C30.4972 8.04492 30.005 7.5918 29.505 7.38867L29.1222 7.22461V6.5293V5.8418L29.341 5.88867C29.4581 5.91992 29.6456 5.99023 29.7628 6.04492C30.1691 6.25586 30.4503 6.12305 30.5597 5.67773C30.6535 5.27148 30.2706 4.99023 29.4581 4.86523C29.2003 4.82617 29.13 4.7793 29.1066 4.64648C29.091 4.52148 29.0206 4.4668 28.8488 4.45117C28.716 4.43555 28.5831 4.45117 28.5519 4.48242ZM28.5753 6.4668V7.02148L28.3331 6.89648C27.9425 6.69336 27.88 6.26367 28.2081 6.03711C28.5206 5.81836 28.5753 5.88086 28.5753 6.4668ZM29.5128 8.81055C29.6378 9.05273 29.6066 9.41992 29.4347 9.5918C29.1691 9.85742 29.1222 9.7793 29.1222 9.12305C29.1222 8.52148 29.13 8.49805 29.2785 8.57617C29.3644 8.62305 29.466 8.72461 29.5128 8.81055Z" fill="#FF845C"/>
<path d="M8.93457 4.87204C8.8252 4.9736 8.80957 5.35641 8.80957 7.83298V10.6845L9.00488 10.8095C9.27832 10.9892 11.6143 10.9424 11.9736 10.747C12.5596 10.4345 12.7939 9.94235 12.7939 9.0361C12.7939 8.30954 12.6689 7.95798 12.3096 7.70798L12.083 7.54391L12.2783 7.3486C12.5518 7.07516 12.6611 6.69235 12.6221 6.06735C12.5908 5.43454 12.4346 5.17673 11.9346 4.91891C11.6143 4.76266 11.4814 4.74704 10.3252 4.74704C9.27832 4.74704 9.03613 4.77048 8.93457 4.87204ZM11.2861 5.93454C11.4189 6.05954 11.4658 6.18454 11.4658 6.43454C11.4658 6.92673 11.2236 7.09079 10.5205 7.09079H9.98145V6.42673V5.76266H10.5439C11.0127 5.76266 11.1377 5.79391 11.2861 5.93454ZM11.4736 8.25485C11.6455 8.45798 11.6846 9.25485 11.5361 9.52829C11.4111 9.75485 10.9893 9.90329 10.4502 9.90329H9.98145V8.95798V8.01266L10.6533 8.0361C11.2471 8.06735 11.3408 8.09079 11.4736 8.25485Z" fill="#FF845C"/>
<path d="M13.6222 4.87292C13.5129 4.97448 13.4972 5.3573 13.4972 7.82605C13.4972 10.951 13.4738 10.8104 13.9972 10.8964C14.1847 10.9276 14.341 10.8964 14.4738 10.8104L14.6691 10.6854V7.7948C14.6691 5.02136 14.6613 4.90417 14.5207 4.82605C14.2863 4.70886 13.7629 4.7323 13.6222 4.87292Z" fill="#FF845C"/>
<path d="M15.7471 4.83398C15.6143 4.9043 15.6064 5.13086 15.6064 7.79492V10.6777L15.7783 10.7949C15.9189 10.8965 16.2158 10.9199 17.4189 10.9199C19.0283 10.9199 19.1221 10.8965 19.1221 10.4434C19.1221 9.92773 19.0752 9.9043 17.8721 9.9043H16.7783V7.45117C16.7783 4.67773 16.7939 4.74805 16.208 4.74805C16.0283 4.74805 15.8174 4.78711 15.7471 4.83398Z" fill="#FF845C"/>
<path d="M19.7627 4.8418C19.6924 4.91211 19.6689 5.68555 19.6689 7.84961V10.7637L19.8721 10.8418C19.9814 10.8887 20.7158 10.9199 21.5049 10.9199H22.9502L23.0752 10.7168C23.1846 10.5605 23.1924 10.459 23.1377 10.2324L23.0674 9.94336L21.958 9.91992L20.8408 9.89648V7.49805C20.8408 4.7168 20.8486 4.74805 20.2236 4.74805C20.0205 4.74805 19.8174 4.78711 19.7627 4.8418Z" fill="#FF845C"/>
<path d="M8.43389 17.2949C8.07451 17.5449 8.05889 18.0527 8.40264 18.3105C8.51201 18.3965 10.0589 18.4121 16.3323 18.4199H24.1292L24.3167 18.2246C24.4417 18.1074 24.512 17.9434 24.512 17.7949C24.512 17.6465 24.4417 17.4824 24.3167 17.3652L24.1292 17.1699H16.3714C9.3792 17.1699 8.59014 17.1855 8.43389 17.2949Z" fill="#FF845C"/>
<path d="M26.2775 17.334C26.0041 17.5449 25.9963 18.0059 26.2541 18.248C26.4338 18.4121 26.4885 18.4199 28.5822 18.4199C30.7306 18.4199 30.7385 18.4199 30.9025 18.2402C31.1525 17.9746 31.1369 17.5449 30.8713 17.334C30.6681 17.1777 30.5666 17.1699 28.5744 17.1699C26.5822 17.1699 26.4806 17.1777 26.2775 17.334Z" fill="#FF845C"/>
<path d="M8.30895 22.2412C8.11364 22.46 8.12926 22.9287 8.33239 23.1396L8.50426 23.3037L16.098 23.3271C20.2699 23.335 23.809 23.3271 23.9496 23.3037C24.0902 23.2803 24.2777 23.1865 24.3636 23.1006C24.559 22.9053 24.559 22.4834 24.3558 22.2646L24.1918 22.0928H16.3168C8.62145 22.0928 8.44176 22.0928 8.30895 22.2412Z" fill="#FF845C"/>
<path d="M26.2315 22.248C26.0283 22.4512 26.0283 22.873 26.2236 23.1152L26.3721 23.3027H28.5752H30.7783L30.9268 23.1152C31.1221 22.873 31.1221 22.4512 30.919 22.248C30.7705 22.0996 30.6611 22.0918 28.5752 22.0918C26.4893 22.0918 26.3799 22.0996 26.2315 22.248Z" fill="#FF845C"/>
<path d="M8.43384 27.0605C8.33228 27.1309 8.2229 27.2715 8.18384 27.373C8.0979 27.5996 8.2229 28.0059 8.41821 28.1074C8.51196 28.1543 11.4182 28.1855 16.3479 28.1855H24.1292L24.3167 27.9902C24.4417 27.873 24.512 27.709 24.512 27.5605C24.512 27.4121 24.4417 27.248 24.3167 27.1309L24.1292 26.9355H16.3713C9.37915 26.9355 8.59009 26.9512 8.43384 27.0605Z" fill="#FF845C"/>
<path d="M26.2775 27.0996C26.0041 27.3105 25.9963 27.7715 26.2541 28.0137C26.4338 28.1777 26.4885 28.1855 28.5822 28.1855C30.7306 28.1855 30.7385 28.1855 30.9025 28.0059C31.1525 27.7402 31.1369 27.3105 30.8713 27.0996C30.6681 26.9434 30.5666 26.9355 28.5744 26.9355C26.5822 26.9355 26.4806 26.9434 26.2775 27.0996Z" fill="#FF845C"/>
<path d="M8.34083 31.999C8.10646 32.1865 8.10646 32.6709 8.33302 32.9053L8.5049 33.0693L16.0986 33.0928C20.2705 33.1006 23.8096 33.0928 23.9502 33.0693C24.4971 32.9678 24.708 32.3818 24.333 32.0303L24.1533 31.8584H16.333C8.93458 31.8584 8.5049 31.8662 8.34083 31.999Z" fill="#FF845C"/>
</svg>
