<svg width="15" height="16" viewBox="0 0 15 16" fill="none" xmlns="http://www.w3.org/2000/svg">
<path d="M7.08608 9.85816L2.28608 14.6415C2.03052 14.8971 1.71941 15.0276 1.35276 15.0332C0.986092 15.0387 0.683317 14.9082 0.444434 14.6415C0.177767 14.3859 0.0444336 14.079 0.0444336 13.7207C0.0444336 13.3623 0.177767 13.0499 0.444434 12.7832L5.24443 7.99984L0.444434 3.19149C0.177767 2.93594 0.0444336 2.62899 0.0444336 2.27066C0.0444336 1.91233 0.177767 1.59984 0.444434 1.33319C0.683317 1.07762 0.986092 0.952619 1.35276 0.958186C1.71941 0.963736 2.03052 1.09429 2.28608 1.34984L7.08608 6.13319L11.8861 1.34984C12.1417 1.09429 12.4528 0.963736 12.8194 0.958186C13.1861 0.952619 13.4889 1.07762 13.7277 1.33319C13.9944 1.59984 14.1277 1.91233 14.1277 2.27066C14.1277 2.62899 14 2.93594 13.7444 3.19149L8.94441 7.99984L13.7444 12.7832C14 13.0499 14.1277 13.3623 14.1277 13.7207C14.1277 14.079 13.9944 14.3859 13.7277 14.6415C13.4889 14.9082 13.1861 15.0387 12.8194 15.0332C12.4528 15.0276 12.1417 14.8971 11.8861 14.6415L7.08608 9.85816Z" fill="#A5A5A5"/>
</svg>
