<svg width="36" height="41" viewBox="0 0 36 41" fill="none" xmlns="http://www.w3.org/2000/svg">
<path d="M1.92058 0.734375C1.10026 1.13281 0.467451 1.95312 0.272138 2.875C0.201826 3.19531 0.186201 6.59375 0.201826 16.5078L0.225263 29.7109L0.420576 30.1016C0.881513 31.0312 1.72526 31.5469 2.79558 31.5469C3.45964 31.5469 3.65495 31.4141 3.65495 30.9531C3.65495 30.5391 3.4362 30.3672 2.77995 30.2969C2.1237 30.2266 1.79558 30.0234 1.58464 29.5625C1.44401 29.2578 1.4362 28.75 1.4362 16.2656C1.4362 2.13281 1.41276 2.96875 1.86589 2.36719C1.98308 2.21875 2.25651 2.01562 2.47526 1.89844C3.52995 1.375 4.77995 1.92969 5.10026 3.07031C5.16276 3.29688 5.1862 8.44531 5.1862 21.2344C5.1862 38.0781 5.19401 39.1016 5.32683 39.3516C5.39714 39.5 5.55339 39.6875 5.67058 39.7734C5.92058 39.9609 8.20964 40.5312 8.70183 40.5312C8.89714 40.5312 9.6237 40.3906 10.319 40.2266L11.5846 39.9141L12.8893 40.2266C13.6003 40.3906 14.3346 40.5312 14.5065 40.5312C14.6862 40.5312 15.4128 40.3906 16.1159 40.2266L17.3971 39.9141L18.6784 40.2266C19.3737 40.3906 20.1003 40.5312 20.28 40.5312C20.4675 40.5312 21.194 40.3906 21.905 40.2266L23.194 39.9219L24.4675 40.2266C25.1706 40.3906 25.8971 40.5312 26.0846 40.5312C26.2643 40.5312 26.9909 40.3906 27.694 40.2266L28.9753 39.9141L30.2565 40.2266C30.9596 40.3906 31.6862 40.5312 31.8659 40.5312C32.2487 40.5312 34.3893 40.0391 34.7487 39.8672C34.8815 39.8047 35.0768 39.6172 35.1862 39.4609L35.3815 39.1719L35.4049 21.5547C35.4128 10.9922 35.3971 3.6875 35.3503 3.32031C35.2174 2.19531 34.569 1.25 33.5924 0.765625L33.1315 0.53125H17.7331L2.33464 0.539062L1.92058 0.734375ZM32.8815 1.80469C33.2956 1.99219 33.7643 2.44531 33.944 2.83594C34.0846 3.14062 34.0924 3.76562 34.0924 20.9688V38.7891L32.9831 39.0469L31.8737 39.3047L30.7721 39.0469C28.8425 38.5859 29.069 38.5938 27.5065 38.9688C25.9518 39.3438 26.2331 39.3516 24.2721 38.8906L23.1628 38.625L21.7175 38.9688L20.28 39.3047L18.905 38.9844C18.1471 38.8047 17.4675 38.6562 17.3893 38.6562C17.319 38.6562 16.6315 38.8047 15.8737 38.9844L14.4831 39.3125L13.1237 38.9844C12.3737 38.8047 11.694 38.6562 11.6159 38.6562C11.5378 38.6562 10.8503 38.8047 10.0925 38.9844L8.70183 39.3125L7.56901 39.0391L6.4362 38.7734V20.9609C6.4362 1.67969 6.45964 2.76562 6.02214 1.97656L5.81901 1.625L19.194 1.64062C31.8737 1.66406 32.5846 1.67188 32.8815 1.80469Z" fill="#FF845C"/>
<path d="M28.6788 4.875C28.6476 4.90625 28.6242 5.01562 28.6242 5.11719C28.6242 5.24219 28.5773 5.29687 28.4679 5.29687C28.0382 5.29687 27.4054 5.73437 27.1554 6.19531C26.9913 6.50781 26.9992 7.29687 27.1632 7.61719C27.3429 7.95312 27.796 8.3125 28.2492 8.47656L28.6242 8.60937V9.41406C28.6242 9.85937 28.5929 10.2187 28.5617 10.2187C28.5226 10.2187 28.257 10.0781 27.9679 9.89844C27.3429 9.52344 27.1163 9.53125 26.9367 9.94531C26.8117 10.25 26.8742 10.4844 27.1476 10.7422C27.3898 10.9609 27.9835 11.2266 28.2335 11.2344C28.4835 11.2344 28.6007 11.3125 28.632 11.5078C28.6554 11.625 28.7257 11.6641 28.9367 11.6641C29.171 11.6641 29.2101 11.6406 29.2335 11.4609C29.257 11.2891 29.3117 11.2422 29.5148 11.2031C29.9601 11.1172 30.4601 10.7422 30.6554 10.3437C30.8507 9.92969 30.8898 9.25781 30.7413 8.79687C30.6242 8.4375 30.132 7.98437 29.632 7.78125L29.2492 7.61719V6.92187V6.23437L29.4679 6.28125C29.5851 6.3125 29.7726 6.38281 29.8898 6.4375C30.296 6.64844 30.5773 6.51562 30.6867 6.07031C30.7804 5.66406 30.3976 5.38281 29.5851 5.25781C29.3273 5.21875 29.257 5.17187 29.2335 5.03906C29.2179 4.91406 29.1476 4.85937 28.9757 4.84375C28.8429 4.82812 28.7101 4.84375 28.6788 4.875ZM28.7023 6.85937V7.41406L28.4601 7.28906C28.0695 7.08594 28.007 6.65625 28.3351 6.42969C28.6476 6.21094 28.7023 6.27344 28.7023 6.85937ZM29.6398 9.20312C29.7648 9.44531 29.7335 9.8125 29.5617 9.98437C29.296 10.25 29.2492 10.1719 29.2492 9.51562C29.2492 8.91406 29.257 8.89062 29.4054 8.96875C29.4913 9.01562 29.5929 9.11719 29.6398 9.20312Z" fill="#FF845C"/>
<path d="M9.06152 5.26462C8.95215 5.36618 8.93652 5.74899 8.93652 8.22555V11.0771L9.13184 11.2021C9.40527 11.3818 11.7412 11.3349 12.1006 11.1396C12.6865 10.8271 12.9209 10.3349 12.9209 9.42868C12.9209 8.70212 12.7959 8.35055 12.4365 8.10055L12.21 7.93649L12.4053 7.74118C12.6787 7.46774 12.7881 7.08493 12.749 6.45993C12.7178 5.82712 12.5615 5.5693 12.0615 5.31149C11.7412 5.15524 11.6084 5.13962 10.4521 5.13962C9.40527 5.13962 9.16309 5.16305 9.06152 5.26462ZM11.4131 6.32712C11.5459 6.45212 11.5928 6.57712 11.5928 6.82712C11.5928 7.3193 11.3506 7.48337 10.6475 7.48337H10.1084V6.8193V6.15524H10.6709C11.1396 6.15524 11.2646 6.18649 11.4131 6.32712ZM11.6006 8.64743C11.7725 8.85055 11.8115 9.64743 11.6631 9.92087C11.5381 10.1474 11.1162 10.2959 10.5771 10.2959H10.1084V9.35055V8.40524L10.7803 8.42868C11.374 8.45993 11.4678 8.48337 11.6006 8.64743Z" fill="#FF845C"/>
<path d="M13.7492 5.2655C13.6398 5.36706 13.6242 5.74988 13.6242 8.21863C13.6242 11.3436 13.6007 11.203 14.1242 11.2889C14.3117 11.3202 14.4679 11.2889 14.6007 11.203L14.7961 11.078V8.18738C14.7961 5.41394 14.7882 5.29675 14.6476 5.21863C14.4132 5.10144 13.8898 5.12488 13.7492 5.2655Z" fill="#FF845C"/>
<path d="M15.874 5.22656C15.7412 5.29688 15.7334 5.52344 15.7334 8.1875V11.0703L15.9053 11.1875C16.0459 11.2891 16.3428 11.3125 17.5459 11.3125C19.1553 11.3125 19.249 11.2891 19.249 10.8359C19.249 10.3203 19.2021 10.2969 17.999 10.2969H16.9053V7.84375C16.9053 5.07031 16.9209 5.14063 16.335 5.14063C16.1553 5.14063 15.9443 5.17969 15.874 5.22656Z" fill="#FF845C"/>
<path d="M19.8896 5.23438C19.8193 5.30469 19.7959 6.07812 19.7959 8.24219V11.1562L19.999 11.2344C20.1084 11.2812 20.8428 11.3125 21.6318 11.3125H23.0771L23.2021 11.1094C23.3115 10.9531 23.3193 10.8516 23.2646 10.625L23.1943 10.3359L22.085 10.3125L20.9678 10.2891V7.89062C20.9678 5.10938 20.9756 5.14062 20.3506 5.14062C20.1475 5.14062 19.9443 5.17969 19.8896 5.23438Z" fill="#FF845C"/>
<path d="M8.56084 17.6875C8.20146 17.9375 8.18584 18.4453 8.52959 18.7031C8.63896 18.7891 10.1858 18.8047 16.4593 18.8125H24.2562L24.4437 18.6172C24.5687 18.5 24.639 18.3359 24.639 18.1875C24.639 18.0391 24.5687 17.875 24.4437 17.7578L24.2562 17.5625H16.4983C9.50615 17.5625 8.71709 17.5781 8.56084 17.6875Z" fill="#FF845C"/>
<path d="M26.4045 17.7266C26.131 17.9375 26.1232 18.3984 26.381 18.6406C26.5607 18.8047 26.6154 18.8125 28.7092 18.8125C30.8576 18.8125 30.8654 18.8125 31.0295 18.6328C31.2795 18.3672 31.2638 17.9375 30.9982 17.7266C30.7951 17.5703 30.6935 17.5625 28.7013 17.5625C26.7092 17.5625 26.6076 17.5703 26.4045 17.7266Z" fill="#FF845C"/>
<path d="M8.43591 22.6338C8.24059 22.8525 8.25622 23.3213 8.45934 23.5322L8.63122 23.6963L16.225 23.7197C20.3968 23.7275 23.9359 23.7197 24.0765 23.6963C24.2172 23.6729 24.4047 23.5791 24.4906 23.4932C24.6859 23.2979 24.6859 22.876 24.4828 22.6572L24.3187 22.4854H16.4437C8.74841 22.4854 8.56872 22.4854 8.43591 22.6338Z" fill="#FF845C"/>
<path d="M26.3584 22.6406C26.1553 22.8438 26.1553 23.2656 26.3506 23.5078L26.499 23.6953H28.7022H30.9053L31.0537 23.5078C31.249 23.2656 31.249 22.8438 31.0459 22.6406C30.8975 22.4922 30.7881 22.4844 28.7022 22.4844C26.6162 22.4844 26.5069 22.4922 26.3584 22.6406Z" fill="#FF845C"/>
<path d="M8.56079 27.4531C8.45923 27.5234 8.34985 27.6641 8.31079 27.7656C8.22485 27.9922 8.34985 28.3984 8.54517 28.5C8.63892 28.5469 11.5452 28.5781 16.4749 28.5781H24.2561L24.4436 28.3828C24.5686 28.2656 24.6389 28.1016 24.6389 27.9531C24.6389 27.8047 24.5686 27.6406 24.4436 27.5234L24.2561 27.3281H16.4983C9.5061 27.3281 8.71704 27.3438 8.56079 27.4531Z" fill="#FF845C"/>
<path d="M26.4045 27.4922C26.131 27.7031 26.1232 28.1641 26.381 28.4062C26.5607 28.5703 26.6154 28.5781 28.7092 28.5781C30.8576 28.5781 30.8654 28.5781 31.0295 28.3984C31.2795 28.1328 31.2638 27.7031 30.9982 27.4922C30.7951 27.3359 30.6935 27.3281 28.7013 27.3281C26.7092 27.3281 26.6076 27.3359 26.4045 27.4922Z" fill="#FF845C"/>
<path d="M8.46779 32.3916C8.23341 32.5791 8.23341 33.0635 8.45997 33.2979L8.63185 33.4619L16.2256 33.4854C20.3975 33.4932 23.9365 33.4854 24.0772 33.4619C24.624 33.3604 24.835 32.7744 24.46 32.4229L24.2803 32.251H16.46C9.06154 32.251 8.63185 32.2588 8.46779 32.3916Z" fill="#FF845C"/>
</svg>
