<svg width="17" height="18" viewBox="0 0 17 18" fill="none" xmlns="http://www.w3.org/2000/svg">
<path d="M1.39355 4.35938H2.99355H15.7936" stroke="#26212E" stroke-width="1.5" stroke-linecap="round" stroke-linejoin="round"/>
<path d="M14.1932 4.36016V15.5602C14.1932 15.9845 14.0246 16.3915 13.7245 16.6915C13.4245 16.9916 13.0175 17.1602 12.5932 17.1602H4.59316C4.16882 17.1602 3.76185 16.9916 3.46179 16.6915C3.16173 16.3915 2.99316 15.9845 2.99316 15.5602V4.36016M5.39316 4.36016V2.76016C5.39316 2.33581 5.56174 1.92884 5.86179 1.62879C6.16185 1.32873 6.56882 1.16016 6.99316 1.16016H10.1932C10.6175 1.16016 11.0245 1.32873 11.3245 1.62879C11.6246 1.92884 11.7932 2.33581 11.7932 2.76016V4.36016" stroke="#26212E" stroke-width="1.5" stroke-linecap="round" stroke-linejoin="round"/>
<path d="M6.99414 8.35938V13.1594" stroke="#26212E" stroke-width="1.5" stroke-linecap="round" stroke-linejoin="round"/>
<path d="M10.1934 8.35938V13.1594" stroke="#26212E" stroke-width="1.5" stroke-linecap="round" stroke-linejoin="round"/>
</svg>
