    <svg
                              xmlns="http://www.w3.org/2000/svg"
                              width="19"
                              height="18"
                              viewBox="0 0 19 18"
                              fill="none"
                            >
                              <path
                                d="M8.67905 3.07617H3.11281C2.69103 3.07617 2.28651 3.24373 1.98826 3.54198C1.69002 3.84022 1.52246 4.24474 1.52246 4.66652V15.799C1.52246 16.2208 1.69002 16.6253 1.98826 16.9235C2.28651 17.2218 2.69103 17.3893 3.11281 17.3893H14.2453C14.6671 17.3893 15.0716 17.2218 15.3698 16.9235C15.6681 16.6253 15.8356 16.2208 15.8356 15.799V10.2328"
                                stroke="#26212E"
                                strokeWidth="1.2"
                                strokeLinecap="round"
                                strokeLinejoin="round"
                              />
                              <path
                                d="M14.6433 1.88273C14.9596 1.56639 15.3887 1.38867 15.8361 1.38867C16.2834 1.38867 16.7125 1.56639 17.0288 1.88273C17.3452 2.19907 17.5229 2.62812 17.5229 3.0755C17.5229 3.52287 17.3452 3.95192 17.0288 4.26826L9.47465 11.8224L6.29395 12.6176L7.08912 9.43691L14.6433 1.88273Z"
                                stroke="#26212E"
                                strokeWidth="1.2"
                                strokeLinecap="round"
                                strokeLinejoin="round"
                              />
                            </svg>