<svg width="16" height="16" viewBox="0 0 16 16" fill="none" xmlns="http://www.w3.org/2000/svg">
<path d="M9.96663 7.2552C10.0687 7.16782 10.1999 7.12217 10.3341 7.12735C10.4683 7.13254 10.5957 7.18818 10.6907 7.28316C10.7856 7.37814 10.8413 7.50547 10.8465 7.6397C10.8517 7.77392 10.806 7.90516 10.7186 8.00719L8.9853 9.73517H15.4706C15.612 9.73517 15.7477 9.79136 15.8477 9.89138C15.9477 9.9914 16.0039 10.1271 16.0039 10.2685C16.0039 10.4099 15.9477 10.5456 15.8477 10.6456C15.7477 10.7456 15.612 10.8018 15.4706 10.8018H8.9693L10.7186 12.5511C10.7745 12.599 10.8198 12.6578 10.8518 12.724C10.8838 12.7901 10.9018 12.8622 10.9046 12.9356C10.9075 13.0091 10.8951 13.0823 10.8683 13.1508C10.8415 13.2192 10.8008 13.2814 10.7488 13.3334C10.6969 13.3853 10.6347 13.426 10.5663 13.4528C10.4978 13.4796 10.4246 13.492 10.3511 13.4892C10.2777 13.4863 10.2056 13.4683 10.1394 13.4363C10.0733 13.4043 10.0144 13.359 9.96663 13.3031L6.93732 10.2685L9.96663 7.2552Z" fill="#260B6A"/>
<path d="M1.07056 5.79325H5.12919V1.73463H10.6705V6.20392H11.7371V1.73463C11.7371 1.45173 11.6248 1.18042 11.4247 0.980385C11.2247 0.780348 10.9534 0.667969 10.6705 0.667969H3.66787L0.00390625 4.33193V14.5345C0.00390625 14.8174 0.116286 15.0887 0.316323 15.2887C0.51636 15.4888 0.787668 15.6012 1.07056 15.6012H10.6705C10.9534 15.6012 11.2247 15.4888 11.4247 15.2887C11.6248 15.0887 11.7371 14.8174 11.7371 14.5345H1.07056V5.79325ZM1.07056 4.76926L4.1052 1.73463H4.27053V4.9346H1.07056V4.76926Z" fill="#260B6A"/>
</svg>
