<svg width="32" height="41" viewBox="0 0 32 41" fill="none" xmlns="http://www.w3.org/2000/svg">
<path d="M1.57812 0.365234C1 0.630859 0.515625 1.16211 0.289062 1.74805C0.132812 2.16992 0.132812 2.27148 0.132812 20.1387C0.132812 38.0059 0.132812 38.1074 0.289062 38.5293C0.515625 39.1152 1 39.6465 1.57812 39.9121L2.04688 40.1387H15.9141H29.7812L30.25 39.9121C30.8281 39.6465 31.3125 39.1152 31.5391 38.5293C31.6875 38.123 31.6953 37.9355 31.6953 34.123C31.6953 30.2402 31.6875 30.1309 31.5391 29.9824C31.3203 29.7637 30.8359 29.7715 30.6328 29.9902C30.4922 30.1465 30.4844 30.3574 30.4453 34.123C30.4062 37.998 30.3984 38.0996 30.2422 38.3184C29.9844 38.6621 29.6172 38.873 29.1719 38.9277C28.9453 38.9512 22.8281 38.9668 15.5625 38.9512C3.45312 38.9277 2.34375 38.9199 2.125 38.7949C1.82031 38.6309 1.57031 38.3574 1.46875 38.084C1.35156 37.7715 1.35156 2.50586 1.46875 2.19336C1.57031 1.91992 1.82031 1.64648 2.125 1.48242C2.32812 1.36523 2.70312 1.34961 4.71875 1.32617L7.08594 1.30273L7.24219 1.09961C7.44531 0.841797 7.4375 0.607422 7.23438 0.341797L7.07812 0.138672H4.5625H2.04688L1.57812 0.365234Z" fill="#806BFF"/>
<path d="M8.64878 0.29504C8.46128 0.48254 8.43784 0.896603 8.6019 1.12317C8.71128 1.2716 8.93003 1.2716 19.0941 1.31067C28.555 1.34973 29.4925 1.35754 29.7035 1.48254C30.0082 1.6466 30.2582 1.92004 30.3597 2.19348C30.4222 2.34973 30.4457 6.37317 30.4457 15.3341V28.256L30.6253 28.4513C30.8753 28.7325 31.2816 28.756 31.5394 28.4982C31.6957 28.3419 31.6957 28.2404 31.6957 15.256C31.6957 2.29504 31.6957 2.17004 31.5394 1.74817C31.3128 1.16223 30.8285 0.630978 30.2503 0.365353L29.7816 0.13879H19.2972C8.90659 0.13879 8.80503 0.13879 8.64878 0.29504Z" fill="#806BFF"/>
<path d="M3.82031 3.44313C3.65625 3.62282 3.64844 3.68532 3.64844 5.53688C3.64844 7.44313 3.64844 7.45876 3.82812 7.62282C4.05469 7.83376 4.42969 7.84157 4.67188 7.64626L4.85938 7.49782V5.52907V3.56032L4.67188 3.41188C4.42188 3.20876 4.03125 3.21657 3.82031 3.44313Z" fill="#806BFF"/>
<path d="M6.0625 3.41275L5.875 3.56119V5.52994V7.49869L6.0625 7.64713C6.3125 7.85025 6.70313 7.84244 6.91406 7.61588C7.07031 7.45182 7.08594 7.35025 7.08594 6.66275V5.88932L7.69531 6.76432C8.15625 7.444 8.35156 7.65494 8.54688 7.72525C8.85938 7.82682 9.17969 7.694 9.32813 7.40494C9.4375 7.18619 9.46094 5.16275 9.36719 4.10807C9.30469 3.444 9.1875 3.27213 8.78125 3.26432C8.24219 3.26432 8.05469 3.63932 8.14063 4.55338C8.17188 4.87369 8.17969 5.13932 8.15625 5.13932C8.13281 5.13932 7.85938 4.77213 7.54688 4.319C7.24219 3.86588 6.91406 3.444 6.82813 3.3815C6.60156 3.21744 6.28125 3.23307 6.0625 3.41275Z" fill="#806BFF"/>
<path d="M10.0778 3.38086C9.74182 3.61523 9.78088 3.83398 10.4371 5.73242C11.109 7.63867 11.1949 7.79492 11.6637 7.79492C12.1403 7.79492 12.2574 7.5918 12.859 5.76367C13.1637 4.8418 13.4137 3.97461 13.4137 3.83398C13.4137 3.36523 12.7418 3.07617 12.4059 3.41211C12.3278 3.49023 12.1246 3.9668 11.9606 4.4668L11.6637 5.37305L11.3434 4.48242C11.1715 3.99023 10.9606 3.52148 10.8824 3.42773C10.7028 3.23242 10.3199 3.20898 10.0778 3.38086Z" fill="#806BFF"/>
<path d="M14.8436 3.39565C14.3671 3.55971 13.7811 4.1144 13.5702 4.59877C13.1874 5.49721 13.4139 6.55971 14.1249 7.20033C15.2733 8.23158 16.9921 7.88002 17.7186 6.46596C17.8592 6.18471 17.8983 5.9894 17.8905 5.52846C17.8905 4.81752 17.7577 4.48159 17.2655 3.95815C16.6717 3.32534 15.6874 3.09096 14.8436 3.39565ZM16.3124 4.79409C16.4374 4.91127 16.578 5.14565 16.6327 5.3019C16.703 5.54409 16.6952 5.63784 16.5702 5.88784C16.3983 6.24721 15.9842 6.54409 15.6639 6.54409C15.3749 6.54409 15.0311 6.3644 14.828 6.10659C14.6249 5.84877 14.6092 5.25502 14.7889 4.9894C15.1561 4.46596 15.8749 4.37221 16.3124 4.79409Z" fill="#806BFF"/>
<path d="M18.9766 3.44336C18.8125 3.62305 18.8047 3.68555 18.8047 5.52148V7.41211L19 7.59961C19.1172 7.72461 19.2812 7.79492 19.4297 7.79492C19.5781 7.79492 19.7422 7.72461 19.8594 7.59961L20.0547 7.41211V5.5293V3.64648L19.8594 3.45898C19.6094 3.20117 19.2109 3.19336 18.9766 3.44336Z" fill="#806BFF"/>
<path d="M22.4528 3.37305C21.7184 3.64648 21.1716 4.23242 20.9841 4.94336C20.7809 5.69336 21.0856 6.74805 21.6403 7.2168C22.1403 7.63867 22.4684 7.75586 23.1794 7.75586C23.8981 7.75586 24.1325 7.66992 24.57 7.26367C24.9059 6.95117 24.9216 6.48242 24.6169 6.24023C24.3356 6.02148 24.1403 6.03711 23.7341 6.31055C23.5466 6.44336 23.2966 6.54492 23.1872 6.54492C22.695 6.54492 22.1638 6.01367 22.1638 5.5293C22.1638 4.82617 23.0466 4.28711 23.6481 4.63086C23.9763 4.81836 24.3903 4.7793 24.5778 4.54492C24.8825 4.1543 24.7341 3.77148 24.1716 3.48242C23.7575 3.27148 22.8747 3.2168 22.4528 3.37305Z" fill="#806BFF"/>
<path d="M25.8047 3.42773L25.6016 3.58398V5.5293V7.47461L25.8047 7.63086C25.9844 7.77148 26.125 7.79492 26.8906 7.79492C27.6563 7.79492 27.7969 7.77148 27.9766 7.63086C28.25 7.41992 28.2578 6.95898 28 6.7168C27.8516 6.57617 27.7266 6.54492 27.3359 6.54492C26.875 6.54492 26.8516 6.53711 26.8516 6.34961C26.8516 6.16211 26.875 6.1543 27.2813 6.1543C27.8047 6.1543 28.1016 5.92773 28.1016 5.5293C28.1016 5.13086 27.8047 4.9043 27.2813 4.9043C26.875 4.9043 26.8516 4.89648 26.8516 4.70898C26.8516 4.52148 26.875 4.51367 27.3125 4.51367C27.9141 4.51367 28.1797 4.32617 28.1797 3.88867C28.1797 3.6543 28.1328 3.55273 27.9766 3.42773C27.7969 3.28711 27.6563 3.26367 26.8906 3.26367C26.125 3.26367 25.9844 3.28711 25.8047 3.42773Z" fill="#806BFF"/>
<path d="M20.2342 10.2168C19.867 10.3652 19.7889 10.8965 20.0935 11.1934L20.281 11.3887H24.0623H27.8435L28.0076 11.209C28.242 10.959 28.2342 10.5762 27.9842 10.334L27.7967 10.1387L24.1014 10.1465C22.0701 10.1465 20.3279 10.1777 20.2342 10.2168Z" fill="#806BFF"/>
<path d="M24.2968 12.7949C23.9453 12.9434 23.8437 13.5371 24.1172 13.8105C24.2656 13.959 24.375 13.9668 26.0703 13.9668C27.7656 13.9668 27.875 13.959 28.0234 13.8105C28.2265 13.6074 28.2265 13.1855 28.0312 12.9434C27.8828 12.7559 27.8672 12.7559 26.1718 12.7402C25.2343 12.7324 24.3906 12.7559 24.2968 12.7949Z" fill="#806BFF"/>
<path d="M5.38292 16.0996C5.05479 16.2012 4.61729 16.6855 4.51573 17.0684C4.40635 17.4434 4.39854 29.4902 4.50792 29.9355C4.59385 30.334 4.80479 30.6074 5.17979 30.8184C5.48448 30.9902 5.51573 30.998 8.70323 30.998C11.8282 30.998 11.9376 30.9902 12.086 30.8418C12.3282 30.5996 12.297 30.1152 12.0392 29.9121C11.836 29.7559 11.7501 29.748 8.80479 29.748C6.11729 29.748 5.76573 29.7324 5.72667 29.623C5.70323 29.5527 5.67979 28.8496 5.67979 28.0605V26.623H13.0626H20.4454V28.1855V29.748H17.1173H13.7892L13.5548 29.9824C13.3595 30.1855 13.3282 30.2637 13.3673 30.4746C13.3907 30.6152 13.4923 30.7871 13.5782 30.8652C13.7345 30.9902 14.1564 30.998 20.0314 30.998C26.1798 30.998 26.3204 30.998 26.6173 30.8418C26.7892 30.7559 27.0235 30.5371 27.1407 30.3574L27.3595 30.0293L27.3829 23.7168C27.3985 19.3652 27.3751 17.3027 27.3204 17.084C27.2032 16.6699 26.7735 16.2012 26.3985 16.0918C25.9845 15.9668 5.76573 15.9746 5.38292 16.0996ZM20.4454 18.8496V20.4512H13.0626H5.67979V18.9434C5.67979 17.873 5.70323 17.4121 5.77354 17.3418C5.84385 17.2715 7.59385 17.248 13.1564 17.248H20.4454V18.8496ZM26.0548 17.3418C26.1251 17.4121 26.1485 17.873 26.1485 18.9434V20.4512H23.922H21.6954V18.8496V17.248H23.8282C25.3829 17.248 25.9845 17.2715 26.0548 17.3418ZM20.4454 23.5371V25.373H13.0626H5.67979V23.5371V21.7012H13.0626H20.4454V23.5371ZM26.1485 23.5371V25.373H23.922H21.6954V23.5371V21.7012H23.922H26.1485V23.5371ZM26.1485 28.0605C26.1485 28.8496 26.1251 29.5527 26.1017 29.623C26.0626 29.7324 25.7892 29.748 23.8751 29.748H21.6954V28.1855V26.623H23.922H26.1485V28.0605Z" fill="#806BFF"/>
<path d="M20.1247 34.0762C19.7028 34.2246 19.4997 34.3887 19.0778 34.959C18.7966 35.3418 18.6169 35.498 18.4372 35.5449C18.0935 35.6309 17.8435 35.9668 17.8981 36.2715C17.9763 36.6465 18.2263 36.8027 18.7106 36.7637C19.195 36.7246 19.4138 36.5762 19.8903 35.9902C20.4763 35.2559 20.531 35.209 20.6247 35.2402C20.6794 35.2559 20.9216 35.5371 21.1638 35.8574C21.7263 36.6074 22.1013 36.8105 22.7966 36.7637C23.3356 36.7246 23.5388 36.5996 24.0231 35.9902C24.6013 35.2637 24.6638 35.2012 24.7575 35.2324C24.8122 35.2559 25.0622 35.5371 25.3044 35.8574C25.7966 36.5137 26.2106 36.7793 26.7419 36.7793C27.5231 36.7793 27.656 35.709 26.8903 35.5605C26.6872 35.5215 26.5622 35.4199 26.3122 35.0605C25.8981 34.4746 25.5231 34.1465 25.1247 34.0449C24.4294 33.8574 23.8278 34.1387 23.2263 34.9512C22.7028 35.6543 22.5935 35.6621 22.1794 35.0762C21.4997 34.1074 20.8825 33.8027 20.1247 34.0762Z" fill="#806BFF"/>
</svg>
