<svg width="22" height="18" viewBox="0 0 22 18" fill="none" xmlns="http://www.w3.org/2000/svg">
<path d="M21.0034 1.86328V7.31783H15.5488" stroke="#260B6A" stroke-width="1.2" stroke-linecap="round" stroke-linejoin="round"/>
<path d="M1.00391 16.4077V10.9531H6.45845" stroke="#260B6A" stroke-width="1.2" stroke-linecap="round" stroke-linejoin="round"/>
<path d="M3.28572 6.40747C3.74679 5.10455 4.53039 3.93966 5.56342 3.02149C6.59645 2.10332 7.84524 1.4618 9.19326 1.1568C10.5413 0.851792 11.9446 0.893238 13.2723 1.27727C14.5999 1.6613 15.8087 2.37539 16.7857 3.35293L21.0039 7.31656M1.00391 10.9529L5.22209 14.9166C6.19913 15.8941 7.40788 16.6082 8.73555 16.9922C10.0632 17.3763 11.4665 17.4177 12.8146 17.1127C14.1626 16.8077 15.4114 16.1662 16.4444 15.248C17.4774 14.3298 18.261 13.1649 18.7221 11.862" stroke="#260B6A" stroke-width="1.2" stroke-linecap="round" stroke-linejoin="round"/>
</svg>
