<svg width="36" height="41" viewBox="0 0 36 41" fill="none" xmlns="http://www.w3.org/2000/svg">
<path d="M23.7488 0.881634C22.8415 1.17103 22.732 1.25707 22.732 1.68726C22.732 2.31298 23.1075 2.41466 24.2181 2.07833C25.2428 1.77329 25.6338 1.82804 26.1266 2.34427C26.3221 2.54763 26.8462 4.2058 30.491 16.2119C34.175 28.3432 34.6286 29.8918 34.5974 30.2594C34.5661 30.6896 34.4096 30.9712 34.0655 31.2293C33.9638 31.3075 29.177 32.8015 23.436 34.5457C11.5081 38.1671 11.1952 38.2609 11.0623 38.2218C11.0075 38.1983 10.8667 38.1671 10.7494 38.1436C10.4835 38.081 10.0924 37.7525 9.93595 37.4631C9.87338 37.338 9.09904 34.8507 8.21521 31.9411C7.33137 29.0315 6.57268 26.5833 6.53357 26.5051C6.26763 26.0123 5.36815 26.2313 5.36815 26.7867C5.36815 27.0839 8.66886 37.8229 8.87222 38.2062C9.10686 38.6364 9.55269 39.0353 10.0689 39.2699L10.4131 39.4263L6.41624 39.4029L2.41942 39.3872L2.14567 39.176C1.56687 38.738 1.6138 39.7783 1.62944 26.5598L1.65291 14.6945L3.20158 19.802C4.05413 22.6178 4.81282 24.9799 4.8754 25.0503C4.95361 25.1363 5.11786 25.1911 5.30558 25.1911C5.68102 25.1911 5.91566 24.9721 5.91566 24.6201C5.91566 24.4246 3.49098 16.2354 3.19376 15.4219C3.17029 15.3515 3.33455 15.4689 3.55355 15.6722C4.16363 16.2354 4.55471 16.384 5.44637 16.3918C6.08774 16.3918 6.25199 16.3605 6.61961 16.1884C7.15929 15.9382 7.64423 15.4689 7.92581 14.9292L8.14481 14.5146L8.16828 10.7212L8.19174 6.92771L14.6367 4.98014C18.1877 3.90858 21.1912 2.98564 21.3242 2.93089C21.8638 2.69624 21.7856 1.90626 21.2068 1.75765C21.0895 1.72636 19.095 2.29734 15.5909 3.36107C12.5953 4.26838 10.1002 5.01143 10.0376 5.01143C9.98288 5.01143 9.89684 4.93321 9.84991 4.83153C9.71695 4.54213 9.06776 3.86948 8.66886 3.61136C6.10338 1.96883 2.70882 3.81472 2.70882 6.84949V7.26403L2.20824 7.43611C1.3244 7.72551 0.753428 8.27302 0.46403 9.1021C0.331064 9.48536 0.323242 10.2284 0.323242 24.0961V38.6833L0.526603 39.1213C0.800358 39.6923 1.19144 40.1224 1.70766 40.4118L2.1222 40.6387H14.5194H26.9166L27.2529 40.4588C28.0742 40.0208 28.6764 39.1448 28.6764 38.3939C28.6764 38.0967 28.6373 38.0028 28.4731 37.8698C28.0429 37.5335 27.6283 37.7134 27.4563 38.3157C27.3077 38.8241 26.854 39.3168 26.4707 39.3872C26.33 39.4107 22.9823 39.4185 19.0246 39.4107L11.8444 39.3872L19.5721 37.0486C23.8271 35.758 27.3546 34.6865 27.4093 34.6708C27.4797 34.6473 27.5032 34.8351 27.5032 35.4608C27.5032 36.2586 27.511 36.2899 27.7066 36.4463C27.9412 36.634 28.1133 36.6497 28.3949 36.5245C28.6764 36.3916 28.7077 36.2821 28.7546 35.2105L28.7938 34.2406L30.71 33.6618C34.5895 32.4964 34.5583 32.5042 35.0041 32.1053C35.489 31.6673 35.7784 31.1355 35.8801 30.4941C35.9818 29.8918 35.9661 29.8527 34.4253 24.7844C33.7526 22.5787 31.9537 16.6499 30.4285 11.6206C28.7781 6.16119 27.5658 2.27388 27.4172 1.97665C26.7836 0.717384 25.4852 0.334126 23.7488 0.881634ZM7.61294 4.50302C7.83977 4.6047 8.18392 4.85499 8.3951 5.05835L8.77054 5.43379L8.26996 5.5824C7.7772 5.72319 7.7772 5.72319 7.60512 5.56676C6.76039 4.76896 5.21954 5.24607 4.89886 6.41148C4.78936 6.81821 4.79718 12.7704 4.90668 13.0207C5.01618 13.2632 5.35251 13.404 5.63409 13.3336C6.0721 13.2241 6.0721 13.2319 6.0721 9.84515C6.0721 6.83385 6.07992 6.72435 6.22853 6.57574C6.41624 6.38802 6.59614 6.3802 6.79168 6.55227C6.92465 6.6696 6.93247 6.8886 6.93247 10.3379C6.93247 12.7313 6.90118 14.0688 6.84643 14.2174C6.65871 14.718 5.99388 15.1795 5.44637 15.1795C4.84411 15.1795 4.21056 14.6945 4.03849 14.1001C3.97591 13.9045 3.96027 12.5827 3.97591 10.0172C3.99938 6.24723 3.99938 6.22377 4.17928 5.83269C4.36699 5.41814 4.85975 4.86282 5.25865 4.62035C5.91566 4.2058 6.85425 4.15887 7.61294 4.50302ZM2.70882 11.167L2.701 13.7325L2.16131 11.9726C1.86409 11.0027 1.6138 10.072 1.6138 9.90773C1.6138 9.46972 1.91884 8.97696 2.33339 8.7736C2.5211 8.68756 2.67753 8.60934 2.69318 8.60934C2.701 8.60934 2.70882 9.75912 2.70882 11.167Z" fill="#FF845C"/>
<path d="M14.0032 9.57909C13.6981 9.71205 13.5417 10.0718 13.6121 10.4864C13.659 10.7758 13.6356 10.8227 13.3931 11.0417C13.2445 11.1669 13.0411 11.4328 12.9473 11.6283C12.6109 12.3245 12.8612 13.6072 13.44 14.1391C13.7763 14.4597 14.2926 14.624 15.2155 14.71C16.3575 14.8195 16.5921 14.9134 16.7955 15.3749C17.077 16.0006 16.858 16.3839 16.115 16.5872C15.7239 16.6967 15.7005 16.6967 14.8635 16.3526C14.363 16.1414 13.9484 16.4699 13.9484 17.0722C13.9484 17.3459 13.9954 17.4398 14.23 17.6509C14.5272 17.9247 15.1529 18.1515 15.6222 18.1515C15.8647 18.1515 15.9195 18.1828 16.0055 18.3862C16.1385 18.7147 16.3731 18.8555 16.772 18.8555C17.2569 18.8555 17.5072 18.5739 17.4838 18.0498C17.4603 17.7057 17.4838 17.6509 17.7106 17.4789C18.5553 16.814 18.6726 15.3045 17.9609 14.2329C17.5151 13.5603 17.0301 13.3413 15.6379 13.1927C14.6445 13.091 14.4803 13.0206 14.3551 12.6843C14.2378 12.387 14.4021 12.082 14.7853 11.8943C15.0434 11.7691 15.2703 11.7378 15.8256 11.7378C16.5061 11.7378 16.553 11.73 16.7016 11.5345C16.9363 11.2373 16.9206 10.7289 16.6781 10.4942C16.4513 10.283 15.8803 10.1579 15.4502 10.2205C15.1999 10.2596 15.1451 10.2517 15.1451 10.1422C15.1451 9.9467 14.7384 9.5478 14.4803 9.50869C14.3551 9.48523 14.1361 9.51651 14.0032 9.57909Z" fill="#FF845C"/>
<path d="M18.5482 20.1068C14.2072 21.4286 10.3903 22.5941 10.0774 22.6801C9.56118 22.8365 9.49078 22.8756 9.3891 23.1181C9.20921 23.5483 9.46732 24.0098 9.88968 24.0176C10.0305 24.0176 24.8132 19.5827 26.7452 18.9648C27.4022 18.7537 27.6055 18.3235 27.2614 17.8855C27.1284 17.7212 27.0424 17.6821 26.7765 17.6899C26.5966 17.6978 22.9361 18.7693 18.5482 20.1068Z" fill="#FF845C"/>
<path d="M19.7202 23.2904C15.4183 24.5966 11.6014 25.762 11.2494 25.8715C10.8896 25.981 10.522 26.1452 10.4438 26.2313C10.1074 26.5989 10.3968 27.2246 10.8974 27.2246C11.1008 27.2246 25.4455 22.9462 27.8389 22.1641C28.144 22.0702 28.2457 21.992 28.3317 21.7808C28.5116 21.3428 28.1987 20.8735 27.7373 20.897C27.6278 20.9048 24.022 21.9763 19.7202 23.2904Z" fill="#FF845C"/>
<path d="M19.9553 26.7632C14.3786 28.4605 11.4768 29.3835 11.4142 29.4695C11.3594 29.5399 11.3125 29.7354 11.3125 29.8919C11.3125 30.1187 11.3594 30.2204 11.5159 30.3455C11.6332 30.4394 11.7896 30.5098 11.8757 30.5098C12.0243 30.5098 28.2306 25.6213 28.8954 25.3788C29.263 25.2458 29.3803 25.0816 29.3803 24.7296C29.3803 24.3777 29.1379 24.1743 28.739 24.1821C28.5434 24.1899 24.8438 25.2771 19.9553 26.7632Z" fill="#FF845C"/>
<path d="M28.1679 27.8135C27.4405 28.0403 23.6861 29.1822 19.8379 30.3477C15.9897 31.5131 12.7437 32.5064 12.6342 32.5533C12.4231 32.6394 12.251 32.9131 12.251 33.1634C12.251 33.4372 12.556 33.7188 12.8532 33.7188C13.0566 33.7188 27.2606 29.4795 29.7948 28.666C30.3892 28.4705 30.5613 27.9386 30.1624 27.5397C29.9355 27.3129 29.6618 27.352 28.1679 27.8135Z" fill="#FF845C"/>
</svg>
