<svg width="15" height="16" viewBox="0 0 15 16" fill="none" xmlns="http://www.w3.org/2000/svg">
<path d="M7.2189 9.85123L2.4189 14.6346C2.16333 14.8901 1.85222 15.0207 1.48557 15.0262C1.1189 15.0318 0.816129 14.9012 0.577246 14.6346C0.310579 14.379 0.177246 14.0721 0.177246 13.7137C0.177246 13.3554 0.310579 13.0429 0.577246 12.7763L5.37725 7.99291L0.577246 3.18456C0.310579 2.92901 0.177246 2.62207 0.177246 2.26373C0.177246 1.9054 0.310579 1.59291 0.577246 1.32626C0.816129 1.07069 1.1189 0.945692 1.48557 0.951258C1.85222 0.956808 2.16333 1.08736 2.4189 1.34291L7.2189 6.12626L12.0189 1.34291C12.2745 1.08736 12.5856 0.956808 12.9522 0.951258C13.3189 0.945692 13.6217 1.07069 13.8605 1.32626C14.1272 1.59291 14.2605 1.9054 14.2605 2.26373C14.2605 2.62207 14.1328 2.92901 13.8772 3.18456L9.07722 7.99291L13.8772 12.7763C14.1328 13.0429 14.2605 13.3554 14.2605 13.7137C14.2605 14.0721 14.1272 14.379 13.8605 14.6346C13.6217 14.9012 13.3189 15.0318 12.9522 15.0262C12.5856 15.0207 12.2745 14.8901 12.0189 14.6346L7.2189 9.85123Z" fill="#260B6A"/>
</svg>
