<svg width="17" height="18" viewBox="0 0 17 18" fill="none" xmlns="http://www.w3.org/2000/svg">
<path d="M1.06226 4.55469H2.66226H15.4623" stroke="#26212E" stroke-width="1.2" stroke-linecap="round" stroke-linejoin="round"/>
<path d="M13.8619 4.55547V15.7555C13.8619 16.1798 13.6933 16.5868 13.3932 16.8868C13.0932 17.1869 12.6862 17.3555 12.2619 17.3555H4.26187C3.83752 17.3555 3.43055 17.1869 3.13049 16.8868C2.83044 16.5868 2.66187 16.1798 2.66187 15.7555V4.55547M5.06187 4.55547V2.95547C5.06187 2.53112 5.23044 2.12416 5.53049 1.8241C5.83055 1.52404 6.23752 1.35547 6.66187 1.35547H9.86187C10.2862 1.35547 10.6932 1.52404 10.9932 1.8241C11.2933 2.12416 11.4619 2.53112 11.4619 2.95547V4.55547" stroke="#26212E" stroke-width="1.2" stroke-linecap="round" stroke-linejoin="round"/>
<path d="M6.6626 8.55469V13.3547" stroke="#26212E" stroke-width="1.2" stroke-linecap="round" stroke-linejoin="round"/>
<path d="M9.86182 8.55469V13.3547" stroke="#26212E" stroke-width="1.2" stroke-linecap="round" stroke-linejoin="round"/>
</svg>
