<svg width="20" height="20" viewBox="0 0 20 20" fill="none" xmlns="http://www.w3.org/2000/svg">
<g clip-path="url(#clip0_7792_263344)">
<path d="M19.1693 15.1481C19.1693 15.6393 18.9761 16.1103 18.6323 16.4576C18.2885 16.8049 17.8222 17 17.3359 17H2.66927C2.18304 17 1.71673 16.8049 1.37291 16.4576C1.02909 16.1103 0.835938 15.6393 0.835938 15.1481V3.85185C0.835937 3.36071 1.02909 2.88968 1.37291 2.54239C1.71673 2.19511 2.18304 2 2.66927 2H7.2526L9.08594 4.77778H17.3359C17.8222 4.77778 18.2885 4.97288 18.6323 5.32017C18.9761 5.66746 19.1693 6.13849 19.1693 6.62963V15.1481Z" stroke="white" stroke-linecap="round" stroke-linejoin="round"/>
</g>
<defs>
<clipPath id="clip0_7792_263344">
<rect width="20" height="20" fill="white"/>
</clipPath>
</defs>
</svg>
