<svg width="16" height="13" viewBox="0 0 16 13" fill="none" xmlns="http://www.w3.org/2000/svg">
<path fill-rule="evenodd" clip-rule="evenodd" d="M15.0851 4.49805V2.77305H7.13811L5.73261 1.64805H1.88511V4.49805H15.0851ZM15.0851 5.39805H1.88511V11.848H15.0851V5.39805ZM1.73511 0.748047H6.04761L7.45386 1.87305H15.2351C15.434 1.87305 15.6248 1.95206 15.7654 2.09272C15.9061 2.23337 15.9851 2.42413 15.9851 2.62305V11.998C15.9851 12.197 15.9061 12.3877 15.7654 12.5284C15.6248 12.669 15.434 12.748 15.2351 12.748H1.73511C1.5362 12.748 1.34543 12.669 1.20478 12.5284C1.06413 12.3877 0.985107 12.197 0.985107 11.998V1.49805C0.985107 1.29913 1.06413 1.10837 1.20478 0.967717C1.34543 0.827065 1.5362 0.748047 1.73511 0.748047Z" fill="#26212E"/>
</svg>
