<svg width="16" height="16" viewBox="0 0 16 16" fill="none" xmlns="http://www.w3.org/2000/svg">
<path d="M7.94829 7.56591C9.38829 7.56591 10.5083 6.39258 10.5083 4.95258C10.5083 3.51258 9.33496 2.39258 7.89496 2.39258C6.45496 2.39258 5.33496 3.56591 5.33496 4.95258C5.33496 6.39258 6.50829 7.56591 7.94829 7.56591ZM7.89496 3.45924C7.94829 3.45924 7.94829 3.45924 7.89496 3.45924C8.74829 3.45924 9.44163 4.15258 9.44163 5.00591C9.44163 5.85924 8.74829 6.49924 7.89496 6.49924C7.04163 6.49924 6.40163 5.80591 6.40163 5.00591C6.40163 4.15258 7.09496 3.45924 7.89496 3.45924Z" fill="#260B6A"/>
<path d="M15.8414 7.25727C14.8281 6.3506 13.4947 5.8706 12.1081 5.92394H11.6814C11.5747 6.3506 11.4147 6.72394 11.2014 7.04394C11.5214 6.9906 11.7881 6.9906 12.1081 6.9906C13.1214 6.93727 14.1347 7.25727 14.9347 7.84394V11.6839H16.0014V7.41727L15.8414 7.25727Z" fill="#260B6A"/>
<path d="M10.8817 2.49557C11.1483 1.85557 11.895 1.53557 12.5883 1.80224C13.2283 2.06891 13.5483 2.81557 13.2817 3.50891C13.0683 3.98891 12.5883 4.30891 12.1083 4.30891C12.0017 4.30891 11.8417 4.30891 11.735 4.25557C11.7883 4.52224 11.7883 4.78891 11.7883 5.00224V5.32224C11.895 5.32224 12.0017 5.37557 12.1083 5.37557C13.4417 5.37557 14.5083 4.30891 14.5083 3.02891C14.5083 1.69557 13.4417 0.628906 12.1617 0.628906C11.3083 0.628906 10.5617 1.05557 10.135 1.80224C10.4017 1.96224 10.6683 2.17557 10.8817 2.49557Z" fill="#260B6A"/>
<path d="M4.8 7.07324C4.58667 6.75324 4.42667 6.37991 4.32 5.95324H3.89333C2.50667 5.89991 1.17333 6.37991 0.16 7.23324L0 7.39324V11.6599H1.06667V7.8199C1.92 7.23324 2.88 6.91324 3.89333 6.96657C4.21333 6.96657 4.53333 7.01991 4.8 7.07324Z" fill="#260B6A"/>
<path d="M3.89461 5.32282C4.00128 5.32282 4.10794 5.32282 4.21461 5.26949V4.94949C4.21461 4.68282 4.21461 4.41615 4.26794 4.20282C4.16128 4.25615 4.00128 4.25615 3.89461 4.25615C3.20128 4.25615 2.61461 3.66949 2.61461 2.97615C2.61461 2.28282 3.20128 1.69615 3.89461 1.69615C4.42794 1.69615 4.90794 2.01615 5.12128 2.49615C5.33461 2.22949 5.65461 1.96282 5.92128 1.74949C5.22794 0.629486 3.78794 0.256153 2.66794 0.949486C1.54794 1.64282 1.17461 3.08282 1.86794 4.20282C2.29461 4.89615 3.04128 5.32282 3.89461 5.32282Z" fill="#260B6A"/>
<path d="M12.3206 10.441L12.2139 10.281C11.1472 9.10771 9.65389 8.41438 8.05389 8.46771C6.45389 8.41438 4.90722 9.10771 3.84055 10.281L3.73389 10.441V14.4944C3.73389 14.9744 4.10722 15.401 4.64055 15.401H11.4672C11.9472 15.401 12.3739 14.9744 12.3739 14.4944V10.441H12.3206ZM11.2539 14.3344H4.80055V10.8144C5.65389 9.96105 6.82722 9.53438 8.05389 9.53438C9.22722 9.48105 10.4006 9.96105 11.2539 10.8144V14.3344Z" fill="#260B6A"/>
</svg>
