<svg width="16" height="16" viewBox="0 0 16 16" fill="none" xmlns="http://www.w3.org/2000/svg">
<path d="M7.95074 7.56591C9.39074 7.56591 10.5107 6.39258 10.5107 4.95258C10.5107 3.51258 9.3374 2.39258 7.8974 2.39258C6.4574 2.39258 5.3374 3.56591 5.3374 4.95258C5.3374 6.39258 6.51074 7.56591 7.95074 7.56591ZM7.8974 3.45924C7.95074 3.45924 7.95074 3.45924 7.8974 3.45924C8.75074 3.45924 9.44407 4.15258 9.44407 5.00591C9.44407 5.85924 8.75074 6.49924 7.8974 6.49924C7.04407 6.49924 6.40407 5.80591 6.40407 5.00591C6.40407 4.15258 7.0974 3.45924 7.8974 3.45924Z" fill="#260B6A"/>
<path d="M15.8439 7.25727C14.8305 6.3506 13.4972 5.8706 12.1105 5.92394H11.6839C11.5772 6.3506 11.4172 6.72394 11.2039 7.04394C11.5239 6.9906 11.7905 6.9906 12.1105 6.9906C13.1239 6.93727 14.1372 7.25727 14.9372 7.84394V11.6839H16.0039V7.41727L15.8439 7.25727Z" fill="#260B6A"/>
<path d="M10.8841 2.49557C11.1508 1.85557 11.8975 1.53557 12.5908 1.80224C13.2308 2.06891 13.5508 2.81557 13.2841 3.50891C13.0708 3.98891 12.5908 4.30891 12.1108 4.30891C12.0041 4.30891 11.8441 4.30891 11.7375 4.25557C11.7908 4.52224 11.7908 4.78891 11.7908 5.00224V5.32224C11.8975 5.32224 12.0041 5.37557 12.1108 5.37557C13.4441 5.37557 14.5108 4.30891 14.5108 3.02891C14.5108 1.69557 13.4441 0.628906 12.1641 0.628906C11.3108 0.628906 10.5641 1.05557 10.1375 1.80224C10.4041 1.96224 10.6708 2.17557 10.8841 2.49557Z" fill="#260B6A"/>
<path d="M4.80244 7.07324C4.58911 6.75324 4.42911 6.37991 4.32244 5.95324H3.89577C2.50911 5.89991 1.17577 6.37991 0.162441 7.23324L0.00244141 7.39324V11.6599H1.06911V7.8199C1.92244 7.23324 2.88244 6.91324 3.89577 6.96657C4.21577 6.96657 4.53577 7.01991 4.80244 7.07324Z" fill="#260B6A"/>
<path d="M3.89705 5.32282C4.00372 5.32282 4.11038 5.32282 4.21705 5.26949V4.94949C4.21705 4.68282 4.21705 4.41615 4.27038 4.20282C4.16372 4.25615 4.00372 4.25615 3.89705 4.25615C3.20372 4.25615 2.61705 3.66949 2.61705 2.97615C2.61705 2.28282 3.20372 1.69615 3.89705 1.69615C4.43038 1.69615 4.91038 2.01615 5.12372 2.49615C5.33705 2.22949 5.65705 1.96282 5.92372 1.74949C5.23038 0.629486 3.79038 0.256153 2.67038 0.949486C1.55038 1.64282 1.17705 3.08282 1.87038 4.20282C2.29705 4.89615 3.04372 5.32282 3.89705 5.32282Z" fill="#260B6A"/>
<path d="M12.323 10.441L12.2163 10.281C11.1497 9.10771 9.65633 8.41438 8.05633 8.46771C6.45633 8.41438 4.90966 9.10771 3.84299 10.281L3.73633 10.441V14.4944C3.73633 14.9744 4.10966 15.401 4.64299 15.401H11.4697C11.9497 15.401 12.3763 14.9744 12.3763 14.4944V10.441H12.323ZM11.2563 14.3344H4.80299V10.8144C5.65633 9.96105 6.82966 9.53438 8.05633 9.53438C9.22966 9.48105 10.403 9.96105 11.2563 10.8144V14.3344Z" fill="#260B6A"/>
</svg>
