<svg width="17" height="15" viewBox="0 0 17 15" fill="none" xmlns="http://www.w3.org/2000/svg">
<path d="M5.80957 0.112305C5.90464 0.136653 5.98955 0.195472 6.04492 0.279297L7.44336 2.39844H14.0557C14.5653 2.39856 15.054 2.60404 15.4131 2.9668C15.7717 3.32936 15.9725 3.82026 15.9727 4.33105V7.42969H15.1729V4.33105C15.1727 4.02981 15.0542 3.74124 14.8447 3.5293C14.635 3.31744 14.3505 3.19934 14.0557 3.19922H7.22852C7.09441 3.19922 6.96863 3.13126 6.89453 3.01953L5.49512 0.900391H1.91797C1.623 0.900391 1.33874 1.01857 1.12891 1.23047C0.919107 1.44247 0.800877 1.73076 0.800781 2.03223V11.3818C0.800961 11.6832 0.919163 11.9717 1.12891 12.1836C1.33872 12.3953 1.62312 12.5137 1.91797 12.5137H9.07227V13.3145H1.91797C1.40834 13.3145 0.919754 13.1087 0.560547 12.7461C0.201734 12.3835 0.000180528 11.8928 0 11.3818V2.03223C9.60156e-05 1.52109 0.201526 1.02964 0.560547 0.666992C0.919755 0.304341 1.40834 0.0996094 1.91797 0.0996094H5.71094L5.80957 0.112305Z" fill="#26212E"/>
<path d="M15.1414 10.7656H11.2793C10.9746 10.7656 10.7275 11.0126 10.7275 11.3174V13.2484C10.7275 13.5531 10.9746 13.8002 11.2793 13.8002H15.1414C15.4461 13.8002 15.6931 13.5531 15.6931 13.2484V11.3174C15.6931 11.0126 15.4461 10.7656 15.1414 10.7656Z" stroke="#26212E" stroke-width="0.8" stroke-linecap="round" stroke-linejoin="round"/>
<path d="M11.8333 10.766V9.66254C11.8333 9.29671 11.9786 8.94588 12.2372 8.6872C12.4959 8.42853 12.8468 8.2832 13.2126 8.2832C13.5784 8.2832 13.9292 8.42853 14.1879 8.6872C14.4466 8.94588 14.5919 9.29671 14.5919 9.66254V10.766" stroke="#26212E" stroke-width="0.8" stroke-linecap="round" stroke-linejoin="round"/>
</svg>
