<svg width="20" height="22" viewBox="0 0 20 22" fill="none" xmlns="http://www.w3.org/2000/svg">
<path d="M11.1006 0.0078125C11.1773 0.0231867 11.2485 0.0611161 11.3047 0.117188L17.6611 6.47363C17.736 6.5486 17.7783 6.6509 17.7783 6.75684V10.9912H16.9785V6.92285L10.8564 0.800781H2.54688C2.09101 0.800783 1.6534 0.981366 1.33105 1.30371C1.00886 1.62603 0.828125 2.06378 0.828125 2.51953V19.4697C0.82825 19.9254 1.00883 20.3633 1.33105 20.6855C1.65338 21.0077 2.09112 21.1885 2.54688 21.1885H8.27246V21.9893H2.54688C1.87895 21.9893 1.23798 21.7232 0.765625 21.251C0.293366 20.7787 0.0274694 20.1376 0.0273438 19.4697V2.51953C0.0273438 1.8516 0.2934 1.21063 0.765625 0.738281C1.238 0.265907 1.87884 2.11192e-06 2.54688 0H11.0225L11.1006 0.0078125Z" fill="#9F9F9F"/>
<path d="M11.0239 0.400391V6.75694H17.3805" stroke="#9F9F9F" stroke-width="0.8" stroke-linecap="round" stroke-linejoin="round"/>
<path d="M18.0818 16.8809H12.5885C12.1551 16.8809 11.8037 17.2322 11.8037 17.6656V20.4123C11.8037 20.8457 12.1551 21.197 12.5885 21.197H18.0818C18.5152 21.197 18.8665 20.8457 18.8665 20.4123V17.6656C18.8665 17.2322 18.5152 16.8809 18.0818 16.8809Z" stroke="#9F9F9F" stroke-width="0.8" stroke-linecap="round" stroke-linejoin="round"/>
<path d="M13.3762 16.881V15.3115C13.3762 14.7912 13.5829 14.2922 13.9508 13.9242C14.3188 13.5563 14.8178 13.3496 15.3381 13.3496C15.8584 13.3496 16.3575 13.5563 16.7254 13.9242C17.0933 14.2922 17.3 14.7912 17.3 15.3115V16.881" stroke="#9F9F9F" stroke-width="0.8" stroke-linecap="round" stroke-linejoin="round"/>
</svg>
