<svg width="20" height="20" viewBox="0 0 20 20" fill="none" xmlns="http://www.w3.org/2000/svg">
<path d="M6.97949 2.00391C7.12307 2.02207 7.25309 2.10214 7.33398 2.22461L9.01855 4.77734H17C17.6204 4.77734 18.2142 5.02725 18.6514 5.46875C19.0884 5.91018 19.333 6.50775 19.333 7.12988V10.5H18.333V7.12988C18.333 6.76981 18.1919 6.425 17.9414 6.17188C17.691 5.919 17.3519 5.77734 17 5.77734H8.75C8.60319 5.77725 8.46434 5.71343 8.37012 5.60352L8.33301 5.55273L6.64746 3H2.33301C1.98125 3.00017 1.64287 3.14171 1.39258 3.39453C1.14216 3.64759 1.00008 3.99162 1 4.35156V15.6484C1.00008 16.0084 1.14216 16.3524 1.39258 16.6055C1.64287 16.8583 1.98125 16.9998 2.33301 17H10.667V18H2.33301C1.71282 17.9998 1.11867 17.751 0.681641 17.3096C0.244788 16.8682 7.57251e-05 16.2704 0 15.6484V4.35156C7.585e-05 3.72961 0.244788 3.13178 0.681641 2.69043C1.11867 2.24904 1.71282 2.00017 2.33301 2H6.91699L6.97949 2.00391Z" fill="white"/>
<path d="M18.3333 15H13.6667C13.2985 15 13 15.2985 13 15.6667V18C13 18.3682 13.2985 18.6667 13.6667 18.6667H18.3333C18.7015 18.6667 19 18.3682 19 18V15.6667C19 15.2985 18.7015 15 18.3333 15Z" stroke="white" stroke-width="0.8" stroke-linecap="round" stroke-linejoin="round"/>
<path d="M14.3359 15V13.6667C14.3359 13.2246 14.5115 12.8007 14.8241 12.4882C15.1367 12.1756 15.5606 12 16.0026 12C16.4446 12 16.8686 12.1756 17.1811 12.4882C17.4937 12.8007 17.6693 13.2246 17.6693 13.6667V15" stroke="white" stroke-width="0.8" stroke-linecap="round" stroke-linejoin="round"/>
</svg>
