<svg width="20" height="20" viewBox="0 0 20 20" fill="none" xmlns="http://www.w3.org/2000/svg">
<path d="M12.4141 0.607422C12.4911 0.622749 12.5628 0.660456 12.6191 0.716797L18.0186 6.11719C18.0936 6.1922 18.1357 6.2943 18.1357 6.40039V10H17.3359V6.56543L12.1699 1.40039H5.13574C4.76451 1.40044 4.40801 1.54707 4.14551 1.80957C3.883 2.07208 3.73638 2.42857 3.73633 2.7998V17.2002C3.73638 17.5714 3.883 17.9279 4.14551 18.1904C4.40801 18.4529 4.76451 18.5996 5.13574 18.5996H10V19.4004H5.13574C4.55234 19.4003 3.99261 19.1684 3.58008 18.7559C3.16754 18.3433 2.9356 17.7836 2.93555 17.2002V2.7998C2.9356 2.2164 3.16754 1.65667 3.58008 1.24414C3.99261 0.831607 4.55234 0.599661 5.13574 0.599609H12.3359L12.4141 0.607422Z" fill="white"/>
<path d="M12.3376 1V6.4H17.7376" stroke="white" stroke-width="0.8" stroke-linecap="round" stroke-linejoin="round"/>
<path d="M18.3333 15H13.6667C13.2985 15 13 15.2985 13 15.6667V18C13 18.3682 13.2985 18.6667 13.6667 18.6667H18.3333C18.7015 18.6667 19 18.3682 19 18V15.6667C19 15.2985 18.7015 15 18.3333 15Z" stroke="white" stroke-width="0.8" stroke-linecap="round" stroke-linejoin="round"/>
<path d="M14.3359 15V13.6667C14.3359 13.2246 14.5115 12.8007 14.8241 12.4882C15.1367 12.1756 15.5606 12 16.0026 12C16.4446 12 16.8686 12.1756 17.1811 12.4882C17.4937 12.8007 17.6693 13.2246 17.6693 13.6667V15" stroke="white" stroke-width="0.8" stroke-linecap="round" stroke-linejoin="round"/>
</svg>
