<svg width="23" height="20" viewBox="0 0 23 20" fill="none" xmlns="http://www.w3.org/2000/svg">
<path d="M8.07129 0.0126953C8.16646 0.0369884 8.25121 0.0958114 8.30664 0.179688L10.3076 3.21094H19.627C20.296 3.21113 20.9373 3.47942 21.4092 3.95605C21.8809 4.4327 22.1455 5.07872 22.1455 5.75098V10.0771H21.3457V5.75098C21.3457 5.28848 21.1632 4.84551 20.8408 4.51953C20.5183 4.19377 20.0813 4.01093 19.627 4.01074H10.0918C9.95753 4.01074 9.83187 3.94302 9.75781 3.83105L7.75684 0.800781H2.67578C2.22133 0.800781 1.78456 0.982822 1.46191 1.30859C1.13911 1.63466 0.957031 2.07818 0.957031 2.54102V15.5967C0.957188 16.0593 1.13925 16.5022 1.46191 16.8281C1.78455 17.1538 2.22139 17.3369 2.67578 17.3369H12.668V18.1367H2.67578C2.00657 18.1367 1.36462 17.8683 0.892578 17.3916C0.420788 16.915 0.156406 16.2689 0.15625 15.5967V2.54102C0.15625 1.86874 0.420853 1.22276 0.892578 0.746094C1.36464 0.269261 2.00643 0 2.67578 0H7.97266L8.07129 0.0126953Z" fill="#9F9F9F"/>
<path d="M21.143 14.7383H15.7495C15.324 14.7383 14.979 15.0832 14.979 15.5088V18.2055C14.979 18.6311 15.324 18.976 15.7495 18.976H21.143C21.5685 18.976 21.9135 18.6311 21.9135 18.2055V15.5088C21.9135 15.0832 21.5685 14.7383 21.143 14.7383Z" stroke="#9F9F9F" stroke-width="0.8" stroke-linecap="round" stroke-linejoin="round"/>
<path d="M16.5232 14.7387V13.1977C16.5232 12.6869 16.7261 12.1969 17.0874 11.8357C17.4486 11.4744 17.9386 11.2715 18.4494 11.2715C18.9603 11.2715 19.4503 11.4744 19.8115 11.8357C20.1728 12.1969 20.3757 12.6869 20.3757 13.1977V14.7387" stroke="#9F9F9F" stroke-width="0.8" stroke-linecap="round" stroke-linejoin="round"/>
</svg>
