<svg width="15" height="17" viewBox="0 0 15 17" fill="none" xmlns="http://www.w3.org/2000/svg">
<path d="M9.01367 0.0078125C9.09066 0.023138 9.16242 0.0608709 9.21875 0.117188L13.8145 4.71289C13.8893 4.78789 13.9316 4.8901 13.9316 4.99609V8.05957H13.1309V5.16113L8.76953 0.800781H2.80859C2.50841 0.800781 2.22008 0.919573 2.00781 1.13184C1.79555 1.3441 1.67676 1.63243 1.67676 1.93262V14.1875C1.6769 14.4875 1.79572 14.7752 2.00781 14.9873C2.22007 15.1995 2.50844 15.3193 2.80859 15.3193H6.94727V16.1191H2.80859C2.29627 16.1191 1.80467 15.915 1.44238 15.5527C1.08026 15.1906 0.876116 14.6996 0.875977 14.1875V1.93262C0.875977 1.42026 1.08009 0.928699 1.44238 0.566406C1.80468 0.204114 2.29624 0 2.80859 0H8.93555L9.01367 0.0078125Z" fill="#26212E"/>
<path d="M8.93701 0.400391V4.99594H13.5326" stroke="#26212E" stroke-width="0.8" stroke-linecap="round" stroke-linejoin="round"/>
<path d="M14.0396 12.3145H10.0681C9.75474 12.3145 9.50073 12.5685 9.50073 12.8818V14.8675C9.50073 15.1809 9.75474 15.4349 10.0681 15.4349H14.0396C14.3529 15.4349 14.6069 15.1809 14.6069 14.8675V12.8818C14.6069 12.5685 14.3529 12.3145 14.0396 12.3145Z" stroke="#26212E" stroke-width="0.8" stroke-linecap="round" stroke-linejoin="round"/>
<path d="M10.6377 12.3148V11.1801C10.6377 10.8039 10.7871 10.4432 11.0531 10.1772C11.3191 9.91115 11.6799 9.76172 12.0561 9.76172C12.4323 9.76172 12.793 9.91115 13.059 10.1772C13.325 10.4432 13.4745 10.8039 13.4745 11.1801V12.3148" stroke="#26212E" stroke-width="0.8" stroke-linecap="round" stroke-linejoin="round"/>
</svg>
