<svg width="18" height="18" viewBox="0 0 18 18" fill="none" xmlns="http://www.w3.org/2000/svg">
<path d="M3.04203 0.798595C3.09346 0.687361 3.10717 0.562372 3.08105 0.442636C3.05493 0.3229 2.99043 0.214968 2.89735 0.135255C2.80426 0.0555417 2.68769 0.0084083 2.56536 0.00102277C2.44304 -0.00636275 2.32164 0.0264038 2.21965 0.094339L2.21739 0.0954639L2.21402 0.0977138L2.2039 0.104464L2.17014 0.126964L2.05539 0.21134C1.9281 0.307792 1.80427 0.408732 1.68414 0.513968C1.40064 0.76147 1.03501 1.12935 0.775132 1.5681C0.547981 1.93169 0.365893 2.32156 0.232877 2.72911C0.0978759 3.13299 0 3.57062 0 3.93737C0 4.89701 0.355503 5.71489 0.910133 6.21664L0.838132 6.29989C0.52313 6.6869 0.339753 7.18865 0.225002 7.68366C5.02919e-08 8.66242 0 9.83918 0 10.6593V10.6874C0 13.8228 0.426379 15.6015 0.895508 16.6185C1.13176 17.1304 1.38264 17.4566 1.59976 17.6614C1.70889 17.7649 1.80789 17.8357 1.89002 17.8841C1.93795 17.9129 1.98796 17.9381 2.03964 17.9595C2.03964 17.9595 2.16677 18 2.25002 18C2.33327 18 2.4604 17.9595 2.4604 17.9595C2.51208 17.9381 2.56209 17.9129 2.61002 17.8841C2.71456 17.8206 2.81188 17.7459 2.90028 17.6614C3.1174 17.4555 3.36828 17.1304 3.60453 16.6185C4.07366 15.6015 4.50004 13.8228 4.50004 10.6874V10.6593C4.50004 9.83805 4.50004 8.66242 4.27504 7.68366C4.16029 7.18865 3.97691 6.6869 3.66191 6.29989L3.58991 6.21664C4.14454 5.71489 4.50004 4.89701 4.50004 3.93737C4.50004 3.15324 4.34141 2.61436 4.05454 2.18348C3.92689 1.99844 3.7798 1.82759 3.61578 1.67385L3.42453 1.49385C3.35591 1.42973 3.2929 1.37123 3.21078 1.2891C3.04203 1.12035 3.0229 0.985347 3.0229 0.914471C3.02246 0.875025 3.02893 0.835806 3.04203 0.798595ZM3.37503 3.93737C3.37503 5.14113 2.68427 5.62376 2.25227 5.62489H2.25002C1.81689 5.62489 1.12501 5.14338 1.12501 3.93737C1.12501 3.74275 1.18351 3.43449 1.30051 3.08574C1.40686 2.75638 1.55387 2.44158 1.73814 2.14861C1.83602 1.98323 1.96314 1.82235 2.10039 1.67498C2.17689 1.81298 2.2819 1.94986 2.4154 2.08561C2.49752 2.16773 2.6044 2.26673 2.69552 2.35223L2.83503 2.48274C2.95315 2.59749 3.04428 2.69761 3.1174 2.80899C3.2524 3.01037 3.37503 3.31524 3.37503 3.93737ZM1.32189 7.93678C1.41864 7.51603 1.55139 7.20553 1.71002 7.0109C1.77172 6.927 1.85293 6.85939 1.94662 6.81391C2.04032 6.76843 2.14368 6.74646 2.24777 6.7499H2.25002C2.48627 6.7499 2.64827 6.83765 2.79003 7.0109C2.94865 7.20553 3.08253 7.51603 3.17815 7.93678C3.37278 8.77829 3.37503 9.8358 3.37503 10.6874C3.37503 13.7396 2.95765 15.336 2.58302 16.1471C2.45927 16.4137 2.3434 16.5915 2.25002 16.7096C2.11665 16.5363 2.00483 16.3474 1.91702 16.1471C1.54239 15.336 1.12501 13.7396 1.12501 10.6874C1.12501 9.8358 1.12726 8.77829 1.32189 7.93678ZM7.87507 12.3749C7.07069 12.3749 6.30456 12.2062 5.6138 11.9024C5.6288 11.5019 5.6363 11.0857 5.6363 10.6537C6.31773 11.0444 7.08956 11.25 7.87507 11.2499V8.99992C7.87507 8.40318 8.11213 7.83088 8.53409 7.40892C8.95605 6.98695 9.52835 6.7499 10.1251 6.7499H12.3751C12.3752 5.95083 12.1626 5.16614 11.759 4.47647C11.3554 3.78681 10.7755 3.21705 10.0788 2.82574C9.38205 2.43443 8.59372 2.23569 7.79478 2.24995C6.99583 2.26421 6.2151 2.49095 5.5328 2.90686C5.46266 2.52936 5.33438 2.16503 5.15255 1.82685C6.00898 1.35316 6.97418 1.11112 7.95279 1.12464C8.9314 1.13816 9.88955 1.40678 10.7326 1.90396C11.5756 2.40113 12.2743 3.10966 12.7597 3.95953C13.245 4.8094 13.5003 5.7712 13.5001 6.7499H15.7501C16.3469 6.7499 16.9192 6.98695 17.3411 7.40892C17.7631 7.83088 18.0002 8.40318 18.0002 8.99992V14.625C18.0002 15.2217 17.7631 15.794 17.3411 16.216C16.9192 16.6379 16.3469 16.875 15.7501 16.875H10.1251C9.52835 16.875 8.95605 16.6379 8.53409 16.216C8.11213 15.794 7.87507 15.2217 7.87507 14.625V12.3749ZM13.3876 7.87491C13.1658 8.95531 12.6319 9.94689 11.852 10.7268C11.0721 11.5067 10.0805 12.0406 9.00008 12.2624V14.625C9.00008 14.9233 9.11861 15.2095 9.32959 15.4205C9.54057 15.6315 9.82672 15.75 10.1251 15.75H15.7501C16.0485 15.75 16.3347 15.6315 16.5456 15.4205C16.7566 15.2095 16.8752 14.9233 16.8752 14.625V8.99992C16.8752 8.70155 16.7566 8.4154 16.5456 8.20442C16.3347 7.99344 16.0485 7.87491 15.7501 7.87491H13.3876ZM12.2334 7.87491H10.1251C9.82672 7.87491 9.54057 7.99344 9.32959 8.20442C9.11861 8.4154 9.00008 8.70155 9.00008 8.99992V11.1082C9.77822 10.9062 10.4883 10.5 11.0567 9.93154C11.6252 9.36308 12.0314 8.65305 12.2334 7.87491Z" fill="white"/>
</svg>
