<svg width="18" height="19" viewBox="0 0 18 19" fill="none" xmlns="http://www.w3.org/2000/svg">
<path d="M13.1661 0.302734H17.2647L17.3547 0.315334L17.4438 0.340534L17.4978 0.363934C17.5698 0.395134 17.6355 0.440134 17.6949 0.498934L17.7309 0.538534L17.7705 0.589834L17.8191 0.670834L17.8542 0.751834L17.8713 0.809434L17.8839 0.867034L17.892 0.952534V5.03133C17.8919 5.20236 17.827 5.36698 17.7102 5.49195C17.5934 5.61691 17.4336 5.6929 17.263 5.70456C17.0924 5.71621 16.9237 5.66267 16.791 5.55475C16.6583 5.44682 16.5716 5.29256 16.5483 5.12313L16.542 5.03133V2.60583L10.746 8.40183C10.6317 8.51615 10.4802 8.58566 10.319 8.59771C10.1578 8.60977 9.99759 8.56358 9.86757 8.46753L9.79197 8.40273L7.06497 5.78373L1.94397 10.9038C1.82353 11.0246 1.66183 11.0953 1.49138 11.1017C1.32094 11.1081 1.15438 11.0498 1.02521 10.9384C0.896039 10.827 0.813825 10.6708 0.795098 10.5013C0.776371 10.3318 0.822522 10.1614 0.924269 10.0245L0.989969 9.94893L6.58797 4.35093C6.70237 4.23675 6.85395 4.16741 7.01514 4.15552C7.17634 4.14363 7.33645 4.18998 7.46637 4.28613L7.54197 4.35093L10.269 6.96993L15.5862 1.65273H13.1652C13.0022 1.65251 12.8448 1.59334 12.7221 1.48615C12.5994 1.37896 12.5195 1.23098 12.4974 1.06953L12.4911 0.977734C12.4911 0.814621 12.5501 0.657027 12.6574 0.534097C12.7646 0.411167 12.9127 0.331218 13.0743 0.309034L13.1661 0.302734ZM1.46697 13.8027C1.64599 13.8027 1.81768 13.8738 1.94427 14.0004C2.07085 14.127 2.14197 14.2987 2.14197 14.4777V17.6277C2.14197 17.8068 2.07085 17.9784 1.94427 18.105C1.81768 18.2316 1.64599 18.3027 1.46697 18.3027C1.28795 18.3027 1.11626 18.2316 0.989672 18.105C0.863085 17.9784 0.791969 17.8068 0.791969 17.6277V14.4777C0.791969 14.2987 0.863085 14.127 0.989672 14.0004C1.11626 13.8738 1.28795 13.8027 1.46697 13.8027ZM6.64197 10.8777C6.64197 10.6987 6.57085 10.527 6.44427 10.4004C6.31768 10.2739 6.14599 10.2027 5.96697 10.2027C5.78795 10.2027 5.61626 10.2739 5.48967 10.4004C5.36309 10.527 5.29197 10.6987 5.29197 10.8777V17.6277C5.29197 17.8068 5.36309 17.9784 5.48967 18.105C5.61626 18.2316 5.78795 18.3027 5.96697 18.3027C6.14599 18.3027 6.31768 18.2316 6.44427 18.105C6.57085 17.9784 6.64197 17.8068 6.64197 17.6277V10.8777ZM10.467 12.0027C10.646 12.0027 10.8177 12.0739 10.9443 12.2004C11.0709 12.327 11.142 12.4987 11.142 12.6777V17.6277C11.142 17.8068 11.0709 17.9784 10.9443 18.105C10.8177 18.2316 10.646 18.3027 10.467 18.3027C10.2879 18.3027 10.1163 18.2316 9.98967 18.105C9.86309 17.9784 9.79197 17.8068 9.79197 17.6277V12.6777C9.79197 12.4987 9.86309 12.327 9.98967 12.2004C10.1163 12.0739 10.2879 12.0027 10.467 12.0027ZM15.642 8.17773C15.642 7.99871 15.5709 7.82702 15.4443 7.70044C15.3177 7.57385 15.146 7.50273 14.967 7.50273C14.7879 7.50273 14.6163 7.57385 14.4897 7.70044C14.3631 7.82702 14.292 7.99871 14.292 8.17773V17.6277C14.292 17.8068 14.3631 17.9784 14.4897 18.105C14.6163 18.2316 14.7879 18.3027 14.967 18.3027C15.146 18.3027 15.3177 18.2316 15.4443 18.105C15.5709 17.9784 15.642 17.8068 15.642 17.6277V8.17773Z" fill="white"/>
</svg>
