<svg width="22" height="20" viewBox="0 0 22 20" fill="none" xmlns="http://www.w3.org/2000/svg">
<path d="M17.6674 5.44141C18.5515 5.44141 19.3993 5.79259 20.0244 6.41771C20.6495 7.04282 21.0007 7.89066 21.0007 8.77471C21.0007 9.65875 20.6495 10.5066 20.0244 11.1317C19.3993 11.7568 18.5515 12.108 17.6674 12.108M8.77861 5.44141V17.6635C8.77861 17.9582 8.66155 18.2408 8.45318 18.4492C8.24481 18.6575 7.9622 18.7746 7.66751 18.7746H6.55641C6.26173 18.7746 5.97912 18.6575 5.77075 18.4492C5.56237 18.2408 5.44531 17.9582 5.44531 17.6635V12.108" stroke="white" stroke-linecap="round" stroke-linejoin="round"/>
<path d="M10.9999 5.44196L16.0265 1.25311C16.1726 1.13145 16.3503 1.05395 16.5388 1.02967C16.7274 1.0054 16.9189 1.03536 17.091 1.11605C17.2631 1.19675 17.4087 1.32482 17.5106 1.48527C17.6125 1.64572 17.6666 1.8319 17.6665 2.02199V15.5285C17.6666 15.7186 17.6125 15.9048 17.5106 16.0652C17.4087 16.2257 17.2631 16.3538 17.091 16.4345C16.9189 16.5152 16.7274 16.5451 16.5388 16.5208C16.3503 16.4966 16.1726 16.4191 16.0265 16.2974L10.9999 12.1086H2.1111C1.81642 12.1086 1.53381 11.9915 1.32543 11.7831C1.11706 11.5748 1 11.2921 1 10.9975V6.55306C1 6.25837 1.11706 5.97576 1.32543 5.76739C1.53381 5.55902 1.81642 5.44196 2.1111 5.44196H10.9999Z" stroke="white" stroke-linecap="round" stroke-linejoin="round"/>
</svg>
