<svg width="20" height="21" viewBox="0 0 20 21" fill="none" xmlns="http://www.w3.org/2000/svg">
<path d="M6.92753 10.1332L9.51798 7.53596L7.18952 5.19956L5.87501 6.51293L5.07202 5.70994L6.37972 4.39657L4.16582 2.18266L1.56856 4.77992L6.92753 10.1332ZM15.8126 19.0251L18.4099 16.4279L16.1971 14.214L14.8837 15.5205L14.0819 14.7175L15.3873 13.4042L13.0736 11.0973L10.482 13.6877L15.8126 19.0251ZM4.71022 19.4811H1.13417V15.9039L6.11773 10.9203L0 4.78105L4.16582 0.615234L10.3346 6.76131L15.4009 1.68816C15.5257 1.56265 15.6573 1.47229 15.7956 1.41709C15.934 1.3619 16.0814 1.3343 16.2379 1.3343C16.3945 1.3343 16.5419 1.3619 16.6803 1.41709C16.8186 1.47229 16.9506 1.56265 17.0761 1.68816L18.9271 3.61172C19.0526 3.73648 19.1395 3.86804 19.1879 4.00641C19.2363 4.14478 19.2601 4.29222 19.2594 4.44874C19.2586 4.60525 19.2344 4.74816 19.1868 4.87746C19.1392 5.00675 19.053 5.13378 18.9282 5.25854L13.9038 10.3101L20.0011 16.4494L15.833 20.6152L9.69377 14.4975L4.71022 19.4811ZM2.26835 18.3469H4.22706L15.3646 7.21612L13.398 5.25173L2.26835 16.3882V18.3469ZM14.3949 6.22712L13.3991 5.25173L15.3635 7.21725L14.3949 6.22712Z" fill="white"/>
</svg>
