<svg width="31" height="31" viewBox="0 0 31 31" fill="none" xmlns="http://www.w3.org/2000/svg">
<rect x="0.623047" y="0.121094" width="30" height="30" rx="15" fill="#FF845C"/>
<path d="M15.623 21.7793H22.623" stroke="white" stroke-width="1.5" stroke-linecap="round" stroke-linejoin="round"/>
<path d="M19.123 8.94614C19.4325 8.63672 19.8521 8.46289 20.2897 8.46289C20.5064 8.46289 20.7209 8.50557 20.9211 8.58848C21.1213 8.6714 21.3032 8.79293 21.4564 8.94614C21.6096 9.09935 21.7311 9.28123 21.814 9.48141C21.897 9.68159 21.9396 9.89614 21.9396 10.1128C21.9396 10.3295 21.897 10.544 21.814 10.7442C21.7311 10.9444 21.6096 11.1263 21.4564 11.2795L11.7342 21.0017L8.62305 21.7795L9.40082 18.6684L19.123 8.94614Z" stroke="white" stroke-width="1.5" stroke-linecap="round" stroke-linejoin="round"/>
</svg>
