<svg width="31" height="31" viewBox="0 0 31 31" fill="none" xmlns="http://www.w3.org/2000/svg">
<rect x="0.623047" y="0.121094" width="30" height="30" rx="15" fill="#FF845C"/>
<path d="M9.95801 9.45443C9.95801 8.70298 10.2565 7.98231 10.7879 7.45096C11.3192 6.91961 12.0399 6.62109 12.7913 6.62109H15.6247V12.2878H12.7913C12.0399 12.2878 11.3192 11.9893 10.7879 11.4579C10.2565 10.9265 9.95801 10.2059 9.95801 9.45443Z" stroke="white" stroke-width="1.2" stroke-linecap="round" stroke-linejoin="round"/>
<path d="M15.6211 6.62109H18.4544C18.8265 6.62109 19.1949 6.69438 19.5387 6.83677C19.8825 6.97916 20.1948 7.18786 20.4579 7.45096C20.721 7.71406 20.9297 8.0264 21.0721 8.37016C21.2145 8.71392 21.2878 9.08235 21.2878 9.45443C21.2878 9.82651 21.2145 10.1949 21.0721 10.5387C20.9297 10.8825 20.721 11.1948 20.4579 11.4579C20.1948 11.721 19.8825 11.9297 19.5387 12.0721C19.1949 12.2145 18.8265 12.2878 18.4544 12.2878H15.6211V6.62109Z" stroke="white" stroke-width="1.2" stroke-linecap="round" stroke-linejoin="round"/>
<path d="M15.6211 15.1214C15.6211 14.7493 15.6944 14.3809 15.8368 14.0372C15.9792 13.6934 16.1879 13.3811 16.451 13.118C16.7141 12.8549 17.0264 12.6461 17.3702 12.5038C17.7139 12.3614 18.0824 12.2881 18.4544 12.2881C18.8265 12.2881 19.1949 12.3614 19.5387 12.5038C19.8825 12.6461 20.1948 12.8549 20.4579 13.118C20.721 13.3811 20.9297 13.6934 21.0721 14.0372C21.2145 14.3809 21.2878 14.7493 21.2878 15.1214C21.2878 15.4935 21.2145 15.8619 21.0721 16.2057C20.9297 16.5495 20.721 16.8618 20.4579 17.1249C20.1948 17.388 19.8825 17.5967 19.5387 17.7391C19.1949 17.8815 18.8265 17.9548 18.4544 17.9548C18.0824 17.9548 17.7139 17.8815 17.3702 17.7391C17.0264 17.5967 16.7141 17.388 16.451 17.1249C16.1879 16.8618 15.9792 16.5495 15.8368 16.2057C15.6944 15.8619 15.6211 15.4935 15.6211 15.1214Z" stroke="white" stroke-width="1.2" stroke-linecap="round" stroke-linejoin="round"/>
<path d="M9.95801 20.7879C9.95801 20.0365 10.2565 19.3158 10.7879 18.7845C11.3192 18.2531 12.0399 17.9546 12.7913 17.9546H15.6247V20.7879C15.6247 21.5394 15.3262 22.26 14.7948 22.7914C14.2635 23.3228 13.5428 23.6213 12.7913 23.6213C12.0399 23.6213 11.3192 23.3228 10.7879 22.7914C10.2565 22.26 9.95801 21.5394 9.95801 20.7879Z" stroke="white" stroke-width="1.2" stroke-linecap="round" stroke-linejoin="round"/>
<path d="M9.95801 15.1214C9.95801 14.37 10.2565 13.6493 10.7879 13.118C11.3192 12.5866 12.0399 12.2881 12.7913 12.2881H15.6247V17.9548H12.7913C12.0399 17.9548 11.3192 17.6562 10.7879 17.1249C10.2565 16.5935 9.95801 15.8729 9.95801 15.1214Z" stroke="white" stroke-width="1.2" stroke-linecap="round" stroke-linejoin="round"/>
</svg>
