<svg width="31" height="31" viewBox="0 0 31 31" fill="none" xmlns="http://www.w3.org/2000/svg">
<rect x="0.623047" y="0.121094" width="30" height="30" rx="15" fill="#FF845C"/>
<path d="M18.5963 7.49859C18.6195 7.42327 18.6276 7.34413 18.6201 7.26568C18.6127 7.18723 18.5899 7.11101 18.553 7.04138C18.5161 6.97174 18.4659 6.91005 18.4052 6.85983C18.3445 6.80961 18.2745 6.77184 18.1991 6.74868C18.1238 6.72551 18.0447 6.71741 17.9662 6.72484C17.8878 6.73226 17.8116 6.75506 17.7419 6.79194C17.6723 6.82882 17.6106 6.87905 17.5604 6.93977C17.5102 7.00049 17.4724 7.07051 17.4492 7.14583L12.6498 22.744C12.603 22.8961 12.6186 23.0605 12.6931 23.2012C12.7675 23.3418 12.8948 23.4471 13.047 23.4939C13.1991 23.5407 13.3635 23.5251 13.5042 23.4506C13.6448 23.3761 13.7501 23.2488 13.7969 23.0967L18.5963 7.49859ZM11.8483 10.497C11.9042 10.5528 11.9485 10.619 11.9787 10.6918C12.009 10.7647 12.0245 10.8429 12.0245 10.9218C12.0245 11.0007 12.009 11.0788 11.9787 11.1517C11.9485 11.2246 11.9042 11.2908 11.8483 11.3465L8.07235 15.1213L11.8483 18.896C11.9609 19.0087 12.0242 19.1615 12.0242 19.3208C12.0242 19.4801 11.9609 19.6329 11.8483 19.7455C11.7356 19.8582 11.5829 19.9215 11.4235 19.9215C11.2642 19.9215 11.1114 19.8582 10.9988 19.7455L6.7993 15.546C6.74343 15.4903 6.6991 15.4241 6.66886 15.3512C6.63861 15.2783 6.62305 15.2002 6.62305 15.1213C6.62305 15.0424 6.63861 14.9642 6.66886 14.8913C6.6991 14.8185 6.74343 14.7523 6.7993 14.6965L10.9988 10.497C11.0545 10.4412 11.1207 10.3968 11.1936 10.3666C11.2665 10.3363 11.3446 10.3208 11.4235 10.3208C11.5025 10.3208 11.5806 10.3363 11.6535 10.3666C11.7264 10.3968 11.7926 10.4412 11.8483 10.497ZM19.3978 10.497C19.3419 10.5528 19.2976 10.619 19.2674 10.6918C19.2371 10.7647 19.2215 10.8429 19.2215 10.9218C19.2215 11.0007 19.2371 11.0788 19.2674 11.1517C19.2976 11.2246 19.3419 11.2908 19.3978 11.3465L23.1737 15.1213L19.3978 18.896C19.342 18.9518 19.2978 19.018 19.2676 19.0909C19.2374 19.1638 19.2219 19.2419 19.2219 19.3208C19.2219 19.3997 19.2374 19.4778 19.2676 19.5506C19.2978 19.6235 19.342 19.6897 19.3978 19.7455C19.4536 19.8013 19.5198 19.8456 19.5927 19.8757C19.6656 19.9059 19.7437 19.9215 19.8225 19.9215C19.9014 19.9215 19.9795 19.9059 20.0524 19.8757C20.1253 19.8456 20.1915 19.8013 20.2473 19.7455L24.4468 15.546C24.5027 15.4903 24.547 15.4241 24.5772 15.3512C24.6075 15.2783 24.623 15.2002 24.623 15.1213C24.623 15.0424 24.6075 14.9642 24.5772 14.8913C24.547 14.8185 24.5027 14.7523 24.4468 14.6965L20.2473 10.497C20.1916 10.4412 20.1254 10.3968 20.0525 10.3666C19.9796 10.3363 19.9015 10.3208 19.8225 10.3208C19.7436 10.3208 19.6655 10.3363 19.5926 10.3666C19.5197 10.3968 19.4535 10.4412 19.3978 10.497Z" fill="white"/>
</svg>
