<svg width="42" height="45" viewBox="0 0 42 45" fill="none" xmlns="http://www.w3.org/2000/svg">
<path d="M6.06575 0.537754C5.09977 0.994207 4.64332 1.77973 4.6327 2.96863V3.74354H3.91087C3.50749 3.74354 2.96612 3.81785 2.69012 3.91339C2.04259 4.12569 1.32076 4.78383 1.02353 5.41013C0.736924 6.02581 0.620157 7.31025 0.800615 7.7667C1.04476 8.33993 1.89398 8.44608 2.24428 7.95778C2.33982 7.81978 2.40351 7.49071 2.40351 7.16164C2.40351 5.99397 2.92365 5.44198 4.02764 5.44198H4.6327V6.20627C4.6327 7.88347 5.81099 8.97684 7.43511 8.80699C8.80447 8.669 9.61123 7.74547 9.70677 6.20627L9.75984 5.44198H10.5878H11.4264V5.98335C11.4264 6.9281 11.6175 7.44825 12.212 8.05331C13.2098 9.07237 14.6534 9.12545 15.715 8.1807C16.267 7.70301 16.4793 7.21471 16.5854 6.20627L16.6597 5.44198H17.4771H18.3051L18.3369 6.26996C18.39 7.32087 18.7509 7.97901 19.5364 8.46731C20.0035 8.75392 20.1521 8.78576 20.874 8.78576C21.5958 8.78576 21.7444 8.75392 22.2115 8.46731C22.997 7.97901 23.3579 7.32087 23.411 6.26996L23.4428 5.44198H24.2708H25.0882L25.1625 6.20627C25.2686 7.21471 25.481 7.70301 26.0329 8.1807C27.0945 9.12545 28.5381 9.07237 29.536 8.05331C30.1304 7.44825 30.3215 6.9281 30.3215 5.98335V5.44198H31.1707H32.0199V6.00458C32.0199 6.83257 32.2747 7.57563 32.7099 8.02147C33.2088 8.54161 33.6228 8.73269 34.3128 8.80699C35.9369 8.97684 37.1152 7.88347 37.1152 6.20627V5.44198H37.7309C38.1555 5.44198 38.4421 5.50567 38.6863 5.65428C39.3019 6.03643 39.3444 6.28058 39.3444 9.47575V12.3419H20.874H2.40351V11.5669C2.40351 10.8876 2.37166 10.7602 2.15936 10.5585C1.79844 10.2188 1.21461 10.24 0.927997 10.6116L0.705078 10.8876L0.726309 26.5556L0.758154 42.2236L0.981073 42.7013C1.24645 43.2639 1.85152 43.8796 2.39289 44.1556C2.75381 44.3361 3.60303 44.3467 20.874 44.3467C38.1449 44.3467 38.9941 44.3361 39.355 44.1556C39.8964 43.8796 40.5015 43.2639 40.7668 42.7013C40.9685 42.2661 40.9898 42.0113 41.0216 39.5805C41.0428 37.7653 41.0216 36.8523 40.9367 36.64C40.7031 36.0881 39.8433 35.9819 39.5036 36.4702C39.3762 36.6613 39.3444 37.1602 39.3444 39.1983C39.3444 41.4806 39.3232 41.7247 39.1321 42.0326C39.0259 42.2236 38.803 42.4572 38.6332 42.5633C38.3572 42.7438 37.5398 42.7544 20.874 42.7544C4.20809 42.7544 3.39072 42.7438 3.11473 42.5633C2.94489 42.4572 2.72197 42.2236 2.61581 42.0326C2.41413 41.7035 2.40351 41.385 2.40351 27.8613V14.0403H20.874H39.3444V23.8381V33.6466L39.5886 33.8695C39.9495 34.2092 40.5333 34.1879 40.8199 33.8164L41.0428 33.5404L41.0216 19.73L40.9898 5.91966L40.735 5.41013C40.4272 4.78383 39.6947 4.12569 39.0578 3.91339C38.7818 3.81785 38.2404 3.74354 37.837 3.74354H37.1152V2.96863C37.1046 1.25959 36.0643 0.272374 34.3659 0.367911C33.4636 0.410372 32.8904 0.760673 32.4021 1.5462C32.1473 1.97081 32.0836 2.20434 32.0411 2.89433L31.9881 3.74354H31.1601H30.3215V3.18094C30.3215 1.45066 29.3237 0.34668 27.7632 0.34668C26.2346 0.357296 25.3111 1.25959 25.1625 2.93679L25.0882 3.74354H24.2602H23.4216V3.09602C23.4216 2.22557 23.2518 1.70543 22.7953 1.18528C22.2964 0.59083 21.7338 0.34668 20.874 0.34668C20.0141 0.34668 19.4515 0.59083 18.9526 1.18528C18.4962 1.70543 18.3263 2.22557 18.3263 3.09602V3.74354H17.4877H16.6597L16.5854 2.93679C16.4368 1.25959 15.5133 0.357296 13.9847 0.34668C12.4243 0.34668 11.4264 1.45066 11.4264 3.18094V3.74354H10.5878H9.75984L9.70677 2.89433C9.64308 1.88588 9.314 1.23836 8.57094 0.718212C8.17818 0.442217 8.00833 0.399756 7.30773 0.367911C6.68144 0.34668 6.39482 0.389141 6.06575 0.537754ZM7.72172 2.2468C7.96587 2.44849 7.97649 2.49095 8.00833 4.46538L8.04018 6.47165L7.76419 6.81134C7.40327 7.22533 6.96805 7.25717 6.59651 6.87503C6.33113 6.62026 6.33113 6.59903 6.33113 4.58214C6.33113 2.62895 6.34175 2.5228 6.56467 2.28926C6.85128 1.98142 7.38204 1.97081 7.72172 2.2468ZM14.6216 2.32111C14.8764 2.58649 14.8764 2.61833 14.8764 4.61399V6.63088L14.5791 6.88564C14.1652 7.24656 13.7405 7.21471 13.4009 6.81134C13.1249 6.49288 13.1249 6.47165 13.1249 4.63522C13.1249 2.32111 13.2098 2.07696 14.0378 2.05573C14.2607 2.04511 14.4411 2.13003 14.6216 2.32111ZM21.5003 2.32111C21.7126 2.58649 21.7232 2.74572 21.7232 4.61399C21.7232 6.59903 21.7232 6.62026 21.4578 6.87503C21.2986 7.04487 21.0756 7.14041 20.874 7.14041C20.6723 7.14041 20.4493 7.04487 20.2901 6.87503C20.0247 6.62026 20.0247 6.59903 20.0247 4.61399C20.0247 2.74572 20.0354 2.58649 20.2477 2.32111C20.4175 2.1088 20.5555 2.04511 20.874 2.04511C21.1924 2.04511 21.3304 2.1088 21.5003 2.32111ZM28.1454 2.1088C28.5381 2.26803 28.6231 2.70325 28.6231 4.63522C28.6231 6.47165 28.6231 6.49288 28.3471 6.81134C28.0074 7.21471 27.5828 7.24656 27.1688 6.88564L26.8715 6.63088V4.61399C26.8715 2.61833 26.8715 2.58649 27.1263 2.32111C27.3811 2.04511 27.7738 1.97081 28.1454 2.1088ZM35.1726 2.27865C35.4168 2.50157 35.4168 2.55464 35.4168 4.56091C35.4168 6.60965 35.4168 6.62026 35.1514 6.87503C34.7799 7.25717 34.3446 7.22533 33.9837 6.81134L33.7077 6.47165L33.7396 4.46538C33.7714 2.49095 33.782 2.44849 34.0262 2.2468C34.3553 1.98142 34.8648 1.99204 35.1726 2.27865Z" fill="#FF845C"/>
<path d="M12.9883 17.437C11.8313 17.7343 10.7485 18.6366 10.2177 19.7724C9.9099 20.4093 9.88867 20.5473 9.88867 21.577C9.88867 22.6173 9.9099 22.7446 10.2284 23.3922C10.653 24.252 11.8949 25.5046 12.3196 25.5046C12.7335 25.5046 13.1263 25.0694 13.1263 24.6023C13.1263 24.2945 13.0095 24.114 12.4363 23.4877C11.7357 22.7234 11.534 22.2882 11.534 21.577C11.534 20.8657 11.7463 20.3774 12.3196 19.8148C13.0626 19.0612 13.8481 18.8595 14.8672 19.1567C15.2281 19.2629 15.7483 19.7193 17.8501 21.7999C19.4211 23.3497 20.5039 24.3475 20.6843 24.39C20.8329 24.4325 21.0771 24.4006 21.2151 24.3369C21.3425 24.2626 22.5845 23.0949 23.9538 21.7468C26.0025 19.7193 26.5227 19.2629 26.8836 19.1567C27.9027 18.8595 28.6882 19.0612 29.4313 19.8148C30.0045 20.3774 30.2168 20.8657 30.2168 21.577C30.2168 22.5217 30.1212 22.6597 27.4568 25.3454C25.907 26.9058 24.8986 27.9992 24.8561 28.1796C24.8136 28.3282 24.8455 28.5618 24.9092 28.7104C24.9835 28.8378 26.1512 30.0797 27.5099 31.4491C29.7072 33.6783 29.9832 33.9967 30.1106 34.4426C30.5352 36.0349 29.4843 37.5741 27.8814 37.6908C26.7775 37.7758 26.6819 37.7121 23.9538 34.9946C22.5845 33.6358 21.3319 32.4682 21.1726 32.4151C20.9709 32.3408 20.7799 32.3408 20.5888 32.4151C20.419 32.4682 19.1664 33.6358 17.797 34.9946C15.0689 37.7121 14.9734 37.7758 13.8694 37.6908C12.2665 37.5741 11.205 36.0349 11.6402 34.4426C11.7676 33.9967 12.0542 33.6783 14.3046 31.396C15.8332 29.8462 16.8522 28.7422 16.8947 28.5724C16.9902 28.1796 16.7673 27.7869 16.0136 27.065C15.451 26.5343 15.3237 26.46 14.9415 26.46C14.6124 26.46 14.4744 26.5236 14.3046 26.736C13.9861 27.1393 14.0286 27.4578 14.4744 27.9567L14.8566 28.3813L12.6699 30.5787C9.99482 33.2643 9.88867 33.4448 9.88867 35.1644C9.88867 36.1941 9.9099 36.3321 10.2284 36.9902C10.653 37.8925 11.3536 38.5931 12.2559 39.0177C12.914 39.3362 13.052 39.3574 14.0817 39.3574C15.8013 39.3574 15.9818 39.2513 18.6781 36.5656L20.8754 34.3789L23.0834 36.5656C25.769 39.2513 25.9495 39.3574 27.6691 39.3574C28.6988 39.3574 28.8368 39.3362 29.4949 39.0177C30.3972 38.5931 31.0978 37.8925 31.5224 36.9902C31.8409 36.3321 31.8621 36.2047 31.8515 35.1644C31.8515 33.4235 31.7454 33.2537 29.0703 30.568L26.8836 28.3707L29.0703 26.1627C31.756 23.4771 31.8621 23.2966 31.8621 21.577C31.8621 20.5473 31.8409 20.4093 31.5331 19.7724C31.1191 18.8913 30.3548 18.127 29.4737 17.713C28.8474 17.4158 28.6882 17.384 27.7222 17.384C25.9495 17.3946 25.8115 17.4689 23.1364 20.1227L20.8754 22.3625L18.6144 20.1227C16.5869 18.1164 16.3003 17.8723 15.727 17.6493C15.0158 17.384 13.6571 17.2778 12.9883 17.437Z" fill="#FF845C"/>
</svg>
