<svg width="45" height="45" viewBox="0 0 45 45" fill="none" xmlns="http://www.w3.org/2000/svg">
<path d="M10.8482 0.283669L10.8483 0.283953C10.6375 0.351037 10.403 0.486019 10.1904 0.648236C9.97718 0.810953 9.7761 1.00869 9.63622 1.20919L9.63591 1.20963C9.5192 1.37821 9.42074 1.52277 9.34813 1.74806C9.27699 1.96882 9.23262 2.26003 9.2034 2.72532C9.14509 3.65401 9.14509 5.32464 9.14509 8.62072V8.63537C9.14509 8.92661 9.14504 9.20488 9.145 9.47076C9.1445 12.3029 9.14425 13.7286 9.20581 14.4425C9.22273 14.6388 9.24486 14.7889 9.27522 14.9028C9.30519 15.0152 9.34725 15.1085 9.41558 15.1747C9.48889 15.2457 9.57373 15.2677 9.64893 15.2742C9.69306 15.2781 9.74833 15.2768 9.7967 15.2757C9.81748 15.2752 9.83698 15.2748 9.85378 15.2748C10.0796 15.2748 10.2729 15.2178 10.3726 15.0326C10.3838 15.0118 10.3893 14.9912 10.3918 14.9806C10.3951 14.9675 10.3976 14.9534 10.3997 14.9397C10.404 14.912 10.4077 14.8775 10.411 14.8376C10.4178 14.7573 10.4238 14.6463 10.4293 14.5059C10.4402 14.2246 10.4491 13.8185 10.4561 13.2895C10.4701 12.2313 10.4765 10.6769 10.4765 8.63537C10.4765 6.1339 10.483 4.5839 10.5012 3.6315C10.5103 3.155 10.5224 2.83047 10.5378 2.61207C10.5455 2.50281 10.5539 2.42238 10.5628 2.36393C10.5721 2.30324 10.5806 2.2749 10.585 2.26456L10.5859 2.2624L10.5859 2.26239C10.6474 2.11036 10.7716 1.95079 10.9338 1.81347C11.0936 1.67817 11.2814 1.57211 11.4628 1.51811C11.4673 1.51754 11.4851 1.51527 11.5247 1.51256C11.5676 1.50962 11.6268 1.50668 11.7028 1.50376C11.8548 1.49794 12.0703 1.49239 12.35 1.48716C12.9092 1.4767 13.7218 1.46757 14.7885 1.46005C16.9218 1.44501 20.0694 1.43642 24.2337 1.43642H36.4203L36.3474 1.5282L10.8482 0.283669ZM10.8482 0.283669L10.8574 0.28137C10.8771 0.276459 10.902 0.274851 10.9145 0.274041L10.9158 0.27396C10.9345 0.272743 10.959 0.271587 10.9885 0.270466C11.0476 0.268214 11.1306 0.265969 11.2355 0.263731C11.4457 0.25925 11.7468 0.254745 12.1286 0.250311C12.8922 0.241442 13.9802 0.232844 15.312 0.225323C17.9758 0.210279 21.6161 0.199534 25.5916 0.199534L10.8482 0.283669ZM36.778 9.00025V10.724C36.778 11.3945 36.7716 11.8728 36.7553 12.1939C36.7471 12.354 36.7364 12.4793 36.7218 12.5714C36.7146 12.6172 36.7058 12.659 36.6944 12.6946C36.6844 12.7257 36.6667 12.7713 36.631 12.807C36.5715 12.8665 36.4806 12.9004 36.4065 12.92C36.3255 12.9416 36.2331 12.9541 36.1467 12.9541C36.1372 12.9541 36.1274 12.9541 36.1174 12.9542C36.0614 12.9544 35.9994 12.9547 35.944 12.9477C35.8737 12.9389 35.7972 12.9172 35.7287 12.8598C35.6618 12.8037 35.6173 12.726 35.5853 12.6331C35.5535 12.5408 35.5307 12.4237 35.5132 12.2771C35.4465 11.7169 35.4465 10.6024 35.4466 8.39914L35.4466 8.16263C35.4466 6.99306 35.4552 5.87262 35.4703 5.00985C35.4778 4.57855 35.487 4.21103 35.4975 3.93371C35.5077 3.66519 35.5195 3.46789 35.5347 3.38421C35.6336 2.75755 35.9618 2.01243 36.3473 1.5283L36.778 9.00025ZM36.778 9.00025H39.6278C40.9928 9.00025 41.7515 8.996 42.1902 8.97429C42.6196 8.95303 42.7817 8.91559 42.9103 8.81267L42.911 8.81213C42.9603 8.77225 43.0207 8.72305 43.0606 8.61958C43.0949 8.53051 43.1114 8.40808 43.1211 8.22538C43.1408 7.85587 43.1342 7.16361 43.1214 5.80611L43.1213 5.79752L43.0956 3.04704L43.0953 3.01431L43.0813 2.98468L42.8149 2.41739L42.8147 2.417C42.343 1.4203 41.5653 0.702962 40.5703 0.362335C40.3055 0.270917 40.0649 0.23166 38.1638 0.212435L36.778 9.00025ZM40.4059 1.77439L40.406 1.77442C41.0066 2.05848 41.4175 2.50984 41.6445 3.11764C41.7877 3.50763 41.8071 3.72503 41.8071 5.67V7.66882H39.284H36.7712L36.7952 5.6031L36.7952 5.60299M40.4059 1.77439L36.6452 5.60124L36.7952 5.60299M40.4059 1.77439C40.0867 1.62316 39.8335 1.53741 39.5901 1.50377C39.348 1.47031 39.1065 1.48716 38.8094 1.55319L38.8078 1.55353C38.0396 1.71525 37.3472 2.27562 37.0052 3.02479L37.0046 3.02609C36.9173 3.21249 36.8727 3.33275 36.8452 3.66257C36.8168 4.00397 36.8082 4.55577 36.7952 5.60299M40.4059 1.77439L36.7952 5.60299" fill="#FF845C" stroke="#FF845C" stroke-width="0.3"/>
<path d="M14.2504 5.84403L14.2951 5.77853H14.3743H23.0126H23.0175C27.2721 5.77853 29.4304 5.77853 30.546 5.80004C31.1017 5.81076 31.4072 5.82687 31.5856 5.85259C31.6753 5.86552 31.7432 5.88216 31.7981 5.90717C31.8581 5.9345 31.8936 5.96779 31.9202 5.99437C31.9806 6.05477 32.0325 6.13089 32.0697 6.20526C32.1053 6.27645 32.136 6.36324 32.136 6.44424C32.136 6.52525 32.1053 6.61204 32.0697 6.68323C32.0325 6.7576 31.9806 6.83372 31.9202 6.89412C31.8936 6.92069 31.8582 6.95397 31.7982 6.9813C31.7433 7.00632 31.6755 7.02297 31.5859 7.0359C31.4077 7.06162 31.1028 7.07773 30.5482 7.08844C29.4347 7.10996 27.2807 7.10996 23.0347 7.10996H23.0298C19.0852 7.10996 16.9284 7.10782 15.7396 7.08845C15.1463 7.07879 14.7893 7.06479 14.5703 7.04402C14.4613 7.03367 14.38 7.0211 14.3184 7.00437C14.2562 6.98752 14.2034 6.96369 14.1609 6.92407C14.0371 6.81117 13.9698 6.66345 13.9655 6.50198C13.9612 6.34297 14.018 6.18124 14.122 6.03239L14.2504 5.84403Z" fill="#FF845C" stroke="#FF845C" stroke-width="0.3"/>
<path d="M18.5173 9.75742L18.5176 9.75728C19.0899 9.46645 19.9119 9.51272 20.4465 9.85973L20.4465 9.85973L20.4475 9.8604C20.7155 10.0375 20.9399 10.3207 21.0885 10.627C21.2366 10.9322 21.3174 11.2772 21.2788 11.5845C21.2185 12.1415 20.9032 12.7999 20.4499 13.4287C19.9939 14.0611 19.3873 14.6789 18.7244 15.153L18.724 15.1533L18.1769 15.542L18.2547 15.6928L18.2548 15.6928L18.2562 15.6958C18.4165 16.0243 18.6705 16.2901 18.9207 16.419L18.9207 16.419L18.9219 16.4196C19.0501 16.4871 19.3081 16.5269 19.5976 16.5206C19.8846 16.5143 20.1587 16.4637 20.3137 16.3844L20.3137 16.3844L20.3149 16.3838C20.4684 16.3071 20.6226 16.1648 20.7387 16.0006C20.8565 15.8338 20.9196 15.6664 20.9196 15.5467C20.9196 15.2047 21.1579 14.9738 21.4265 14.9003C21.6948 14.8268 22.019 14.903 22.2019 15.1913L22.2019 15.1913L22.2031 15.1933C22.3615 15.4516 22.5425 15.6886 22.7191 15.8786C22.8977 16.0708 23.0644 16.2069 23.1925 16.2728L23.1925 16.2728L23.1941 16.2736C23.3456 16.3539 23.4025 16.3745 23.4445 16.3768C23.4812 16.3787 23.523 16.3676 23.6508 16.306C23.8912 16.1854 24.087 15.941 24.5025 15.11L24.5025 15.11L24.5033 15.1084C24.5783 14.9628 24.6605 14.8205 24.7349 14.7077C24.772 14.6514 24.8086 14.6005 24.8425 14.5594C24.8718 14.5239 24.9116 14.48 24.957 14.4541C25.1246 14.3555 25.3134 14.3657 25.4862 14.4473C25.6558 14.5276 25.816 14.6781 25.9544 14.8764L25.9547 14.8768C26.0986 15.0847 26.3031 15.2857 26.5072 15.4339C26.609 15.5078 26.7078 15.5666 26.7959 15.6063C26.8862 15.647 26.9553 15.6631 27.0003 15.6631C27.0352 15.6631 27.0871 15.6496 27.1557 15.6091C27.2232 15.5693 27.2988 15.5081 27.3783 15.4262C27.5372 15.2623 27.7005 15.0269 27.8368 14.7504C27.9502 14.5148 28.0932 14.3341 28.2798 14.2539C28.4773 14.169 28.6831 14.2127 28.8777 14.3374C29.3114 14.6149 29.5625 14.7304 29.7548 14.7382C29.9277 14.7452 30.0816 14.6643 30.3243 14.4258C30.4849 14.2654 30.6526 14.1565 30.8304 14.1305C31.0168 14.1032 31.1843 14.1709 31.3291 14.3002L31.3294 14.3005C31.5551 14.503 31.5813 14.7901 31.4737 15.0579C31.3682 15.3203 31.1334 15.5767 30.8097 15.7773L30.8089 15.7778C30.3073 16.0844 29.7576 16.1569 29.1453 15.9926C29.015 15.959 28.8935 15.9317 28.8042 15.9141C28.7837 15.9101 28.7653 15.9066 28.749 15.9037C28.4746 16.296 28.1855 16.5901 27.8931 16.7589C27.1958 17.1783 26.2759 17.0135 25.5633 16.4182L25.5627 16.4177L25.4197 16.297L25.2794 16.5204L25.2794 16.5204L25.278 16.5225C25.1497 16.7192 24.9557 16.9856 24.8403 17.1023C24.1195 17.9044 22.7395 17.8516 21.9502 17.0348L21.9502 17.0347L21.8088 16.8883L21.4959 17.1629C21.2224 17.4094 20.948 17.5843 20.6294 17.6963C20.3118 17.8079 19.9584 17.8541 19.5311 17.8541C18.7127 17.8541 18.1038 17.6085 17.5992 17.0673C17.4714 16.9303 17.3182 16.7277 17.1913 16.5395C17.1274 16.4449 17.0689 16.3519 17.0225 16.2704C17.0074 16.2438 16.9928 16.2173 16.9795 16.1915C16.9562 16.2 16.9297 16.2098 16.9003 16.2209C16.769 16.2707 16.5879 16.3432 16.3909 16.4245L16.3909 16.4245L16.3899 16.4249C15.554 16.7636 14.953 16.9504 14.5547 16.9655C14.3542 16.9731 14.1767 16.9386 14.0491 16.8286C13.9177 16.7153 13.8715 16.5503 13.8715 16.3718C13.8715 16.1697 13.9246 15.9989 14.0864 15.8635C14.233 15.741 14.4564 15.6594 14.7577 15.5819L14.7577 15.5819L14.7597 15.5814C14.8895 15.5499 15.2955 15.4019 15.7055 15.2425C15.9078 15.1639 16.107 15.084 16.2675 15.017C16.3603 14.9783 16.4371 14.9452 16.4937 14.9196C16.4917 14.911 16.4896 14.9019 16.4873 14.8922C16.4674 14.8073 16.4377 14.6907 16.4036 14.5625L16.4033 14.5616C15.9306 12.742 16.8714 10.5983 18.5173 9.75742ZM17.8187 14.1358L17.8187 14.1358L17.8204 14.1346C18.4686 13.68 19.0515 13.0904 19.44 12.5448C19.6344 12.2718 19.7766 12.0148 19.8552 11.7954C19.9355 11.5712 19.9402 11.4127 19.9003 11.3167C19.8768 11.2634 19.8355 11.1977 19.7857 11.1354C19.7357 11.0729 19.6844 11.0229 19.6448 10.9952C19.536 10.9242 19.4564 10.8991 19.378 10.9005C19.2947 10.902 19.1913 10.9337 19.0363 11.0193L19.0363 11.0194L19.0337 11.0208C18.1299 11.4969 17.5444 12.6053 17.6264 13.7562C17.639 13.9166 17.6558 14.0654 17.6724 14.1761C17.6749 14.193 17.6774 14.2089 17.6799 14.2236C17.7211 14.2014 17.7692 14.1716 17.8187 14.1358ZM17.081 16.1576C17.0817 16.1574 17.0821 16.1574 17.0821 16.1573C17.0821 16.1573 17.0818 16.1574 17.0814 16.1575C17.0813 16.1575 17.0812 16.1575 17.081 16.1576Z" fill="#FF845C" stroke="#FF845C" stroke-width="0.3"/>
<path d="M35.4707 15.2006C35.3227 14.936 35.3162 14.5817 35.527 14.283C35.6528 14.1015 35.8942 14.0282 36.1076 14.0234C36.3257 14.0185 36.5732 14.0829 36.7359 14.2456C37.1875 14.6972 36.8852 15.4592 36.2725 15.5818L36.2725 15.5818L36.2699 15.5823C35.9155 15.6467 35.6195 15.4665 35.4707 15.2006Z" fill="#FF845C" stroke="#FF845C" stroke-width="0.3"/>
<mask id="path-5-outside-1_2783_60624" maskUnits="userSpaceOnUse" x="-0.294922" y="16.3467" width="46" height="29" fill="black">
<rect fill="white" x="-0.294922" y="16.3467" width="46" height="29"/>
<path d="M8.64176 17.0072C8.45266 17.0931 8.16042 17.3338 7.98852 17.5401C7.61892 18.0042 1.00916 27.7513 0.828657 28.1037C0.665347 28.4131 0.665347 29.1351 0.820062 29.5047C0.880228 29.6594 1.04354 29.8829 1.18106 30.0032C1.53347 30.3213 4.21519 32.1177 4.50743 32.2208C4.82546 32.3412 5.30679 32.3326 5.69358 32.195L5.99441 32.0919L6.83675 32.8912L7.67049 33.682L7.33528 34.1805C7.15477 34.4556 6.95708 34.808 6.90551 34.9713C6.77658 35.3495 6.77658 35.9426 6.90551 36.3723C7.1118 37.0514 8.00571 37.8077 8.62457 37.8163C9.00276 37.8163 9.09731 37.8851 9.05433 38.1516C9.03714 38.2891 9.08011 38.6157 9.15747 38.8822C9.44971 39.8706 10.5155 40.5926 11.4782 40.4465L11.8392 40.3863L11.9337 40.7559C12.1486 41.5123 12.7245 42.0968 13.4551 42.2945C13.8935 42.4148 14.6842 42.346 15.028 42.1655C15.2859 42.0366 15.2945 42.0366 15.3976 42.2859C15.5352 42.6125 16.0251 43.0938 16.4205 43.2915C16.6354 43.4033 16.919 43.4462 17.3745 43.4462C18.1395 43.4376 18.5435 43.2657 19.0334 42.7242C19.2053 42.5265 19.3686 42.3718 19.3858 42.3718C19.4116 42.3718 19.9359 42.7672 20.572 43.24C21.1994 43.7213 21.8355 44.1682 21.9902 44.2284C22.3598 44.3917 23.2365 44.3831 23.6319 44.2198C24.2422 43.962 24.8352 43.24 24.9814 42.5695L25.0415 42.2859L25.308 42.432C25.5057 42.5437 25.7807 42.5867 26.2707 42.5867C26.8809 42.5867 27.0098 42.5609 27.431 42.3203C27.9639 42.0108 28.4367 41.4092 28.514 40.9192L28.5656 40.6012L28.9696 40.8075C29.7517 41.1857 30.8261 41.0568 31.4794 40.4895C31.8748 40.1628 32.2444 39.4666 32.2444 39.0627V38.8048H32.9578C33.7571 38.8048 34.1439 38.6501 34.6253 38.143C35.2699 37.4725 35.4418 36.3895 35.0464 35.5386C34.8057 35.0229 35.1496 35.3323 28.3077 29.4531C24.3453 26.0494 22.9787 24.9234 22.8154 24.9234C22.6177 24.9234 20.1078 25.6454 19.9016 25.7658C19.8414 25.8002 19.3686 26.3503 18.8443 26.9949C18.3286 27.6395 17.7785 28.267 17.6324 28.3959C16.833 29.0664 15.7157 29.393 14.796 29.2383C14.0998 29.1093 13.5411 28.8515 13.4809 28.628C13.4465 28.4905 13.7645 27.9748 14.8132 26.4878C15.5695 25.4134 16.2915 24.4335 16.4119 24.3046C16.6611 24.0553 21.3885 21.1415 22.016 20.8493C22.3168 20.7118 22.5661 20.6774 23.1764 20.6774C23.9327 20.686 24.0015 20.7032 26.0128 21.4424C27.9639 22.1558 28.1186 22.1987 28.8922 22.2417C29.64 22.2675 29.8377 22.2417 31.2301 21.8893L32.7429 21.5111L35.6739 26.5479L38.6049 31.5848L37.9344 32.2294C37.5476 32.599 36.9288 33.0718 36.4732 33.3382C36.0435 33.5961 35.6653 33.8711 35.6395 33.9485C35.6137 34.0344 35.6309 34.1977 35.6739 34.3181C35.7942 34.6275 36.1294 34.6963 36.5334 34.5072C37.0663 34.2579 38.1923 33.4671 38.7768 32.9342C39.3183 32.4443 39.3355 32.4357 39.5761 32.556C39.7394 32.6334 39.9973 32.6678 40.3153 32.642C40.7537 32.6076 40.9772 32.5131 42.3524 31.7223C43.1947 31.2324 44.0113 30.7424 44.166 30.6307C44.527 30.3556 44.7419 29.7884 44.6903 29.2039C44.6559 28.7913 44.3551 28.2412 41.3811 23.1184C37.6508 16.7064 37.8485 16.9728 36.817 16.9728L36.2412 16.9814L34.5221 17.9785C33.0265 18.8466 32.7687 19.0185 32.571 19.3451C32.4077 19.603 32.3303 19.8522 32.3217 20.1273C32.2959 20.6 32.4077 20.5484 30.6972 20.9782C29.0641 21.3822 28.7633 21.3478 26.1847 20.4109C24.5 19.8007 24.0015 19.6545 23.4772 19.6202C22.2481 19.5342 21.7495 19.7147 19.4374 21.1415C18.5865 21.6572 17.8473 22.087 17.8043 22.087C17.7527 22.087 17.4863 22.0096 17.2112 21.9151C16.9362 21.8205 16.2486 21.6658 15.6899 21.5627C15.1226 21.4681 14.4522 21.3048 14.1943 21.2017L13.7216 21.0126V20.4539C13.713 19.5084 13.5582 19.3193 11.7618 18.116C10.9195 17.5487 10.0944 17.033 9.93964 16.9642C9.54426 16.8009 9.06292 16.8181 8.64176 17.0072ZM10.9883 18.8638C12.5182 19.878 12.7933 20.1359 12.6901 20.4539C12.6042 20.7289 5.71077 30.8628 5.46151 31.0862C5.34117 31.198 5.16927 31.2839 5.06612 31.2839C4.87703 31.2839 2.12654 29.4875 1.87728 29.1953C1.77414 29.075 1.73116 28.9202 1.74835 28.7483C1.78273 28.4819 8.62457 18.3223 8.96838 18.0214C9.06292 17.9441 9.22623 17.8753 9.32938 17.8753C9.42393 17.8753 10.1803 18.3223 10.9883 18.8638ZM37.178 18.1504C37.5047 18.4426 43.6761 29.1179 43.6761 29.3844C43.6761 29.5047 43.6417 29.6508 43.6073 29.711C43.487 29.9001 40.4271 31.6277 40.2122 31.6277C40.0918 31.6277 39.9199 31.559 39.8254 31.473C39.5417 31.2324 33.3446 20.4711 33.3446 20.2304C33.3446 20.1101 33.4133 19.9382 33.4993 19.8522C33.7399 19.6116 36.6451 17.9613 36.817 17.9613C36.8944 17.9613 37.0577 18.0472 37.178 18.1504ZM13.7302 22.1386C14.0568 22.2589 14.8218 22.4566 15.432 22.5683C16.0337 22.6715 16.5494 22.7832 16.5752 22.809C16.5924 22.8262 16.4033 22.9809 16.1454 23.1528C15.75 23.4193 15.4578 23.7631 14.3404 25.336C12.4667 27.9662 12.4752 27.9576 12.4752 28.5249C12.4752 29.35 12.8362 29.7368 13.9364 30.0892C14.667 30.3213 15.836 30.3385 16.558 30.1322C17.7441 29.7798 18.2685 29.3672 19.6265 27.6997L20.486 26.6511L21.2338 26.4276C21.6378 26.3073 22.1277 26.1526 22.3168 26.0924L22.6606 25.9807L28.2905 30.8198C31.3848 33.4843 33.9892 35.7707 34.0666 35.8996C34.1525 36.0371 34.2213 36.3122 34.2213 36.5356C34.2213 37.5413 33.1125 38.1516 32.2959 37.6015C32.1154 37.4811 30.6972 36.3465 29.1329 35.083C26.0558 32.5904 25.8839 32.4873 25.5744 32.96C25.4627 33.1319 25.4455 33.2265 25.5229 33.3812C25.5744 33.5015 26.8207 34.5587 28.2819 35.7535C29.8549 37.0256 31.0152 38.0226 31.0926 38.1687C31.5825 39.1314 30.6972 40.2574 29.6744 39.9652C29.4767 39.905 28.2905 39.0025 26.3566 37.4296C23.2451 34.9025 23.0732 34.7908 22.7552 35.1174C22.6778 35.1862 22.6177 35.3581 22.6177 35.4956C22.6177 35.7191 22.8669 35.9512 24.9384 37.6186C26.5199 38.8993 27.2935 39.587 27.3966 39.7847C27.792 40.6012 27.1903 41.5983 26.2964 41.5983C25.8839 41.5983 25.6948 41.4779 23.9929 40.1027C23.142 39.4065 22.3512 38.8048 22.2395 38.7532C21.9128 38.5985 21.5862 38.8392 21.5862 39.226C21.5862 39.4838 21.6722 39.5784 22.5747 40.309C23.1248 40.7473 23.6491 41.2029 23.735 41.3146C24.1132 41.7959 24.0359 42.5695 23.5631 43.0165C23.3654 43.2056 23.2107 43.2657 22.8583 43.2915L22.4028 43.3259L21.1823 42.389L19.9617 41.4521L20.3829 40.8419C20.89 40.1027 21.0361 39.544 20.8986 38.8822C20.7267 38.0484 20.1336 37.421 19.3257 37.1975L18.9389 37.1029L19.0764 36.7935C19.2827 36.3122 19.2569 35.444 19.0162 34.9541C18.767 34.4384 18.2341 33.9828 17.684 33.8195C17.1339 33.6562 16.833 33.6648 16.2744 33.8539L15.8188 34.0086L15.6555 33.6906C15.3031 33.003 14.5639 32.5732 13.7216 32.5732C13.1027 32.5732 12.6729 32.7365 12.2088 33.1577C11.9767 33.364 11.7876 33.4929 11.7876 33.4413C11.7876 33.2694 11.1602 32.6506 10.8078 32.4615C10.2663 32.1864 9.38095 32.2036 8.83085 32.5131C8.59878 32.642 8.35811 32.7451 8.29795 32.7451C8.22918 32.7451 7.8424 32.4185 7.43842 32.0231C6.91411 31.5246 6.71642 31.2667 6.75939 31.1894C7.00866 30.7682 13.0425 21.9151 13.0855 21.9151C13.1199 21.9151 13.4121 22.0182 13.7302 22.1386ZM10.4725 33.4757C10.5843 33.5531 10.7562 33.7336 10.8421 33.8883C11.143 34.3696 11.0742 34.6275 10.3952 35.6331C10.0514 36.1403 9.68178 36.613 9.57004 36.6818C9.30359 36.8623 8.67614 36.8537 8.39249 36.6646C8.07447 36.4583 7.8338 36.0199 7.8338 35.6503C7.8338 35.4011 7.94554 35.169 8.31514 34.6189C8.58159 34.2235 8.88242 33.8109 8.98557 33.6992C9.38095 33.2608 9.99981 33.1663 10.4725 33.4757ZM14.2888 33.7336C14.8303 34.0172 15.028 34.7392 14.7272 35.2893C14.6498 35.4354 14.0224 36.3551 13.3348 37.335C12.269 38.8564 12.0369 39.1314 11.7189 39.2861C11.2375 39.5268 10.8507 39.4494 10.4554 39.0627C10.0858 38.6931 9.99121 38.2547 10.1889 37.8507C10.4554 37.2748 12.9136 33.8625 13.1457 33.7336C13.4551 33.5703 13.9708 33.5703 14.2888 33.7336ZM17.7098 34.9713C17.8473 35.0744 18.0278 35.3237 18.1137 35.5386C18.2427 35.891 18.2427 35.9598 18.1309 36.252C18.0364 36.5013 15.9477 39.587 15.028 40.8419C14.3576 41.7616 12.905 41.2974 12.905 40.1628C12.905 39.7589 12.9394 39.7073 15.1054 36.6216C16.3173 34.9025 16.558 34.6791 17.1339 34.7478C17.3058 34.7736 17.5636 34.8682 17.7098 34.9713ZM19.2053 38.2547C19.7468 38.5297 20.0219 39.0884 19.8758 39.5956C19.764 39.9909 18.2427 42.114 17.9418 42.2945C17.7957 42.3804 17.5379 42.4578 17.366 42.4578C16.7471 42.4578 16.1196 41.7788 16.2056 41.2029C16.2486 40.8677 17.9332 38.4438 18.2255 38.2891C18.5005 38.143 18.9561 38.1258 19.2053 38.2547Z"/>
</mask>
<path d="M8.64176 17.0072C8.45266 17.0931 8.16042 17.3338 7.98852 17.5401C7.61892 18.0042 1.00916 27.7513 0.828657 28.1037C0.665347 28.4131 0.665347 29.1351 0.820062 29.5047C0.880228 29.6594 1.04354 29.8829 1.18106 30.0032C1.53347 30.3213 4.21519 32.1177 4.50743 32.2208C4.82546 32.3412 5.30679 32.3326 5.69358 32.195L5.99441 32.0919L6.83675 32.8912L7.67049 33.682L7.33528 34.1805C7.15477 34.4556 6.95708 34.808 6.90551 34.9713C6.77658 35.3495 6.77658 35.9426 6.90551 36.3723C7.1118 37.0514 8.00571 37.8077 8.62457 37.8163C9.00276 37.8163 9.09731 37.8851 9.05433 38.1516C9.03714 38.2891 9.08011 38.6157 9.15747 38.8822C9.44971 39.8706 10.5155 40.5926 11.4782 40.4465L11.8392 40.3863L11.9337 40.7559C12.1486 41.5123 12.7245 42.0968 13.4551 42.2945C13.8935 42.4148 14.6842 42.346 15.028 42.1655C15.2859 42.0366 15.2945 42.0366 15.3976 42.2859C15.5352 42.6125 16.0251 43.0938 16.4205 43.2915C16.6354 43.4033 16.919 43.4462 17.3745 43.4462C18.1395 43.4376 18.5435 43.2657 19.0334 42.7242C19.2053 42.5265 19.3686 42.3718 19.3858 42.3718C19.4116 42.3718 19.9359 42.7672 20.572 43.24C21.1994 43.7213 21.8355 44.1682 21.9902 44.2284C22.3598 44.3917 23.2365 44.3831 23.6319 44.2198C24.2422 43.962 24.8352 43.24 24.9814 42.5695L25.0415 42.2859L25.308 42.432C25.5057 42.5437 25.7807 42.5867 26.2707 42.5867C26.8809 42.5867 27.0098 42.5609 27.431 42.3203C27.9639 42.0108 28.4367 41.4092 28.514 40.9192L28.5656 40.6012L28.9696 40.8075C29.7517 41.1857 30.8261 41.0568 31.4794 40.4895C31.8748 40.1628 32.2444 39.4666 32.2444 39.0627V38.8048H32.9578C33.7571 38.8048 34.1439 38.6501 34.6253 38.143C35.2699 37.4725 35.4418 36.3895 35.0464 35.5386C34.8057 35.0229 35.1496 35.3323 28.3077 29.4531C24.3453 26.0494 22.9787 24.9234 22.8154 24.9234C22.6177 24.9234 20.1078 25.6454 19.9016 25.7658C19.8414 25.8002 19.3686 26.3503 18.8443 26.9949C18.3286 27.6395 17.7785 28.267 17.6324 28.3959C16.833 29.0664 15.7157 29.393 14.796 29.2383C14.0998 29.1093 13.5411 28.8515 13.4809 28.628C13.4465 28.4905 13.7645 27.9748 14.8132 26.4878C15.5695 25.4134 16.2915 24.4335 16.4119 24.3046C16.6611 24.0553 21.3885 21.1415 22.016 20.8493C22.3168 20.7118 22.5661 20.6774 23.1764 20.6774C23.9327 20.686 24.0015 20.7032 26.0128 21.4424C27.9639 22.1558 28.1186 22.1987 28.8922 22.2417C29.64 22.2675 29.8377 22.2417 31.2301 21.8893L32.7429 21.5111L35.6739 26.5479L38.6049 31.5848L37.9344 32.2294C37.5476 32.599 36.9288 33.0718 36.4732 33.3382C36.0435 33.5961 35.6653 33.8711 35.6395 33.9485C35.6137 34.0344 35.6309 34.1977 35.6739 34.3181C35.7942 34.6275 36.1294 34.6963 36.5334 34.5072C37.0663 34.2579 38.1923 33.4671 38.7768 32.9342C39.3183 32.4443 39.3355 32.4357 39.5761 32.556C39.7394 32.6334 39.9973 32.6678 40.3153 32.642C40.7537 32.6076 40.9772 32.5131 42.3524 31.7223C43.1947 31.2324 44.0113 30.7424 44.166 30.6307C44.527 30.3556 44.7419 29.7884 44.6903 29.2039C44.6559 28.7913 44.3551 28.2412 41.3811 23.1184C37.6508 16.7064 37.8485 16.9728 36.817 16.9728L36.2412 16.9814L34.5221 17.9785C33.0265 18.8466 32.7687 19.0185 32.571 19.3451C32.4077 19.603 32.3303 19.8522 32.3217 20.1273C32.2959 20.6 32.4077 20.5484 30.6972 20.9782C29.0641 21.3822 28.7633 21.3478 26.1847 20.4109C24.5 19.8007 24.0015 19.6545 23.4772 19.6202C22.2481 19.5342 21.7495 19.7147 19.4374 21.1415C18.5865 21.6572 17.8473 22.087 17.8043 22.087C17.7527 22.087 17.4863 22.0096 17.2112 21.9151C16.9362 21.8205 16.2486 21.6658 15.6899 21.5627C15.1226 21.4681 14.4522 21.3048 14.1943 21.2017L13.7216 21.0126V20.4539C13.713 19.5084 13.5582 19.3193 11.7618 18.116C10.9195 17.5487 10.0944 17.033 9.93964 16.9642C9.54426 16.8009 9.06292 16.8181 8.64176 17.0072ZM10.9883 18.8638C12.5182 19.878 12.7933 20.1359 12.6901 20.4539C12.6042 20.7289 5.71077 30.8628 5.46151 31.0862C5.34117 31.198 5.16927 31.2839 5.06612 31.2839C4.87703 31.2839 2.12654 29.4875 1.87728 29.1953C1.77414 29.075 1.73116 28.9202 1.74835 28.7483C1.78273 28.4819 8.62457 18.3223 8.96838 18.0214C9.06292 17.9441 9.22623 17.8753 9.32938 17.8753C9.42393 17.8753 10.1803 18.3223 10.9883 18.8638ZM37.178 18.1504C37.5047 18.4426 43.6761 29.1179 43.6761 29.3844C43.6761 29.5047 43.6417 29.6508 43.6073 29.711C43.487 29.9001 40.4271 31.6277 40.2122 31.6277C40.0918 31.6277 39.9199 31.559 39.8254 31.473C39.5417 31.2324 33.3446 20.4711 33.3446 20.2304C33.3446 20.1101 33.4133 19.9382 33.4993 19.8522C33.7399 19.6116 36.6451 17.9613 36.817 17.9613C36.8944 17.9613 37.0577 18.0472 37.178 18.1504ZM13.7302 22.1386C14.0568 22.2589 14.8218 22.4566 15.432 22.5683C16.0337 22.6715 16.5494 22.7832 16.5752 22.809C16.5924 22.8262 16.4033 22.9809 16.1454 23.1528C15.75 23.4193 15.4578 23.7631 14.3404 25.336C12.4667 27.9662 12.4752 27.9576 12.4752 28.5249C12.4752 29.35 12.8362 29.7368 13.9364 30.0892C14.667 30.3213 15.836 30.3385 16.558 30.1322C17.7441 29.7798 18.2685 29.3672 19.6265 27.6997L20.486 26.6511L21.2338 26.4276C21.6378 26.3073 22.1277 26.1526 22.3168 26.0924L22.6606 25.9807L28.2905 30.8198C31.3848 33.4843 33.9892 35.7707 34.0666 35.8996C34.1525 36.0371 34.2213 36.3122 34.2213 36.5356C34.2213 37.5413 33.1125 38.1516 32.2959 37.6015C32.1154 37.4811 30.6972 36.3465 29.1329 35.083C26.0558 32.5904 25.8839 32.4873 25.5744 32.96C25.4627 33.1319 25.4455 33.2265 25.5229 33.3812C25.5744 33.5015 26.8207 34.5587 28.2819 35.7535C29.8549 37.0256 31.0152 38.0226 31.0926 38.1687C31.5825 39.1314 30.6972 40.2574 29.6744 39.9652C29.4767 39.905 28.2905 39.0025 26.3566 37.4296C23.2451 34.9025 23.0732 34.7908 22.7552 35.1174C22.6778 35.1862 22.6177 35.3581 22.6177 35.4956C22.6177 35.7191 22.8669 35.9512 24.9384 37.6186C26.5199 38.8993 27.2935 39.587 27.3966 39.7847C27.792 40.6012 27.1903 41.5983 26.2964 41.5983C25.8839 41.5983 25.6948 41.4779 23.9929 40.1027C23.142 39.4065 22.3512 38.8048 22.2395 38.7532C21.9128 38.5985 21.5862 38.8392 21.5862 39.226C21.5862 39.4838 21.6722 39.5784 22.5747 40.309C23.1248 40.7473 23.6491 41.2029 23.735 41.3146C24.1132 41.7959 24.0359 42.5695 23.5631 43.0165C23.3654 43.2056 23.2107 43.2657 22.8583 43.2915L22.4028 43.3259L21.1823 42.389L19.9617 41.4521L20.3829 40.8419C20.89 40.1027 21.0361 39.544 20.8986 38.8822C20.7267 38.0484 20.1336 37.421 19.3257 37.1975L18.9389 37.1029L19.0764 36.7935C19.2827 36.3122 19.2569 35.444 19.0162 34.9541C18.767 34.4384 18.2341 33.9828 17.684 33.8195C17.1339 33.6562 16.833 33.6648 16.2744 33.8539L15.8188 34.0086L15.6555 33.6906C15.3031 33.003 14.5639 32.5732 13.7216 32.5732C13.1027 32.5732 12.6729 32.7365 12.2088 33.1577C11.9767 33.364 11.7876 33.4929 11.7876 33.4413C11.7876 33.2694 11.1602 32.6506 10.8078 32.4615C10.2663 32.1864 9.38095 32.2036 8.83085 32.5131C8.59878 32.642 8.35811 32.7451 8.29795 32.7451C8.22918 32.7451 7.8424 32.4185 7.43842 32.0231C6.91411 31.5246 6.71642 31.2667 6.75939 31.1894C7.00866 30.7682 13.0425 21.9151 13.0855 21.9151C13.1199 21.9151 13.4121 22.0182 13.7302 22.1386ZM10.4725 33.4757C10.5843 33.5531 10.7562 33.7336 10.8421 33.8883C11.143 34.3696 11.0742 34.6275 10.3952 35.6331C10.0514 36.1403 9.68178 36.613 9.57004 36.6818C9.30359 36.8623 8.67614 36.8537 8.39249 36.6646C8.07447 36.4583 7.8338 36.0199 7.8338 35.6503C7.8338 35.4011 7.94554 35.169 8.31514 34.6189C8.58159 34.2235 8.88242 33.8109 8.98557 33.6992C9.38095 33.2608 9.99981 33.1663 10.4725 33.4757ZM14.2888 33.7336C14.8303 34.0172 15.028 34.7392 14.7272 35.2893C14.6498 35.4354 14.0224 36.3551 13.3348 37.335C12.269 38.8564 12.0369 39.1314 11.7189 39.2861C11.2375 39.5268 10.8507 39.4494 10.4554 39.0627C10.0858 38.6931 9.99121 38.2547 10.1889 37.8507C10.4554 37.2748 12.9136 33.8625 13.1457 33.7336C13.4551 33.5703 13.9708 33.5703 14.2888 33.7336ZM17.7098 34.9713C17.8473 35.0744 18.0278 35.3237 18.1137 35.5386C18.2427 35.891 18.2427 35.9598 18.1309 36.252C18.0364 36.5013 15.9477 39.587 15.028 40.8419C14.3576 41.7616 12.905 41.2974 12.905 40.1628C12.905 39.7589 12.9394 39.7073 15.1054 36.6216C16.3173 34.9025 16.558 34.6791 17.1339 34.7478C17.3058 34.7736 17.5636 34.8682 17.7098 34.9713ZM19.2053 38.2547C19.7468 38.5297 20.0219 39.0884 19.8758 39.5956C19.764 39.9909 18.2427 42.114 17.9418 42.2945C17.7957 42.3804 17.5379 42.4578 17.366 42.4578C16.7471 42.4578 16.1196 41.7788 16.2056 41.2029C16.2486 40.8677 17.9332 38.4438 18.2255 38.2891C18.5005 38.143 18.9561 38.1258 19.2053 38.2547Z" fill="#FF845C"/>
<path d="M8.64176 17.0072C8.45266 17.0931 8.16042 17.3338 7.98852 17.5401C7.61892 18.0042 1.00916 27.7513 0.828657 28.1037C0.665347 28.4131 0.665347 29.1351 0.820062 29.5047C0.880228 29.6594 1.04354 29.8829 1.18106 30.0032C1.53347 30.3213 4.21519 32.1177 4.50743 32.2208C4.82546 32.3412 5.30679 32.3326 5.69358 32.195L5.99441 32.0919L6.83675 32.8912L7.67049 33.682L7.33528 34.1805C7.15477 34.4556 6.95708 34.808 6.90551 34.9713C6.77658 35.3495 6.77658 35.9426 6.90551 36.3723C7.1118 37.0514 8.00571 37.8077 8.62457 37.8163C9.00276 37.8163 9.09731 37.8851 9.05433 38.1516C9.03714 38.2891 9.08011 38.6157 9.15747 38.8822C9.44971 39.8706 10.5155 40.5926 11.4782 40.4465L11.8392 40.3863L11.9337 40.7559C12.1486 41.5123 12.7245 42.0968 13.4551 42.2945C13.8935 42.4148 14.6842 42.346 15.028 42.1655C15.2859 42.0366 15.2945 42.0366 15.3976 42.2859C15.5352 42.6125 16.0251 43.0938 16.4205 43.2915C16.6354 43.4033 16.919 43.4462 17.3745 43.4462C18.1395 43.4376 18.5435 43.2657 19.0334 42.7242C19.2053 42.5265 19.3686 42.3718 19.3858 42.3718C19.4116 42.3718 19.9359 42.7672 20.572 43.24C21.1994 43.7213 21.8355 44.1682 21.9902 44.2284C22.3598 44.3917 23.2365 44.3831 23.6319 44.2198C24.2422 43.962 24.8352 43.24 24.9814 42.5695L25.0415 42.2859L25.308 42.432C25.5057 42.5437 25.7807 42.5867 26.2707 42.5867C26.8809 42.5867 27.0098 42.5609 27.431 42.3203C27.9639 42.0108 28.4367 41.4092 28.514 40.9192L28.5656 40.6012L28.9696 40.8075C29.7517 41.1857 30.8261 41.0568 31.4794 40.4895C31.8748 40.1628 32.2444 39.4666 32.2444 39.0627V38.8048H32.9578C33.7571 38.8048 34.1439 38.6501 34.6253 38.143C35.2699 37.4725 35.4418 36.3895 35.0464 35.5386C34.8057 35.0229 35.1496 35.3323 28.3077 29.4531C24.3453 26.0494 22.9787 24.9234 22.8154 24.9234C22.6177 24.9234 20.1078 25.6454 19.9016 25.7658C19.8414 25.8002 19.3686 26.3503 18.8443 26.9949C18.3286 27.6395 17.7785 28.267 17.6324 28.3959C16.833 29.0664 15.7157 29.393 14.796 29.2383C14.0998 29.1093 13.5411 28.8515 13.4809 28.628C13.4465 28.4905 13.7645 27.9748 14.8132 26.4878C15.5695 25.4134 16.2915 24.4335 16.4119 24.3046C16.6611 24.0553 21.3885 21.1415 22.016 20.8493C22.3168 20.7118 22.5661 20.6774 23.1764 20.6774C23.9327 20.686 24.0015 20.7032 26.0128 21.4424C27.9639 22.1558 28.1186 22.1987 28.8922 22.2417C29.64 22.2675 29.8377 22.2417 31.2301 21.8893L32.7429 21.5111L35.6739 26.5479L38.6049 31.5848L37.9344 32.2294C37.5476 32.599 36.9288 33.0718 36.4732 33.3382C36.0435 33.5961 35.6653 33.8711 35.6395 33.9485C35.6137 34.0344 35.6309 34.1977 35.6739 34.3181C35.7942 34.6275 36.1294 34.6963 36.5334 34.5072C37.0663 34.2579 38.1923 33.4671 38.7768 32.9342C39.3183 32.4443 39.3355 32.4357 39.5761 32.556C39.7394 32.6334 39.9973 32.6678 40.3153 32.642C40.7537 32.6076 40.9772 32.5131 42.3524 31.7223C43.1947 31.2324 44.0113 30.7424 44.166 30.6307C44.527 30.3556 44.7419 29.7884 44.6903 29.2039C44.6559 28.7913 44.3551 28.2412 41.3811 23.1184C37.6508 16.7064 37.8485 16.9728 36.817 16.9728L36.2412 16.9814L34.5221 17.9785C33.0265 18.8466 32.7687 19.0185 32.571 19.3451C32.4077 19.603 32.3303 19.8522 32.3217 20.1273C32.2959 20.6 32.4077 20.5484 30.6972 20.9782C29.0641 21.3822 28.7633 21.3478 26.1847 20.4109C24.5 19.8007 24.0015 19.6545 23.4772 19.6202C22.2481 19.5342 21.7495 19.7147 19.4374 21.1415C18.5865 21.6572 17.8473 22.087 17.8043 22.087C17.7527 22.087 17.4863 22.0096 17.2112 21.9151C16.9362 21.8205 16.2486 21.6658 15.6899 21.5627C15.1226 21.4681 14.4522 21.3048 14.1943 21.2017L13.7216 21.0126V20.4539C13.713 19.5084 13.5582 19.3193 11.7618 18.116C10.9195 17.5487 10.0944 17.033 9.93964 16.9642C9.54426 16.8009 9.06292 16.8181 8.64176 17.0072ZM10.9883 18.8638C12.5182 19.878 12.7933 20.1359 12.6901 20.4539C12.6042 20.7289 5.71077 30.8628 5.46151 31.0862C5.34117 31.198 5.16927 31.2839 5.06612 31.2839C4.87703 31.2839 2.12654 29.4875 1.87728 29.1953C1.77414 29.075 1.73116 28.9202 1.74835 28.7483C1.78273 28.4819 8.62457 18.3223 8.96838 18.0214C9.06292 17.9441 9.22623 17.8753 9.32938 17.8753C9.42393 17.8753 10.1803 18.3223 10.9883 18.8638ZM37.178 18.1504C37.5047 18.4426 43.6761 29.1179 43.6761 29.3844C43.6761 29.5047 43.6417 29.6508 43.6073 29.711C43.487 29.9001 40.4271 31.6277 40.2122 31.6277C40.0918 31.6277 39.9199 31.559 39.8254 31.473C39.5417 31.2324 33.3446 20.4711 33.3446 20.2304C33.3446 20.1101 33.4133 19.9382 33.4993 19.8522C33.7399 19.6116 36.6451 17.9613 36.817 17.9613C36.8944 17.9613 37.0577 18.0472 37.178 18.1504ZM13.7302 22.1386C14.0568 22.2589 14.8218 22.4566 15.432 22.5683C16.0337 22.6715 16.5494 22.7832 16.5752 22.809C16.5924 22.8262 16.4033 22.9809 16.1454 23.1528C15.75 23.4193 15.4578 23.7631 14.3404 25.336C12.4667 27.9662 12.4752 27.9576 12.4752 28.5249C12.4752 29.35 12.8362 29.7368 13.9364 30.0892C14.667 30.3213 15.836 30.3385 16.558 30.1322C17.7441 29.7798 18.2685 29.3672 19.6265 27.6997L20.486 26.6511L21.2338 26.4276C21.6378 26.3073 22.1277 26.1526 22.3168 26.0924L22.6606 25.9807L28.2905 30.8198C31.3848 33.4843 33.9892 35.7707 34.0666 35.8996C34.1525 36.0371 34.2213 36.3122 34.2213 36.5356C34.2213 37.5413 33.1125 38.1516 32.2959 37.6015C32.1154 37.4811 30.6972 36.3465 29.1329 35.083C26.0558 32.5904 25.8839 32.4873 25.5744 32.96C25.4627 33.1319 25.4455 33.2265 25.5229 33.3812C25.5744 33.5015 26.8207 34.5587 28.2819 35.7535C29.8549 37.0256 31.0152 38.0226 31.0926 38.1687C31.5825 39.1314 30.6972 40.2574 29.6744 39.9652C29.4767 39.905 28.2905 39.0025 26.3566 37.4296C23.2451 34.9025 23.0732 34.7908 22.7552 35.1174C22.6778 35.1862 22.6177 35.3581 22.6177 35.4956C22.6177 35.7191 22.8669 35.9512 24.9384 37.6186C26.5199 38.8993 27.2935 39.587 27.3966 39.7847C27.792 40.6012 27.1903 41.5983 26.2964 41.5983C25.8839 41.5983 25.6948 41.4779 23.9929 40.1027C23.142 39.4065 22.3512 38.8048 22.2395 38.7532C21.9128 38.5985 21.5862 38.8392 21.5862 39.226C21.5862 39.4838 21.6722 39.5784 22.5747 40.309C23.1248 40.7473 23.6491 41.2029 23.735 41.3146C24.1132 41.7959 24.0359 42.5695 23.5631 43.0165C23.3654 43.2056 23.2107 43.2657 22.8583 43.2915L22.4028 43.3259L21.1823 42.389L19.9617 41.4521L20.3829 40.8419C20.89 40.1027 21.0361 39.544 20.8986 38.8822C20.7267 38.0484 20.1336 37.421 19.3257 37.1975L18.9389 37.1029L19.0764 36.7935C19.2827 36.3122 19.2569 35.444 19.0162 34.9541C18.767 34.4384 18.2341 33.9828 17.684 33.8195C17.1339 33.6562 16.833 33.6648 16.2744 33.8539L15.8188 34.0086L15.6555 33.6906C15.3031 33.003 14.5639 32.5732 13.7216 32.5732C13.1027 32.5732 12.6729 32.7365 12.2088 33.1577C11.9767 33.364 11.7876 33.4929 11.7876 33.4413C11.7876 33.2694 11.1602 32.6506 10.8078 32.4615C10.2663 32.1864 9.38095 32.2036 8.83085 32.5131C8.59878 32.642 8.35811 32.7451 8.29795 32.7451C8.22918 32.7451 7.8424 32.4185 7.43842 32.0231C6.91411 31.5246 6.71642 31.2667 6.75939 31.1894C7.00866 30.7682 13.0425 21.9151 13.0855 21.9151C13.1199 21.9151 13.4121 22.0182 13.7302 22.1386ZM10.4725 33.4757C10.5843 33.5531 10.7562 33.7336 10.8421 33.8883C11.143 34.3696 11.0742 34.6275 10.3952 35.6331C10.0514 36.1403 9.68178 36.613 9.57004 36.6818C9.30359 36.8623 8.67614 36.8537 8.39249 36.6646C8.07447 36.4583 7.8338 36.0199 7.8338 35.6503C7.8338 35.4011 7.94554 35.169 8.31514 34.6189C8.58159 34.2235 8.88242 33.8109 8.98557 33.6992C9.38095 33.2608 9.99981 33.1663 10.4725 33.4757ZM14.2888 33.7336C14.8303 34.0172 15.028 34.7392 14.7272 35.2893C14.6498 35.4354 14.0224 36.3551 13.3348 37.335C12.269 38.8564 12.0369 39.1314 11.7189 39.2861C11.2375 39.5268 10.8507 39.4494 10.4554 39.0627C10.0858 38.6931 9.99121 38.2547 10.1889 37.8507C10.4554 37.2748 12.9136 33.8625 13.1457 33.7336C13.4551 33.5703 13.9708 33.5703 14.2888 33.7336ZM17.7098 34.9713C17.8473 35.0744 18.0278 35.3237 18.1137 35.5386C18.2427 35.891 18.2427 35.9598 18.1309 36.252C18.0364 36.5013 15.9477 39.587 15.028 40.8419C14.3576 41.7616 12.905 41.2974 12.905 40.1628C12.905 39.7589 12.9394 39.7073 15.1054 36.6216C16.3173 34.9025 16.558 34.6791 17.1339 34.7478C17.3058 34.7736 17.5636 34.8682 17.7098 34.9713ZM19.2053 38.2547C19.7468 38.5297 20.0219 39.0884 19.8758 39.5956C19.764 39.9909 18.2427 42.114 17.9418 42.2945C17.7957 42.3804 17.5379 42.4578 17.366 42.4578C16.7471 42.4578 16.1196 41.7788 16.2056 41.2029C16.2486 40.8677 17.9332 38.4438 18.2255 38.2891C18.5005 38.143 18.9561 38.1258 19.2053 38.2547Z" stroke="#FF845C" stroke-width="0.6" mask="url(#path-5-outside-1_2783_60624)"/>
<path d="M3.55898 28.3621C3.55898 28.2083 3.57218 28.0804 3.62778 27.9553C3.68237 27.8324 3.77175 27.7262 3.89516 27.6028C4.01857 27.4794 4.12477 27.39 4.24758 27.3355C4.3727 27.2798 4.50062 27.2667 4.65446 27.2667C4.80831 27.2667 4.93623 27.2798 5.06134 27.3355C5.18416 27.39 5.29036 27.4794 5.41377 27.6028C5.64056 27.8296 5.76713 28.0893 5.76713 28.3621C5.76713 28.635 5.64056 28.8947 5.41377 29.1214C5.29036 29.2449 5.18416 29.3342 5.06134 29.3888C4.93623 29.4444 4.80831 29.4576 4.65446 29.4576C4.50062 29.4576 4.3727 29.4444 4.24758 29.3888C4.12477 29.3342 4.01857 29.2449 3.89516 29.1214C3.77175 28.998 3.68237 28.8918 3.62778 28.769C3.57218 28.6439 3.55898 28.516 3.55898 28.3621Z" fill="#FF845C" stroke="#FF845C" stroke-width="0.3"/>
<path d="M40.9969 29.8503L40.9969 29.8503L40.9953 29.8506C40.4507 29.9506 40.0073 29.6478 39.8085 29.2415C39.6094 28.8348 39.6457 28.3035 40.0719 27.9469C40.2531 27.792 40.5036 27.7112 40.7448 27.6957C40.9857 27.6803 41.2415 27.7286 41.432 27.8608L41.432 27.8608L41.4332 27.8617C41.5968 27.9778 41.7236 28.1664 41.8017 28.3627C41.8798 28.5592 41.9173 28.784 41.8807 28.9825L41.8807 28.9825L41.8803 28.9847C41.8387 29.1927 41.7169 29.3883 41.5619 29.5396C41.4067 29.6912 41.2073 29.8093 40.9969 29.8503Z" fill="#FF845C" stroke="#FF845C" stroke-width="0.3"/>
</svg>
