<svg
          xmlns="http://www.w3.org/2000/svg"
          width="19"
          height="17"
          viewBox="0 0 19 17"
          fill="none"
        >
          <path
            d="M2.73116 2.09334C1.23908 2.88513 0.0214844 3.54672 0.0214844 3.56431C0.0214844 3.58543 0.443772 3.91974 0.961074 4.31387C1.47486 4.70801 2.31239 5.34847 2.81562 5.73205C3.32236 6.11563 3.73409 6.44642 3.73409 6.4605C3.73409 6.47457 3.0338 7.1256 2.17867 7.90331C1.32002 8.68455 0.619725 9.33205 0.619725 9.34965C0.619725 9.36372 0.82383 9.49745 1.0772 9.64525C1.64729 9.98308 3.68131 11.176 4.97984 11.9362C5.51826 12.2494 5.9687 12.5098 5.97574 12.5098C6.00389 12.5098 6.19744 12.3444 6.46137 12.091C6.59861 11.9608 7.07368 11.5174 7.51709 11.1021C7.96401 10.6869 8.44964 10.2294 8.60096 10.0816C9.03732 9.66284 8.9775 9.66636 9.4033 10.0394C9.60389 10.2118 10.269 10.7889 10.8778 11.3133C11.4866 11.8411 12.018 12.3021 12.0567 12.3373C12.1271 12.4007 12.1482 12.3901 13.0772 11.7989C14.1048 11.1479 14.6397 10.8101 16.3147 9.75082C16.9165 9.37076 17.4092 9.04701 17.4127 9.03293C17.4162 9.01886 16.7159 8.40654 15.8537 7.67106L14.2878 6.33381L14.3687 6.27399C14.4532 6.20713 14.5165 6.16138 16.6772 4.57428C17.4162 4.03235 18.0215 3.57839 18.0215 3.56431C18.0215 3.55023 16.9341 2.88865 15.6074 2.08982L13.1933 0.64349L11.2684 1.92795L9.33996 3.2124L7.41151 1.93147C6.35228 1.22765 5.47251 0.650528 5.46195 0.654047C5.4514 0.654047 4.22324 1.30155 2.73116 2.09334ZM12.0567 4.97194C12.6584 5.34847 13.3904 5.80595 13.686 5.99246C13.9781 6.17545 14.2174 6.33029 14.2139 6.33381C14.2068 6.33733 13.8232 6.58367 13.3587 6.87927C12.5493 7.39657 10.9024 8.44525 9.61796 9.26519L9.00917 9.65229L7.71767 8.85346C7.00682 8.41358 5.85257 7.69921 5.15228 7.26636C4.44846 6.83352 3.87486 6.46754 3.87486 6.45698C3.87486 6.44642 4.81445 5.89041 5.96166 5.22531C7.10536 4.55669 8.33351 3.84232 8.68893 3.63821L9.33644 3.26167L10.1493 3.77545C10.5998 4.05698 11.4584 4.5954 12.0567 4.97194Z"
            fill="#1596EC"
          />
          <path
            d="M8.43253 10.8282C6.87358 12.3027 6.02901 13.0874 5.9903 13.1015C5.9727 13.105 5.42725 12.8024 4.77622 12.4223C4.1252 12.0458 3.57622 11.7361 3.55511 11.7361C3.53751 11.7361 3.52344 12.0317 3.52344 12.4645V13.1965L3.8859 13.4323C4.47358 13.8159 7.13399 15.5472 8.10526 16.1842L9.01317 16.7754L11.758 15.0053L14.4994 13.2317L14.5029 12.3766C14.5029 11.9085 14.4959 11.525 14.4888 11.525C14.4818 11.525 13.9469 11.8557 13.3064 12.2604L12.1346 12.9959L11.7616 12.6722C9.81904 10.9865 9.01669 10.2933 9.00613 10.2968C8.9991 10.2968 8.74221 10.5361 8.43253 10.8282Z"
            fill="#1596EC"
          />
        </svg>