<svg xmlns="http://www.w3.org/2000/svg" width="17" height="19" viewBox="0 0 17 19" fill="none">
<path d="M1.5957 4.79004H3.1986H16.0218" stroke="#26212E" stroke-width="1.5" stroke-linecap="round" stroke-linejoin="round"/>
<path d="M14.4175 4.78984V15.9898C14.4175 16.4142 14.2487 16.8212 13.9481 17.1212C13.6475 17.4213 13.2397 17.5898 12.8146 17.5898H4.80016C4.37505 17.5898 3.96734 17.4213 3.66674 17.1212C3.36614 16.8212 3.19727 16.4142 3.19727 15.9898V4.78984M5.60161 4.78984V3.18984C5.60161 2.7655 5.77048 2.35853 6.07109 2.05847C6.37169 1.75841 6.77939 1.58984 7.2045 1.58984H10.4103C10.8354 1.58984 11.2431 1.75841 11.5437 2.05847C11.8443 2.35853 12.0132 2.7655 12.0132 3.18984V4.78984" stroke="#26212E" stroke-width="1.5" stroke-linecap="round" stroke-linejoin="round"/>
<path d="M7.20508 8.79004V13.59" stroke="#26212E" stroke-width="1.5" stroke-linecap="round" stroke-linejoin="round"/>
<path d="M10.4121 8.79004V13.59" stroke="#26212E" stroke-width="1.5" stroke-linecap="round" stroke-linejoin="round"/>
</svg>