<svg width="45" height="41" viewBox="0 0 45 41" fill="none" xmlns="http://www.w3.org/2000/svg">
<path d="M6.71602 24.3232L6.86201 24.2887C6.94096 24.6231 6.97069 24.8883 6.92467 25.1076C6.87621 25.3384 6.74796 25.5013 6.55489 25.637L6.55363 25.6379C6.20554 25.8772 5.75294 25.8571 5.43387 25.5617C5.33998 25.4796 5.2651 25.3438 5.20088 25.1833C5.13413 25.0165 5.07113 24.8026 5.01126 24.5463C4.89143 24.0332 4.78071 23.3351 4.67966 22.4716L4.67961 22.4711C4.5222 21.0914 4.6143 18.2916 4.86426 16.912C5.62094 12.695 7.46776 9.14904 10.4946 6.12216C12.1641 4.45273 13.6245 3.39893 15.6542 2.36562L15.6544 2.36552C17.5462 1.40579 19.9358 0.648655 21.815 0.417229L21.8155 0.417171C22.2722 0.362358 22.7384 0.298378 22.8658 0.280182C22.941 0.26944 23.1817 0.260262 23.4948 0.25238C23.8141 0.244343 24.2225 0.237461 24.6444 0.232872L24.6451 0.232868C27.5512 0.214417 30.0729 0.713066 32.7035 1.83916L32.7037 1.83923C38.3349 4.25786 42.6175 9.21442 44.2053 15.1407L44.2053 15.1409C45.0271 18.225 45.0733 21.9702 44.3252 25.0458L44.3252 25.046C42.8945 30.8886 38.9349 35.8084 33.535 38.4392C31.6166 39.3799 29.9442 39.916 27.9409 40.2391C27.3157 40.3402 26.8366 40.3922 26.4831 40.3922C26.3062 40.3922 26.1553 40.3792 26.0306 40.3506C25.9066 40.3221 25.7984 40.2758 25.7175 40.2016L25.8188 40.0911L25.7186 40.2027C25.4975 40.0042 25.4104 39.698 25.4286 39.4215C25.4468 39.1466 25.5729 38.8597 25.8305 38.7219L25.8305 38.7218L25.8342 38.72C25.8766 38.6988 25.9365 38.6801 25.9986 38.6637C26.064 38.6463 26.143 38.6284 26.2301 38.6109C26.4045 38.5758 26.6162 38.5409 26.8251 38.513L26.8267 38.5129C30.6165 38.0494 34.0421 36.4867 36.9147 33.914L36.9149 33.9139C39.8949 31.2519 41.9038 27.6988 42.7223 23.6339L42.7223 23.6336C42.8617 22.9503 42.9485 21.8819 42.9736 20.7958C42.9987 19.7101 42.9619 18.62 42.8582 17.8944C42.0855 12.577 39.1868 8.00639 34.715 5.05244C31.753 3.09899 28.346 2.08125 24.7377 2.08125C22.0825 2.08125 19.904 2.52613 17.4953 3.57141L17.4952 3.57144C10.8065 6.47048 6.45373 13.0774 6.45373 20.3469C6.45373 21.639 6.61786 23.2488 6.86205 24.2889L6.71602 24.3232ZM6.71602 24.3232C6.46865 23.2696 6.30373 21.6479 6.30373 20.3469C6.30373 13.0173 10.6923 6.35649 17.4356 3.43382L5.01189 16.9386C4.76451 18.3038 4.67289 21.089 4.82865 22.4541C5.03021 24.1766 5.26842 25.2211 5.53412 25.4501C5.79982 25.6975 6.17546 25.7158 6.46865 25.5143C6.80764 25.276 6.87177 24.9829 6.71602 24.3232Z" fill="#806BFF" stroke="#806BFF" stroke-width="0.3"/>
<path d="M23.8363 6.22824V6.1643L23.8824 6.12003L24.1096 5.90196C24.2773 5.72985 24.486 5.63873 24.7069 5.63732C24.9271 5.6359 25.1461 5.72352 25.3379 5.8842L25.3391 5.8853L25.5957 6.10518L25.6478 6.14985L25.6481 6.21847L25.6755 13.0808L25.6755 13.081L25.6937 19.8525L30.1233 22.6943C31.3607 23.4871 32.4951 24.2251 33.3262 24.7753C33.7416 25.0504 34.0818 25.2789 34.3213 25.444C34.4409 25.5265 34.5364 25.5938 34.6039 25.6435C34.6374 25.6682 34.6655 25.6897 34.6866 25.707C34.6971 25.7155 34.7074 25.7244 34.7165 25.733L34.7171 25.7335C34.7225 25.7387 34.7411 25.7563 34.7545 25.7804L34.7546 25.7804L34.7566 25.7843C34.9154 26.0909 34.8834 26.4398 34.734 26.7093C34.5844 26.9791 34.3076 27.1852 33.9638 27.1852C33.9066 27.1852 33.8433 27.1657 33.7828 27.1422C33.7177 27.117 33.6375 27.0796 33.5405 27.0297C33.3462 26.9296 33.0733 26.7735 32.6986 26.5474C31.9487 26.095 30.7812 25.3563 28.9993 24.2112L28.9992 24.2111C27.7392 23.4001 26.5638 22.6371 25.6861 22.062C25.2473 21.7744 24.8827 21.5336 24.619 21.3571C24.4872 21.2689 24.3802 21.1965 24.3016 21.1423C24.2268 21.0906 24.1695 21.0499 24.1446 21.0283L24.1446 21.0284L24.1408 21.0249L23.8843 20.7866L23.8363 20.7421V20.6767V13.4571V6.22824Z" fill="#806BFF" stroke="#806BFF" stroke-width="0.3"/>
<path d="M0.728954 36.091L0.729025 36.091C0.611156 36.4151 0.555078 36.8187 0.555078 37.2784V37.2795L0.555083 37.2795C0.564691 38.4997 1.22882 39.5754 2.33866 40.1593L2.79604 40.4063L2.82921 40.4242L2.8669 40.4243L12.9634 40.4518L12.9636 40.4518C17.9101 40.461 20.4361 40.4656 21.7857 40.4449C23.1296 40.4244 23.3277 40.3796 23.5986 40.2774C25.1773 39.69 26.0386 37.9226 25.5497 36.2737L25.5495 36.273C25.5398 36.2409 25.5194 36.1974 25.4972 36.1528C25.473 36.1044 25.4406 36.0431 25.4008 35.9701C25.3211 35.8241 25.2098 35.6278 25.0718 35.3891C24.7955 34.9115 24.4102 34.2609 23.9516 33.4955C23.0344 31.9646 21.8227 29.9725 20.6011 27.9829C19.3795 25.9933 18.1478 24.0058 17.1904 22.484C16.7117 21.7232 16.3014 21.0783 15.995 20.6076C15.8419 20.3724 15.7143 20.1799 15.617 20.038C15.5238 19.9022 15.4498 19.7998 15.4075 19.7566L0.728954 36.091ZM0.728954 36.091L0.730723 36.0866M0.728954 36.091L0.730723 36.0866M0.730723 36.0866C0.739905 36.0636 0.758664 36.0281 0.779645 35.9898C0.802501 35.9481 0.833442 35.8934 0.871695 35.8268C0.948276 35.6937 1.0555 35.5109 1.18888 35.2859C1.45572 34.8358 1.82828 34.2149 2.27206 33.4796C3.15968 32.0091 4.33285 30.0803 5.51656 28.1435C6.70026 26.2067 7.89463 24.2618 8.82463 22.7592C9.75001 21.2641 10.4204 20.1956 10.553 20.0192M0.730723 36.0866L10.553 20.0192M12.0018 21.0158L12.1124 21.1172C12.1136 21.1159 12.113 21.1166 12.1103 21.1205C12.1063 21.1261 12.0975 21.1383 12.0826 21.1604C12.0609 21.1923 12.0311 21.2373 11.9935 21.295C11.9183 21.4103 11.8132 21.5741 11.6815 21.7814C11.4181 22.1958 11.049 22.7824 10.6012 23.4981C9.70585 24.9293 8.49664 26.876 7.19119 28.9922C7.19118 28.9922 7.19118 28.9922 7.19118 28.9922L2.46759 36.6521V37.2142C2.46759 37.4762 2.47743 37.6171 2.50882 37.7275C2.53871 37.8326 2.591 37.9197 2.70285 38.0673L2.70288 38.0674C2.73687 38.1123 2.76387 38.1504 2.7872 38.1833C2.8598 38.2859 2.89691 38.3383 2.9987 38.3884C3.14391 38.4599 3.41526 38.5153 4.03832 38.551C5.13952 38.614 7.25551 38.6136 11.4992 38.6128C12.0135 38.6127 12.5591 38.6126 13.1379 38.6126H22.7817L23.1407 38.4039C23.5955 38.1393 23.8754 37.5909 23.8184 37.0939L23.9674 37.0768L23.8184 37.0943C23.8165 37.0778 23.8058 37.0362 23.7712 36.9547C23.738 36.8763 23.6871 36.7709 23.6135 36.6305C23.4665 36.35 23.2333 35.9386 22.8808 35.3412C22.1762 34.147 20.9996 32.2173 19.0938 29.1203L19.0937 29.1202C16.5179 24.9278 14.3296 21.39 14.2158 21.2217C14.1762 21.1683 14.1013 21.0941 14.0074 21.0205C13.9132 20.9466 13.8097 20.8811 13.7195 20.8419L13.7176 20.841C13.1206 20.5719 12.5216 20.6834 12.1109 21.1187L12.0018 21.0158ZM12.0018 21.0158C11.9011 21.1257 9.67469 24.6806 7.06351 28.9134M12.0018 21.0158L7.06351 28.9134M7.06351 28.9134L2.31759 36.6095V37.2142L7.06351 28.9134ZM10.553 20.0192C10.8599 19.6037 11.4472 19.2137 12.0519 18.9964M10.553 20.0192L15.4073 19.7564C15.0034 19.3428 14.4376 19.056 13.8412 18.9203C13.2446 18.7846 12.6056 18.7973 12.0519 18.9964M12.0519 18.9964C12.0519 18.9964 12.0519 18.9964 12.0519 18.9964L12.1026 19.1376L12.0519 18.9964Z" fill="#806BFF" stroke="#806BFF" stroke-width="0.3"/>
<path d="M12.9861 33.1116L12.9861 33.1116L12.9849 33.1114C12.9755 33.1098 12.9661 33.1083 12.9566 33.1068C12.8859 33.0952 12.8152 33.0837 12.7521 33.0677C12.6785 33.0491 12.6039 33.0219 12.5361 32.9728C12.3949 32.8706 12.3237 32.7043 12.281 32.464C12.238 32.2225 12.2182 31.8723 12.2087 31.3621C12.1996 30.8776 12.1996 30.2399 12.1996 29.4C12.1996 29.3516 12.1996 29.3025 12.1996 29.2528V29.2392C12.1996 27.6433 12.1996 26.8251 12.2251 26.3811C12.2377 26.1598 12.2572 26.0164 12.2925 25.9117C12.3313 25.7965 12.3871 25.7349 12.4421 25.6774C12.6006 25.5077 12.84 25.4275 13.0707 25.4197C13.3023 25.4119 13.5505 25.476 13.7355 25.6268L13.9545 25.8002L14.0107 25.8447L14.0113 25.9165L14.0388 29.1874L14.0663 32.449L14.0668 32.5119L14.0224 32.5564L13.7384 32.8404L13.7384 32.8404L13.7363 32.8424C13.6145 32.9597 13.5118 33.0502 13.3908 33.0957C13.2641 33.1435 13.1371 33.1352 12.9861 33.1116Z" fill="#806BFF" stroke="#806BFF" stroke-width="0.3"/>
<path d="M12.4236 34.6944L12.4236 34.6944L12.4256 34.6919C12.5771 34.5054 12.8129 34.4097 13.0481 34.3951C13.2842 34.3805 13.5375 34.4462 13.7352 34.6052C13.84 34.6891 13.9188 34.776 13.9631 34.9151C14.0031 35.041 14.0113 35.2006 14.0113 35.4187C14.0113 35.6368 14.0031 35.7964 13.9631 35.9223C13.9188 36.0613 13.84 36.1483 13.7352 36.2321L13.7352 36.2321L13.7341 36.2329C13.5748 36.3581 13.3114 36.4391 13.0826 36.4391C12.8122 36.4391 12.5838 36.3447 12.4259 36.1564C12.2712 35.9719 12.1996 35.7156 12.1996 35.4187C12.1996 35.1366 12.2705 34.8912 12.4236 34.6944Z" fill="#806BFF" stroke="#806BFF" stroke-width="0.3"/>
</svg>
