 <svg
          xmlns="http://www.w3.org/2000/svg"
          width="24"
          height="20"
          viewBox="0 0 24 20"
          fill="none"
        >
          <path
            d="M16.0703 13.8506L12.0703 9.85059L8.07031 13.8506"
            stroke="#9F9F9F"
            strokeLinecap="round"
            strokeLinejoin="round"
          />
          <path
            d="M12.0703 9.85059V18.8506"
            stroke="#9F9F9F"
            strokeLinecap="round"
            strokeLinejoin="round"
          />
          <path
            d="M20.4598 16.2411C21.4351 15.7093 22.2056 14.8679 22.6497 13.8497C23.0937 12.8314 23.186 11.6943 22.912 10.6177C22.638 9.54121 22.0133 8.58657 21.1365 7.9045C20.2596 7.22244 19.1806 6.85179 18.0698 6.85106H16.8098C16.5071 5.6803 15.9429 4.59339 15.1597 3.67205C14.3765 2.75071 13.3946 2.01891 12.2879 1.53167C11.1811 1.04442 9.97833 0.814417 8.7699 0.858941C7.56147 0.903464 6.37885 1.22136 5.31096 1.78872C4.24307 2.35609 3.3177 3.15816 2.60441 4.13464C1.89112 5.11112 1.40847 6.23659 1.19276 7.42645C0.977054 8.61631 1.03389 9.83959 1.359 11.0043C1.68411 12.169 2.26903 13.2449 3.06979 14.1511"
            stroke="#9F9F9F"
            strokeLinecap="round"
            strokeLinejoin="round"
          />
          <path
            d="M16.0703 13.8506L12.0703 9.85059L8.07031 13.8506"
            stroke="#9F9F9F"
            strokeLinecap="round"
            strokeLinejoin="round"
          />
        </svg>