<svg
                  xmlns="http://www.w3.org/2000/svg"
                  width="18"
                  height="18"
                  viewBox="0 0 18 18"
                  fill="none"
                >
                  <path
                    d="M15.267 1.20996H2.80217C1.81872 1.20996 1.02148 2.0059 1.02148 2.98774V15.4322C1.02148 16.414 1.81872 17.21 2.80217 17.21H15.267C16.2504 17.21 17.0476 16.414 17.0476 15.4322V2.98774C17.0476 2.0059 16.2504 1.20996 15.267 1.20996Z"
                    stroke="#E1DCFF"
                    strokeWidth="1.5"
                    strokeLinecap="round"
                    strokeLinejoin="round"
                  />
                  <path
                    d="M5.91754 7.43229C6.65513 7.43229 7.25306 6.83534 7.25306 6.09896C7.25306 5.36258 6.65513 4.76562 5.91754 4.76562C5.17996 4.76562 4.58203 5.36258 4.58203 6.09896C4.58203 6.83534 5.17996 7.43229 5.91754 7.43229Z"
                    stroke="#E1DCFF"
                    strokeWidth="1.5"
                    strokeLinecap="round"
                    strokeLinejoin="round"
                  />
                  <path
                    d="M17.0463 11.8771L12.5945 7.43262L2.80078 17.2104"
                    stroke="#E1DCFF"
                    strokeWidth="1.5"
                    strokeLinecap="round"
                    strokeLinejoin="round"
                  />
                </svg>