  <svg
              xmlns="http://www.w3.org/2000/svg"
              width="19"
              height="18"
              viewBox="0 0 19 18"
              fill="none"
            >
              <path
                d="M4.90527 6.71012V1.11035H14.5049V6.71012"
                stroke="#260B6A"
                strokeWidth="1.5"
                strokeLinecap="round"
                strokeLinejoin="round"
              />
              <path
                d="M4.90592 13.9097H3.30599C2.88166 13.9097 2.47471 13.7411 2.17466 13.4411C1.87462 13.141 1.70605 12.7341 1.70605 12.3097V8.30989C1.70605 7.88557 1.87462 7.47862 2.17466 7.17857C2.47471 6.87853 2.88166 6.70996 3.30599 6.70996H16.1055C16.5298 6.70996 16.9367 6.87853 17.2368 7.17857C17.5368 7.47862 17.7054 7.88557 17.7054 8.30989V12.3097C17.7054 12.7341 17.5368 13.141 17.2368 13.4411C16.9367 13.7411 16.5298 13.9097 16.1055 13.9097H14.5055"
                stroke="#260B6A"
                strokeWidth="1.5"
                strokeLinecap="round"
                strokeLinejoin="round"
              />
              <path
                d="M14.5049 10.71H4.90527V17.1097H14.5049V10.71Z"
                stroke="#260B6A"
                strokeWidth="1.5"
                strokeLinecap="round"
                strokeLinejoin="round"
              />
            </svg>