<svg width="45" height="42" viewBox="0 0 45 42" fill="none" xmlns="http://www.w3.org/2000/svg">
<path d="M2.66577 0.861111C2.69121 0.855923 2.74523 0.852783 2.81241 0.849976C2.88501 0.846939 2.98492 0.844009 3.11037 0.841183C3.36141 0.835526 3.71656 0.830231 4.16399 0.825336C5.05893 0.815544 6.32421 0.807331 7.86656 0.801014C10.9513 0.788383 15.1451 0.783333 19.7025 0.788383L36.2746 0.798489L36.2982 0.798504L36.3193 0.809048L36.8043 1.05156C37.0791 1.18897 37.4634 1.4903 37.6639 1.72236L37.664 1.72256C37.6811 1.74246 37.6979 1.76184 37.7144 1.78088C37.858 1.94654 37.9787 2.0858 38.0691 2.30859C38.1687 2.55423 38.2303 2.89642 38.2703 3.49002C38.3454 4.60843 38.3453 6.66012 38.345 10.7353C38.345 10.9885 38.345 11.2496 38.345 11.5188V19.7779L39.0029 20.1632L39.0029 20.1632C41.5914 21.6817 43.5076 24.1276 44.3434 27.0121C45.9131 32.4145 43.3749 38.1829 38.3305 40.7306L38.3305 40.7306C35.0159 42.4032 30.6759 42.2804 27.3836 40.4253L27.4183 40.3637L27.3836 40.4253C26.0982 39.701 24.5307 38.3068 23.7133 37.1522L23.7131 37.1519L23.4095 36.7195H13.2352C12.7606 36.7195 12.3067 36.7196 11.8725 36.7196C7.12324 36.7202 4.73661 36.7205 3.45551 36.6474C2.75769 36.6075 2.37549 36.5456 2.11505 36.4441C1.89113 36.3569 1.75917 36.2402 1.60537 36.1041C1.57769 36.0797 1.54929 36.0545 1.51952 36.0289C1.26883 35.8198 0.96735 35.4569 0.839004 35.2112C0.838912 35.211 0.83882 35.2108 0.838729 35.2107L0.616962 34.7974L0.605078 34.7752V34.7501V18.7337V2.71738V2.6917L0.617457 2.66919L0.839258 2.26593C0.839345 2.26577 0.839432 2.2656 0.839519 2.26544C1.22609 1.54488 1.91647 1.00905 2.66577 0.861111ZM2.66577 0.861111C2.6656 0.861145 2.66543 0.861187 2.66525 0.861221L2.68565 0.959118L2.6663 0.861008C2.66613 0.861042 2.66595 0.861076 2.66577 0.861111ZM22.7355 24.9741L22.7354 24.9743C21.7881 26.8689 21.4207 28.5834 21.5123 30.7121M22.7355 24.9741L21.6122 30.7081M22.7355 24.9741C24.2343 21.9969 26.9458 19.8266 30.3067 18.9303L22.7355 24.9741ZM21.5123 30.7121C21.5123 30.7122 21.5123 30.7123 21.5123 30.7124L21.6122 30.7081M21.5123 30.7121C21.5123 30.7121 21.5123 30.7121 21.5123 30.7121L21.6122 30.7081M21.5123 30.7121C21.5733 32.2571 21.767 33.2384 22.2265 34.4127L22.2268 34.4136L22.505 35.1048M21.6122 30.7081C21.6729 32.2441 21.8649 33.2141 22.3196 34.3762L22.6128 35.1048H22.505M22.505 35.1048L22.5453 35.2048H12.831H3.00901M22.505 35.1048H12.831H3.03966M3.03966 35.1048L3.06504 35.122L3.00901 35.2048M3.03966 35.1048H3.00901V35.2048M3.03966 35.1048L2.72147 34.8896L2.72091 34.8892C2.6374 34.8335 2.54427 34.7527 2.46309 34.6691C2.38217 34.5857 2.31963 34.5064 2.29011 34.4527C2.29008 34.4526 2.29002 34.4525 2.28996 34.4522C2.28909 34.4495 2.28553 34.4381 2.28101 34.4121C2.27587 34.3824 2.27065 34.3412 2.26552 34.2863C2.25527 34.1769 2.24588 34.0191 2.23738 33.8036C2.22039 33.3728 2.20713 32.7165 2.19703 31.7655C2.17683 29.8639 2.16925 26.7875 2.16925 21.9875V9.84033H19.4498H36.7303V14.4998V19.1283L36.6374 19.103C36.6369 19.1028 36.6364 19.1027 36.6358 19.1025C36.4965 19.06 35.9579 18.9382 35.4367 18.828C35.4366 18.828 35.4364 18.8279 35.4363 18.8279L35.4156 18.9257C34.1222 18.6428 31.5454 18.6933 30.3328 19.0268L3.00901 35.2048M31.3491 20.3583C31.3493 20.3583 31.3494 20.3583 31.3495 20.3583L31.3332 20.2596C31.4983 20.2335 31.6708 20.2056 31.8252 20.1806C32.0298 20.1475 32.2024 20.1195 32.2831 20.108L31.3491 20.3583ZM31.3491 20.3583C31.5157 20.332 31.6889 20.304 31.8433 20.279C32.0466 20.2461 32.2173 20.2184 32.2972 20.207L32.301 20.2065L32.301 20.2064C32.4017 20.1881 32.5851 20.1802 32.8219 20.1826C33.0562 20.1849 33.3355 20.1971 33.6241 20.2166C34.2026 20.2557 34.8108 20.3236 35.1625 20.3979C38.9346 21.1983 41.9068 24.0397 42.9179 27.8337C43.2269 29.0002 43.2673 30.9345 43.0177 32.153C42.2469 35.8667 39.6353 38.7582 36.0424 39.8891C32.4827 41.009 28.5406 39.9596 25.8779 37.1869L25.8777 37.1866C24.7075 35.9764 23.9472 34.6468 23.4259 32.9026L23.4255 32.9013C23.2947 32.4838 23.2264 32.2312 23.1895 31.8812C23.1523 31.5275 23.1471 31.0735 23.1471 30.2534C23.1471 29.4334 23.1523 28.9792 23.1883 28.6278C23.2239 28.2803 23.2898 28.0326 23.4155 27.6253L23.4155 27.6252C23.9472 25.9 24.6777 24.6002 25.7978 23.4101L25.7982 23.4097C27.2794 21.8184 29.3514 20.688 31.3491 20.3583ZM36.5429 2.94142L36.5429 2.94131C36.4942 2.86171 36.411 2.76822 36.3148 2.68401C36.2185 2.59974 36.1165 2.53125 36.0339 2.4964C36.0123 2.48757 35.9566 2.47492 35.8355 2.46273C35.7178 2.45088 35.5481 2.44024 35.3069 2.43079C34.8248 2.41191 34.0632 2.39802 32.8734 2.38792C30.4942 2.36771 26.4072 2.36266 19.4296 2.36266C18.7855 2.36303 18.1662 2.36337 17.5709 2.36368C10.1004 2.36768 6.39403 2.36967 4.50878 2.42577C3.48753 2.45616 3.01187 2.5024 2.76301 2.56952C2.64255 2.60201 2.58245 2.63766 2.54003 2.67432C2.51765 2.69366 2.4979 2.71525 2.47516 2.74208C2.46894 2.74942 2.46224 2.75747 2.45512 2.76601C2.43765 2.78699 2.41768 2.81099 2.39613 2.83488L2.39603 2.835C2.35441 2.881 2.32661 2.91973 2.30376 2.98879C2.27927 3.06281 2.25974 3.17421 2.24473 3.36681C2.21474 3.75167 2.20463 4.42938 2.18945 5.70964L2.16026 8.32668H19.4498H36.7303V5.8196C36.7303 4.60514 36.7277 3.95521 36.7015 3.56919C36.6884 3.37674 36.6697 3.25541 36.6445 3.16509C36.6199 3.07705 36.5881 3.01502 36.5429 2.94142Z" fill="#806BFF" stroke="#806BFF" stroke-width="0.2"/>
<path d="M8.34342 3.365L8.34391 3.36477C8.66684 3.21407 9.07445 3.16264 9.46999 3.19789C9.86554 3.23314 10.2601 3.35604 10.5559 3.56574C11.1689 3.9991 11.4874 4.61587 11.4874 5.38543C11.4874 6.03525 11.2643 6.59433 10.8752 6.99137C10.486 7.38858 9.9366 7.61758 9.29565 7.61758C8.92435 7.61758 8.62886 7.57383 8.3641 7.45901C8.09897 7.34403 7.87304 7.16143 7.63491 6.89742L7.63477 6.89726C6.60992 5.75619 6.95913 4.02016 8.34342 3.365ZM9.08745 5.98875L9.08745 5.98874L9.08852 5.98915C9.40433 6.10864 9.68482 5.94694 9.82127 5.69082C9.95786 5.43444 9.9346 5.11298 9.6627 4.92168C9.36631 4.71521 9.02435 4.7574 8.82934 5.01176L8.82935 5.01177L8.82824 5.01317C8.66627 5.21679 8.62417 5.41978 8.66849 5.58573C8.71267 5.75112 8.84847 5.90143 9.08745 5.98875Z" fill="#806BFF" stroke="#806BFF" stroke-width="0.2"/>
<path d="M18.4234 3.43634L18.4239 3.4361C19.3731 2.96151 20.4228 3.16194 21.1103 3.94442C22.0618 5.02289 21.7665 6.70519 20.5067 7.38276L20.5067 7.38276L20.5059 7.38318C20.3098 7.48636 20.1579 7.54973 19.979 7.58136C19.8027 7.61257 19.6058 7.61184 19.3224 7.59666C18.895 7.57578 18.5268 7.47374 18.2155 7.28266C17.9038 7.09139 17.6549 6.81443 17.4609 6.45271L17.4609 6.45272L17.4601 6.45113C17.3622 6.26049 17.2992 6.10905 17.2663 5.93099C17.2338 5.75468 17.2319 5.55801 17.2471 5.27836L17.2471 5.27793C17.2731 4.83685 17.3722 4.47284 17.5658 4.16905C17.7596 3.86491 18.0428 3.62924 18.4234 3.43634ZM19.8556 4.98311L19.8554 4.98297C19.4483 4.60236 18.8414 4.86437 18.8414 5.38485C18.8414 5.6786 19.0023 5.8899 19.2091 5.97886C19.4154 6.06755 19.6748 6.03798 19.8833 5.82949C20.1147 5.5981 20.1086 5.21871 19.8556 4.98311Z" fill="#806BFF" stroke="#806BFF" stroke-width="0.2"/>
<path d="M30.0408 5.01409L30.0407 5.01429L30.0356 5.00886C29.98 4.94896 29.8997 4.89252 29.8158 4.85114C29.7303 4.80895 29.6527 4.78819 29.6036 4.78819C29.484 4.78819 29.318 4.87203 29.1751 5.00414C29.1058 5.0682 29.047 5.13914 29.0062 5.20809C28.9646 5.27828 28.9458 5.33931 28.9458 5.38543C28.9458 5.5084 29.0305 5.66855 29.1694 5.8039C29.3079 5.93882 29.4736 6.02309 29.6036 6.02309C29.7336 6.02309 29.8994 5.93882 30.0378 5.8039C30.1767 5.66855 30.2615 5.5084 30.2615 5.38543C30.2615 5.35596 30.244 5.29602 30.2011 5.21973C30.1601 5.14687 30.1032 5.07196 30.0408 5.01409ZM27.4765 6.04975C27.1395 4.89107 27.779 3.60939 28.8877 3.27877C30.5952 2.76246 32.1853 4.21878 31.7724 5.93419C31.5288 6.95079 30.6588 7.61758 29.6036 7.61758C28.581 7.61758 27.7521 7.0141 27.4765 6.04975Z" fill="#806BFF" stroke="#806BFF" stroke-width="0.2"/>
<path d="M5.97506 13.9276L5.97509 13.9276C5.92138 13.9873 5.87807 14.0508 5.84663 14.1593C5.81684 14.2622 5.7981 14.4041 5.78538 14.6202C5.7599 15.0534 5.75742 15.8151 5.75742 17.2281C5.75742 18.6061 5.76243 19.3675 5.78791 19.8044C5.81301 20.2349 5.85782 20.3812 5.9686 20.492C6.07891 20.6023 6.22966 20.6475 6.64242 20.6764C7.0616 20.7057 7.78257 20.7183 9.06957 20.7335M5.97506 13.9276L9.06962 20.7335C9.0696 20.7335 9.06959 20.7335 9.06957 20.7335M5.97506 13.9276L5.97692 13.9256C6.02919 13.8706 6.083 13.8192 6.18494 13.7821C6.27975 13.7476 6.4121 13.7268 6.61995 13.7128C7.03728 13.6848 7.79967 13.6823 9.2729 13.6823C10.6158 13.6823 11.3843 13.6873 11.8373 13.7115C12.0633 13.7236 12.2164 13.7406 12.3251 13.7659C12.4359 13.7917 12.507 13.8274 12.5637 13.8801C12.6203 13.9303 12.6632 13.9896 12.6934 14.0948C12.7218 14.1938 12.7395 14.3355 12.7516 14.5523C12.7758 14.9878 12.7783 15.7594 12.7783 17.1776V17.2029C12.7783 18.8275 12.7783 19.656 12.7101 20.0919C12.6757 20.3118 12.6212 20.4554 12.5204 20.549C12.4258 20.6369 12.3024 20.667 12.1799 20.697C12.1754 20.6981 12.171 20.6992 12.1665 20.7003L12.1427 20.6032L12.167 20.7002C12.1413 20.7066 12.0966 20.7105 12.0466 20.7138C11.9926 20.7173 11.9213 20.7205 11.8352 20.7235C11.6629 20.7293 11.4287 20.7341 11.1498 20.7372C10.5919 20.7436 9.85341 20.7436 9.06957 20.7335M5.97506 13.9276L9.06957 20.7335M9.24258 19.139H11.1636V17.218V15.297H9.24258H7.32159V17.218V19.139H9.24258Z" fill="#806BFF" stroke="#806BFF" stroke-width="0.2"/>
<path d="M16.159 20.4859L16.159 20.4859L16.157 20.484C16.102 20.4318 16.0506 20.378 16.0135 20.2762C15.979 20.1815 15.9582 20.0495 15.9442 19.8423C15.9161 19.4262 15.9137 18.6663 15.9137 17.1981C15.9137 15.7601 15.9161 15.0005 15.9429 14.5772C15.9563 14.3662 15.976 14.2298 16.0082 14.1317C16.0425 14.0269 16.09 13.9691 16.1451 13.9141C16.2001 13.859 16.258 13.8115 16.3631 13.7771C16.4615 13.745 16.5985 13.7253 16.8107 13.7119C17.2366 13.6851 18.0012 13.6827 19.4494 13.6827C20.8975 13.6827 21.6621 13.6851 22.088 13.7119C22.3002 13.7253 22.4372 13.745 22.5356 13.7771C22.6407 13.8115 22.6986 13.859 22.7537 13.9141C22.8086 13.969 22.8561 14.0268 22.8905 14.1309C22.9227 14.2283 22.9424 14.3635 22.9558 14.572C22.9826 14.9904 22.985 15.7399 22.985 17.1577C22.985 18.5404 22.9826 19.2895 22.9571 19.7202C22.9444 19.9353 22.9256 20.0779 22.8961 20.1831C22.8653 20.2928 22.8232 20.3597 22.771 20.4237L22.5795 20.6656L22.5494 20.7035H22.5011H19.4696C18.0515 20.7035 17.2873 20.701 16.8528 20.6756C16.6361 20.6628 16.4939 20.6441 16.3909 20.6143C16.2822 20.5829 16.2187 20.5396 16.159 20.4859ZM19.4494 19.1393H21.3703V17.2184V15.2974H19.4494H17.5284V17.2184V19.1393H19.4494Z" fill="#806BFF" stroke="#806BFF" stroke-width="0.2"/>
<path d="M26.1207 16.7935C26.1207 15.6377 26.1257 14.9672 26.1499 14.5656C26.1736 14.1733 26.2155 14.0075 26.3185 13.8968C26.3687 13.8403 26.4279 13.7974 26.5326 13.7671C26.6312 13.7387 26.7719 13.7209 26.9869 13.7089C27.4186 13.6847 28.1827 13.6822 29.5857 13.6822C30.9285 13.6822 31.6971 13.6872 32.1501 13.7114C32.376 13.7235 32.5292 13.7405 32.6379 13.7658C32.7485 13.7915 32.8197 13.8273 32.8763 13.8799C32.9267 13.9242 32.9682 13.9763 32.9991 14.0568C33.0287 14.1337 33.0474 14.2335 33.0603 14.3716C33.0861 14.6477 33.091 15.1079 33.091 15.9144C33.091 16.4118 33.0885 16.7947 33.0755 17.0886C33.0625 17.3807 33.0389 17.5932 32.9934 17.7454C32.9467 17.9016 32.8731 18.0072 32.7539 18.066C32.644 18.1201 32.5091 18.1263 32.3645 18.1263C32.2111 18.1263 32.0751 18.1154 31.9626 18.0681C31.8434 18.018 31.7589 17.931 31.7019 17.7996C31.6471 17.6735 31.6171 17.5056 31.5998 17.2882C31.5824 17.0693 31.5774 16.7912 31.5774 16.4398V15.2969H29.6059H27.6343V17.3088V17.3235C27.6343 18.3512 27.6343 18.8849 27.6061 19.179C27.5919 19.3265 27.5697 19.4276 27.5285 19.5037C27.4853 19.5833 27.4263 19.6255 27.3702 19.6639C27.2998 19.7162 27.2104 19.7603 27.1253 19.7913C27.0407 19.8222 26.9498 19.8441 26.8775 19.8441C26.8052 19.8441 26.7143 19.8222 26.6298 19.7913C26.5447 19.7603 26.4552 19.7162 26.3849 19.6639C26.3281 19.6251 26.2675 19.5822 26.2244 19.4928C26.1845 19.4098 26.1628 19.2942 26.1488 19.1167C26.1207 18.7603 26.1207 18.0984 26.1207 16.8061V16.7935Z" fill="#806BFF" stroke="#806BFF" stroke-width="0.2"/>
<path d="M5.97506 24.8407L5.97509 24.8407C5.92138 24.9004 5.87807 24.9639 5.84663 25.0724C5.81684 25.1752 5.7981 25.3172 5.78538 25.5333C5.7599 25.9665 5.75742 26.7282 5.75742 28.1412C5.75742 29.5192 5.76243 30.2806 5.78791 30.7175C5.81301 31.148 5.85782 31.2943 5.9686 31.4051C6.07891 31.5154 6.22966 31.5606 6.64242 31.5895C7.0616 31.6188 7.78257 31.6314 9.06957 31.6465M5.97506 24.8407L9.06962 31.6465C9.0696 31.6465 9.06959 31.6465 9.06957 31.6465M5.97506 24.8407L5.97692 24.8387C6.02919 24.7837 6.083 24.7323 6.18494 24.6952C6.27975 24.6607 6.4121 24.6399 6.61995 24.6259C7.03728 24.5979 7.79967 24.5954 9.2729 24.5954C10.6158 24.5954 11.3843 24.6004 11.8373 24.6246C12.0633 24.6366 12.2164 24.6537 12.3251 24.679C12.4359 24.7047 12.507 24.7405 12.5637 24.7932C12.6203 24.8434 12.6632 24.9027 12.6934 25.0079C12.7218 25.1069 12.7395 25.2485 12.7516 25.4654C12.7758 25.9009 12.7783 26.6725 12.7783 28.0907V28.116C12.7783 29.7405 12.7783 30.5691 12.7101 31.005C12.6757 31.2249 12.6212 31.3685 12.5204 31.4621C12.4258 31.5499 12.3024 31.5801 12.1799 31.6101C12.1754 31.6112 12.171 31.6123 12.1665 31.6134L12.1427 31.5163L12.167 31.6133C12.1413 31.6197 12.0966 31.6236 12.0466 31.6269C11.9926 31.6304 11.9213 31.6336 11.8352 31.6365C11.6629 31.6424 11.4287 31.6472 11.1498 31.6503C10.5919 31.6567 9.85341 31.6567 9.06957 31.6465M5.97506 24.8407L9.06957 31.6465M9.24258 30.0521H11.1636V28.1311V26.2101H9.24258H7.32159V28.1311V30.0521H9.24258Z" fill="#806BFF" stroke="#806BFF" stroke-width="0.2"/>
<path d="M15.9527 31.2323L15.9137 31.2023V31.1531V28.1216C15.9137 26.6785 15.9161 25.9164 15.9429 25.4918C15.9563 25.2802 15.976 25.1435 16.0082 25.0453C16.0425 24.9403 16.09 24.8825 16.1451 24.8274C16.1995 24.773 16.2567 24.7257 16.3557 24.6911C16.4489 24.6586 16.5751 24.6387 16.7658 24.6253C17.1479 24.5985 17.8245 24.596 19.0957 24.596C20.3668 24.596 21.0434 24.5985 21.4256 24.6253C21.6163 24.6387 21.7425 24.6586 21.8357 24.6911C21.9347 24.7257 21.9919 24.773 22.0463 24.8274C22.2016 24.9826 22.2766 25.1765 22.2662 25.3757C22.2559 25.5735 22.162 25.7676 21.996 25.9286L21.9927 25.932C21.9354 25.9918 21.88 26.0495 21.7982 26.0926C21.7143 26.1368 21.6102 26.1623 21.4569 26.1786C21.1548 26.2107 20.6181 26.2107 19.5665 26.2107H19.5504H17.5284V28.1317V30.0527H19.0957C19.8613 30.0527 20.2897 30.0576 20.5491 30.0861C20.6797 30.1005 20.7749 30.1215 20.8518 30.1546C20.9313 30.1888 20.9851 30.2334 21.0358 30.2841C21.1911 30.4393 21.2661 30.6332 21.2557 30.8324C21.2454 31.0301 21.1515 31.2243 20.9855 31.3853L20.9851 31.3857C20.9263 31.4469 20.8701 31.5054 20.7875 31.5492C20.7042 31.5933 20.6015 31.6189 20.4518 31.6352C20.1571 31.6674 19.6379 31.6674 18.6268 31.6674L18.6106 31.6674C17.6431 31.6674 17.1169 31.665 16.8018 31.6367C16.6433 31.6224 16.5312 31.6012 16.4401 31.5673C16.3472 31.5328 16.2815 31.4873 16.2147 31.4339L15.9527 31.2323Z" fill="#806BFF" stroke="#806BFF" stroke-width="0.2"/>
<path d="M32.5815 22.5885L32.5815 22.5885C32.5289 22.6481 32.4935 22.7224 32.4679 22.8409C32.4429 22.9568 32.4259 23.1219 32.4139 23.3685C32.3897 23.8629 32.3847 24.707 32.3847 26.1914V29.4463H29.1501H25.8053H25.7627L25.7332 29.477L25.4913 29.7289C25.3329 29.8876 25.2346 30.0462 25.2267 30.2252C25.2188 30.4031 25.3015 30.5756 25.4431 30.7592L25.4431 30.7592L25.5224 30.6982L25.4432 30.7593L32.5815 22.5885ZM32.5815 22.5885L32.5825 22.5874C32.709 22.4482 32.9175 22.3856 33.1161 22.3829C33.3162 22.3802 33.5324 22.4374 33.6825 22.5695L33.6826 22.5696C33.7409 22.621 33.7839 22.6819 33.8139 22.7932C33.842 22.8974 33.8596 23.0494 33.8717 23.2862C33.8958 23.7619 33.8983 24.6115 33.8983 26.1813V29.4463H37.133H40.4777H40.5203L40.5498 29.477L40.7911 29.7284C40.961 29.8933 41.0627 30.0662 41.0627 30.2536C41.0627 30.441 40.961 30.6139 40.7911 30.7789L40.5498 31.0302L40.5203 31.061H40.4777H37.133H33.8983V34.3158C33.8983 35.8002 33.8933 36.6443 33.8692 37.1387C33.8571 37.3854 33.8401 37.5504 33.8151 37.6663C33.7895 37.7848 33.7541 37.8591 33.7015 37.9187L33.7015 37.9187L33.7005 37.9198C33.574 38.059 33.3655 38.1216 33.1669 38.1243C32.9668 38.1271 32.7506 38.0698 32.6005 37.9377L32.6004 37.9376C32.5422 37.8862 32.4991 37.8254 32.4691 37.714C32.441 37.6098 32.4234 37.4578 32.4113 37.221C32.3872 36.7454 32.3847 35.8958 32.3847 34.3259V31.061L32.5815 22.5885Z" fill="#806BFF" stroke="#806BFF" stroke-width="0.2"/>
</svg>
