   <svg
                xmlns="http://www.w3.org/2000/svg"
                width="22"
                height="17"
                viewBox="0 0 22 17"
                fill="none"
              >
                <path
                  d="M15.7105 7.36081H20.9551C21.0184 7.36083 21.0805 7.37891 21.1339 7.41292C21.1874 7.44693 21.2301 7.49546 21.2569 7.55285C21.2838 7.61023 21.2938 7.67408 21.2857 7.73692C21.2776 7.79976 21.2517 7.85899 21.2112 7.90767L18.5889 11.0555C18.5576 11.093 18.5184 11.1232 18.4742 11.1439C18.4299 11.1647 18.3816 11.1754 18.3328 11.1754C18.2839 11.1754 18.2356 11.1647 18.1914 11.1439C18.1471 11.1232 18.108 11.093 18.0767 11.0555L15.4544 7.90767C15.4138 7.85899 15.388 7.79976 15.3799 7.73692C15.3718 7.67408 15.3817 7.61023 15.4086 7.55285C15.4355 7.49546 15.4782 7.44693 15.5316 7.41292C15.5851 7.37891 15.6471 7.36083 15.7105 7.36081ZM1.03841 10.0285H6.28301C6.34637 10.0284 6.40841 10.0104 6.46187 9.97634C6.51533 9.94233 6.55799 9.8938 6.58487 9.83642C6.61174 9.77903 6.6217 9.71518 6.6136 9.65234C6.60549 9.5895 6.57965 9.53027 6.5391 9.48159L3.9168 6.33376C3.88551 6.29623 3.84635 6.26604 3.80209 6.24532C3.75784 6.22461 3.70957 6.21387 3.66071 6.21387C3.61184 6.21387 3.56358 6.22461 3.51932 6.24532C3.47507 6.26604 3.43591 6.29623 3.40461 6.33376L0.782315 9.48159C0.741764 9.53027 0.715923 9.5895 0.707818 9.65234C0.699713 9.71518 0.709679 9.77903 0.736551 9.83642C0.763422 9.8938 0.806085 9.94233 0.859545 9.97634C0.913005 10.0104 0.975048 10.0284 1.03841 10.0285Z"
                  fill="#260B6A"
                />
                <path
                  fillRule="evenodd"
                  clipRule="evenodd"
                  d="M10.9967 2.02521C8.92663 2.02521 7.07529 2.96823 5.85217 4.45011C5.79755 4.5209 5.72926 4.57998 5.65135 4.62385C5.57344 4.66772 5.48751 4.69547 5.39866 4.70546C5.30981 4.71545 5.21985 4.70747 5.13415 4.682C5.04844 4.65653 4.96874 4.61408 4.89976 4.55719C4.83079 4.50029 4.77396 4.43011 4.73266 4.35081C4.69136 4.27151 4.66642 4.18472 4.65933 4.09559C4.65224 4.00646 4.66315 3.91682 4.6914 3.83199C4.71966 3.74716 4.76468 3.66888 4.82379 3.60179C5.8004 2.4194 7.09608 1.54238 8.55672 1.07507C10.0174 0.60776 11.5815 0.569812 13.0631 0.965743C14.5446 1.36167 15.8813 2.17482 16.9141 3.30847C17.9469 4.44212 18.6324 5.84856 18.889 7.36051H17.5325C17.225 5.85414 16.4065 4.50026 15.2155 3.52803C14.0245 2.55579 12.5342 2.0249 10.9967 2.02521ZM4.46099 10.0282C4.7135 11.2614 5.30977 12.3981 6.18093 13.3069C7.05208 14.2156 8.16257 14.8594 9.38409 15.1638C10.6056 15.4681 11.8883 15.4207 13.084 15.0269C14.2797 14.6332 15.3396 13.9092 16.1413 12.9386C16.1959 12.8678 16.2642 12.8087 16.3421 12.7648C16.42 12.721 16.506 12.6932 16.5948 12.6832C16.6837 12.6732 16.7736 12.6812 16.8593 12.7067C16.945 12.7321 17.0247 12.7746 17.0937 12.8315C17.1627 12.8884 17.2195 12.9586 17.2608 13.0379C17.3021 13.1172 17.327 13.204 17.3341 13.2931C17.3412 13.3822 17.3303 13.4719 17.3021 13.5567C17.2738 13.6415 17.2288 13.7198 17.1697 13.7869C16.1931 14.9693 14.8974 15.8463 13.4367 16.3136C11.9761 16.7809 10.412 16.8189 8.9304 16.4229C7.44882 16.027 6.11214 15.2139 5.07934 14.0802C4.04654 12.9466 3.36108 11.5401 3.10449 10.0282H4.46099Z"
                  fill="#260B6A"
                />
              </svg>