<svg width="41" height="45" viewBox="0 0 41 45" fill="none" xmlns="http://www.w3.org/2000/svg">
<path d="M1.70508 9.74609H5.90508H39.5051" stroke="#FF845C" stroke-width="2" stroke-linecap="round" stroke-linejoin="round"/>
<path d="M35.3004 9.74668V39.1467C35.3004 40.2606 34.8579 41.3289 34.0702 42.1165C33.2826 42.9042 32.2143 43.3467 31.1004 43.3467H10.1004C8.98648 43.3467 7.91819 42.9042 7.13054 42.1165C6.34289 41.3289 5.90039 40.2606 5.90039 39.1467V9.74668M12.2004 9.74668V5.54668C12.2004 4.43277 12.6429 3.36448 13.4305 2.57683C14.2182 1.78918 15.2865 1.34668 16.4004 1.34668H24.8004C25.9143 1.34668 26.9826 1.78918 27.7702 2.57683C28.5579 3.36448 29.0004 4.43277 29.0004 5.54668V9.74668" stroke="#FF845C" stroke-width="2" stroke-linecap="round" stroke-linejoin="round"/>
<path d="M16.4004 20.2461V32.8461" stroke="#FF845C" stroke-width="2" stroke-linecap="round" stroke-linejoin="round"/>
<path d="M24.8027 20.2461V32.8461" stroke="#FF845C" stroke-width="2" stroke-linecap="round" stroke-linejoin="round"/>
</svg>
