<svg width="18" height="18" viewBox="0 0 18 18" fill="none" xmlns="http://www.w3.org/2000/svg">
<path d="M8.1439 3.08594H2.57766C2.15587 3.08594 1.75136 3.25349 1.45311 3.55174C1.15486 3.84999 0.987305 4.2545 0.987305 4.67629V15.8088C0.987305 16.2306 1.15486 16.6351 1.45311 16.9333C1.75136 17.2316 2.15587 17.3991 2.57766 17.3991H13.7101C14.1319 17.3991 14.5364 17.2316 14.8347 16.9333C15.1329 16.6351 15.3005 16.2306 15.3005 15.8088V10.2425" stroke="#260B6A" stroke-width="1.2" stroke-linecap="round" stroke-linejoin="round"/>
<path d="M14.1081 1.8925C14.4245 1.57616 14.8535 1.39844 15.3009 1.39844C15.7483 1.39844 16.1773 1.57616 16.4937 1.8925C16.81 2.20884 16.9877 2.63789 16.9877 3.08526C16.9877 3.53264 16.81 3.96169 16.4937 4.27803L8.9395 11.8322L5.75879 12.6274L6.55397 9.44668L14.1081 1.8925Z" stroke="#260B6A" stroke-width="1.2" stroke-linecap="round" stroke-linejoin="round"/>
</svg>
