<svg width="45" height="28" viewBox="0 0 45 28" fill="none" xmlns="http://www.w3.org/2000/svg">
<path d="M4.45508 0.0449219C3.36106 0.0449219 2.31185 0.479519 1.53826 1.25311C0.764675 2.02669 0.330078 3.0759 0.330078 4.16992L0.330078 8.29492C0.330078 8.65959 0.474944 9.00933 0.732806 9.26719C0.990669 9.52506 1.34041 9.66992 1.70508 9.66992C2.7991 9.66992 3.84831 10.1045 4.62189 10.8781C5.39548 11.6517 5.83008 12.7009 5.83008 13.7949C5.83008 14.8889 5.39548 15.9382 4.62189 16.7117C3.84831 17.4853 2.7991 17.9199 1.70508 17.9199C1.34041 17.9199 0.990669 18.0648 0.732806 18.3226C0.474944 18.5805 0.330078 18.9302 0.330078 19.2949L0.330078 23.4199C0.330078 24.5139 0.764675 25.5632 1.53826 26.3367C2.31185 27.1103 3.36106 27.5449 4.45508 27.5449H40.2051C41.2991 27.5449 42.3483 27.1103 43.1219 26.3367C43.8955 25.5632 44.3301 24.5139 44.3301 23.4199V19.2949C44.3301 18.9302 44.1852 18.5805 43.9274 18.3226C43.6695 18.0648 43.3198 17.9199 42.9551 17.9199C41.8611 17.9199 40.8119 17.4853 40.0383 16.7117C39.2647 15.9382 38.8301 14.8889 38.8301 13.7949C38.8301 12.7009 39.2647 11.6517 40.0383 10.8781C40.8119 10.1045 41.8611 9.66992 42.9551 9.66992C43.3198 9.66992 43.6695 9.52506 43.9274 9.26719C44.1852 9.00933 44.3301 8.65959 44.3301 8.29492V4.16992C44.3301 3.0759 43.8955 2.02669 43.1219 1.25311C42.3483 0.479519 41.2991 0.0449219 40.2051 0.0449219H4.45508ZM3.08008 4.16992C3.08008 3.80525 3.22494 3.45551 3.48281 3.19765C3.74067 2.93979 4.09041 2.79492 4.45508 2.79492H40.2051C40.5698 2.79492 40.9195 2.93979 41.1774 3.19765C41.4352 3.45551 41.5801 3.80525 41.5801 4.16992V7.05742C40.0259 7.37301 38.6287 8.21618 37.6251 9.44407C36.6214 10.672 36.0732 12.2091 36.0732 13.7949C36.0732 15.3808 36.6214 16.9179 37.6251 18.1458C38.6287 19.3737 40.0259 20.2168 41.5801 20.5324V23.4199C41.5801 23.7846 41.4352 24.1343 41.1774 24.3922C40.9195 24.6501 40.5698 24.7949 40.2051 24.7949H4.45508C4.09041 24.7949 3.74067 24.6501 3.48281 24.3922C3.22494 24.1343 3.08008 23.7846 3.08008 23.4199V20.5324C4.63422 20.2168 6.03148 19.3737 7.0351 18.1458C8.03871 16.9179 8.58697 15.3808 8.58697 13.7949C8.58697 12.2091 8.03871 10.672 7.0351 9.44407C6.03148 8.21618 4.63422 7.37301 3.08008 7.05742V4.16992Z" fill="#806BFF"/>
</svg>
