<svg width="24" height="24" viewBox="0 0 24 24" fill="none" xmlns="http://www.w3.org/2000/svg">
<path d="M11.9997 13.8494L7.19966 18.6327C6.94409 18.8883 6.63298 19.0188 6.26633 19.0244C5.89967 19.0299 5.59689 18.8994 5.35801 18.6327C5.09134 18.3771 4.95801 18.0702 4.95801 17.7119C4.95801 17.3536 5.09134 17.0411 5.35801 16.7744L10.158 11.991L5.35801 7.1827C5.09134 6.92715 4.95801 6.62021 4.95801 6.26187C4.95801 5.90354 5.09134 5.59105 5.35801 5.3244C5.59689 5.06883 5.89967 4.94383 6.26633 4.9494C6.63298 4.95495 6.94409 5.0855 7.19966 5.34105L11.9997 10.1244L16.7997 5.34105C17.0552 5.0855 17.3663 4.95495 17.733 4.9494C18.0997 4.94383 18.4024 5.06883 18.6413 5.3244C18.908 5.59105 19.0413 5.90354 19.0413 6.26187C19.0413 6.62021 18.9135 6.92715 18.658 7.1827L13.858 11.991L18.658 16.7744C18.9135 17.0411 19.0413 17.3536 19.0413 17.7119C19.0413 18.0702 18.908 18.3771 18.6413 18.6327C18.4024 18.8994 18.0997 19.0299 17.733 19.0244C17.3663 19.0188 17.0552 18.8883 16.7997 18.6327L11.9997 13.8494Z" fill="#A5A5A5"/>
</svg>
