<svg width="16" height="17" viewBox="0 0 16 17" fill="none" xmlns="http://www.w3.org/2000/svg">
<path d="M0.987305 3.73438H2.54286H14.9873" stroke="#260B6A" stroke-linecap="round" stroke-linejoin="round"/>
<path d="M13.4328 3.7322V14.6211C13.4328 15.0337 13.2689 15.4293 12.9772 15.721C12.6855 16.0128 12.2898 16.1766 11.8773 16.1766H4.0995C3.68694 16.1766 3.29128 16.0128 2.99956 15.721C2.70783 15.4293 2.54395 15.0337 2.54395 14.6211V3.7322M4.87728 3.7322V2.17665C4.87728 1.76409 5.04117 1.36843 5.33289 1.07671C5.62461 0.784982 6.02027 0.621094 6.43283 0.621094H9.54394C9.9565 0.621094 10.3522 0.784982 10.6439 1.07671C10.9356 1.36843 11.0995 1.76409 11.0995 2.17665V3.7322" stroke="#260B6A" stroke-linecap="round" stroke-linejoin="round"/>
<path d="M6.43359 7.625V12.2917" stroke="#260B6A" stroke-linecap="round" stroke-linejoin="round"/>
<path d="M9.54395 7.625V12.2917" stroke="#260B6A" stroke-linecap="round" stroke-linejoin="round"/>
</svg>
