<svg width="17" height="18" viewBox="0 0 17 18" fill="none" xmlns="http://www.w3.org/2000/svg">
<path d="M1.29688 3.85156H2.89687H15.6969" stroke="#26212E" stroke-width="1.2" stroke-linecap="round" stroke-linejoin="round"/>
<path d="M14.0965 3.85234V15.0523C14.0965 15.4767 13.9279 15.8837 13.6279 16.1837C13.3278 16.4838 12.9208 16.6523 12.4965 16.6523H4.49648C4.07214 16.6523 3.66517 16.4838 3.36511 16.1837C3.06506 15.8837 2.89648 15.4767 2.89648 15.0523V3.85234M5.29648 3.85234V2.25234C5.29648 1.828 5.46506 1.42103 5.76511 1.12097C6.06517 0.820915 6.47214 0.652344 6.89648 0.652344H10.0965C10.5208 0.652344 10.9278 0.820915 11.2279 1.12097C11.5279 1.42103 11.6965 1.828 11.6965 2.25234V3.85234" stroke="#26212E" stroke-width="1.2" stroke-linecap="round" stroke-linejoin="round"/>
<path d="M6.89746 7.85156V12.6516" stroke="#26212E" stroke-width="1.2" stroke-linecap="round" stroke-linejoin="round"/>
<path d="M10.0967 7.85156V12.6516" stroke="#26212E" stroke-width="1.2" stroke-linecap="round" stroke-linejoin="round"/>
</svg>
