<svg width="21" height="22" viewBox="0 0 21 22" fill="none" xmlns="http://www.w3.org/2000/svg">
<path d="M1.5166 5.40234H3.5166H19.5166" stroke="#26212E" stroke-width="1.2" stroke-linecap="round" stroke-linejoin="round"/>
<path d="M17.5166 5.40234V19.4023C17.5166 19.9328 17.3059 20.4415 16.9308 20.8166C16.5557 21.1916 16.047 21.4023 15.5166 21.4023H5.5166C4.98617 21.4023 4.47746 21.1916 4.10239 20.8166C3.72732 20.4415 3.5166 19.9328 3.5166 19.4023V5.40234M6.5166 5.40234V3.40234C6.5166 2.87191 6.72732 2.3632 7.10239 1.98813C7.47746 1.61306 7.98617 1.40234 8.5166 1.40234H12.5166C13.047 1.40234 13.5557 1.61306 13.9308 1.98813C14.3059 2.3632 14.5166 2.87191 14.5166 3.40234V5.40234" stroke="#26212E" stroke-width="1.2" stroke-linecap="round" stroke-linejoin="round"/>
<path d="M8.5166 10.4023V16.4023" stroke="#26212E" stroke-width="1.2" stroke-linecap="round" stroke-linejoin="round"/>
<path d="M12.5166 10.4023V16.4023" stroke="#26212E" stroke-width="1.2" stroke-linecap="round" stroke-linejoin="round"/>
</svg>
