<svg width="18" height="18" viewBox="0 0 18 18" fill="none" xmlns="http://www.w3.org/2000/svg">
<path d="M8.1605 3.08594H2.59426C2.17247 3.08594 1.76796 3.25349 1.46971 3.55174C1.17146 3.84999 1.00391 4.2545 1.00391 4.67629V15.8088C1.00391 16.2306 1.17146 16.6351 1.46971 16.9333C1.76796 17.2316 2.17247 17.3991 2.59426 17.3991H13.7267C14.1485 17.3991 14.553 17.2316 14.8513 16.9333C15.1495 16.6351 15.3171 16.2306 15.3171 15.8088V10.2425" stroke="#260B6A" stroke-width="1.2" stroke-linecap="round" stroke-linejoin="round"/>
<path d="M14.1247 1.8925C14.4411 1.57616 14.8701 1.39844 15.3175 1.39844C15.7649 1.39844 16.1939 1.57616 16.5103 1.8925C16.8266 2.20884 17.0043 2.63789 17.0043 3.08526C17.0043 3.53264 16.8266 3.96169 16.5103 4.27803L8.9561 11.8322L5.77539 12.6274L6.57057 9.44668L14.1247 1.8925Z" stroke="#260B6A" stroke-width="1.2" stroke-linecap="round" stroke-linejoin="round"/>
</svg>
