<svg width="16" height="16" viewBox="0 0 16 16" fill="none" xmlns="http://www.w3.org/2000/svg">
<path d="M12.9748 7.51887C12.8728 7.43149 12.7415 7.38584 12.6073 7.39102C12.4731 7.39621 12.3457 7.45185 12.2508 7.54683C12.1558 7.64182 12.1001 7.76914 12.0949 7.90337C12.0898 8.03759 12.1354 8.16883 12.2228 8.27086L13.9561 9.99884H7.47083C7.32938 9.99884 7.19373 10.055 7.09371 10.1551C6.99369 10.2551 6.9375 10.3907 6.9375 10.5322C6.9375 10.6736 6.99369 10.8093 7.09371 10.9093C7.19373 11.0093 7.32938 11.0655 7.47083 11.0655H13.9721L12.2228 12.8148C12.167 12.8626 12.1216 12.9215 12.0896 12.9876C12.0576 13.0538 12.0396 13.1259 12.0368 13.1993C12.0339 13.2728 12.0463 13.346 12.0731 13.4145C12.0999 13.4829 12.1406 13.545 12.1926 13.597C12.2445 13.649 12.3067 13.6897 12.3751 13.7165C12.4436 13.7433 12.5168 13.7557 12.5903 13.7528C12.6637 13.75 12.7358 13.732 12.802 13.7C12.8681 13.668 12.927 13.6226 12.9748 13.5668L16.0041 10.5322L12.9748 7.51887Z" fill="#260B6A"/>
<path d="M1.07056 6.05693H5.12919V1.9983H10.6705V6.46759H11.7371V1.9983C11.7371 1.7154 11.6248 1.44409 11.4247 1.24406C11.2247 1.04402 10.9534 0.931641 10.6705 0.931641H3.66787L0.00390625 4.59561V14.7982C0.00390625 15.0811 0.116286 15.3524 0.316323 15.5524C0.51636 15.7525 0.787668 15.8648 1.07056 15.8648H10.6705C10.9534 15.8648 11.2247 15.7525 11.4247 15.5524C11.6248 15.3524 11.7371 15.0811 11.7371 14.7982H1.07056V6.05693ZM1.07056 5.03294L4.1052 1.9983H4.27053V5.19827H1.07056V5.03294Z" fill="#260B6A"/>
</svg>
