<svg width="41" height="26" viewBox="0 0 41 26" fill="none" xmlns="http://www.w3.org/2000/svg">
<path d="M4.08008 0.294922C3.08552 0.294922 2.13169 0.69001 1.42843 1.39327C0.725166 2.09653 0.330078 3.05036 0.330078 4.04492L0.330078 7.79492C0.330078 8.12644 0.461774 8.44438 0.696195 8.67881C0.930615 8.91323 1.24856 9.04492 1.58008 9.04492C2.57464 9.04492 3.52847 9.44001 4.23173 10.1433C4.93499 10.8465 5.33008 11.8004 5.33008 12.7949C5.33008 13.7895 4.93499 14.7433 4.23173 15.4466C3.52847 16.1498 2.57464 16.5449 1.58008 16.5449C1.24856 16.5449 0.930615 16.6766 0.696195 16.911C0.461774 17.1455 0.330078 17.4634 0.330078 17.7949L0.330078 21.5449C0.330078 22.5395 0.725166 23.4933 1.42843 24.1966C2.13169 24.8998 3.08552 25.2949 4.08008 25.2949H36.5801C37.5746 25.2949 38.5285 24.8998 39.2317 24.1966C39.935 23.4933 40.3301 22.5395 40.3301 21.5449V17.7949C40.3301 17.4634 40.1984 17.1455 39.964 16.911C39.7295 16.6766 39.4116 16.5449 39.0801 16.5449C38.0855 16.5449 37.1317 16.1498 36.4284 15.4466C35.7252 14.7433 35.3301 13.7895 35.3301 12.7949C35.3301 11.8004 35.7252 10.8465 36.4284 10.1433C37.1317 9.44001 38.0855 9.04492 39.0801 9.04492C39.4116 9.04492 39.7295 8.91323 39.964 8.67881C40.1984 8.44438 40.3301 8.12644 40.3301 7.79492V4.04492C40.3301 3.05036 39.935 2.09653 39.2317 1.39327C38.5285 0.69001 37.5746 0.294922 36.5801 0.294922H4.08008ZM2.83008 4.04492C2.83008 3.7134 2.96177 3.39546 3.19619 3.16104C3.43061 2.92662 3.74856 2.79492 4.08008 2.79492H36.5801C36.9116 2.79492 37.2295 2.92662 37.464 3.16104C37.6984 3.39546 37.8301 3.7134 37.8301 4.04492V6.66992C36.4172 6.95682 35.147 7.72333 34.2346 8.8396C33.3222 9.95586 32.8238 11.3532 32.8238 12.7949C32.8238 14.2366 33.3222 15.634 34.2346 16.7502C35.147 17.8665 36.4172 18.633 37.8301 18.9199V21.5449C37.8301 21.8764 37.6984 22.1944 37.464 22.4288C37.2295 22.6632 36.9116 22.7949 36.5801 22.7949H4.08008C3.74856 22.7949 3.43061 22.6632 3.19619 22.4288C2.96177 22.1944 2.83008 21.8764 2.83008 21.5449V18.9199C4.24294 18.633 5.51317 17.8665 6.42555 16.7502C7.33793 15.634 7.83634 14.2366 7.83634 12.7949C7.83634 11.3532 7.33793 9.95586 6.42555 8.8396C5.51317 7.72333 4.24294 6.95682 2.83008 6.66992V4.04492Z" fill="#FF845C"/>
</svg>
