<svg width="45" height="29" viewBox="0 0 45 29" fill="none" xmlns="http://www.w3.org/2000/svg">
<path d="M11.3301 5.74023V8.21523H14.0801V5.74023H11.3301ZM30.5801 5.74023V8.21523H33.3301V5.74023H30.5801ZM11.3301 10.6902V13.1652H14.0801V10.6902H11.3301ZM30.5801 10.6902V13.1652H33.3301V10.6902H30.5801ZM11.3301 15.6402V18.1152H14.0801V15.6402H11.3301ZM30.5801 15.6402V18.1152H33.3301V15.6402H30.5801ZM11.3301 20.5902V23.0652H14.0801V20.5902H11.3301ZM30.5801 20.5902V23.0652H33.3301V20.5902H30.5801Z" fill="#806BFF"/>
<path d="M4.45508 0.652344C3.36106 0.652344 2.31185 1.08694 1.53826 1.86053C0.764675 2.63412 0.330078 3.68333 0.330078 4.77734L0.330078 8.90234C0.330078 9.26702 0.474944 9.61675 0.732806 9.87462C0.990669 10.1325 1.34041 10.2773 1.70508 10.2773C2.7991 10.2773 3.84831 10.7119 4.62189 11.4855C5.39548 12.2591 5.83008 13.3083 5.83008 14.4023C5.83008 15.4964 5.39548 16.5456 4.62189 17.3192C3.84831 18.0927 2.7991 18.5273 1.70508 18.5273C1.34041 18.5273 0.990669 18.6722 0.732806 18.9301C0.474944 19.1879 0.330078 19.5377 0.330078 19.9023L0.330078 24.0273C0.330078 25.1214 0.764675 26.1706 1.53826 26.9442C2.31185 27.7177 3.36106 28.1523 4.45508 28.1523H40.2051C41.2991 28.1523 42.3483 27.7177 43.1219 26.9442C43.8955 26.1706 44.3301 25.1214 44.3301 24.0273V19.9023C44.3301 19.5377 44.1852 19.1879 43.9274 18.9301C43.6695 18.6722 43.3198 18.5273 42.9551 18.5273C41.8611 18.5273 40.8119 18.0927 40.0383 17.3192C39.2647 16.5456 38.8301 15.4964 38.8301 14.4023C38.8301 13.3083 39.2647 12.2591 40.0383 11.4855C40.8119 10.7119 41.8611 10.2773 42.9551 10.2773C43.3198 10.2773 43.6695 10.1325 43.9274 9.87462C44.1852 9.61675 44.3301 9.26702 44.3301 8.90234V4.77734C44.3301 3.68333 43.8955 2.63412 43.1219 1.86053C42.3483 1.08694 41.2991 0.652344 40.2051 0.652344H4.45508ZM3.08008 4.77734C3.08008 4.41267 3.22494 4.06293 3.48281 3.80507C3.74067 3.54721 4.09041 3.40234 4.45508 3.40234H40.2051C40.5698 3.40234 40.9195 3.54721 41.1774 3.80507C41.4352 4.06293 41.5801 4.41267 41.5801 4.77734V7.66484C40.0259 7.98043 38.6287 8.8236 37.6251 10.0515C36.6214 11.2794 36.0732 12.8165 36.0732 14.4023C36.0732 15.9882 36.6214 17.5253 37.6251 18.7532C38.6287 19.9811 40.0259 20.8243 41.5801 21.1398V24.0273C41.5801 24.392 41.4352 24.7418 41.1774 24.9996C40.9195 25.2575 40.5698 25.4023 40.2051 25.4023H4.45508C4.09041 25.4023 3.74067 25.2575 3.48281 24.9996C3.22494 24.7418 3.08008 24.392 3.08008 24.0273V21.1398C4.63422 20.8243 6.03148 19.9811 7.0351 18.7532C8.03871 17.5253 8.58697 15.9882 8.58697 14.4023C8.58697 12.8165 8.03871 11.2794 7.0351 10.0515C6.03148 8.8236 4.63422 7.98043 3.08008 7.66484V4.77734Z" fill="#806BFF"/>
</svg>
