<svg width="41" height="26" viewBox="0 0 41 26" fill="none" xmlns="http://www.w3.org/2000/svg">
<path d="M10.3301 5.52734V7.77734H12.8301V5.52734H10.3301ZM27.8301 5.52734V7.77734H30.3301V5.52734H27.8301ZM10.3301 10.0273V12.2773H12.8301V10.0273H10.3301ZM27.8301 10.0273V12.2773H30.3301V10.0273H27.8301ZM10.3301 14.5273V16.7773H12.8301V14.5273H10.3301ZM27.8301 14.5273V16.7773H30.3301V14.5273H27.8301ZM10.3301 19.0273V21.2773H12.8301V19.0273H10.3301ZM27.8301 19.0273V21.2773H30.3301V19.0273H27.8301Z" fill="#FF845C"/>
<path d="M4.08008 0.902344C3.08552 0.902344 2.13169 1.29743 1.42843 2.00069C0.725166 2.70395 0.330078 3.65778 0.330078 4.65234L0.330078 8.40234C0.330078 8.73386 0.461774 9.05181 0.696195 9.28623C0.930615 9.52065 1.24856 9.65234 1.58008 9.65234C2.57464 9.65234 3.52847 10.0474 4.23173 10.7507C4.93499 11.454 5.33008 12.4078 5.33008 13.4023C5.33008 14.3969 4.93499 15.3507 4.23173 16.054C3.52847 16.7573 2.57464 17.1523 1.58008 17.1523C1.24856 17.1523 0.930615 17.284 0.696195 17.5185C0.461774 17.7529 0.330078 18.0708 0.330078 18.4023L0.330078 22.1523C0.330078 23.1469 0.725166 24.1007 1.42843 24.804C2.13169 25.5073 3.08552 25.9023 4.08008 25.9023H36.5801C37.5746 25.9023 38.5285 25.5073 39.2317 24.804C39.935 24.1007 40.3301 23.1469 40.3301 22.1523V18.4023C40.3301 18.0708 40.1984 17.7529 39.964 17.5185C39.7295 17.284 39.4116 17.1523 39.0801 17.1523C38.0855 17.1523 37.1317 16.7573 36.4284 16.054C35.7252 15.3507 35.3301 14.3969 35.3301 13.4023C35.3301 12.4078 35.7252 11.454 36.4284 10.7507C37.1317 10.0474 38.0855 9.65234 39.0801 9.65234C39.4116 9.65234 39.7295 9.52065 39.964 9.28623C40.1984 9.05181 40.3301 8.73386 40.3301 8.40234V4.65234C40.3301 3.65778 39.935 2.70395 39.2317 2.00069C38.5285 1.29743 37.5746 0.902344 36.5801 0.902344H4.08008ZM2.83008 4.65234C2.83008 4.32082 2.96177 4.00288 3.19619 3.76846C3.43061 3.53404 3.74856 3.40234 4.08008 3.40234H36.5801C36.9116 3.40234 37.2295 3.53404 37.464 3.76846C37.6984 4.00288 37.8301 4.32082 37.8301 4.65234V7.27734C36.4172 7.56424 35.147 8.33076 34.2346 9.44702C33.3222 10.5633 32.8238 11.9606 32.8238 13.4023C32.8238 14.844 33.3222 16.2414 34.2346 17.3577C35.147 18.4739 36.4172 19.2404 37.8301 19.5273V22.1523C37.8301 22.4839 37.6984 22.8018 37.464 23.0362C37.2295 23.2706 36.9116 23.4023 36.5801 23.4023H4.08008C3.74856 23.4023 3.43061 23.2706 3.19619 23.0362C2.96177 22.8018 2.83008 22.4839 2.83008 22.1523V19.5273C4.24294 19.2404 5.51317 18.4739 6.42555 17.3577C7.33793 16.2414 7.83634 14.844 7.83634 13.4023C7.83634 11.9606 7.33793 10.5633 6.42555 9.44702C5.51317 8.33076 4.24294 7.56424 2.83008 7.27734V4.65234Z" fill="#FF845C"/>
</svg>
