<svg width="20" height="14" viewBox="0 0 20 14" fill="none" xmlns="http://www.w3.org/2000/svg">
<path d="M5 2.94141V4.06641H6.25V2.94141H5ZM13.75 2.94141V4.06641H15V2.94141H13.75ZM5 5.19141V6.31641H6.25V5.19141H5ZM13.75 5.19141V6.31641H15V5.19141H13.75ZM5 7.44141V8.56641H6.25V7.44141H5ZM13.75 7.44141V8.56641H15V7.44141H13.75ZM5 9.69141V10.8164H6.25V9.69141H5ZM13.75 9.69141V10.8164H15V9.69141H13.75Z" fill="#806BFF"/>
<path d="M1.875 0.628906C1.37772 0.628906 0.900805 0.82645 0.549175 1.17808C0.197544 1.52971 0 2.00663 0 2.50391L0 4.37891C0 4.54467 0.065848 4.70364 0.183058 4.82085C0.300269 4.93806 0.45924 5.00391 0.625 5.00391C1.12228 5.00391 1.59919 5.20145 1.95083 5.55308C2.30246 5.90471 2.5 6.38163 2.5 6.87891C2.5 7.37619 2.30246 7.8531 1.95083 8.20473C1.59919 8.55636 1.12228 8.75391 0.625 8.75391C0.45924 8.75391 0.300269 8.81975 0.183058 8.93696C0.065848 9.05417 0 9.21315 0 9.37891L0 11.2539C0 11.7512 0.197544 12.2281 0.549175 12.5797C0.900805 12.9314 1.37772 13.1289 1.875 13.1289H18.125C18.6223 13.1289 19.0992 12.9314 19.4508 12.5797C19.8025 12.2281 20 11.7512 20 11.2539V9.37891C20 9.21315 19.9342 9.05417 19.8169 8.93696C19.6997 8.81975 19.5408 8.75391 19.375 8.75391C18.8777 8.75391 18.4008 8.55636 18.0492 8.20473C17.6975 7.8531 17.5 7.37619 17.5 6.87891C17.5 6.38163 17.6975 5.90471 18.0492 5.55308C18.4008 5.20145 18.8777 5.00391 19.375 5.00391C19.5408 5.00391 19.6997 4.93806 19.8169 4.82085C19.9342 4.70364 20 4.54467 20 4.37891V2.50391C20 2.00663 19.8025 1.52971 19.4508 1.17808C19.0992 0.82645 18.6223 0.628906 18.125 0.628906H1.875ZM1.25 2.50391C1.25 2.33815 1.31585 2.17917 1.43306 2.06196C1.55027 1.94475 1.70924 1.87891 1.875 1.87891H18.125C18.2908 1.87891 18.4497 1.94475 18.5669 2.06196C18.6842 2.17917 18.75 2.33815 18.75 2.50391V3.81641C18.0436 3.95985 17.4085 4.34311 16.9523 4.90125C16.4961 5.45938 16.2469 6.15806 16.2469 6.87891C16.2469 7.59975 16.4961 8.29844 16.9523 8.85657C17.4085 9.4147 18.0436 9.79796 18.75 9.94141V11.2539C18.75 11.4197 18.6842 11.5786 18.5669 11.6958C18.4497 11.8131 18.2908 11.8789 18.125 11.8789H1.875C1.70924 11.8789 1.55027 11.8131 1.43306 11.6958C1.31585 11.5786 1.25 11.4197 1.25 11.2539V9.94141C1.95643 9.79796 2.59155 9.4147 3.04774 8.85657C3.50393 8.29844 3.75313 7.59975 3.75313 6.87891C3.75313 6.15806 3.50393 5.45938 3.04774 4.90125C2.59155 4.34311 1.95643 3.95985 1.25 3.81641V2.50391Z" fill="#806BFF"/>
</svg>
