<svg width="12" height="19" viewBox="0 0 12 19" fill="none" xmlns="http://www.w3.org/2000/svg">
<path d="M2 10.6367C2.55228 10.6367 3 10.189 3 9.63672C3 9.08443 2.55228 8.63672 2 8.63672C1.44772 8.63672 1 9.08443 1 9.63672C1 10.189 1.44772 10.6367 2 10.6367Z" stroke="#DCD6FF" stroke-width="2" stroke-linecap="round" stroke-linejoin="round"/>
<path d="M2 3.63672C2.55228 3.63672 3 3.189 3 2.63672C3 2.08443 2.55228 1.63672 2 1.63672C1.44772 1.63672 1 2.08443 1 2.63672C1 3.189 1.44772 3.63672 2 3.63672Z" stroke="#DCD6FF" stroke-width="2" stroke-linecap="round" stroke-linejoin="round"/>
<path d="M2 17.6367C2.55228 17.6367 3 17.189 3 16.6367C3 16.0844 2.55228 15.6367 2 15.6367C1.44772 15.6367 1 16.0844 1 16.6367C1 17.189 1.44772 17.6367 2 17.6367Z" stroke="#DCD6FF" stroke-width="2" stroke-linecap="round" stroke-linejoin="round"/>
<path d="M10 10.6367C10.5523 10.6367 11 10.189 11 9.63672C11 9.08443 10.5523 8.63672 10 8.63672C9.44772 8.63672 9 9.08443 9 9.63672C9 10.189 9.44772 10.6367 10 10.6367Z" stroke="#DCD6FF" stroke-width="2" stroke-linecap="round" stroke-linejoin="round"/>
<path d="M10 3.63672C10.5523 3.63672 11 3.189 11 2.63672C11 2.08443 10.5523 1.63672 10 1.63672C9.44772 1.63672 9 2.08443 9 2.63672C9 3.189 9.44772 3.63672 10 3.63672Z" stroke="#DCD6FF" stroke-width="2" stroke-linecap="round" stroke-linejoin="round"/>
<path d="M10 17.6367C10.5523 17.6367 11 17.189 11 16.6367C11 16.0844 10.5523 15.6367 10 15.6367C9.44772 15.6367 9 16.0844 9 16.6367C9 17.189 9.44772 17.6367 10 17.6367Z" stroke="#DCD6FF" stroke-width="2" stroke-linecap="round" stroke-linejoin="round"/>
</svg>
