<svg width="41" height="26" viewBox="0 0 41 26" fill="none" xmlns="http://www.w3.org/2000/svg">
<path d="M10.3301 5.02734V7.27734H12.8301V5.02734H10.3301ZM27.8301 5.02734V7.27734H30.3301V5.02734H27.8301ZM10.3301 9.52734V11.7773H12.8301V9.52734H10.3301ZM27.8301 9.52734V11.7773H30.3301V9.52734H27.8301ZM10.3301 14.0273V16.2773H12.8301V14.0273H10.3301ZM27.8301 14.0273V16.2773H30.3301V14.0273H27.8301ZM10.3301 18.5273V20.7773H12.8301V18.5273H10.3301ZM27.8301 18.5273V20.7773H30.3301V18.5273H27.8301Z" fill="#FF845C"/>
<path d="M4.08008 0.402344C3.08552 0.402344 2.13169 0.797432 1.42843 1.50069C0.725166 2.20395 0.330078 3.15778 0.330078 4.15234L0.330078 7.90234C0.330078 8.23386 0.461774 8.55181 0.696195 8.78623C0.930615 9.02065 1.24856 9.15234 1.58008 9.15234C2.57464 9.15234 3.52847 9.54743 4.23173 10.2507C4.93499 10.954 5.33008 11.9078 5.33008 12.9023C5.33008 13.8969 4.93499 14.8507 4.23173 15.554C3.52847 16.2573 2.57464 16.6523 1.58008 16.6523C1.24856 16.6523 0.930615 16.784 0.696195 17.0185C0.461774 17.2529 0.330078 17.5708 0.330078 17.9023L0.330078 21.6523C0.330078 22.6469 0.725166 23.6007 1.42843 24.304C2.13169 25.0073 3.08552 25.4023 4.08008 25.4023H36.5801C37.5746 25.4023 38.5285 25.0073 39.2317 24.304C39.935 23.6007 40.3301 22.6469 40.3301 21.6523V17.9023C40.3301 17.5708 40.1984 17.2529 39.964 17.0185C39.7295 16.784 39.4116 16.6523 39.0801 16.6523C38.0855 16.6523 37.1317 16.2573 36.4284 15.554C35.7252 14.8507 35.3301 13.8969 35.3301 12.9023C35.3301 11.9078 35.7252 10.954 36.4284 10.2507C37.1317 9.54743 38.0855 9.15234 39.0801 9.15234C39.4116 9.15234 39.7295 9.02065 39.964 8.78623C40.1984 8.55181 40.3301 8.23386 40.3301 7.90234V4.15234C40.3301 3.15778 39.935 2.20395 39.2317 1.50069C38.5285 0.797432 37.5746 0.402344 36.5801 0.402344H4.08008ZM2.83008 4.15234C2.83008 3.82082 2.96177 3.50288 3.19619 3.26846C3.43061 3.03404 3.74856 2.90234 4.08008 2.90234H36.5801C36.9116 2.90234 37.2295 3.03404 37.464 3.26846C37.6984 3.50288 37.8301 3.82082 37.8301 4.15234V6.77734C36.4172 7.06424 35.147 7.83076 34.2346 8.94702C33.3222 10.0633 32.8238 11.4606 32.8238 12.9023C32.8238 14.344 33.3222 15.7414 34.2346 16.8577C35.147 17.9739 36.4172 18.7404 37.8301 19.0273V21.6523C37.8301 21.9839 37.6984 22.3018 37.464 22.5362C37.2295 22.7706 36.9116 22.9023 36.5801 22.9023H4.08008C3.74856 22.9023 3.43061 22.7706 3.19619 22.5362C2.96177 22.3018 2.83008 21.9839 2.83008 21.6523V19.0273C4.24294 18.7404 5.51317 17.9739 6.42555 16.8577C7.33793 15.7414 7.83634 14.344 7.83634 12.9023C7.83634 11.4606 7.33793 10.0633 6.42555 8.94702C5.51317 7.83076 4.24294 7.06424 2.83008 6.77734V4.15234Z" fill="#FF845C"/>
</svg>
