<svg width="84" height="48" viewBox="0 0 84 48" fill="none" xmlns="http://www.w3.org/2000/svg">
<path d="M0.779734 34.4477C0.779734 33.7103 0.901068 33.0383 1.14373 32.4317C1.3864 31.8157 1.72707 31.2883 2.16573 30.8497C2.61373 30.4017 3.12707 30.0563 3.70573 29.8137C4.29373 29.571 4.93307 29.4497 5.62373 29.4497C6.63173 29.4497 7.51373 29.683 8.26973 30.1497C9.03507 30.6163 9.61373 31.279 10.0057 32.1377L9.09573 32.4737C8.88107 32.0163 8.5964 31.643 8.24173 31.3537C7.88707 31.055 7.48573 30.831 7.03773 30.6817C6.58973 30.5323 6.1184 30.4577 5.62373 30.4577C4.92373 30.4577 4.29373 30.6163 3.73373 30.9337C3.17373 31.251 2.7304 31.7083 2.40373 32.3057C2.0864 32.903 1.92773 33.617 1.92773 34.4477C1.92773 35.269 2.0864 35.9783 2.40373 36.5757C2.7304 37.173 3.17373 37.635 3.73373 37.9617C4.29373 38.279 4.92373 38.4377 5.62373 38.4377C6.12773 38.4377 6.6084 38.3583 7.06573 38.1997C7.52307 38.041 7.93373 37.7937 8.29773 37.4577C8.67107 37.1217 8.96973 36.7017 9.19374 36.1977L10.1037 36.5337C9.7024 37.495 9.1144 38.223 8.33973 38.7177C7.56507 39.203 6.65973 39.4457 5.62373 39.4457C4.93307 39.4457 4.29373 39.3243 3.70573 39.0817C3.12707 38.839 2.61373 38.4937 2.16573 38.0457C1.72707 37.5977 1.3864 37.0703 1.14373 36.4637C0.901068 35.8477 0.779734 35.1757 0.779734 34.4477ZM11.9608 29.2677H13.0108V33.2997C13.2348 32.9637 13.5381 32.707 13.9208 32.5297C14.3035 32.343 14.7328 32.2497 15.2088 32.2497C15.7221 32.2497 16.1795 32.3663 16.5808 32.5997C16.9821 32.833 17.2948 33.1783 17.5188 33.6357C17.7521 34.093 17.8688 34.6623 17.8688 35.3437V39.3477H16.7488V35.4697C16.7488 34.7417 16.5948 34.1863 16.2868 33.8037C15.9788 33.4117 15.5308 33.2157 14.9428 33.2157C14.3361 33.2157 13.8601 33.421 13.5148 33.8317C13.1788 34.2423 13.0108 34.8397 13.0108 35.6237V39.3477H11.9608V29.2677ZM22.9282 39.4457C22.2655 39.4457 21.6728 39.301 21.1502 39.0117C20.6275 38.7223 20.2168 38.3117 19.9182 37.7797C19.6195 37.2383 19.4702 36.599 19.4702 35.8617C19.4702 35.115 19.6195 34.471 19.9182 33.9297C20.2262 33.3883 20.6415 32.973 21.1642 32.6837C21.6962 32.3943 22.2935 32.2497 22.9562 32.2497C23.6188 32.2497 24.2115 32.3943 24.7342 32.6837C25.2662 32.973 25.6815 33.3883 25.9802 33.9297C26.2882 34.4617 26.4422 35.0963 26.4422 35.8337C26.4422 36.5803 26.2882 37.2243 25.9802 37.7657C25.6722 38.307 25.2522 38.7223 24.7202 39.0117C24.1882 39.301 23.5908 39.4457 22.9282 39.4457ZM22.9142 38.4517C23.3248 38.4517 23.7122 38.363 24.0762 38.1857C24.4402 37.999 24.7342 37.7143 24.9582 37.3317C25.1915 36.9397 25.3082 36.445 25.3082 35.8477C25.3082 35.241 25.1962 34.7463 24.9722 34.3637C24.7482 33.981 24.4542 33.701 24.0902 33.5237C23.7355 33.337 23.3528 33.2437 22.9422 33.2437C22.5315 33.2437 22.1488 33.337 21.7942 33.5237C21.4395 33.701 21.1502 33.9857 20.9262 34.3777C20.7115 34.7603 20.6042 35.2503 20.6042 35.8477C20.6042 36.4543 20.7115 36.949 20.9262 37.3317C21.1408 37.7143 21.4208 37.999 21.7662 38.1857C22.1208 38.363 22.5035 38.4517 22.9142 38.4517ZM31.186 39.4457C30.5233 39.4457 29.9307 39.301 29.408 39.0117C28.8853 38.7223 28.4747 38.3117 28.176 37.7797C27.8773 37.2383 27.728 36.599 27.728 35.8617C27.728 35.115 27.8773 34.471 28.176 33.9297C28.484 33.3883 28.8993 32.973 29.422 32.6837C29.954 32.3943 30.5513 32.2497 31.214 32.2497C31.8767 32.2497 32.4693 32.3943 32.992 32.6837C33.524 32.973 33.9393 33.3883 34.238 33.9297C34.546 34.4617 34.7 35.0963 34.7 35.8337C34.7 36.5803 34.546 37.2243 34.238 37.7657C33.93 38.307 33.51 38.7223 32.978 39.0117C32.446 39.301 31.8487 39.4457 31.186 39.4457ZM31.172 38.4517C31.5827 38.4517 31.97 38.363 32.334 38.1857C32.698 37.999 32.992 37.7143 33.216 37.3317C33.4493 36.9397 33.566 36.445 33.566 35.8477C33.566 35.241 33.454 34.7463 33.23 34.3637C33.006 33.981 32.712 33.701 32.348 33.5237C31.9933 33.337 31.6107 33.2437 31.2 33.2437C30.7893 33.2437 30.4067 33.337 30.052 33.5237C29.6973 33.701 29.408 33.9857 29.184 34.3777C28.9693 34.7603 28.862 35.2503 28.862 35.8477C28.862 36.4543 28.9693 36.949 29.184 37.3317C29.3987 37.7143 29.6787 37.999 30.024 38.1857C30.3787 38.363 30.7613 38.4517 31.172 38.4517ZM36.9938 37.2057C37.0498 37.4857 37.1525 37.719 37.3018 37.9057C37.4511 38.083 37.6425 38.2183 37.8758 38.3117C38.1185 38.405 38.3985 38.4517 38.7158 38.4517C39.2105 38.4517 39.5838 38.3583 39.8358 38.1717C40.0971 37.9757 40.2278 37.733 40.2278 37.4437C40.2278 37.201 40.1485 37.005 39.9898 36.8557C39.8405 36.7063 39.6398 36.585 39.3878 36.4917C39.1358 36.389 38.8558 36.3003 38.5478 36.2257C38.3051 36.1697 38.0438 36.1043 37.7638 36.0297C37.4838 35.9457 37.2178 35.8337 36.9658 35.6937C36.7138 35.5537 36.5085 35.3717 36.3498 35.1477C36.1911 34.9237 36.1118 34.6297 36.1118 34.2657C36.1118 33.8643 36.2191 33.5143 36.4338 33.2157C36.6578 32.9077 36.9611 32.6697 37.3438 32.5017C37.7358 32.3337 38.1838 32.2497 38.6878 32.2497C39.2665 32.2497 39.7798 32.3757 40.2278 32.6277C40.6851 32.8797 41.0025 33.2717 41.1798 33.8037L40.1998 34.1397C40.1345 33.897 40.0131 33.7103 39.8358 33.5797C39.6678 33.449 39.4765 33.3603 39.2618 33.3137C39.0565 33.267 38.8511 33.2437 38.6458 33.2437C38.2258 33.2437 37.8851 33.3277 37.6238 33.4957C37.3718 33.6543 37.2458 33.897 37.2458 34.2237C37.2458 34.401 37.2878 34.5503 37.3718 34.6717C37.4558 34.7837 37.5725 34.877 37.7218 34.9517C37.8711 35.0263 38.0485 35.0917 38.2538 35.1477C38.4591 35.1943 38.6831 35.2503 38.9258 35.3157C39.1965 35.381 39.4718 35.465 39.7518 35.5677C40.0318 35.661 40.2931 35.787 40.5358 35.9457C40.7785 36.095 40.9745 36.291 41.1238 36.5337C41.2825 36.767 41.3618 37.061 41.3618 37.4157C41.3618 37.8263 41.2498 38.1857 41.0258 38.4937C40.8018 38.7923 40.4891 39.0257 40.0878 39.1937C39.6958 39.3617 39.2385 39.4457 38.7158 39.4457C37.9971 39.4457 37.3998 39.287 36.9238 38.9697C36.4571 38.643 36.1445 38.167 35.9858 37.5417L36.9938 37.2057ZM46.0043 39.4457C45.351 39.4457 44.7677 39.287 44.2543 38.9697C43.7503 38.6523 43.3537 38.2183 43.0643 37.6677C42.775 37.117 42.6303 36.487 42.6303 35.7777C42.6303 35.0963 42.775 34.4897 43.0643 33.9577C43.3537 33.4257 43.7503 33.0103 44.2543 32.7117C44.7583 32.4037 45.3323 32.2497 45.9763 32.2497C46.611 32.2497 47.1757 32.3897 47.6703 32.6697C48.1743 32.9497 48.5663 33.337 48.8463 33.8317C49.1263 34.3263 49.257 34.891 49.2383 35.5257C49.2383 35.6283 49.2337 35.7357 49.2243 35.8477C49.215 35.9597 49.2057 36.081 49.1963 36.2117H43.7783C43.797 36.6503 43.9043 37.0377 44.1003 37.3737C44.2963 37.7097 44.553 37.9757 44.8703 38.1717C45.197 38.3583 45.5657 38.4517 45.9763 38.4517C46.5177 38.4517 46.975 38.349 47.3483 38.1437C47.731 37.9383 48.0063 37.6443 48.1743 37.2617L49.0843 37.6257C48.8043 38.2137 48.3983 38.6663 47.8663 38.9837C47.3343 39.2917 46.7137 39.4457 46.0043 39.4457ZM48.0903 35.3017C48.0997 34.9003 48.011 34.5457 47.8243 34.2377C47.647 33.9297 47.395 33.687 47.0683 33.5097C46.7417 33.3323 46.3637 33.2437 45.9343 33.2437C45.561 33.2437 45.2203 33.3323 44.9123 33.5097C44.6043 33.687 44.3477 33.9343 44.1423 34.2517C43.9463 34.5597 43.8297 34.9097 43.7923 35.3017H48.0903ZM59.2725 39.3477L59.1885 38.0877C58.9925 38.517 58.7032 38.853 58.3205 39.0957C57.9378 39.329 57.4525 39.4457 56.8645 39.4457C56.3605 39.4457 55.9312 39.3663 55.5765 39.2077C55.2218 39.049 54.9465 38.825 54.7505 38.5357C54.5638 38.237 54.4705 37.887 54.4705 37.4857C54.4705 36.8977 54.6898 36.417 55.1285 36.0437C55.5672 35.661 56.2018 35.4277 57.0325 35.3437L59.1885 35.1057V34.5457C59.1885 34.1537 59.0438 33.841 58.7545 33.6077C58.4652 33.365 58.0732 33.2437 57.5785 33.2437C57.0932 33.2437 56.6872 33.3557 56.3605 33.5797C56.0432 33.8037 55.8238 34.1257 55.7025 34.5457L54.7505 34.2097C54.9372 33.5937 55.2778 33.113 55.7725 32.7677C56.2765 32.4223 56.8878 32.2497 57.6065 32.2497C58.4372 32.2497 59.0812 32.4643 59.5385 32.8937C60.0052 33.3137 60.2385 33.8877 60.2385 34.6157V39.3477H59.2725ZM59.1885 36.0017L57.0185 36.2537C56.5518 36.3097 56.1972 36.4403 55.9545 36.6457C55.7118 36.8417 55.5905 37.103 55.5905 37.4297C55.5905 37.7563 55.7072 38.0177 55.9405 38.2137C56.1832 38.4097 56.5285 38.5077 56.9765 38.5077C57.4898 38.5077 57.9098 38.405 58.2365 38.1997C58.5632 37.9943 58.8012 37.719 58.9505 37.3737C59.1092 37.019 59.1885 36.6363 59.1885 36.2257V36.0017ZM70.9008 30.9897C70.6955 30.9897 70.5181 30.9197 70.3688 30.7797C70.2195 30.6303 70.1448 30.453 70.1448 30.2477C70.1448 30.0237 70.2195 29.8417 70.3688 29.7017C70.5181 29.5523 70.6955 29.4777 70.9008 29.4777C71.1155 29.4777 71.2928 29.5523 71.4328 29.7017C71.5821 29.8417 71.6568 30.0237 71.6568 30.2477C71.6568 30.453 71.5821 30.6303 71.4328 30.7797C71.2928 30.9197 71.1155 30.9897 70.9008 30.9897ZM71.4048 32.3337V39.3477H70.3548V33.3137H65.6088V32.3337H71.4048ZM66.5888 31.5217C66.5888 31.0083 66.6728 30.5743 66.8408 30.2197C67.0088 29.865 67.2748 29.6083 67.6388 29.4497C68.0121 29.2817 68.5068 29.221 69.1228 29.2677V30.2057C68.5628 30.159 68.1755 30.2523 67.9608 30.4857C67.7461 30.7097 67.6388 31.055 67.6388 31.5217V39.3477H66.5888V31.5217ZM73.8124 29.2677H74.8624V39.3477H73.8124V29.2677ZM79.9379 39.4457C79.2846 39.4457 78.7013 39.287 78.1879 38.9697C77.6839 38.6523 77.2873 38.2183 76.9979 37.6677C76.7086 37.117 76.5639 36.487 76.5639 35.7777C76.5639 35.0963 76.7086 34.4897 76.9979 33.9577C77.2873 33.4257 77.6839 33.0103 78.1879 32.7117C78.6919 32.4037 79.2659 32.2497 79.9099 32.2497C80.5446 32.2497 81.1093 32.3897 81.6039 32.6697C82.1079 32.9497 82.4999 33.337 82.7799 33.8317C83.0599 34.3263 83.1906 34.891 83.1719 35.5257C83.1719 35.6283 83.1673 35.7357 83.1579 35.8477C83.1486 35.9597 83.1393 36.081 83.1299 36.2117H77.7119C77.7306 36.6503 77.8379 37.0377 78.0339 37.3737C78.2299 37.7097 78.4866 37.9757 78.8039 38.1717C79.1306 38.3583 79.4993 38.4517 79.9099 38.4517C80.4513 38.4517 80.9086 38.349 81.2819 38.1437C81.6646 37.9383 81.9399 37.6443 82.1079 37.2617L83.0179 37.6257C82.7379 38.2137 82.3319 38.6663 81.7999 38.9837C81.2679 39.2917 80.6473 39.4457 79.9379 39.4457ZM82.0239 35.3017C82.0333 34.9003 81.9446 34.5457 81.7579 34.2377C81.5806 33.9297 81.3286 33.687 81.0019 33.5097C80.6753 33.3323 80.2973 33.2437 79.8679 33.2437C79.4946 33.2437 79.1539 33.3323 78.8459 33.5097C78.5379 33.687 78.2813 33.9343 78.0759 34.2517C77.8799 34.5597 77.7633 34.9097 77.7259 35.3017H82.0239Z" fill="#9F9F9F"/>
<path d="M45.5488 13.6328L41.5488 9.63281L37.5488 13.6328" stroke="#9F9F9F" stroke-linecap="round" stroke-linejoin="round"/>
<path d="M41.5488 9.63281V18.6328" stroke="#9F9F9F" stroke-linecap="round" stroke-linejoin="round"/>
<path d="M49.9383 16.0223C50.9136 15.4906 51.6841 14.6492 52.1282 13.6309C52.5722 12.6127 52.6645 11.4755 52.3905 10.399C52.1165 9.32246 51.4918 8.36782 50.615 7.68575C49.7382 7.00369 48.6592 6.63304 47.5483 6.63231H46.2883C45.9856 5.46155 45.4215 4.37464 44.6382 3.4533C43.855 2.53196 42.8731 1.80016 41.7664 1.31292C40.6597 0.825673 39.4569 0.595667 38.2484 0.640191C37.04 0.684714 35.8574 1.00261 34.7895 1.56997C33.7216 2.13734 32.7962 2.93941 32.0829 3.91589C31.3696 4.89237 30.887 6.01784 30.6713 7.2077C30.4556 8.39756 30.5124 9.62084 30.8375 10.7856C31.1626 11.9503 31.7475 13.0262 32.5483 13.9323" stroke="#9F9F9F" stroke-linecap="round" stroke-linejoin="round"/>
<path d="M45.5488 13.6328L41.5488 9.63281L37.5488 13.6328" stroke="#9F9F9F" stroke-linecap="round" stroke-linejoin="round"/>
</svg>
