<svg width="22" height="22" viewBox="0 0 22 22" fill="none" xmlns="http://www.w3.org/2000/svg">
<path d="M10.3262 0.370123C10.2789 0.383015 10.0899 0.417389 9.9094 0.456059C9.23481 0.584961 8.46999 0.907219 7.83407 1.324C7.19815 1.74509 6.09388 2.99115 6.09388 3.28333C6.09388 3.45949 6.25286 3.60988 6.43333 3.60988C6.63528 3.60988 6.67395 3.5755 6.94894 3.17161C7.20674 2.79779 7.84266 2.16187 8.22078 1.90407C8.79654 1.51736 9.49692 1.22948 10.1887 1.09628C10.6441 1.01034 11.5508 1.01034 12.0062 1.09628C14.1804 1.50876 15.8432 3.25325 16.1526 5.45319C16.2256 5.97739 16.1784 6.79807 16.0495 7.30939C15.8432 8.09999 15.478 8.81325 14.9495 9.43628L14.6745 9.76284L14.6015 9.52222C14.3866 8.83903 13.987 8.50818 13.0117 8.20741C12.4359 8.03124 12.3929 7.99257 12.5863 7.83789C13.0288 7.48126 13.3855 7.00432 13.6089 6.48011C13.7163 6.21371 13.7206 6.18793 13.7206 5.26413C13.7206 4.33603 13.7163 4.31025 13.596 3.93643C13.2222 2.79779 12.264 2.08883 11.0996 2.08883C9.93518 2.08883 8.97701 2.79779 8.60319 3.93643C8.48288 4.31025 8.47858 4.33603 8.47858 5.26413C8.47858 6.18793 8.48288 6.21371 8.5903 6.48011C8.81373 7.00432 9.17036 7.48126 9.61293 7.83789C9.80628 7.99257 9.76331 8.03124 9.18755 8.20741C8.21219 8.50818 7.81259 8.83903 7.60205 9.52222L7.529 9.75854L7.23682 9.4105C6.70832 8.78747 6.36028 8.11718 6.14974 7.30939C5.99936 6.75081 5.98647 5.7024 6.11537 5.05789C6.18841 4.67547 6.18841 4.61962 6.13256 4.52079C6.00795 4.29306 5.65562 4.28877 5.5482 4.5122C5.44507 4.73133 5.35484 5.32429 5.33336 5.90864C5.29469 6.94416 5.48804 7.8207 5.95209 8.73591C6.63957 10.0808 7.77821 11.0733 9.21333 11.5718C9.60433 11.7093 10.236 11.8425 10.6055 11.8682L10.7559 11.8811L10.7688 12.5128L10.7816 13.1487H7.138C3.60177 13.1487 3.49005 13.153 3.35685 13.2346C3.11193 13.3807 3.08615 13.4881 3.08615 14.3518V15.1252H2.96585C2.77249 15.1252 2.2268 15.2928 1.90455 15.4474C1.49206 15.6494 1.06238 15.9845 0.778796 16.324C0.490913 16.6677 0.151469 17.3595 0.0612375 17.7763C-0.0375879 18.2274 -0.0289944 18.9794 0.0784245 19.4048C0.357714 20.4832 1.15261 21.3856 2.17954 21.7809C2.61351 21.9484 2.92288 22 3.47286 22C4.41385 22 5.24742 21.652 5.90912 20.9817C7.58916 19.2759 7.05636 16.4013 4.8779 15.4045C4.55565 15.2584 4.0873 15.1252 3.88965 15.1252H3.77364V14.4807V13.8362H7.27549H10.7773V14.4807V15.1252H10.657C10.2703 15.1252 9.252 15.5377 9.01568 15.7912C8.87818 15.9373 8.87389 16.1822 9.01138 16.2896C9.14888 16.4013 9.35512 16.3927 9.54848 16.2595C10.1371 15.8599 10.9191 15.6967 11.598 15.8299C12.698 16.0533 13.5659 16.8997 13.8109 17.9868C13.9527 18.6313 13.8237 19.3919 13.48 19.959L13.3425 20.1868L13.1964 19.886C13.1062 19.6883 12.9558 19.4821 12.7753 19.293L12.4961 19.0052L12.6121 18.7517C12.7195 18.5282 12.7324 18.4466 12.7324 18.0685C12.7324 17.6689 12.7238 17.6173 12.5906 17.3509C12.1867 16.5302 11.1898 16.1908 10.3563 16.5947C10.077 16.7279 9.72035 17.0931 9.58285 17.3896C9.48403 17.6087 9.46684 17.6946 9.46684 18.0685C9.46684 18.4466 9.47973 18.5282 9.58715 18.7517L9.70316 19.0052L9.42387 19.293C9.24341 19.4821 9.09302 19.6883 9.00279 19.886L8.8567 20.1868L8.7192 19.959C8.64186 19.8344 8.53015 19.5895 8.46569 19.4134C8.36687 19.1341 8.35398 19.0395 8.35398 18.5411C8.35398 18.0298 8.36257 17.9568 8.47429 17.6818C8.70202 17.1146 8.65045 16.8439 8.31531 16.8439C8.05321 16.8439 7.94149 17.0029 7.73954 17.6818C7.63212 18.0427 7.63212 19.0266 7.73954 19.4219C8.05321 20.5735 8.88678 21.4629 10.0254 21.8539C10.3477 21.9656 10.4164 21.9742 11.0996 21.9742C11.8129 21.9785 11.8386 21.9742 12.2039 21.8453C13.132 21.5145 13.8195 20.8957 14.2319 20.0192C14.4812 19.4907 14.537 19.2243 14.537 18.5196C14.5327 17.931 14.5284 17.8751 14.3952 17.4884C14.1933 16.8997 13.9655 16.5431 13.5101 16.0877C13.1706 15.7525 13.0503 15.6666 12.6679 15.4732C12.35 15.3142 12.105 15.2283 11.8429 15.1767L11.4648 15.1037V14.4678V13.8362H14.8378H18.2107V14.4807V15.1252H18.0947C17.8971 15.1252 17.4287 15.2584 17.1065 15.4045C15.203 16.2767 14.5026 18.6142 15.6155 20.4016C16.2428 21.4028 17.3213 22 18.5115 22C19.0615 22 19.3709 21.9484 19.8048 21.7809C20.8318 21.3856 21.6267 20.4832 21.9059 19.4048C22.0134 18.9794 22.022 18.2274 21.9231 17.7763C21.8329 17.3509 21.4892 16.6677 21.197 16.3197C20.9091 15.9759 20.488 15.6494 20.0798 15.4474C19.7576 15.2928 19.2119 15.1252 19.0185 15.1252H18.8982V14.3389C18.8982 13.6385 18.8896 13.544 18.8123 13.4194C18.6404 13.1358 18.8381 13.1487 14.9667 13.1487H11.4648V12.5042V11.8597H11.6367C11.7269 11.8597 11.9933 11.821 12.2254 11.778C14.5069 11.3354 16.2729 9.58237 16.7756 7.26212C16.8787 6.78089 16.9002 5.74537 16.8186 5.24265C16.4877 3.21028 15.1686 1.53025 13.3038 0.756832C12.5949 0.464653 12.148 0.378717 11.2285 0.36153C10.7816 0.357233 10.3735 0.357233 10.3262 0.370123ZM11.4305 2.79779C12.0406 2.92669 12.5476 3.322 12.814 3.87628C12.9515 4.17275 13.0503 4.5122 12.9945 4.5122C12.9816 4.5122 12.8742 4.42197 12.7496 4.31455C12.3886 3.99229 12.2683 3.9794 11.5637 4.15557L11.1082 4.26728L10.6313 4.15127C10.3692 4.09112 10.0899 4.03955 10.0125 4.03955C9.81488 4.03955 9.62152 4.13838 9.42387 4.34033C9.32934 4.43486 9.23911 4.5122 9.21763 4.5122C9.14888 4.5122 9.23052 4.19853 9.3852 3.87628C9.64301 3.33918 10.1199 2.95247 10.7043 2.81068C10.9922 2.74193 11.1512 2.73764 11.4305 2.79779ZM10.4938 4.83446C11.0223 4.96765 11.1727 4.96765 11.7183 4.83016L12.1566 4.72274L12.3757 4.92039C12.6078 5.12663 12.8742 5.28561 12.9902 5.28561C13.1019 5.28561 13.0761 5.93443 12.9558 6.2309C12.6765 6.90979 12.0234 7.50704 11.3746 7.67891C11.1039 7.74766 11.0781 7.74766 10.8031 7.67461C10.1715 7.50274 9.5184 6.90119 9.24341 6.2309C9.1231 5.93443 9.09732 5.28561 9.20903 5.28561C9.32934 5.28561 9.59574 5.12663 9.81488 4.92469C9.93089 4.81727 10.034 4.73133 10.0469 4.72704C10.0598 4.72704 10.2617 4.7743 10.4938 4.83446ZM10.8547 8.38787C11.0824 8.43084 11.1812 8.43084 11.4691 8.37069L11.8129 8.29764L11.9375 8.43514L12.0578 8.57263L11.6023 8.83903C11.3531 8.98942 11.1254 9.10973 11.0996 9.10973C11.0738 9.10973 10.8461 8.98942 10.5969 8.83903L10.1414 8.57263L10.2531 8.43514C10.3434 8.32772 10.3949 8.30194 10.4766 8.31913C10.5367 8.32772 10.7043 8.36209 10.8547 8.38787ZM10.0813 9.35035C11.134 9.96478 11.0652 9.96478 12.1222 9.34605L12.8956 8.89059L13.1062 8.96364C13.3812 9.05387 13.6948 9.26871 13.8152 9.44487C13.9226 9.60386 14.0128 9.98627 13.9913 10.1882C13.9784 10.3042 13.9355 10.3472 13.5788 10.5491C13.1706 10.7812 12.466 11.039 11.9804 11.1335C11.8258 11.1636 11.4305 11.1894 11.0996 11.1894C10.7688 11.1894 10.3735 11.1636 10.2188 11.1335C9.72894 11.039 9.02857 10.7812 8.62038 10.5448L8.22078 10.3171L8.22937 10.0335C8.23797 9.53081 8.46999 9.21715 8.99849 9.00231C9.13599 8.94215 9.26489 8.89489 9.27778 8.89489C9.29497 8.89489 9.6559 9.10113 10.0813 9.35035ZM4.27636 15.9201C5.58687 16.3326 6.42473 17.7247 6.16263 19.0524C6.09818 19.379 5.83608 20.0235 5.72866 20.1094C5.68999 20.1395 5.63843 20.0708 5.53101 19.8645C5.44078 19.684 5.2775 19.4649 5.10563 19.293L4.82634 19.0095L4.92517 18.8118C5.33766 17.9868 4.98102 16.9771 4.12597 16.5732C3.86816 16.4486 3.79942 16.4357 3.45138 16.44C3.1549 16.44 3.00452 16.4658 2.81546 16.5388C2.4889 16.6677 2.0979 17.0287 1.93892 17.3509C1.8315 17.5743 1.81861 17.6388 1.81861 18.0685C1.81861 18.4853 1.8315 18.5669 1.93033 18.7774L2.03775 19.0138L1.77564 19.2759C1.59518 19.452 1.46198 19.6325 1.36315 19.843C1.28152 20.0106 1.20847 20.1481 1.19558 20.1481C1.14832 20.1567 0.899105 19.6926 0.80028 19.4219C0.714345 19.1813 0.701454 19.0653 0.701454 18.5411C0.705751 17.9997 0.714345 17.9095 0.817467 17.6517C1.19558 16.6548 2.04634 15.9545 3.06467 15.7955C3.36115 15.7525 3.92832 15.8084 4.27636 15.9201ZM19.2849 15.8814C20.1486 16.1349 20.8361 16.7837 21.1669 17.6517C21.27 17.9095 21.2786 17.9997 21.2829 18.5411C21.2829 19.0653 21.27 19.1813 21.1841 19.4219C21.0853 19.6926 20.8361 20.1567 20.7888 20.1481C20.7759 20.1481 20.7029 20.0106 20.6212 19.843C20.5224 19.6325 20.3892 19.452 20.2087 19.2759L19.9466 19.0138L20.054 18.7774C20.1529 18.5669 20.1658 18.4853 20.1658 18.0685C20.1658 17.6302 20.1572 17.5786 20.0369 17.3466C19.8736 17.0158 19.4955 16.6677 19.1689 16.5388C18.9799 16.4658 18.8295 16.44 18.533 16.44C18.185 16.4357 18.1162 16.4486 17.8584 16.5732C17.0033 16.9771 16.6467 17.9868 17.0592 18.8118L17.158 19.0095L16.8787 19.293C16.7069 19.4649 16.5436 19.684 16.4534 19.8645C16.2815 20.2083 16.2815 20.2083 16.0366 19.7012C15.16 17.8579 16.6166 15.6881 18.6619 15.7912C18.8767 15.7998 19.156 15.8427 19.2849 15.8814ZM3.94121 17.2607C4.05722 17.3337 4.19042 17.4669 4.26776 17.5915C4.50838 17.9825 4.41815 18.4938 4.05722 18.8075C3.63184 19.1856 2.94866 19.0868 2.6264 18.6013C2.46312 18.3521 2.43734 17.9267 2.56625 17.6689C2.66937 17.4669 2.92288 17.2392 3.13342 17.1576C3.35685 17.0716 3.70918 17.1189 3.94121 17.2607ZM11.5422 17.2263C12.4316 17.6818 12.1007 19.0352 11.0996 19.0352C10.4508 19.0352 9.97815 18.395 10.1801 17.7849C10.3735 17.2177 11.0094 16.9556 11.5422 17.2263ZM18.8166 17.1533C19.0357 17.2177 19.3064 17.454 19.4181 17.6732C19.547 17.9267 19.5212 18.3563 19.358 18.6013C19.1174 18.9622 18.6447 19.1298 18.2322 18.9923C17.6822 18.8118 17.4158 18.1071 17.708 17.6087C17.9443 17.2048 18.3869 17.0201 18.8166 17.1533ZM3.36974 19.7141C3.70918 19.7313 3.79082 19.7184 4.02285 19.6239L4.28925 19.5165L4.45682 19.6368C4.54705 19.7055 4.67166 19.8258 4.73611 19.9032C4.86501 20.0751 5.04118 20.4661 5.07555 20.6508C5.09704 20.7711 5.08415 20.7926 4.86501 20.9258C4.13456 21.3684 3.1635 21.4414 2.38149 21.1106C2.00337 20.9516 1.79713 20.8012 1.79713 20.6852C1.79713 20.3973 2.0936 19.8946 2.42016 19.6368L2.57484 19.5165L2.77679 19.6067C2.91858 19.6669 3.09475 19.7012 3.36974 19.7141ZM11.0996 19.7012C11.4949 19.7012 11.6066 19.6883 11.7742 19.6067L11.9804 19.5122L12.2168 19.727C12.4832 19.9719 12.7066 20.3758 12.7238 20.6422L12.7324 20.8098L12.3929 20.9946C11.9676 21.2223 11.6066 21.3168 11.1426 21.3168C10.6356 21.3168 10.3133 21.2438 9.86214 21.016L9.46684 20.8184L9.47543 20.6465C9.49262 20.3758 9.71605 19.9719 9.98675 19.727L10.2231 19.5122L10.425 19.6067C10.5926 19.684 10.7086 19.6969 11.0996 19.7012ZM18.6146 19.7141C18.8896 19.7012 19.0658 19.6669 19.2076 19.6067L19.4095 19.5165L19.5642 19.6368C19.8908 19.8946 20.1872 20.3973 20.1872 20.6852C20.1872 20.8141 19.8822 21.016 19.4482 21.175C19.1646 21.2824 19.0787 21.291 18.533 21.291C17.9916 21.2867 17.9014 21.2781 17.6436 21.175C17.4846 21.1149 17.2483 21.0032 17.1194 20.9258C16.9002 20.7926 16.8873 20.7711 16.9088 20.6508C16.9432 20.4661 17.1194 20.0751 17.2483 19.9032C17.3127 19.8258 17.4373 19.7055 17.5276 19.6368L17.6951 19.5165L17.9615 19.6239C18.1936 19.7184 18.2752 19.7313 18.6146 19.7141Z" fill="white"/>
</svg>
