<svg width="80" height="87" viewBox="0 0 80 87" fill="none" xmlns="http://www.w3.org/2000/svg">
<path d="M67.869 66.681C73.6281 72.44 78.3847 77.1602 78.4394 77.1602C78.4941 77.1602 73.8103 72.44 68.0513 66.681C62.2923 60.922 57.5356 56.2019 57.4809 56.2019C57.4263 56.2019 62.11 60.922 67.869 66.681Z" fill="#806BFF"/>
<path d="M25.8973 6.73755C25.879 6.75578 25.2958 6.82868 24.5851 6.88335C23.528 6.9927 21.2864 7.39364 20.5756 7.59411C20.4845 7.63056 20.1929 7.72168 19.9378 7.79458C19.6826 7.86748 19.3181 7.99505 19.1177 8.08617C18.9172 8.1773 18.2793 8.37777 17.7143 8.54179C17.1312 8.68758 16.6573 8.90628 16.6573 9.01563C16.6573 9.12498 16.5844 9.16143 16.4933 9.08853C16.4022 9.03385 16.2017 9.10675 16.0559 9.25255C15.9101 9.39835 15.7279 9.47124 15.6732 9.39835C15.6003 9.34367 15.4909 9.3619 15.418 9.45302C15.3451 9.56237 14.8895 9.83574 14.3792 10.0909C13.8872 10.3278 13.4315 10.5829 13.3769 10.6376C13.3222 10.6923 12.8301 11.0021 12.2834 11.3484C11.0076 12.1138 10.3516 12.6788 8.05523 14.9386C6.06873 16.8704 5.72246 17.2714 5.72246 17.5265C5.72246 17.5994 5.48554 17.9092 5.17572 18.2008C4.88413 18.4742 4.68365 18.784 4.73833 18.8751C4.793 18.948 4.73833 19.0209 4.62898 19.0209C4.51963 19.0209 4.33738 19.2396 4.20981 19.513C4.10046 19.8046 3.89999 20.1326 3.77242 20.2602C3.64484 20.406 3.57194 20.5882 3.62662 20.6794C3.69952 20.7705 3.64484 20.8434 3.53549 20.8434C3.37147 20.8434 3.04343 21.4813 1.87704 24.0327C1.64012 24.543 0.94758 26.7117 0.911131 27.0397C0.892906 27.2038 0.820007 27.4042 0.765333 27.4954C0.619535 27.7323 0.419063 28.8258 0.109242 31.1403C-0.0912303 32.5618 -0.000106542 37.61 0.25504 38.8857C0.364388 39.4325 0.473737 40.0703 0.510186 40.289C0.692434 41.3096 0.856457 41.8928 1.00225 42.0021C1.09338 42.0568 1.20273 42.3849 1.23918 42.7311C1.29385 43.0592 1.34852 43.369 1.36675 43.3872C1.38497 43.4237 1.4032 43.5148 1.42142 43.6059C1.42142 43.697 1.49432 43.8428 1.58545 43.9157C1.65835 43.9886 1.71302 44.1709 1.71302 44.3167C1.71302 44.6265 2.73361 46.777 3.22567 47.506C3.40792 47.7793 3.51727 47.998 3.4626 47.998C3.33502 47.998 4.42851 49.8205 4.75655 50.1485C4.88413 50.2761 4.99347 50.4401 4.99347 50.513C4.99347 50.5859 5.17572 50.8593 5.41264 51.1144C5.63134 51.3878 6.17808 52.0439 6.6337 52.5724C7.58139 53.7023 7.98233 54.1033 9.45854 55.4337C10.8072 56.6365 13.1035 58.222 13.2675 58.0762C13.3222 58.0216 13.3769 58.058 13.3769 58.1674C13.3769 58.6412 19.1723 61.1197 20.2476 61.1197C20.4481 61.1197 20.6668 61.1926 20.7579 61.2838C20.9766 61.5025 23.6738 61.9581 25.1318 62.031C27.501 62.1585 31.3647 62.0674 32.1483 61.8669C32.604 61.7576 33.1689 61.6118 33.4241 61.5754C34.9003 61.3202 36.5587 60.8281 37.6158 60.3361C38.0714 60.1356 38.5452 59.9351 38.691 59.9169C38.8368 59.8805 39.0009 59.7711 39.0738 59.6618C39.1467 59.5524 39.2742 59.4795 39.3653 59.4978C39.4565 59.516 39.7298 59.4431 39.985 59.3337C40.2401 59.2244 40.3677 59.1333 40.2766 59.1333C40.1855 59.115 40.7687 58.7141 41.5888 58.222C43.9033 56.837 45.3977 55.6524 47.2931 53.7023C49.1885 51.7523 50.3549 50.2579 51.5213 48.2714C51.9222 47.5789 52.3231 46.9592 52.396 46.9046C52.5601 46.777 52.9975 45.7746 52.961 45.5742C52.9428 45.5013 53.0157 45.4466 53.1433 45.4466C53.2526 45.4466 53.2891 45.3919 53.2344 45.319C53.1615 45.2643 53.1979 45.1003 53.3073 44.9545C53.4166 44.827 53.4531 44.7176 53.362 44.7176C53.2708 44.7176 53.2891 44.6447 53.4166 44.5718C53.526 44.4989 53.6535 44.1891 53.7082 43.8793C53.7629 43.5695 53.9087 43.0774 54.0545 42.7858C54.3825 42.1479 54.583 41.018 54.419 40.7629C54.3461 40.6717 54.1092 40.5442 53.8722 40.4713C53.5807 40.3984 53.3984 40.4895 53.2162 40.7629C52.9792 41.1456 52.2138 43.3325 52.1773 43.7153C52.1773 43.8064 52.0862 44.0068 51.9769 44.1162C51.8675 44.2438 51.8493 44.3531 51.904 44.3531C51.9769 44.3531 51.904 44.5718 51.7582 44.8452C51.6124 45.1368 51.2479 45.9022 50.9381 46.5583C50.3731 47.8705 49.5712 49.1462 49.4254 49.0004C49.389 48.9457 49.3343 49.0186 49.3343 49.1462C49.3343 49.5289 48.6964 50.3672 48.4959 50.2397C48.3866 50.185 48.3684 50.2214 48.4413 50.3308C48.6235 50.6406 46.473 53.0098 44.5047 54.65C42.7734 56.0898 39.8756 57.9669 39.6752 57.7664C39.6205 57.7117 39.3289 57.8393 39.0555 58.0398C38.7639 58.2403 38.363 58.4407 38.1625 58.4772C37.962 58.5136 37.6887 58.6047 37.5611 58.6959C37.4518 58.7688 37.2513 58.8417 37.1419 58.8599C37.0326 58.8781 36.6499 59.0239 36.3218 59.1879C35.9755 59.352 34.9732 59.6435 34.0619 59.844C31.4194 60.4454 30.7086 60.5366 27.5922 60.5366C25.0407 60.5548 24.5851 60.5001 22.7626 60.1356C22.0701 59.9898 21.4504 59.9169 21.414 59.9534C21.3775 59.9898 21.2499 59.9351 21.1224 59.844C21.013 59.7529 20.6485 59.6618 20.3387 59.6253C20.0107 59.6071 19.7555 59.5342 19.7555 59.4613C19.7555 59.3884 19.4821 59.2608 19.1723 59.1879C18.8443 59.115 18.5345 59.0421 18.4798 59.0239C17.605 58.7688 17.3863 58.6959 17.3863 58.5683C17.3863 58.4954 17.2041 58.386 16.9854 58.3132C16.4386 58.1856 14.4339 57.0921 12.739 56.0169C12.01 55.5612 11.6091 55.2332 10.5338 54.1944C10.224 53.8846 9.91416 53.6477 9.85948 53.6477C9.80481 53.6477 9.40386 53.2649 8.96647 52.8093C8.52908 52.3355 7.96411 51.7158 7.67251 51.4243C7.39914 51.1327 7.18044 50.8228 7.18044 50.7499C7.18044 50.677 6.97997 50.4219 6.72483 50.185C6.46968 49.9481 6.26921 49.6747 6.26921 49.5471C6.26921 49.4378 6.01406 49.0733 5.70424 48.727C5.39442 48.399 5.12105 48.0163 5.10282 47.8887C5.0846 47.7611 4.99347 47.5606 4.88413 47.4331C4.44673 46.8499 3.55372 44.9363 3.66307 44.827C3.71774 44.7723 3.68129 44.7176 3.57194 44.7176C3.44437 44.7176 3.37147 44.6629 3.3897 44.5718C3.40792 44.4989 3.28035 44.1344 3.11633 43.7335C2.9523 43.3508 2.8065 42.9316 2.8065 42.804C2.8065 42.6947 2.62426 42.0568 2.42378 41.419C2.20509 40.7811 2.00462 39.9974 1.96817 39.7058C1.93172 39.396 1.85882 38.9586 1.80414 38.7035C1.4761 37.2091 1.36675 32.8169 1.6219 31.1403C1.67657 30.7393 1.74947 30.2108 1.76769 29.9557C1.78592 29.7005 1.85882 29.4636 1.91349 29.4089C1.98639 29.3543 2.07751 29.0262 2.13219 28.68C2.35089 27.2767 2.62426 26.3472 3.171 25.1262C3.44437 24.5248 3.66307 23.9598 3.66307 23.8869C3.69952 23.5224 4.20981 22.4836 4.84768 21.5359C5.2304 20.971 5.54022 20.406 5.54022 20.3149C5.54022 20.2055 5.63134 20.1144 5.74069 20.1144C5.83181 20.1144 5.88649 20.0415 5.83181 19.9686C5.77714 19.8775 5.97761 19.5677 6.26921 19.2943C6.5608 19.0209 6.76127 18.7293 6.72483 18.6564C6.68838 18.6018 6.81595 18.4195 7.01642 18.2919C7.19867 18.1461 7.36269 17.9821 7.36269 17.9092C7.36269 17.8546 7.89121 17.2531 8.5473 16.5788C9.20339 15.9045 9.73191 15.2849 9.73191 15.1755C9.73191 15.0662 9.82303 15.048 9.91416 15.1026C10.0235 15.1573 10.0964 15.1391 10.0964 15.048C10.0964 14.9568 10.4791 14.6106 10.9712 14.2825C11.445 13.9545 11.9189 13.59 12.01 13.4807C12.1194 13.3713 12.5567 13.0433 13.0124 12.7334C13.468 12.4419 13.8689 12.1503 13.9236 12.0956C13.9783 12.0409 14.4339 11.804 14.926 11.5488C15.4363 11.3119 15.8919 11.0203 15.9648 10.911C16.0377 10.8199 16.1106 10.8016 16.1106 10.8745C16.1106 10.9657 16.2381 10.8928 16.4022 10.747C16.548 10.5829 16.8942 10.4554 17.1312 10.4554C17.441 10.4554 17.5503 10.3825 17.4592 10.2367C17.3863 10.1091 17.4045 10.0909 17.5503 10.1638C17.6597 10.2367 17.9513 10.182 18.17 10.0544C18.6985 9.70816 22.4163 8.74226 24.0383 8.52356C27.1183 8.12262 29.9432 8.1773 32.2759 8.68758C32.8956 8.83338 33.4423 8.90628 33.497 8.86983C33.5517 8.81516 33.6975 8.85161 33.825 8.9245C33.9526 8.9974 34.1713 9.08853 34.3353 9.12498C35.4835 9.32545 35.7933 9.4348 35.7933 9.58059C35.7933 9.68994 35.9209 9.72639 36.0667 9.67171C36.2125 9.59882 36.3765 9.61704 36.4129 9.70816C36.4676 9.78106 37.3242 10.1638 38.3265 10.5465C39.3289 10.9292 40.1126 11.3119 40.0761 11.3666C39.985 11.5124 40.7869 11.9133 41.1696 11.9133C41.3154 11.9133 41.443 11.9862 41.443 12.0774C41.443 12.2232 42.0262 12.6423 43.1561 13.3166C43.9215 13.7722 46.2725 15.9592 47.366 17.2714C47.767 17.7452 48.2772 18.3284 48.5142 18.5653C48.7511 18.8205 48.8787 19.0209 48.824 19.0209C48.7511 19.0209 48.8969 19.2761 49.1338 19.5859C49.8264 20.5153 50.1726 21.0803 50.3913 21.6088C50.5007 21.9004 50.6647 22.0644 50.7558 22.0098C50.8469 21.9551 50.9198 22.0827 50.9198 22.2831C50.9198 22.5018 50.9927 22.6658 51.1021 22.6658C51.1932 22.6658 51.2661 22.7205 51.2479 22.7934C51.2297 22.8845 51.3572 23.249 51.5213 23.65C51.6853 24.0327 51.8311 24.4519 51.8311 24.5612C51.8311 24.6888 51.9222 24.871 52.0315 24.9804C52.1409 25.0897 52.2502 25.2902 52.2685 25.4178C52.3049 25.5636 52.3778 25.8005 52.4325 25.9463C52.5418 26.2196 53.2344 29.0262 53.3802 29.737C53.6535 31.1767 53.854 33.2361 53.8358 34.4754C53.8176 35.5142 54.0363 35.9698 54.5648 35.9698C55.148 35.9698 55.4031 35.4048 55.3667 34.1473C55.2938 32.1609 55.148 30.6118 54.8564 29.1356C54.8199 28.9351 54.7288 28.4977 54.6741 28.1515C54.6012 27.8052 54.4919 27.4042 54.4008 27.2402C54.3096 27.0762 54.2914 26.8393 54.3279 26.7117C54.3825 26.6024 54.3461 26.493 54.255 26.493C54.1638 26.493 54.0727 26.2925 54.0545 26.0192C54.0363 25.764 53.9269 25.3813 53.7994 25.1626C53.6718 24.9439 53.5624 24.6706 53.5442 24.5794C53.4349 23.978 52.6876 22.3014 52.5418 22.3014C52.4325 22.3014 52.4143 22.2102 52.4689 22.1191C52.5236 22.0098 52.4872 21.9369 52.396 21.9369C52.2867 21.9369 52.1956 21.7911 52.1956 21.6088C52.1956 21.4448 52.0315 21.0985 51.8311 20.8434C51.6306 20.5882 51.4666 20.3149 51.4666 20.242C51.4666 20.0233 49.717 17.5812 48.8604 16.5971C47.53 15.048 45.1061 12.7334 44.851 12.7334C44.7599 12.7334 44.5776 12.5694 44.4318 12.3872C44.286 12.1867 44.1767 12.0956 44.1767 12.2049C44.1767 12.2961 44.1038 12.2778 44.0309 12.1503C43.8486 11.8587 41.0785 10.0544 41.0785 10.2367C41.0785 10.3096 41.0056 10.2731 40.9327 10.1638C40.7504 9.87218 39.3289 9.17965 39.1831 9.30722C39.1284 9.38012 39.0738 9.32545 39.0738 9.19787C39.0738 9.05208 38.9462 8.9974 38.8004 9.0703C38.6546 9.12498 38.527 9.08853 38.527 8.9974C38.527 8.90628 38.3083 8.76048 38.0349 8.70581C37.7433 8.63291 37.4518 8.52356 37.3424 8.45066C37.0873 8.26842 34.0619 7.33897 33.8615 7.37542C33.7704 7.39364 33.661 7.37542 33.6063 7.35719C33.4605 7.30252 32.8409 7.19317 32.2395 7.10205C31.9479 7.04737 31.3829 6.95625 31.0002 6.90158C30.3441 6.79223 25.9884 6.64643 25.8973 6.73755Z" fill="#FF845C"/>
<path d="M26.0808 11.1084C26.0443 11.1448 25.4065 11.2177 24.6592 11.2906C23.912 11.3453 23.2924 11.4547 23.2559 11.564C23.2195 11.6551 23.0008 11.6734 22.7639 11.6187C22.5452 11.564 22.29 11.6005 22.2171 11.7098C22.1624 11.8192 22.0349 11.8738 21.9438 11.8192C21.8526 11.7645 21.4699 11.8556 21.0872 12.0196C20.7045 12.1836 20.2306 12.3477 20.0119 12.3659C19.8115 12.4023 19.1554 12.6575 18.5539 12.9309C17.9708 13.2225 17.4422 13.4594 17.3876 13.4594C17.26 13.4958 16.0936 14.0608 15.6198 14.3524C15.3828 14.4799 15.2553 14.644 15.3282 14.6986C15.3828 14.7715 15.2917 14.8262 15.1277 14.8262C14.9454 14.8262 14.6356 15.0085 14.4352 15.2272C14.2347 15.4641 14.1253 15.5187 14.1982 15.373C14.2711 15.1907 14.2347 15.2089 14.0524 15.4094C13.9066 15.5916 13.7062 15.7374 13.615 15.7374C13.3781 15.7374 10.8267 18.1978 10.8267 18.4347C10.8267 18.6898 11.4645 19.2001 11.7926 19.2001C11.9566 19.2001 12.5216 18.7809 13.0318 18.2889C13.5421 17.7786 14.016 17.3777 14.0889 17.3777C14.1436 17.3777 14.4716 17.1225 14.7997 16.8127C15.1095 16.5211 15.3828 16.3389 15.3828 16.4118C15.3828 16.4846 15.4557 16.4664 15.5286 16.3753C15.6744 16.1748 16.6586 15.4823 16.8955 15.4459C16.9684 15.4276 17.1142 15.4094 17.2235 15.3912C17.3147 15.3912 17.3511 15.2818 17.2964 15.1907C17.2418 15.0814 17.3511 15.0085 17.5516 15.0085C17.7521 15.0085 18.0254 14.8809 18.1895 14.7351C18.3353 14.5711 18.5175 14.4435 18.5722 14.4435C18.9549 14.4617 19.7568 14.2066 19.7568 14.079C19.7568 13.9879 19.8844 13.915 20.0484 13.915C20.2124 13.915 20.9232 13.751 21.6339 13.5323C24.0578 12.8215 24.3859 12.7668 27.5934 12.7668C29.1425 12.7668 30.7099 12.8033 31.0561 12.858C32.423 13.0767 36.1591 14.2248 36.4689 14.5164C36.5236 14.5893 36.7422 14.644 36.9245 14.644C37.1067 14.644 37.2525 14.7169 37.2525 14.808C37.2525 14.8991 37.5259 15.0814 37.8722 15.1907C38.2185 15.3001 38.6012 15.5187 38.7105 15.6645C38.8381 15.7921 39.0932 15.9197 39.2755 15.9197C39.4577 15.9197 39.6947 16.0837 39.804 16.2842C39.9134 16.4846 40.1138 16.6487 40.2414 16.6487C40.3872 16.6487 40.5512 16.7762 40.6059 16.9403C40.6606 17.0861 40.7881 17.1772 40.861 17.1225C40.9339 17.0678 41.1526 17.2319 41.3349 17.487C41.5354 17.7239 41.7358 17.9244 41.827 17.9244C42.0274 17.9244 44.0868 20.0202 44.5789 20.7128C44.7976 21.0408 45.0345 21.3324 45.1074 21.3871C45.1803 21.4417 45.5266 21.952 45.8728 22.517C46.2191 23.1002 46.5654 23.5011 46.6201 23.4282C46.693 23.3553 46.7294 23.3735 46.7112 23.4829C46.6747 23.574 46.9481 24.2848 47.2944 25.032C48.2967 27.1096 48.6248 28.1119 49.0257 30.3171C49.0804 30.5723 49.1715 30.9368 49.2262 31.1372C49.5178 32.0302 49.5178 36.7504 49.2262 37.607C49.1715 37.7528 49.1168 38.0079 49.1168 38.1537C49.0986 38.4817 48.9711 39.3018 48.8982 39.4294C48.8799 39.4841 48.8435 39.5934 48.8253 39.7028C48.7888 39.7939 48.7524 39.9215 48.7341 39.9762C48.7159 40.0308 48.6795 40.1948 48.643 40.3406C48.5519 40.8692 47.4037 43.7122 47.1668 44.0767C47.021 44.2772 46.9117 44.5687 46.9117 44.751C46.9117 44.9332 46.8388 45.079 46.7659 45.079C46.6747 45.079 46.3467 45.5711 46.0004 46.1725C45.6541 46.7739 45.3079 47.266 45.235 47.266C45.1439 47.266 45.1256 47.3389 45.1803 47.4482C45.235 47.5394 45.1985 47.6305 45.1074 47.6305C44.9981 47.6305 44.9069 47.7581 44.9069 47.9038C44.9069 48.0496 44.8523 48.159 44.7794 48.1408C44.6882 48.1043 44.6153 48.1408 44.5789 48.2137C44.5607 48.2866 44.1233 48.7604 43.6312 49.2525C43.1209 49.7628 42.72 50.273 42.72 50.3824C42.72 50.51 42.6653 50.5646 42.6106 50.4917C42.5559 50.4371 42.319 50.5464 42.1003 50.7469C41.2984 51.4759 39.4395 52.9338 39.4395 52.8427C39.4395 52.788 39.0568 52.9885 38.5829 53.2801C37.1979 54.1367 34.5735 55.2848 33.9903 55.2848C33.8081 55.2848 33.6076 55.3395 33.5347 55.4124C33.4071 55.54 33.152 55.6128 32.3865 55.7404C32.1678 55.7769 31.7304 55.8498 31.3842 55.9409C31.0561 56.0138 30.5823 56.0867 30.3271 56.1231C29.3794 56.2143 25.6434 56.196 24.9508 56.0867C24.5499 56.032 24.0214 55.9591 23.7662 55.9227C22.3265 55.7404 19.0278 54.6469 17.9343 53.9909C17.588 53.7904 16.7679 53.4259 16.695 53.4623C16.6586 53.4623 16.4034 53.2983 16.1301 53.0614C15.8385 52.8245 15.3282 52.4418 15.0001 52.1866C13.6879 51.2025 12.1753 49.8903 11.829 49.4529C11.6285 49.216 11.1183 48.6511 10.6991 48.2137C10.2617 47.7763 9.91542 47.3207 9.91542 47.1931C9.91542 47.0655 9.71495 46.7375 9.4598 46.4641C9.20465 46.1907 9.00418 45.8991 9.00418 45.8262C9.00418 45.7351 8.87661 45.5711 8.73081 45.4435C8.58501 45.316 8.51211 45.1519 8.56679 45.0608C8.62146 44.9697 8.56679 44.8968 8.45744 44.8968C8.34809 44.8968 8.31164 44.8057 8.36631 44.7145C8.42099 44.6052 8.38454 44.5323 8.29342 44.5323C8.18407 44.5323 8.09294 44.4047 8.09294 44.2589C8.09294 44.1131 7.89247 43.6028 7.65555 43.129C7.21816 42.2724 6.34337 39.6481 6.41627 39.393C6.43449 39.3201 6.36159 39.0467 6.25224 38.7733C5.9971 38.099 5.86952 36.5682 5.86952 34.5088C5.86952 32.4858 5.97887 31.3741 6.34337 29.8433C6.48917 29.2236 6.65319 28.5311 6.70786 28.2577C6.74431 28.0026 6.87189 27.6199 6.99946 27.4194C7.10881 27.2007 7.14526 27.0367 7.07236 27.0367C7.01768 27.0367 7.09058 26.8362 7.25461 26.5811C7.41863 26.3259 7.50975 26.0343 7.45508 25.9614C7.4004 25.8703 7.41863 25.761 7.50975 25.7245C7.58265 25.7063 7.85602 25.2325 8.12939 24.7039C8.60324 23.7927 8.62146 23.7016 8.34809 23.2824C8.05649 22.845 7.5462 22.681 7.5462 23.0455C7.5462 23.1366 7.4733 23.1913 7.36395 23.1184C7.19993 23.0273 6.45272 24.4306 6.45272 24.8315C6.45272 24.9409 6.37982 25.032 6.28869 25.032C6.19757 25.032 6.07 25.2325 6.01532 25.4876C5.96065 25.7245 5.81485 26.1619 5.68728 26.4353C5.57793 26.7086 5.46858 26.982 5.45036 27.0367C5.45036 27.0914 5.30456 27.5834 5.14053 28.1302C4.97651 28.6769 4.79426 29.4606 4.72137 29.8615C4.64847 30.2624 4.55734 30.8821 4.48444 31.2283C4.26575 32.5405 4.39332 37.5158 4.70314 38.8827C5.17698 41.0879 5.59615 42.5276 5.74195 42.5276C5.83307 42.5276 5.90597 42.7281 5.90597 42.965C5.90597 43.2201 5.97887 43.457 6.07 43.5299C6.16112 43.5846 6.28869 43.8762 6.36159 44.1678C6.43449 44.4776 6.61674 44.8603 6.78076 45.0244C6.94478 45.1884 7.09058 45.3706 7.09058 45.4253C7.12703 45.7533 7.41863 46.3548 7.5462 46.3548C7.6191 46.3548 7.72845 46.537 7.80135 46.7739C7.85602 47.0108 8.09294 47.4118 8.34809 47.6852C8.58501 47.9403 8.73081 48.1954 8.67614 48.2501C8.62146 48.3048 8.67614 48.3595 8.78548 48.3595C8.89483 48.3595 9.04063 48.5235 9.0953 48.724C9.14998 48.9244 9.35045 49.0884 9.49625 49.0884C9.66027 49.0884 9.7514 49.1431 9.6785 49.1978C9.56915 49.3254 9.87897 49.7263 10.9178 50.8016C12.1571 52.0591 14.1071 53.6446 14.2165 53.4623C14.2529 53.4077 14.4169 53.5535 14.5627 53.7722C14.7268 54.0091 15.0183 54.1913 15.2006 54.1913C15.3828 54.1913 15.5651 54.246 15.6015 54.3189C15.7109 54.5923 16.859 55.303 17.0048 55.2119C17.096 55.1572 17.26 55.2301 17.3876 55.3759C17.5151 55.5217 17.6792 55.5946 17.7703 55.54C17.8614 55.4853 17.9343 55.54 17.9343 55.6311C17.9343 55.7404 18.0619 55.8315 18.2077 55.8315C18.3717 55.8315 18.7544 55.9773 19.0825 56.1414C19.4105 56.3054 19.7386 56.433 19.8297 56.4147C19.9026 56.3783 20.176 56.4876 20.4129 56.6517C20.6498 56.8157 21.1419 56.9432 21.4881 56.9615C21.8344 56.9797 22.126 57.0344 22.126 57.1073C22.126 57.1802 22.2353 57.2348 22.3629 57.2531C22.6545 57.2895 23.912 57.4718 24.5863 57.5811C25.7345 57.7816 29.8168 57.7634 31.0926 57.5629C32.8239 57.2713 35.266 56.6517 36.1226 56.2689C37.3801 55.704 39.3484 54.7563 39.7129 54.5194C40.0774 54.2825 40.3143 54.1002 40.8064 53.681C40.9522 53.5535 41.0797 53.4988 41.0797 53.5717C41.0797 53.9726 45.6724 49.5441 46.0915 48.724C46.2556 48.4141 46.4378 48.1772 46.5289 48.1772C46.6201 48.1772 46.7841 47.9221 46.9117 47.6305C47.0392 47.3207 47.2033 47.0837 47.2944 47.0837C47.3855 47.0837 47.4584 46.9562 47.4584 46.8104C47.4584 46.6646 47.5313 46.537 47.6042 46.537C47.6953 46.537 47.8593 46.2454 48.0051 45.8991C48.1509 45.5529 48.3332 45.2613 48.4243 45.2613C48.5154 45.2613 48.5519 45.1337 48.479 44.9879C48.4243 44.8421 48.4425 44.7145 48.5154 44.7145C48.6612 44.7145 49.208 43.5846 49.1351 43.3841C49.1168 43.3113 49.1715 43.2566 49.2626 43.2566C49.4084 43.2566 49.7 42.3636 49.6636 42.072C49.6454 42.0173 49.7729 41.7257 49.9187 41.4341C50.0828 41.1243 50.1557 40.8874 50.101 40.8874C50.0463 40.8874 50.0828 40.7234 50.1739 40.5411C50.3744 40.1766 50.4655 39.7392 50.83 36.9691C51.0487 35.2742 51.0487 33.4517 50.8118 31.684C50.7753 31.283 50.6842 30.6269 50.6477 30.2442C50.5931 29.8433 50.5019 29.3512 50.429 29.1507C50.3561 28.932 50.2832 28.7134 50.265 28.6222C50.2468 28.5493 50.2103 28.44 50.1921 28.3489C50.1739 28.276 50.1374 28.1302 50.1192 28.039C50.101 27.9297 50.0281 27.7292 49.9734 27.5834C49.5725 26.6175 49.208 25.4694 49.2444 25.3418C49.2626 25.2689 49.1897 25.2142 49.0986 25.2142C48.9893 25.2142 48.9164 25.1231 48.9164 25.032C48.9164 24.7222 47.4037 21.7516 47.2397 21.7516C47.1668 21.7516 47.0939 21.6604 47.0939 21.5511C47.0939 21.2777 44.9252 18.5805 44.5971 18.4711C44.4513 18.4165 44.342 18.3071 44.3602 18.216C44.4149 17.9973 43.6859 17.3777 43.5401 17.5235C43.4672 17.5964 43.449 17.5417 43.4854 17.3959C43.5219 17.2501 43.3396 17.0314 43.0845 16.9038C42.8293 16.7762 42.483 16.4846 42.319 16.266C42.1368 16.0473 41.991 15.9379 41.991 16.0108C41.991 16.1019 41.827 15.9744 41.6265 15.7374C41.426 15.5005 41.262 15.373 41.262 15.4459C41.262 15.5187 41.1344 15.4641 40.9886 15.3365C40.369 14.7715 40.1685 14.644 40.1685 14.7715C40.1685 14.8444 40.0592 14.7898 39.9316 14.6257C39.7129 14.3524 37.4166 13.186 37.0703 13.186C36.9609 13.186 36.888 13.0949 36.888 13.0038C36.888 12.8944 36.7422 12.8215 36.56 12.8215C36.3778 12.8215 36.1591 12.7486 36.0497 12.6575C35.9039 12.5299 34.1179 11.9832 34.0268 12.0561C33.9903 12.0561 33.644 11.965 33.2431 11.8192C32.8422 11.6734 32.5141 11.6005 32.5141 11.6734C32.5141 11.728 32.4048 11.6916 32.2954 11.5822C32.1678 11.4911 31.6029 11.3453 31.0561 11.2724C29.9444 11.1448 26.1719 11.0173 26.0808 11.1084Z" fill="#FF845C"/>
<path d="M16.6935 19.5673C15.3448 20.4056 12.9574 22.8295 12.1555 24.1963C11.7728 24.8524 11.4994 25.4903 11.5176 25.6178C11.5359 25.7089 11.4812 25.7636 11.3718 25.7636C11.2807 25.7636 11.1896 25.8912 11.1896 26.037C11.1896 26.201 11.062 26.5655 10.9162 26.8571C10.4788 27.6954 10.0779 29.4085 10.005 30.7389C9.95031 31.8324 9.98676 31.9964 10.333 32.1787C10.8798 32.4703 11.5359 31.6502 11.5905 30.6296C11.6088 29.7913 11.627 29.6272 11.7728 29.2263C11.9915 28.6249 12.3195 27.495 12.3013 27.3674C12.3013 27.2945 12.4471 26.9664 12.6476 26.6384C12.848 26.3104 13.1214 25.7818 13.2672 25.4903C13.7046 24.579 16.4748 21.2621 16.4748 21.6631C16.4748 21.7542 17.0033 21.3533 17.4954 20.8794C17.6412 20.7519 17.7505 20.6972 17.7505 20.7701C17.7505 20.8248 17.8781 20.7883 18.0239 20.6607C18.1697 20.5332 18.2608 20.3691 18.2061 20.2962C18.1514 20.2051 18.1879 20.114 18.279 20.0775C18.3701 20.0411 18.3701 19.8406 18.279 19.6037C18.0785 19.0934 17.4954 19.0752 16.6935 19.5673Z" fill="#FF845C"/>
<path d="M51.8292 53.2649C49.0408 53.9575 47.0179 56.0351 46.3435 58.8417C46.1248 59.8258 46.0884 61.7394 46.3071 62.0856C46.38 62.2132 46.4529 62.4137 46.4711 62.5413C46.6169 63.4343 48.1113 65.5119 48.7128 65.6394C49.1319 65.7306 49.6604 65.1291 49.46 64.7647C49.3688 64.5824 49.3324 64.4002 49.3871 64.3455C49.4417 64.309 49.2595 64.0903 48.9861 63.8716C48.7128 63.6712 48.5487 63.4889 48.6216 63.4889C48.6945 63.4889 48.5852 63.2702 48.3847 63.0151C48.166 62.7417 48.002 62.3772 48.002 62.195C48.002 62.0127 47.9291 61.8305 47.8562 61.7758C47.7651 61.7211 47.6922 61.0104 47.6739 60.1721C47.6557 58.8234 47.7104 58.5318 48.2025 57.5295C49.223 55.4154 51.0091 54.3766 53.4694 54.4678C54.2166 54.5042 54.8545 54.5407 54.8909 54.5589C54.9092 54.5953 54.9821 54.6136 55.0732 54.65C55.6564 54.814 56.3125 55.1967 56.8045 55.6524C57.1326 55.9439 57.4789 56.1991 57.57 56.1991C57.6793 56.1991 62.4542 60.901 68.2132 66.66L78.656 77.1209L78.2004 77.9046C77.3621 79.3079 73.8994 83.1715 73.4802 83.1715C73.3891 83.1715 73.3708 83.2444 73.4255 83.3537C73.4802 83.4631 73.4073 83.536 73.2615 83.536C73.0975 83.536 72.9699 83.6089 72.9699 83.7182C72.9699 83.8093 72.8788 83.9005 72.7876 83.9005C72.6783 83.9005 72.4961 83.9916 72.3685 84.0827C71.4755 84.8482 71.2021 85.0122 70.8194 85.1215C70.4367 85.2126 69.3796 84.2285 61.6523 76.5013C56.8592 71.7082 52.9227 67.8446 52.9227 67.9175C52.9227 67.9904 52.7586 67.9722 52.5764 67.8628C52.139 67.6259 51.6287 68.0633 51.7016 68.61C51.7381 68.8105 55.784 73.0022 60.6864 77.9046C67.6847 84.9028 69.6894 86.8164 70.0539 86.8164C70.6371 86.8164 72.2409 86.2514 72.2409 86.0327C72.2409 85.9599 72.3138 85.9234 72.3867 85.9781C72.4778 86.0327 72.7876 85.8323 73.061 85.5407C73.3526 85.2309 73.6624 84.9939 73.7718 84.9939C73.8811 84.9939 74.1363 84.8117 74.3368 84.5748C74.5372 84.3379 74.8653 84.0827 75.0475 84.028C75.2298 83.9551 75.3391 83.8458 75.2844 83.7911C75.2298 83.7365 75.5396 83.372 75.977 82.9892C76.4144 82.6065 77.0522 81.9869 77.3803 81.6042C77.7083 81.2215 78.1275 80.7294 78.3097 80.5289C78.492 80.3285 78.7836 79.9093 78.9294 79.6177C79.0934 79.3079 79.3303 78.9252 79.4944 78.7429C79.6402 78.5789 79.7131 78.4331 79.6402 78.4331C79.5855 78.4331 79.6402 78.2144 79.7677 77.9228C80.3509 76.7382 80.7336 77.1756 68.9605 65.4025C60.8869 57.329 57.7158 54.2673 57.1144 53.9757C56.6587 53.757 56.2578 53.5201 56.2031 53.4654C55.8204 52.9733 53.4147 52.8458 51.8292 53.2649Z" fill="#FF845C"/>
<path d="M55.332 34.5136C55.332 34.8599 55.3685 35.0057 55.4232 34.8234C55.4596 34.6594 55.4596 34.3678 55.4232 34.1856C55.3685 34.0215 55.332 34.1673 55.332 34.5136Z" fill="#FF845C"/>
<path d="M1.38672 35.0605C1.38672 35.4067 1.42317 35.5525 1.47784 35.3703C1.51429 35.2063 1.51429 34.9147 1.47784 34.7324C1.42317 34.5684 1.38672 34.7142 1.38672 35.0605Z" fill="#FF845C"/>
<path d="M0.984375 42.2766C0.984375 42.4588 1.0755 42.7504 1.16662 42.8962C1.31242 43.0967 1.33065 43.0238 1.23952 42.6228C1.09372 41.9485 0.984375 41.8027 0.984375 42.2766Z" fill="#FF845C"/>
<path d="M50.9206 46.308C50.9206 46.6178 49.1163 49.4973 48.2416 50.5543C46.492 52.7231 44.2686 54.8007 42.2274 56.1311C41.1157 56.8783 40.1133 57.4797 40.0222 57.4797C39.9311 57.4797 39.7306 57.6255 39.603 57.7895C39.3114 58.1358 41.0246 57.2063 42.5372 56.1857C44.0863 55.1469 46.2186 53.2516 47.4397 51.8483C49.1892 49.8071 51.3033 46.4903 51.0299 46.2169C50.9753 46.1622 50.9206 46.1987 50.9206 46.308Z" fill="#FF845C"/>
<path d="M47.0035 54.0512L45.3633 55.7461L47.0582 54.1059C48.6073 52.5932 48.826 52.3745 48.6802 52.3745C48.662 52.3745 47.8965 53.14 47.0035 54.0512Z" fill="#FF845C"/>
<path d="M48.1855 55.1994C47.7481 55.655 47.42 56.0195 47.4747 56.0195C47.5294 56.0195 47.9303 55.655 48.3677 55.1994C48.8051 54.7438 49.1332 54.3793 49.0785 54.3793C49.0238 54.3793 48.6229 54.7438 48.1855 55.1994Z" fill="#FF845C"/>
<path d="M49.8801 55.4522C49.4792 55.7437 48.9507 56.254 48.7137 56.6003C48.3857 57.0924 48.4586 57.0559 49.1147 56.3816C49.5521 55.926 50.117 55.4157 50.3722 55.2517C50.6273 55.0694 50.7731 54.9419 50.7185 54.9419C50.6638 54.9236 50.2811 55.1606 49.8801 55.4522Z" fill="#FF845C"/>
<path d="M67.9615 66.5925C73.6659 72.2967 78.3861 76.9805 78.4408 76.9805C78.4954 76.9805 73.8481 72.2967 68.1438 66.5925C62.4394 60.8699 57.7192 56.2044 57.6645 56.2044C57.6099 56.2044 62.2572 60.8699 67.9615 66.5925Z" fill="#FF845C"/>
<path d="M25.4617 62.1641C25.6258 62.2005 25.9174 62.2005 26.0996 62.1641C26.2636 62.1094 26.1178 62.0729 25.7716 62.0729C25.4253 62.0729 25.2795 62.1094 25.4617 62.1641Z" fill="#FF845C"/>
<path d="M75.8529 83.0848C75.4701 83.4311 75.2332 83.7227 75.3061 83.7227C75.3972 83.7227 75.7253 83.4311 76.0716 83.0848C76.8734 82.2647 76.7276 82.2647 75.8529 83.0848Z" fill="#FF845C"/>
<path d="M75.2458 0.0205965C74.936 0.0934944 74.207 0.530885 73.6056 1.02295C73.5145 1.09585 72.6032 1.75193 71.6009 2.46269C70.5985 3.19168 69.7419 3.82954 69.6873 3.88421C69.6326 3.93888 69.1952 4.26693 68.6849 4.59497C68.1928 4.94124 67.7372 5.26928 67.6826 5.32395C67.6279 5.39685 67.1905 5.72489 66.6802 6.05294C66.1881 6.3992 65.7325 6.72725 65.6778 6.78192C65.6232 6.85482 65.1858 7.18286 64.6755 7.5109C64.1834 7.85717 63.7278 8.18521 63.6731 8.23989C63.6184 8.31279 63.181 8.64083 62.6707 8.96887C62.1787 9.31514 61.7231 9.64318 61.6684 9.69785C61.6137 9.77075 61.1763 10.0988 60.666 10.4451C58.5702 11.8848 58.0234 12.468 58.0234 13.1605C58.0234 13.9442 58.7342 14.6367 59.5361 14.6367C60.0464 14.6367 61.4679 13.6708 68.5209 8.53148C77.4875 1.98885 77.5057 1.98885 76.9589 0.858928C76.6856 0.31219 75.829 -0.106976 75.2458 0.0205965Z" fill="#806BFF"/>
<path d="M55.4181 0.646105C54.27 2.1952 50.7344 8.40978 50.7344 8.8654C50.7344 10.0318 52.3746 10.7061 53.2312 9.9042C53.4499 9.72195 54.6345 7.88127 55.8555 5.85834C57.6598 2.86951 58.0972 2.03117 58.0972 1.44799C58.1154 0.573207 57.5504 0.0629177 56.5481 0.0629177C55.9831 0.0629177 55.7826 0.172266 55.4181 0.646105Z" fill="#806BFF"/>
<path d="M67.9397 18.9399C61.2148 20.6166 60.9414 20.7259 60.9414 21.947C60.9414 22.6213 61.6522 23.3867 62.3083 23.3867C62.8915 23.3867 74.373 20.5437 74.9198 20.2521C76.0679 19.6689 75.7764 17.8282 74.5006 17.5184C74.2819 17.4637 71.3295 18.1016 67.9397 18.9399Z" fill="#806BFF"/>
<path d="M26.0408 23.4018C23.8174 23.9121 22.0678 25.6252 21.4846 27.8668C21.0108 29.7075 21.1566 30.7281 21.9584 31.129C23.1613 31.7669 24.3094 31.0744 24.3094 29.744C24.3094 27.3019 26.6058 25.6434 28.7563 26.5547C30.1049 27.1196 30.6699 28.9967 30.0502 30.8739C29.868 31.4206 29.1572 32.6417 28.4647 33.6258C26.5693 36.2866 25.5852 38.5464 25.5852 40.2413C25.5852 41.2254 26.223 41.9727 27.0432 41.9727C28.1549 41.9727 28.5376 41.4806 28.7745 39.731C28.9203 38.6922 29.5582 37.4347 30.9432 35.5029C32.3466 33.5893 32.9844 32.2772 33.2396 30.8374C33.4947 29.4888 33.3671 27.7393 32.948 26.7369C31.8727 24.149 28.9385 22.7457 26.0408 23.4018Z" fill="#806BFF"/>
<path d="M26.003 43.9803C25.2012 44.4724 24.8731 45.5112 25.2923 46.3131C26.1306 47.9169 28.354 47.6435 28.7914 45.8575C28.9555 45.2378 28.5181 44.3631 27.8802 43.9621C27.1694 43.5247 26.732 43.5247 26.003 43.9803Z" fill="#806BFF"/>
<path d="M51.539 48.4463C49.188 52.401 45.6888 55.9184 41.8252 58.2147L40.4766 59.0165L41.5518 59.053C42.6635 59.1077 45.3243 59.4175 45.8346 59.5815C46.0716 59.6544 46.1627 59.4904 46.2538 58.889C46.673 56.0824 49.1333 53.6767 52.268 53.0024C52.7783 52.8931 52.7783 52.8749 52.6325 52.0365C52.5596 51.5627 52.4502 50.287 52.3955 49.1753L52.2862 47.1706L51.539 48.4463Z" fill="#806BFF"/>
</svg>
