<svg width="21" height="17" viewBox="0 0 21 17" fill="none" xmlns="http://www.w3.org/2000/svg">
<path fill-rule="evenodd" clip-rule="evenodd" d="M19.007 5.74902V3.44902H8.41103L6.53703 1.94902H1.40703V5.74902H19.007ZM19.007 6.94902H1.40703V15.549H19.007V6.94902ZM1.20703 0.749023H6.95703L8.83203 2.24902H19.207C19.4722 2.24902 19.7266 2.35438 19.9141 2.54192C20.1017 2.72945 20.207 2.98381 20.207 3.24902V15.749C20.207 16.0142 20.1017 16.2686 19.9141 16.4561C19.7266 16.6437 19.4722 16.749 19.207 16.749H1.20703C0.941815 16.749 0.687461 16.6437 0.499924 16.4561C0.312388 16.2686 0.207031 16.0142 0.207031 15.749V1.74902C0.207031 1.48381 0.312388 1.22945 0.499924 1.04192C0.687461 0.85438 0.941815 0.749023 1.20703 0.749023Z" fill="white"/>
</svg>
