<svg width="24" height="22" viewBox="0 0 24 22" fill="none" xmlns="http://www.w3.org/2000/svg">
<path d="M9.65637 0.0220947C7.56757 0.261721 5.69127 1.12979 4.20831 2.53589C3.98677 2.75291 3.8014 2.90663 3.8014 2.87951C3.8014 2.7936 3.30859 2.29175 3.10965 2.17872C2.78412 1.9843 2.43147 1.90744 1.98839 1.93005C1.64478 1.94813 1.54983 1.97074 1.25595 2.11542C0.858086 2.30983 0.532559 2.63988 0.333625 3.04227C0.216074 3.28189 0.207031 3.34067 0.207031 3.84252C0.207031 4.35794 0.211552 4.39863 0.35171 4.69251C0.613941 5.23958 1.12032 5.63745 1.72164 5.75952L1.97483 5.81378L1.7985 6.33372C0.600377 9.92356 1.72616 13.9384 4.6107 16.3527C6.05749 17.5599 7.63087 18.229 9.65185 18.4913C10.0633 18.5455 11.3654 18.5184 11.8899 18.4461C13.2191 18.2562 14.58 17.7543 15.6605 17.0445L15.7691 16.9721L17.6228 19.1107C18.6446 20.2862 19.5669 21.3306 19.6754 21.4301C19.9421 21.6742 20.132 21.7872 20.4847 21.9048C20.7334 21.9907 20.8509 22.0043 21.2578 21.9862C21.6919 21.9681 21.7687 21.95 22.0716 21.8053C22.5599 21.5747 22.8855 21.2583 23.116 20.788C23.2969 20.4218 23.3104 20.3766 23.324 19.9335C23.3421 19.5538 23.324 19.4091 23.2472 19.1559C23.0663 18.5591 22.994 18.4777 20.6881 16.4884C19.5217 15.4756 18.5089 14.5985 18.4411 14.5352L18.3145 14.4222L18.4773 14.1735C18.7531 13.753 19.1961 12.8081 19.3815 12.2429C19.4765 11.9491 19.5578 11.7049 19.5624 11.6959C19.5624 11.6914 19.689 11.7411 19.8336 11.8089C20.0778 11.9265 20.1456 11.9355 20.6429 11.9355C21.1357 11.9355 21.2081 11.9219 21.4477 11.8134C21.7461 11.6733 22.153 11.3071 22.3067 11.0358C22.5147 10.6831 22.578 10.4028 22.5554 9.92808C22.5418 9.53926 22.5192 9.44883 22.3881 9.18208C21.9993 8.39087 21.077 7.9297 20.2586 8.12412C20.0959 8.16029 19.9331 8.2055 19.8969 8.22359C19.8382 8.24619 19.8155 8.18289 19.7703 7.84832C19.6935 7.27413 19.4719 6.45579 19.2368 5.85447C18.0297 2.81169 15.3938 0.673149 12.1656 0.112518C11.5191 0.00400925 10.2441 -0.0412006 9.65637 0.0220947ZM11.4016 0.840437C13.6712 1.0665 15.7374 2.17872 17.1571 3.92391C19.056 6.2659 19.5759 9.43979 18.518 12.2339C16.9581 16.3346 12.5771 18.5636 8.34522 17.4062C6.05749 16.7822 4.06815 15.1275 3.01019 12.9663C1.44584 9.77888 2.03812 5.9901 4.50219 3.41753C6.29711 1.54122 8.86968 0.582727 11.4016 0.840437ZM2.45408 2.78908C2.70274 2.86142 3.0554 3.19147 3.14582 3.42657L3.21816 3.62099L2.98758 3.96008C2.86099 4.14544 2.67109 4.4348 2.57163 4.61113C2.35461 4.98187 2.33652 4.99544 2.12403 4.99544C1.51366 4.99544 0.989202 4.47097 0.993723 3.85609C0.993723 3.517 1.12032 3.24572 1.38255 3.01514C1.68547 2.74839 2.06073 2.67153 2.45408 2.78908ZM21.1764 9.05097C21.5427 9.25442 21.7506 9.60708 21.7506 10.0366C21.7506 10.3486 21.6738 10.5339 21.4477 10.7826C21.2216 11.0358 20.9865 11.1443 20.6429 11.1443C20.1863 11.1443 19.7296 10.8595 19.7794 10.6108C19.8065 10.4797 19.8969 9.48952 19.8969 9.28155C19.8969 9.19565 19.9376 9.14139 20.0597 9.06905C20.4169 8.85655 20.8057 8.85203 21.1764 9.05097ZM19.9693 16.9586C21.1357 17.9668 22.1395 18.8439 22.1937 18.9117C22.5418 19.3141 22.6232 19.9019 22.3926 20.3902C22.2434 20.7067 22.0129 20.9237 21.6692 21.0819C21.4658 21.1723 21.3754 21.1904 21.1041 21.1723C20.6927 21.1543 20.4304 21.0277 20.132 20.7157C19.7523 20.3224 16.4608 16.5019 16.4698 16.4748C16.4789 16.4567 16.6371 16.303 16.827 16.1357C17.0124 15.9639 17.3063 15.6655 17.4826 15.4756C17.6544 15.2812 17.8081 15.123 17.8217 15.123C17.8353 15.123 18.8028 15.9503 19.9693 16.9586Z" fill="white"/>
<path d="M9.4749 1.99273C6.43212 2.46293 4.04944 4.74163 3.38482 7.81153C3.24918 8.4445 3.23562 9.89581 3.36673 10.5785C4.18959 15.0003 8.66108 17.6316 12.9562 16.221C14.8099 15.6152 16.4014 14.1955 17.2559 12.387C18.2189 10.3434 18.1737 7.911 17.1338 5.89906C16.0397 3.78765 14.0232 2.33634 11.6993 1.99273C11.1206 1.9023 10.0355 1.90682 9.4749 1.99273ZM11.6767 2.82011C13.7746 3.18181 15.5424 4.51557 16.4828 6.4416C16.6817 6.85303 16.9892 7.73467 16.9485 7.77988C16.9349 7.78893 16.1979 7.44984 15.3027 7.02484L13.6796 6.24719V5.76794C13.6796 5.29774 13.6751 5.27061 13.5078 4.94056C12.9246 3.75148 11.4055 3.47116 10.4244 4.37089C9.90893 4.84109 9.69643 5.59614 9.8818 6.28788C9.92702 6.45065 9.95414 6.58628 9.9451 6.59533C9.89085 6.64054 8.92331 7.3368 8.87357 7.36393C8.8374 7.38654 8.74698 7.35489 8.64751 7.28255C8.25869 7.0158 8.06428 6.96154 7.50817 6.96154C6.97014 6.96154 6.94754 6.97059 6.41403 7.24638C6.39595 7.25542 6.07042 6.97059 5.69064 6.61793C5.31085 6.26528 4.98985 5.96688 4.98533 5.96236C4.95368 5.93975 5.35155 5.38364 5.6409 5.03551C6.28744 4.24881 7.24141 3.56611 8.20895 3.19085C8.6882 3.00548 9.25788 2.84724 9.70096 2.78394C10.2073 2.7116 11.1297 2.72969 11.6767 2.82011ZM12.1921 4.74615C12.3956 4.82753 12.6533 5.07168 12.7663 5.28417C12.8387 5.42433 12.8613 5.55092 12.8613 5.78603C12.8613 6.15677 12.7618 6.39187 12.4996 6.62245C12.269 6.82139 12.0565 6.90277 11.7581 6.90277C11.3196 6.90729 10.9262 6.6541 10.7363 6.23815C10.3113 5.33391 11.2608 4.36185 12.1921 4.74615ZM5.48266 7.55834L5.83079 7.88387L5.71776 8.13706C5.40128 8.82881 5.59569 9.73305 6.17893 10.2846C7.21881 11.2657 8.94139 10.8272 9.36639 9.47534C9.47037 9.13625 9.47942 8.66604 9.38447 8.3586C9.3483 8.23653 9.31665 8.1235 9.31665 8.10541C9.31665 8.09185 9.56984 7.89291 9.8818 7.66685L10.447 7.25542L10.6821 7.40462C11.0121 7.60808 11.1251 7.65329 11.4642 7.70754C12.0475 7.80249 12.6352 7.61712 13.0828 7.21021L13.3225 6.99319L15.1038 7.84318C16.0849 8.31339 16.9485 8.72934 17.0208 8.77003L17.1519 8.84237L17.1248 9.46178C17.0389 11.2251 16.424 12.6357 15.1988 13.8609C14.2312 14.8239 13.1959 15.3846 11.8304 15.6739C11.211 15.805 10.0762 15.8141 9.45229 15.692C7.36349 15.2851 5.67255 14.0056 4.73666 12.1157C4.32523 11.2838 4.1263 10.47 4.09013 9.49343C4.05396 8.56205 4.16247 7.86579 4.48799 6.97059L4.58294 6.70836L4.85873 6.97059C5.01245 7.11527 5.29277 7.3775 5.48266 7.55834ZM7.96029 7.8477C8.23156 7.96978 8.40337 8.13706 8.52996 8.40833C8.78767 8.94636 8.57969 9.56124 8.04167 9.85964C7.3454 10.2394 6.48637 9.78278 6.39143 8.97801C6.29648 8.15062 7.1962 7.49957 7.96029 7.8477Z" fill="white"/>
</svg>
