<svg width="20" height="20" viewBox="0 0 20 20" fill="none" xmlns="http://www.w3.org/2000/svg">
<path d="M2.08842 0.104943L2 0.213922V7.4711C2 12.7788 2.01263 14.7565 2.04632 14.8292C2.10526 14.9543 2.28632 15.027 2.43789 14.9906C2.69053 14.9301 2.67368 15.4508 2.67368 7.70117V0.605438H10H17.3263V1.62661C17.3263 2.64375 17.3263 2.65182 17.4232 2.73658C17.5579 2.85767 17.7642 2.85363 17.8947 2.72447L18 2.6276V1.42076C18 0.258321 17.9958 0.209886 17.9116 0.104943L17.8274 6.71051e-07H10H2.17263L2.08842 0.104943Z" fill="white"/>
<path d="M17.4358 3.08651L17.3263 3.19104V11.296V19.397H10H2.67368V17.3546V15.3083L2.57684 15.2239C2.44211 15.1032 2.23579 15.1073 2.10526 15.2359L2 15.3324V17.5597C2 19.7548 2 19.7909 2.08842 19.8955L2.17263 20H10H17.8274L17.9116 19.8955L18 19.7869L17.9916 11.4729C17.9789 3.97902 17.9705 3.15084 17.9116 3.09455C17.8779 3.05837 17.7768 3.02219 17.6968 3.0061C17.5705 2.99002 17.5242 3.00208 17.4358 3.08651Z" fill="white"/>
<path d="M10.7654 4.83204C10.5745 4.38058 10.2759 3.98277 9.89565 3.67337C9.51543 3.36397 9.06519 3.15241 8.58429 3.05718C8.1034 2.96195 7.6065 2.98595 7.13702 3.12709C6.66755 3.26823 6.23981 3.5222 5.89118 3.86681C5.54256 4.21142 5.28368 4.63616 5.13717 5.10392C4.99065 5.57167 4.96097 6.06819 5.05072 6.55006C5.14047 7.03193 5.34691 7.48448 5.652 7.86816C5.95708 8.25183 6.35153 8.55493 6.80084 8.75098" stroke="white" stroke-width="0.6" stroke-linecap="round" stroke-linejoin="round"/>
<path d="M11.0012 6.00026C11.0012 6.39432 10.9236 6.78452 10.7728 7.14858C10.6219 7.51265 10.4009 7.84344 10.1222 8.12209C9.84349 8.40073 9.51264 8.62176 9.14851 8.77256C8.78439 8.92336 8.39412 9.00098 8 9.00098V6.00026H11.0012Z" stroke="white" stroke-width="0.6" stroke-linecap="round" stroke-linejoin="round"/>
<path d="M13.6524 10.0586C13.4688 10.1602 13.4766 10.0195 13.4766 13.8906V17.5586L13.5743 17.6523L13.668 17.75H14.7461C15.7696 17.75 15.8243 17.7461 15.8985 17.6719C15.9766 17.5937 15.9766 17.543 15.9766 15.0937C15.9766 12.6445 15.9766 12.5937 15.8985 12.5156C15.8165 12.4336 15.629 12.4141 15.5079 12.4766C15.3594 12.5547 15.3516 12.6953 15.3516 14.9414V17.125H14.7266H14.1016V13.8828V10.6406H14.7227H15.3438L15.3594 11.0742C15.3711 11.4922 15.375 11.5117 15.4805 11.6016C15.6133 11.7148 15.7383 11.7187 15.875 11.6133L15.9766 11.5352V10.8594C15.9766 10.2227 15.9727 10.1797 15.8946 10.1094C15.8204 10.0391 15.7344 10.0352 14.7696 10.0273C14.0586 10.0195 13.7071 10.0312 13.6524 10.0586Z" fill="white"/>
<path d="M9.55469 11.7148L9.45703 11.8086V14.6836V17.5586L9.55469 17.6523L9.64844 17.75H10.7188C11.7188 17.75 11.7969 17.7461 11.8828 17.6758L11.9766 17.6016V14.6836V11.7656L11.8828 11.6914C11.7969 11.6211 11.7188 11.6172 10.7188 11.6172H9.64844L9.55469 11.7148ZM11.3711 14.6836V17.125H10.7266H10.082V14.6836V12.2422H10.7266H11.3711V14.6836Z" fill="white"/>
<path d="M5.61176 14.0117C5.41645 14.1094 5.41645 14.1328 5.42426 15.9258L5.43598 17.6016L5.52973 17.6758C5.61567 17.7461 5.69379 17.75 6.69379 17.75H7.76411L7.85786 17.6523L7.95551 17.5586V15.8984C7.95551 14.7422 7.94379 14.207 7.91254 14.1406C7.8852 14.0859 7.81489 14.0234 7.74848 14C7.5727 13.9414 5.73676 13.9492 5.61176 14.0117ZM7.33051 15.8555V17.125H6.68598H6.04145V15.8555V14.5859H6.68598H7.33051V15.8555Z" fill="white"/>
</svg>
