<svg width="24" height="24" viewBox="0 0 24 24" fill="none" xmlns="http://www.w3.org/2000/svg">
<g clip-path="url(#clip0_8261_99016)">
<path d="M14.9286 0.0240612C14.6088 0.0740204 14.5639 0.103996 13.8744 0.698524C13.5397 0.988295 13.2149 1.2331 13.16 1.24809C13.1 1.26307 12.9202 1.20812 12.7353 1.12319C12.3206 0.928341 11.9709 0.91835 11.6112 1.08821C11.1266 1.31803 10.8718 1.71771 10.8768 2.2423C10.8768 2.4971 10.9617 2.76688 11.4513 4.09083C11.7711 4.94015 12.0409 5.67457 12.0609 5.71953C12.0808 5.77949 11.9859 5.85942 11.6512 6.04428C9.79265 7.08345 8.46871 8.85704 8.03905 10.8854C7.90915 11.5149 7.85419 12.644 7.93413 13.1586C7.9691 13.3635 8.05903 13.7232 8.14396 13.958C8.2239 14.1928 8.30384 14.4176 8.31882 14.4626C8.34381 14.5275 8.28385 14.5475 7.92913 14.5725C7.08481 14.6374 6.29044 14.9622 5.59599 15.5317C5.37616 15.7116 5.18132 15.8565 5.16633 15.8565C5.15134 15.8565 5.14135 15.8215 5.14135 15.7815C5.14135 15.6267 4.89155 15.212 4.7067 15.0621C4.37196 14.7823 4.18211 14.7573 2.59837 14.7573C1.77902 14.7573 1.08957 14.7773 0.984655 14.8073C0.669906 14.8972 0.340168 15.157 0.175299 15.4568L0.020422 15.7316L0.00543395 19.2738C-0.00955414 23.2756 -0.0195462 23.1757 0.35016 23.5753C0.73985 24 0.754838 24 2.59837 24C4.05721 24 4.23707 23.99 4.41693 23.9051C4.86157 23.7052 5.14135 23.2756 5.18132 22.736C5.19631 22.5512 5.2063 22.4013 5.2113 22.4013C5.21629 22.4013 5.90574 22.5362 6.74508 22.696C8.82342 23.1007 9.01827 23.1207 10.4371 23.1207C11.7111 23.1207 12.1258 23.0857 13.2399 22.8709C15.2883 22.4762 17.4066 21.532 19.0703 20.258C19.4899 19.9432 22.6674 17.2254 23.0171 16.8857C23.137 16.7757 23.3019 16.5359 23.3918 16.3611C23.5317 16.0763 23.5467 15.9914 23.5467 15.6117C23.5467 15.1071 23.4168 14.7623 23.0971 14.4076C22.8972 14.1878 22.4626 13.908 22.3177 13.908C22.2078 13.908 22.2128 13.928 22.3027 13.5733C22.5475 12.654 22.4626 11.2701 22.0979 10.161C21.908 9.59645 21.5233 8.82207 21.1736 8.30248C20.5691 7.40819 19.465 6.43396 18.5207 5.95934C18.2609 5.82944 18.2359 5.80446 18.2809 5.69955C18.3059 5.6396 18.5807 4.91517 18.8854 4.09083C19.395 2.72691 19.445 2.56204 19.45 2.2423C19.455 1.72771 19.2252 1.353 18.7555 1.1032C18.4458 0.938334 17.8912 0.953321 17.5415 1.13318C17.3816 1.21811 17.2417 1.25808 17.1668 1.24309C17.1068 1.2281 16.7971 0.988295 16.4823 0.708517C15.7379 0.0590324 15.4681 -0.060873 14.9286 0.0240612ZM15.4931 1.00328C15.583 1.07822 15.8428 1.30304 16.0677 1.50288C16.6122 1.97751 16.8171 2.08242 17.2317 2.08742C17.4865 2.09242 17.6214 2.06244 17.8512 1.95253C18.221 1.78266 18.3059 1.78266 18.4907 1.96752C18.6007 2.08242 18.6356 2.15237 18.6156 2.24729C18.6056 2.31724 18.3259 3.10161 18.0011 3.9959L17.4066 5.61462L15.1634 5.60462L12.9202 5.58964L12.3306 3.99091C12.0059 3.11161 11.7411 2.31724 11.7361 2.22731C11.7361 2.03246 11.9359 1.81763 12.1158 1.81763C12.1758 1.81763 12.3406 1.87759 12.4805 1.94753C12.6854 2.05744 12.8053 2.08242 13.08 2.08242C13.5397 2.08242 13.7295 1.9825 14.424 1.36799C15.0685 0.798445 15.1884 0.758476 15.4931 1.00328ZM18.0661 6.69376C19.3351 7.35323 20.3543 8.3974 20.9588 9.64641C21.5833 10.9454 21.7631 12.4342 21.4234 13.5283C21.3285 13.8431 21.3085 13.8681 21.0987 13.958C20.9788 14.0129 19.8596 14.7424 18.6106 15.5817C17.3616 16.421 16.3275 17.1055 16.3125 17.1055C16.2975 17.1055 16.2825 17.0605 16.2825 17.0056C16.2825 16.7008 15.8528 16.1662 15.4332 15.9514C15.2183 15.8365 15.1484 15.8315 13.6846 15.8015C11.7761 15.7615 11.5363 15.7116 10.3022 15.0871C10.0075 14.9372 9.70272 14.7973 9.62279 14.7823C9.46791 14.7424 9.36799 14.6125 9.14817 14.1828C8.83841 13.5583 8.76347 13.2136 8.76347 12.3593C8.76347 11.5249 8.82842 11.0953 9.06823 10.3758C9.59281 8.81707 10.7819 7.44816 12.2657 6.68876L12.7053 6.46394H15.1684H17.6314L18.0661 6.69376ZM22.0479 14.7174C22.3227 14.8023 22.5925 15.0821 22.6724 15.3719C22.7573 15.6616 22.6824 15.9714 22.4826 16.1962C22.2977 16.411 18.8754 19.3337 18.4208 19.6684C16.947 20.7576 15.1484 21.5819 13.3848 21.9716C12.4455 22.1764 11.816 22.2514 10.8118 22.2864C9.58282 22.3213 8.83841 22.2414 6.98988 21.8767C6.2055 21.7218 5.48108 21.5819 5.38116 21.5669L5.19131 21.537V19.2837V17.0305L5.69091 16.5859C6.65015 15.7416 7.2197 15.4718 8.11399 15.4218C8.75848 15.3868 9.17814 15.4868 9.93754 15.8615C11.3114 16.5409 11.6162 16.6059 13.5347 16.6508C14.8436 16.6758 15.0285 16.6908 15.1484 16.7707C15.608 17.0705 15.5681 17.715 15.0785 17.9648C14.9236 18.0447 14.6938 18.0547 12.5405 18.0547C10.1724 18.0547 10.1674 18.0547 10.0524 18.1646C9.90756 18.2995 9.89757 18.5943 10.0325 18.7592L10.1274 18.8791H12.6454H15.1584L15.4082 18.7642C15.5431 18.6992 15.703 18.6093 15.7579 18.5593C15.9478 18.3845 21.3535 14.7723 21.5033 14.7174C21.7032 14.6474 21.8031 14.6474 22.0479 14.7174ZM4.17212 15.7765L4.34199 15.9464V19.3437C4.34199 21.3871 4.322 22.796 4.29203 22.8709C4.26705 22.9408 4.18711 23.0358 4.10717 23.0857C3.98727 23.1657 3.8274 23.1757 2.71328 23.1906C1.27942 23.2106 1.09457 23.1807 0.939691 22.9358C0.844767 22.781 0.844767 22.6761 0.854759 19.3487C0.869747 15.9964 0.869747 15.9164 0.969667 15.8065C1.02462 15.7466 1.11455 15.6766 1.16951 15.6516C1.22446 15.6317 1.88394 15.6117 2.63834 15.6117L4.00226 15.6067L4.17212 15.7765Z" fill="white"/>
<path d="M14.8788 7.908C14.7739 7.99293 14.7589 8.05788 14.7439 8.4076C14.7239 8.78231 14.7139 8.81228 14.614 8.81228C14.4691 8.81728 14.0844 8.99214 13.9445 9.12703C13.8796 9.18698 13.7747 9.32687 13.7197 9.43679C13.6198 9.61664 13.6098 9.71157 13.6098 10.391C13.6098 11.1404 13.6098 11.1454 13.7597 11.3902C13.8546 11.5401 14.0045 11.69 14.1544 11.7799C14.3842 11.9248 14.4291 11.9348 15.0536 11.9498C15.903 11.9748 15.883 11.9598 15.883 12.6592C15.883 13.1039 15.868 13.2088 15.798 13.2737C15.7231 13.3387 15.5383 13.3537 14.7789 13.3687C13.9545 13.3836 13.8346 13.3936 13.7447 13.4786C13.5998 13.6085 13.5648 13.8183 13.6548 13.9982C13.7547 14.188 13.8096 14.208 14.3142 14.208H14.7339V14.5777C14.7339 14.8974 14.7489 14.9724 14.8538 15.0873C15.0087 15.2721 15.2735 15.2771 15.4583 15.1073C15.5732 15.0024 15.5832 14.9524 15.5832 14.6077V14.223L15.813 14.193C16.1328 14.158 16.4226 13.9432 16.5924 13.6135C16.7273 13.3587 16.7323 13.3137 16.7323 12.6592C16.7323 12.0047 16.7273 11.9598 16.5924 11.705C16.4925 11.5101 16.3876 11.3952 16.2077 11.2853C15.9779 11.1404 15.9329 11.1354 15.2935 11.1105C14.4491 11.0805 14.4341 11.0705 14.4341 10.401C14.4341 9.97636 14.4791 9.78151 14.604 9.70157C14.634 9.68159 15.0686 9.66161 15.5732 9.66161C16.4775 9.66161 16.4875 9.66161 16.6074 9.53671C16.7423 9.40681 16.7673 9.23694 16.6773 9.0471C16.5974 8.86724 16.4275 8.81228 15.9829 8.81228H15.5832V8.43758C15.5832 8.10285 15.5682 8.04289 15.4583 7.93798C15.3084 7.7831 15.0436 7.77311 14.8788 7.908Z" fill="white"/>
</g>
<defs>
<clipPath id="clip0_8261_99016">
<rect width="24" height="24" fill="white"/>
</clipPath>
</defs>
</svg>
