<svg width="20" height="20" viewBox="0 0 20 20" fill="none" xmlns="http://www.w3.org/2000/svg">
<g clip-path="url(#clip0_7768_235115)">
<path d="M6.30824 0.0249119C4.56601 0.28273 3.21441 0.935091 2.07376 2.07574C0.93701 3.2164 0.253399 4.61878 0.0346431 6.27117C-0.0395775 6.83759 0.011205 8.00168 0.132302 8.57982C0.472154 10.1892 1.31983 11.5916 2.57768 12.6346C4.7418 14.4276 7.85516 14.7714 10.3552 13.494C10.8318 13.2518 11.3084 12.9393 11.6756 12.6346L11.9334 12.4237L12.617 13.1073L13.3006 13.7909L12.742 14.3495C12.2459 14.8495 12.1873 14.9237 12.1873 15.0448C12.1873 15.1659 12.3436 15.33 14.3866 17.3769C15.5936 18.584 16.664 19.627 16.7655 19.6934C17.082 19.8965 17.3593 19.9746 17.832 19.9942C18.2187 20.0098 18.2968 19.9981 18.5664 19.9082C19.2383 19.6817 19.6797 19.2442 19.9023 18.584C19.9805 18.3418 20 18.2168 20 17.8847C20 17.4316 19.9062 17.1035 19.6914 16.7675C19.625 16.666 18.582 15.5956 17.3749 14.3847C15.328 12.3455 15.1639 12.1893 15.0428 12.1893C14.9217 12.1893 14.8475 12.2479 14.3475 12.744L13.7889 13.3026L13.1053 12.619L12.4217 11.9354L12.6561 11.6502C13.6951 10.3767 14.2577 8.78686 14.2577 7.13056C14.2577 4.05627 12.3553 1.38432 9.44895 0.372576C8.69893 0.110851 8.21454 0.0327244 7.2653 0.0210056C6.80435 0.0131912 6.37465 0.0170975 6.30824 0.0249119ZM8.41767 0.782743C9.28097 0.966341 10.2029 1.3726 10.8982 1.8648C11.3709 2.20465 12.0545 2.88827 12.3904 3.36093C12.9022 4.0797 13.3201 5.07582 13.5037 5.99772C13.6131 6.5407 13.6014 7.80636 13.4803 8.36106C13.2928 9.23999 12.9725 10.0134 12.5037 10.7127C11.5349 12.158 10.1169 13.1034 8.35908 13.4823C7.80828 13.6034 6.54262 13.6151 5.99573 13.5057C5.07383 13.3221 4.07772 12.9041 3.35895 12.3924C2.88628 12.0565 2.20267 11.3729 1.86281 10.9002C1.55031 10.4588 1.14014 9.65407 0.97998 9.16187C0.769037 8.52122 0.698723 8.09153 0.675285 7.30635C0.655753 6.67743 0.667472 6.51727 0.741692 6.07585C1.08936 4.02501 2.37455 2.27497 4.21444 1.35307C4.83164 1.04056 5.32775 0.876495 6.07386 0.739773C6.62856 0.638208 7.85516 0.65774 8.41767 0.782743ZM17.078 15.0292C19.414 17.3691 19.3164 17.2441 19.3164 17.9121C19.3164 18.2598 19.3047 18.3262 19.2109 18.5215C18.9297 19.0918 18.2968 19.4317 17.6913 19.334C17.2109 19.2559 17.207 19.2559 15.0194 17.0722L12.9881 15.0409L14.0038 14.0253C14.5624 13.4667 15.0272 13.0096 15.0389 13.0096C15.0507 13.0096 15.9686 13.9198 17.078 15.0292Z" fill="white"/>
<path d="M6.38323 4.39223C4.81288 4.62661 3.42222 5.42351 2.29328 6.73214C1.97687 7.09933 1.98077 7.16965 2.33625 7.56809C3.20346 8.54859 4.25818 9.26345 5.35977 9.62674C6.20744 9.90409 7.31685 9.97831 8.17234 9.81034C9.23487 9.5994 10.1958 9.11892 11.1216 8.34155C11.5631 7.97045 12.1295 7.35325 12.1685 7.20871C12.2076 7.04855 12.1138 6.8962 11.7193 6.47822C10.7037 5.40788 9.49268 4.70865 8.20359 4.45083C7.70358 4.35317 6.83637 4.32582 6.38323 4.39223ZM8.03171 5.09928C8.49657 5.18913 8.90283 5.32585 9.39112 5.56414C9.95754 5.84149 10.4263 6.17743 10.9654 6.69698L11.4068 7.12668L11.1021 7.43528C9.84816 8.70875 8.2075 9.37283 6.70355 9.22048C5.40274 9.08766 4.24255 8.51734 3.21518 7.50169L2.85189 7.1384L2.95736 7.00167C3.01596 6.92745 3.23081 6.71651 3.43394 6.53682C4.8246 5.30241 6.45354 4.79459 8.03171 5.09928Z" fill="white"/>
<path d="M6.69487 5.49008C6.37846 5.57602 6.17923 5.69321 5.93704 5.93541C5.69094 6.18541 5.57766 6.37683 5.49172 6.70887C5.28859 7.48232 5.67141 8.30266 6.38627 8.6386C7.83162 9.3144 9.31994 7.86514 8.65586 6.4198C8.31601 5.67368 7.48005 5.27914 6.69487 5.49008ZM7.5738 6.20885C7.77303 6.31042 8.02694 6.59168 8.09335 6.78309C8.15975 6.98231 8.15585 7.32998 8.07772 7.50576C7.92537 7.87296 7.53864 8.13859 7.15582 8.1425C6.85894 8.1425 6.66362 8.06828 6.45659 7.88077C6.20658 7.64639 6.12064 7.45888 6.12064 7.13075C6.11673 6.89637 6.13236 6.82606 6.23783 6.64246C6.36283 6.4198 6.61675 6.20885 6.85503 6.13463C7.02691 6.08385 7.39802 6.11901 7.5738 6.20885Z" fill="white"/>
</g>
<defs>
<clipPath id="clip0_7768_235115">
<rect width="20" height="20" fill="white"/>
</clipPath>
</defs>
</svg>
