<svg width="20" height="20" viewBox="0 0 20 20" fill="none" xmlns="http://www.w3.org/2000/svg">
<path d="M0 8.63389C0 7.85036 -1.18333e-07 7.23036 0.0364705 6.72566C0.075294 6.20801 0.154118 5.77036 0.330588 5.35507C0.621721 4.67222 1.09204 4.08077 1.69177 3.6433C2.05647 3.3786 2.46471 3.2033 2.96118 3.05036C3.44471 2.90095 4.04824 2.76095 4.81059 2.58566L8.86118 1.65036C10.0188 1.3833 10.9259 1.17389 11.6576 1.07154C12.4012 0.96801 13.0318 0.962128 13.6188 1.15272C14.568 1.45944 15.3736 2.10031 15.8859 2.95625C16.0541 3.23742 16.1718 3.54213 16.2541 3.87742L16.2812 3.88919C16.7809 4.09599 17.235 4.39921 17.6175 4.78154C18.0001 5.16386 18.3035 5.6178 18.5106 6.11742C18.6788 6.52448 18.7529 6.96448 18.7882 7.48683C18.8235 7.9986 18.8235 8.63154 18.8235 9.43625V9.45742H18.2353C18.7033 9.45742 19.1522 9.64335 19.4831 9.97429C19.8141 10.3052 20 10.7541 20 11.2221C20 11.6902 19.8141 12.139 19.4831 12.47C19.1522 12.8009 18.7033 12.9868 18.2353 12.9868H18.8235V13.008C18.8235 13.8127 18.8235 14.4457 18.7882 14.9574C18.7529 15.4798 18.6788 15.9198 18.5106 16.3268C18.3037 16.8267 18.0002 17.2808 17.6177 17.6634C17.2352 18.0459 16.781 18.3493 16.2812 18.5562C15.8741 18.7245 15.4341 18.7986 14.9129 18.8339C14.4 18.8692 13.7671 18.8692 12.9624 18.8692H6.20941C5.24353 18.8692 4.48235 18.8692 3.86824 18.8186C3.24471 18.768 2.72235 18.6621 2.24824 18.421C1.47318 18.0261 0.843055 17.396 0.448235 16.621C0.207059 16.1468 0.101176 15.6245 0.0505882 14.9998C-2.19135e-08 14.388 0 13.6268 0 12.6598V8.63389ZM9.09765 2.8033L5.75294 3.57507H12.9635C13.7635 3.57507 14.3953 3.57507 14.9059 3.61036L14.8776 3.55978C14.5119 2.94849 13.9366 2.49074 13.2588 2.27154C12.9176 2.16213 12.4929 2.14213 11.8224 2.23625C11.1471 2.33036 10.2906 2.52801 9.09882 2.8033M17.6165 7.56683C17.5847 7.10448 17.5235 6.80801 17.4247 6.56683C17.2737 6.2029 17.0512 5.87301 16.7703 5.59674C16.4894 5.32048 16.1558 5.10347 15.7894 4.9586L15.6059 4.91154C15.0129 4.7586 14.1906 4.75154 12.6882 4.75154H6.23529C5.23765 4.75154 4.52353 4.75154 3.96471 4.7986C3.41294 4.8433 3.06353 4.92801 2.78235 5.07154C2.19264 5.37257 1.72176 5.86377 1.44588 6.46566C1.33294 6.72919 1.26235 7.05742 1.22235 7.53977L1.20706 7.75742C1.17877 8.44135 1.16857 9.1259 1.17647 9.81036V12.6339C1.17647 13.6315 1.17647 14.3457 1.22353 14.9045C1.26824 15.4562 1.35294 15.8057 1.49647 16.0868C1.7787 16.6401 2.22883 17.0898 2.78235 17.3715C3.06353 17.5151 3.41294 17.601 3.96471 17.6468C4.52353 17.6927 5.23765 17.6927 6.23529 17.6927H12.9412C13.7718 17.6927 14.3647 17.6927 14.8318 17.661C15.2941 17.6292 15.5906 17.568 15.8318 17.4692C16.1886 17.3214 16.5128 17.1047 16.786 16.8316C17.0591 16.5585 17.2757 16.2343 17.4235 15.8774C17.5224 15.6362 17.5835 15.3398 17.6153 14.8774C17.6471 14.4104 17.6471 13.8174 17.6471 12.9868H15.8824C15.4143 12.9868 14.9655 12.8009 14.6345 12.47C14.3036 12.139 14.1176 11.6902 14.1176 11.2221C14.1176 10.7541 14.3036 10.3052 14.6345 9.97429C14.9655 9.64335 15.4143 9.45742 15.8824 9.45742H17.6471C17.6471 8.62683 17.6471 8.03389 17.6153 7.56683M15.8824 10.6339C15.7263 10.6339 15.5767 10.6959 15.4664 10.8062C15.3561 10.9165 15.2941 11.0661 15.2941 11.2221C15.2941 11.3781 15.3561 11.5278 15.4664 11.6381C15.5767 11.7484 15.7263 11.8104 15.8824 11.8104H18.2353C18.3913 11.8104 18.5409 11.7484 18.6512 11.6381C18.7616 11.5278 18.8235 11.3781 18.8235 11.2221C18.8235 11.0661 18.7616 10.9165 18.6512 10.8062C18.5409 10.6959 18.3913 10.6339 18.2353 10.6339H15.8824Z" fill="white"/>
</svg>
