<svg width="20" height="20" viewBox="0 0 20 20" fill="none" xmlns="http://www.w3.org/2000/svg">
<g clip-path="url(#clip0_9454_107671)">
<path d="M7.85241 0.0610628C7.44373 0.208883 7.13505 0.526264 7.01766 0.92625C6.97853 1.06103 6.95245 1.32189 6.95245 1.59144V2.03926L5.37859 2.0523L3.80039 2.06534L3.5091 2.20447C3.1265 2.38272 2.81347 2.69576 2.63522 3.07835L2.49609 3.36964V4.58699C2.49609 5.76087 2.50044 5.81304 2.59609 6.05651C2.72217 6.36519 3.10042 6.78692 3.4178 6.96517L3.64822 7.0956V9.60421V12.1172L3.74822 12.2085C3.89604 12.3476 4.13516 12.3389 4.25255 12.1911C4.34385 12.078 4.34385 12.0389 4.34385 9.69117C4.34385 7.70428 4.35255 7.30429 4.40472 7.30429C4.43515 7.30429 4.69601 7.35212 4.97861 7.40864C5.96118 7.60863 7.92632 7.86949 8.46543 7.86949H8.69151V8.53034C8.69151 9.27379 8.73064 9.39552 9.00454 9.56508C9.13932 9.64769 9.22628 9.65204 10.2915 9.65204C11.561 9.65204 11.6479 9.63899 11.8262 9.38683C11.9218 9.2477 11.9305 9.19553 11.9436 8.55642L11.961 7.87384L12.0957 7.8521C12.174 7.83906 12.4696 7.80862 12.7566 7.78254C13.5479 7.70863 14.7695 7.53907 15.5521 7.39125C15.9347 7.32168 16.2608 7.26082 16.2738 7.26082C16.2869 7.26082 16.2999 8.47382 16.2999 9.95637C16.2999 12.5954 16.2999 12.6519 16.3869 12.7389C16.4999 12.8519 16.7347 12.8519 16.8695 12.7432L16.9738 12.6606L16.9869 9.85638L16.9955 7.05213L17.226 6.9217C17.6781 6.66518 18.0259 6.1739 18.1259 5.65217C18.1825 5.35653 18.1825 3.8218 18.1259 3.51747C18.0216 2.96096 17.6086 2.42185 17.0955 2.18273L16.8434 2.06534L15.2739 2.0523L13.7044 2.03926L13.6783 1.52623C13.6522 0.887121 13.5609 0.656694 13.2305 0.352357C12.8348 -0.0085001 12.9087 0.000195503 10.3045 0.000195503C8.49587 0.0045433 7.98284 0.0175858 7.85241 0.0610628ZM12.6479 0.791472C12.9218 0.978422 12.9653 1.07842 12.987 1.5871L13.0087 2.0436H10.3262H7.64807V1.61753C7.64807 1.26102 7.66546 1.16972 7.74807 1.02625C7.93937 0.687128 7.8698 0.695824 10.3262 0.695824H12.5044L12.6479 0.791472ZM16.7564 2.82184C17.0173 2.93922 17.2042 3.11748 17.3347 3.3653C17.4477 3.57833 17.4521 3.61312 17.4651 4.44352C17.4825 5.43479 17.4434 5.7 17.239 5.96521C16.9738 6.31302 16.8347 6.37824 15.926 6.56519C14.8695 6.77822 13.8348 6.93909 12.8218 7.04778C12.3783 7.09126 12.0044 7.13038 11.9914 7.13038C11.974 7.13038 11.9566 6.96952 11.9436 6.76953C11.9305 6.48258 11.9044 6.37824 11.8262 6.26955C11.6349 5.99999 11.6001 5.99564 10.2567 6.00868L9.04802 6.02173L8.93063 6.13042C8.73934 6.30867 8.69151 6.4478 8.69151 6.8217V7.16517L8.42196 7.14343C6.67854 7.013 4.28733 6.62171 3.7917 6.38258C3.55692 6.27389 3.3265 6.00434 3.23954 5.74782C3.15259 5.50001 3.13955 3.80006 3.22215 3.56094C3.30041 3.33051 3.5004 3.06096 3.67431 2.95662C4.02647 2.73923 3.77865 2.74358 10.3871 2.74358C16.2912 2.73923 16.5912 2.74358 16.7564 2.82184ZM11.2566 7.80428V8.91293H10.3436H9.43062V7.80428V6.69562H10.3436H11.2566V7.80428Z" fill="white"/>
<path d="M18.0799 12.7168C17.9712 12.7516 17.6625 12.9472 17.3929 13.1516C16.8843 13.5342 16.3886 13.8429 15.8625 14.1081C15.6973 14.1907 15.5408 14.2994 15.5147 14.3428C15.406 14.5515 15.5104 14.7994 15.7321 14.8472C15.8365 14.8689 15.9408 14.8385 16.1973 14.7211C16.706 14.4776 17.3147 14.1037 17.8364 13.7081C18.419 13.269 18.5103 13.2429 18.8407 13.4342C18.9711 13.5081 19.1016 13.6081 19.1233 13.6516C19.1885 13.7777 19.1755 14.0081 19.0885 14.1342C19.0103 14.2559 17.2755 15.9471 16.3191 16.8428C14.5496 18.4905 13.9061 18.8601 12.3149 19.1296C11.3888 19.2905 10.4541 19.2557 9.88451 19.034C9.81495 19.0079 9.48453 18.8601 9.15411 18.7079C8.82369 18.5557 8.35414 18.3644 8.10632 18.2818C6.84115 17.8688 5.46294 17.8036 4.38907 18.1123C3.92387 18.2471 3.35433 18.5079 3.27172 18.6253C3.11521 18.847 3.28042 19.1862 3.54562 19.1862C3.61084 19.1862 3.82387 19.1166 4.01952 19.0296C4.54993 18.7862 4.976 18.6905 5.62381 18.6644C6.74116 18.6166 7.71068 18.8427 9.03237 19.4514C9.31497 19.5861 9.7193 19.747 9.93234 19.8122C10.2975 19.9253 10.3628 19.9296 11.1888 19.9296C12.454 19.934 13.4539 19.747 14.2322 19.3688C15.0756 18.9644 16.5408 17.721 18.7842 15.5167C19.7407 14.5733 19.8407 14.4385 19.8928 14.0081C19.9754 13.3124 19.3798 12.7038 18.5885 12.669C18.3929 12.656 18.2016 12.6777 18.0799 12.7168Z" fill="white"/>
<path d="M5.60357 12.7822C5.16011 12.8387 4.79055 12.9474 4.41666 13.1387C4.00798 13.3431 3.68625 13.63 3.408 14.043C3.29496 14.2082 3.10366 14.4343 2.98193 14.5517L2.75585 14.7604L2.74281 14.5647C2.73411 14.4387 2.69498 14.3343 2.63846 14.2691C2.54716 14.1735 2.52977 14.1735 1.38199 14.1735C0.303767 14.1735 0.216814 14.1778 0.121165 14.2561L0.016821 14.3387V15.8604C0.016821 17.2951 0.0211687 17.3864 0.0994266 17.4733C0.160294 17.5386 0.234204 17.5646 0.364634 17.5646C0.695056 17.5646 0.690709 17.5777 0.690709 16.1386V14.8691H1.34286H1.99501V17.0864V19.3037H1.34286H0.690709V18.982C0.690709 18.682 0.682013 18.6516 0.57767 18.569C0.44724 18.4646 0.351591 18.4559 0.195075 18.5255C0.0255164 18.6037 -0.0136126 18.7646 0.00377806 19.3255C0.0211687 20.0472 -0.0701322 19.9993 1.36894 19.9993C2.46021 19.9993 2.52107 19.995 2.60368 19.9124C2.68629 19.8298 2.69063 19.7689 2.69063 17.7255V15.6212L2.79063 15.5778C3.06453 15.4517 3.62103 14.9213 3.91667 14.5126C4.08189 14.2735 4.29927 14.0213 4.39926 13.9474C4.85577 13.6126 5.38618 13.4778 6.23833 13.4778C7.17307 13.4778 7.82957 13.643 9.40777 14.2822C11.0208 14.9343 12.2424 15.3039 13.7207 15.5908C14.5641 15.7517 14.7293 15.8256 14.8641 16.0908C14.9815 16.3125 14.9771 16.4995 14.851 16.6255C14.6771 16.7995 14.2772 16.8473 13.0598 16.8473C11.9033 16.8429 11.4599 16.7995 10.386 16.5821C9.69907 16.4386 9.60776 16.4386 9.48168 16.5908C9.40342 16.6821 9.38603 16.7386 9.40342 16.8429C9.4469 17.0429 9.51212 17.0864 9.98166 17.1994C11.1034 17.4777 12.6511 17.6081 13.7728 17.5255C14.9989 17.4342 15.3032 17.3212 15.5336 16.856C15.7641 16.3995 15.6858 15.8951 15.3119 15.443C15.0771 15.156 14.825 15.0604 13.925 14.9126C12.5729 14.6865 11.7468 14.4343 9.71211 13.617C8.48172 13.1257 8.09913 12.9952 7.46437 12.8648C6.96439 12.7648 6.05572 12.7213 5.60357 12.7822Z" fill="white"/>
</g>
<defs>
<clipPath id="clip0_9454_107671">
<rect width="20" height="20" fill="white"/>
</clipPath>
</defs>
</svg>
