<svg width="16" height="20" viewBox="0 0 16 20" fill="none" xmlns="http://www.w3.org/2000/svg">
<path d="M3.75315 0.036396C3.53554 0.128275 2.72797 0.626356 2.47652 0.819786C1.30626 1.73374 0.440666 3.15062 0.111835 4.67871C0.0199561 5.10426 0.000613138 5.34121 0.000613138 6.12944C-0.00422261 6.70972 0.0199561 7.21264 0.0586421 7.43509C0.2424 8.4651 0.547053 9.43709 0.98227 10.3607C1.19504 10.8056 3.39531 14.65 3.94658 15.535C5.42148 17.8948 7.48635 19.4713 9.66727 19.892C11.1422 20.1724 12.883 19.8968 14.121 19.1811C14.7255 18.8329 14.7835 18.7846 14.9431 18.4993C15.0736 18.2623 15.0833 18.2043 15.0785 17.7836C15.0736 17.0389 14.8028 16.3619 14.0098 15.0997C13.1055 13.6684 12.4478 13.0784 11.5967 12.9382C11.0019 12.8366 10.6779 12.9382 9.60924 13.5475C9.17886 13.7941 9.08215 13.8279 8.86454 13.8279C8.52603 13.8231 8.08115 13.6007 7.80067 13.3008C7.67011 13.1558 7.114 12.2515 6.35962 10.9555C5.26674 9.06473 5.13134 8.8036 5.08298 8.52313C5.0443 8.28618 5.0443 8.14111 5.08782 7.93317C5.1797 7.47861 5.29576 7.35771 6.0453 6.92733C6.79 6.50179 7.09949 6.22615 7.28808 5.82962C7.69912 4.96402 7.5202 4.02105 6.63526 2.3914C6.16135 1.51613 5.78417 0.974529 5.36829 0.577999C4.91857 0.152452 4.64777 0.0170536 4.20288 0.00254631C4.01912 -0.00712585 3.81602 0.0122166 3.75315 0.036396ZM4.43016 1.21148C4.84603 1.53064 5.31026 2.20281 5.86154 3.28602C6.2484 4.0549 6.37896 4.4611 6.37896 4.93017C6.37896 5.22999 6.35962 5.3267 6.27741 5.43792C6.22422 5.51046 5.87605 5.75225 5.50369 5.96502C4.61875 6.48728 4.46884 6.62268 4.23189 7.11109C3.9224 7.74457 3.87405 8.52313 4.10616 9.17596C4.14968 9.29685 4.75415 10.3801 5.4505 11.589C6.91573 14.1278 7.03179 14.2825 7.76199 14.6307C8.71463 15.0852 9.20787 15.0417 10.3539 14.3937C10.7263 14.181 11.1132 13.9924 11.2099 13.9779C11.6499 13.9102 12.2689 14.4518 12.9653 15.5253C13.6471 16.5698 13.9953 17.3339 13.9953 17.7884C13.9953 18.006 13.9566 18.0399 13.2457 18.3881C12.4091 18.7991 11.2969 19.0022 10.4265 18.9055C9.25623 18.7701 8.29392 18.3735 7.23489 17.5805C6.41765 16.9663 5.53271 15.9799 4.91373 15.003C4.31893 14.0552 2.109 10.1673 1.90106 9.70789C1.62059 9.0744 1.35462 8.29101 1.21439 7.6527C1.12251 7.23682 1.108 7.02888 1.11283 6.12944C1.11283 5.15261 1.12251 5.06074 1.2434 4.60618C1.40298 4.02589 1.81402 3.1748 2.14285 2.74441C2.53454 2.22699 3.19221 1.62736 3.69996 1.32754C3.95142 1.17763 4.16903 1.05674 4.18837 1.0519C4.20288 1.0519 4.3141 1.12444 4.43016 1.21148Z" fill="white"/>
</svg>
