<svg width="20" height="15" viewBox="0 0 20 15" fill="none" xmlns="http://www.w3.org/2000/svg">
<path d="M16.7031 0.910445C16.6602 0.918258 16.2461 1.06669 15.7813 1.23856C14.8751 1.57449 14.711 1.66824 14.5665 1.94949C14.5001 2.07448 14.4805 2.18386 14.4805 2.38698C14.4805 2.53541 14.4883 2.68775 14.4962 2.719C14.5118 2.76588 14.4688 2.7815 14.2891 2.78931C14.0274 2.80103 13.8907 2.76197 13.1329 2.45729C12.297 2.12136 12.0782 2.07448 11.3907 2.07448C10.8322 2.07448 10.7892 2.0823 10.4337 2.20339C10.2306 2.2737 9.9689 2.38698 9.85172 2.45338L9.64079 2.57057L9.26579 2.39088C8.45331 2.00027 7.78145 1.94558 6.60569 2.16823C6.25023 2.23464 5.81664 2.30104 5.64087 2.31667L5.32056 2.3401L5.29322 2.22682C5.22681 1.94949 5.04322 1.7073 4.80885 1.58621C4.73464 1.54715 4.30886 1.39872 3.86747 1.25809C2.92217 0.953413 2.7503 0.937788 2.42218 1.10966C2.29719 1.17606 2.16828 1.28153 2.10578 1.37137C2.03157 1.48075 1.69954 2.45729 1.00034 4.6174C-0.124639 8.10561 -0.101202 8.01967 0.12145 8.41029C0.187855 8.52357 0.30504 8.66029 0.387069 8.71107C0.465193 8.76575 0.918308 8.92981 1.38705 9.08215C2.3714 9.39855 2.52765 9.41808 2.85186 9.25793C2.96124 9.19934 3.0628 9.16418 3.07451 9.1759C3.08623 9.18371 3.00811 9.35168 2.90264 9.54308C2.62921 10.0509 2.58234 10.1837 2.58234 10.4923C2.58234 11.2305 3.08623 11.7696 3.78544 11.7891L3.99637 11.7969L3.96903 12.0118C3.92997 12.3946 4.09402 12.8399 4.37527 13.1016C4.70729 13.4102 5.29712 13.5117 5.73462 13.336L5.97289 13.2383L6.0432 13.3907C6.12523 13.5703 6.43773 13.875 6.62913 13.9531C6.94553 14.086 7.37911 14.0977 7.67989 13.9844C7.71114 13.9688 7.76582 14.0391 7.82832 14.1797C7.95723 14.457 8.26581 14.7656 8.54315 14.8945C8.85174 15.0352 9.24236 15.0352 9.51579 14.8945C9.72672 14.7891 9.99625 14.5274 10.0978 14.3281L10.1603 14.207L10.383 14.3086C10.5587 14.3867 10.672 14.4102 10.8829 14.4102C11.2033 14.4102 11.3751 14.3477 11.6056 14.1406C11.8517 13.918 11.9689 13.6563 11.9728 13.3164L11.9767 13.0313H12.1212C12.2032 13.0313 12.3517 13.0039 12.4532 12.9688C12.9688 12.793 13.3126 12.336 13.336 11.793L13.3438 11.586L13.4805 11.6173C14.3048 11.793 15.0586 11.254 15.1446 10.4259L15.1719 10.1915L15.4336 10.211C15.7813 10.2345 15.9297 10.2032 16.1485 10.0587C16.4922 9.83214 16.711 9.31262 16.6719 8.82435C16.6641 8.68763 16.6602 8.57826 16.668 8.57826C16.6758 8.57826 16.711 8.64076 16.7461 8.71497C16.8359 8.91028 17.1172 9.14465 17.3281 9.20324C17.6055 9.28137 17.8203 9.23449 18.7109 8.90637C19.621 8.56654 19.7773 8.47279 19.9257 8.16811C19.996 8.01967 20.0078 7.94155 19.996 7.70718C19.9804 7.45719 19.8632 7.12126 18.8945 4.51584C18.2969 2.91431 17.7851 1.54324 17.7539 1.46903C17.6797 1.29716 17.4883 1.09404 17.3086 1.00029C17.1641 0.92607 16.8359 0.87529 16.7031 0.910445ZM17.0352 1.52762C17.0977 1.55887 17.168 1.62137 17.1914 1.66434C17.2148 1.7073 17.7344 3.09009 18.3437 4.73459C19.3711 7.50015 19.457 7.74234 19.4179 7.85952C19.3945 7.92983 19.3359 8.01186 19.289 8.04311C19.1406 8.13686 17.6992 8.65638 17.582 8.65638C17.3398 8.65638 17.3359 8.64857 16.1719 5.51191C15.5664 3.87913 15.0625 2.49635 15.0508 2.44166C15.0196 2.24636 15.1329 2.10964 15.4219 2.00027C16.1797 1.7073 16.8242 1.47293 16.8711 1.46903C16.8984 1.46903 16.9727 1.49637 17.0352 1.52762ZM3.78153 1.84402C4.51589 2.0823 4.5862 2.11355 4.65651 2.22682C4.69557 2.29323 4.73073 2.37916 4.73073 2.41432C4.73073 2.50026 2.78546 8.52748 2.72686 8.62122C2.67608 8.70325 2.53156 8.77357 2.42218 8.77357C2.37531 8.77357 1.98469 8.66029 1.55111 8.51966C0.754249 8.26186 0.633158 8.19936 0.574565 8.00796C0.558941 7.95718 0.90659 6.82048 1.5433 4.84396C2.61749 1.51981 2.59015 1.58621 2.85967 1.58621C2.92608 1.58621 3.34013 1.7034 3.78153 1.84402ZM8.20331 2.64478C8.41425 2.67603 9.06658 2.89478 9.06658 2.92994C9.06658 2.93775 8.60174 3.40649 8.03535 3.97288C7.46895 4.53928 6.94162 5.10177 6.8635 5.21895C6.66819 5.51582 6.6721 5.65254 6.89084 5.91034C7.37911 6.48064 7.85957 6.71501 8.53924 6.71892C8.99627 6.72283 9.3322 6.6408 10.2541 6.31268C11.4064 5.89862 11.6564 5.87909 12.1407 6.16424C12.2853 6.25018 12.8126 6.52361 13.3048 6.7697C15.6641 7.95327 16.168 8.36342 16.086 9.0509C16.043 9.41418 15.8243 9.65245 15.5547 9.64855C15.3868 9.64464 15.2422 9.57042 13.1524 8.43373C11.8712 7.74234 11.7462 7.69156 11.5978 7.82437C11.4923 7.91811 11.504 8.1642 11.6173 8.25404C11.6681 8.29311 12.2774 8.63294 12.9727 9.00794C13.6993 9.40246 14.2891 9.7462 14.3594 9.82042C14.5118 9.97276 14.5938 10.2306 14.5547 10.4493C14.4844 10.8634 14.0079 11.168 13.6251 11.043C13.5509 11.0157 12.9845 10.7227 12.3634 10.3907C10.754 9.52355 10.7228 9.50793 10.5822 9.53527C10.4962 9.5548 10.4494 9.59777 10.4103 9.69542C10.3048 9.94151 10.3517 9.98057 11.4259 10.5548C11.961 10.8438 12.4532 11.1251 12.5157 11.1837C12.8243 11.4766 12.8438 11.8868 12.5704 12.1993C12.4181 12.3711 12.2501 12.4454 12.0118 12.4454C11.8087 12.4454 11.6407 12.3672 10.3244 11.6563C9.88297 11.4219 9.56266 11.2735 9.49235 11.2735C9.21501 11.2735 9.12126 11.6407 9.35954 11.8008L9.48063 11.879L9.25798 11.8829L9.03924 11.8868L9.01189 11.6485C8.96502 11.1993 8.69549 10.797 8.30487 10.5977C8.133 10.5118 7.76192 10.4532 7.56661 10.4767L7.39864 10.5001L7.3713 10.3517C7.29708 9.94151 7.01974 9.57433 6.66428 9.39855C6.50413 9.32043 6.40648 9.3048 6.12914 9.3009H5.7854L5.74633 9.10168C5.67212 8.75794 5.35572 8.3517 5.02369 8.17983C4.8362 8.07827 4.35574 8.04311 4.11746 8.10561C4.02762 8.12905 3.86356 8.21108 3.75419 8.28529L3.55107 8.42201L3.57841 8.17983C3.61747 7.8478 3.64091 7.76968 4.47683 5.17598L5.21509 2.89087L5.58618 2.88697C5.82055 2.88306 6.21507 2.83619 6.62522 2.76197C7.60567 2.58619 7.77754 2.57447 8.20331 2.64478ZM12.1134 2.72291C12.2735 2.76588 12.6642 2.90259 12.9806 3.0315C13.7501 3.34008 13.9649 3.39477 14.3985 3.37524L14.7501 3.36352L15.6133 5.68769C16.0899 6.96501 16.461 8.01967 16.4414 8.02749C16.4219 8.03139 16.2969 7.93374 16.1602 7.80483C15.7383 7.39859 15.0704 6.99626 13.3829 6.14081C12.9337 5.91034 12.4493 5.66035 12.3087 5.58613C11.8009 5.3166 11.297 5.32832 10.4142 5.633C8.91033 6.15643 9.00017 6.12909 8.57831 6.13299C8.23847 6.13299 8.16035 6.12128 7.97285 6.03534C7.85567 5.98065 7.66426 5.85175 7.55098 5.75019L7.34786 5.56269L7.42989 5.44941C7.56661 5.25801 8.58221 4.22288 9.0822 3.76586C10.2228 2.72681 11.0275 2.44948 12.1134 2.72291ZM4.76589 8.71107C5.02369 8.84778 5.23072 9.21106 5.18385 9.44933C5.1526 9.59386 4.48073 10.8673 4.36355 10.9923C4.00418 11.3907 3.34404 11.2345 3.18779 10.7149C3.10967 10.4493 3.14482 10.336 3.5081 9.65636C3.90653 8.91419 3.96512 8.82825 4.13309 8.73841C4.30886 8.64466 4.61354 8.63294 4.76589 8.71107ZM6.40648 9.9376C6.48069 9.97276 6.59397 10.0704 6.66038 10.1524C6.76584 10.2853 6.78147 10.336 6.78147 10.5431C6.78147 10.7735 6.76584 10.8165 6.39476 11.5079C5.84008 12.5469 5.77368 12.6485 5.5979 12.75C5.41822 12.8477 5.14478 12.8633 4.95338 12.7813C4.69557 12.6758 4.50027 12.3126 4.55105 12.0391C4.57839 11.8907 5.42603 10.2931 5.57446 10.1095C5.62915 10.0353 5.73462 9.95323 5.80102 9.92198C5.96899 9.84776 6.25023 9.85557 6.40648 9.9376ZM7.99238 11.1134C8.27753 11.2423 8.47284 11.5704 8.42987 11.8438C8.40253 12.0118 7.84395 13.0782 7.69161 13.25C7.28146 13.7188 6.54319 13.461 6.49632 12.836C6.48069 12.6094 6.4846 12.5938 6.82444 11.9571C7.17209 11.293 7.28536 11.1524 7.53145 11.0782C7.70332 11.0274 7.82442 11.0352 7.99238 11.1134ZM11.1251 12.7735C11.422 12.9688 11.4884 13.3555 11.2775 13.6367C11.1329 13.8242 10.922 13.8867 10.6994 13.7969C10.4298 13.6953 10.4298 13.6953 10.4962 13.5C10.633 13.1055 10.6056 12.75 10.4142 12.4649L10.3126 12.3204L10.6564 12.504C10.8439 12.6055 11.0548 12.7266 11.1251 12.7735ZM9.67594 12.5821C10.0705 12.8125 10.0861 13.043 9.76578 13.6875C9.43376 14.3399 9.19158 14.5234 8.84783 14.3789C8.53924 14.25 8.28925 13.9102 8.28534 13.6133C8.28534 13.4336 8.55487 12.9063 8.75018 12.7071C9.02361 12.4297 9.34001 12.3868 9.67594 12.5821Z" fill="white"/>
</svg>
