<svg width="20" height="20" viewBox="0 0 20 20" fill="none" xmlns="http://www.w3.org/2000/svg">
<path d="M14.3307 1.23109C13.3103 1.49287 12.5303 2.29957 12.3166 3.31997C12.2204 3.79011 12.2204 3.97175 12.3166 4.44188C12.4288 4.96544 12.6745 5.44092 13.0325 5.79886L13.3317 6.10872L13.0111 6.27968C12.0922 6.75515 11.4244 7.6046 11.1626 8.625C11.0878 8.91884 11.0611 9.20733 11.0611 9.71486V10.3987H9.70416H8.34718L8.39526 10.1957C8.47006 9.88047 8.44869 9.06308 8.36321 8.71582C7.96787 7.16652 6.62692 6.10338 5.05091 6.10338C3.94503 6.10338 2.98339 6.55748 2.33161 7.38556C1.84011 8.01597 1.60505 8.69445 1.60505 9.51719C1.60505 10.6124 2.04847 11.5366 2.90325 12.2205L3.15969 12.4235L2.80709 12.5837C2.24614 12.8402 1.75463 13.1928 1.30053 13.6736C0.638067 14.3841 0.237385 15.1962 0.0771128 16.1685C0.00231891 16.628 -0.0297356 18.5886 0.0343734 18.7596C0.130537 19.0053 -0.0778173 19 7.28938 19C11.168 19 14.2612 18.9786 14.3307 18.9519C14.4589 18.9038 19.9242 11.184 19.9883 10.965C20.0311 10.8101 19.9509 10.5643 19.8387 10.4735C19.78 10.4307 19.593 10.404 19.3365 10.3987H18.9252L18.8985 9.5813C18.8718 8.73719 18.7916 8.37925 18.4978 7.80761C18.1879 7.19323 17.472 6.48803 16.8844 6.22091L16.6279 6.10338L16.9431 5.76681C17.4667 5.20585 17.6857 4.65024 17.6857 3.88093C17.6857 2.69491 16.9912 1.69588 15.8907 1.31122C15.49 1.17232 14.7207 1.12958 14.3307 1.23109ZM15.7785 2.14464C16.1578 2.32094 16.5104 2.66286 16.7081 3.03148C16.8416 3.29326 16.8577 3.3734 16.8577 3.85422C16.8577 4.32435 16.8416 4.42586 16.7134 4.69298C16.5318 5.08298 16.1899 5.42489 15.7838 5.62256C15.506 5.76146 15.4099 5.77749 14.9878 5.77749C14.6032 5.77749 14.4536 5.75078 14.2452 5.65461C13.4385 5.28599 12.947 4.43654 13.0806 3.64052C13.2088 2.87121 13.6682 2.31026 14.3895 2.05382C14.7848 1.91492 15.3725 1.95231 15.7785 2.14464ZM15.7892 6.6857C16.3394 6.80324 16.7989 7.05433 17.237 7.48707C17.862 8.10145 18.1024 8.69445 18.1505 9.74157L18.1826 10.3987H14.9878H11.793L11.8304 9.76294C11.8465 9.41568 11.8999 8.99363 11.948 8.82267C12.2098 7.80227 13.1393 6.91008 14.1811 6.6857C14.6192 6.58954 15.3351 6.58954 15.7892 6.6857ZM5.692 7.00625C6.81925 7.30008 7.64198 8.37391 7.64198 9.5439C7.64198 10.2491 7.39089 10.8528 6.89404 11.3603C5.87898 12.3968 4.30831 12.4395 3.24517 11.4672C2.35833 10.6551 2.13395 9.47445 2.6575 8.38459C2.8338 8.01597 3.4001 7.42296 3.74201 7.24666C4.35639 6.93145 5.06159 6.84598 5.692 7.00625ZM18.7702 11.2748C18.7489 11.3122 17.6483 12.8883 16.3288 14.7741L13.93 18.1986H11.9961H10.0621L10.03 17.1943C10.0087 16.4036 9.98196 16.1044 9.8858 15.7678C9.64005 14.8543 9.07375 13.9461 8.37389 13.3477C7.99992 13.0218 7.33746 12.6158 7.04363 12.525L6.84596 12.4662L7.15048 12.2418C7.43363 12.0388 7.81294 11.6007 7.95719 11.3176L8.02129 11.2001H13.4171C17.9368 11.2001 18.8076 11.2107 18.7702 11.2748ZM6.30638 13.1233C7.2039 13.3798 8.05869 14.0048 8.57156 14.7741C9.08444 15.5434 9.24471 16.1525 9.24471 17.3545V18.1986H5.0242H0.803682V17.3278C0.803682 16.3021 0.899846 15.8106 1.22573 15.1588C1.80806 14.0048 2.89257 13.2195 4.19612 13.0111C4.6716 12.9363 5.86296 13.0004 6.30638 13.1233Z" fill="white"/>
</svg>
