<svg width="24" height="24" viewBox="0 0 24 24" fill="none" xmlns="http://www.w3.org/2000/svg">
<g clip-path="url(#clip0_9485_37878)">
<path d="M16.6823 21.8185V19.7276C16.6823 18.6186 16.2417 17.5549 15.4574 16.7707C14.6732 15.9865 13.6095 15.5459 12.5004 15.5459H5.18195C4.07283 15.5459 3.00913 15.9865 2.22486 16.7707C1.4406 17.5549 1 18.6186 1 19.7276V21.8185" stroke="white" stroke-width="1.1" stroke-linecap="round" stroke-linejoin="round"/>
<path d="M8.8421 11.3634C11.1517 11.3634 13.0241 9.49122 13.0241 7.18172C13.0241 4.87222 11.1517 3 8.8421 3C6.53248 3 4.66016 4.87222 4.66016 7.18172C4.66016 9.49122 6.53248 11.3634 8.8421 11.3634Z" stroke="white" stroke-width="1.1" stroke-linecap="round" stroke-linejoin="round"/>
<path d="M17.7266 11.3633L19.8175 13.4542L23.9995 9.27246" stroke="white" stroke-width="1.1" stroke-linecap="round" stroke-linejoin="round"/>
</g>
<defs>
<clipPath id="clip0_9485_37878">
<rect width="24" height="24" fill="white"/>
</clipPath>
</defs>
</svg>
