<svg width="20" height="21" viewBox="0 0 20 21" fill="none" xmlns="http://www.w3.org/2000/svg">
<path d="M2.256 6.86922H0.688V5.74922H3.536V16.9492H2.256V6.86922ZM8.71463 4.14922H9.99463L6.13863 18.5492H4.89062L8.71463 4.14922ZM18.256 5.74922V6.86922H12.592V10.5972C12.8373 10.2559 13.1947 9.97855 13.664 9.76522C14.1333 9.55189 14.6613 9.44522 15.248 9.44522C15.9307 9.44522 16.5067 9.55722 16.976 9.78122C17.4453 10.0052 17.824 10.2986 18.112 10.6612C18.4107 11.0239 18.624 11.4239 18.752 11.8612C18.8907 12.2879 18.96 12.7092 18.96 13.1252C18.96 13.8292 18.8107 14.4799 18.512 15.0772C18.224 15.6746 17.7867 16.1546 17.2 16.5172C16.624 16.8799 15.904 17.0612 15.04 17.0612C14.2933 17.0612 13.6373 16.9279 13.072 16.6612C12.5173 16.3946 12.0693 16.0266 11.728 15.5572C11.3973 15.0772 11.184 14.5226 11.088 13.8932H12.336C12.4853 14.5546 12.7947 15.0612 13.264 15.4132C13.744 15.7546 14.336 15.9252 15.04 15.9252C15.6373 15.9252 16.128 15.8079 16.512 15.5732C16.9067 15.3386 17.1947 15.0132 17.376 14.5972C17.568 14.1812 17.664 13.7012 17.664 13.1572C17.664 12.3359 17.44 11.7012 16.992 11.2532C16.544 10.8052 15.904 10.5812 15.072 10.5812C14.464 10.5812 13.936 10.7146 13.488 10.9812C13.0507 11.2479 12.7253 11.6212 12.512 12.1012H11.312V5.74922H18.256Z" fill="white"/>
</svg>
