<svg width="20" height="20" viewBox="0 0 20 20" fill="none" xmlns="http://www.w3.org/2000/svg">
<path d="M1.17763 0.709633C0.7105 0.827394 0.306183 1.15713 0.105986 1.58893L0 1.81267V9.32985V16.847L0.105986 17.0708C0.317959 17.5222 0.765456 17.8716 1.25613 17.9658C1.42885 17.9972 3.36016 18.005 8.38077 17.9972L15.2699 17.9854L15.4975 17.8951C15.949 17.7106 16.2905 17.3495 16.4279 16.9098C16.4907 16.7096 16.5064 16.5487 16.5064 16.0973V15.5359L17.8921 15.5242C19.4347 15.5124 19.4151 15.5163 19.7056 15.2258C19.9804 14.955 20 14.8765 20 13.9069C20 13.3613 19.9843 12.9923 19.9529 12.8941C19.894 12.6979 19.6467 12.4152 19.4347 12.3014C19.2777 12.219 19.2306 12.215 17.8921 12.2033L16.5064 12.1915V11.1748C16.5064 10.6174 16.4946 10.1306 16.4828 10.0953C16.4514 10.0207 16.2669 9.91866 16.1531 9.91866C16.106 9.91866 16.0157 9.96969 15.9529 10.0325L15.8391 10.1463V11.1709V12.1954H12.7694H9.69971L8.63592 12.8627C7.65456 13.4751 7.55643 13.53 7.38763 13.53C7.14033 13.53 6.99902 13.6517 6.99902 13.8637C6.99902 14.0757 7.14033 14.1974 7.37978 14.1974C7.5368 14.1974 7.65849 14.2602 8.62022 14.8647L9.684 15.532H12.7615H15.8391V16.0737C15.8391 16.5762 15.8312 16.6311 15.7409 16.8156C15.6232 17.0511 15.4347 17.2082 15.1796 17.2827C15.0343 17.3298 13.8528 17.3377 8.22767 17.3377C3.68204 17.3377 1.4053 17.322 1.30716 17.2984C1.08734 17.2356 0.840039 17.0276 0.730128 16.8078L0.628067 16.6154L0.616291 10.951L0.60844 5.28667H8.22375H15.8391V6.28765C15.8391 7.5006 15.8587 7.56341 16.1963 7.56341C16.2669 7.56341 16.3494 7.52416 16.4082 7.46527L16.5064 7.37106V4.68608C16.5064 2.11493 16.5025 1.98539 16.4279 1.74987C16.2905 1.31022 15.949 0.949083 15.4975 0.764587L15.2699 0.674303L8.32188 0.666452C2.88126 0.662527 1.33072 0.670378 1.17763 0.709633ZM15.1796 1.37695C15.4347 1.45154 15.6232 1.60855 15.7409 1.84408L15.8391 2.04427V3.35144V4.6586H8.21982H0.604514L0.616291 3.35144C0.628067 2.0482 0.628067 2.04427 0.726202 1.85585C0.840039 1.63603 1.04024 1.45939 1.26006 1.38088C1.48773 1.29844 14.9127 1.29452 15.1796 1.37695ZM17.1344 13.8637V14.8647H13.6408H10.1472V13.8637V12.8627H13.6408H17.1344V13.8637ZM19.1874 12.9412C19.3366 13.059 19.3719 13.2435 19.3719 13.8637C19.3719 14.4839 19.3366 14.6684 19.1874 14.7862C19.0972 14.8568 19.0304 14.8647 18.4455 14.8647H17.8018V13.8637V12.8627H18.4455C19.0304 12.8627 19.0972 12.8706 19.1874 12.9412ZM9.47203 14.217L9.46026 14.5899L8.87929 14.2288C8.49853 13.9932 8.31796 13.8598 8.34936 13.8402C8.37684 13.8245 8.63984 13.6596 8.93032 13.4751L9.46026 13.1454L9.47203 13.4908C9.47596 13.6831 9.47596 14.0089 9.47203 14.217Z" fill="white"/>
<path d="M2.51553 2.51374C2.19354 2.68177 2.12418 3.10183 2.37187 3.37117C2.59479 3.61085 2.93413 3.61827 3.16448 3.386C3.29823 3.25503 3.34777 3.11666 3.33043 2.93381C3.30319 2.662 3.05797 2.44455 2.77808 2.44455C2.68396 2.44455 2.61213 2.46432 2.51553 2.51374ZM2.86973 2.90663C2.97624 3.00299 2.85982 3.17596 2.72855 3.11666C2.64681 3.07959 2.62204 2.97581 2.67901 2.91404C2.7335 2.85474 2.80781 2.84979 2.86973 2.90663Z" fill="white"/>
<path d="M4.73819 2.51374C4.41619 2.68177 4.34684 3.10183 4.59453 3.37117C4.81745 3.61085 5.15679 3.61827 5.38714 3.386C5.52089 3.25503 5.57043 3.11666 5.55309 2.93381C5.52584 2.662 5.28063 2.44455 5.00074 2.44455C4.90662 2.44455 4.83479 2.46432 4.73819 2.51374ZM5.09239 2.90663C5.19889 3.00299 5.08248 3.17596 4.9512 3.11666C4.86947 3.07959 4.8447 2.97581 4.90167 2.91404C4.95616 2.85474 5.03046 2.84979 5.09239 2.90663Z" fill="white"/>
<path d="M6.96085 2.51374C6.63885 2.68177 6.5695 3.10183 6.81719 3.37117C7.04011 3.61085 7.37944 3.61827 7.60979 3.386C7.74355 3.25503 7.79308 3.11666 7.77575 2.93381C7.7485 2.662 7.50329 2.44455 7.2234 2.44455C7.12928 2.44455 7.05745 2.46432 6.96085 2.51374ZM7.31504 2.90663C7.42155 3.00299 7.30514 3.17596 7.17386 3.11666C7.09212 3.07959 7.06735 2.97581 7.12432 2.91404C7.17881 2.85474 7.25312 2.84979 7.31504 2.90663Z" fill="white"/>
<path d="M6.35795 6.86416C6.15775 6.98192 6.1185 7.22922 6.27944 7.38624L6.37365 7.48438H9.66707H12.9605L13.0429 7.39409C13.1528 7.28025 13.1568 7.0565 13.0547 6.93089L12.9801 6.83668L9.70633 6.82883C7.28827 6.82098 6.41683 6.82883 6.35795 6.86416Z" fill="white"/>
<path d="M15.9598 8.4202C15.8892 8.47516 15.8656 8.54582 15.8499 8.71461C15.8342 8.91873 15.842 8.94228 15.952 9.05612C16.0854 9.18566 16.1836 9.20136 16.3484 9.115C16.4858 9.04434 16.5094 8.98939 16.5094 8.72638C16.5094 8.56152 16.4897 8.50264 16.4191 8.4359C16.3052 8.32992 16.0815 8.32207 15.9598 8.4202Z" fill="white"/>
<path d="M3.43024 9.01097C3.36744 9.07378 3.31641 9.16406 3.31641 9.21117C3.31641 9.325 3.41847 9.5095 3.49305 9.5409C3.57941 9.5723 10.0406 9.5723 10.127 9.5409C10.2016 9.5095 10.3036 9.325 10.3036 9.21117C10.3036 9.16406 10.2526 9.07378 10.1898 9.01097L10.076 8.89713H6.81003H3.54408L3.43024 9.01097Z" fill="white"/>
</svg>
