<svg width="20" height="20" viewBox="0 0 20 20" fill="none" xmlns="http://www.w3.org/2000/svg">
<path d="M6.99998 1.99531C3.86384 2.23474 1.13615 4.47887 0.281689 7.51174C0 8.51174 0 8.53991 0 13.4883V18H4.36618H8.73236V13.6103V9.22066H5.9859H3.23943V9.0892C3.23943 8.66197 3.60093 7.67606 3.94834 7.16901C4.75585 5.97183 6.01876 5.26291 7.45537 5.19718L8.02814 5.16901V3.55869V1.94366L7.76054 1.94836C7.6103 1.95305 7.26758 1.97183 6.99998 1.99531ZM7.23002 3.58216V4.38028L7.00937 4.40845C6.54458 4.46948 5.83097 4.68075 5.41782 4.87324C3.54928 5.76056 2.39436 7.60094 2.39436 9.69953V10.0188H5.1643H7.93425V13.6103V17.2019H4.36618H0.793425L0.812204 12.9155C0.830983 8.16432 0.807509 8.48357 1.15493 7.44132C1.76525 5.59624 3.20187 4.05164 4.99529 3.30047C5.65256 3.02817 6.54927 2.80282 7.03284 2.79343L7.23002 2.78873V3.58216Z" fill="white"/>
<path d="M18.2382 1.99531C16.534 2.13615 14.8673 2.88733 13.6138 4.08451C12.5012 5.15024 11.7735 6.45071 11.3979 8.05164C11.2946 8.48826 11.2946 8.53521 11.2805 13.2441L11.2617 18H15.6326H19.9988V13.6103V9.22066H17.2523H14.5058V9.06573C14.5058 8.52113 15.0035 7.37559 15.4918 6.78873C16.2993 5.8216 17.4495 5.25352 18.7218 5.19718L19.2946 5.16901V3.55869V1.94366L19.0035 1.94836C18.8392 1.95305 18.4964 1.97183 18.2382 1.99531ZM18.4964 3.58216V4.38028L18.2758 4.40845C17.426 4.52113 16.3979 4.92958 15.7734 5.40845C15.1396 5.88733 14.581 6.5493 14.2382 7.22535C13.8814 7.92019 13.7124 8.59155 13.6749 9.44132L13.6467 10.0188H16.426H19.2007V13.6103V17.2019H15.6326H12.0598L12.0786 12.892C12.0927 8.15024 12.0786 8.42723 12.3979 7.46948C12.9753 5.73709 14.257 4.26761 15.8908 3.46948C16.6279 3.10798 17.703 2.80751 18.2993 2.79343L18.4964 2.78873V3.58216Z" fill="white"/>
</svg>
