<svg width="20" height="18" viewBox="0 0 20 18" fill="none" xmlns="http://www.w3.org/2000/svg">
<path d="M9.75197 0.688984C9.4252 0.791348 9.3819 0.858276 8.61024 2.41733C8.2126 3.22442 7.86221 3.90552 7.83071 3.92914C7.79922 3.95276 7.58268 4.00394 7.34253 4.03544C6.85827 4.10631 6.77166 4.16142 6.77166 4.40158C6.77166 4.69292 6.94489 4.74016 7.62599 4.62993C8.04331 4.563 8.15749 4.51969 8.31497 4.3504C8.37402 4.29135 8.74804 3.58268 9.14567 2.77954C9.54725 1.97639 9.90158 1.30709 9.93701 1.29528C9.97245 1.27954 10.0276 1.27954 10.063 1.29528C10.0945 1.30709 10.4528 1.97639 10.8543 2.77954C11.252 3.58268 11.6299 4.29135 11.685 4.3504C11.7441 4.41339 11.8425 4.4882 11.9016 4.51969C11.9646 4.55512 12.7402 4.68505 13.6339 4.81497C14.5236 4.94489 15.2756 5.07087 15.3032 5.09449C15.4409 5.20867 15.3622 5.30316 14.1772 6.46064C13.5276 7.09449 12.9764 7.66142 12.9488 7.72048C12.9016 7.82678 12.8661 7.83859 11.5 8.14961C10.7284 8.32678 10.063 8.47245 10.0197 8.47245C9.97638 8.47245 9.30315 8.33071 8.51969 8.15355C7.12993 7.83859 7.09843 7.82678 7.05119 7.72048C7.02363 7.65749 6.47245 7.09449 5.82284 6.46064C4.64174 5.30709 4.55906 5.20867 4.69686 5.09449C4.72048 5.07087 4.99213 5.01575 5.29135 4.97245C5.5945 4.9252 5.8819 4.86221 5.92914 4.83465C6.11024 4.7126 6.07087 4.40946 5.86221 4.31103C5.78347 4.27166 5.65355 4.27953 5.15355 4.35434C4.5315 4.44883 4.37402 4.50001 4.22442 4.66142C4.02363 4.87796 3.95276 5.3189 4.07875 5.57087C4.11418 5.64174 4.30316 5.85827 4.49607 6.05512C4.69292 6.25197 4.83465 6.4252 4.8189 6.43308C4.79922 6.44489 4.32678 6.55906 3.77166 6.68111L2.75985 6.91339L1.3819 8.29528C0.15749 9.51575 9.4174e-06 9.68898 9.4174e-06 9.79922C9.4174e-06 10.0748 -0.0236127 10.0669 2.29528 10.5787L2.59843 10.6457V13.2559C2.59843 15.0945 2.61024 15.9016 2.64174 15.9961C2.69686 16.1535 2.8504 16.3307 3.00001 16.4094C3.05906 16.4409 3.53544 16.563 4.05513 16.6811C4.88977 16.874 5.01969 16.8937 5.11024 16.8504C5.3189 16.748 5.35827 16.4409 5.17717 16.3228C5.12993 16.2913 4.69292 16.1772 4.20867 16.0669C3.72442 15.9567 3.30316 15.8465 3.27954 15.8268C3.24017 15.7953 3.22835 15.2402 3.22835 13.2874V10.7874L3.31891 10.8071C4.08662 11 7.3189 11.7008 7.42914 11.7008C7.56694 11.7008 7.62599 11.6535 8.62993 10.6496L9.68504 9.59449V11.3386C9.68504 12.3819 9.70079 13.1142 9.72441 13.1535C9.7441 13.1929 9.81497 13.248 9.8819 13.2756C10.0197 13.3346 10.2126 13.2756 10.2756 13.1535C10.2992 13.1142 10.315 12.3819 10.315 11.3386V9.59449L11.3701 10.6496C12.3701 11.6457 12.4331 11.7008 12.5709 11.7008C12.8032 11.7008 14.1417 11.3898 14.252 11.311C14.3228 11.2598 14.3543 11.1969 14.3622 11.0827C14.374 10.9488 14.3583 10.9095 14.2677 10.8386C14.2087 10.7953 14.126 10.7559 14.0787 10.7559C14.0354 10.7598 13.7047 10.8268 13.3465 10.9095L12.6969 11.063L11.6654 10.0354C11.0984 9.46851 10.6378 9.00394 10.6417 9C10.6457 8.99607 12.0709 8.6693 13.811 8.27166L16.9724 7.55119L17.9921 8.57087C18.5551 9.13386 19.0157 9.60237 19.0157 9.61418C19.0157 9.62599 18.1693 9.82678 17.1378 10.0591C15.437 10.4409 15.248 10.4882 15.1693 10.5827C15.0551 10.7047 15.0551 10.8346 15.1614 10.9685C15.2717 11.1063 15.3976 11.1024 16.1378 10.9331C16.4646 10.8583 16.7441 10.7953 16.7559 10.7953C16.7638 10.7953 16.7717 11.9173 16.7717 13.2913C16.7717 15.2402 16.7598 15.7953 16.7244 15.8268C16.6969 15.8465 15.248 16.1929 13.5039 16.5906L10.3347 17.315L10.315 15.7717C10.2953 14.3268 10.2913 14.2244 10.2205 14.1457C10.1181 14.0315 9.8819 14.0315 9.77953 14.1457C9.70867 14.2244 9.70473 14.3268 9.68504 15.7717L9.66536 17.311L8.00394 16.9331C7.09056 16.7244 6.29922 16.563 6.24016 16.5709C6.11418 16.5984 6.02363 16.7205 6.02363 16.8701C6.02363 17.0315 6.08662 17.122 6.22835 17.1693C6.57875 17.2795 9.8504 18 10.0039 18C10.2126 18 16.8386 16.4921 17 16.4094C17.1496 16.3307 17.3032 16.1535 17.3583 15.9961C17.3898 15.9016 17.4016 15.0945 17.4016 13.2559V10.6457L17.7087 10.5787C20.0039 10.0748 20 10.0748 20 9.79922C20 9.68898 19.8425 9.51969 18.6339 8.30709C17.748 7.41733 17.2244 6.9252 17.1457 6.89764C17.0827 6.87796 16.6299 6.77166 16.1417 6.66142C15.6535 6.55119 15.2323 6.45276 15.2008 6.44095C15.1614 6.42914 15.2559 6.30709 15.5 6.05906C15.9173 5.6378 15.9843 5.51969 15.9843 5.23623C15.9803 4.87008 15.7717 4.55906 15.4646 4.46064C15.3937 4.44095 14.6339 4.3189 13.7795 4.19686C12.9252 4.07481 12.2008 3.95276 12.1693 3.92914C12.1378 3.90552 11.7874 3.22835 11.3898 2.42127C10.6063 0.834654 10.563 0.767725 10.2126 0.68111C10.0079 0.629929 9.94489 0.629929 9.75197 0.688984ZM5.75985 7.28741L6.07875 7.59843L5.61024 7.48819C5.3504 7.42914 4.96064 7.33859 4.7441 7.29134L4.3504 7.20079L4.80316 7.09449C5.05119 7.03544 5.29922 6.98426 5.3504 6.98032C5.41733 6.97638 5.5315 7.063 5.75985 7.28741ZM15.1772 7.09056L15.6496 7.20079L15.1772 7.30709C14.9173 7.37008 14.5276 7.4567 14.315 7.50788L13.9213 7.59843L14.2402 7.28741C14.4134 7.11418 14.5906 6.97638 14.6299 6.97638C14.6732 6.98032 14.9173 7.02756 15.1772 7.09056ZM6.23229 8.28347L9.37402 9L8.34253 10.0315L7.31497 11.0591L7.1693 11.0276C7.09056 11.0079 5.67323 10.689 4.01576 10.3189C2.35828 9.94489 0.996072 9.63386 0.984261 9.62599C0.960639 9.6063 3.00394 7.56693 3.05119 7.56693C3.07087 7.56693 4.50394 7.88977 6.23229 8.28347Z" fill="white"/>
</svg>
