<svg width="20" height="20" viewBox="0 0 20 20" fill="none" xmlns="http://www.w3.org/2000/svg">
<path d="M1.1358 3.05114C0.718633 3.18046 0.343185 3.51837 0.130431 3.94805L0.0177963 4.17749L0.00528132 6.7514C-0.00723363 9.29193 -0.00306198 9.32948 0.080371 9.41291C0.163804 9.49634 0.176319 9.49634 9.04942 9.49634C17.8808 9.49634 17.935 9.49634 18.0185 9.41291C18.1311 9.30028 18.1311 9.02495 18.0185 8.91231C17.935 8.82888 17.8808 8.82888 9.29972 8.82888H0.664402V7.74425V6.65962H9.29972C17.8808 6.65962 17.935 6.65962 18.0185 6.57619C18.1311 6.46355 18.1311 6.18822 18.0185 6.07559C17.935 5.99216 17.8808 5.99216 9.29555 5.99216H0.656059L0.672745 5.22875C0.68526 4.5738 0.701947 4.44448 0.772865 4.28178C0.877156 4.06068 1.03985 3.88965 1.26929 3.7645L1.43616 3.67689H10.0089H18.5816L18.7485 3.7645C18.9779 3.88965 19.1406 4.05651 19.2449 4.28178L19.3325 4.4695V10.3515C19.3325 15.9207 19.3284 16.2419 19.2574 16.4296C19.1698 16.6591 18.8945 16.9302 18.6609 17.0095C18.5232 17.0595 17.1257 17.0679 9.98804 17.0679H1.47787L1.29015 16.9803C1.05237 16.8676 0.885499 16.7008 0.772865 16.463C0.689432 16.2794 0.68526 16.2085 0.664402 13.572C0.643544 10.9564 0.639372 10.8646 0.564282 10.8062C0.439133 10.7186 0.180491 10.7312 0.080371 10.8313C-0.00306198 10.9147 -0.00723363 10.9522 0.00528132 13.7431L0.0177963 16.5673L0.138774 16.8176C0.297297 17.1388 0.614342 17.4559 0.935559 17.6144L1.18586 17.7354H10.0089H18.8319L19.0822 17.6144C19.4035 17.4559 19.7205 17.1388 19.879 16.8176L20 16.5673V10.3724V4.17749L19.879 3.92719C19.7205 3.60597 19.4035 3.28893 19.0822 3.13041L18.8319 3.00943L10.0715 3.00108C2.87955 2.99691 1.27763 3.00526 1.1358 3.05114Z" fill="white"/>
<path d="M13.9096 11.5903C13.3464 11.6654 12.8291 12.0492 12.5788 12.5748C12.4537 12.8376 12.4453 12.8794 12.4453 13.3341C12.4453 13.7888 12.4537 13.8305 12.5788 14.0933C12.7498 14.4604 13.0502 14.7608 13.4173 14.9318C13.6801 15.057 13.7218 15.0653 14.1765 15.0653C14.6313 15.0653 14.673 15.057 14.9358 14.9318C15.5782 14.6273 15.9412 14.0349 15.937 13.2882C15.9328 12.9962 15.9036 12.8752 15.7409 12.4872C15.6992 12.3871 15.9578 12.2828 16.2665 12.287C16.5669 12.287 16.8339 12.408 17.0383 12.6332C17.2385 12.8585 17.3053 13.0295 17.3053 13.3424C17.3053 13.6678 17.1968 13.9014 16.9424 14.1225C16.7463 14.2977 16.617 14.352 16.2916 14.3978C16.1789 14.4145 16.0538 14.4604 16.0079 14.5063C15.8953 14.6189 15.8994 14.8901 16.0162 15.0069C16.0955 15.0862 16.1414 15.0945 16.4251 15.0778C17.0466 15.0403 17.589 14.669 17.8601 14.0933C17.9853 13.8305 17.9936 13.7888 17.9936 13.3341C17.9936 12.8794 17.9853 12.8376 17.8601 12.5748C17.6891 12.2077 17.3887 11.9074 17.0216 11.7363C16.7588 11.6112 16.7171 11.6028 16.2624 11.6028C15.8077 11.6028 15.7659 11.6112 15.499 11.7363L15.2153 11.874L15.0192 11.7739C14.6396 11.5862 14.3309 11.5319 13.9096 11.5903ZM14.5687 12.3496C14.9525 12.5081 15.2195 12.9127 15.2195 13.3341C15.2195 13.6386 15.1527 13.8096 14.9483 14.0349C14.5311 14.498 13.822 14.498 13.4006 14.0349C13.2004 13.8096 13.1336 13.6386 13.1336 13.3341C13.1336 12.9169 13.3547 12.5707 13.7385 12.3788C13.9388 12.2786 14.3643 12.262 14.5687 12.3496Z" fill="white"/>
<path d="M2.79437 12.041C2.74014 12.0952 2.71094 12.1786 2.71094 12.2913C2.71094 12.4039 2.74014 12.4873 2.79437 12.5416C2.87363 12.6208 2.93203 12.625 4.44217 12.625C5.95231 12.625 6.01071 12.6208 6.08997 12.5416C6.14421 12.4873 6.17341 12.4039 6.17341 12.2913C6.17341 12.1786 6.14421 12.0952 6.08997 12.041C6.01071 11.9617 5.95231 11.9575 4.44217 11.9575C2.93203 11.9575 2.87363 11.9617 2.79437 12.041Z" fill="white"/>
<path d="M2.79437 14.1269C2.74014 14.1811 2.71094 14.2646 2.71094 14.3772C2.71094 14.4898 2.74014 14.5733 2.79437 14.6275C2.87363 14.7068 2.93203 14.7109 4.44217 14.7109C5.95231 14.7109 6.01071 14.7068 6.08997 14.6275C6.14421 14.5733 6.17341 14.4898 6.17341 14.3772C6.17341 14.2646 6.14421 14.1811 6.08997 14.1269C6.01071 14.0476 5.95231 14.0435 4.44217 14.0435C2.93203 14.0435 2.87363 14.0476 2.79437 14.1269Z" fill="white"/>
</svg>
