<svg width="24" height="24" viewBox="0 0 24 24" fill="none" xmlns="http://www.w3.org/2000/svg">
<path d="M6.26982 2.40304C6.16658 2.50198 6.16228 2.52779 6.16228 3.06549V3.6247L4.73414 3.6376L3.30169 3.65051L2.93175 3.78386C2.20047 4.04195 1.61544 4.55384 1.29712 5.19909C0.978797 5.85293 1.0003 5.35394 1.0003 12.3182C1.0003 19.1793 0.9874 20.6125 1.2541 21.1846C1.53801 21.7912 1.99829 22.2471 2.61342 22.5396C3.23716 22.8322 2.95325 22.8193 8.04641 22.8193H12.6664L12.7696 22.6988C12.9159 22.531 12.9116 22.2859 12.761 22.1353L12.6449 22.0235H8.16685C3.30169 22.0235 3.40923 22.0278 2.92744 21.7826C2.47577 21.5546 2.05421 21.0513 1.89935 20.5566C1.82192 20.3071 1.81762 18.2545 1.81762 13.841V9.22108H10.679H19.5404V9.99107C19.5404 10.4169 19.5576 10.8127 19.5834 10.8729C19.6781 11.1267 20.0953 11.1783 20.2717 10.9546C20.3577 10.8471 20.3577 10.7955 20.3577 8.48981C20.3577 6.28739 20.3534 6.11533 20.2717 5.80561C20.0523 4.94529 19.5146 4.29145 18.7016 3.9043C18.2112 3.66772 17.8972 3.629 16.4604 3.629H15.1957V3.087C15.1957 2.5493 15.1957 2.545 15.071 2.42025C14.8946 2.24819 14.6795 2.24819 14.5032 2.42025C14.3784 2.545 14.3784 2.5493 14.3784 3.087V3.629H10.679H6.9796V3.15582C6.9796 2.47187 6.88496 2.2955 6.52792 2.2955C6.42038 2.2955 6.34295 2.32992 6.26982 2.40304ZM6.16228 4.76462V5.08724L5.9386 5.19048C5.34927 5.45718 5.02235 6.10242 5.13419 6.74766C5.37078 8.10697 7.242 8.38227 7.83563 7.14341C8.00339 6.79068 8.0378 6.50677 7.95177 6.15834C7.83563 5.70237 7.43557 5.2378 7.07853 5.15177C6.9839 5.12596 6.9796 5.10445 6.9796 4.78613V4.4463H10.679H14.3784V4.77753V5.11305L14.172 5.19909C13.9182 5.30232 13.6127 5.60344 13.4751 5.88734C13.3891 6.06371 13.3718 6.17125 13.3718 6.48957C13.3675 6.82939 13.3805 6.90682 13.488 7.1219C13.6385 7.43162 13.9612 7.72413 14.2838 7.84457C14.6236 7.97362 15.1226 7.95211 15.4323 7.79295C15.7033 7.651 15.9442 7.41011 16.0905 7.13481C16.1937 6.94554 16.2066 6.86811 16.2066 6.51108C16.2066 6.18415 16.1894 6.06371 16.112 5.90025C15.9829 5.61634 15.699 5.32813 15.428 5.19909L15.1957 5.08724V4.76892V4.4463H16.4174C17.0885 4.4463 17.738 4.46781 17.8671 4.48932C18.422 4.59686 19.0156 5.02702 19.2737 5.5131C19.5103 5.95617 19.5404 6.15404 19.5404 7.33698V8.40378H10.679H1.81762V7.28967C1.81762 6.3046 1.82622 6.14544 1.90365 5.90455C2.05851 5.39266 2.41555 4.9625 2.88873 4.7087C3.3361 4.47211 3.47805 4.45061 4.88469 4.45061L6.16228 4.4463V4.76462ZM6.87636 5.97337C7.14736 6.14974 7.23339 6.54979 7.05272 6.81649C6.71289 7.32408 5.9472 7.09609 5.9472 6.48527C5.9472 6.01639 6.48921 5.71958 6.87636 5.97337ZM15.0667 5.94757C15.2388 6.0379 15.4108 6.3046 15.4108 6.48096C15.4108 6.78638 15.0882 7.1133 14.7871 7.1133C14.5806 7.1133 14.3354 6.94984 14.2451 6.75627C14.1418 6.52398 14.1418 6.45085 14.2537 6.22717C14.3139 6.09812 14.3913 6.02069 14.5204 5.95617C14.7441 5.84433 14.8731 5.84433 15.0667 5.94757Z" fill="white"/>
<path d="M16.7669 12.4439C14.6505 12.8224 13.0073 14.3581 12.4739 16.453C12.3921 16.7799 12.3792 16.939 12.3835 17.709C12.3835 18.5263 12.3921 18.621 12.4997 19.0038C13.1578 21.3912 15.2484 23 17.6918 23C20.1351 23 22.2257 21.3912 22.8839 19.0038C22.9914 18.6167 23 18.5349 23 17.6875C23 16.8401 22.9914 16.7584 22.8839 16.3669C22.7204 15.7733 22.4795 15.2399 22.1483 14.7452C21.331 13.515 20.062 12.6977 18.5779 12.4396C18.1047 12.3578 17.2315 12.3621 16.7669 12.4439ZM18.4704 13.2569C20.3588 13.5881 21.8644 15.1066 22.1655 16.9907C22.2429 17.4552 22.1999 18.3629 22.0795 18.8059C21.9676 19.2189 21.6837 19.834 21.4385 20.1997C20.8406 21.0772 19.8727 21.7611 18.8274 22.0407C18.4489 22.144 18.3241 22.1569 17.6918 22.1569C17.0637 22.1569 16.9347 22.144 16.569 22.045C14.8828 21.5891 13.6009 20.2556 13.2568 18.5909C13.1535 18.1005 13.1492 17.2746 13.2439 16.8143C13.4116 15.9927 13.7945 15.2614 14.3881 14.6334C15.085 13.8978 15.9324 13.4289 16.8874 13.2569C17.3089 13.1794 18.0359 13.1794 18.4704 13.2569Z" fill="white"/>
<path d="M17.3826 13.9198L17.2578 14.0446V15.9459V17.8472L17.3826 17.9719L17.5073 18.0967H19.3871C21.3057 18.0967 21.3788 18.0924 21.5035 17.9289C21.5853 17.8214 21.5724 17.5203 21.4777 17.4041L21.396 17.3009L19.7356 17.288L18.0751 17.2751V15.662V14.0446L17.9504 13.9198C17.8557 13.8295 17.7826 13.7951 17.6665 13.7951C17.5503 13.7951 17.4772 13.8295 17.3826 13.9198Z" fill="white"/>
</svg>
