<svg width="20" height="20" viewBox="0 0 20 20" fill="none" xmlns="http://www.w3.org/2000/svg">
<path d="M14.9422 0.05474C14.8563 0.070365 14.7196 0.113333 14.6414 0.152394C14.3524 0.293017 14.2352 0.460983 13.7469 1.43362C13.2898 2.35158 13.2742 2.37111 13.114 2.44142C13.0203 2.48048 12.571 2.56642 12.0866 2.63282C11.6139 2.69923 11.1686 2.77345 11.0983 2.79298C10.6217 2.92969 10.3052 3.35156 10.2974 3.85937C10.2896 4.30858 10.3521 4.40233 11.2116 5.27341C11.6999 5.76949 11.9928 6.09371 12.0085 6.16402C12.0241 6.22652 11.9694 6.64057 11.8757 7.17963C11.7038 8.18742 11.6881 8.39445 11.7858 8.6757C11.8717 8.9335 12.1804 9.24209 12.4382 9.32803C12.6569 9.40225 12.9617 9.41396 13.1648 9.35537C13.239 9.33193 13.6726 9.121 14.1219 8.88272C14.6414 8.60929 15.0008 8.44132 15.1063 8.42961C15.2587 8.41007 15.3368 8.44132 16.1259 8.85929C16.5986 9.10538 17.0517 9.32803 17.1299 9.35537C17.2158 9.38272 17.3838 9.39834 17.5361 9.38662C17.9502 9.35537 18.2627 9.16006 18.4542 8.81241C18.587 8.56632 18.6182 8.28508 18.5557 7.91789C18.5049 7.61321 18.4034 7.4804 18.2198 7.4804C17.958 7.4804 17.876 7.64056 17.9346 8.03508C17.9893 8.38273 17.9307 8.56632 17.7276 8.69132C17.4932 8.83194 17.3916 8.8046 16.4814 8.32414C16.0165 8.08195 15.5712 7.8593 15.4891 7.83196C15.3993 7.80462 15.2313 7.78899 15.0633 7.80071C14.7977 7.81633 14.7469 7.83977 13.8836 8.29289C13.239 8.63273 12.9421 8.76944 12.8484 8.76944C12.5905 8.76944 12.3444 8.53117 12.3444 8.27726C12.3444 8.21867 12.4147 7.75383 12.5046 7.24994C12.6765 6.25777 12.6804 6.07417 12.5398 5.78121C12.4929 5.68356 12.1686 5.32809 11.7194 4.88279C10.8912 4.05858 10.8482 3.99218 10.9576 3.71093C11.0631 3.43359 11.1412 3.40625 12.2468 3.24219C12.821 3.16016 13.2859 3.07422 13.3836 3.03125C13.7 2.89063 13.8367 2.69923 14.2781 1.78909C14.5086 1.32034 14.7391 0.890664 14.7938 0.832071C15.0008 0.613325 15.3094 0.605513 15.5009 0.81254C15.5438 0.859414 15.7743 1.28909 16.0126 1.76565C16.2509 2.2422 16.497 2.69142 16.5634 2.76954C16.79 3.02344 16.9931 3.08985 18.0479 3.24219C18.5753 3.31641 19.0362 3.39062 19.0714 3.40234C19.1065 3.41406 19.1925 3.48437 19.255 3.55859C19.3566 3.67187 19.3761 3.72656 19.3761 3.89843V4.10155L18.6182 4.84373C17.8135 5.63278 17.7041 5.78121 17.669 6.13277C17.626 6.55464 17.7354 6.77729 17.9893 6.77729C18.2002 6.77729 18.2823 6.66791 18.2823 6.39448C18.2823 6.27339 18.3096 6.12105 18.3409 6.06246C18.3721 6.00386 18.712 5.64449 19.0987 5.2695C19.9269 4.46483 20.0011 4.34764 20.0011 3.89062C20.0011 3.53906 19.9152 3.32031 19.6964 3.09375C19.4269 2.81251 19.3761 2.79688 18.0127 2.60157C17.4385 2.51954 17.1846 2.46486 17.1142 2.41408C17.0478 2.3672 16.8564 2.03127 16.5634 1.43362C16.079 0.457077 15.9501 0.277392 15.6298 0.144582C15.4149 0.0508337 15.1532 0.0195847 14.9422 0.05474Z" fill="white"/>
<path d="M7.74264 5.10961C7.57857 5.17211 7.38715 5.3557 7.32074 5.51586C7.28168 5.6057 7.26605 5.85179 7.26605 6.39475C7.26214 8.45331 6.9965 9.41033 6.21521 10.1447C5.76987 10.5666 5.43 10.6837 4.65262 10.6837H4.19165L4.17212 10.3595C4.15259 9.98063 4.06664 9.79313 3.82835 9.57439C3.51974 9.29705 3.53146 9.29705 2.07043 9.29705C0.796922 9.29705 0.757857 9.30095 0.601598 9.38298C0.347677 9.5197 0.21095 9.65251 0.101568 9.87126L0 10.0744V11.7658C0 13.4064 0.00390648 13.461 0.0781296 13.5353C0.160166 13.6173 0.347677 13.6368 0.468777 13.5743C0.609411 13.4962 0.625036 13.336 0.625036 11.7384V10.1877L0.722698 10.0822C0.773483 10.0275 0.863332 9.9611 0.918022 9.94157C0.97662 9.91813 1.48446 9.90251 2.10559 9.90251C3.17206 9.90251 3.1955 9.90251 3.32441 9.99235C3.39473 10.0392 3.47677 10.1252 3.50411 10.1759C3.54318 10.2541 3.5549 11.2267 3.5549 14.6485C3.5549 18.9688 3.5549 19.0235 3.47677 19.1524C3.33223 19.3867 3.24628 19.3984 2.01574 19.3867C0.855519 19.375 0.824267 19.3711 0.69926 19.1836C0.656288 19.1172 0.640662 18.6836 0.625036 16.8086C0.605504 14.5313 0.605504 14.5118 0.523468 14.4298C0.417993 14.3282 0.183604 14.3204 0.0742231 14.4181C0.00390648 14.4845 0 14.5587 0 16.8516C0 19.0742 0.00781296 19.2266 0.0742231 19.3789C0.171885 19.5899 0.398461 19.8125 0.62113 19.918C0.793015 19.9961 0.859425 20 2.08997 20C3.36738 20 3.3791 20 3.56661 19.9063C3.7971 19.793 4.0393 19.5234 4.11743 19.2891C4.15259 19.1836 4.17993 18.9766 4.17993 18.8008V18.4961H4.40651C4.74637 18.4961 4.89872 18.5586 5.22687 18.8242C5.64095 19.1602 5.8519 19.2969 6.18395 19.457C6.72305 19.7109 6.60976 19.707 10.8288 19.707C14.4696 19.707 14.6532 19.7031 14.8798 19.6328C15.2704 19.5117 15.5283 19.2813 15.7158 18.8867C15.8251 18.6602 15.8408 18.5938 15.8369 18.2969C15.8369 18 15.8212 17.9297 15.7158 17.711C15.6454 17.5743 15.5947 17.461 15.5986 17.461C15.6025 17.461 15.7079 17.3946 15.833 17.3125C16.4502 16.9102 16.6494 16.1055 16.29 15.461L16.1767 15.2579L16.3017 15.1798C16.5166 15.047 16.751 14.7774 16.8604 14.5313C17.0127 14.2032 17.0166 13.7696 16.8682 13.4493C16.7275 13.1446 16.5869 12.9728 16.3681 12.8282L16.1806 12.7071L16.2939 12.4884C16.7236 11.6447 16.2939 10.6759 15.3954 10.465C15.2275 10.422 14.6571 10.4103 12.9031 10.4103H10.6295L10.5475 10.1838C10.4655 9.96891 10.4655 9.94157 10.5084 9.45329C10.5358 9.17205 10.5592 8.60956 10.5592 8.20331C10.5592 7.36739 10.4928 6.96115 10.2819 6.50022C9.98886 5.8557 9.41852 5.37133 8.71145 5.16039C8.42237 5.07446 7.90671 5.04712 7.74264 5.10961ZM8.36768 5.72679C8.72317 5.80101 9.0474 5.97679 9.31304 6.23069C9.5904 6.49631 9.73104 6.74631 9.85214 7.19942C9.9498 7.56661 9.96543 8.49628 9.88339 9.41423C9.8287 10.0509 9.83651 10.1252 10.0396 10.6642C10.36 11.5197 9.98105 12.4415 9.10991 12.9298C8.81301 13.0978 8.72707 13.215 8.77395 13.3946C8.8052 13.5274 8.93021 13.6134 9.08256 13.6134C9.43024 13.6095 10.1178 13.0548 10.485 12.4767C10.6256 12.254 10.7467 11.8009 10.7702 11.4142L10.7936 11.0353H11.0983H11.403L11.2975 11.258C11.2116 11.4454 11.196 11.5392 11.1921 11.8165C11.1921 12.1017 11.2077 12.1837 11.3053 12.3907C11.4186 12.6368 11.6999 12.9454 11.8874 13.0314L11.9812 13.0743L11.8405 13.3478C11.7116 13.6017 11.6999 13.6485 11.6999 13.961C11.6999 14.3087 11.7624 14.5313 11.9148 14.7462L11.989 14.8516L11.778 14.9962C11.2155 15.3868 11.0202 16.1407 11.3249 16.7579C11.3913 16.8868 11.4382 16.9922 11.4343 16.9922C11.2819 17.0625 10.9694 17.3047 10.86 17.4493C10.5514 17.836 10.4772 18.4219 10.6764 18.8594L10.778 19.082H8.93412C6.8754 19.082 6.78555 19.0703 6.32849 18.8242C6.18786 18.7461 5.91441 18.5547 5.71908 18.3946C5.23859 18.0039 5.01982 17.9102 4.55105 17.8828L4.17993 17.8594V14.5899V11.3165L4.81669 11.3009C5.31672 11.2853 5.50423 11.2619 5.70346 11.1994C6.3949 10.9728 7.04338 10.3556 7.40668 9.57048C7.73873 8.85565 7.84811 8.21113 7.87937 6.81662C7.89109 6.22678 7.91843 5.76195 7.94187 5.7307C7.98875 5.67211 8.09813 5.67211 8.36768 5.72679ZM15.2665 11.0822C15.6142 11.1681 15.9111 11.6056 15.8369 11.9259C15.79 12.1173 15.6689 12.3165 15.54 12.4181C15.3134 12.59 15.1532 12.6017 13.7117 12.59C12.2156 12.5782 12.239 12.5822 12.0007 12.3087C11.8796 12.1681 11.7976 11.9572 11.7976 11.7775C11.8015 11.5197 12.0593 11.1915 12.3288 11.0939C12.5281 11.0197 14.9892 11.0119 15.2665 11.0822ZM15.9423 13.3126C16.1845 13.4415 16.3408 13.7032 16.3408 13.9767C16.3408 14.2071 16.2744 14.3634 16.1064 14.5196C15.8759 14.7423 15.829 14.7462 14.3094 14.7462C12.9656 14.7462 12.9109 14.7423 12.7429 14.6641C12.5515 14.5704 12.364 14.3165 12.321 14.0899C12.2663 13.8009 12.4578 13.4493 12.7429 13.3048C12.9031 13.2267 12.9617 13.2228 14.3407 13.2228C15.7626 13.2228 15.7705 13.2228 15.9423 13.3126ZM15.2939 15.4141C15.6298 15.5079 15.8994 15.9415 15.8251 16.2696C15.7626 16.5547 15.6454 16.7032 15.3915 16.8399C15.2665 16.9063 15.1376 16.9141 13.9539 16.9258C12.4187 16.9415 12.3015 16.9258 12.0515 16.6876C11.8093 16.4532 11.739 16.168 11.8601 15.8868C11.9382 15.6954 12.0945 15.5352 12.2859 15.4454C12.4265 15.379 12.5593 15.3712 13.7899 15.3712C14.6493 15.3712 15.1923 15.3868 15.2939 15.4141ZM14.8056 17.6368C15.1103 17.793 15.286 18.1719 15.2001 18.4883C15.1415 18.6953 14.9501 18.918 14.747 19.0078C14.6063 19.0742 14.4618 19.082 13.2039 19.082C11.946 19.082 11.8015 19.0742 11.6608 19.0078C11.3522 18.8672 11.1335 18.4961 11.196 18.211C11.2311 18.0469 11.3405 17.8282 11.4304 17.75C11.6452 17.5625 11.653 17.5625 13.1961 17.5586C14.5751 17.5586 14.661 17.5625 14.8056 17.6368Z" fill="white"/>
</svg>
