<svg width="20" height="21" viewBox="0 0 20 21" fill="none" xmlns="http://www.w3.org/2000/svg">
<g clip-path="url(#clip0_8281_140589)">
<path d="M4.45318 0.989883C4.20709 1.07191 0.98447 2.37659 0.812597 2.46253C0.582131 2.57972 0.332134 2.79847 0.211041 2.98987C-0.0116123 3.34534 0.000106291 2.8805 0.000106291 10.9547C0.000106291 19.0367 -0.0116123 18.564 0.214948 18.9234C0.328228 19.107 0.589944 19.3335 0.82041 19.4507C0.918065 19.4976 1.77743 19.8531 2.73445 20.2359C4.30865 20.8648 4.50006 20.9351 4.74615 20.9468C4.89849 20.9546 5.0938 20.9429 5.18364 20.9195C5.5352 20.8257 5.8477 20.4742 5.95707 20.0523C6.04691 19.7242 6.04301 2.21253 5.95707 1.8766C5.80082 1.27504 5.44927 0.982071 4.86333 0.966446C4.69146 0.96254 4.50787 0.974258 4.45318 0.989883ZM5.11724 1.76722C5.17583 1.82972 5.24614 1.94691 5.26958 2.03285C5.32817 2.24769 5.32817 19.6617 5.26958 19.8765C5.20708 20.1031 5.04302 20.2515 4.85552 20.2515C4.75005 20.2515 4.17194 20.0367 2.96882 19.5562C2.0118 19.1734 1.17978 18.8296 1.11338 18.7984C0.961033 18.7164 0.796973 18.5406 0.746192 18.4039C0.687599 18.2476 0.687599 3.66175 0.746192 3.5055C0.800879 3.35706 0.964939 3.18909 1.15244 3.09143C1.23837 3.04847 2.06649 2.70862 2.98835 2.33753C4.8438 1.59144 4.91802 1.57191 5.11724 1.76722Z" fill="white"/>
<path d="M4.23047 9.61467C4.17969 9.62249 4.10547 9.67717 4.0625 9.73186C3.98828 9.82561 3.98438 9.88811 3.98438 10.9428C3.98438 11.6654 4 12.0795 4.02734 12.1342C4.09375 12.2553 4.30468 12.3295 4.44921 12.2787C4.67577 12.2006 4.68749 12.1264 4.68749 10.9584C4.68749 10.3569 4.67187 9.86077 4.64843 9.80217C4.61718 9.72014 4.38281 9.5678 4.32812 9.59124C4.32031 9.59514 4.27734 9.60686 4.23047 9.61467Z" fill="white"/>
<path d="M6.7231 2.36122C6.60982 2.47059 6.57857 2.61122 6.64107 2.75575C6.73482 2.99012 6.70357 2.98622 9.41839 2.98622C11.727 2.98622 11.9027 2.99403 12.0473 3.06043C12.2426 3.14637 12.434 3.33387 12.5473 3.54871L12.6332 3.70887L12.6449 6.40417C12.6527 8.88462 12.6605 9.10337 12.723 9.16978C12.8285 9.28696 12.9574 9.32212 13.1098 9.27134C13.3637 9.18931 13.3558 9.27915 13.3558 6.45495C13.3558 5.00574 13.3402 3.80652 13.3168 3.67371C13.2191 3.06043 12.7933 2.56434 12.1918 2.35731C11.9887 2.287 11.8285 2.28309 9.39104 2.28309C6.85201 2.28309 6.80513 2.28309 6.7231 2.36122Z" fill="white"/>
<path d="M16.1019 7.36137C16.0004 7.45512 15.9613 7.59574 15.9965 7.72074C16.0121 7.77152 16.6488 8.43949 17.4144 9.20511L18.8089 10.6035H13.1762H7.54343L7.43406 10.6973C7.34421 10.7754 7.32468 10.8223 7.32859 10.9551C7.3325 11.0684 7.35984 11.1465 7.41843 11.2012L7.50437 11.2871L13.1449 11.3067L18.7894 11.3262L17.4027 12.7129C15.9418 14.1699 15.9027 14.2207 16.0199 14.4355C16.0941 14.5762 16.1761 14.623 16.348 14.627C16.5004 14.627 16.5277 14.5996 18.2503 12.877L20.0003 11.1309V10.9551V10.7793L18.2503 9.03323C16.5238 7.30277 16.5004 7.28324 16.3441 7.28324C16.2386 7.28324 16.1566 7.31059 16.1019 7.36137Z" fill="white"/>
<path d="M12.7824 12.6934L12.6613 12.795L12.6496 15.4785C12.6379 18.1074 12.6379 18.166 12.5558 18.3379C12.4621 18.5449 12.2746 18.7363 12.0754 18.834C11.9465 18.9004 11.7394 18.9043 9.41525 18.9238C8.02855 18.9356 6.8645 18.959 6.82544 18.9785C6.71997 19.0293 6.63404 19.2246 6.66138 19.3496C6.6731 19.4121 6.72388 19.498 6.77466 19.5449L6.8645 19.6309L9.47775 19.6191L12.091 19.6074L12.3723 19.4746C12.884 19.2363 13.2394 18.7598 13.3254 18.2129C13.3488 18.0684 13.3566 16.9121 13.3527 15.3809C13.341 12.8262 13.341 12.7911 13.259 12.7129C13.216 12.67 13.1183 12.6231 13.0441 12.6114C12.9347 12.5918 12.884 12.6075 12.7824 12.6934Z" fill="white"/>
</g>
<defs>
<clipPath id="clip0_8281_140589">
<rect width="20" height="20" fill="white" transform="translate(0 0.949219)"/>
</clipPath>
</defs>
</svg>
