<svg width="20" height="20" viewBox="0 0 20 20" fill="none" xmlns="http://www.w3.org/2000/svg">
<g clip-path="url(#clip0_9429_247004)">
<path d="M8.26091 0.369144C7.4733 0.506662 6.30439 0.881714 5.67931 1.20051L5.24175 1.41929L5.09173 1.26302C4.8917 1.05049 4.42914 0.762949 4.10409 0.644182C2.26634 0.00034523 0.328579 1.13175 0.0347891 3.02575C-0.10273 3.91338 0.228565 5.00102 0.803643 5.54485L0.953664 5.68237L0.716132 6.2637C0.241067 7.41385 0.0160365 8.63277 0.0160365 9.9892C0.0160365 11.5207 0.303576 12.8521 0.916159 14.1898L1.11619 14.6148L0.822396 14.9149C0.228565 15.515 -0.10273 16.5338 0.0285382 17.3777C0.159806 18.1841 0.441094 18.7154 1.00992 19.2342C2.13507 20.2656 3.92282 20.2531 5.08547 19.2092L5.41052 18.9154L5.99185 19.1654C7.26702 19.7155 8.2109 19.9218 9.61109 19.9718C11.1926 20.0281 12.5427 19.803 13.7804 19.278L14.3055 19.0592L14.5868 19.303C15.4744 20.0843 16.8496 20.2156 17.9997 19.6343C18.3998 19.4342 18.9811 18.8529 19.1811 18.4529C19.4687 17.884 19.5562 17.4652 19.5249 16.8089C19.4874 16.1338 19.3874 15.8275 19.0311 15.2837L18.7873 14.9149L19.0624 14.346C19.4312 13.5772 19.6124 13.0396 19.825 12.1457C19.9937 11.4394 20 11.3144 20 9.9892C20 8.77029 19.9812 8.5015 19.8625 7.97018C19.7 7.23258 19.4187 6.38246 19.1436 5.78238L18.9374 5.33232L19.0811 5.12604C19.4562 4.56346 19.6375 3.53207 19.4812 2.80698C19.2812 1.8631 18.4935 0.962975 17.6059 0.644182C16.6183 0.300385 15.4494 0.462908 14.7118 1.05049L14.4805 1.23801L14.0742 1.05049C13.4304 0.762949 12.5177 0.494162 11.7426 0.362894C10.78 0.19412 9.22354 0.200371 8.26091 0.369144ZM11.0175 1.33178C11.7926 1.39428 13.6366 1.91936 13.7554 2.10688C13.7679 2.13813 13.7241 2.32566 13.6491 2.52569C13.4741 3.02575 13.4741 3.86337 13.6491 4.40719C13.9617 5.39483 14.8243 6.20119 15.7932 6.41997C16.3057 6.53873 17.0246 6.50123 17.5059 6.3262C17.7497 6.24494 17.981 6.16368 18.031 6.15743C18.1497 6.13868 18.4998 6.95754 18.6936 7.70764C18.9374 8.65152 18.9936 9.2266 18.9561 10.3267C18.9186 11.4269 18.8061 12.0145 18.4748 12.9584C18.2873 13.4772 17.9435 14.2398 17.8872 14.2398C17.8747 14.2398 17.7434 14.196 17.5997 14.146C15.7682 13.5022 13.8367 14.6273 13.5366 16.5151C13.4679 16.9589 13.5241 17.5902 13.6616 17.9653C13.6991 18.059 13.7179 18.1403 13.7116 18.1466C13.6491 18.1966 12.8053 18.4966 12.4427 18.6029C11.5426 18.8654 11.2738 18.8967 10.0361 18.8967C8.69847 18.8967 8.27341 18.8342 7.20451 18.4779C6.3669 18.2028 5.88558 17.9465 5.94809 17.8153C6.02935 17.6215 6.04811 16.6401 5.97935 16.3088C5.76682 15.3024 4.96046 14.4211 3.95407 14.1023C3.52276 13.9585 2.66015 13.9272 2.27884 14.0335L2.05381 14.1023L1.78503 13.4709C0.872403 11.3081 0.828647 8.98907 1.67251 6.78252C1.84128 6.34496 1.87254 6.3012 1.9913 6.33871C2.81017 6.60124 3.72279 6.52623 4.4979 6.13243C4.89795 5.9324 5.47928 5.35107 5.67931 4.95102C6.0356 4.25092 6.13562 3.39456 5.94809 2.67571C5.89809 2.48818 5.86683 2.31316 5.88558 2.29441C5.89809 2.27565 6.19813 2.13188 6.54817 1.98812C7.37329 1.64432 8.46093 1.37553 9.25479 1.30677C9.86737 1.25677 10.0924 1.25677 11.0175 1.33178ZM3.89781 1.74433C5.08547 2.31941 5.34176 3.91338 4.40413 4.85725C3.99158 5.26981 3.66028 5.39483 3.00394 5.39483C2.57888 5.39483 2.39136 5.36357 2.22259 5.27606C1.50374 4.89476 1.08493 4.24467 1.07868 3.50082C1.07243 3.16953 1.10994 3.00075 1.24745 2.70696C1.44123 2.2819 1.57875 2.11313 1.9538 1.85685C2.53513 1.45679 3.21022 1.41929 3.89781 1.74433ZM17.3996 1.74433C18.5873 2.31941 18.8436 3.91338 17.906 4.85725C17.4934 5.26981 17.1621 5.39483 16.5058 5.39483C16.0807 5.39483 15.8932 5.36357 15.7244 5.27606C15.0056 4.89476 14.5868 4.24467 14.5805 3.50082C14.5743 3.16953 14.6118 3.00075 14.7493 2.70696C14.9431 2.2819 15.0806 2.11313 15.4556 1.85685C16.037 1.45679 16.7121 1.41929 17.3996 1.74433ZM3.89781 15.2462C5.08547 15.8212 5.34176 17.4152 4.40413 18.3591C3.99158 18.7716 3.66028 18.8967 3.00394 18.8967C2.57888 18.8967 2.39136 18.8654 2.22259 18.7779C1.50374 18.3966 1.08493 17.7465 1.07868 17.0027C1.07243 16.6714 1.10994 16.5026 1.24745 16.2088C1.44123 15.7837 1.57875 15.615 1.9538 15.3587C2.53513 14.9586 3.21022 14.9211 3.89781 15.2462ZM17.3996 15.2462C18.5873 15.8212 18.8436 17.4152 17.906 18.3591C17.4934 18.7716 17.1621 18.8967 16.5058 18.8967C16.0807 18.8967 15.8932 18.8654 15.7244 18.7779C15.0056 18.3966 14.5868 17.7465 14.5805 17.0027C14.5743 16.6714 14.6118 16.5026 14.7493 16.2088C14.9431 15.7837 15.0806 15.615 15.4556 15.3587C16.037 14.9586 16.7121 14.9211 17.3996 15.2462Z" fill="white"/>
</g>
<defs>
<clipPath id="clip0_9429_247004">
<rect width="20" height="20" fill="white"/>
</clipPath>
</defs>
</svg>
