<svg width="20" height="21" viewBox="0 0 20 21" fill="none" xmlns="http://www.w3.org/2000/svg">
<g clip-path="url(#clip0_9454_107736)">
<path d="M18.2808 0.883842C18.1475 0.946588 17.9945 1.06031 17.9357 1.12698C17.8181 1.26816 17.6455 1.60933 17.6455 1.71129C17.6455 1.78188 17.7357 1.75835 16.1161 2.11521C15.2377 2.31129 15.1044 2.35051 15.0142 2.4407C14.9553 2.49953 14.8298 2.75443 14.724 3.02502L14.5357 3.50345L14.1004 3.28384C13.2063 2.83286 12.1789 2.57012 11.1945 2.53874L10.6063 2.51914L10.5004 2.62502L10.3906 2.73482V6.44855V10.1623L10.4926 10.2682L10.5985 10.3701H14.3122H18.0259L18.1357 10.2603L18.2416 10.1544L18.222 9.5662C18.1632 7.87208 17.4534 6.1858 16.2494 4.88384C16.0181 4.63286 15.5161 4.17404 15.3357 4.04855L15.2416 3.98188L15.4102 3.54267C15.5318 3.24071 15.6063 3.09561 15.6612 3.076C15.7083 3.05639 16.2063 2.93874 16.7749 2.81718L17.8063 2.59365L17.924 2.73482C17.9867 2.80933 18.1475 2.92698 18.2808 2.99365C18.4847 3.09953 18.5632 3.11521 18.822 3.11521C19.0808 3.11521 19.1593 3.09953 19.3632 2.99365C19.7867 2.7858 19.9985 2.43286 19.9985 1.93482C19.9985 1.2407 19.5161 0.762274 18.8181 0.762274C18.5632 0.762274 18.4847 0.77796 18.2808 0.883842ZM19.0769 1.68384C19.3044 1.90737 19.1357 2.29169 18.8142 2.29169C18.5044 2.29169 18.3436 1.90345 18.5671 1.68384C18.7004 1.54659 18.9436 1.54659 19.0769 1.68384ZM12.1318 3.476C12.3475 3.51914 12.7004 3.61325 12.9161 3.68776C13.3789 3.84463 14.1945 4.24071 14.1945 4.30737C14.1945 4.3309 14.0024 4.83678 13.7632 5.42894C13.2847 6.62502 13.2573 6.75443 13.4338 6.93482C13.5789 7.076 13.8651 7.07992 14.0024 6.94267C14.0573 6.88384 14.2612 6.42894 14.5004 5.82502C14.724 5.26031 14.92 4.80149 14.9357 4.80149C14.9475 4.80149 15.1044 4.93482 15.2808 5.09561C16.4573 6.17796 17.2377 7.73874 17.3906 9.29953L17.422 9.5858H14.2965H11.1749V6.46423V3.33874L11.4612 3.3662C11.6142 3.38188 11.92 3.42894 12.1318 3.476Z" fill="white"/>
<path d="M8.09804 4.15878C4.97255 4.64113 2.5098 7.00976 1.87451 10.1392C1.79608 10.5352 1.78431 10.7 1.78431 11.547C1.78431 12.398 1.79608 12.5588 1.87451 12.9588C1.99608 13.5666 2.26667 14.3588 2.52549 14.8764L2.74118 15.3L2.26274 15.4882C1.99216 15.5941 1.73725 15.7196 1.67843 15.7784C1.58824 15.8686 1.54902 16.0019 1.35294 16.8803C0.996078 18.5 1.01961 18.4098 0.94902 18.4098C0.847059 18.4098 0.505882 18.5823 0.364706 18.7C0.298039 18.7588 0.184314 18.9117 0.121569 19.045C0.0156863 19.249 0 19.3274 0 19.5862C0 19.845 0.0156863 19.9235 0.121569 20.1274C0.329412 20.5509 0.682353 20.7627 1.18039 20.7627C1.87451 20.7627 2.35294 20.2803 2.35294 19.5823C2.35294 19.3274 2.33725 19.249 2.23137 19.045C2.16471 18.9117 2.04706 18.7509 1.96863 18.6843L1.82745 18.5666L2.05882 17.5196C2.18431 16.9392 2.30196 16.4411 2.31765 16.4058C2.33333 16.3745 2.5451 16.2686 2.78431 16.1745L3.21961 16.0058L3.28627 16.1C3.32157 16.1509 3.41176 16.2647 3.48627 16.3509C4.73725 17.7941 6.31372 18.6647 8.17647 18.9431C8.79216 19.0333 10.0471 19.0019 10.6431 18.8843C12.9529 18.4176 14.898 16.9196 15.9216 14.8254C16.3804 13.8882 16.6196 12.9627 16.6549 11.9784L16.6784 11.3705L16.5686 11.2607L16.4588 11.1549H13.0353H9.60784V7.7274V4.30387L9.50588 4.19799C9.40392 4.09995 9.38824 4.09603 8.92549 4.09995C8.66667 4.10387 8.29412 4.1274 8.09804 4.15878ZM8.82353 8.3274V11.7313L8.92549 11.8372L9.03137 11.9392H12.4431H15.8549L15.8274 12.2215C15.7882 12.6098 15.6274 13.3313 15.4824 13.7392C14.6118 16.2254 12.2706 18.0098 9.67843 18.1666C8.03137 18.2686 6.54118 17.8254 5.21569 16.845C4.92157 16.6294 4.03922 15.7745 4.03922 15.7078C4.03922 15.6882 4.49804 15.4882 5.06274 15.2647C5.66667 15.0254 6.12157 14.8215 6.18039 14.7666C6.31765 14.6294 6.31372 14.3431 6.17255 14.198C5.99216 14.0215 5.86274 14.049 4.66667 14.5274C4.07451 14.7666 3.56863 14.9588 3.5451 14.9588C3.47843 14.9588 3.08235 14.1313 2.92157 13.6607C2.65098 12.845 2.61176 12.5745 2.61176 11.547C2.61176 10.5156 2.65098 10.249 2.92549 9.43328C3.57647 7.48426 5.15294 5.90779 7.1098 5.25289C7.61961 5.08034 8.29804 4.93917 8.67843 4.92348L8.82353 4.91956V8.3274ZM1.43137 19.3313C1.65882 19.5549 1.4902 19.9392 1.16863 19.9392C0.956863 19.9392 0.823529 19.8019 0.823529 19.5862C0.823529 19.3666 0.956863 19.2333 1.17647 19.2333C1.29412 19.2333 1.36078 19.2568 1.43137 19.3313Z" fill="white"/>
</g>
<defs>
<clipPath id="clip0_9454_107736">
<rect width="20" height="20" fill="white" transform="translate(0 0.762695)"/>
</clipPath>
</defs>
</svg>
