<svg width="20" height="21" viewBox="0 0 20 21" fill="none" xmlns="http://www.w3.org/2000/svg">
<g clip-path="url(#clip0_9454_109090)">
<path d="M0.199478 1.8077C-0.00456773 1.88235 0.000409002 1.64845 0.000409002 10.0591C0.000409002 18.9724 -0.0244747 18.3254 0.313943 18.9674C0.503059 19.3208 1.02064 19.8632 1.35906 20.0573C1.48845 20.1369 1.7572 20.2564 1.95627 20.331L2.31459 20.4604L6.28105 20.4754C10.2176 20.4903 10.2475 20.4903 10.352 20.3858C10.4764 20.2614 10.4814 20.0324 10.362 19.9229C10.2774 19.8433 9.93895 19.8383 6.50998 19.8383C4.22068 19.8383 2.64803 19.8184 2.4838 19.7886C1.80199 19.6642 1.12515 19.1416 0.811617 18.5096L0.672268 18.2209L0.657338 10.3179L0.647385 2.41984H7.49039H14.3334V5.77912C14.3334 9.0737 14.3334 9.1384 14.4329 9.23793C14.4877 9.29268 14.5872 9.33747 14.6569 9.33747C14.7266 9.33747 14.8261 9.29268 14.8808 9.23793C14.9804 9.1384 14.9804 9.0737 14.9804 5.56512C14.9804 2.55918 14.9704 1.97691 14.9107 1.8923C14.841 1.79775 14.7017 1.79775 7.55509 1.78779C3.54882 1.78282 0.239292 1.79277 0.199478 1.8077Z" fill="white"/>
<path d="M3.0805 4.74827C2.96603 4.87269 2.97599 5.08669 3.09543 5.20613C3.19496 5.30566 3.25966 5.30566 7.02705 5.30566C10.7944 5.30566 10.8591 5.30566 10.9587 5.20613C11.0831 5.08171 11.0881 4.84781 10.9686 4.7433C10.884 4.66367 10.5406 4.65869 7.01709 4.65869C3.34426 4.65869 3.15515 4.66367 3.0805 4.74827Z" fill="white"/>
<path d="M13.662 10.1583C11.2782 10.5963 9.4716 12.6467 9.3223 15.0902C9.22774 16.6828 9.81998 18.1858 10.9845 19.2956C12.2835 20.5348 14.0402 21.0175 15.8368 20.6343C17.7778 20.2163 19.3405 18.6884 19.8531 16.7027C19.9924 16.1652 20.0422 15.2296 19.9626 14.6573C19.6391 12.4128 17.8922 10.5813 15.6776 10.1633C15.1849 10.0687 14.1597 10.0638 13.662 10.1583ZM15.4586 10.7854C16.9666 11.0491 18.2854 12.0744 18.9374 13.4877C19.2459 14.1496 19.3355 14.5876 19.3305 15.4336C19.3255 16.0358 19.3056 16.2598 19.221 16.5783C19.0966 17.0361 18.7532 17.7627 18.4944 18.1211L18.3153 18.3699V18.1459C18.3153 17.1108 17.4543 16.1503 16.454 16.0707C16.1404 16.0458 16.1205 16.0507 15.7473 16.2697C15.0057 16.7126 14.3787 16.7027 13.6122 16.2349C13.3883 16.0955 13.3236 16.0806 12.9902 16.0856C12.3531 16.0955 11.8107 16.3792 11.4175 16.9117C11.1786 17.2402 11.0592 17.5637 11.0144 18.0365L10.9845 18.35L10.8153 18.1111C10.5516 17.7428 10.2181 17.0212 10.1036 16.5584C9.45667 13.9854 11.1289 11.3428 13.7367 10.8053C14.1348 10.7257 15.0605 10.7107 15.4586 10.7854ZM13.4032 16.8769C13.881 17.1406 14.1895 17.2203 14.732 17.2203C15.2695 17.2252 15.6925 17.1058 16.0757 16.852C16.2001 16.7724 16.3445 16.7027 16.3992 16.7027C16.5784 16.7027 17.096 16.9814 17.2602 17.1705C17.5837 17.5388 17.6384 17.713 17.6583 18.3998L17.6782 19.0268L17.4344 19.201C16.5187 19.8729 15.2795 20.2163 14.2244 20.0918C13.3634 19.9923 12.7115 19.7584 12.0595 19.3204L11.6713 19.0567L11.6564 18.5441C11.6415 17.9518 11.7161 17.6234 11.945 17.3099C12.169 16.9963 12.6567 16.7126 12.9752 16.7027C13.0349 16.7027 13.229 16.7823 13.4032 16.8769Z" fill="white"/>
<path d="M14.0109 12.0248C13.4187 12.2139 12.911 12.6867 12.6821 13.2689C12.5278 13.6621 12.5278 14.4235 12.6821 14.8117C13.0006 15.598 13.6725 16.0808 14.5384 16.1405C15.4243 16.2052 16.1907 15.7424 16.5938 14.9112C16.7382 14.6077 16.7481 14.5529 16.7481 14.0403C16.7481 13.5277 16.7382 13.473 16.5889 13.1545C16.4047 12.7713 16.0116 12.3433 15.6731 12.1741C15.1655 11.9103 14.5384 11.8555 14.0109 12.0248ZM15.1356 12.6568C15.5089 12.7762 15.9269 13.1893 16.0514 13.5626C16.2803 14.2593 15.9568 15.0108 15.28 15.3641C14.9664 15.5284 14.3543 15.5333 14.0507 15.3691C13.7372 15.2049 13.5232 15.0008 13.359 14.7022C13.2345 14.4733 13.2146 14.3887 13.2146 14.0403C13.2146 13.7268 13.2395 13.5974 13.3291 13.4332C13.7073 12.7165 14.3991 12.4229 15.1356 12.6568Z" fill="white"/>
<path d="M3.0805 7.2053C2.96603 7.32972 2.97599 7.54372 3.09543 7.66316C3.19496 7.7627 3.25966 7.7627 7.02705 7.7627C10.7944 7.7627 10.8591 7.7627 10.9587 7.66316C11.0831 7.53874 11.0881 7.30484 10.9686 7.20033C10.884 7.1207 10.5406 7.11572 7.01709 7.11572C3.34426 7.11572 3.15515 7.1207 3.0805 7.2053Z" fill="white"/>
<path d="M3.08518 10.2053C2.96076 10.3397 2.97569 10.5935 3.11006 10.6831C3.20462 10.7527 3.47336 10.7627 5.04103 10.7627C7.07154 10.7627 7.0815 10.7627 7.0815 10.4442C7.0815 10.1107 7.11136 10.1157 5.03108 10.1157C3.28922 10.1157 3.15983 10.1207 3.08518 10.2053Z" fill="white"/>
</g>
<defs>
<clipPath id="clip0_9454_109090">
<rect width="20" height="20" fill="white" transform="translate(0 0.762695)"/>
</clipPath>
</defs>
</svg>
