<svg width="20" height="20" viewBox="0 0 20 20" fill="none" xmlns="http://www.w3.org/2000/svg">
<g clip-path="url(#clip0_9429_247278)">
<path d="M6.54333 0.0772724C5.57063 0.288219 4.8792 0.663235 4.17604 1.36248C3.57445 1.96017 3.23459 2.51097 2.98849 3.28444C2.8127 3.83915 2.77364 4.22198 2.77364 5.35484V6.39395L2.23846 6.41739C1.6564 6.44083 1.38295 6.51114 0.992311 6.73771C0.726675 6.89006 0.39463 7.24164 0.246186 7.519C-0.0116379 8.01511 8.13837e-05 7.78854 8.13837e-05 11.9723C8.13837e-05 15.3318 0.00789422 15.7928 0.0625841 15.9803C0.265718 16.6756 0.789178 17.203 1.52358 17.4452C1.72672 17.5155 1.99235 17.5194 6.09409 17.5311L10.4497 17.5429L10.606 17.7851C10.8287 18.1327 11.4654 18.7773 11.8639 19.0586C12.7428 19.6836 13.7507 20 14.864 20C16.2859 20 17.5008 19.4961 18.5009 18.4999C19.2704 17.7265 19.7548 16.7967 19.9462 15.7303C20.0205 15.3045 20.0166 14.4021 19.9423 13.9607C19.7861 13.0622 19.3564 12.1598 18.7704 11.4918C17.8368 10.4332 16.7039 9.85894 15.2273 9.70659L15.0007 9.68315V8.9839C15.0007 8.17918 14.9695 7.97995 14.7742 7.5815C14.532 7.08148 14.071 6.69474 13.4772 6.49942C13.2741 6.42911 13.0124 6.4252 9.00828 6.41348L4.7581 6.40176L4.77763 5.35875C4.79716 4.1712 4.81669 4.06572 5.10186 3.47976C5.2464 3.18287 5.34015 3.05787 5.60188 2.79614C6.67615 1.72187 8.32856 1.71797 9.39501 2.79223C10.0279 3.42898 10.231 4.01494 10.2349 5.22593C10.2349 5.6322 10.2779 5.77283 10.4693 5.99159C10.6763 6.22207 10.8677 6.30801 11.2115 6.30801C11.5357 6.30801 11.7271 6.23379 11.9303 6.03065C12.1569 5.80408 12.2037 5.65173 12.2194 5.10483C12.2662 3.59305 11.7975 2.34299 10.8209 1.36639C10.2388 0.784334 9.47705 0.342909 8.69186 0.131962C8.352 0.0421143 8.20746 0.0264893 7.59806 0.0147705C7.00819 0.00304985 6.83631 0.0108643 6.54333 0.0772724ZM8.48091 0.717924C9.23485 0.90934 9.82863 1.25701 10.4107 1.85079C11.2388 2.69067 11.6021 3.6243 11.6021 4.88998C11.6021 5.35875 11.5904 5.46032 11.5318 5.53063C11.3717 5.73376 11.106 5.74548 10.9341 5.56188C10.8443 5.46813 10.8404 5.42906 10.813 4.79232C10.7818 3.94463 10.6724 3.52664 10.3482 2.98365C9.60987 1.76484 8.1098 1.13591 6.73865 1.46796C5.71126 1.71797 4.82451 2.47191 4.42215 3.4407C4.21511 3.94463 4.17995 4.21417 4.17995 5.37047V6.40567H3.76977H3.3596V5.65173C3.36351 4.1751 3.45726 3.61649 3.82837 2.87036C4.42996 1.66328 5.56673 0.84293 6.93788 0.62417C7.32461 0.565575 8.05902 0.608545 8.48091 0.717924ZM13.3991 7.12054C13.7936 7.27289 14.1413 7.62838 14.3015 8.03464C14.3757 8.22997 14.3913 8.35497 14.4069 8.9839L14.4226 9.70659L14.0202 9.773C12.9342 9.94879 11.9889 10.4332 11.2115 11.2106C10.2154 12.2067 9.71143 13.4333 9.71143 14.8631C9.71143 15.5311 9.77394 15.9295 9.97707 16.5311L10.106 16.9139L5.92221 16.9061L1.73844 16.8944L1.48452 16.7733C1.21107 16.6405 0.945434 16.4022 0.79699 16.1522C0.582138 15.7811 0.582138 15.8358 0.593857 11.8707L0.605576 8.22215L0.695424 7.99949C0.793084 7.75338 1.09388 7.3979 1.31264 7.26117C1.39077 7.2143 1.55093 7.14398 1.67203 7.10492C1.88297 7.03851 2.17596 7.0346 7.559 7.04241C12.8639 7.05023 13.235 7.05413 13.3991 7.12054ZM15.532 10.3551C16.2078 10.4488 17.0946 10.8043 17.5985 11.191C18.4501 11.8356 19.04 12.7028 19.3251 13.7341C19.4267 14.0974 19.4345 14.1677 19.4306 14.8826C19.4306 15.5389 19.4189 15.6873 19.3447 15.949C19.1298 16.7342 18.7704 17.3827 18.243 17.9413C17.368 18.871 16.3328 19.3476 15.0593 19.4023C13.9655 19.4492 12.9108 19.1132 12.0358 18.4335C11.4654 17.996 11.0748 17.5077 10.7388 16.8163C10.3326 15.9803 10.1958 15.1092 10.3286 14.2185C10.6685 11.9762 12.5514 10.3355 14.8132 10.316C15.0437 10.3121 15.364 10.3316 15.532 10.3551Z" fill="white"/>
<path d="M7.19145 9.6873C6.94535 9.73809 6.57033 9.95294 6.41798 10.1326C6.34376 10.2186 6.23438 10.3866 6.17969 10.5076C6.08594 10.6952 6.07422 10.7733 6.07031 11.0936C6.07031 11.4374 6.08203 11.4882 6.19922 11.7265C6.28126 11.8905 6.39845 12.0507 6.51955 12.1601L6.71487 12.3359V13.0546V13.7734L6.82816 13.9531C6.96879 14.1719 7.20317 14.2969 7.48834 14.2969C7.82429 14.2969 8.04696 14.1602 8.20322 13.8594C8.26963 13.7344 8.27744 13.625 8.27744 13.0273V12.3398L8.48448 12.1366C9.21107 11.4257 9.01575 10.2303 8.10165 9.80059C7.83992 9.67558 7.4649 9.62871 7.19145 9.6873ZM7.83601 10.3553C8.23837 10.5506 8.42198 11.035 8.24228 11.4257C8.17978 11.5663 8.11337 11.6366 7.78132 11.914C7.69538 11.9843 7.69148 12.0077 7.69148 12.7304C7.69148 13.1367 7.67585 13.5156 7.65241 13.5703C7.60553 13.6992 7.4024 13.7148 7.3399 13.5976C7.31646 13.5507 7.30083 13.2109 7.30083 12.7656C7.30083 11.9335 7.30865 11.9608 7.04301 11.785C6.82425 11.6366 6.67581 11.3592 6.67581 11.0975C6.67581 10.4998 7.30474 10.0975 7.83601 10.3553Z" fill="white"/>
<path d="M16.5275 12.6404C16.4455 12.6756 15.965 13.1248 15.3283 13.7577L14.2657 14.8202L13.7852 14.3514C13.2657 13.8436 13.1485 13.7733 12.7969 13.7733C12.25 13.7733 11.8398 14.1835 11.8398 14.7265C11.8398 15.1054 11.9375 15.2421 12.8594 16.1601C13.7735 17.0664 13.8868 17.1484 14.2618 17.1484C14.6603 17.1484 14.7072 17.1094 16.2658 15.5546C17.0666 14.7577 17.7424 14.0506 17.7893 13.9647C17.9065 13.7459 17.9065 13.3241 17.7893 13.1053C17.6838 12.9061 17.4846 12.7147 17.301 12.6404C17.1174 12.5623 16.7072 12.5623 16.5275 12.6404ZM17.0705 13.2225C17.1994 13.285 17.2893 13.4725 17.2541 13.6014C17.2424 13.6522 16.594 14.328 15.8166 15.1054C14.504 16.4179 14.3868 16.5234 14.2618 16.5234C14.1407 16.5234 14.0548 16.4492 13.2969 15.6953C12.5117 14.914 12.4649 14.8554 12.4649 14.7226C12.4649 14.6093 12.4922 14.5546 12.586 14.4764C12.8204 14.2772 12.9141 14.3319 13.5977 15.0155C14.0743 15.496 14.1368 15.5468 14.2618 15.5468C14.3907 15.5468 14.4767 15.4726 15.5119 14.4296C16.1252 13.8163 16.6799 13.2772 16.7424 13.2381C16.883 13.1483 16.9299 13.1483 17.0705 13.2225Z" fill="white"/>
</g>
<defs>
<clipPath id="clip0_9429_247278">
<rect width="20" height="20" fill="white"/>
</clipPath>
</defs>
</svg>
