<svg width="20" height="20" viewBox="0 0 20 20" fill="none" xmlns="http://www.w3.org/2000/svg">
<path d="M9.60432 20C9.32147 20.0008 9.04447 19.9196 8.80688 19.7661L7.23015 18.7368C7.16428 18.6963 7.08951 18.6726 7.01237 18.6677C6.93523 18.6628 6.85805 18.6768 6.78758 18.7086L4.99712 19.5443C4.77319 19.6484 4.52678 19.695 4.28029 19.6796C4.0338 19.6643 3.79505 19.5877 3.58573 19.4566C3.40886 19.349 3.26229 19.1981 3.15981 19.0182C3.05734 18.8383 3.00235 18.6353 3 18.4283V1.57322C3.00343 1.36593 3.05921 1.16288 3.16214 0.982927C3.26507 0.802972 3.41182 0.651956 3.58875 0.54391C3.79807 0.412846 4.03682 0.33617 4.28331 0.320853C4.5298 0.305535 4.77621 0.352061 5.00015 0.456202L6.78959 1.29195C6.85991 1.324 6.93699 1.33837 7.01413 1.3338C7.09127 1.32923 7.16613 1.30586 7.23217 1.26574L8.80789 0.234411C9.04551 0.0813785 9.32218 0 9.60482 0C9.88746 0 10.1641 0.0813785 10.4018 0.234411L11.9785 1.26473C12.0446 1.30503 12.1197 1.32849 12.197 1.33306C12.2743 1.33763 12.3516 1.32317 12.4221 1.29094L14.2115 0.455194C14.4352 0.350146 14.6818 0.303118 14.9284 0.318446C15.1751 0.333774 15.4139 0.410966 15.6229 0.542902C15.7993 0.651311 15.9454 0.802485 16.0478 0.982416C16.1502 1.16235 16.2055 1.36521 16.2086 1.57221V18.4283C16.2053 18.6351 16.15 18.8378 16.0476 19.0175C15.9452 19.1973 15.7991 19.3483 15.6229 19.4566C15.4139 19.5885 15.1751 19.6657 14.9284 19.681C14.6818 19.6964 14.4352 19.6493 14.2115 19.5443L12.4271 18.7096C12.3564 18.6773 12.2789 18.6629 12.2014 18.6677C12.1239 18.6724 12.0487 18.6961 11.9825 18.7368L10.4058 19.7661C10.167 19.9203 9.88853 20.0016 9.60432 20ZM6.98316 17.6621C7.26594 17.6615 7.54275 17.7435 7.77958 17.898L9.35631 18.9263C9.42995 18.9723 9.515 18.9966 9.6018 18.9966C9.68859 18.9966 9.77364 18.9723 9.84728 18.9263L11.425 17.897C11.6345 17.762 11.8748 17.6824 12.1234 17.6657C12.372 17.6489 12.6208 17.6956 12.8465 17.8012L14.6349 18.636C14.7046 18.6688 14.7814 18.6838 14.8583 18.6796C14.9352 18.6754 15.0098 18.6521 15.0755 18.6118C15.1088 18.5945 15.1372 18.5691 15.158 18.5379C15.1788 18.5067 15.1913 18.4707 15.1944 18.4333V1.57322C15.1913 1.53584 15.1788 1.49987 15.158 1.46866C15.1372 1.43746 15.1088 1.41204 15.0755 1.39478C15.0099 1.35431 14.9353 1.33082 14.8584 1.32642C14.7815 1.32202 14.7047 1.33685 14.6349 1.36958L12.8455 2.20532C12.6199 2.31081 12.3713 2.35735 12.1229 2.3406C11.8745 2.32385 11.6344 2.24436 11.425 2.10955L9.84929 1.07923C9.77538 1.03459 9.69067 1.01099 9.60432 1.01099C9.51796 1.01099 9.43325 1.03459 9.35934 1.07923L7.7816 2.10854C7.57223 2.24344 7.33222 2.3234 7.08378 2.34102C6.83533 2.35864 6.58645 2.31336 6.36013 2.20935L4.57068 1.36958C4.50093 1.33685 4.42413 1.32202 4.34721 1.32642C4.27029 1.33082 4.19568 1.35431 4.13012 1.39478C4.09682 1.41204 4.06845 1.43746 4.04764 1.46866C4.02684 1.49987 4.01429 1.53584 4.01116 1.57322V18.4283C4.01429 18.4657 4.02684 18.5016 4.04764 18.5328C4.06845 18.564 4.09682 18.5895 4.13012 18.6067C4.19609 18.6462 4.27066 18.669 4.34741 18.6732C4.42417 18.6775 4.50079 18.6629 4.57068 18.6309L6.36113 17.7952C6.55669 17.7072 6.76872 17.6619 6.98316 17.6621Z" fill="white"/>
<path d="M12.6847 5.36263H6.54313C6.40944 5.36263 6.28123 5.30952 6.1867 5.21499C6.09217 5.12046 6.03906 4.99225 6.03906 4.85856C6.03906 4.72487 6.09217 4.59666 6.1867 4.50213C6.28123 4.4076 6.40944 4.35449 6.54313 4.35449H12.6847C12.8184 4.35449 12.9466 4.4076 13.0411 4.50213C13.1357 4.59666 13.1888 4.72487 13.1888 4.85856C13.1888 4.99225 13.1357 5.12046 13.0411 5.21499C12.9466 5.30952 12.8184 5.36263 12.6847 5.36263ZM12.6847 8.94455H6.54313C6.40944 8.94455 6.28123 8.89144 6.1867 8.79691C6.09217 8.70238 6.03906 8.57417 6.03906 8.44048C6.03906 8.30679 6.09217 8.17858 6.1867 8.08405C6.28123 7.98952 6.40944 7.93641 6.54313 7.93641H12.6847C12.8184 7.93641 12.9466 7.98952 13.0411 8.08405C13.1357 8.17858 13.1888 8.30679 13.1888 8.44048C13.1888 8.57417 13.1357 8.70238 13.0411 8.79691C12.9466 8.89144 12.8184 8.94455 12.6847 8.94455ZM9.61392 12.5204H6.54313C6.40944 12.5204 6.28123 12.4673 6.1867 12.3728C6.09217 12.2782 6.03906 12.15 6.03906 12.0163C6.03906 11.8827 6.09217 11.7544 6.1867 11.6599C6.28123 11.5654 6.40944 11.5123 6.54313 11.5123H9.61392C9.74761 11.5123 9.87582 11.5654 9.97035 11.6599C10.0649 11.7544 10.118 11.8827 10.118 12.0163C10.118 12.15 10.0649 12.2782 9.97035 12.3728C9.87582 12.4673 9.74761 12.5204 9.61392 12.5204Z" fill="white"/>
</svg>
