<svg width="20" height="20" viewBox="0 0 20 20" fill="none" xmlns="http://www.w3.org/2000/svg">
<path d="M3.46044 0.0710793C3.29163 0.106619 2.95844 0.226566 2.72743 0.34207C2.36759 0.515326 2.24765 0.604176 1.90558 0.950687C1.448 1.40826 1.23476 1.78587 1.08372 2.38116C0.994871 2.72768 0.994871 2.85207 1.00376 10.1066L1.01708 17.4811L1.14592 17.8543C1.5102 18.8938 2.43423 19.7068 3.49154 19.92C4.00687 20.0267 12.4209 20.0267 12.9362 19.92C13.9713 19.7157 14.8509 18.9738 15.2374 17.992C15.3529 17.6899 15.3618 17.681 15.5129 17.681C16.006 17.681 16.9478 17.2768 17.4498 16.8503C19.0402 15.5131 19.1912 13.1142 17.7874 11.5815C17.2321 10.9773 16.4236 10.5375 15.7128 10.4531L15.4773 10.4265V7.3745C15.4773 5.69525 15.464 4.26033 15.4507 4.18036C15.4285 4.0693 15.0375 3.68725 13.4604 2.23012C12.3854 1.23056 11.3947 0.324299 11.2659 0.208796L11.0304 0L7.40091 0.00444221C4.42446 0.00444221 3.71366 0.0177689 3.46044 0.0710793ZM10.5462 2.21235C10.5462 3.46957 10.5595 3.74944 10.6173 3.9227C10.715 4.20702 11.0215 4.5402 11.3103 4.66904C11.5413 4.77565 11.568 4.77565 13.1361 4.78898L14.7221 4.80231V7.62328V10.4398H14.6022C14.3401 10.4398 13.878 10.5864 13.4338 10.8041C13.0206 11.0084 12.9185 11.084 12.5186 11.4793C12.1544 11.8481 12.0389 11.9991 11.8656 12.3323C11.5413 12.9631 11.4569 13.3185 11.4613 14.0604C11.4613 14.7579 11.5191 15.0378 11.7723 15.5842C12.261 16.6504 13.2339 17.41 14.4245 17.6588C14.5755 17.6899 14.5755 17.7255 14.4022 18.032C14.189 18.4096 13.7803 18.7916 13.3894 18.9827C12.763 19.2936 12.9007 19.2848 8.06728 19.2714C3.99798 19.2581 3.71366 19.2537 3.48265 19.1737C2.61193 18.8849 1.97221 18.2097 1.7723 17.3656C1.67457 16.9347 1.67457 3.05642 1.7723 2.6255C1.99887 1.66593 2.79407 0.91959 3.76253 0.759663C3.89136 0.73745 5.46844 0.719679 7.27208 0.715237L10.5462 0.710794V2.21235ZM13.6781 3.43847C14.0202 3.75389 14.3223 4.02932 14.3445 4.05153C14.3711 4.07819 13.8469 4.08707 13.0562 4.07819C11.1548 4.06042 11.257 4.15815 11.257 2.38561V1.19058L12.1588 2.03021C12.6519 2.48778 13.3361 3.12306 13.6781 3.43847ZM15.8283 11.2217C16.8323 11.4749 17.703 12.3634 17.9429 13.3763C18.0273 13.7406 18.0273 14.3892 17.9429 14.7268C17.7297 15.5709 17.1344 16.3039 16.3658 16.6726C15.8683 16.908 15.6106 16.9702 15.0864 16.9702C14.3978 16.9702 13.8158 16.7659 13.2961 16.3483C12.5675 15.7619 12.1855 14.9978 12.1766 14.1048C12.1721 13.5584 12.2299 13.2874 12.4831 12.7632C12.8829 11.928 13.7403 11.2972 14.6777 11.1506C14.9753 11.1062 15.4951 11.1373 15.8283 11.2217Z" fill="white"/>
<path d="M3.91298 7.42748C3.73084 7.56963 3.73973 7.93836 3.92631 8.04054C3.97962 8.06719 5.17464 8.08496 7.116 8.08496C10.1013 8.08496 10.2302 8.08052 10.3279 8.00055C10.4745 7.88061 10.4745 7.57852 10.3279 7.45857C10.2302 7.37861 10.1013 7.37417 7.10712 7.37417C4.68153 7.37417 3.97074 7.38749 3.91298 7.42748Z" fill="white"/>
<path d="M3.89915 9.74728C3.73922 9.88056 3.73034 10.1515 3.88138 10.2715C3.97467 10.347 4.17014 10.3515 7.09773 10.3515C10.514 10.3515 10.3718 10.3648 10.434 10.0894C10.4651 9.94275 10.3674 9.71174 10.2563 9.66732C10.2163 9.65399 8.79475 9.64066 7.10217 9.64066H4.0191L3.89915 9.74728Z" fill="white"/>
<path d="M14.904 12.2437C14.8507 12.3104 14.8107 12.417 14.8107 12.4881C14.8107 12.5813 14.7796 12.6302 14.6908 12.6791C14.6197 12.7146 14.5087 12.8035 14.4331 12.8834C14.3087 13.0123 14.2999 13.0478 14.2999 13.341C14.2999 13.6298 14.3132 13.6831 14.4465 13.8697C14.5264 13.9852 14.6864 14.1451 14.8019 14.2206C15.1439 14.4516 15.3483 14.6649 15.295 14.7359C15.2283 14.8159 14.8463 14.8115 14.6464 14.7271C14.4242 14.6338 14.291 14.6427 14.1666 14.7715C14.0289 14.9048 14.0244 15.0958 14.1444 15.2513C14.2288 15.3579 14.5664 15.5045 14.7308 15.5045C14.7885 15.5045 14.8107 15.54 14.8107 15.6378C14.8107 15.8244 14.984 15.9932 15.1795 15.9932C15.3794 15.9932 15.5082 15.8643 15.5437 15.6289C15.5704 15.4734 15.6059 15.4156 15.7525 15.3135C15.9747 15.1535 16.1213 14.8514 16.0768 14.6249C16.0102 14.2739 15.837 14.0518 15.335 13.6875C14.8685 13.3499 14.9218 13.2388 15.5082 13.3366C15.8814 13.3988 16.028 13.3543 16.1035 13.1633C16.1968 12.9145 16.0457 12.6924 15.7525 12.6391C15.5882 12.6124 15.5704 12.5991 15.526 12.417C15.4727 12.1949 15.3794 12.1282 15.1484 12.1282C15.0373 12.1282 14.9707 12.1593 14.904 12.2437Z" fill="white"/>
</svg>
