<svg width="20" height="20" viewBox="0 0 20 20" fill="none" xmlns="http://www.w3.org/2000/svg">
<path d="M2.01979 2.56349C1.66472 2.69708 1.41511 2.89395 1.22879 3.18574C0.982697 3.57246 1.00027 3.1084 1.00027 9.2501C1.00027 15.3953 0.982697 14.9313 1.22879 15.3145C1.42214 15.6133 1.69636 15.8277 2.03385 15.9402C2.19557 15.9965 2.82486 16 10.0001 16C17.1614 16 17.8047 15.9965 17.9664 15.9402C18.4199 15.7891 18.7856 15.4234 18.9402 14.9664C18.9965 14.8082 19 14.3266 19 9.2501C19 4.17362 18.9965 3.69199 18.9402 3.53378C18.7856 3.07676 18.4199 2.71114 17.9664 2.55997C17.8047 2.50372 17.1649 2.50021 9.98608 2.50372C2.77564 2.50372 2.16744 2.51075 2.01979 2.56349ZM17.5938 3.29121C17.5938 3.3123 11.8071 8.59972 10.5978 9.68252C10.299 9.9497 10.088 10.02 9.81381 9.93916C9.68022 9.90048 9.56421 9.82666 9.40249 9.68252C8.19313 8.59972 2.4065 3.3123 2.4065 3.29121C2.4065 3.28066 5.82364 3.27363 10.0001 3.27363C14.1766 3.27363 17.5938 3.28066 17.5938 3.29121ZM4.7549 6.52554C6.35449 7.98801 7.6658 9.19385 7.67283 9.21143C7.67634 9.22549 7.34588 9.53838 6.93456 9.904C5.95371 10.7723 4.38929 12.2137 2.96899 13.5532C2.33971 14.1438 1.81589 14.6289 1.80182 14.6289C1.78425 14.6289 1.7737 12.2067 1.7737 9.2501C1.7737 5.60797 1.78425 3.87128 1.80886 3.87128C1.82995 3.87128 3.15532 5.06657 4.7549 6.52554ZM18.2266 9.2501C18.2266 12.2067 18.216 14.6289 18.1985 14.6289C18.1844 14.6289 17.6606 14.1438 17.0313 13.5532C15.611 12.2137 14.0466 10.7723 13.0657 9.904C12.6544 9.53838 12.3239 9.22549 12.3274 9.21143C12.3485 9.15518 18.1387 3.87479 18.1844 3.87479C18.216 3.87128 18.2266 4.96814 18.2266 9.2501ZM8.69938 10.122C9.23726 10.6071 9.55014 10.7618 10.0001 10.7618C10.4501 10.7618 10.763 10.6071 11.3044 10.122C11.547 9.90048 11.7052 9.78447 11.7333 9.79853C11.9232 9.91455 13.9481 11.7567 16.1102 13.7817L17.6324 15.209L13.818 15.2195C11.7157 15.2231 8.28454 15.2231 6.18574 15.2195L2.36783 15.209L3.67914 13.9785C5.75684 12.0239 8.22829 9.77744 8.2986 9.77744C8.30915 9.77744 8.48844 9.93212 8.69938 10.122Z" fill="white"/>
</svg>
