<svg width="15" height="17" viewBox="0 0 15 17" fill="none" xmlns="http://www.w3.org/2000/svg">
<path d="M4.694 0.704044C3.54545 0.932922 2.5051 1.80266 2.08063 2.88879C1.85592 3.46306 1.85175 3.513 1.83095 5.22334L1.8143 6.82965L1.57294 6.85462C1.06941 6.90871 0.607491 7.17504 0.353644 7.56206C0.0581838 8.00317 0.0706681 7.84087 0.0831523 11.3781L0.0956366 14.5616L0.207995 14.7988C0.361967 15.1317 0.653266 15.4313 0.98618 15.5936L1.26083 15.7268L4.49841 15.7392L7.736 15.7476L7.95655 15.914C8.2645 16.1471 8.90119 16.4384 9.31733 16.5341C11.4188 17.0293 13.4746 15.8766 14.1154 13.8458C14.827 11.5861 13.4163 9.18501 11.1026 8.71477L10.7489 8.64402L10.7239 8.33608C10.6823 7.82423 10.3743 7.33734 9.92906 7.07933C9.52957 6.84213 9.54205 6.84213 5.99236 6.84213H2.72981L2.75062 5.33154C2.77143 3.66281 2.77975 3.58374 3.05856 3.01363C3.25831 2.60165 3.75352 2.09812 4.17382 1.88172C4.62326 1.64868 4.90207 1.5821 5.40144 1.5821C6.15466 1.5821 6.6998 1.81098 7.25743 2.36861C7.82339 2.9304 8.00649 3.41313 8.05226 4.45764L8.07723 5.09434H8.53499H8.99274L8.96777 4.35361C8.95113 3.80846 8.922 3.54213 8.86374 3.32574C8.66815 2.62246 8.42679 2.20215 7.92326 1.69862C7.36147 1.13683 6.75806 0.816402 6.00901 0.687398C5.68026 0.629138 5.03108 0.637461 4.694 0.704044ZM9.44634 7.89081C9.66689 8.02397 9.81254 8.27366 9.81254 8.51918C9.81254 8.65651 9.80006 8.67315 9.70434 8.67315C9.51708 8.67315 8.92616 8.84377 8.61405 8.98526C7.52792 9.48879 6.70813 10.4584 6.40018 11.607C6.27118 12.0814 6.24205 12.8637 6.3336 13.3464C6.42099 13.7959 6.5708 14.2245 6.75806 14.5699L6.90371 14.832H4.23625C2.06399 14.832 1.54381 14.8196 1.43561 14.7738C1.27332 14.7072 1.09438 14.5199 1.03612 14.3618C1.00283 14.2827 0.990341 13.2798 0.990341 11.3073C0.990341 8.41931 0.990341 8.36521 1.07773 8.19043C1.16512 8.00317 1.36487 7.85336 1.58958 7.7951C1.66033 7.77845 3.41229 7.77013 5.48467 7.77013L9.25075 7.77845L9.44634 7.89081ZM10.8154 9.60531C11.4521 9.71767 11.964 9.99648 12.455 10.4834C12.8337 10.8621 13.0543 11.2075 13.2124 11.6902C13.3165 11.994 13.3248 12.0814 13.3289 12.6473C13.3289 13.2257 13.3206 13.2965 13.2124 13.6044C12.8504 14.6281 11.9973 15.4022 10.9528 15.6477C10.5158 15.7476 9.90409 15.7309 9.46298 15.6019C9.03436 15.4771 8.84293 15.3855 8.49753 15.14C7.60283 14.5075 7.09098 13.3714 7.22414 12.3144C7.44886 10.525 9.08013 9.29737 10.8154 9.60531Z" fill="white"/>
<path d="M11.2111 11.6574C10.9157 11.9736 10.4954 12.4147 10.2831 12.6395L9.88779 13.0473L9.45501 12.6436L9.02222 12.2441L8.7226 12.5646C8.55614 12.7435 8.41465 12.9016 8.40633 12.9183C8.39384 12.9474 9.87531 14.3498 9.92941 14.3623C9.96686 14.3706 12.4138 11.7697 12.4138 11.7239C12.4138 11.6907 11.7979 11.0873 11.7646 11.0873C11.7563 11.0873 11.5066 11.3453 11.2111 11.6574Z" fill="white"/>
</svg>
