<svg width="16" height="16" viewBox="0 0 16 16" fill="none" xmlns="http://www.w3.org/2000/svg">
<path d="M5.12712 0.0658067C3.64929 0.375121 2.48389 1.57489 2.15583 3.13396C2.06522 3.5495 2.05897 4.3181 2.13708 4.71802C2.27456 5.41476 2.5745 6.05839 2.99317 6.55204C3.14938 6.73638 3.15251 6.74575 3.0869 6.76762C2.95567 6.80824 2.47139 7.09568 2.21519 7.28627C1.15602 8.06737 0.399922 9.26089 0.0937317 10.6387C0.0281195 10.9356 0.0218707 11.0293 0.0124976 12.6821L0 14.4099L0.0687366 14.4849L0.137473 14.5599H4.18668H8.23589L8.3265 14.6723C8.43273 14.8036 8.57645 14.8723 8.75142 14.8723C8.90451 14.8723 8.98887 14.8317 9.32943 14.588C9.47315 14.4849 9.60437 14.4068 9.62 14.4161C9.63562 14.4255 9.62312 14.563 9.59188 14.7223C9.51377 15.1222 9.51689 15.3285 9.59813 15.4659C9.67311 15.5847 9.73247 15.6409 9.83558 15.6846C9.95431 15.7346 11.4228 15.9971 11.579 15.9971C11.9258 15.9971 12.0601 15.8377 12.1539 15.3097C12.1914 15.1129 12.2195 14.941 12.2195 14.9285C12.2195 14.8504 12.3038 14.941 12.5069 15.2316C12.7756 15.6159 12.9006 15.7034 13.1568 15.6784C13.288 15.6659 13.3786 15.6128 13.9285 15.2316C14.7471 14.6598 14.7971 14.6192 14.8596 14.4505C14.9471 14.2224 14.9127 14.0943 14.6596 13.7256C14.5378 13.5475 14.4378 13.3882 14.4378 13.3726C14.4378 13.3288 14.469 13.332 14.844 13.407C15.0502 13.4444 15.222 13.4632 15.3033 13.4507C15.4532 13.4288 15.6032 13.3195 15.6751 13.1789C15.7344 13.0664 16 11.6042 16 11.3948C16 11.2136 15.9313 11.0574 15.8094 10.9543C15.7251 10.8824 15.6032 10.8481 15.0846 10.7481C14.9846 10.7262 14.9065 10.6981 14.9127 10.6794C14.919 10.6606 15.0658 10.545 15.2345 10.4232C15.6063 10.1607 15.7001 10.0201 15.6782 9.76704C15.6657 9.63269 15.6095 9.53583 15.1658 8.87659C14.7284 8.22671 14.6534 8.12986 14.5315 8.07049C14.3691 7.98613 14.191 7.97989 14.0598 8.04862C14.0066 8.07362 13.8442 8.18297 13.6973 8.28608C13.5505 8.38918 13.4224 8.46104 13.4068 8.44854C13.3911 8.43292 13.4099 8.27983 13.4411 8.10799C13.513 7.74243 13.5067 7.49873 13.4193 7.38313C13.2849 7.20191 13.2224 7.18004 12.3851 7.02382C11.9414 6.94259 11.5165 6.87385 11.4415 6.87385C11.2603 6.87385 11.0572 6.99258 10.9885 7.1363C10.9479 7.22066 10.8166 7.83304 10.8135 7.94239C10.8135 8.02988 10.7104 7.92677 10.5511 7.68619C10.4511 7.52997 10.3199 7.36126 10.2636 7.31127C10.1261 7.18942 9.92306 7.1613 9.7356 7.23316L9.595 7.28627L9.38567 7.14567C9.26694 7.06756 9.06073 6.94571 8.92326 6.87073C8.78578 6.79887 8.66706 6.73325 8.66081 6.73013C8.65456 6.72388 8.71392 6.64577 8.79203 6.55516C9.20133 6.07088 9.4919 5.45225 9.64499 4.73365C9.72623 4.35247 9.71998 3.5495 9.62937 3.13396C9.29506 1.56239 8.12966 0.365748 6.6362 0.0658067C6.20816 -0.0216762 5.54892 -0.0216762 5.12712 0.0658067ZM6.41125 0.581331C7.08612 0.696933 7.67975 1.0125 8.1734 1.51865C8.57957 1.93107 8.90451 2.5122 9.05136 3.08397C9.15759 3.49326 9.18571 4.14001 9.11697 4.54618C8.99199 5.26479 8.6858 5.8678 8.18903 6.38645C7.75474 6.83636 7.23609 7.14255 6.63308 7.30189C6.38 7.36751 6.25815 7.38 5.8926 7.38C5.5208 7.38313 5.40832 7.37063 5.15212 7.30189C3.86175 6.96134 2.90568 5.89904 2.66823 4.54618C2.59949 4.14001 2.62761 3.49326 2.73384 3.08397C2.88381 2.49658 3.20875 1.92482 3.62429 1.50615C4.37727 0.746924 5.39582 0.40949 6.41125 0.581331ZM3.80551 7.29877C5.04901 8.15173 6.73618 8.15173 7.97969 7.29877C8.09529 7.22066 8.20465 7.15505 8.22027 7.15505C8.26714 7.15505 8.84202 7.45186 8.98887 7.55184L9.11697 7.63933L8.69205 7.93614C8.34212 8.17985 8.25464 8.25796 8.19527 8.37356C8.07342 8.60789 8.10467 8.74536 8.37649 9.15466C8.50146 9.34524 8.5952 9.50771 8.5827 9.52021C8.57333 9.53271 8.39524 9.50771 8.18903 9.47022C7.77036 9.39211 7.63913 9.40773 7.47354 9.54833C7.34232 9.65768 7.30482 9.78891 7.14236 10.7044C6.97676 11.6354 6.97989 11.7073 7.17672 11.8947C7.28295 11.9947 7.34544 12.0135 7.9172 12.1228C8.02343 12.1447 8.09529 12.1728 8.08592 12.1947C8.07967 12.2134 7.9422 12.329 7.78285 12.4478C7.41418 12.7258 7.34544 12.8196 7.34544 13.0633C7.34544 13.2414 7.35169 13.257 7.61101 13.6382L7.87971 14.0287H5.55829H3.23687V13.2913V12.554L3.14938 12.479C3.03066 12.379 2.86819 12.379 2.76821 12.4821L2.6901 12.5571V13.2945V14.0287H1.61219H0.534271V12.754C0.534271 11.1949 0.568639 10.8637 0.802968 10.1545C1.14353 9.12654 1.84027 8.20172 2.72759 7.60496C2.94318 7.46124 3.51494 7.15505 3.57118 7.15505C3.58368 7.15505 3.6899 7.22066 3.80551 7.29877ZM12.935 7.70806C12.9443 7.71431 12.9194 7.8924 12.8819 8.10486C12.81 8.51416 12.7975 8.67663 12.8381 8.74224C12.8881 8.82035 13.3005 9.06717 13.4068 9.0828C13.4911 9.09529 13.5442 9.07967 13.6411 9.00781C13.7098 8.95782 13.8817 8.83597 14.0223 8.73911L14.2785 8.5579L14.7003 9.18902L15.122 9.82015L14.7502 10.0826C14.544 10.2263 14.3597 10.3763 14.3409 10.4107C14.2878 10.5106 14.3941 11.0512 14.4847 11.1418C14.5347 11.1918 14.6596 11.2293 15.0096 11.2949C15.2626 11.3417 15.4689 11.3823 15.4689 11.3886C15.4689 11.4292 15.1877 12.8821 15.1783 12.8946C15.1689 12.9008 14.9721 12.8696 14.7409 12.8258C14.5034 12.7821 14.2816 12.754 14.2347 12.7665C14.1504 12.7883 14.1379 12.8008 13.9504 13.0914C13.7661 13.3726 13.7692 13.3945 14.0723 13.8537L14.3378 14.2599L14.0066 14.4942C13.8223 14.6223 13.5474 14.8161 13.3911 14.9254L13.1099 15.1222L13.0631 15.0535C12.7413 14.5786 12.5757 14.363 12.5132 14.3349C12.3945 14.2787 11.8602 14.388 11.7852 14.4849C11.7508 14.5286 11.6977 14.7317 11.6446 15.0129C11.5852 15.3128 11.5446 15.4659 11.5196 15.4566C11.5009 15.4503 11.1666 15.3816 10.7729 15.3066C10.3386 15.2253 10.0668 15.1597 10.0762 15.1379C10.0824 15.1191 10.1199 14.9129 10.1605 14.6786C10.2168 14.3411 10.2261 14.238 10.198 14.1756C10.1511 14.0756 9.70123 13.7788 9.59188 13.7788C9.53876 13.7788 9.37317 13.8756 9.12947 14.0475C8.91701 14.1943 8.74204 14.3099 8.73892 14.3037C8.61394 14.1568 7.91095 13.0445 7.9297 13.0289C7.9422 13.0164 8.10467 12.8977 8.29213 12.7665C8.47647 12.6321 8.64206 12.4946 8.66081 12.4603C8.68893 12.4103 8.6858 12.3384 8.65768 12.1728C8.60145 11.8479 8.56708 11.751 8.48897 11.701C8.44835 11.6729 8.22964 11.6167 7.99844 11.5698C7.76723 11.5261 7.57665 11.4855 7.57352 11.4823C7.56102 11.4761 7.83909 9.99199 7.85472 9.9795C7.86096 9.97325 8.04843 10.0014 8.27026 10.0451C8.49209 10.0888 8.70455 10.1232 8.74517 10.1232C8.83265 10.1232 8.94825 10.0076 9.08885 9.77641C9.26382 9.49522 9.26069 9.47334 8.97325 9.03593C8.83265 8.8266 8.72017 8.64226 8.72017 8.62663C8.72017 8.61101 8.92638 8.45167 9.18258 8.2767C9.43566 8.09861 9.70748 7.90803 9.78559 7.85179L9.92931 7.74868L10.1293 8.05175C10.2386 8.22046 10.3698 8.40168 10.4198 8.45792C10.5229 8.57664 10.5854 8.58602 10.9385 8.51416C11.2665 8.44542 11.2853 8.42043 11.3884 7.86741L11.4728 7.4175L12.1976 7.55497C12.5975 7.63308 12.9287 7.70182 12.935 7.70806Z" fill="white"/>
<path d="M11.1725 9.59218C10.5289 9.72341 9.99777 10.1952 9.77594 10.8388C9.67909 11.1138 9.67284 11.7043 9.76344 11.9667C9.93529 12.4729 10.2758 12.8728 10.7195 13.0852C11.1257 13.279 11.4631 13.3227 11.8912 13.2321C12.2223 13.1634 12.5348 12.9946 12.7816 12.7509C13.1378 12.3979 13.3065 12.0261 13.3346 11.5293C13.3659 10.9732 13.1784 10.4858 12.7785 10.0827C12.3692 9.67342 11.7349 9.4797 11.1725 9.59218ZM12.063 10.2389C12.4254 10.417 12.7129 10.8169 12.7785 11.2419C12.866 11.7886 12.5566 12.3573 12.038 12.601C11.8443 12.6947 11.8037 12.7009 11.5006 12.7009C11.2007 12.7009 11.1569 12.6916 10.9851 12.6103C10.4821 12.3635 10.154 11.7449 10.2508 11.2231C10.2977 10.9575 10.4758 10.6201 10.6508 10.4639C11.0507 10.1077 11.61 10.0202 12.063 10.2389Z" fill="white"/>
</svg>
