<svg width="31" height="31" viewBox="0 0 31 31" fill="none" xmlns="http://www.w3.org/2000/svg">
<rect x="0.623047" y="0.121094" width="30" height="30" rx="15" fill="#FF845C"/>
<path d="M11.3911 6.1506C11.5383 6.10611 11.6971 6.12183 11.8327 6.19432C11.9684 6.2668 12.0697 6.39013 12.1144 6.53723L12.4523 7.64718C13.3956 7.03248 14.4972 6.70533 15.6231 6.70558C16.7923 6.70558 17.8825 7.05157 18.7939 7.64718L19.1306 6.53723C19.1523 6.46378 19.1883 6.39535 19.2365 6.33587C19.2848 6.2764 19.3443 6.22706 19.4117 6.1907C19.4791 6.15434 19.553 6.13167 19.6292 6.12401C19.7054 6.11634 19.7824 6.12383 19.8557 6.14604C19.929 6.16825 19.9972 6.20474 20.0563 6.25342C20.1154 6.30209 20.1643 6.36198 20.2002 6.42964C20.2361 6.4973 20.2582 6.57139 20.2653 6.64764C20.2725 6.72389 20.2644 6.8008 20.2417 6.87393L19.7657 8.44365C20.8313 9.52915 21.4283 10.9896 21.4283 12.5108H22.0088C22.1627 12.5108 22.3104 12.4496 22.4193 12.3407C22.5281 12.2319 22.5893 12.0842 22.5893 11.9302V11.3497C22.5893 11.1958 22.6505 11.0481 22.7593 10.9392C22.8682 10.8304 23.0159 10.7692 23.1698 10.7692C23.3238 10.7692 23.4714 10.8304 23.5803 10.9392C23.6892 11.0481 23.7503 11.1958 23.7503 11.3497V11.9302C23.7503 12.3921 23.5668 12.8351 23.2402 13.1617C22.9136 13.4883 22.4707 13.6718 22.0088 13.6718H21.4283V14.8328H23.1698C23.3238 14.8328 23.4714 14.894 23.5803 15.0028C23.6892 15.1117 23.7503 15.2594 23.7503 15.4133C23.7503 15.5673 23.6892 15.715 23.5803 15.8238C23.4714 15.9327 23.3238 15.9939 23.1698 15.9939H21.4283V17.1549H22.0088C22.4707 17.1549 22.9136 17.3384 23.2402 17.665C23.5668 17.9916 23.7503 18.4346 23.7503 18.8964V19.477C23.7503 19.6309 23.6892 19.7786 23.5803 19.8874C23.4714 19.9963 23.3238 20.0575 23.1698 20.0575C23.0159 20.0575 22.8682 19.9963 22.7593 19.8874C22.6505 19.7786 22.5893 19.6309 22.5893 19.477V18.8964C22.5893 18.7425 22.5281 18.5948 22.4193 18.486C22.3104 18.3771 22.1627 18.3159 22.0088 18.3159H21.4283C21.4283 19.8555 20.8166 21.3321 19.728 22.4208C18.6393 23.5095 17.1627 24.1211 15.6231 24.1211C14.0835 24.1211 12.6069 23.5095 11.5182 22.4208C10.4295 21.3321 9.81792 19.8555 9.81792 18.3159H9.2374C9.08344 18.3159 8.93578 18.3771 8.82691 18.486C8.71805 18.5948 8.65688 18.7425 8.65688 18.8964V19.477C8.65688 19.6309 8.59572 19.7786 8.48685 19.8874C8.37799 19.9963 8.23033 20.0575 8.07637 20.0575C7.9224 20.0575 7.77475 19.9963 7.66588 19.8874C7.55701 19.7786 7.49585 19.6309 7.49585 19.477V18.8964C7.49585 18.4346 7.67933 17.9916 8.00594 17.665C8.33254 17.3384 8.77551 17.1549 9.2374 17.1549H9.81792V15.9939H8.07637C7.9224 15.9939 7.77475 15.9327 7.66588 15.8238C7.55701 15.715 7.49585 15.5673 7.49585 15.4133C7.49585 15.2594 7.55701 15.1117 7.66588 15.0028C7.77475 14.894 7.9224 14.8328 8.07637 14.8328H9.81792V13.6718H9.2374C8.77551 13.6718 8.33254 13.4883 8.00594 13.1617C7.67933 12.8351 7.49585 12.3921 7.49585 11.9302V11.3497C7.49585 11.1958 7.55701 11.0481 7.66588 10.9392C7.77475 10.8304 7.9224 10.7692 8.07637 10.7692C8.23033 10.7692 8.37799 10.8304 8.48685 10.9392C8.59572 11.0481 8.65688 11.1958 8.65688 11.3497V11.9302C8.65688 12.0842 8.71805 12.2319 8.82691 12.3407C8.93578 12.4496 9.08344 12.5108 9.2374 12.5108H9.81792C9.81792 10.9271 10.453 9.4909 11.4805 8.44365L11.0045 6.87393C10.96 6.72674 10.9757 6.56791 11.0482 6.4323C11.1207 6.2967 11.244 6.19538 11.3911 6.1506ZM10.979 13.6718V18.3159C10.9786 19.4474 11.3912 20.54 12.1395 21.3887C12.8877 22.2374 13.92 22.7838 15.0426 22.9252V13.6718H10.979ZM16.2036 13.6718V22.9252C17.3262 22.7838 18.3585 22.2374 19.1067 21.3887C19.855 20.54 20.2676 19.4474 20.2672 18.3159V13.6718H16.2036ZM20.2672 12.5108C20.2672 11.8572 20.1293 11.2109 19.8624 10.6143C19.5955 10.0177 19.2057 9.48416 18.7184 9.04855C17.8682 8.28549 16.7655 7.86443 15.6231 7.86661C14.4803 7.86414 13.3771 8.28523 12.5266 9.04855C12.0396 9.48427 11.65 10.0179 11.3833 10.6145C11.1166 11.2111 10.9788 11.8573 10.979 12.5108H20.2672Z" fill="white"/>
</svg>
