<svg width="18" height="18" viewBox="0 0 18 18" fill="none" xmlns="http://www.w3.org/2000/svg">
<path d="M17.2744 12.712V15.1206C17.2754 15.3442 17.2296 15.5656 17.14 15.7704C17.0504 15.9753 16.919 16.1592 16.7542 16.3104C16.5895 16.4616 16.3949 16.5766 16.1831 16.6483C15.9713 16.7199 15.7469 16.7465 15.5242 16.7264C13.0536 16.4579 10.6804 15.6137 8.59529 14.2615C6.65539 13.0289 5.0107 11.3842 3.778 9.44426C2.42112 7.3497 1.5767 4.96497 1.31316 2.48327C1.29309 2.26125 1.31948 2.03748 1.39064 1.82621C1.46179 1.61494 1.57616 1.42081 1.72645 1.25616C1.87675 1.09152 2.05968 0.95997 2.2636 0.869897C2.46752 0.779824 2.68796 0.733198 2.91089 0.732988H5.31954C5.70918 0.729153 6.08693 0.867132 6.38236 1.12121C6.6778 1.37528 6.87077 1.72812 6.9253 2.11394C7.02696 2.88476 7.2155 3.64161 7.48732 4.37004C7.59534 4.65741 7.61872 4.96973 7.55469 5.26998C7.49065 5.57023 7.34189 5.84583 7.12602 6.06412L6.10636 7.08378C7.24931 9.09383 8.9136 10.7581 10.9237 11.9011L11.9433 10.8814C12.1616 10.6655 12.4372 10.5168 12.7375 10.4527C13.0377 10.3887 13.35 10.4121 13.6374 10.5201C14.3658 10.7919 15.1227 10.9805 15.8935 11.0821C16.2835 11.1372 16.6397 11.3336 16.8943 11.6341C17.1489 11.9346 17.2842 12.3182 17.2744 12.712Z" stroke="#FF845C" stroke-linecap="round" stroke-linejoin="round"/>
</svg>
