<svg width="45" height="45" viewBox="0 0 45 45" fill="none" xmlns="http://www.w3.org/2000/svg">
<path d="M23.9781 3.40395C23.5069 3.36916 23.0345 3.35173 22.562 3.35171V0.602051C23.1024 0.602314 23.6426 0.622492 24.1816 0.662543L23.9781 3.40395ZM29.4884 4.6413C28.607 4.30115 27.7017 4.02636 26.78 3.81915L27.3822 1.13548C28.438 1.37195 29.4701 1.68542 30.4783 2.07587L29.4884 4.6413ZM33.2554 6.59355C32.8623 6.33135 32.4597 6.08371 32.0483 5.85114L33.4039 3.45894C34.3442 3.99144 35.2439 4.59249 36.0958 5.25722L34.4048 7.4267C34.032 7.13588 33.6486 6.85889 33.2554 6.5963V6.59355ZM38.2983 11.5154C37.7543 10.7428 37.1542 10.0112 36.5028 9.32671L38.4935 7.42945C39.2378 8.21585 39.9224 9.04991 40.5475 9.93163L38.2983 11.5154ZM40.344 15.233C40.1637 14.797 39.9675 14.3677 39.7556 13.9461L42.2111 12.7088C42.6964 13.6742 43.11 14.6742 43.4484 15.7004L40.8362 16.5611C40.6885 16.1125 40.5243 15.6695 40.344 15.233ZM41.8014 22.1264C41.779 21.1814 41.6871 20.2394 41.5264 19.308L44.2348 18.8405C44.4181 19.9037 44.5244 20.9761 44.5538 22.0576L41.8014 22.1264ZM41.4412 26.3553C41.5328 25.8897 41.607 25.4223 41.6639 24.953L44.3943 25.2912C44.2618 26.3639 44.0504 27.4254 43.7619 28.4671L41.1112 27.7329C41.2377 27.2801 41.3477 26.8209 41.4412 26.3553ZM38.8235 32.8968C39.3294 32.0975 39.7749 31.2653 40.1598 30.4001L42.673 31.5137C42.2331 32.5036 41.7244 33.4549 41.1469 34.3678L38.8235 32.8968ZM36.1728 36.2101C36.5083 35.8746 36.8291 35.5282 37.1352 35.1707L39.2194 36.9663C38.8666 37.3756 38.4988 37.7718 38.1168 38.1541L36.1728 36.2101Z" fill="#806BFF"/>
<path d="M22.562 3.35171C19.3968 3.35194 16.2805 4.13274 13.4892 5.62495C10.6978 7.11717 8.31752 9.27474 6.55915 11.9066C4.80078 14.5384 3.71858 17.5633 3.40842 20.7132C3.09826 23.8632 3.56971 27.041 4.781 29.9652C5.9923 32.8895 7.90605 35.4698 10.3528 37.4778C12.7995 39.4858 15.7036 40.8594 18.808 41.477C21.9123 42.0945 25.1211 41.937 28.15 41.0183C31.1789 40.0996 33.9345 38.4481 36.1728 36.2101L38.1168 38.1541C35.5589 40.7134 32.4092 42.6023 28.9468 43.6534C25.4844 44.7045 21.8162 44.8853 18.2672 44.1799C14.7182 43.4745 11.398 41.9046 8.60075 39.6093C5.8035 37.314 3.61558 34.3642 2.23085 31.0212C0.846124 27.6782 0.307336 24.0453 0.662228 20.4443C1.01712 16.8433 2.25473 13.3855 4.26541 10.3771C6.27609 7.36878 8.99776 4.90282 12.1893 3.19773C15.3808 1.49265 18.9436 0.601092 22.562 0.602052V3.35171Z" fill="#806BFF"/>
<path d="M21.1868 8.85107C21.5515 8.85107 21.9012 8.99592 22.159 9.25375C22.4168 9.51158 22.5617 9.86128 22.5617 10.2259V24.5516L31.4926 29.655C31.7999 29.8404 32.0226 30.1387 32.113 30.4862C32.2033 30.8336 32.1542 31.2026 31.9761 31.5143C31.798 31.826 31.505 32.0556 31.1598 32.1542C30.8146 32.2527 30.4445 32.2124 30.1287 32.0417L20.5049 26.5424C20.2945 26.4222 20.1196 26.2485 19.9979 26.0389C19.8762 25.8294 19.8121 25.5913 19.812 25.349V10.2259C19.812 9.86128 19.9569 9.51158 20.2147 9.25375C20.4725 8.99592 20.8222 8.85107 21.1868 8.85107Z" fill="#806BFF"/>
</svg>
