<svg width="45" height="45" viewBox="0 0 45 45" fill="none" xmlns="http://www.w3.org/2000/svg">
<path d="M15.4385 26.7573C15.6475 29.3808 17.721 31.424 21.439 31.666V33.6021H23.089V31.6523C26.939 31.3828 29.1885 29.3258 29.1885 26.3393C29.1885 23.6251 27.467 22.2253 24.3897 21.4993L23.089 21.1913V15.9196C24.739 16.1066 25.7895 17.0086 26.0425 18.2571H28.9355C28.7265 15.7298 26.5595 13.7526 23.089 13.5381V11.6021H21.439V13.5793C18.1527 13.9011 15.9115 15.8783 15.9115 18.6751C15.9115 21.1501 17.578 22.7231 20.3472 23.3693L21.439 23.6388V29.2323C19.7477 28.9766 18.6285 28.0498 18.3755 26.7573H15.4385ZM21.4252 20.8008C19.8027 20.4241 18.9227 19.6568 18.9227 18.5018C18.9227 17.2093 19.8715 16.2413 21.439 15.9581V20.798L21.4252 20.8008ZM23.3282 24.0816C25.3 24.5381 26.2102 25.2778 26.2102 26.5841C26.2102 28.0746 25.0772 29.0976 23.089 29.2846V24.0266L23.3282 24.0816Z" fill="#FF845C"/>
<path d="M22.3135 41.8521C17.2081 41.8521 12.3117 39.8239 8.70167 36.2139C5.0916 32.6038 3.06348 27.7075 3.06348 22.6021C3.06348 17.4966 5.0916 12.6003 8.70167 8.99024C12.3117 5.38017 17.2081 3.35205 22.3135 3.35205C27.4189 3.35205 32.3152 5.38017 35.9253 8.99024C39.5354 12.6003 41.5635 17.4966 41.5635 22.6021C41.5635 27.7075 39.5354 32.6038 35.9253 36.2139C32.3152 39.8239 27.4189 41.8521 22.3135 41.8521ZM22.3135 44.6021C28.1482 44.6021 33.744 42.2842 37.8698 38.1584C41.9956 34.0326 44.3135 28.4368 44.3135 22.6021C44.3135 16.7673 41.9956 11.1715 37.8698 7.0457C33.744 2.9199 28.1482 0.602051 22.3135 0.602051C16.4787 0.602051 10.8829 2.9199 6.75713 7.0457C2.63133 11.1715 0.313477 16.7673 0.313477 22.6021C0.313477 28.4368 2.63133 34.0326 6.75713 38.1584C10.8829 42.2842 16.4787 44.6021 22.3135 44.6021Z" fill="#FF845C"/>
<path d="M22.3135 37.7271C18.3021 37.7271 14.455 36.1335 11.6185 33.297C8.782 30.4606 7.18848 26.6134 7.18848 22.6021C7.18848 18.5907 8.782 14.7435 11.6185 11.9071C14.455 9.07057 18.3021 7.47705 22.3135 7.47705C26.3249 7.47705 30.172 9.07057 33.0085 11.9071C35.845 14.7435 37.4385 18.5907 37.4385 22.6021C37.4385 26.6134 35.845 30.4606 33.0085 33.297C30.172 36.1335 26.3249 37.7271 22.3135 37.7271ZM22.3135 39.1021C24.4803 39.1021 26.6259 38.6753 28.6278 37.8461C30.6296 37.0169 32.4486 35.8015 33.9807 34.2693C35.5129 32.7371 36.7283 30.9182 37.5575 28.9163C38.3867 26.9145 38.8135 24.7689 38.8135 22.6021C38.8135 20.4352 38.3867 18.2896 37.5575 16.2878C36.7283 14.2859 35.5129 12.467 33.9807 10.9348C32.4486 9.40262 30.6296 8.18724 28.6278 7.35804C26.6259 6.52884 24.4803 6.10205 22.3135 6.10205C17.9374 6.10205 13.7406 7.84044 10.6462 10.9348C7.55186 14.0291 5.81348 18.226 5.81348 22.6021C5.81348 26.9781 7.55186 31.175 10.6462 34.2693C13.7406 37.3637 17.9374 39.1021 22.3135 39.1021Z" fill="#FF845C"/>
</svg>
