<svg width="45" height="45" viewBox="0 0 45 45" fill="none" xmlns="http://www.w3.org/2000/svg">
<path d="M22.6182 41.7314C17.5127 41.7314 12.6164 39.7033 9.00636 36.0933C5.39628 32.4832 3.36816 27.5869 3.36816 22.4814C3.36816 17.376 5.39628 12.4797 9.00636 8.86964C12.6164 5.25956 17.5127 3.23145 22.6182 3.23145C27.7236 3.23145 32.6199 5.25956 36.23 8.86964C39.84 12.4797 41.8682 17.376 41.8682 22.4814C41.8682 27.5869 39.84 32.4832 36.23 36.0933C32.6199 39.7033 27.7236 41.7314 22.6182 41.7314ZM22.6182 44.4814C28.4529 44.4814 34.0487 42.1636 38.1745 38.0378C42.3003 33.912 44.6182 28.3162 44.6182 22.4814C44.6182 16.6467 42.3003 11.0509 38.1745 6.9251C34.0487 2.7993 28.4529 0.481445 22.6182 0.481445C16.7834 0.481445 11.1876 2.7993 7.06182 6.9251C2.93601 11.0509 0.618164 16.6467 0.618164 22.4814C0.618164 28.3162 2.93601 33.912 7.06182 38.0378C11.1876 42.1636 16.7834 44.4814 22.6182 44.4814Z" fill="#FF845C"/>
<path d="M22.6182 37.6064C18.6068 37.6064 14.7597 36.0129 11.9232 33.1764C9.08669 30.3399 7.49316 26.4928 7.49316 22.4814C7.49316 18.47 9.08669 14.6229 11.9232 11.7865C14.7597 8.94997 18.6068 7.35645 22.6182 7.35645C26.6296 7.35645 30.4767 8.94997 33.3132 11.7865C36.1496 14.6229 37.7432 18.47 37.7432 22.4814C37.7432 26.4928 36.1496 30.3399 33.3132 33.1764C30.4767 36.0129 26.6296 37.6064 22.6182 37.6064ZM22.6182 38.9814C24.785 38.9814 26.9306 38.5547 28.9324 37.7255C30.9343 36.8963 32.7533 35.6809 34.2854 34.1487C35.8176 32.6165 37.033 30.7976 37.8622 28.7957C38.6914 26.7938 39.1182 24.6483 39.1182 22.4814C39.1182 20.3146 38.6914 18.169 37.8622 16.1672C37.033 14.1653 35.8176 12.3463 34.2854 10.8142C32.7533 9.28202 30.9343 8.06664 28.9324 7.23743C26.9306 6.40823 24.785 5.98145 22.6182 5.98145C18.2421 5.98145 14.0453 7.71983 10.9509 10.8142C7.85655 13.9085 6.11816 18.1054 6.11816 22.4814C6.11816 26.8575 7.85655 31.0544 10.9509 34.1487C14.0453 37.2431 18.2421 38.9814 22.6182 38.9814Z" fill="#FF845C"/>
<path d="M26.3282 14.6599V17.7799C26.3282 19.0799 26.2068 20.1633 25.9642 21.0299C25.7388 21.8966 25.3402 22.5899 24.7682 23.1099C24.2135 23.6126 23.4508 23.9766 22.4802 24.2019C21.5268 24.4099 20.3222 24.5139 18.8662 24.5139V26.6979C18.8662 27.8073 19.1088 28.7086 19.5942 29.4019C20.0968 30.0953 20.9462 30.4419 22.1422 30.4419C23.2515 30.4419 24.0575 30.1299 24.5602 29.5059C25.0628 28.8646 25.3142 27.9893 25.3142 26.8799H27.2382C27.2035 28.6133 26.7355 29.9133 25.8342 30.7799C24.9502 31.6466 23.7022 32.0799 22.0902 32.0799C20.3742 32.0799 19.0828 31.6033 18.2162 30.6499C17.3495 29.6793 16.9162 28.3619 16.9162 26.6979V23.0579C18.5975 23.0579 19.9322 23.0059 20.9202 22.9019C21.9255 22.7806 22.6795 22.5466 23.1822 22.1999C23.6848 21.8359 24.0142 21.2986 24.1702 20.5879C24.3262 19.8773 24.4042 18.9326 24.4042 17.7539V14.6599H26.3282ZM15.6942 13.6979H29.8382V15.2319H15.6942V13.6979ZM15.6942 19.7819V18.2739H29.8382V19.7819H15.6942Z" fill="#FF845C"/>
</svg>
