<svg width="45" height="45" viewBox="0 0 45 45" fill="none" xmlns="http://www.w3.org/2000/svg">
<path d="M22.0146 41.7314C16.9092 41.7314 12.0129 39.7033 8.40284 36.0933C4.79277 32.4832 2.76465 27.5869 2.76465 22.4814C2.76465 17.376 4.79277 12.4797 8.40284 8.86964C12.0129 5.25956 16.9092 3.23145 22.0146 3.23145C27.1201 3.23145 32.0164 5.25956 35.6265 8.86964C39.2365 12.4797 41.2646 17.376 41.2646 22.4814C41.2646 27.5869 39.2365 32.4832 35.6265 36.0933C32.0164 39.7033 27.1201 41.7314 22.0146 41.7314ZM22.0146 44.4814C27.8494 44.4814 33.4452 42.1636 37.571 38.0378C41.6968 33.912 44.0146 28.3162 44.0146 22.4814C44.0146 16.6467 41.6968 11.0509 37.571 6.9251C33.4452 2.7993 27.8494 0.481445 22.0146 0.481445C16.1799 0.481445 10.5841 2.7993 6.4583 6.9251C2.3325 11.0509 0.0146484 16.6467 0.0146484 22.4814C0.0146484 28.3162 2.3325 33.912 6.4583 38.0378C10.5841 42.1636 16.1799 44.4814 22.0146 44.4814Z" fill="#806BFF"/>
<path d="M22.0146 37.6064C18.0032 37.6064 14.1561 36.0129 11.3197 33.1764C8.48317 30.3399 6.88965 26.4928 6.88965 22.4814C6.88965 18.47 8.48317 14.6229 11.3197 11.7865C14.1561 8.94997 18.0032 7.35645 22.0146 7.35645C26.026 7.35645 29.8732 8.94997 32.7096 11.7865C35.5461 14.6229 37.1396 18.47 37.1396 22.4814C37.1396 26.4928 35.5461 30.3399 32.7096 33.1764C29.8732 36.0129 26.026 37.6064 22.0146 37.6064ZM22.0146 38.9814C24.1815 38.9814 26.3271 38.5547 28.3289 37.7255C30.3308 36.8963 32.1497 35.6809 33.6819 34.1487C35.2141 32.6165 36.4295 30.7976 37.2587 28.7957C38.0879 26.7938 38.5146 24.6483 38.5146 22.4814C38.5146 20.3146 38.0879 18.169 37.2587 16.1672C36.4295 14.1653 35.2141 12.3463 33.6819 10.8142C32.1497 9.28202 30.3308 8.06664 28.3289 7.23743C26.3271 6.40823 24.1815 5.98145 22.0146 5.98145C17.6386 5.98145 13.4417 7.71983 10.3474 10.8142C7.25304 13.9085 5.51465 18.1054 5.51465 22.4814C5.51465 26.8575 7.25304 31.0544 10.3474 34.1487C13.4417 37.2431 17.6386 38.9814 22.0146 38.9814Z" fill="#806BFF"/>
<path d="M25.8046 14.9859V17.8659C25.8046 19.0659 25.6926 20.0659 25.4686 20.8659C25.2606 21.6659 24.8926 22.3059 24.3646 22.7859C23.8526 23.2499 23.1486 23.5859 22.2526 23.7939C21.3726 23.9859 20.2606 24.0819 18.9166 24.0819V26.0979C18.9166 27.1219 19.1406 27.9539 19.5886 28.5939C20.0526 29.2339 20.8366 29.5539 21.9406 29.5539C22.9646 29.5539 23.7086 29.2659 24.1726 28.6899C24.6366 28.0979 24.8686 27.2899 24.8686 26.2659H26.6446C26.6126 27.8659 26.1806 29.0659 25.3486 29.8659C24.5326 30.6659 23.3806 31.0659 21.8926 31.0659C20.3086 31.0659 19.1166 30.6259 18.3166 29.7459C17.5166 28.8499 17.1166 27.6339 17.1166 26.0979V22.7379C18.6686 22.7379 19.9006 22.6899 20.8126 22.5939C21.7406 22.4819 22.4366 22.2659 22.9006 21.9459C23.3646 21.6099 23.6686 21.1139 23.8126 20.4579C23.9566 19.8019 24.0286 18.9299 24.0286 17.8419V14.9859H25.8046ZM15.9886 14.0979H29.0446V15.5139H15.9886V14.0979ZM15.9886 19.7139V18.3219H29.0446V19.7139H15.9886Z" fill="#806BFF"/>
</svg>
