<svg width="10" height="18" viewBox="0 0 10 18" fill="none" xmlns="http://www.w3.org/2000/svg">
<path d="M4.26594 0.499999H5.24594V17.5H4.26594V0.499999ZM1.56594 12.44C1.64594 12.8 1.8126 13.16 2.06594 13.52C2.3326 13.8667 2.6926 14.16 3.14594 14.4C3.6126 14.6267 4.20594 14.74 4.92594 14.74C5.9526 14.74 6.7126 14.5 7.20594 14.02C7.69927 13.54 7.94594 12.9733 7.94594 12.32C7.94594 11.8 7.80594 11.3733 7.52594 11.04C7.24594 10.7067 6.86594 10.4333 6.38594 10.22C5.90594 9.99333 5.36594 9.79333 4.76594 9.62C4.2326 9.47333 3.69927 9.31333 3.16594 9.14C2.64594 8.95333 2.1726 8.72667 1.74594 8.46C1.31927 8.18 0.979271 7.82 0.725938 7.38C0.472604 6.94 0.345938 6.39333 0.345938 5.74C0.345938 4.95333 0.532604 4.27333 0.905938 3.7C1.27927 3.11333 1.80594 2.66 2.48594 2.34C3.16594 2.02 3.95927 1.86 4.86594 1.86C5.6526 1.86 6.33927 1.97333 6.92594 2.2C7.5126 2.42667 7.99927 2.74667 8.38594 3.16C8.78594 3.56 9.07927 4.02667 9.26594 4.56L7.84594 5.1C7.7526 4.79333 7.5726 4.5 7.30594 4.22C7.03927 3.92667 6.6926 3.68667 6.26594 3.5C5.83927 3.31333 5.3526 3.22 4.80594 3.22C4.2726 3.22 3.78594 3.31333 3.34594 3.5C2.91927 3.68667 2.57927 3.95333 2.32594 4.3C2.0726 4.64667 1.94594 5.06667 1.94594 5.56C1.94594 6.09333 2.0926 6.52 2.38594 6.84C2.6926 7.14667 3.0926 7.4 3.58594 7.6C4.0926 7.78667 4.64594 7.96667 5.24594 8.14C5.7926 8.31333 6.31927 8.5 6.82594 8.7C7.34594 8.9 7.80594 9.14667 8.20594 9.44C8.61927 9.73333 8.94594 10.1 9.18594 10.54C9.42594 10.98 9.54594 11.52 9.54594 12.16C9.54594 12.8667 9.37927 13.5267 9.04594 14.14C8.7126 14.74 8.20594 15.2267 7.52594 15.6C6.85927 15.96 5.99927 16.14 4.94594 16.14C4.06594 16.14 3.2926 16.0067 2.62594 15.74C1.95927 15.46 1.4126 15.0867 0.985938 14.62C0.559271 14.1533 0.265938 13.62 0.105938 13.02L1.56594 12.44Z" fill="#E1DCFF"/>
</svg>
