<svg width="22" height="22" viewBox="0 0 22 22" fill="none" xmlns="http://www.w3.org/2000/svg">
<path d="M9.94559 3.28906H2.98772C2.46048 3.28906 1.95483 3.49851 1.58202 3.87132C1.2092 4.24414 0.999756 4.74979 0.999756 5.27703V19.1928C0.999756 19.72 1.2092 20.2257 1.58202 20.5985C1.95483 20.9713 2.46048 21.1807 2.98772 21.1807H16.9035C17.4307 21.1807 17.9363 20.9713 18.3092 20.5985C18.682 20.2257 18.8914 19.72 18.8914 19.1928V12.2349" stroke="#26212E" stroke-width="1.2" stroke-linecap="round" stroke-linejoin="round"/>
<path d="M17.4004 1.79825C17.7959 1.40281 18.3322 1.18066 18.8914 1.18066C19.4506 1.18066 19.9869 1.40281 20.3824 1.79825C20.7778 2.19368 21 2.72999 21 3.28922C21 3.84844 20.7778 4.38476 20.3824 4.78019L10.9395 14.223L6.96362 15.217L7.9576 11.2411L17.4004 1.79825Z" stroke="#26212E" stroke-width="1.2" stroke-linecap="round" stroke-linejoin="round"/>
</svg>
