<svg width="16" height="16" viewBox="0 0 16 16" fill="none" xmlns="http://www.w3.org/2000/svg">
<path d="M12.9706 7.2552C12.8686 7.16782 12.7374 7.12217 12.6031 7.12735C12.4689 7.13254 12.3416 7.18818 12.2466 7.28316C12.1516 7.37814 12.096 7.50547 12.0908 7.6397C12.0856 7.77392 12.1313 7.90516 12.2186 8.00719L13.952 9.73517H7.46668C7.32523 9.73517 7.18958 9.79136 7.08956 9.89138C6.98954 9.9914 6.93335 10.1271 6.93335 10.2685C6.93335 10.4099 6.98954 10.5456 7.08956 10.6456C7.18958 10.7456 7.32523 10.8018 7.46668 10.8018H13.968L12.2186 12.5511C12.1628 12.599 12.1175 12.6578 12.0854 12.724C12.0534 12.7901 12.0354 12.8622 12.0326 12.9356C12.0298 13.0091 12.0421 13.0823 12.069 13.1508C12.0958 13.2192 12.1364 13.2814 12.1884 13.3334C12.2404 13.3853 12.3026 13.426 12.371 13.4528C12.4394 13.4796 12.5127 13.492 12.5861 13.4892C12.6596 13.4863 12.7316 13.4683 12.7978 13.4363C12.864 13.4043 12.9228 13.359 12.9706 13.3031L15.9999 10.2685L12.9706 7.2552Z" fill="#260B6A"/>
<path d="M1.06666 5.79325H5.12529V1.73463H10.6666V6.20392H11.7332V1.73463C11.7332 1.45173 11.6208 1.18042 11.4208 0.980385C11.2208 0.780348 10.9495 0.667969 10.6666 0.667969H3.66397L0 4.33193V14.5345C0 14.8174 0.11238 15.0887 0.312417 15.2887C0.512453 15.4888 0.783762 15.6012 1.06666 15.6012H10.6666C10.9495 15.6012 11.2208 15.4888 11.4208 15.2887C11.6208 15.0887 11.7332 14.8174 11.7332 14.5345H1.06666V5.79325ZM1.06666 4.76926L4.1013 1.73463H4.26663V4.9346H1.06666V4.76926Z" fill="#260B6A"/>
</svg>
