<svg width="16" height="20" viewBox="0 0 16 20" fill="none" xmlns="http://www.w3.org/2000/svg">
<path d="M15.1159 3.62695H3.85666C3.62091 3.62695 3.39482 3.7206 3.22812 3.8873C3.06142 4.054 2.96777 4.28009 2.96777 4.51584V18.7381C2.96777 18.9738 3.06142 19.1999 3.22812 19.3666C3.39482 19.5333 3.62091 19.6269 3.85666 19.6269H15.1159C15.3517 19.6269 15.5778 19.5333 15.7445 19.3666C15.9112 19.1999 16.0048 18.9738 16.0048 18.7381V4.51584C16.0048 4.28009 15.9112 4.054 15.7445 3.8873C15.5778 3.7206 15.3517 3.62695 15.1159 3.62695ZM14.8196 18.4418H4.15296V4.81214H14.8196V18.4418Z" fill="#26212E"/>
<path d="M13.0409 1.55295C13.0409 1.3172 12.9473 1.09111 12.7806 0.924412C12.6139 0.757713 12.3878 0.664063 12.152 0.664062H0.892794C0.657047 0.664062 0.430954 0.757713 0.264255 0.924412C0.0975566 1.09111 0.00390625 1.3172 0.00390625 1.55295V15.7752C0.00390625 16.0109 0.0975566 16.237 0.264255 16.4037C0.430954 16.5704 0.657047 16.6641 0.892794 16.6641H1.18909V1.84925H13.0409V1.55295Z" fill="#26212E"/>
</svg>
