<svg width="16" height="16" viewBox="0 0 16 16" fill="none" xmlns="http://www.w3.org/2000/svg">
<path d="M12.9748 7.2552C12.8728 7.16782 12.7415 7.12217 12.6073 7.12735C12.4731 7.13254 12.3457 7.18818 12.2508 7.28316C12.1558 7.37814 12.1001 7.50547 12.0949 7.6397C12.0898 7.77392 12.1354 7.90516 12.2228 8.00719L13.9561 9.73517H7.47083C7.32938 9.73517 7.19373 9.79136 7.09371 9.89138C6.99369 9.9914 6.9375 10.1271 6.9375 10.2685C6.9375 10.4099 6.99369 10.5456 7.09371 10.6456C7.19373 10.7456 7.32938 10.8018 7.47083 10.8018H13.9721L12.2228 12.5511C12.167 12.599 12.1216 12.6578 12.0896 12.724C12.0576 12.7901 12.0396 12.8622 12.0368 12.9356C12.0339 13.0091 12.0463 13.0823 12.0731 13.1508C12.0999 13.2192 12.1406 13.2814 12.1926 13.3334C12.2445 13.3853 12.3067 13.426 12.3751 13.4528C12.4436 13.4796 12.5168 13.492 12.5903 13.4892C12.6637 13.4863 12.7358 13.4683 12.802 13.4363C12.8681 13.4043 12.927 13.359 12.9748 13.3031L16.0041 10.2685L12.9748 7.2552Z" fill="#260B6A"/>
<path d="M1.07056 5.79325H5.12919V1.73463H10.6705V6.20392H11.7371V1.73463C11.7371 1.45173 11.6248 1.18042 11.4247 0.980385C11.2247 0.780348 10.9534 0.667969 10.6705 0.667969H3.66787L0.00390625 4.33193V14.5345C0.00390625 14.8174 0.116286 15.0887 0.316323 15.2887C0.51636 15.4888 0.787668 15.6012 1.07056 15.6012H10.6705C10.9534 15.6012 11.2247 15.4888 11.4247 15.2887C11.6248 15.0887 11.7371 14.8174 11.7371 14.5345H1.07056V5.79325ZM1.07056 4.76926L4.1052 1.73463H4.27053V4.9346H1.07056V4.76926Z" fill="#260B6A"/>
</svg>
