<svg width="16" height="17" viewBox="0 0 16 17" fill="none" xmlns="http://www.w3.org/2000/svg">
<path d="M0.00390625 2.62695C0.00390625 2.09652 0.21462 1.58781 0.589693 1.21274C0.964765 0.837667 1.47347 0.626953 2.00391 0.626953H10.3675C10.6302 0.626953 10.8903 0.678685 11.1329 0.779194C11.3756 0.879703 11.596 1.02702 11.7818 1.21274C11.9675 1.39846 12.1148 1.61893 12.2153 1.86159C12.3158 2.10424 12.3675 2.36431 12.3675 2.62695V10.8088H16.0039V13.8997C16.0039 14.623 15.7166 15.3167 15.2051 15.8282C14.6936 16.3396 14 16.627 13.2766 16.627H2.73118C2.00786 16.627 1.31417 16.3396 0.802706 15.8282C0.291243 15.3167 0.00390625 14.623 0.00390625 13.8997V2.62695ZM12.3675 15.536H13.2766C13.7106 15.536 14.1268 15.3636 14.4337 15.0568C14.7406 14.7499 14.913 14.3337 14.913 13.8997V11.8997H12.3675V15.536ZM2.00391 1.71786C1.50209 1.71786 1.09482 2.12513 1.09482 2.62695V13.8997C1.09482 14.3337 1.26722 14.7499 1.5741 15.0568C1.88097 15.3636 2.29719 15.536 2.73118 15.536H11.2766V2.62695C11.2766 2.12513 10.8694 1.71786 10.3675 1.71786H2.00391ZM3.45845 4.26332C3.31379 4.26332 3.17505 4.32078 3.07276 4.42308C2.97046 4.52537 2.913 4.66411 2.913 4.80877C2.913 4.95343 2.97046 5.09217 3.07276 5.19447C3.17505 5.29676 3.31379 5.35423 3.45845 5.35423H8.913C9.05766 5.35423 9.1964 5.29676 9.29869 5.19447C9.40098 5.09217 9.45845 4.95343 9.45845 4.80877C9.45845 4.66411 9.40098 4.52537 9.29869 4.42308C9.1964 4.32078 9.05766 4.26332 8.913 4.26332H3.45845ZM2.913 8.44514C2.913 8.30047 2.97046 8.16173 3.07276 8.05944C3.17505 7.95715 3.31379 7.89968 3.45845 7.89968H8.913C9.05766 7.89968 9.1964 7.95715 9.29869 8.05944C9.40098 8.16173 9.45845 8.30047 9.45845 8.44514C9.45845 8.5898 9.40098 8.72854 9.29869 8.83083C9.1964 8.93312 9.05766 8.99059 8.913 8.99059H3.45845C3.31379 8.99059 3.17505 8.93312 3.07276 8.83083C2.97046 8.72854 2.913 8.5898 2.913 8.44514ZM3.45845 11.536C3.31379 11.536 3.17505 11.5935 3.07276 11.6958C2.97046 11.7981 2.913 11.9368 2.913 12.0815C2.913 12.2262 2.97046 12.3649 3.07276 12.4672C3.17505 12.5695 3.31379 12.627 3.45845 12.627H6.00391C6.14857 12.627 6.28731 12.5695 6.3896 12.4672C6.49189 12.3649 6.54936 12.2262 6.54936 12.0815C6.54936 11.9368 6.49189 11.7981 6.3896 11.6958C6.28731 11.5935 6.14857 11.536 6.00391 11.536H3.45845Z" fill="#26212E"/>
</svg>
