<svg width="45" height="45" viewBox="0 0 45 45" fill="none" xmlns="http://www.w3.org/2000/svg">
<path d="M41.6229 17.6241C42.1154 19.5509 42.1849 20.1956 42.1849 22.498C42.1849 24.8005 42.1154 25.4452 41.6229 27.3721C40.0238 33.7247 35.1412 38.9613 28.8929 41.0355C26.7759 41.744 25.0026 42.0294 22.7051 42.0294C20.4075 42.0294 18.6342 41.744 16.5172 41.0355C11.6255 39.4106 7.48623 35.8071 5.21314 31.1918C4.29738 29.3344 3.74424 27.6228 3.37296 25.4816C3.26384 24.8617 3.21026 23.676 3.21026 22.498C3.21026 21.3201 3.26384 20.1345 3.37296 19.5145C4.15029 15.0665 6.02577 11.479 9.17107 8.4288L9.17112 8.42876C12.1958 5.49917 15.9728 3.66685 20.1554 3.10514C21.3683 2.94056 23.9304 2.94067 25.1765 3.09642L25.1772 3.09652C29.4112 3.65818 33.1884 5.47317 36.2391 8.42877L36.2391 8.42885C38.9257 11.0377 40.7411 14.1318 41.6229 17.6241ZM41.6229 17.6241C41.6229 17.6241 41.6229 17.6241 41.6229 17.624L41.526 17.6488L41.6229 17.6243C41.6229 17.6243 41.6229 17.6242 41.6229 17.6241ZM9.52407 4.93519C12.6658 2.59818 16.166 1.18628 19.9658 0.715542C21.1791 0.570324 24.1368 0.561783 25.3583 0.70694C29.2186 1.17771 32.7102 2.57255 35.8862 4.9353C37.1682 5.89252 39.3106 8.03494 40.2678 9.3169C42.6306 12.4929 44.0254 15.9845 44.4962 19.8447C44.4962 19.8448 44.4962 19.8448 44.4962 19.8448L44.5955 19.8327C44.7416 21.1052 44.7416 23.8909 44.5955 25.1634L9.52407 4.93519ZM9.52407 4.93519C8.24213 5.89237 6.09959 8.0349 5.14232 9.3169L9.52407 4.93519ZM40.2678 35.6792C42.6306 32.5032 44.0254 29.0116 44.4962 25.1514L5.14222 9.31704C2.77961 12.4929 1.38481 15.9843 0.914008 19.8444C0.768768 21.1094 0.768768 23.8867 0.914008 25.1516C1.38482 29.0118 2.77965 32.5033 5.14232 35.6792C6.09955 36.9612 8.24197 39.1036 9.52393 40.0608C12.6998 42.4235 16.1913 43.8183 20.0515 44.2891C21.3164 44.4344 24.0937 44.4344 25.3587 44.2891C29.2188 43.8183 32.7102 42.4235 35.8861 40.0609C37.168 39.1037 39.3106 36.9612 40.2678 35.6792Z" fill="#806BFF" stroke="white" stroke-width="0.2"/>
<path d="M13.4944 12.5766L13.4947 12.5765C13.5189 12.568 13.5418 12.5598 13.5636 12.5521C13.7341 12.4914 13.8384 12.4542 13.9633 12.468C14.1028 12.4834 14.2811 12.5662 14.5924 12.813C15.1776 13.277 16.1758 14.2715 18.1859 16.2745C18.3118 16.3999 18.4415 16.5293 18.5755 16.6627L13.4944 12.5766ZM13.4944 12.5766C12.9012 12.7822 12.5907 13.382 12.7502 14.0045C12.7642 14.0571 12.8046 14.1374 12.9227 14.2884C13.0398 14.4383 13.2263 14.6494 13.5215 14.9629C14.1114 15.5892 15.127 16.6155 16.8684 18.3613C16.8684 18.3613 16.8684 18.3613 16.8684 18.3613L20.9266 22.4281L20.9972 22.4988L20.9265 22.5694L16.8685 26.6275C15.127 28.3775 14.1115 29.406 13.5216 30.0335C13.2264 30.3474 13.0398 30.5588 12.9227 30.7088C12.8044 30.8604 12.764 30.9407 12.7501 30.9933L12.75 30.9934C12.5118 31.8907 13.3124 32.6913 14.2098 32.4531L14.2098 32.4531C14.2624 32.4391 14.3427 32.3988 14.4943 32.2804C14.6443 32.1633 14.8557 31.9768 15.1697 31.6816C15.7971 31.0916 16.8256 30.0761 18.5756 28.3346L22.6337 24.2766L22.7043 24.2059L22.775 24.2765L26.8419 28.3347L26.8419 28.3348C28.592 30.0848 29.6182 31.1003 30.2444 31.6879C30.5578 31.982 30.7688 32.1668 30.919 32.2824C31.0703 32.399 31.1518 32.4387 31.2069 32.4529L31.2076 32.4531C31.7185 32.5888 32.2561 32.3796 32.5064 31.965L32.5072 31.9637C32.6015 31.8128 32.6578 31.5685 32.664 31.3199C32.6703 31.0691 32.625 30.8431 32.5436 30.7228L32.5425 30.7211C32.5428 30.7216 32.5413 30.7195 32.5365 30.7135C32.5317 30.7076 32.525 30.6998 32.5163 30.6898C32.4988 30.6698 32.4746 30.6431 32.4438 30.6098C32.3822 30.5432 32.2956 30.4517 32.1866 30.3381C31.9686 30.1109 31.6624 29.7963 31.2901 29.417C30.5456 28.6586 29.5377 27.6421 28.4459 26.5503L28.4457 26.5501L24.4821 22.5693L24.4117 22.4986L24.4822 22.428L28.5403 18.37L13.4944 12.5766ZM22.6337 20.7209L18.5756 16.6628L28.5405 18.3698C30.2818 16.6198 31.2973 15.5914 31.8872 14.964C32.1824 14.65 32.3689 14.4386 32.4861 14.2886C32.6044 14.137 32.6448 14.0568 32.6587 14.0042L32.6587 14.0041C32.8969 13.107 32.0881 12.3062 31.1992 12.5443L31.199 12.5444C31.1469 12.5582 31.0643 12.6007 30.9089 12.7229C30.7555 12.8434 30.5403 13.0341 30.2242 13.3319C29.5924 13.9272 28.5661 14.9428 26.8419 16.6627C26.8419 16.6627 26.8419 16.6627 26.8418 16.6627L22.775 20.721L22.7043 20.7915L22.6337 20.7209Z" fill="#806BFF" stroke="white" stroke-width="0.2"/>
</svg>
