<svg width="15" height="15" viewBox="0 0 15 15" fill="none" xmlns="http://www.w3.org/2000/svg">
<path d="M7.7604 9.5857L2.9604 14.369C2.70483 14.6246 2.39373 14.7552 2.02708 14.7607C1.66041 14.7663 1.35763 14.6357 1.11875 14.369C0.852083 14.1135 0.71875 13.8065 0.71875 13.4482C0.71875 13.0899 0.852083 12.7774 1.11875 12.5107L5.91875 7.72738L1.11875 2.91903C0.852083 2.66348 0.71875 2.35653 0.71875 1.9982C0.71875 1.63987 0.852083 1.32737 1.11875 1.06072C1.35763 0.805158 1.66041 0.680158 2.02708 0.685725C2.39373 0.691275 2.70483 0.821825 2.9604 1.07738L7.7604 5.86073L12.5604 1.07738C12.816 0.821825 13.1271 0.691275 13.4937 0.685725C13.8604 0.680158 14.1632 0.805158 14.4021 1.06072C14.6687 1.32737 14.8021 1.63987 14.8021 1.9982C14.8021 2.35653 14.6743 2.66348 14.4187 2.91903L9.61873 7.72738L14.4187 12.5107C14.6743 12.7774 14.8021 13.0899 14.8021 13.4482C14.8021 13.8065 14.6687 14.1135 14.4021 14.369C14.1632 14.6357 13.8604 14.7663 13.4937 14.7607C13.1271 14.7552 12.816 14.6246 12.5604 14.369L7.7604 9.5857Z" fill="#9F9F9F"/>
</svg>
