<svg width="45" height="42" viewBox="0 0 45 42" fill="none" xmlns="http://www.w3.org/2000/svg">
<path d="M2.66577 0.190212C2.69121 0.185024 2.74523 0.181885 2.81241 0.179073C2.88501 0.176041 2.98492 0.173111 3.11037 0.170284C3.36141 0.164627 3.71656 0.159332 4.16399 0.154438C5.05893 0.144646 6.32421 0.136433 7.86656 0.130116C10.9513 0.117485 15.1451 0.112434 19.7025 0.117485L36.2746 0.12759L36.2982 0.127602L36.3193 0.138145L36.8043 0.380665C37.0791 0.518078 37.4634 0.819401 37.6639 1.05146L37.664 1.05167C37.6811 1.07155 37.6979 1.09092 37.7144 1.10994C37.858 1.27562 37.9787 1.41488 38.0691 1.6377C38.1687 1.88334 38.2303 2.22552 38.2702 2.81912C38.3454 3.93748 38.3453 5.98906 38.345 10.0639C38.345 10.3173 38.345 10.5786 38.345 10.8479V19.107L39.0029 19.4923L39.0029 19.4923C41.5915 21.0108 43.5076 23.4568 44.3434 26.3413C45.9131 31.7437 43.3749 37.512 38.3305 40.0597L38.3305 40.0597C35.0159 41.7323 30.6759 41.6095 27.3836 39.7544L27.4327 39.6672L27.3836 39.7544C26.0982 39.0301 24.5307 37.6359 23.7133 36.4813L23.7131 36.481L23.4095 36.0486H13.2352C12.7606 36.0486 12.3067 36.0487 11.8725 36.0487C7.12324 36.0493 4.73661 36.0496 3.45551 35.9765C2.75769 35.9366 2.37549 35.8747 2.11505 35.7732C1.89113 35.686 1.75917 35.5693 1.60537 35.4332C1.57768 35.4088 1.54929 35.3836 1.51952 35.358C1.26883 35.1489 0.96735 34.786 0.839004 34.5403C0.838912 34.5401 0.83882 34.5399 0.838729 34.5398L0.616962 34.1265L0.605078 34.1043V34.0792V18.0628V2.04648V2.0208L0.617457 1.99829L0.839258 1.59503C0.839344 1.59487 0.83943 1.59471 0.839517 1.59455C1.22608 0.873981 1.91647 0.338154 2.66577 0.190212ZM2.66577 0.190212C2.6656 0.190247 2.66543 0.190289 2.66525 0.190323L2.68565 0.288219L2.6663 0.190109C2.66613 0.190144 2.66595 0.190178 2.66577 0.190212ZM22.505 34.4339L22.2268 33.7427L22.2265 33.7418C21.767 32.5676 21.5733 31.5862 21.5123 30.0412C21.5123 30.0412 21.5123 30.0412 21.5123 30.0412L22.505 34.4339ZM22.505 34.4339H12.831H3.03966L2.72147 34.2187L2.72091 34.2183C2.6374 34.1626 2.54427 34.0818 2.46309 33.9982C2.38217 33.9148 2.31963 33.8355 2.29011 33.7818C2.29008 33.7817 2.29002 33.7816 2.28996 33.7813C2.28909 33.7786 2.28553 33.7672 2.28101 33.7412C2.27587 33.7115 2.27065 33.6703 2.26552 33.6154C2.25527 33.506 2.24588 33.3482 2.23738 33.1327C2.22039 32.7019 2.20713 32.0456 2.19703 31.0947C2.17683 29.193 2.16925 26.1166 2.16925 21.3166V9.16943H19.4498H36.7303V13.8289V18.4574L36.6374 18.4321C36.6369 18.4319 36.6364 18.4318 36.6358 18.4316C36.4966 18.3891 35.9579 18.2673 35.4367 18.1571C35.4366 18.1571 35.4364 18.157 35.4363 18.157L22.505 34.4339ZM31.3491 19.6874C31.3492 19.6874 31.3494 19.6874 31.3495 19.6874L31.3332 19.5887C31.4983 19.5626 31.6708 19.5347 31.8252 19.5097C32.0298 19.4766 32.2024 19.4486 32.2831 19.4371L31.3491 19.6874ZM31.3491 19.6874C31.5156 19.6611 31.6888 19.6331 31.8431 19.6081C32.0465 19.5752 32.2173 19.5475 32.2972 19.5361L32.301 19.5356L32.301 19.5355C32.4017 19.5172 32.5851 19.5093 32.8219 19.5117C33.0562 19.514 33.3355 19.5262 33.6241 19.5457C34.2026 19.5848 34.8108 19.6527 35.1625 19.727C38.9345 20.5274 41.9068 23.3688 42.9179 27.1627C43.227 28.3293 43.2673 30.2639 43.0176 31.4824C42.2468 35.1959 39.6353 38.0873 36.0424 39.2182C32.4827 40.3381 28.5406 39.2887 25.8779 36.516L25.8777 36.5157C24.7075 35.3055 23.9472 33.9759 23.4259 32.2317L23.4255 32.2304C23.2947 31.8129 23.2264 31.5603 23.1895 31.2103C23.1523 30.8566 23.1471 30.4026 23.1471 29.5825C23.1471 28.7625 23.1523 28.3083 23.1883 27.9569C23.2239 27.6094 23.2898 27.3617 23.4155 26.9544L23.4155 26.9543C23.9472 25.2291 24.6777 23.9293 25.7978 22.7392L25.7982 22.7388C27.2794 21.1475 29.3513 20.0172 31.3491 19.6874ZM36.5429 2.27052L36.5429 2.27041C36.4942 2.19081 36.411 2.09732 36.3148 2.01311C36.2185 1.92884 36.1165 1.86035 36.0339 1.8255C36.0123 1.81667 35.9566 1.80402 35.8355 1.79183C35.7178 1.77998 35.5481 1.76934 35.3069 1.75989C34.8248 1.74101 34.0632 1.72712 32.8734 1.71702C30.4942 1.69681 26.4072 1.69176 19.4296 1.69176C18.7852 1.69213 18.1658 1.69246 17.5702 1.69278C10.1002 1.69678 6.39398 1.69877 4.50878 1.75487C3.48753 1.78526 3.01187 1.83149 2.76301 1.89862C2.64255 1.93111 2.58245 1.96677 2.54003 2.00342C2.51765 2.02276 2.4979 2.04435 2.47516 2.07118C2.46894 2.07852 2.46224 2.08657 2.45512 2.09512C2.43765 2.1161 2.41768 2.14009 2.39613 2.16399L2.39603 2.1641C2.35441 2.2101 2.32661 2.24883 2.30376 2.31789C2.27927 2.39191 2.25974 2.50331 2.24473 2.69592C2.21474 3.08077 2.20463 3.75848 2.18945 5.03874L2.16026 7.65578H19.4498H36.7303V5.1487C36.7303 3.93425 36.7277 3.28431 36.7015 2.89829C36.6884 2.70584 36.6697 2.58451 36.6445 2.49419C36.6199 2.40615 36.5881 2.34412 36.5429 2.27052ZM2.05914 7.75578L2.06026 7.65578L2.15915 7.75578H2.05914Z" fill="#806BFF" stroke="#806BFF" stroke-width="0.2"/>
<path d="M8.34342 2.69312L8.34391 2.69289C8.66684 2.54219 9.07445 2.49077 9.46999 2.52601C9.86558 2.56126 10.2602 2.68419 10.556 2.89393C11.169 3.32729 11.4874 3.94403 11.4874 4.71356C11.4874 5.36338 11.2643 5.92245 10.8752 6.3195C10.486 6.7167 9.9366 6.9457 9.29565 6.9457C8.92435 6.9457 8.62886 6.90196 8.3641 6.78714C8.09897 6.67216 7.87304 6.48956 7.63491 6.22554L7.63477 6.22539C6.60992 5.08432 6.95913 3.34828 8.34342 2.69312ZM9.08745 5.31687L9.08745 5.31687L9.08852 5.31727C9.40433 5.43677 9.68482 5.27507 9.82127 5.01895C9.95786 4.76257 9.9346 4.44111 9.6627 4.24981C9.36631 4.04334 9.02435 4.08553 8.82934 4.33989L8.82935 4.3399L8.82824 4.3413C8.66627 4.54491 8.62417 4.74791 8.66849 4.91385C8.71267 5.07924 8.84847 5.22956 9.08745 5.31687Z" fill="#806BFF" stroke="#806BFF" stroke-width="0.2"/>
<path d="M18.4234 2.76544L18.4239 2.7652C19.3731 2.29062 20.4228 2.49104 21.1103 3.27352C22.0618 4.35199 21.7665 6.03429 20.5067 6.71186L20.5067 6.71187L20.5059 6.71228C20.3098 6.81546 20.1579 6.87883 19.979 6.91047C19.8027 6.94167 19.6058 6.94094 19.3224 6.92576C18.895 6.90488 18.5268 6.80284 18.2155 6.61176C17.9038 6.42049 17.6549 6.14354 17.4609 5.78181L17.4609 5.78182L17.4601 5.78023C17.3622 5.58959 17.2992 5.43815 17.2663 5.26009C17.2338 5.08378 17.2319 4.88711 17.2471 4.60746L17.2471 4.60703C17.2731 4.16595 17.3722 3.80194 17.5658 3.49815C17.7596 3.19401 18.0428 2.95834 18.4234 2.76544ZM19.8556 4.31221L19.8554 4.31207C19.4483 3.93146 18.8414 4.19348 18.8414 4.71395C18.8414 5.00771 19.0023 5.21901 19.2091 5.30796C19.4154 5.39665 19.6748 5.36708 19.8833 5.1586C20.1147 4.9272 20.1086 4.54781 19.8556 4.31221Z" fill="#806BFF" stroke="#806BFF" stroke-width="0.2"/>
<path d="M30.0408 4.34222L30.0407 4.34242L30.0356 4.33698C29.98 4.27709 29.8997 4.22064 29.8158 4.17926C29.7303 4.13707 29.6527 4.11631 29.6036 4.11631C29.484 4.11631 29.318 4.20015 29.1751 4.33227C29.1058 4.39632 29.047 4.46726 29.0062 4.53621C28.9646 4.60641 28.9458 4.66744 28.9458 4.71356C28.9458 4.83653 29.0305 4.99668 29.1694 5.13202C29.3079 5.26695 29.4736 5.35122 29.6036 5.35122C29.7336 5.35122 29.8994 5.26695 30.0378 5.13202C30.1767 4.99668 30.2615 4.83653 30.2615 4.71356C30.2615 4.68409 30.244 4.62415 30.2011 4.54785C30.1601 4.475 30.1032 4.40009 30.0408 4.34222ZM27.4765 5.37787C27.1395 4.21919 27.779 2.93751 28.8877 2.60689C30.5952 2.09059 32.1853 3.5469 31.7724 5.26231C31.5288 6.27892 30.6588 6.9457 29.6036 6.9457C28.581 6.9457 27.7521 6.34222 27.4765 5.37787Z" fill="#806BFF" stroke="#806BFF" stroke-width="0.2"/>
<path d="M5.97506 13.2567L5.97509 13.2567C5.92138 13.3164 5.87807 13.3799 5.84663 13.4884C5.81684 13.5913 5.7981 13.7332 5.78538 13.9493C5.7599 14.3825 5.75742 15.1442 5.75742 16.5572C5.75742 17.9352 5.76243 18.6966 5.78791 19.1335C5.81301 19.564 5.85782 19.7103 5.9686 19.8211C6.07891 19.9314 6.22966 19.9766 6.64242 20.0055C7.0616 20.0348 7.78257 20.0474 9.06957 20.0626C9.06959 20.0626 9.0696 20.0626 9.06962 20.0626L5.97506 13.2567ZM5.97506 13.2567L5.97692 13.2547C6.02919 13.1997 6.083 13.1483 6.18494 13.1112C6.27975 13.0767 6.4121 13.0559 6.61995 13.0419C7.03727 13.0139 7.79967 13.0114 9.2729 13.0114C10.6158 13.0114 11.3843 13.0164 11.8373 13.0406C12.0633 13.0527 12.2164 13.0697 12.3251 13.095C12.4359 13.1208 12.507 13.1565 12.5637 13.2092L5.97506 13.2567ZM9.24258 18.4681H11.1636V16.5471V14.6261H9.24258H7.32159V16.5471V18.4681H9.24258Z" fill="#806BFF" stroke="#806BFF" stroke-width="0.2"/>
<path d="M16.159 19.814L16.159 19.814L16.157 19.8121C16.102 19.7599 16.0506 19.7061 16.0135 19.6043C15.979 19.5097 15.9582 19.3776 15.9442 19.1704C15.9161 18.7543 15.9137 17.9944 15.9137 16.5263C15.9137 15.0882 15.9161 14.3287 15.9429 13.9053C15.9563 13.6943 15.976 13.5579 16.0082 13.4598C16.0425 13.355 16.09 13.2972 16.1451 13.2422C16.2001 13.1871 16.258 13.1396 16.3631 13.1053C16.4615 13.0731 16.5985 13.0534 16.8107 13.04C17.2366 13.0133 18.0012 13.0108 19.4494 13.0108C20.8975 13.0108 21.6621 13.0133 22.088 13.04C22.3002 13.0534 22.4372 13.0731 22.5356 13.1053C22.6407 13.1396 22.6986 13.1871 22.7537 13.2422C22.8086 13.2971 22.8561 13.3549 22.8905 13.459C22.9227 13.5565 22.9424 13.6916 22.9558 13.9002C22.9826 14.3185 22.985 15.068 22.985 16.4858C22.985 17.8685 22.9826 18.6176 22.9571 19.0483C22.9444 19.2634 22.9256 19.4061 22.8961 19.5112C22.8652 19.6209 22.8232 19.6878 22.771 19.7518L22.5795 19.9937L22.5494 20.0316H22.5011H19.4696C18.0515 20.0316 17.2873 20.0292 16.8528 20.0037C16.6361 19.991 16.4939 19.9722 16.3909 19.9424C16.2822 19.911 16.2187 19.8677 16.159 19.814ZM19.4494 18.4675H21.3703V16.5465V14.6255H19.4494H17.5284V16.5465V18.4675H19.4494Z" fill="#806BFF" stroke="#806BFF" stroke-width="0.2"/>
<path d="M26.1207 16.1216C26.1207 14.9658 26.1257 14.2954 26.1499 13.8938C26.1736 13.5014 26.2155 13.3356 26.3185 13.225C26.3687 13.1684 26.4279 13.1255 26.5326 13.0953C26.6312 13.0668 26.7719 13.0491 26.9869 13.037C27.4186 13.0128 28.1827 13.0103 29.5857 13.0103C30.9285 13.0103 31.6971 13.0154 32.1501 13.0395C32.376 13.0516 32.5292 13.0687 32.6379 13.0939C32.7485 13.1197 32.8197 13.1554 32.8763 13.208C32.9267 13.2524 32.9682 13.3044 32.9991 13.3849C33.0287 13.4618 33.0474 13.5616 33.0603 13.6998C33.0861 13.9758 33.091 14.436 33.091 15.2425C33.091 15.7399 33.0885 16.1229 33.0755 16.4167C33.0625 16.7088 33.0389 16.9213 32.9934 17.0736C32.9467 17.2297 32.8731 17.3353 32.7539 17.3941C32.644 17.4482 32.5091 17.4544 32.3645 17.4544C32.2111 17.4544 32.0751 17.4435 31.9626 17.3963C31.8434 17.3462 31.7589 17.2591 31.7019 17.1277C31.6471 17.0016 31.6171 16.8337 31.5998 16.6163C31.5824 16.3975 31.5774 16.1193 31.5774 15.7679V14.625H29.6059H27.6343V16.637V16.6516C27.6343 17.6794 27.6343 18.2131 27.6061 18.5071C27.5919 18.6546 27.5697 18.7557 27.5285 18.8318C27.4853 18.9114 27.4263 18.9537 27.3702 18.992C27.2998 19.0443 27.2104 19.0884 27.1253 19.1195C27.0407 19.1503 26.9498 19.1723 26.8775 19.1723C26.8052 19.1723 26.7143 19.1503 26.6298 19.1195C26.5447 19.0884 26.4552 19.0443 26.3849 18.992C26.3281 18.9532 26.2675 18.9104 26.2244 18.8209C26.1845 18.738 26.1628 18.6223 26.1488 18.4448C26.1207 18.0884 26.1207 17.4265 26.1207 16.1342V16.1216Z" fill="#806BFF" stroke="#806BFF" stroke-width="0.2"/>
<path d="M5.97506 24.1688L5.97509 24.1688C5.92138 24.2285 5.87807 24.292 5.84663 24.4005C5.81684 24.5034 5.7981 24.6453 5.78538 24.8614C5.7599 25.2946 5.75742 26.0563 5.75742 27.4693C5.75742 28.8473 5.76243 29.6087 5.78791 30.0456C5.81301 30.4761 5.85782 30.6224 5.9686 30.7332C6.07891 30.8435 6.22966 30.8887 6.64242 30.9176C7.0616 30.9469 7.78257 30.9595 9.06957 30.9747C9.06959 30.9747 9.0696 30.9747 9.06962 30.9747L5.97506 24.1688ZM5.97506 24.1688L5.97692 24.1668C6.02919 24.1118 6.083 24.0604 6.18494 24.0233C6.27975 23.9888 6.4121 23.968 6.61995 23.9541C7.03727 23.926 7.79967 23.9235 9.2729 23.9235C10.6158 23.9235 11.3843 23.9285 11.8373 23.9527C12.0633 23.9648 12.2164 23.9818 12.3251 24.0071C12.4359 24.0329 12.507 24.0686 12.5637 24.1213L5.97506 24.1688ZM9.24258 29.3802H11.1636V27.4592V25.5382H9.24258H7.32159V27.4592V29.3802H9.24258Z" fill="#806BFF" stroke="#806BFF" stroke-width="0.2"/>
<path d="M15.9527 30.5595L15.9137 30.5295V30.4802V27.4487C15.9137 26.0056 15.9161 25.2436 15.9429 24.8189C15.9563 24.6073 15.976 24.4706 16.0082 24.3724C16.0425 24.2674 16.09 24.2096 16.1451 24.1545C16.1995 24.1001 16.2567 24.0528 16.3557 24.0183C16.4489 23.9858 16.5751 23.9658 16.7658 23.9525C17.1479 23.9256 17.8245 23.9232 19.0957 23.9232C20.3668 23.9232 21.0434 23.9256 21.4256 23.9525C21.6163 23.9658 21.7425 23.9858 21.8357 24.0183C21.9347 24.0528 21.9919 24.1001 22.0463 24.1545C22.2016 24.3098 22.2766 24.5037 22.2662 24.7029C22.2559 24.9006 22.162 25.0947 21.9959 25.2558L21.9927 25.2591C21.9354 25.3189 21.88 25.3766 21.7982 25.4197C21.7143 25.4639 21.6102 25.4894 21.4569 25.5057C21.1548 25.5379 20.6181 25.5379 19.5665 25.5379H19.5504H17.5284V27.4588V29.3798H19.0957C19.8613 29.3798 20.2897 29.3847 20.5491 29.4133C20.6797 29.4276 20.7749 29.4487 20.8518 29.4818C20.9313 29.516 20.9851 29.5605 21.0358 29.6112C21.1911 29.7665 21.2661 29.9603 21.2557 30.1596C21.2454 30.3573 21.1515 30.5514 20.9855 30.7125L20.9851 30.7128C20.9263 30.7741 20.8701 30.8326 20.7875 30.8763C20.7042 30.9205 20.6015 30.946 20.4518 30.9624C20.1571 30.9945 19.6379 30.9945 18.6268 30.9945L18.6106 30.9945C17.6431 30.9945 17.1169 30.9921 16.8018 30.9638C16.6433 30.9496 16.5312 30.9283 16.4401 30.8945C16.3472 30.86 16.2815 30.8144 16.2147 30.761L15.9527 30.5595Z" fill="#806BFF" stroke="#806BFF" stroke-width="0.2"/>
<path d="M32.5815 21.9157L32.5815 21.9157L32.5825 21.9146C32.709 21.7753 32.9175 21.7128 33.1161 21.7101C33.3162 21.7073 33.5324 21.7646 33.6825 21.8967L33.6826 21.8967C33.7409 21.9481 33.7839 22.009 33.8139 22.1203C33.842 22.2246 33.8596 22.3766 33.8717 22.6134C33.8958 23.089 33.8983 23.9386 33.8983 25.5085V28.7734H37.133H40.4777H40.5203L40.5498 28.8042L40.7911 29.0555C40.961 29.2204 41.0627 29.3934 41.0627 29.5808C41.0627 29.7681 40.961 29.9411 40.7911 30.106L40.5498 30.3574L40.5203 30.3881H40.4777H37.133H33.8983V33.643C33.8983 35.1274 33.8933 35.9715 33.8692 36.4659C33.8571 36.7125 33.8401 36.8775 33.8151 36.9935C33.7895 37.1119 33.7541 37.1863 33.7015 37.2459L33.7015 37.2459L33.7005 37.247C33.574 37.3862 33.3655 37.4487 33.1669 37.4515C32.9668 37.4542 32.7506 37.3969 32.6005 37.2649L32.6004 37.2648C32.5422 37.2134 32.4991 37.1525 32.4691 37.0412C32.441 36.9369 32.4234 36.785 32.4113 36.5482C32.3872 36.0725 32.3847 35.2229 32.3847 33.6531V30.3881H29.1096H25.7245H25.6752L25.6452 30.3491L25.4432 30.0865C25.4432 30.0864 25.4432 30.0864 25.4431 30.0864C25.3015 29.9028 25.2188 29.7303 25.2267 29.5523C25.2346 29.3734 25.3329 29.2147 25.4914 29.056L25.7332 28.8042L25.7627 28.7734H25.8053H29.1501H32.3847V25.5186C32.3847 24.0341 32.3897 23.19 32.4139 22.6957C32.4259 22.449 32.4429 22.284 32.4679 22.168C32.4935 22.0496 32.5289 21.9753 32.5815 21.9157Z" fill="#806BFF" stroke="#806BFF" stroke-width="0.2"/>
</svg>
