<svg width="45" height="42" viewBox="0 0 45 42" fill="none" xmlns="http://www.w3.org/2000/svg">
<path d="M25.8188 40.9582L25.7186 41.0698C25.4975 40.8714 25.4104 40.5652 25.4286 40.2887C25.4468 40.0137 25.5729 39.7269 25.8305 39.5891L25.8305 39.589L25.8342 39.5872C25.8766 39.566 25.9365 39.5473 25.9986 39.5308C26.064 39.5135 26.143 39.4956 26.2301 39.4781C26.4045 39.443 26.6162 39.4081 26.8251 39.3802L26.8267 39.38C30.6165 38.9165 34.0421 37.3538 36.9147 34.7812L36.9149 34.7811C39.8949 32.119 41.9038 28.566 42.7223 24.5011L42.7223 24.5007C42.8617 23.8175 42.9485 22.7491 42.9736 21.663C42.9987 20.5775 42.9619 19.4876 42.8583 18.7619C42.0857 13.4444 39.1869 8.87365 34.715 5.91963C31.753 3.96618 28.346 2.94843 24.7377 2.94843C22.0825 2.94843 19.904 3.39333 17.4953 4.4386L17.4952 4.43863C10.8065 7.33767 6.45373 13.9446 6.45373 21.2141C6.45373 22.5062 6.61786 24.116 6.86205 25.1561C6.94097 25.4904 6.97068 25.7555 6.92467 25.9748C6.87621 26.2056 6.74796 26.3685 6.55489 26.5042L6.55363 26.505C6.20554 26.7444 5.75294 26.7243 5.43387 26.4289C5.33998 26.3468 5.2651 26.211 5.20088 26.0505C5.13413 25.8837 5.07113 25.6698 5.01126 25.4135C4.89143 24.9004 4.78071 24.2023 4.67966 23.3388L4.67961 23.3383C4.5222 21.9586 4.6143 19.1588 4.86426 17.7792C5.62094 13.5622 7.46776 10.0162 10.4946 6.98935C12.1641 5.31992 13.6245 4.26612 15.6542 3.2328L15.6544 3.23271C17.5462 2.27298 19.9358 1.51584 21.815 1.28442L21.8155 1.28436L33.4691 39.1716L33.5351 39.3063C33.5351 39.3063 33.5351 39.3063 33.535 39.3063C31.6166 40.2471 29.9442 40.7832 27.9408 41.1063V41.1063C27.3157 41.2074 26.8366 41.2594 26.4831 41.2594C26.3062 41.2594 26.1553 41.2464 26.0306 41.2178C25.9066 41.1893 25.7984 41.143 25.7175 41.0688L25.8188 40.9582ZM25.8188 40.9582C26.0387 41.1598 26.6709 41.1598 27.9169 40.9582L34.7976 5.79441C39.3053 8.77206 42.228 13.3806 43.0067 18.7403C43.2175 20.2154 43.1533 23.1381 42.8693 24.5307C42.0447 28.6261 40.0199 32.2085 37.0148 34.893C34.1196 37.4858 30.6655 39.0617 26.845 39.5289C26.4327 39.5839 26.0112 39.6664 25.9013 39.7213C25.5073 39.9321 25.4615 40.6375 25.8188 40.9582ZM4.82865 23.3213C4.67289 21.9562 4.76451 19.1709 5.01189 17.8058C5.76317 13.6188 7.59557 10.1006 10.6007 7.09541C12.259 5.43709 13.7066 4.39262 15.7223 3.36648L4.82865 23.3213ZM4.82865 23.3213C5.03021 25.0438 5.26842 26.0883 5.53412 26.3173L4.82865 23.3213Z" fill="#FF845C" stroke="#FF845C" stroke-width="0.3"/>
<path d="M23.8363 7.09542V7.03149L23.8824 6.98722L24.1096 6.76915C24.2773 6.59703 24.486 6.50592 24.7069 6.5045C24.9271 6.50309 25.1461 6.59071 25.3379 6.75138L25.3391 6.75248L25.5957 6.97237L25.6478 7.01703L25.6481 7.08566L25.6755 13.948L25.6755 13.9482L25.6937 20.7197L30.1233 23.5615C31.3607 24.3543 32.4951 25.0923 33.3262 25.6425C33.7416 25.9176 34.0818 26.1461 34.3213 26.3112C34.4409 26.3937 34.5364 26.461 34.6039 26.5107C34.6374 26.5354 34.6655 26.5568 34.6866 26.5741C34.6971 26.5827 34.7074 26.5916 34.7165 26.6002L34.7171 26.6007C34.7226 26.6059 34.7411 26.6234 34.7545 26.6476L34.7546 26.6476L34.7566 26.6515C34.9154 26.9581 34.8834 27.307 34.734 27.5765C34.5844 27.8463 34.3076 28.0523 33.9638 28.0523C33.9066 28.0523 33.8433 28.0329 33.7828 28.0094C33.7177 27.9842 33.6375 27.9468 33.5405 27.8969C33.3462 27.7968 33.0733 27.6407 32.6986 27.4146C31.9487 26.9622 30.7812 26.2235 28.9993 25.0784L28.9992 25.0783C27.7392 24.2673 26.5638 23.5043 25.6861 22.9291C25.2473 22.6416 24.8827 22.4008 24.619 22.2243C24.4872 22.1361 24.3802 22.0637 24.3016 22.0095C24.2268 21.9578 24.1695 21.9171 24.1446 21.8955L24.1446 21.8955L24.1408 21.892L23.8843 21.6538L23.8363 21.6093V21.5439V14.3242V7.09542Z" fill="#FF845C" stroke="#FF845C" stroke-width="0.3"/>
<path d="M15.4072 20.6245C15.4495 20.6675 15.5236 20.77 15.617 20.9062C15.7143 21.0481 15.8419 21.2405 15.995 21.4758C16.3014 21.9465 16.7117 22.5914 17.1904 23.3522C18.1478 24.874 19.3795 26.8615 20.6011 28.8511C21.8227 30.8406 23.0344 32.8327 23.9516 34.3637C24.4102 35.1291 24.7955 35.7797 25.0718 36.2573C25.2098 36.496 25.3211 36.6922 25.4008 36.8383C25.4406 36.9112 25.473 36.9726 25.4972 37.021C25.5194 37.0656 25.5398 37.1091 25.5495 37.1412L25.5497 37.1419C26.0386 38.7907 25.1773 40.5581 23.5986 41.1455C23.3278 41.2477 23.1296 41.2925 21.7857 41.3131C20.4361 41.3337 17.9101 41.3291 12.9636 41.32L12.9634 41.32L2.8669 41.2925L2.82921 41.2924L2.79604 41.2745L2.33866 41.0275C1.22882 40.4436 0.564691 39.3679 0.555083 38.1477H0.555078V38.1465C0.555078 37.6869 0.611156 37.2833 0.729025 36.9592L0.728954 36.9591L15.3002 20.7295M15.4072 20.6245L15.3002 20.7295M15.4072 20.6245C15.4073 20.6245 15.4074 20.6246 15.4075 20.6247L15.3002 20.7295M15.4072 20.6245C15.0032 20.2109 14.4375 19.9242 13.8412 19.7885C13.2446 19.6527 12.6056 19.6654 12.0519 19.8646M15.3002 20.7295C14.5397 19.9508 13.1471 19.6301 12.1026 20.0057M12.0519 19.8646C12.0519 19.8646 12.0519 19.8646 12.0519 19.8646L12.1026 20.0057M12.0519 19.8646L12.1026 20.0057M12.0519 19.8646L12.1026 20.0057M12.0018 21.884L12.1124 21.9853C12.1136 21.984 12.113 21.9848 12.1103 21.9886C12.1063 21.9943 12.0975 22.0065 12.0826 22.0285C12.0609 22.0605 12.0311 22.1055 11.9935 22.1632C11.9183 22.2784 11.8132 22.4423 11.6815 22.6496C11.4181 23.064 11.049 23.6506 10.6012 24.3662C9.70585 25.7975 8.49664 27.7441 7.19119 29.8603C7.19118 29.8603 7.19118 29.8604 7.19118 29.8604L2.46759 37.5202V38.0824C2.46759 38.3444 2.47743 38.4853 2.50882 38.5956C2.53871 38.7007 2.591 38.7879 2.70285 38.9355L2.70288 38.9355C2.73687 38.9804 2.76387 39.0186 2.7872 39.0515C2.8598 39.154 2.89691 39.2064 2.9987 39.2565C3.14391 39.328 3.41526 39.3835 4.03832 39.4192C5.13952 39.4822 7.25551 39.4818 11.4992 39.481C12.0135 39.4809 12.5591 39.4808 13.1379 39.4808H22.7817L23.1407 39.2721C23.1407 39.2721 23.1407 39.2721 23.1407 39.272C23.5953 39.0075 23.8753 38.4594 23.8184 37.9625C23.8165 37.9459 23.8058 37.9044 23.7712 37.8228C23.738 37.7445 23.6871 37.639 23.6135 37.4987C23.4665 37.2181 23.2333 36.8068 22.8808 36.2094C22.1762 35.0152 20.9996 33.0854 19.0938 29.9885L19.0937 29.9884C16.5179 25.7959 14.3296 22.2581 14.2158 22.0899C14.1762 22.0365 14.1013 21.9623 14.0074 21.8886C13.9132 21.8148 13.8097 21.7492 13.7195 21.71L13.7195 21.71L13.7176 21.7092C13.1206 21.4401 12.5216 21.5516 12.1109 21.9869L12.0018 21.884ZM12.0018 21.884C11.9011 21.9939 9.67469 25.5488 7.06351 29.7816L13.7793 21.5724C13.1288 21.2793 12.4599 21.3984 12.0018 21.884ZM10.553 20.8873C10.5532 20.8871 10.5534 20.8869 10.5535 20.8867L10.6733 20.9769L10.5527 20.8878C10.5528 20.8877 10.5529 20.8875 10.553 20.8873Z" fill="#FF845C" stroke="#FF845C" stroke-width="0.3"/>
<path d="M12.2925 26.7789C12.3313 26.6637 12.3871 26.6021 12.4421 26.5446C12.6006 26.3749 12.84 26.2947 13.0707 26.2869C13.3023 26.2791 13.5505 26.3432 13.7355 26.494L13.9545 26.6674L14.0107 26.7119L14.0113 26.7837L14.0388 30.0546L14.0663 33.3162L14.0668 33.3791L14.0224 33.4236L13.7384 33.7076L13.7384 33.7076L13.7363 33.7096C13.6145 33.8269 13.5118 33.9174 13.3908 33.9629C13.2641 34.0107 13.1371 34.0024 12.9861 33.9788L12.9861 33.9788L12.9849 33.9786C12.9755 33.977 12.9661 33.9755 12.9566 33.9739C12.8859 33.9624 12.8152 33.9509 12.7521 33.9349C12.6785 33.9163 12.6039 33.8891 12.5361 33.84C12.3949 33.7378 12.3237 33.5715 12.281 33.3312C12.238 33.0897 12.2182 32.7395 12.2087 32.2293C12.1996 31.7448 12.1996 31.1071 12.1996 30.2672C12.1996 30.2188 12.1996 30.1697 12.1996 30.12V30.1064C12.1996 28.5105 12.1996 27.6923 12.2251 27.2482C12.2377 27.027 12.2572 26.8836 12.2925 26.7789Z" fill="#FF845C" stroke="#FF845C" stroke-width="0.3"/>
<path d="M12.4236 35.5616L12.4236 35.5616L12.4256 35.5591C12.5771 35.3726 12.8129 35.2769 13.0481 35.2623C13.2842 35.2477 13.5375 35.3134 13.7352 35.4724C13.84 35.5563 13.9188 35.6432 13.9631 35.7823C14.0031 35.9082 14.0113 36.0678 14.0113 36.2859C14.0113 36.5039 14.0031 36.6635 13.9631 36.7894C13.9188 36.9285 13.84 37.0155 13.7352 37.0993L13.7352 37.0993L13.7341 37.1001C13.5748 37.2253 13.3114 37.3063 13.0826 37.3063C12.8122 37.3063 12.5838 37.2119 12.4259 37.0236C12.2712 36.8391 12.1996 36.5828 12.1996 36.2859C12.1996 36.0038 12.2705 35.7584 12.4236 35.5616Z" fill="#FF845C" stroke="#FF845C" stroke-width="0.3"/>
</svg>
