<svg width="45" height="40" viewBox="0 0 45 40" fill="none" xmlns="http://www.w3.org/2000/svg">
<path d="M22.8843 0.0463744C22.7561 0.0646984 22.2888 0.128832 21.8308 0.183805C19.9709 0.412855 17.5981 1.16414 15.7199 2.11699C13.7043 3.14313 12.2568 4.1876 10.5985 5.84592C7.59351 8.85106 5.76118 12.3693 5.00992 16.5563C4.76256 17.9214 4.67094 20.7067 4.82669 22.0718C5.02825 23.7943 5.26645 24.8388 5.53214 25.0678C5.79783 25.3152 6.17346 25.3335 6.46663 25.1319C6.80561 24.8937 6.86974 24.6005 6.71399 23.9409C6.46663 22.8873 6.30172 21.2656 6.30172 19.9646C6.30172 12.635 10.6902 5.97419 17.4331 3.05151C19.861 1.99788 22.0598 1.54894 24.735 1.54894C28.3722 1.54894 31.8078 2.57509 34.7945 4.54492C39.3021 7.52257 42.2246 12.1311 43.0034 17.4908C43.2141 18.9659 43.15 21.8886 42.8659 23.2812C42.0414 27.3766 40.0167 30.959 37.0116 33.6434C34.1166 36.2363 30.6626 37.8122 26.8422 38.2794C26.4299 38.3344 26.0085 38.4168 25.8985 38.4718C25.5046 38.6825 25.4588 39.388 25.8161 39.7087C26.036 39.9103 26.6681 39.9103 27.9141 39.7087C29.9022 39.388 31.5604 38.8566 33.4661 37.9221C38.8257 35.3109 42.756 30.4276 44.1761 24.628C44.9182 21.5771 44.8724 17.8573 44.057 14.7972C42.4812 8.91519 38.2301 3.9952 32.6415 1.59475C30.0304 0.476989 27.5293 -0.0177596 24.6434 0.000564419C23.8005 0.00972642 23.0126 0.0280504 22.8843 0.0463744Z" fill="#FF845C"/>
<path d="M24.2134 5.62628L23.9844 5.84616V13.075V20.2946L24.2409 20.5329C24.3783 20.652 26.5588 22.0812 29.0783 23.7029C32.6422 25.9934 33.7416 26.6531 33.9614 26.6531C34.5203 26.6531 34.8868 25.9842 34.6211 25.4712C34.5753 25.3887 32.5139 24.0236 30.0402 22.4386L25.5419 19.5525L25.5235 12.6993L25.4961 5.837L25.2395 5.61711C24.9005 5.33309 24.4974 5.33309 24.2134 5.62628Z" fill="#FF845C"/>
<path d="M12.1002 18.7553C11.5139 18.966 10.955 19.3416 10.671 19.7264C10.1671 20.3953 1.03295 35.3477 0.868035 35.7599C0.758095 36.0623 0.703125 36.4471 0.703125 36.896C0.712287 38.0596 1.34444 39.0858 2.4072 39.6446L2.86528 39.892L12.9614 39.9195C22.856 39.9378 23.0576 39.9378 23.5432 39.7546C25.0457 39.1957 25.8702 37.5099 25.403 35.934C25.2289 35.3568 15.7924 19.983 15.2977 19.4791C14.5372 18.7003 13.1447 18.3796 12.1002 18.7553ZM13.7768 20.322C13.9875 20.4136 14.2349 20.6152 14.3357 20.7526C14.4365 20.8992 16.6353 24.454 19.2189 28.6594C23.0301 34.8529 23.928 36.383 23.9646 36.6945C24.0287 37.2534 23.7172 37.858 23.2133 38.1512L22.8194 38.3803H13.1355C2.43468 38.3803 3.06684 38.4169 2.58127 37.7756C2.35223 37.4732 2.31558 37.3541 2.31558 36.8319V36.2272L7.06132 28.5311C9.6724 24.2983 11.8987 20.7434 11.9995 20.6335C12.4575 20.1479 13.1263 20.0288 13.7768 20.322Z" fill="#FF845C"/>
<path d="M12.5453 25.3978C12.3438 25.6085 12.3438 25.6543 12.3438 28.8702C12.3438 32.5258 12.3346 32.4709 13.0034 32.5808C13.2966 32.6266 13.379 32.59 13.6264 32.3518L13.9104 32.0677L13.8829 28.8061L13.8554 25.5352L13.6356 25.3612C13.3332 25.1138 12.7927 25.1321 12.5453 25.3978Z" fill="#FF845C"/>
<path d="M12.5361 34.4042C12.4079 34.5691 12.3438 34.7798 12.3438 35.0363C12.3438 35.5861 12.6094 35.9067 13.0767 35.9067C13.2782 35.9067 13.5073 35.8334 13.6355 35.7327C13.8188 35.5861 13.8554 35.4761 13.8554 35.0363C13.8554 34.5966 13.8188 34.4866 13.6355 34.34C13.3057 34.0743 12.7743 34.111 12.5361 34.4042Z" fill="#FF845C"/>
</svg>
