<svg width="15" height="16" viewBox="0 0 15 16" fill="none" xmlns="http://www.w3.org/2000/svg">
<path d="M1.00195 3.81055H2.40195H13.602" stroke="#FF0000" stroke-width="1.2" stroke-linecap="round" stroke-linejoin="round"/>
<path d="M12.2004 3.81172V13.6117C12.2004 13.983 12.0529 14.3391 11.7903 14.6017C11.5278 14.8642 11.1717 15.0117 10.8004 15.0117H3.80039C3.42909 15.0117 3.07299 14.8642 2.81044 14.6017C2.54789 14.3391 2.40039 13.983 2.40039 13.6117V3.81172M4.50039 3.81172V2.41172C4.50039 2.04042 4.64789 1.68432 4.91044 1.42177C5.17299 1.15922 5.52909 1.01172 5.90039 1.01172H8.70039C9.07169 1.01172 9.42779 1.15922 9.69034 1.42177C9.95289 1.68432 10.1004 2.04042 10.1004 2.41172V3.81172" stroke="#FF0000" stroke-width="1.2" stroke-linecap="round" stroke-linejoin="round"/>
<path d="M5.90234 7.3125V11.5125" stroke="#FF0000" stroke-width="1.2" stroke-linecap="round" stroke-linejoin="round"/>
<path d="M8.70117 7.3125V11.5125" stroke="#FF0000" stroke-width="1.2" stroke-linecap="round" stroke-linejoin="round"/>
</svg>
