<svg width="15" height="16" viewBox="0 0 15 16" fill="none" xmlns="http://www.w3.org/2000/svg">
<path d="M1 3.52539H2.4H13.6" stroke="#9F9F9F" stroke-width="1.3" stroke-linecap="round" stroke-linejoin="round"/>
<path d="M12.1994 3.52656V13.3266C12.1994 13.6979 12.0519 14.054 11.7894 14.3165C11.5268 14.5791 11.1707 14.7266 10.7994 14.7266H3.79941C3.42811 14.7266 3.07202 14.5791 2.80946 14.3165C2.54691 14.054 2.39941 13.6979 2.39941 13.3266V3.52656M4.49941 3.52656V2.12656C4.49941 1.75526 4.64691 1.39916 4.90946 1.13661C5.17202 0.874062 5.52811 0.726563 5.89941 0.726562H8.69941C9.07072 0.726563 9.42681 0.874062 9.68936 1.13661C9.95191 1.39916 10.0994 1.75526 10.0994 2.12656V3.52656" stroke="#9F9F9F" stroke-width="1.3" stroke-linecap="round" stroke-linejoin="round"/>
<path d="M5.90137 7.02734V11.2273" stroke="#9F9F9F" stroke-width="1.3" stroke-linecap="round" stroke-linejoin="round"/>
<path d="M8.69922 7.02734V11.2273" stroke="#9F9F9F" stroke-width="1.3" stroke-linecap="round" stroke-linejoin="round"/>
</svg>
