<svg width="23" height="23" viewBox="0 0 23 23" fill="none" xmlns="http://www.w3.org/2000/svg">
<path d="M10.9373 0.924807C9.94902 1.13105 9.11976 1.56501 8.40651 2.24389C7.29367 3.30517 6.7351 4.6844 6.79096 6.23121C6.85111 7.81669 7.59014 9.2303 8.86196 10.197C9.51076 10.6912 10.5634 11.1079 11.3411 11.181L11.6333 11.2068V12.0919V12.9813L10.7611 13.4969L9.88887 14.0168L9.63107 13.7805C8.99516 13.1875 8.06707 12.7235 7.13469 12.5387C6.63628 12.4399 5.64374 12.4442 5.16681 12.543C3.65868 12.861 2.37397 13.7719 1.66931 15.0222C1.51463 15.3015 1.50604 15.396 1.62635 15.5507C1.69509 15.6366 1.75095 15.6624 1.88415 15.6624C2.0775 15.6624 2.10757 15.6366 2.39545 15.1898C2.83371 14.5066 3.46103 13.9566 4.22154 13.5957C5.68671 12.8954 7.28508 13.0071 8.66861 13.9051C9.02953 14.1414 9.67403 14.7859 9.91035 15.1468C10.4947 16.0448 10.7611 17.1018 10.6494 18.0858C10.5806 18.6959 10.4689 19.0783 10.1939 19.6369C9.36897 21.3212 7.65459 22.2922 5.76835 22.1418C3.8907 21.9914 2.31381 20.6552 1.78103 18.7646C1.69939 18.4725 1.6908 18.3264 1.6865 17.4971C1.6865 16.5604 1.6865 16.5561 1.58338 16.4745C1.34276 16.2769 1.08496 16.4444 1.02051 16.844C0.94747 17.2866 0.968953 18.1932 1.05918 18.6572C1.46737 20.7368 3.07862 22.3481 5.15822 22.7563C5.67382 22.8551 6.56753 22.8637 7.08313 22.7734C9.20999 22.3996 10.9201 20.6853 11.2939 18.5412C11.3755 18.0772 11.3669 17.1405 11.2767 16.6807C11.1435 16.0062 10.8599 15.3101 10.5119 14.7945L10.3443 14.5539L11.1607 14.0727L11.9771 13.5914L12.7934 14.0727L13.6098 14.5539L13.4422 14.7945C13.0942 15.3101 12.8106 16.0062 12.6774 16.6807C12.5872 17.1405 12.5786 18.0772 12.6602 18.5412C12.9438 20.1482 13.9621 21.5317 15.4144 22.275C16.2093 22.6832 16.871 22.8379 17.8077 22.8379C19.2213 22.8379 20.4888 22.318 21.4727 21.3341C22.461 20.3458 22.9766 19.0869 22.9766 17.6647C22.9766 16.7667 22.8219 16.0706 22.4567 15.3402C22.1946 14.8203 22.1043 14.7172 21.8981 14.7172C21.6962 14.7172 21.5587 14.8332 21.5587 15.005C21.5587 15.0738 21.6661 15.3359 21.795 15.598C21.9239 15.8558 22.0829 16.2425 22.1473 16.4573C22.2547 16.8182 22.2633 16.8956 22.2633 17.6389C22.2633 18.3178 22.2504 18.4811 22.1731 18.7646C21.9497 19.5638 21.5415 20.2728 20.9743 20.8356C18.7873 23.0226 15.1179 22.4125 13.7602 19.6369C13.4852 19.0783 13.3735 18.6959 13.3047 18.0858C13.0856 16.1565 14.2715 14.2102 16.1062 13.4754C17.0514 13.0973 18.0182 13.0372 18.9849 13.3036C19.3931 13.411 20.1751 13.7977 20.506 14.0512C20.6993 14.1973 20.7981 14.2445 20.9185 14.2445C21.1161 14.2445 21.2321 14.1242 21.2321 13.9137C21.2321 13.7805 21.202 13.7289 21.0302 13.5785C20.9185 13.4797 20.6692 13.3078 20.4802 13.1918C19.1439 12.397 17.5198 12.2337 16.0675 12.7493C15.4144 12.977 14.7785 13.3508 14.323 13.7805L14.0652 14.0168L13.193 13.4969L12.3208 12.9813V12.0919V11.2068L12.613 11.181C13.3907 11.1079 14.4433 10.6912 15.0921 10.197C16.2093 9.3463 16.9526 8.07449 17.1374 6.69525C17.1932 6.26988 17.1674 5.36758 17.0901 5.01954C17.0128 4.67151 16.7722 4.52543 16.5401 4.6887C16.3855 4.79612 16.364 4.91213 16.4284 5.26446C16.8108 7.4128 15.4874 9.60411 13.3864 10.3045C12.8837 10.472 12.57 10.5193 11.9771 10.5236C10.7525 10.5236 9.66544 10.0724 8.8061 9.20881C8.41081 8.80492 8.20027 8.52134 7.96395 8.0616C7.59444 7.33546 7.43546 6.61791 7.47843 5.80584C7.54288 4.47387 8.20027 3.23212 9.27014 2.42005C9.63536 2.14077 10.4045 1.76696 10.847 1.65524C11.8954 1.38885 12.9825 1.50916 13.975 1.99898C14.7012 2.3556 15.2941 2.8755 15.7538 3.55867C15.8956 3.76921 16.003 3.88952 16.0761 3.9067C16.321 3.96686 16.5616 3.74343 16.5101 3.50282C16.4671 3.31376 16.0632 2.76379 15.6808 2.37279C14.9203 1.60368 13.9363 1.08378 12.8837 0.903322C12.3766 0.813093 11.4099 0.825983 10.9373 0.924807Z" fill="white"/>
<path d="M11.4221 2.28246C10.5198 2.52308 9.914 3.33086 9.914 4.29331C9.914 4.86907 10.0773 5.29014 10.464 5.70262C10.5757 5.82293 10.6315 5.90887 10.5929 5.90887C10.5026 5.90887 9.85385 6.23112 9.58316 6.41158C9.06326 6.75531 8.53906 7.32677 8.53906 7.5459C8.53906 7.70058 8.66367 7.95838 8.89569 8.27204C9.38981 8.95092 10.0042 9.38918 10.8593 9.67276C11.203 9.78447 11.2718 9.79307 11.9549 9.79736C12.7799 9.79736 12.9732 9.75869 13.6006 9.47082C14.1806 9.20442 14.6532 8.82202 15.0228 8.3193C15.2849 7.96268 15.4138 7.70918 15.4138 7.5459C15.4138 7.32677 14.881 6.75102 14.3611 6.40298C14.0947 6.23112 13.4502 5.90887 13.3599 5.90887C13.3213 5.90887 13.3771 5.82293 13.4845 5.70262C13.8755 5.29014 14.0388 4.86907 14.0388 4.30191C14.0388 3.10313 13.1408 2.20512 11.9549 2.21801C11.7917 2.21801 11.551 2.24809 11.4221 2.28246ZM12.5608 3.03009C12.8572 3.17618 13.1537 3.49413 13.2654 3.7906C13.3943 4.13004 13.3728 4.58978 13.2139 4.89915C12.9346 5.44482 12.303 5.76708 11.7487 5.65106C11.0956 5.51787 10.653 5.02375 10.6101 4.37925C10.5671 3.73045 10.9495 3.15899 11.5639 2.96134C11.826 2.87541 12.303 2.90978 12.5608 3.03009ZM12.8443 6.48462C13.476 6.6436 14.0861 6.99163 14.52 7.44278L14.679 7.60606L14.4599 7.90253C13.231 9.54386 10.7218 9.54386 9.49293 7.90253L9.2738 7.60606L9.43277 7.44278C9.86244 7.00022 10.5241 6.62211 11.1429 6.47173C11.6456 6.34713 12.3244 6.35142 12.8443 6.48462Z" fill="white"/>
<path d="M5.53272 13.9351C4.78939 14.18 4.24371 14.8159 4.11481 15.585C4.01169 16.1865 4.20504 16.8611 4.60463 17.2865C4.81517 17.5099 4.83666 17.5529 4.74213 17.5529C4.60463 17.5529 3.80975 17.9954 3.49179 18.2532C3.15665 18.5239 2.85159 18.8505 2.74417 19.0481C2.66683 19.1942 2.71839 19.3575 2.9633 19.7313C3.41445 20.4316 4.12341 20.9859 4.90111 21.2523C6.03973 21.6433 7.34162 21.4714 8.32556 20.8054C8.90991 20.4059 9.61457 19.5121 9.61457 19.1684C9.61457 19.104 9.52863 18.9579 9.39544 18.7989C8.99584 18.3177 8.32986 17.8364 7.77988 17.6302C7.64239 17.5786 7.52638 17.5357 7.52208 17.5314C7.51349 17.5271 7.59513 17.4325 7.69825 17.3165C8.63492 16.2982 8.30838 14.6526 7.05804 14.0511C6.73149 13.8921 6.68853 13.8835 6.24167 13.8706C5.87216 13.862 5.71748 13.8749 5.53272 13.9351ZM6.61119 14.6096C6.92055 14.717 7.20413 14.962 7.376 15.2756C7.51779 15.5291 7.53068 15.585 7.53068 15.8986C7.53068 16.3154 7.40178 16.6334 7.12249 16.8998C6.83032 17.1876 6.60689 17.2736 6.15574 17.2736C5.8206 17.2736 5.73896 17.2564 5.5542 17.1576C5.28781 17.0201 4.99993 16.715 4.87962 16.4443C4.73783 16.1307 4.74643 15.6666 4.90111 15.353C5.0429 15.0608 5.39522 14.7256 5.66592 14.6225C5.90653 14.5323 6.36198 14.5237 6.61119 14.6096ZM7.03656 18.1157C7.6295 18.2661 8.30408 18.6528 8.70797 19.0739L8.85405 19.2243L8.71656 19.4391C8.5318 19.7227 8.06346 20.1566 7.71973 20.3586C7.56935 20.4488 7.29006 20.5734 7.10101 20.6336C6.79594 20.7367 6.69282 20.7496 6.15574 20.7496C5.60576 20.7496 5.52413 20.741 5.21047 20.6293C4.57456 20.4102 4.06755 20.0492 3.68944 19.5465C3.4832 19.2758 3.47461 19.2586 3.53906 19.1598C3.57773 19.104 3.7367 18.9536 3.89139 18.8247C4.79369 18.0899 5.92801 17.8364 7.03656 18.1157Z" fill="white"/>
<path d="M17.1538 13.9437C15.7316 14.3949 15.2461 16.2167 16.2601 17.3166C16.3632 17.4326 16.4448 17.5272 16.4362 17.5315C16.4319 17.5315 16.3116 17.5787 16.1698 17.6346C15.5855 17.8666 14.9625 18.3177 14.5629 18.799C14.4297 18.958 14.3438 19.104 14.3438 19.1685C14.3438 19.4091 14.739 20.0063 15.1644 20.4145C15.6371 20.8614 16.0882 21.1235 16.737 21.3211C17.0764 21.4242 17.1882 21.4328 17.7811 21.4371C18.3526 21.4414 18.4943 21.4242 18.7908 21.3426C19.7361 21.0719 20.4665 20.5348 21.0079 19.7099C21.2399 19.3575 21.2915 19.1943 21.2141 19.0482C21.1067 18.8505 20.8017 18.524 20.4665 18.2533C20.1486 17.9955 19.3537 17.5529 19.2162 17.5529C19.1217 17.5529 19.1431 17.51 19.3537 17.2865C19.908 16.6936 20.0283 15.744 19.6459 14.9792C19.4955 14.6742 19.156 14.3046 18.8725 14.1285C18.4256 13.8578 17.6823 13.7762 17.1538 13.9437ZM18.2709 14.614C18.7049 14.7644 19.1174 15.2929 19.1818 15.7784C19.2463 16.2897 18.9068 16.8955 18.4084 17.1576C18.2194 17.2565 18.1377 17.2737 17.8026 17.2737C17.4846 17.2737 17.3815 17.2565 17.2139 17.1748C16.9475 17.0416 16.694 16.7924 16.5479 16.5131C16.4491 16.3198 16.4319 16.2339 16.4276 15.9202C16.4276 15.5851 16.4405 15.5335 16.5737 15.2843C16.8315 14.8074 17.2569 14.5496 17.7854 14.5453C17.9401 14.5453 18.1592 14.5753 18.2709 14.614ZM18.6834 18.1158C18.8596 18.1588 19.1646 18.2748 19.3623 18.3693C19.7275 18.5498 20.2947 18.9751 20.415 19.1599C20.4837 19.2587 20.4794 19.2716 20.2689 19.5466C19.8908 20.0493 19.3838 20.4102 18.7479 20.6294C18.4342 20.7411 18.3526 20.7497 17.8026 20.7497C17.2655 20.7497 17.1624 20.7368 16.8573 20.6337C16.6683 20.5735 16.389 20.4489 16.2386 20.3587C15.8949 20.1567 15.4265 19.7228 15.2418 19.4392L15.1043 19.2243L15.2504 19.074C15.4695 18.8419 15.8777 18.5498 16.1913 18.3908C16.969 17.9998 17.8413 17.9053 18.6834 18.1158Z" fill="white"/>
</svg>
