<svg width="17" height="11" viewBox="0 0 17 11" fill="none" xmlns="http://www.w3.org/2000/svg">
<path d="M1.0332 0.960938C0.900595 0.960938 0.773418 1.01362 0.67965 1.10738C0.585882 1.20115 0.533203 1.32833 0.533203 1.46094C0.533203 1.59355 0.585882 1.72072 0.67965 1.81449C0.773418 1.90826 0.900595 1.96094 1.0332 1.96094H16.0332C16.1658 1.96094 16.293 1.90826 16.3868 1.81449C16.4805 1.72072 16.5332 1.59355 16.5332 1.46094C16.5332 1.32833 16.4805 1.20115 16.3868 1.10738C16.293 1.01362 16.1658 0.960938 16.0332 0.960938H1.0332ZM1.0332 3.96094C0.900595 3.96094 0.773418 4.01362 0.67965 4.10738C0.585882 4.20115 0.533203 4.32833 0.533203 4.46094C0.533203 4.59355 0.585882 4.72072 0.67965 4.81449C0.773418 4.90826 0.900595 4.96094 1.0332 4.96094H16.0332C16.1658 4.96094 16.293 4.90826 16.3868 4.81449C16.4805 4.72072 16.5332 4.59355 16.5332 4.46094C16.5332 4.32833 16.4805 4.20115 16.3868 4.10738C16.293 4.01362 16.1658 3.96094 16.0332 3.96094H1.0332ZM0.533203 7.46094C0.533203 7.32833 0.585882 7.20115 0.67965 7.10738C0.773418 7.01362 0.900595 6.96094 1.0332 6.96094H16.0332C16.1658 6.96094 16.293 7.01362 16.3868 7.10738C16.4805 7.20115 16.5332 7.32833 16.5332 7.46094C16.5332 7.59355 16.4805 7.72072 16.3868 7.81449C16.293 7.90826 16.1658 7.96094 16.0332 7.96094H1.0332C0.900595 7.96094 0.773418 7.90826 0.67965 7.81449C0.585882 7.72072 0.533203 7.59355 0.533203 7.46094ZM1.0332 9.96094C0.900595 9.96094 0.773418 10.0136 0.67965 10.1074C0.585882 10.2012 0.533203 10.3283 0.533203 10.4609C0.533203 10.5935 0.585882 10.7207 0.67965 10.8145C0.773418 10.9083 0.900595 10.9609 1.0332 10.9609H11.0332C11.1658 10.9609 11.293 10.9083 11.3868 10.8145C11.4805 10.7207 11.5332 10.5935 11.5332 10.4609C11.5332 10.3283 11.4805 10.2012 11.3868 10.1074C11.293 10.0136 11.1658 9.96094 11.0332 9.96094H1.0332Z" fill="#26212E"/>
</svg>
