<svg width="16" height="16" viewBox="0 0 16 16" fill="none" xmlns="http://www.w3.org/2000/svg">
<path d="M7.26144 2.48828H2.39143C2.0224 2.48828 1.66848 2.63489 1.40754 2.89586C1.1466 3.15683 1 3.51078 1 3.87984V13.6208C1 13.9898 1.1466 14.3438 1.40754 14.6047C1.66848 14.8657 2.0224 15.0123 2.39143 15.0123H12.1314C12.5005 15.0123 12.8544 14.8657 13.1153 14.6047C13.3763 14.3438 13.5229 13.9898 13.5229 13.6208V8.7503" stroke="#9F9F9F" stroke-width="1.2" stroke-linecap="round" stroke-linejoin="round"/>
<path d="M12.4827 1.44402C12.7595 1.16722 13.1349 1.01172 13.5263 1.01172C13.9177 1.01172 14.2931 1.16722 14.5699 1.44402C14.8467 1.72082 15.0022 2.09624 15.0022 2.48769C15.0022 2.87914 14.8467 3.25456 14.5699 3.53136L7.9606 10.1413L5.17773 10.837L5.87345 8.05393L12.4827 1.44402Z" stroke="#9F9F9F" stroke-width="1.2" stroke-linecap="round" stroke-linejoin="round"/>
</svg>
