<svg width="23" height="23" viewBox="0 0 23 23" fill="none" xmlns="http://www.w3.org/2000/svg">
<path d="M10.135 0.944649C7.20137 1.29413 4.97651 2.30319 3.17989 4.08997C1.47187 5.79799 0.369282 8.14098 0.0985586 10.671C0.0296471 11.2863 0.0296471 12.5956 0.0985586 13.2109C0.413583 16.1199 1.82627 18.778 3.98221 20.5204C5.88713 22.0562 8.57467 22.9668 11.1933 22.9668C15.8104 22.9619 20.0386 19.8756 21.4956 15.4554C21.8894 14.2643 22.0469 13.2749 22.0469 11.941C22.0469 10.607 21.8894 9.59797 21.4956 8.42155C21.2495 7.67829 20.8163 6.76275 20.6637 6.65938C20.5062 6.54617 20.3142 6.55602 20.1567 6.67907C19.9697 6.82674 19.9894 7.02363 20.2552 7.58969C21.2347 9.70133 21.4562 11.8524 20.9344 14.2052C20.393 16.6269 19.0935 18.6992 17.2477 20.0627C15.9138 21.052 14.5601 21.623 12.7438 21.9676C12.0695 22.0906 9.97259 22.0906 9.29825 21.9676C7.01432 21.5344 5.24231 20.6435 3.7804 19.1816C2.18559 17.5868 1.2356 15.549 0.900886 13.0239C0.782752 12.1182 0.827052 10.7055 0.999331 9.88346C1.71306 6.49695 4.11019 3.71588 7.43763 2.42132C10.1104 1.37781 12.985 1.50086 15.5101 2.76588C15.9236 2.97262 16.1451 2.98246 16.2829 2.80526C16.4207 2.62806 16.4158 2.38687 16.278 2.25889C15.8645 1.87988 14.1614 1.27444 12.8423 1.03817C12.3943 0.954494 10.5633 0.895426 10.135 0.944649Z" fill="white"/>
<path d="M17.0879 3.04765L15.5473 4.5834L15.5522 4.90334C15.5522 5.08054 15.5817 5.54323 15.6162 5.93701L15.6752 6.65074L13.1501 9.1857C10.6496 11.701 10.625 11.7256 10.625 11.9225C10.625 12.1883 10.7776 12.3359 11.0434 12.3359C11.2354 12.3359 11.2895 12.2818 13.7752 9.81082L16.3102 7.28571L17.0239 7.34478C17.4177 7.37923 17.8804 7.40877 18.0576 7.40877L18.3775 7.41369L19.9133 5.87302C21.385 4.40619 21.454 4.32744 21.454 4.15024C21.454 3.94842 21.3358 3.79091 21.1488 3.74661C21.0848 3.73185 20.6615 3.69247 20.1988 3.66293L19.362 3.59894L19.298 2.76216C19.2685 2.29947 19.2291 1.87616 19.2143 1.81217C19.17 1.62512 19.0125 1.50699 18.8107 1.50699C18.6335 1.50699 18.5547 1.5759 17.0879 3.04765ZM18.5203 3.52019C18.5547 4.08625 18.6138 4.25853 18.8009 4.34713C18.8698 4.38158 19.1602 4.42588 19.4408 4.44065C19.7213 4.46034 19.9822 4.48987 20.0117 4.50464C20.0511 4.52433 19.6967 4.91319 19.0519 5.558L18.0281 6.58183L17.2602 6.52276L16.4972 6.46369L16.4382 5.70075L16.3791 4.93287L17.4029 3.90905C18.0478 3.26423 18.4366 2.90983 18.4563 2.94921C18.4711 2.97874 18.5006 3.23962 18.5203 3.52019Z" fill="white"/>
<path d="M9.98561 4.52527C8.98639 4.68278 8.28251 4.90921 7.42112 5.34729C6.70739 5.71645 6.14133 6.13977 5.57035 6.73536C2.8828 9.54597 2.8828 14.3304 5.57035 17.141C6.76153 18.3863 8.33173 19.1444 10.2022 19.3757C10.9159 19.4594 12.0431 19.4102 12.6928 19.2526C14.14 18.913 15.2475 18.2928 16.3107 17.2296C17.3936 16.1516 18.0286 14.9949 18.3633 13.5084C18.4617 13.0605 18.4765 12.8685 18.4765 11.9382C18.4765 11.0079 18.4617 10.8159 18.3633 10.3631C18.1664 9.49182 17.6939 8.34001 17.4576 8.17758C17.305 8.06929 17.113 8.07913 16.9555 8.20219C16.7635 8.34986 16.7882 8.56151 17.049 9.09804C17.492 10.0234 17.6791 10.8208 17.6791 11.8397C17.6791 12.6224 17.5856 13.2278 17.3444 13.9415C16.606 16.1516 14.834 17.8449 12.6781 18.406C10.2317 19.041 7.46049 18.1254 5.87061 16.1516C4.97968 15.049 4.47269 13.7693 4.37916 12.391C4.23642 10.3532 4.92061 8.60089 6.40713 7.17836C8.19883 5.47034 10.7781 4.84029 13.0226 5.56879C13.2343 5.6377 13.6084 5.79029 13.8594 5.90842C14.3959 6.1693 14.6076 6.19391 14.7553 6.00195C14.8783 5.84443 14.8882 5.65247 14.7799 5.49988C14.6224 5.27345 13.5444 4.82061 12.6928 4.61879C12.048 4.4662 10.6649 4.4219 9.98561 4.52527Z" fill="white"/>
<path d="M10.1583 8.08748C9.25751 8.27944 8.3715 8.82581 7.86943 9.51001C7.60855 9.85949 7.34768 10.396 7.2197 10.8439C7.06218 11.3952 7.06218 12.488 7.2197 13.0393C7.53472 14.1468 8.22384 14.9737 9.22305 15.461C9.83341 15.7563 10.1484 15.8351 10.8966 15.8646C11.6891 15.8991 12.137 15.8006 12.8409 15.4512C13.2396 15.2543 13.3774 15.146 13.8007 14.7227C14.2241 14.2994 14.3323 14.1615 14.5292 13.7628C14.8443 13.1279 14.9575 12.6553 14.9575 11.9662C14.9575 11.159 14.8393 10.647 14.6178 10.4797C14.4849 10.3763 14.1994 10.4009 14.0813 10.5289C13.9533 10.6618 13.9484 10.8292 14.0469 11.2033C14.1404 11.5527 14.1404 12.2714 14.0419 12.6799C13.9238 13.1918 13.6629 13.6792 13.2987 14.0582C12.9197 14.4618 12.5702 14.6882 12.0287 14.8753C11.6793 14.9983 11.566 15.0131 11.0197 15.0131C10.4831 15.0131 10.3601 14.9983 10.0303 14.8851C9.48885 14.6931 9.10984 14.4519 8.74067 14.0631C8.15 13.433 7.89404 12.7095 7.9285 11.7693C7.94819 11.3116 7.97772 11.1688 8.1057 10.8341C8.46995 9.90871 9.30181 9.16545 10.2567 8.91441C10.6308 8.81597 11.3987 8.81597 11.758 8.91441C12.1419 9.01778 12.3142 9.00794 12.4373 8.87504C12.5603 8.74706 12.58 8.47141 12.4816 8.34343C12.3881 8.22038 12.1518 8.11701 11.8318 8.05794C11.4282 7.98411 10.5717 7.99888 10.1583 8.08748Z" fill="white"/>
</svg>
