<svg width="45" height="44" viewBox="0 0 45 44" fill="none" xmlns="http://www.w3.org/2000/svg">
<path d="M12.6518 0.986704C12.394 1.23592 12.3768 1.61405 12.6002 1.89764C12.6862 2.00936 13.0729 2.25858 13.4596 2.44764C13.8377 2.62811 14.1557 2.80858 14.1557 2.84296C14.1557 2.86874 13.9752 2.96327 13.7518 3.04921C12.944 3.34999 10.9674 4.39843 10.0393 5.01718C8.77601 5.85937 7.93382 6.55547 6.851 7.64687C3.43928 11.0586 1.37677 15.3383 0.826771 20.1852C0.697865 21.3539 0.766615 24.5938 0.955678 25.7368C1.15333 26.9571 1.58302 28.6243 1.76349 28.8649C2.09006 29.3118 2.72599 29.2602 2.95803 28.779C3.05256 28.5813 3.02678 28.3922 2.77756 27.3954C2.29631 25.5305 2.17599 24.525 2.17599 22.4282C2.17599 20.4172 2.27052 19.575 2.72599 17.7188C4.05803 12.2703 7.94241 7.44922 12.987 4.98281C13.5627 4.70781 14.1729 4.41562 14.362 4.34687L14.6885 4.20937L14.5682 4.40702C13.7346 5.70468 13.6229 6.11718 13.9752 6.46953C14.1987 6.69297 14.6885 6.71015 14.9206 6.49531C15.0151 6.40937 15.5049 5.64453 16.0034 4.80234C16.9487 3.1953 17.069 2.84296 16.7596 2.53358C16.5104 2.27577 13.3823 0.771858 13.1159 0.771858C12.9612 0.771858 12.7807 0.857796 12.6518 0.986704Z" fill="#806BFF"/>
<path d="M25.7998 2.07768C25.5334 2.22377 25.4131 2.41284 25.4131 2.71362C25.4131 3.11753 25.6451 3.32378 26.2725 3.47846C31.8842 4.88784 36.5592 8.62613 39.1201 13.7394C40.667 16.8246 41.3803 20.3222 41.1311 23.6308C41.0881 24.3184 41.0108 25.0144 40.9764 25.1777L40.9162 25.4785L40.5467 24.7996C40.0569 23.923 39.9366 23.8027 39.5155 23.8027C39.1201 23.8027 38.8194 24.1035 38.8194 24.4816C38.8194 24.7394 40.5381 27.8074 40.8045 28.0309C40.9077 28.1168 41.0881 28.1855 41.2084 28.1855C41.4662 28.1855 44.5342 26.1918 44.6717 25.9426C44.835 25.6332 44.7663 25.2035 44.517 25.0059C44.1819 24.7394 43.8553 24.8168 43.0733 25.3496C42.7123 25.5902 42.3944 25.7793 42.3772 25.7535C42.36 25.7363 42.3858 25.4184 42.4459 25.0402C42.6092 23.9746 42.5834 20.623 42.3944 19.4199C41.8272 15.759 40.4178 12.4504 38.235 9.62301C37.4787 8.65191 35.7772 6.91597 34.8233 6.14253C32.5545 4.32065 29.7186 2.88549 26.96 2.18081C26.0318 1.94877 26.0318 1.94877 25.7998 2.07768Z" fill="#806BFF"/>
<path d="M19.4753 9.52978C19.2862 9.68447 19.269 9.77041 19.2432 10.604L19.2089 11.5149L18.8565 11.6009C18.0315 11.8157 17.3612 12.0735 16.5104 12.5032L15.6081 12.9587L14.9721 12.3657C14.5081 11.936 14.2674 11.7728 14.0956 11.7728C13.9151 11.7728 13.5799 12.0564 12.4627 13.1649C11.6893 13.9384 11.0362 14.6517 11.0018 14.7634C10.9331 15.0642 11.1135 15.3993 11.6635 15.9407L12.1706 16.4392L11.7924 17.1353C11.4229 17.8314 10.9674 18.9829 10.8041 19.6532L10.7182 20.0056L9.80727 20.04C8.50961 20.0743 8.56977 19.954 8.56977 22.429C8.56977 24.9212 8.5268 24.8353 9.80727 24.8353H10.6838L10.9331 25.6689C11.0706 26.1329 11.4057 26.9579 11.6807 27.4994L12.1706 28.479L11.5604 29.1064C10.6838 30.0173 10.6838 30.0087 12.4198 31.7361C13.7002 33.008 13.8034 33.0853 14.1042 33.0853C14.3963 33.0853 14.5081 33.0166 15.0323 32.5009L15.6338 31.9165L16.6823 32.4408C17.2581 32.733 18.0659 33.0595 18.4784 33.1798L19.226 33.3861V34.2283C19.226 35.0103 19.2432 35.0876 19.4409 35.2767L19.6471 35.4916H21.6753C24.1761 35.4916 24.0386 35.5603 24.0386 34.2626V33.3689L24.5112 33.2658C25.1471 33.1197 26.2901 32.6642 27.0722 32.2431L27.7167 31.8994L28.3011 32.4923C29.2034 33.4033 29.1776 33.4119 30.8964 31.6845C32.194 30.3869 32.2886 30.2665 32.2886 29.9744C32.2886 29.6908 32.2112 29.5705 31.7214 29.0462L31.1456 28.4361L31.5839 27.6025C32.005 26.7861 32.5464 25.3337 32.5464 24.9986C32.5464 24.8439 32.6151 24.8353 33.4487 24.8353C34.7722 24.8353 34.6948 24.9814 34.6948 22.4376V20.3751L34.4714 20.2032C34.2737 20.0486 34.119 20.0228 33.4058 20.0228H32.5722L32.4776 19.6103C32.3143 18.897 31.8675 17.7454 31.4808 17.0837L31.1112 16.4392L31.7042 15.829C32.2198 15.3048 32.2886 15.1931 32.2886 14.9009C32.2886 14.5915 32.2112 14.497 30.8878 13.1735C29.1776 11.4548 29.2292 11.472 28.3011 12.3743L27.6823 12.9673L26.7886 12.5032C26.2901 12.254 25.4737 11.9188 24.9667 11.7556L24.0386 11.472V10.5954C24.0386 9.32353 24.1245 9.3665 21.6323 9.3665C19.8362 9.3665 19.6557 9.38369 19.4753 9.52978ZM22.6635 11.5923C22.6635 12.5978 22.7151 12.6665 23.7807 12.9243C24.9495 13.2165 25.8862 13.5946 26.7456 14.136C27.7682 14.7806 27.9229 14.772 28.6448 14.0759L29.2034 13.5431L29.8823 14.222L30.5612 14.9009L30.0112 15.4767C29.5901 15.915 29.4526 16.1126 29.4526 16.3017C29.4526 16.4392 29.6675 16.886 29.9683 17.3931C30.5612 18.3728 30.9479 19.3267 31.1714 20.3493C31.3948 21.3548 31.4722 21.4236 32.5034 21.4665L33.3198 21.5009V22.4806V23.4603H32.5206C31.5237 23.4603 31.3948 23.5376 31.2573 24.2165C30.9995 25.4712 30.5097 26.6658 29.7878 27.8087C29.3151 28.5478 29.3409 28.6853 30.0112 29.3814L30.5612 29.9572L29.8565 30.6619L29.1518 31.358L28.5847 30.808C27.9143 30.1548 27.7167 30.1119 27.1323 30.5158C26.1526 31.1775 24.6659 31.7962 23.4198 32.054C22.7409 32.1915 22.6635 32.3205 22.6635 33.3173V34.1166H21.6839H20.7042L20.6698 33.3001C20.6354 32.2775 20.5667 32.1915 19.5612 31.9681C18.5729 31.7533 17.387 31.2634 16.5104 30.7134C15.5221 30.0947 15.4104 30.1033 14.6799 30.808L14.1042 31.358L13.4252 30.679L12.7463 30.0001L13.2792 29.4415C13.9151 28.7798 13.9667 28.4962 13.5713 27.9033C12.9096 26.915 12.4456 25.8493 12.1362 24.5947C11.8612 23.4861 11.8268 23.4603 10.8299 23.4603H10.0307V22.472V21.4837H10.6752C11.3885 21.4837 11.8784 21.329 11.9557 21.0798C11.9815 20.9939 12.0588 20.6673 12.1276 20.3579C12.394 19.1892 12.8065 18.2009 13.4768 17.1353C13.9667 16.3618 13.9409 16.1642 13.2792 15.4939L12.7377 14.9524L13.451 14.2478L14.1557 13.5345L14.6971 14.0759C15.3674 14.7376 15.5651 14.7634 16.3385 14.2735C17.3956 13.6118 18.3667 13.1993 19.4839 12.9415C19.8362 12.8556 20.2143 12.7524 20.3174 12.7009C20.5753 12.572 20.687 12.2024 20.687 11.4634V10.8274H21.6753H22.6635V11.5923Z" fill="#806BFF"/>
<path d="M20.128 15.4409C18.8561 15.7073 17.6444 16.3604 16.6647 17.3057C13.9749 19.8924 13.76 24.1807 16.192 27.1112C17.017 28.1081 18.4952 29.0276 19.8788 29.3972C20.8585 29.6636 22.4397 29.655 23.4366 29.3972C26.0061 28.7182 27.9225 26.7932 28.61 24.1893C28.8679 23.2268 28.8593 21.637 28.6014 20.6659C27.871 17.9417 25.7483 15.9393 23.0241 15.4151C22.2163 15.2604 20.9014 15.269 20.128 15.4409ZM23.0842 16.8932C26.6421 17.8213 28.4296 21.8432 26.728 25.1175C26.2897 25.9682 25.1725 27.0854 24.3218 27.5237C21.4257 29.0276 17.9538 27.8847 16.5186 24.9628C16.0975 24.1206 15.9342 23.3901 15.9342 22.4276C15.9342 20.8635 16.4842 19.5745 17.6272 18.4229C19.1225 16.9276 21.0905 16.3776 23.0842 16.8932Z" fill="#806BFF"/>
<path d="M35.5969 36.1011C34.0329 37.6824 32.2969 38.9285 30.1829 39.9597C27.3555 41.3519 24.7602 41.9449 21.5891 41.9449C18.5211 41.9363 15.8656 41.3261 13.1672 40.0027C12.1188 39.4871 10.3742 38.4129 9.67813 37.8457L9.37735 37.5965L10.1336 37.6308C10.5547 37.6394 10.993 37.6308 11.1133 37.605C11.6633 37.459 11.8524 36.7886 11.4484 36.3933L11.2422 36.1785H9.26563C7.31484 36.1785 7.28906 36.1785 7.05703 36.3847L6.81641 36.5824L6.92813 38.4215C7.03984 40.3722 7.10859 40.7676 7.36641 40.9051C7.68438 41.0769 8.11407 41.0082 8.31172 40.759C8.4836 40.5355 8.49219 40.4668 8.43203 39.5902L8.37188 38.6535L8.92188 39.0832C13.743 42.8558 20.4032 44.2738 26.4789 42.8301C30.1141 41.9621 33.4399 40.1488 36.1727 37.5535C37.1524 36.6339 37.3157 36.3504 37.161 35.8949C37.0665 35.6113 36.8688 35.491 36.4821 35.491C36.2415 35.491 36.104 35.5855 35.5969 36.1011Z" fill="#806BFF"/>
</svg>
