<svg width="25" height="19" viewBox="0 0 25 19" fill="none" xmlns="http://www.w3.org/2000/svg">
<path d="M9.32823 0.522089C8.85006 0.639308 8.49378 0.934699 8.27814 1.38951L8.15625 1.65208V4.30122V6.95037L8.27814 7.20825C8.45159 7.57866 8.65786 7.79434 9.00945 7.96782C9.26729 8.09442 9.38449 8.12255 9.73139 8.13662L10.1486 8.15537V8.92902V9.70266L10.2846 9.83864C10.3971 9.95117 10.4627 9.97461 10.6455 9.97461H10.8706L11.7847 9.0603L12.7035 8.15069L14.4146 8.13662L16.1257 8.12255L16.4398 7.96782C16.7586 7.8131 16.993 7.58335 17.1524 7.2692C17.3024 6.96912 17.3258 6.519 17.3118 4.08554C17.2977 1.98029 17.2836 1.67552 17.2133 1.49735C17.0961 1.19727 16.8805 0.920633 16.632 0.751838C16.196 0.456447 16.182 0.456447 12.7035 0.461136C10.3783 0.461136 9.50168 0.479891 9.32823 0.522089ZM15.957 1.52548C16.046 1.56768 16.1632 1.66614 16.2148 1.73648C16.3132 1.86776 16.3132 1.91465 16.3132 4.29184C16.3132 6.48618 16.3039 6.72999 16.2335 6.86128C16.0741 7.15198 16.0226 7.16136 14.0583 7.16136H12.291L11.7097 7.73339L11.1331 8.30541V7.8928C11.1331 7.48488 11.1331 7.48019 10.9737 7.32078L10.8143 7.16136H10.2236C9.55794 7.16136 9.3798 7.11447 9.23447 6.89879C9.1454 6.7675 9.14071 6.66435 9.14071 4.31529C9.14071 1.91465 9.14071 1.86776 9.23916 1.73648C9.46418 1.43171 9.33761 1.44108 12.727 1.44108C15.5585 1.44108 15.8116 1.44577 15.957 1.52548Z" fill="white"/>
<path d="M4.83031 6.92913C3.69583 7.09793 2.70199 7.89502 2.30352 8.94061C2.08319 9.5267 2.04099 10.2347 2.19101 10.863C2.21445 10.9802 2.33633 11.2709 2.45353 11.5147C2.62699 11.8758 2.7395 12.0305 3.03015 12.3212L3.39112 12.6822L2.96452 12.9307C2.21914 13.3715 1.5347 14.1264 1.16904 14.9141C0.836199 15.6408 0.808071 15.8096 0.784632 17.2725C0.775256 18.215 0.784632 18.6182 0.822135 18.6932C0.948709 18.9323 0.892454 18.9276 5.27566 18.9276C9.83232 18.9276 9.62136 18.9417 9.762 18.6135C9.82295 18.4588 9.83232 18.2712 9.80888 17.31C9.78075 16.1566 9.74325 15.8753 9.54167 15.2986C9.18539 14.267 8.33219 13.2918 7.35241 12.7901L7.15552 12.6916L7.51649 12.3306C7.77901 12.068 7.93371 11.857 8.07435 11.5898C8.37907 11.0037 8.44001 10.7458 8.43532 10.0659C8.43063 9.56421 8.41188 9.42355 8.30875 9.10471C7.97122 8.07788 7.10864 7.25735 6.09605 7.00415C5.72101 6.91038 5.17253 6.87756 4.83031 6.92913ZM5.59913 7.90908C6.52734 8.06381 7.28209 8.81401 7.44617 9.75176C7.58212 10.5535 7.18365 11.4444 6.48046 11.8992C5.67882 12.4197 4.70842 12.3822 3.94898 11.8101C3.10515 11.1631 2.85201 10.0284 3.33486 9.07189C3.61145 8.528 4.30526 8.01692 4.90532 7.91377C5.25691 7.85751 5.2616 7.85751 5.59913 7.90908ZM6.06323 13.3715C7.25865 13.6528 8.23843 14.5437 8.62753 15.7065C8.78223 16.166 8.83379 16.5926 8.83848 17.3428V17.943H5.26629H1.69878L1.7269 17.1319C1.76441 16.1847 1.84879 15.7768 2.13475 15.2282C2.60823 14.3186 3.438 13.6481 4.39433 13.3949C4.82093 13.2824 5.64132 13.273 6.06323 13.3715Z" fill="white"/>
<path d="M19.9981 6.90569C19.0277 7.06511 18.573 7.28548 18.0058 7.85751C17.0447 8.82808 16.8291 10.2628 17.4479 11.5194C17.626 11.8711 17.7386 12.0352 18.0339 12.3259L18.3996 12.6916L18.2027 12.7901C17.2229 13.2918 16.3697 14.267 16.0134 15.2986C15.8071 15.88 15.7743 16.1566 15.7462 17.31C15.7227 18.2712 15.7321 18.4635 15.7931 18.6135C15.9337 18.9417 15.7227 18.9276 20.2794 18.9276C24.6439 18.9276 24.6064 18.9276 24.7282 18.7026C24.8126 18.5432 24.7939 16.3254 24.7048 15.8893C24.4563 14.6843 23.6453 13.5497 22.5906 12.9307L22.164 12.6822L22.4968 12.3446C22.8906 11.9555 23.139 11.5522 23.3125 11.0271C23.4156 10.713 23.4344 10.5629 23.4344 10.1128C23.4391 9.15629 23.1812 8.51862 22.5296 7.85751C22.2061 7.5293 22.0561 7.41677 21.7327 7.25735C21.5123 7.1542 21.2076 7.03698 21.0529 6.99947C20.7435 6.92445 20.1856 6.87756 19.9981 6.90569ZM20.9732 8.00755C21.6952 8.25136 22.2483 8.87966 22.4171 9.62986C22.6984 10.9005 21.7514 12.1571 20.4435 12.2556C19.3137 12.3446 18.3058 11.5429 18.1136 10.4082C18.0058 9.75176 18.2261 9.07658 18.7183 8.56082C19.3043 7.9466 20.1763 7.73091 20.9732 8.00755ZM21.142 13.3949C22.1124 13.6434 22.9421 14.3139 23.4203 15.2282C23.7063 15.7768 23.7907 16.1847 23.8282 17.1319L23.8563 17.943H20.2888H16.7166V17.3663C16.7166 16.6348 16.7822 16.1238 16.9275 15.6877C17.3166 14.553 18.3011 13.6575 19.4731 13.3715C19.8856 13.273 20.7107 13.2824 21.142 13.3949Z" fill="white"/>
<path d="M10.1687 12.3145C10.1078 12.3379 10.0187 12.427 9.96715 12.5114C9.66713 12.9944 10.3187 13.5148 10.7219 13.1163C10.8297 13.0037 10.8579 12.9381 10.8579 12.774C10.8532 12.3942 10.525 12.1738 10.1687 12.3145Z" fill="white"/>
<path d="M12.5297 12.3444C12.3609 12.4335 12.3047 12.546 12.3047 12.7852C12.3047 12.9399 12.3328 13.0102 12.4406 13.1181C12.7454 13.4182 13.2423 13.2118 13.2423 12.7852C13.2423 12.5414 13.1813 12.4288 13.0079 12.3397C12.8391 12.2507 12.6938 12.2507 12.5297 12.3444Z" fill="white"/>
<path d="M14.9203 12.3439C14.7516 12.433 14.6953 12.5455 14.6953 12.7846C14.6953 13.2066 15.1735 13.4129 15.4923 13.1222C15.9329 12.7283 15.4407 12.0579 14.9203 12.3439Z" fill="white"/>
</svg>
