<svg width="45" height="45" viewBox="0 0 45 45" fill="none" xmlns="http://www.w3.org/2000/svg">
<path d="M2.11445 0.66328C1.60742 0.895313 1.17773 1.30781 0.928516 1.80625L0.705078 2.25312V22.5V42.7469L0.928516 43.1938C1.17773 43.6922 1.60742 44.1047 2.11445 44.3367C2.4582 44.4914 3.21445 44.5 22.7137 44.5H42.952L43.3988 44.2766C43.8973 44.0273 44.3098 43.5977 44.5418 43.0906C44.6965 42.7469 44.7051 41.9906 44.7051 22.5C44.7051 3.00937 44.6965 2.25312 44.5418 1.90937C44.3098 1.40234 43.8973 0.972656 43.3988 0.723438L42.952 0.5H22.7137C3.21445 0.5 2.4582 0.508595 2.11445 0.66328ZM42.7543 2.07265C43.2699 2.40781 43.2871 2.46797 43.3129 5.0289L43.3387 7.375H22.7137H2.08008V5.20078C2.08008 4.01484 2.12305 2.89766 2.16602 2.72578C2.26914 2.37344 2.56133 2.07265 2.90508 1.96094C3.04258 1.91797 11.9285 1.89219 22.834 1.90078C41.4824 1.91797 42.5309 1.92656 42.7543 2.07265ZM43.3129 25.5336C43.2871 41.3977 43.2785 42.3258 43.1324 42.5492C43.0551 42.6781 42.8832 42.85 42.7543 42.9273C42.5309 43.0734 41.491 43.082 22.7051 43.082C3.91914 43.082 2.8793 43.0734 2.65586 42.9273C2.52695 42.85 2.35508 42.6781 2.27773 42.5492C2.13164 42.3258 2.12305 41.3977 2.09727 25.5336L2.08008 8.75H22.7051H43.3301L43.3129 25.5336Z" fill="#FF845C"/>
<path d="M33.877 4.10938C33.7652 4.22109 33.7051 4.39297 33.7051 4.625C33.7051 4.85703 33.7652 5.02891 33.877 5.14062C33.9887 5.25234 34.1605 5.3125 34.3926 5.3125C34.6246 5.3125 34.7965 5.25234 34.9082 5.14062C35.0199 5.02891 35.0801 4.85703 35.0801 4.625C35.0801 4.39297 35.0199 4.22109 34.9082 4.10938C34.7965 3.99766 34.6246 3.9375 34.3926 3.9375C34.1605 3.9375 33.9887 3.99766 33.877 4.10938Z" fill="#FF845C"/>
<path d="M36.627 4.10938C36.5152 4.22109 36.4551 4.39297 36.4551 4.625C36.4551 4.85703 36.5152 5.02891 36.627 5.14062C36.7387 5.25234 36.9105 5.3125 37.1426 5.3125C37.3746 5.3125 37.5465 5.25234 37.6582 5.14062C37.7699 5.02891 37.8301 4.85703 37.8301 4.625C37.8301 4.39297 37.7699 4.22109 37.6582 4.10938C37.5465 3.99766 37.3746 3.9375 37.1426 3.9375C36.9105 3.9375 36.7387 3.99766 36.627 4.10938Z" fill="#FF845C"/>
<path d="M39.377 4.10938C39.2652 4.22109 39.2051 4.39297 39.2051 4.625C39.2051 4.85703 39.2652 5.02891 39.377 5.14062C39.4887 5.25234 39.6605 5.3125 39.8926 5.3125C40.1246 5.3125 40.2965 5.25234 40.4082 5.14062C40.5199 5.02891 40.5801 4.85703 40.5801 4.625C40.5801 4.39297 40.5199 4.22109 40.4082 4.10938C40.2965 3.99766 40.1246 3.9375 39.8926 3.9375C39.6605 3.9375 39.4887 3.99766 39.377 4.10938Z" fill="#FF845C"/>
<path d="M11.9201 18.5898C11.7654 18.7359 11.7052 18.8906 11.7052 19.114C11.7052 19.4148 11.7912 19.5265 12.8826 20.6265L14.0599 21.8125L12.8912 22.9984C12.1693 23.7203 11.6966 24.2703 11.6537 24.4164C11.5248 24.9406 12.0146 25.4305 12.5388 25.293C12.6849 25.2586 13.2435 24.7687 13.9654 24.064L15.1427 22.8953L16.3287 24.0726C17.4287 25.164 17.5404 25.25 17.8412 25.25C18.2709 25.25 18.5802 24.9406 18.5802 24.5109C18.5802 24.2101 18.4943 24.0984 17.4029 22.9984L16.2255 21.8125L17.4029 20.6265C18.4943 19.5265 18.5802 19.4148 18.5802 19.114C18.5802 18.6844 18.2709 18.375 17.8412 18.375C17.5404 18.375 17.4287 18.4609 16.3287 19.5523L15.1427 20.7297L13.9568 19.5523C12.8568 18.4609 12.7451 18.375 12.4443 18.375C12.2209 18.375 12.0662 18.4351 11.9201 18.5898Z" fill="#FF845C"/>
<path d="M27.0451 18.5898C26.8904 18.7359 26.8302 18.8906 26.8302 19.114C26.8302 19.4148 26.9162 19.5265 28.0076 20.6265L29.1849 21.8125L28.0162 22.9984C27.2943 23.7203 26.8216 24.2703 26.7787 24.4164C26.6498 24.9406 27.1396 25.4305 27.6638 25.293C27.8099 25.2586 28.3685 24.7687 29.0904 24.064L30.2677 22.8953L31.4537 24.0726C32.5537 25.164 32.6654 25.25 32.9662 25.25C33.3959 25.25 33.7052 24.9406 33.7052 24.5109C33.7052 24.2101 33.6193 24.0984 32.5279 22.9984L31.3505 21.8125L32.5279 20.6265C33.6623 19.475 33.7052 19.4234 33.7052 19.0797C33.7052 18.8305 33.6537 18.6672 33.5334 18.5469C33.413 18.4265 33.2498 18.375 33.0005 18.375C32.6568 18.375 32.6052 18.418 31.4537 19.5523L30.2677 20.7297L29.0818 19.5523C27.9818 18.4609 27.8701 18.375 27.5693 18.375C27.3459 18.375 27.1912 18.4351 27.0451 18.5898Z" fill="#FF845C"/>
<path d="M20.9004 29.6328C19.0441 30.0281 17.5832 30.8789 16.7324 32.0734C16.2769 32.718 16.234 33.0531 16.5605 33.3711C16.698 33.5172 16.8613 33.5859 17.0762 33.5859C17.4027 33.5859 17.523 33.4914 18.0215 32.8383C18.391 32.3484 18.9754 31.893 19.6543 31.5664C20.6941 31.068 21.2012 30.9648 22.748 30.9648C23.9512 30.9648 24.2004 30.9906 24.7676 31.1625C25.8418 31.4977 26.5465 31.9187 27.2855 32.6578C27.8699 33.2336 27.9988 33.3281 28.2566 33.3281C28.6347 33.3281 28.9785 33.0102 28.9785 32.6664C28.9785 31.9273 27.5176 30.6297 26.0137 30.0539C24.484 29.4609 22.473 29.2891 20.9004 29.6328Z" fill="#FF845C"/>
</svg>
