<svg width="45" height="45" viewBox="0 0 45 45" fill="none" xmlns="http://www.w3.org/2000/svg">
<path d="M20.8447 0.125622C14.988 0.823311 10.5464 2.83776 6.95971 6.40482C3.54988 9.81465 1.34872 14.4921 0.808257 19.543C0.670685 20.7713 0.670685 23.3852 0.808257 24.6135C1.43716 30.421 4.2574 35.7274 8.56145 39.206C12.3643 42.2719 17.7297 44.0898 22.9574 44.0898C32.1748 44.08 40.6158 37.9187 43.5245 29.0944C44.3106 26.7164 44.6251 24.7413 44.6251 22.0783C44.6251 19.4152 44.3106 17.4008 43.5245 15.0522C43.0332 13.5684 42.1684 11.7407 41.8638 11.5343C41.5494 11.3083 41.1661 11.3279 40.8517 11.5736C40.4783 11.8684 40.5176 12.2615 41.0482 13.3915C43.0037 17.6071 43.4459 21.9014 42.4043 26.5985C41.3233 31.4332 38.7291 35.5702 35.0441 38.2921C32.3811 40.2673 29.6788 41.4072 26.0528 42.095C24.7066 42.3407 20.5204 42.3407 19.1742 42.095C14.6146 41.2303 11.0771 39.4517 8.15856 36.5332C4.97474 33.3494 3.0782 29.2812 2.40999 24.2401C2.17416 22.432 2.26259 19.6118 2.60653 17.9707C4.03138 11.21 8.81694 5.658 15.4597 3.0736C20.7956 0.99036 26.5343 1.23603 31.5754 3.76146C32.4008 4.17418 32.843 4.19383 33.1181 3.84008C33.3933 3.48632 33.3834 3.00481 33.1083 2.74932C32.2829 1.99268 28.8829 0.784004 26.2493 0.312325C25.3551 0.145275 21.6996 0.0273552 20.8447 0.125622Z" fill="#FF845C"/>
<path d="M34.7285 4.32048L31.6528 7.38638L31.6626 8.02511C31.6626 8.37887 31.7216 9.30257 31.7903 10.0887L31.9083 11.5136L26.8672 16.5743C21.8753 21.5956 21.8262 21.6448 21.8262 22.0378C21.8262 22.5685 22.1308 22.8633 22.6614 22.8633C23.0447 22.8633 23.1528 22.7552 28.1152 17.8222L33.1759 12.7812L34.6008 12.8991C35.3869 12.9679 36.3106 13.0269 36.6643 13.0269L37.3031 13.0367L40.369 9.96095C43.3071 7.03262 43.4447 6.8754 43.4447 6.52164C43.4447 6.11875 43.2089 5.8043 42.8354 5.71586C42.7077 5.68638 41.8626 5.60777 40.9389 5.54881L39.2684 5.42106L39.1406 3.75054C39.0817 2.82684 39.0031 1.98175 38.9736 1.854C38.8852 1.48059 38.5707 1.24475 38.1678 1.24475C37.8141 1.24475 37.6568 1.38233 34.7285 4.32048ZM37.588 5.26383C37.6568 6.39389 37.7747 6.73783 38.1482 6.9147C38.2857 6.98349 38.8655 7.07193 39.4256 7.10141C39.9857 7.14072 40.5065 7.19968 40.5655 7.22916C40.6441 7.26846 39.9366 8.04476 38.6493 9.33205L36.6054 11.376L35.0724 11.2581L33.5493 11.1401L33.4314 9.61702L33.3135 8.08407L35.3574 6.04014C36.6447 4.75285 37.421 4.04534 37.4603 4.12395C37.4898 4.18291 37.5487 4.70372 37.588 5.26383Z" fill="#FF845C"/>
<path d="M20.5494 7.27655C18.5546 7.59101 17.1494 8.04303 15.4297 8.9176C14.0049 9.65459 12.8748 10.4997 11.7349 11.6887C6.36961 17.2997 6.36961 26.8511 11.7349 32.4621C14.113 34.9483 17.2477 36.4616 20.9818 36.9234C22.4066 37.0905 24.6569 36.9922 25.954 36.6778C28.843 35.9997 31.054 34.7616 33.1766 32.639C35.3384 30.487 36.6061 28.1777 37.2743 25.2101C37.4708 24.3159 37.5003 23.9326 37.5003 22.0754C37.5003 20.2182 37.4708 19.835 37.2743 18.9309C36.8812 17.1916 35.9379 14.8922 35.4662 14.5679C35.1616 14.3517 34.7783 14.3714 34.4639 14.617C34.0806 14.9118 34.1298 15.3344 34.6506 16.4055C35.535 18.2529 35.9084 19.8448 35.9084 21.8789C35.9084 23.4413 35.7217 24.65 35.2402 26.0748C33.7662 30.487 30.2286 33.8673 25.9245 34.9876C21.0407 36.2552 15.5083 34.4275 12.3344 30.487C10.5557 28.2858 9.5436 25.7309 9.35689 22.9795C9.07192 18.9113 10.4378 15.413 13.4055 12.5731C16.9823 9.16326 22.1315 7.90546 26.6124 9.35979C27.035 9.49737 27.7818 9.80199 28.2829 10.0378C29.354 10.5586 29.7766 10.6078 30.0714 10.2245C30.317 9.91009 30.3367 9.52685 30.1205 9.22222C29.8061 8.7702 27.654 7.86615 25.954 7.46326C24.6667 7.15864 21.9055 7.0702 20.5494 7.27655Z" fill="#FF845C"/>
<path d="M20.8924 14.3849C19.0941 14.7681 17.3253 15.8589 16.323 17.2248C15.8022 17.9225 15.2814 18.9936 15.0259 19.8878C14.7114 20.9884 14.7114 23.1699 15.0259 24.2705C15.6548 26.4814 17.0305 28.1323 19.0253 29.1051C20.2438 29.6947 20.8727 29.852 22.3664 29.9109C23.9484 29.9797 24.8427 29.7832 26.2479 29.0855C27.0438 28.6924 27.319 28.4762 28.164 27.6312C29.0091 26.7861 29.2253 26.5109 29.6184 25.715C30.2473 24.4473 30.4733 23.504 30.4733 22.1283C30.4733 20.5167 30.2375 19.4947 29.7953 19.1606C29.5299 18.9543 28.96 19.0034 28.7242 19.2589C28.4687 19.5242 28.4588 19.8583 28.6554 20.6051C28.8421 21.3028 28.8421 22.7375 28.6456 23.5531C28.4097 24.5751 27.8889 25.5479 27.1617 26.3046C26.4051 27.1103 25.7074 27.5624 24.6265 27.9358C23.9288 28.1814 23.7028 28.2109 22.612 28.2109C21.5409 28.2109 21.2953 28.1814 20.6369 27.9554C19.5559 27.5722 18.7993 27.0907 18.0623 26.3144C16.8831 25.0566 16.3721 23.6121 16.4409 21.7352C16.4802 20.8213 16.5392 20.5363 16.7947 19.8681C17.5218 18.0207 19.1825 16.5369 21.0889 16.0358C21.8357 15.8392 23.3687 15.8392 24.086 16.0358C24.8525 16.2421 25.1964 16.2225 25.4421 15.9571C25.6877 15.7017 25.727 15.1514 25.5305 14.8959C25.3438 14.6502 24.8721 14.4439 24.2334 14.3259C23.4276 14.1785 21.7178 14.208 20.8924 14.3849Z" fill="#FF845C"/>
</svg>
