<svg width="25" height="25" viewBox="0 0 25 25" fill="none" xmlns="http://www.w3.org/2000/svg">
<path d="M14.7284 0.79822C15.451 0.927662 16.2778 1.15798 16.9806 1.40773C17.3321 1.53264 17.6533 1.66266 17.9154 1.7877C18.1762 1.91213 18.3826 2.03354 18.5012 2.14223L18.5014 2.14245C18.6751 2.30374 18.6746 2.5971 18.5123 2.80582C18.4266 2.91599 18.3126 2.96813 18.1616 2.96065C18.0152 2.95341 17.8343 2.89037 17.6074 2.77689L17.6073 2.77687C14.8656 1.4033 11.7444 1.26954 8.84157 2.40286L8.84152 2.40289C5.22675 3.80923 2.62371 6.82984 1.84871 10.5071C1.66203 11.3979 1.61376 12.9333 1.74197 13.9162C2.10588 16.6615 3.13807 18.8739 4.86904 20.6049C6.45579 22.1916 8.37932 23.1594 10.8623 23.6303C11.2252 23.6965 11.9767 23.7302 12.7326 23.7302C13.4884 23.7302 14.2399 23.6965 14.6028 23.6303C16.5776 23.2557 18.0471 22.6355 19.4955 21.5612L19.4956 21.5612C21.4986 20.0816 22.9101 17.8318 23.4984 15.2006C24.0653 12.6443 23.8246 10.309 22.7609 8.01575C22.6162 7.70752 22.5346 7.49239 22.5175 7.33195C22.5088 7.25033 22.5164 7.18014 22.5426 7.11799C22.5689 7.05579 22.6121 7.00582 22.6678 6.96186L22.668 6.9617C22.8557 6.81509 23.0892 6.80152 23.2805 6.93862C23.3086 6.95783 23.3381 6.99149 23.3678 7.0316C23.3986 7.07321 23.4328 7.12626 23.4692 7.18818C23.5421 7.3121 23.6259 7.47432 23.7125 7.65767C23.8858 8.02442 24.0718 8.47871 24.2068 8.88627C24.6382 10.1751 24.8107 11.2812 24.8107 12.7413C24.8107 14.2016 24.6381 15.2863 24.2068 16.591C22.6107 21.4332 17.9792 24.8141 12.9205 24.8195H12.9205C10.0533 24.8195 7.1101 23.8228 5.02246 22.1397L5.02241 22.1397C2.6596 20.23 1.11244 17.318 0.767425 14.1322C0.691849 13.4573 0.691848 12.0254 0.767423 11.3505C1.06394 8.57969 2.2715 6.01299 4.14322 4.14127L4.14332 4.14117C6.11242 2.18286 8.5505 1.07807 11.7601 0.695721L11.7603 0.695698C11.9983 0.668344 12.6184 0.671267 13.2363 0.692043C13.8541 0.712814 14.4796 0.75176 14.7284 0.79822ZM14.7284 0.79822C14.7284 0.798227 14.7285 0.798237 14.7285 0.798244L14.7193 0.847395L14.7282 0.798178C14.7282 0.798191 14.7283 0.798206 14.7284 0.79822Z" fill="#806BFF" stroke="#806BFF" stroke-width="0.1"/>
<path d="M22.7469 3.71041C23.2516 3.74263 23.7134 3.78559 23.7832 3.8017C23.9873 3.85003 24.1161 4.02186 24.1161 4.24202C24.1161 4.43533 24.041 4.52124 22.4354 6.12142L19.3532 3.0392C20.9534 1.43365 21.0393 1.35847 21.2326 1.35847C21.4528 1.35847 21.6246 1.48735 21.6729 1.6914C21.689 1.7612 21.732 2.223 21.7642 2.72775M22.7469 3.71041L21.834 3.64061M22.7469 3.71041L22.75 3.66052M22.7469 3.71041L19.3178 3.0039M21.834 3.64061L21.7642 2.72775M21.834 3.64061L21.8839 3.6368L21.8806 3.59403M21.834 3.64061L21.8378 3.59075L21.8806 3.59403M21.7642 2.72775L21.8141 2.72457L21.8806 3.59403M21.7642 2.72775L21.814 2.72394L21.8141 2.72424C21.7979 2.47158 21.7791 2.22964 21.7623 2.04201C21.7539 1.94817 21.746 1.86774 21.7391 1.80626C21.7324 1.74613 21.7264 1.70102 21.7216 1.68015L21.7216 1.67987C21.6675 1.45141 21.474 1.30847 21.2326 1.30847C21.1784 1.30847 21.1282 1.31423 21.0589 1.35119C20.993 1.38634 20.9104 1.4494 20.7872 1.55947C20.5401 1.78019 20.1173 2.20174 19.3178 3.0039M19.3178 3.0039L17.6372 4.67914L17.6221 4.69412L17.6225 4.71532L17.6278 5.06359C17.6278 5.06371 17.6278 5.06383 17.6278 5.06395C17.6279 5.25995 17.6603 5.76624 17.6978 6.19546C17.6978 6.1955 17.6978 6.19554 17.6978 6.19559L17.7603 6.95093L15.022 9.69996L15.0219 9.7L15.0138 9.70824C13.6558 11.0743 12.9682 11.7659 12.6204 12.1425C12.4467 12.3306 12.3548 12.4433 12.3066 12.5239C12.282 12.5651 12.268 12.5994 12.2605 12.6323C12.253 12.6649 12.2527 12.6938 12.2527 12.7208C12.2527 12.8753 12.2973 13.0024 12.3872 13.0907C12.4769 13.179 12.6052 13.2219 12.7592 13.2219C12.7865 13.2219 12.8154 13.221 12.8485 13.2125C12.8816 13.2041 12.9163 13.1888 12.9581 13.1631C13.0401 13.1126 13.1551 13.0178 13.3449 12.8421C13.7242 12.4909 14.4139 11.8053 15.759 10.4682L15.7746 10.4527L15.7746 10.4526L18.5237 7.71427L19.279 7.77678C19.2791 7.77678 19.2791 7.77679 19.2792 7.77679C19.7084 7.81435 20.2147 7.84674 20.4107 7.84678C20.4108 7.84678 20.4109 7.84678 20.411 7.84678L20.7593 7.85214L20.7805 7.85247L20.7955 7.83745L22.4707 6.15684C23.2729 5.35736 23.6944 4.9345 23.9151 4.68746C24.0252 4.56425 24.0883 4.48163 24.1234 4.41574C24.1604 4.34645 24.1661 4.29623 24.1661 4.24202C24.1661 4.00065 24.0232 3.80716 23.7947 3.75305L23.7945 3.75298C23.7736 3.74817 23.7285 3.74218 23.6684 3.73548C23.6069 3.72863 23.5264 3.72071 23.4326 3.7123C23.245 3.69549 23.003 3.67667 22.7504 3.66054C22.7503 3.66053 22.7501 3.66052 22.75 3.66052M19.3178 3.0039L22.75 3.66052M22.75 3.66052L21.8806 3.59403M20.8659 3.55794C20.8847 3.86629 20.9103 4.07383 20.9591 4.21716C20.9837 4.28976 21.0149 4.34773 21.0554 4.39461C21.096 4.44157 21.1442 4.47527 21.2 4.50178C21.2248 4.51408 21.2639 4.52512 21.3087 4.53514C21.3553 4.54555 21.4128 4.55582 21.477 4.56533C21.6053 4.58434 21.7624 4.6006 21.9168 4.60874C22.0691 4.61943 22.2159 4.63278 22.3285 4.64544C22.3848 4.65177 22.4322 4.65789 22.4672 4.66336C22.4695 4.66372 22.4718 4.66408 22.474 4.66443C22.469 4.6714 22.4632 4.67922 22.4565 4.68793C22.4167 4.73995 22.3516 4.8157 22.2622 4.91379C22.0838 5.1096 21.8119 5.39088 21.4604 5.7424L20.3597 6.84305L19.545 6.78038L19.545 6.78037L18.7554 6.71924L18.6942 5.92965L18.6942 5.92962L18.6316 5.1149L19.7322 4.01426C20.0837 3.66273 20.365 3.39085 20.5608 3.21241C20.6589 3.12303 20.7347 3.05792 20.7867 3.01806C20.7954 3.01139 20.8032 3.00561 20.8102 3.00064C20.8105 3.00282 20.8109 3.00508 20.8113 3.0074C20.8167 3.04239 20.8228 3.08976 20.8292 3.14614C20.8418 3.25871 20.8552 3.40558 20.8659 3.55794ZM20.8659 3.55794C20.8659 3.55802 20.8659 3.55811 20.8659 3.55819L20.9158 3.55469L20.8659 3.55773C20.8659 3.5578 20.8659 3.55787 20.8659 3.55794Z" fill="#806BFF" stroke="#806BFF" stroke-width="0.1"/>
<path d="M11.5976 4.60264L11.5979 4.6026C11.9728 4.54554 12.5389 4.52953 13.0978 4.54836C13.6567 4.56719 14.2137 4.62102 14.5703 4.7054L14.5703 4.7054C15.0378 4.81621 15.5667 4.99568 16.0005 5.1785C16.2174 5.26992 16.4114 5.36255 16.5626 5.44832C16.6381 5.49119 16.7037 5.53274 16.7563 5.57196C16.8081 5.61053 16.8502 5.64895 16.8763 5.6863C17.0084 5.87253 16.9945 6.1062 16.8481 6.29366C16.8039 6.35104 16.7528 6.3949 16.6897 6.42147C16.6266 6.44802 16.5554 6.45562 16.4738 6.44691C16.3132 6.42978 16.1021 6.34814 15.8099 6.20606C15.5373 6.07783 15.1314 5.91232 14.9031 5.83797C12.4731 5.04929 9.67831 5.73105 7.73617 7.58244C6.12511 9.12415 5.38448 11.0213 5.53915 13.2294L5.53916 13.2295C5.64047 14.7225 6.18956 16.1089 7.15519 17.3039L7.15524 17.304C8.87734 19.4419 11.8804 20.434 14.5301 19.7463C16.8648 19.1386 18.7853 17.3043 19.5857 14.9085L19.5858 14.9083C19.847 14.1352 19.9483 13.4802 19.9483 12.6314C19.9483 11.5277 19.746 10.6652 19.2659 9.66223C19.1238 9.36989 19.0421 9.15876 19.025 8.99809C19.0163 8.91644 19.0239 8.84529 19.0504 8.78218C19.077 8.71901 19.1209 8.6679 19.1783 8.6237C19.3656 8.47743 19.5991 8.46346 19.7853 8.59538C19.8243 8.62229 19.8644 8.66653 19.9045 8.72105C19.9454 8.77647 19.9886 8.84574 20.0332 8.92563C20.1224 9.08547 20.2186 9.29076 20.313 9.5194C20.5018 9.97664 20.6853 10.5311 20.7934 11.0095L20.7935 11.0099C20.9021 11.5093 20.9182 11.7231 20.9182 12.7388C20.9182 13.7545 20.9021 13.9684 20.7935 14.4625L20.7934 14.4628C20.4262 16.0936 19.7289 17.364 18.5409 18.5467C17.3746 19.713 16.1582 20.3942 14.5703 20.7669C13.8549 20.9403 12.6194 20.994 11.8358 20.9022L11.8355 20.9021C9.78472 20.6485 8.06081 19.8169 6.75262 18.4492L6.75261 18.4492C3.80226 15.3638 3.80226 10.1139 6.75261 7.02848L6.75265 7.02844C7.37929 6.37479 8.00122 5.90966 8.78479 5.50436L8.7851 5.50421C9.72966 5.02383 10.5026 4.77526 11.5976 4.60264Z" fill="#806BFF" stroke="#806BFF" stroke-width="0.1"/>
<path d="M10.7495 16.6269L10.7496 16.6269C11.0839 16.7887 11.3399 16.8924 11.6161 16.9594C11.892 17.0263 12.1857 17.056 12.595 17.0722M10.7495 16.6269L16.6566 11.1478M10.7495 16.6269C9.64632 16.0889 8.88527 15.1752 8.53782 13.9537M10.7495 16.6269L8.53782 13.9537M12.595 17.0722C13.0297 17.0911 13.3726 17.0737 13.7043 17.0027C14.0361 16.9317 14.3543 16.8076 14.7403 16.616C14.9591 16.508 15.1086 16.4231 15.2619 16.3062C15.4146 16.1899 15.5697 16.0427 15.8006 15.8118C16.0315 15.5809 16.1786 15.4258 16.295 15.2732C16.4119 15.1198 16.4967 14.9703 16.6048 14.7515C16.9517 14.0522 17.0771 13.5291 17.0771 12.7694C17.0771 12.3271 17.0448 11.9632 16.9812 11.6857C16.9182 11.4105 16.8223 11.2105 16.687 11.1081M12.595 17.0722C12.595 17.0722 12.595 17.0722 12.5949 17.0722L12.5971 17.0222L12.5951 17.0722C12.5951 17.0722 12.5951 17.0722 12.595 17.0722ZM16.687 11.1081C16.6869 11.108 16.6868 11.1079 16.6867 11.1079L16.6566 11.1478M16.687 11.1081C16.6871 11.1082 16.6872 11.1082 16.6873 11.1083L16.6566 11.1478M16.687 11.1081C16.6008 11.0412 16.4724 11.0195 16.3534 11.0302C16.2344 11.0409 16.1108 11.0853 16.0349 11.1672M16.6566 11.1478C16.5116 11.035 16.2002 11.0618 16.0713 11.2015M16.0349 11.1672C16.0351 11.167 16.0352 11.1669 16.0353 11.1668L16.0713 11.2015M16.0349 11.1672C16.0348 11.1673 16.0347 11.1674 16.0346 11.1675L16.0713 11.2015M16.0349 11.1672C15.9565 11.2487 15.9158 11.3422 15.9099 11.4683C15.9042 11.5912 15.9315 11.7451 15.9854 11.9498L15.9854 11.95C16.0348 12.1344 16.0602 12.4206 16.0596 12.7183C16.0589 13.0156 16.0322 13.3187 15.9797 13.5363L15.9796 13.5368C15.8527 14.0866 15.5725 14.6101 15.1815 15.0169L15.1811 15.0173C14.7733 15.4516 14.399 15.6942 13.8158 15.8957L13.8155 15.8958C13.6259 15.9625 13.5035 15.9988 13.3555 16.0189C13.2064 16.0392 13.0297 16.0433 12.7313 16.0433C12.4384 16.0433 12.2615 16.0392 12.1135 16.0202C11.9667 16.0014 11.8469 15.9677 11.6685 15.9065C11.0848 15.6995 10.6783 15.4406 10.2815 15.0226C9.64725 14.346 9.37199 13.5701 9.40911 12.5566C9.41983 12.3074 9.43315 12.1468 9.46061 12.0036C9.48796 11.8609 9.52969 11.7339 9.59907 11.5525C9.99071 10.5577 10.8857 9.75829 11.9117 9.48855L11.9118 9.48854C12.1097 9.43645 12.4162 9.40965 12.724 9.40965C13.0318 9.40965 13.334 9.43648 13.5236 9.48841L13.5238 9.48847C13.7341 9.54509 13.8923 9.57249 14.0169 9.56528C14.1448 9.55789 14.2377 9.51397 14.3142 9.43155C14.3916 9.35079 14.4331 9.22843 14.4424 9.11122C14.4517 8.99439 14.4299 8.87013 14.3658 8.78682L14.3261 8.8173M16.0713 11.2015L11.7812 8.48919M14.3261 8.8173L14.366 8.78705C14.3075 8.71019 14.2087 8.64416 14.0845 8.58962C13.9592 8.53465 13.8036 8.48941 13.6264 8.45669L13.6263 8.45667C13.4013 8.41551 13.0538 8.39946 12.7076 8.40553C12.3615 8.41159 12.0114 8.43986 11.7812 8.48919M14.3261 8.8173C14.4335 8.95692 14.4121 9.25762 14.2778 9.39723L13.6173 8.50586C13.9664 8.5703 14.2241 8.68306 14.3261 8.8173ZM11.7812 8.48919C10.7879 8.70087 9.81027 9.30294 9.25452 10.0602M11.7812 8.48919C11.7812 8.48918 11.7812 8.48918 11.7812 8.48918L9.25452 10.0602M9.25452 10.0602C8.96607 10.4467 8.67896 11.0374 8.53783 11.5314C8.45007 11.8385 8.40703 12.2922 8.40703 12.7426C8.40703 13.1929 8.45007 13.6466 8.53782 13.9537M9.25452 10.0602L8.53783 13.9538C8.53783 13.9537 8.53782 13.9537 8.53782 13.9537" fill="#806BFF" stroke="#806BFF" stroke-width="0.1"/>
</svg>
