<svg width="45" height="45" viewBox="0 0 45 45" fill="none" xmlns="http://www.w3.org/2000/svg">
<path d="M0.705078 22.5V44.5H22.7051H44.7051V43.561V42.622H23.6441H2.58313V21.561V0.5H1.6441H0.705078V22.5Z" fill="#FF845C"/>
<path d="M7.26049 14.112C6.61659 14.6575 6.5361 14.7559 6.63447 14.89C6.68813 14.9794 8.64667 17.251 10.9808 19.9339C14.0036 23.4217 15.2646 24.8168 15.3629 24.7811C15.4434 24.7632 17.6792 23.7168 20.3353 22.4648C25.1288 20.2112 25.1646 20.1933 25.2987 20.3811C26.1751 21.6242 35.2971 34.7079 35.2792 34.7258C35.2792 34.7347 33.3385 34.4396 30.9776 34.0819C28.6255 33.7152 26.6849 33.429 26.6759 33.438C26.6223 33.5006 26.3898 35.2445 26.4255 35.2892C26.4881 35.3518 38.1231 37.1494 38.1678 37.1046C38.1946 37.0868 38.606 34.529 39.08 31.4168C39.5629 28.3136 39.9743 25.6575 40.0011 25.5323C40.0459 25.3087 40.0369 25.3087 39.2231 25.1925C38.767 25.1299 38.3377 25.0672 38.2572 25.0404C38.141 25.0046 38.0337 25.5949 37.515 28.9575C37.1841 31.1396 36.88 33.0266 36.8532 33.1607C36.7995 33.3754 36.2361 32.5973 31.4247 25.6575C28.4735 21.4006 26.0141 17.8591 25.9694 17.7876C25.8889 17.6803 24.9857 18.0827 20.8361 20.0323C18.0637 21.3469 15.7833 22.4112 15.7743 22.4112C15.7564 22.4112 14.0304 20.4168 11.9288 17.9843C9.8361 15.5518 8.0922 13.5396 8.05643 13.5217C8.02065 13.5038 7.66293 13.7632 7.26049 14.112Z" fill="#FF845C"/>
</svg>
