<svg width="25" height="25" viewBox="0 0 25 25" fill="none" xmlns="http://www.w3.org/2000/svg">
<path d="M12.2231 0.223058C12.1747 0.261766 11.9279 0.702075 11.6715 1.20529L11.207 2.11977L10.1811 2.26493C9.01976 2.42944 8.9375 2.46815 8.9375 2.80201C8.9375 2.97136 8.98589 3.02942 9.69721 3.72617L10.4618 4.46647L10.2876 5.45838C10.1956 6.00514 10.1327 6.50835 10.1472 6.57609C10.1617 6.63899 10.2247 6.72608 10.2779 6.76479C10.4811 6.90511 10.665 6.85188 11.5795 6.37287L12.4651 5.90837L13.3651 6.37287C14.3522 6.88092 14.5216 6.92446 14.7055 6.72608C14.8458 6.57609 14.841 6.49383 14.6571 5.39548L14.4974 4.4568L15.262 3.72617C15.983 3.02942 16.0217 2.98104 16.0217 2.80685C16.0217 2.45847 15.9346 2.41976 14.7974 2.26493C14.2458 2.18751 13.7764 2.1101 13.7522 2.09558C13.728 2.08106 13.5151 1.67463 13.2732 1.19077C13.0264 0.702075 12.7844 0.281121 12.7215 0.237574C12.586 0.140802 12.3441 0.135964 12.2231 0.223058ZM12.799 2.13429C12.9683 2.47299 13.1425 2.78266 13.1861 2.81653C13.2248 2.8504 13.5925 2.92781 13.9942 2.98588L14.7248 3.08748L14.1877 3.59553C13.5635 4.18584 13.5829 4.12294 13.7474 5.01807C13.8006 5.30838 13.8442 5.57934 13.8442 5.61321C13.8442 5.65676 13.6361 5.56967 13.2441 5.36645C12.8764 5.16807 12.5909 5.0471 12.4941 5.0471C12.4022 5.0471 12.0876 5.1729 11.715 5.36161C11.1392 5.64708 11.086 5.66644 11.1102 5.56967C11.1586 5.32774 11.3279 4.32132 11.3279 4.2439C11.3279 4.20035 11.0908 3.91972 10.7956 3.62456L10.2634 3.08265L10.9698 2.98104C11.5166 2.89878 11.7005 2.85523 11.7828 2.77782C11.836 2.72459 12.015 2.41976 12.1747 2.10042C12.3344 1.77624 12.4699 1.51495 12.4747 1.51495C12.4844 1.51495 12.6296 1.79559 12.799 2.13429Z" fill="white"/>
<path d="M3.80684 4.37545C3.74394 4.40448 3.53102 4.77705 3.24069 5.35284L2.78099 6.28184L1.73095 6.43184C0.545416 6.60119 0.492188 6.62538 0.492188 6.95924C0.492188 7.15762 0.511543 7.18181 1.24706 7.90276L2.00193 8.63822L1.82773 9.64464C1.64385 10.7043 1.64385 10.8446 1.84224 10.9462C2.05032 11.0623 2.23904 10.9994 3.1294 10.5398L4.01976 10.0753L4.91012 10.5398C5.86822 11.0333 6.06662 11.0865 6.25049 10.9027C6.38115 10.772 6.37631 10.6462 6.19243 9.55755L6.03274 8.6237L6.79729 7.88824C7.4699 7.23988 7.557 7.13343 7.557 6.99795C7.557 6.78021 7.51345 6.69796 7.36828 6.62538C7.30054 6.58667 6.79729 6.49958 6.25533 6.42216L5.27303 6.28184L4.81818 5.38187C4.56655 4.87382 4.31977 4.44319 4.25686 4.39964C4.13589 4.31255 3.95201 4.30287 3.80684 4.37545ZM4.33428 6.29636C4.50365 6.63506 4.67785 6.94472 4.7214 6.97859C4.76011 7.01246 5.11335 7.08988 5.50046 7.14311C5.88758 7.20117 6.20211 7.25923 6.20211 7.27375C6.20211 7.2931 5.97468 7.53019 5.69402 7.80115C5.10851 8.3721 5.12787 8.30436 5.28271 9.14143C5.42304 9.93012 5.47143 9.89625 4.77946 9.52851C4.39719 9.3253 4.11653 9.20917 4.01976 9.20917C3.92298 9.20917 3.64232 9.3253 3.26005 9.52851C2.931 9.7027 2.65518 9.83818 2.6455 9.82851C2.64067 9.81883 2.68422 9.52851 2.74712 9.18498C2.81003 8.8366 2.85842 8.50274 2.86326 8.43984C2.86326 8.35274 2.71809 8.17856 2.33097 7.78179L1.79869 7.24471L2.46163 7.15278C2.82938 7.1044 3.18262 7.0415 3.25037 7.00763C3.33263 6.96408 3.46328 6.75602 3.68587 6.31087C3.85523 5.9625 4.00524 5.67702 4.01008 5.67702C4.01976 5.67702 4.16492 5.95766 4.33428 6.29636Z" fill="white"/>
<path d="M20.7298 4.39807C20.6669 4.44161 20.4201 4.87225 20.1685 5.37546L19.7185 6.27543L18.6588 6.43026C17.4829 6.59961 17.4297 6.62381 17.4297 6.97702C17.4297 7.14153 17.4781 7.19959 18.1894 7.88667L18.9539 8.62213L18.7943 9.55597C18.6104 10.6446 18.6055 10.7705 18.7362 10.9011C18.9201 11.085 19.1185 11.0317 20.0814 10.5382L20.9718 10.0737L21.8621 10.5382C22.9509 11.0995 23.1638 11.1333 23.3041 10.7366C23.3235 10.6834 23.2606 10.1898 23.1638 9.63823L22.9848 8.64148L23.7396 7.90118C24.48 7.1754 24.4945 7.15605 24.4945 6.95283C24.4945 6.61897 24.4219 6.58994 23.2364 6.42542L22.2105 6.28027L21.7605 5.36094C21.4073 4.63032 21.2863 4.4271 21.1847 4.37871C21.0105 4.3013 20.8605 4.30613 20.7298 4.39807ZM21.7702 7.02057C21.8428 7.0496 22.196 7.1125 22.5493 7.15605L23.188 7.24314L22.6557 7.78022C22.3509 8.08989 22.1234 8.36085 22.1234 8.41407C22.1234 8.46246 22.1767 8.806 22.2396 9.16889C22.2976 9.53662 22.3412 9.83661 22.3363 9.83661C22.3267 9.83661 22.0508 9.69629 21.7218 9.5221C21.354 9.32856 21.0637 9.2076 20.9718 9.2076C20.875 9.2076 20.5895 9.32856 20.2121 9.52694C19.5153 9.89467 19.5636 9.92854 19.704 9.13986C19.8588 8.29795 19.8782 8.36569 19.2927 7.79957C19.012 7.52862 18.7846 7.29153 18.7846 7.27701C18.7846 7.25766 19.0991 7.19959 19.4862 7.14637C19.8685 7.08831 20.2217 7.01573 20.2653 6.97702C20.3088 6.94315 20.483 6.62864 20.6572 6.28511L20.9766 5.65125L21.3057 6.3093C21.5718 6.84154 21.6589 6.97702 21.7702 7.02057Z" fill="white"/>
<path d="M11.9353 12.4557C11.7224 12.5186 11.4514 12.8331 11.4127 13.0653C11.3885 13.2008 11.4224 13.4234 11.5337 13.8685L11.6837 14.483L11.5531 15.0201C11.4466 15.4459 11.3982 15.562 11.316 15.6007C11.2627 15.6201 10.7837 15.7169 10.2562 15.8136L9.29813 15.983L9.10457 15.8282L8.90618 15.6685H6.88835H4.86568L4.69632 15.7991C4.35276 16.0604 4.36728 15.8959 4.36728 19.5151C4.36728 23.1344 4.35276 22.9699 4.69632 23.2312L4.86568 23.3618L6.82544 23.3763C8.6981 23.3908 8.79004 23.386 8.96908 23.2941L9.15296 23.1973L10.9821 23.6763L12.8112 24.1602H15.8403H18.8647L19.1163 24.0344C19.4018 23.894 19.634 23.6473 19.7647 23.3473C19.8421 23.1731 19.8566 23.0618 19.8373 22.7376C19.8276 22.5247 19.7986 22.2973 19.7792 22.2441C19.755 22.1618 19.7695 22.1328 19.8615 22.1134C20.055 22.0651 20.3744 21.7506 20.5051 21.4748C20.6212 21.2425 20.6357 21.1651 20.6212 20.807C20.6018 20.449 20.5825 20.3716 20.447 20.1538L20.2921 19.9022L20.447 19.6506C20.5922 19.4184 20.6018 19.3797 20.6018 18.9345C20.6018 18.4894 20.5922 18.4507 20.447 18.2184L20.2921 17.9668L20.447 17.7152C20.5825 17.4975 20.6018 17.4152 20.6163 17.0717C20.6309 16.7523 20.6163 16.6265 20.5389 16.4572C20.4083 16.1572 20.176 15.9104 19.8905 15.7701L19.6389 15.6443H17.2872C15.521 15.6443 14.9209 15.6298 14.8774 15.5862C14.8387 15.5475 14.8193 15.3153 14.8193 14.8701C14.8193 14.1637 14.7661 13.8879 14.5629 13.4863C14.3016 12.9734 13.7403 12.567 13.1305 12.4508C12.816 12.3928 12.1434 12.3928 11.9353 12.4557ZM13.1209 13.3024C13.3047 13.3557 13.4451 13.4427 13.6096 13.6073C13.9338 13.9314 13.9967 14.1589 14.0354 15.1266C14.0693 15.8862 14.079 15.9298 14.1999 16.0894C14.4564 16.4233 14.4129 16.4185 16.9097 16.4185C18.1388 16.4185 19.2373 16.4427 19.3437 16.4668C19.7647 16.5636 19.9437 17.0184 19.6776 17.3329C19.5082 17.5362 19.305 17.5797 18.5598 17.5797H17.9162V17.9668V18.3539H18.5356C19.2905 18.3587 19.4986 18.3974 19.6728 18.5958C19.9389 18.891 19.7792 19.3506 19.3776 19.4668C19.2808 19.4909 18.9082 19.5151 18.5598 19.5151H17.9162V19.9022V20.2893H18.5356C19.2905 20.2941 19.4986 20.3329 19.6728 20.5312C19.9389 20.8264 19.7792 21.2861 19.3776 21.4022C19.2808 21.4264 18.9082 21.4506 18.5598 21.4506H17.9162V21.8376V22.2247H18.1485C18.5163 22.2296 18.7485 22.3021 18.8985 22.4667C19.1937 22.7957 18.9711 23.2892 18.4921 23.3618C18.3759 23.3763 17.0839 23.386 15.6177 23.3763L12.9563 23.357L11.2047 22.8876C10.2417 22.6312 9.4433 22.4183 9.42878 22.4183C9.39975 22.4183 9.38523 16.8055 9.41426 16.8055C9.4191 16.8055 9.9417 16.7088 10.5756 16.5926C11.766 16.3749 11.8724 16.341 12.0757 16.0749C12.1724 15.9394 12.4918 14.7443 12.4966 14.4976C12.4966 14.4153 12.4434 14.1201 12.3757 13.8443C12.3079 13.5686 12.2547 13.3169 12.2547 13.2831C12.2547 13.196 12.8063 13.2057 13.1209 13.3024ZM8.56745 16.4765C8.64971 16.5588 8.64971 22.4715 8.56745 22.5538C8.48519 22.636 5.28183 22.636 5.19957 22.5538C5.11731 22.4715 5.11731 16.5588 5.19957 16.4765C5.28183 16.3943 8.48519 16.3943 8.56745 16.4765Z" fill="white"/>
<path d="M6.29688 17.9647V18.3518H6.87754H7.45821V17.9647V17.5776H6.87754H6.29688V17.9647Z" fill="white"/>
</svg>
