<svg width="45" height="45" viewBox="0 0 45 45" fill="none" xmlns="http://www.w3.org/2000/svg">
<path d="M20.8146 0.801086L20.8135 0.801189C15.5964 1.31342 10.9051 3.50367 7.3041 7.10465C3.97776 10.431 1.86358 14.6577 1.13318 19.4291C0.897345 20.9763 0.897303 24.0184 1.12365 25.5376C2.24301 32.8313 6.59405 38.8387 13.0764 42.0325L13.0765 42.0325C15.15 43.055 17.3299 43.7194 20.0119 44.1283L20.0126 44.1285C20.5756 44.2161 21.6747 44.2573 22.8113 44.2489C23.9466 44.2406 25.0886 44.183 25.7354 44.0806L25.737 44.0804C33.7597 42.8665 40.2699 37.6438 43.0945 30.1754C44.0423 27.6448 44.4496 25.3833 44.4496 22.5071C44.4496 19.6778 44.0419 17.3398 43.1138 14.8776L43.3478 14.7894L43.1138 14.8776C40.2986 7.40821 33.7212 2.11002 25.835 0.943687C24.6339 0.773487 21.9128 0.688442 20.8146 0.801086ZM25.5903 3.61263L25.5916 3.61282C33.8214 4.86624 40.3379 11.4235 41.6199 19.7174L41.6199 19.7177C41.8249 21.0546 41.8443 23.715 41.6588 25.034C40.4834 33.5336 33.7333 40.2839 25.2337 41.4593C23.9147 41.6449 21.2541 41.6254 19.9171 41.4205L19.9168 41.4204C11.5057 40.1189 4.92005 33.4465 3.75429 25.0343C3.56873 23.7154 3.58818 21.0547 3.79313 19.7177L3.7932 19.7172C4.813 13.1419 9.11589 7.57614 15.2157 4.94388L15.2159 4.94382C17.0448 4.15581 18.9969 3.67112 21.2899 3.42923C21.6712 3.38855 22.5049 3.39943 23.349 3.43644C24.1977 3.47366 25.088 3.53877 25.5903 3.61263Z" fill="#806BFF" stroke="white" stroke-width="0.5"/>
<path d="M17.5006 13.575L17.499 13.5771C17.4762 13.6075 17.4692 13.6185 17.4622 13.6348C17.4541 13.6536 17.4419 13.6905 17.4296 13.7693C17.4042 13.9319 17.3854 14.2237 17.3728 14.7976C17.3477 15.9385 17.3477 18.1372 17.3477 22.5062C17.3477 26.8753 17.3477 29.0739 17.3728 30.2148C17.3854 30.7888 17.4042 31.0805 17.4296 31.2431C17.4419 31.3219 17.4541 31.3588 17.4622 31.3776C17.4692 31.3939 17.4762 31.4049 17.499 31.4353L17.499 31.4352L17.5024 31.44C17.5891 31.5613 17.784 31.714 18.0245 31.8394C18.2657 31.965 18.4989 32.0352 18.6412 32.0352C18.8255 32.0352 19.0551 31.9606 19.2731 31.8224C19.4899 31.6849 19.671 31.4996 19.7712 31.307L19.7712 31.307L19.7725 31.3044L19.9635 30.9474V22.5062V14.065L19.7725 13.708L19.7725 13.708L19.7712 13.7054C19.671 13.5128 19.4899 13.3275 19.2731 13.1901C19.0551 13.0518 18.8255 12.9773 18.6412 12.9773C18.5904 12.9773 18.4926 12.9935 18.3683 13.0296C18.25 13.064 18.127 13.1108 18.0281 13.1599C17.9291 13.2139 17.8158 13.2907 17.7147 13.3711C17.609 13.4552 17.5336 13.5299 17.5006 13.575L17.5006 13.575Z" fill="#806BFF" stroke="white" stroke-width="0.5"/>
<path d="M25.6447 13.6992L25.6448 13.6992L25.6413 13.7059L25.4492 14.0733V22.5158V30.9474L25.6402 31.3044L25.6402 31.3044L25.6415 31.307C25.7417 31.4996 25.9228 31.6849 26.1396 31.8224C26.3576 31.9606 26.5872 32.0352 26.7715 32.0352C26.9138 32.0352 27.147 31.965 27.3882 31.8394C27.6288 31.714 27.8237 31.5613 27.9103 31.44L27.9102 31.4399L27.9137 31.4353C27.9365 31.4049 27.9435 31.3939 27.9505 31.3776C27.9586 31.3588 27.9708 31.3219 27.9831 31.2431C28.0085 31.0805 28.0273 30.7888 28.04 30.2148C28.065 29.0739 28.0651 26.8753 28.0651 22.5062C28.0651 18.1372 28.065 15.9385 28.04 14.7976C28.0273 14.2237 28.0085 13.9319 27.9831 13.7693C27.9708 13.6905 27.9586 13.6536 27.9505 13.6348C27.9435 13.6185 27.9365 13.6075 27.9137 13.5771L27.9137 13.5772L27.9103 13.5724C27.8236 13.4511 27.6286 13.2983 27.389 13.1728C27.1483 13.0468 26.9179 12.9773 26.7811 12.9773C26.736 12.9773 26.6413 12.993 26.5172 13.0295C26.3988 13.0642 26.2746 13.1116 26.1752 13.1611C26.0335 13.2342 25.9354 13.3036 25.8576 13.3824C25.7798 13.4611 25.7128 13.5587 25.6447 13.6992Z" fill="#806BFF" stroke="white" stroke-width="0.5"/>
</svg>
