<svg width="45" height="45" viewBox="0 0 45 45" fill="none" xmlns="http://www.w3.org/2000/svg">
<path d="M0.705078 22.5V44.5H22.7051H44.7051V43.561V42.622H23.6441H2.58313V21.561V0.5H1.6441H0.705078V22.5Z" fill="#806BFF"/>
<path d="M32.1849 14.1106C29.0101 14.6025 26.4076 15.0228 26.3897 15.0318C26.3808 15.0407 26.4345 15.47 26.5239 15.9887L26.6849 16.9277L30.9328 16.2748C33.267 15.9171 35.1808 15.6309 35.1987 15.6399C35.2076 15.6578 33.258 18.4748 30.8702 21.9179C28.4914 25.361 26.2288 28.6253 25.8532 29.1708L25.1645 30.1545L20.2637 27.7935C17.5629 26.4968 15.3093 25.4594 15.2377 25.4773C15.032 25.5578 6.49137 35.4757 6.57185 35.5472C6.61657 35.583 6.93852 35.8602 7.2873 36.1643C7.63608 36.4683 7.95803 36.7188 8.00275 36.7188C8.04746 36.7188 9.80031 34.7334 11.884 32.3009C13.9767 29.8683 15.7296 27.874 15.7743 27.874C15.828 27.8651 18.0906 28.9114 20.8093 30.1992C23.528 31.4781 25.8084 32.5155 25.8621 32.4887C25.9247 32.4618 28.4019 28.9383 31.371 24.6545C34.3491 20.3708 36.7906 16.874 36.7995 16.8919C36.8084 16.9009 37.1125 18.7789 37.4613 21.0683C37.8101 23.3578 38.1141 25.2448 38.141 25.2627C38.1857 25.3074 39.8044 25.0838 39.9296 25.0122C40.0727 24.9228 38.2483 13.2521 38.0784 13.2253C38.0068 13.2163 35.3597 13.6187 32.1849 14.1106Z" fill="#806BFF"/>
</svg>
