<svg width="21" height="17" viewBox="0 0 21 17" fill="none" xmlns="http://www.w3.org/2000/svg">
<path d="M15.0074 6.9653H20.2519C20.3153 6.96532 20.3774 6.9834 20.4308 7.01741C20.4843 7.05142 20.5269 7.09996 20.5538 7.15734C20.5807 7.21472 20.5906 7.27857 20.5825 7.34141C20.5744 7.40425 20.5486 7.46348 20.508 7.51217L17.8857 10.66C17.8545 10.6975 17.8153 10.7277 17.771 10.7484C17.7268 10.7691 17.6785 10.7799 17.6297 10.7799C17.5808 10.7799 17.5325 10.7691 17.4883 10.7484C17.444 10.7277 17.4049 10.6975 17.3736 10.66L14.7513 7.51217C14.7107 7.46348 14.6849 7.40425 14.6768 7.34141C14.6687 7.27857 14.6786 7.21472 14.7055 7.15734C14.7324 7.09996 14.775 7.05142 14.8285 7.01741C14.8819 6.9834 14.944 6.96532 15.0074 6.9653ZM0.335284 9.63295H5.57988C5.64324 9.63292 5.70529 9.61485 5.75875 9.58084C5.81221 9.54683 5.85487 9.49829 5.88174 9.44091C5.90861 9.38353 5.91858 9.31968 5.91047 9.25684C5.90237 9.194 5.87653 9.13476 5.83598 9.08608L3.21368 5.93825C3.18238 5.90073 3.14322 5.87054 3.09897 5.84982C3.05471 5.8291 3.00645 5.81836 2.95758 5.81836C2.90872 5.81836 2.86045 5.8291 2.8162 5.84982C2.77194 5.87054 2.73278 5.90073 2.70149 5.93825L0.0791901 9.08608C0.0386388 9.13476 0.0127977 9.194 0.00469271 9.25684C-0.00341229 9.31968 0.00655433 9.38353 0.0334255 9.44091C0.0602967 9.49829 0.10296 9.54683 0.15642 9.58084C0.20988 9.61485 0.271923 9.63292 0.335284 9.63295Z" fill="#260B6A"/>
<path fill-rule="evenodd" clip-rule="evenodd" d="M10.2936 1.62971C8.22351 1.62971 6.37216 2.57272 5.14905 4.0546C5.09443 4.12539 5.02614 4.18447 4.94823 4.22834C4.87032 4.27221 4.78438 4.29996 4.69553 4.30995C4.60668 4.31994 4.51673 4.31196 4.43102 4.28649C4.34532 4.26102 4.26561 4.21857 4.19664 4.16168C4.12767 4.10478 4.07084 4.0346 4.02953 3.9553C3.98823 3.876 3.96329 3.78921 3.95621 3.70008C3.94912 3.61095 3.96003 3.52131 3.98828 3.43648C4.01653 3.35165 4.06155 3.27337 4.12067 3.20629C5.09728 2.02389 6.39296 1.14688 7.85359 0.679564C9.31423 0.212252 10.8784 0.174304 12.3599 0.570235C13.8415 0.966166 15.1782 1.77931 16.211 2.91296C17.2438 4.04661 17.9293 5.45305 18.1858 6.965H16.8293C16.5219 5.45863 15.7034 4.10476 14.5124 3.13252C13.3214 2.16028 11.831 1.62939 10.2936 1.62971ZM3.75787 9.63265C4.01037 10.8659 4.60665 12.0026 5.4778 12.9114C6.34896 13.8201 7.45944 14.4639 8.68096 14.7683C9.90248 15.0726 11.1852 15.0252 12.3809 14.6314C13.5766 14.2377 14.6365 13.5137 15.4382 12.5431C15.4928 12.4723 15.5611 12.4132 15.639 12.3693C15.7169 12.3254 15.8028 12.2977 15.8917 12.2877C15.9805 12.2777 16.0705 12.2857 16.1562 12.3112C16.2419 12.3366 16.3216 12.3791 16.3906 12.436C16.4595 12.4929 16.5164 12.5631 16.5577 12.6424C16.599 12.7217 16.6239 12.8084 16.631 12.8976C16.6381 12.9867 16.6272 13.0763 16.5989 13.1612C16.5707 13.246 16.5257 13.3243 16.4665 13.3914C15.4899 14.5738 14.1943 15.4508 12.7336 15.9181C11.273 16.3854 9.70886 16.4234 8.22728 16.0274C6.7457 15.6315 5.40901 14.8183 4.37621 13.6847C3.34341 12.551 2.65795 11.1446 2.40137 9.63265H3.75787Z" fill="#260B6A"/>
</svg>
