<svg width="22" height="21" viewBox="0 0 22 21" fill="none" xmlns="http://www.w3.org/2000/svg">
<path d="M19.0039 5.52734H3.00391C1.89934 5.52734 1.00391 6.42277 1.00391 7.52734V17.5273C1.00391 18.6319 1.89934 19.5273 3.00391 19.5273H19.0039C20.1085 19.5273 21.0039 18.6319 21.0039 17.5273V7.52734C21.0039 6.42277 20.1085 5.52734 19.0039 5.52734Z" stroke="white" stroke-width="1.5" stroke-linecap="round" stroke-linejoin="round"/>
<path d="M15.0039 19.5273V3.52734C15.0039 2.99691 14.7932 2.4882 14.4181 2.11313C14.043 1.73806 13.5343 1.52734 13.0039 1.52734H9.00391C8.47347 1.52734 7.96477 1.73806 7.58969 2.11313C7.21462 2.4882 7.00391 2.99691 7.00391 3.52734V19.5273" stroke="white" stroke-width="1.5" stroke-linecap="round" stroke-linejoin="round"/>
</svg>
