<svg width="18" height="18" viewBox="0 0 18 18" fill="none" xmlns="http://www.w3.org/2000/svg">
<path d="M15.4 1H2.6C1.71634 1 1 1.71634 1 2.6V5.8C1 6.68366 1.71634 7.4 2.6 7.4H15.4C16.2837 7.4 17 6.68366 17 5.8V2.6C17 1.71634 16.2837 1 15.4 1Z" stroke="#9F9F9F" stroke-width="1.5" stroke-linecap="round" stroke-linejoin="round"/>
<path d="M15.4 10.6001H2.6C1.71634 10.6001 1 11.3164 1 12.2001V15.4001C1 16.2838 1.71634 17.0001 2.6 17.0001H15.4C16.2837 17.0001 17 16.2838 17 15.4001V12.2001C17 11.3164 16.2837 10.6001 15.4 10.6001Z" stroke="#9F9F9F" stroke-width="1.5" stroke-linecap="round" stroke-linejoin="round"/>
<path d="M4.2002 4.2002H4.2072" stroke="#9F9F9F" stroke-width="1.5" stroke-linecap="round" stroke-linejoin="round"/>
<path d="M4.2002 13.7998H4.2072" stroke="#9F9F9F" stroke-width="1.5" stroke-linecap="round" stroke-linejoin="round"/>
</svg>
