<svg width="23" height="22" viewBox="0 0 23 22" fill="none" xmlns="http://www.w3.org/2000/svg">
<path d="M10.9382 0.086916C9.95 0.293156 9.12074 0.727121 8.40749 1.406C7.29465 2.46728 6.73608 3.84651 6.79193 5.39332C6.85209 6.9788 7.59112 8.3924 8.86294 9.35916C9.51173 9.85328 10.5644 10.2701 11.3421 10.3431L11.6343 10.3689V11.254V12.1434L10.7621 12.659L9.88984 13.1789L9.63204 12.9426C8.99613 12.3496 8.06805 11.8856 7.13567 11.7009C6.63725 11.602 5.64472 11.6063 5.16779 11.7051C3.65965 12.0231 2.37494 12.934 1.67029 14.1843C1.51561 14.4636 1.50701 14.5581 1.62732 14.7128C1.69607 14.7988 1.75193 14.8245 1.88512 14.8245C2.07847 14.8245 2.10855 14.7988 2.39643 14.3519C2.83469 13.6687 3.46201 13.1188 4.22252 12.7578C5.68769 12.0575 7.28605 12.1692 8.66959 13.0672C9.03051 13.3035 9.67501 13.948 9.91133 14.3089C10.4957 15.2069 10.7621 16.2639 10.6504 17.2479C10.5816 17.858 10.4699 18.2404 10.1949 18.799C9.36994 20.4833 7.65557 21.4543 5.76932 21.3039C3.89167 21.1536 2.31479 19.8173 1.782 17.9267C1.70037 17.6346 1.69177 17.4885 1.68748 16.6592C1.68748 15.7225 1.68748 15.7182 1.58436 15.6366C1.34374 15.439 1.08594 15.6065 1.02149 16.0061C0.948446 16.4487 0.969929 17.3553 1.06016 17.8193C1.46834 19.8989 3.0796 21.5102 5.15919 21.9184C5.6748 22.0172 6.56851 22.0258 7.08411 21.9355C9.21097 21.5617 10.921 19.8474 11.2949 17.7033C11.3765 17.2393 11.3679 16.3026 11.2777 15.8429C11.1445 15.1683 10.8609 14.4722 10.5129 13.9566L10.3453 13.716L11.1617 13.2348L11.978 12.7535L12.7944 13.2348L13.6108 13.716L13.4432 13.9566C13.0952 14.4722 12.8116 15.1683 12.6784 15.8429C12.5882 16.3026 12.5796 17.2393 12.6612 17.7033C12.9448 19.3103 13.9631 20.6938 15.4154 21.4371C16.2103 21.8453 16.872 22 17.8086 22C19.2222 22 20.4898 21.4801 21.4737 20.4962C22.4619 19.5079 22.9775 18.249 22.9775 16.8268C22.9775 15.9288 22.8229 15.2327 22.4576 14.5023C22.1955 13.9824 22.1053 13.8793 21.8991 13.8793C21.6971 13.8793 21.5596 13.9953 21.5596 14.1671C21.5596 14.2359 21.6671 14.498 21.796 14.7601C21.9249 15.0179 22.0838 15.4046 22.1483 15.6194C22.2557 15.9803 22.2643 16.0577 22.2643 16.801C22.2643 17.4799 22.2514 17.6432 22.1741 17.9267C21.9506 18.7259 21.5424 19.4349 20.9753 19.9977C18.7883 22.1848 15.1189 21.5746 13.7612 18.799C13.4862 18.2404 13.3745 17.858 13.3057 17.2479C13.0866 15.3187 14.2725 13.3723 16.1071 12.6375C17.0524 12.2594 18.0192 12.1993 18.9859 12.4657C19.3941 12.5731 20.1761 12.9598 20.5069 13.2133C20.7003 13.3594 20.7991 13.4066 20.9194 13.4066C21.1171 13.4066 21.2331 13.2863 21.2331 13.0758C21.2331 12.9426 21.203 12.891 21.0311 12.7406C20.9194 12.6418 20.6702 12.47 20.4812 12.3539C19.1449 11.5591 17.5208 11.3958 16.0685 11.9114C15.4154 12.1391 14.7795 12.5129 14.324 12.9426L14.0662 13.1789L13.194 12.659L12.3218 12.1434V11.254V10.3689L12.6139 10.3431C13.3916 10.2701 14.4443 9.85328 15.0931 9.35916C16.2103 8.50841 16.9536 7.2366 17.1383 5.85736C17.1942 5.43199 17.1684 4.52969 17.0911 4.18165C17.0137 3.83362 16.7731 3.68754 16.5411 3.85081C16.3864 3.95823 16.3649 4.07424 16.4294 4.42657C16.8118 6.57491 15.4884 8.76622 13.3873 9.46657C12.8846 9.63415 12.571 9.68141 11.978 9.68571C10.7535 9.68571 9.66642 9.23455 8.80708 8.37092C8.41178 7.96703 8.20125 7.68345 7.96493 7.22371C7.59541 6.49757 7.43644 5.78002 7.4794 4.96795C7.54385 3.63597 8.20125 2.39423 9.27112 1.58216C9.63634 1.30288 10.4054 0.929066 10.848 0.817352C11.8964 0.550957 12.9835 0.671265 13.976 1.16109C14.7021 1.51771 15.2951 2.03761 15.7548 2.72078C15.8966 2.93132 16.004 3.05163 16.0771 3.06881C16.322 3.12897 16.5626 2.90554 16.511 2.66492C16.4681 2.47587 16.0642 1.9259 15.6818 1.5349C14.9213 0.765791 13.9373 0.245893 12.8846 0.0654316C12.3776 -0.0247974 11.4109 -0.0119076 10.9382 0.086916Z" fill="white"/>
<path d="M11.4241 1.44604C10.5218 1.68665 9.91595 2.49443 9.91595 3.45689C9.91595 4.03264 10.0792 4.45372 10.4659 4.8662C10.5776 4.98651 10.6335 5.07244 10.5948 5.07244C10.5046 5.07244 9.8558 5.39469 9.58511 5.57515C9.06521 5.91889 8.54102 6.49035 8.54102 6.70948C8.54102 6.86416 8.66562 7.12196 8.89764 7.43562C9.39176 8.11449 10.0062 8.55275 10.8612 8.83633C11.205 8.94805 11.2737 8.95664 11.9569 8.96094C12.7818 8.96094 12.9752 8.92227 13.6025 8.63439C14.1826 8.368 14.6552 7.98559 15.0247 7.48288C15.2868 7.12625 15.4157 6.87275 15.4157 6.70948C15.4157 6.49035 14.8829 5.91459 14.363 5.56656C14.0966 5.39469 13.4521 5.07244 13.3619 5.07244C13.3232 5.07244 13.3791 4.98651 13.4865 4.8662C13.8775 4.45372 14.0408 4.03264 14.0408 3.46548C14.0408 2.26671 13.1428 1.3687 11.9569 1.38159C11.7936 1.38159 11.553 1.41167 11.4241 1.44604ZM12.5627 2.19366C12.8592 2.33975 13.1557 2.6577 13.2674 2.95417C13.3963 3.29361 13.3748 3.75336 13.2158 4.06272C12.9365 4.6084 12.3049 4.93065 11.7506 4.81464C11.0975 4.68144 10.655 4.18732 10.612 3.54282C10.569 2.89402 10.9515 2.32256 11.5659 2.12492C11.828 2.03898 12.3049 2.07336 12.5627 2.19366ZM12.8463 5.6482C13.4779 5.80717 14.088 6.1552 14.522 6.60636L14.681 6.76963L14.4618 7.0661C13.233 8.70743 10.7237 8.70743 9.49488 7.0661L9.27575 6.76963L9.43473 6.60636C9.86439 6.1638 10.5261 5.78569 11.1448 5.6353C11.6475 5.5107 12.3264 5.515 12.8463 5.6482Z" fill="white"/>
<path d="M5.53272 13.0972C4.78939 13.3421 4.24371 13.978 4.11481 14.7471C4.01169 15.3486 4.20504 16.0232 4.60463 16.4486C4.81517 16.672 4.83666 16.715 4.74213 16.715C4.60463 16.715 3.80975 17.1575 3.49179 17.4153C3.15665 17.686 2.85159 18.0126 2.74417 18.2102C2.66683 18.3563 2.71839 18.5196 2.9633 18.8934C3.41445 19.5937 4.12341 20.148 4.90111 20.4144C6.03973 20.8054 7.34162 20.6335 8.32556 19.9676C8.90991 19.568 9.61457 18.6743 9.61457 18.3305C9.61457 18.2661 9.52863 18.12 9.39544 17.961C8.99584 17.4798 8.32986 16.9985 7.77988 16.7923C7.64239 16.7407 7.52638 16.6978 7.52208 16.6935C7.51349 16.6892 7.59513 16.5947 7.69825 16.4786C8.63492 15.4603 8.30838 13.8147 7.05804 13.2132C6.73149 13.0542 6.68853 13.0456 6.24167 13.0327C5.87216 13.0241 5.71748 13.037 5.53272 13.0972ZM6.61119 13.7717C6.92055 13.8792 7.20413 14.1241 7.376 14.4377C7.51779 14.6912 7.53068 14.7471 7.53068 15.0607C7.53068 15.4775 7.40178 15.7955 7.12249 16.0619C6.83032 16.3497 6.60689 16.4357 6.15574 16.4357C5.8206 16.4357 5.73896 16.4185 5.5542 16.3197C5.28781 16.1822 4.99993 15.8771 4.87962 15.6064C4.73783 15.2928 4.74643 14.8287 4.90111 14.5151C5.0429 14.2229 5.39522 13.8877 5.66592 13.7846C5.90653 13.6944 6.36198 13.6858 6.61119 13.7717ZM7.03656 17.2778C7.6295 17.4282 8.30408 17.8149 8.70797 18.236L8.85405 18.3864L8.71656 18.6012C8.5318 18.8848 8.06346 19.3188 7.71973 19.5207C7.56935 19.6109 7.29006 19.7355 7.10101 19.7957C6.79594 19.8988 6.69282 19.9117 6.15574 19.9117C5.60576 19.9117 5.52413 19.9031 5.21047 19.7914C4.57456 19.5723 4.06755 19.2113 3.68944 18.7086C3.4832 18.4379 3.47461 18.4207 3.53906 18.3219C3.57773 18.2661 3.7367 18.1157 3.89139 17.9868C4.79369 17.2521 5.92801 16.9985 7.03656 17.2778Z" fill="white"/>
<path d="M17.1509 13.1075C15.7286 13.5587 15.2431 15.3805 16.2571 16.4804C16.3603 16.5964 16.4419 16.691 16.4333 16.6953C16.429 16.6953 16.3087 16.7425 16.1669 16.7984C15.5826 17.0304 14.9595 17.4816 14.56 17.9628C14.4268 18.1218 14.3408 18.2679 14.3408 18.3323C14.3408 18.5729 14.7361 19.1702 15.1615 19.5783C15.6341 20.0252 16.0853 20.2873 16.7341 20.4849C17.0735 20.5881 17.1852 20.5967 17.7782 20.601C18.3496 20.6053 18.4914 20.5881 18.7879 20.5064C19.7332 20.2357 20.4636 19.6987 21.005 18.8737C21.237 18.5214 21.2886 18.3581 21.2112 18.212C21.1038 18.0144 20.7987 17.6878 20.4636 17.4171C20.1456 17.1593 19.3508 16.7168 19.2133 16.7168C19.1187 16.7168 19.1402 16.6738 19.3508 16.4504C19.905 15.8574 20.0253 14.9079 19.6429 14.143C19.4925 13.838 19.1531 13.4685 18.8695 13.2923C18.4227 13.0216 17.6793 12.94 17.1509 13.1075ZM18.268 13.7778C18.702 13.9282 19.1144 14.4567 19.1789 14.9422C19.2433 15.4535 18.9039 16.0594 18.4055 16.3215C18.2164 16.4203 18.1348 16.4375 17.7997 16.4375C17.4817 16.4375 17.3786 16.4203 17.211 16.3386C16.9446 16.2054 16.6911 15.9562 16.545 15.677C16.4462 15.4836 16.429 15.3977 16.4247 15.084C16.4247 14.7489 16.4376 14.6973 16.5708 14.4481C16.8286 13.9712 17.254 13.7134 17.7825 13.7091C17.9371 13.7091 18.1563 13.7392 18.268 13.7778ZM18.6805 17.2796C18.8566 17.3226 19.1617 17.4386 19.3593 17.5331C19.7246 17.7136 20.2917 18.139 20.412 18.3237C20.4808 18.4225 20.4765 18.4354 20.2659 18.7104C19.8878 19.2131 19.3808 19.574 18.7449 19.7932C18.4313 19.9049 18.3496 19.9135 17.7997 19.9135C17.2626 19.9135 17.1594 19.9006 16.8544 19.7975C16.6653 19.7373 16.386 19.6127 16.2357 19.5225C15.8919 19.3205 15.4236 18.8866 15.2388 18.603L15.1013 18.3882L15.2474 18.2378C15.4666 18.0058 15.8747 17.7136 16.1884 17.5546C16.9661 17.1636 17.8383 17.0691 18.6805 17.2796Z" fill="white"/>
</svg>
