<svg width="15" height="22" viewBox="0 0 15 22" fill="none" xmlns="http://www.w3.org/2000/svg">
<path d="M7.71397 22C7.40284 22.0009 7.09813 21.9115 6.83678 21.7427L5.10238 20.6105C5.02993 20.566 4.94768 20.5399 4.86282 20.5345C4.77797 20.529 4.69308 20.5445 4.61555 20.5794L2.64605 21.4987C2.39973 21.6133 2.12868 21.6645 1.85754 21.6476C1.5864 21.6308 1.32377 21.5464 1.09352 21.4022C0.898962 21.2839 0.737733 21.1179 0.625015 20.92C0.512297 20.7222 0.451799 20.4988 0.449219 20.2711V1.73054C0.452996 1.50253 0.514348 1.27917 0.627573 1.08122C0.740798 0.88327 0.902223 0.717151 1.09685 0.598301C1.3271 0.45413 1.58973 0.369787 1.86086 0.352938C2.132 0.336089 2.40305 0.387267 2.64938 0.501822L4.61777 1.42114C4.69512 1.4564 4.77991 1.4722 4.86477 1.46718C4.94962 1.46215 5.03196 1.43645 5.1046 1.39231L6.83789 0.257852C7.09928 0.0895163 7.40361 0 7.71452 0C8.02543 0 8.32976 0.0895163 8.59115 0.257852L10.3255 1.3912C10.3983 1.43553 10.4809 1.46134 10.5659 1.46636C10.651 1.47139 10.736 1.45548 10.8135 1.42003L12.7819 0.500713C13.028 0.385161 13.2992 0.333429 13.5705 0.350291C13.8418 0.367152 14.1045 0.452063 14.3344 0.597192C14.5284 0.716442 14.6892 0.882734 14.8018 1.08066C14.9144 1.27858 14.9753 1.50173 14.9787 1.72943V20.2711C14.9751 20.4986 14.9142 20.7216 14.8015 20.9193C14.6889 21.117 14.5283 21.2831 14.3344 21.4022C14.1045 21.5474 13.8418 21.6323 13.5705 21.6492C13.2992 21.666 13.028 21.6143 12.7819 21.4987L10.819 20.5805C10.7413 20.545 10.6561 20.5292 10.5708 20.5344C10.4855 20.5397 10.4028 20.5658 10.33 20.6105L8.59558 21.7427C8.33297 21.9123 8.0266 22.0017 7.71397 22ZM4.83069 19.4283C5.14175 19.4276 5.44624 19.5178 5.70676 19.6878L7.44116 20.8189C7.52216 20.8695 7.61572 20.8963 7.71119 20.8963C7.80667 20.8963 7.90022 20.8695 7.98122 20.8189L9.71673 19.6867C9.94714 19.5382 10.2115 19.4507 10.4849 19.4322C10.7584 19.4138 11.0321 19.4651 11.2804 19.5814L13.2476 20.4996C13.3243 20.5357 13.4087 20.5522 13.4933 20.5476C13.5779 20.5429 13.66 20.5173 13.7323 20.4729C13.7689 20.454 13.8001 20.426 13.823 20.3917C13.8459 20.3573 13.8597 20.3178 13.8631 20.2767V1.73054C13.8597 1.68943 13.8459 1.64986 13.823 1.61553C13.8001 1.5812 13.7689 1.55324 13.7323 1.53426C13.6601 1.48974 13.5781 1.4639 13.4935 1.45906C13.4088 1.45422 13.3244 1.47053 13.2476 1.50653L11.2792 2.42585C11.0312 2.54189 10.7577 2.59309 10.4844 2.57466C10.2111 2.55624 9.94701 2.46879 9.71673 2.3205L7.98344 1.18715C7.90213 1.13804 7.80895 1.11209 7.71397 1.11209C7.61898 1.11209 7.5258 1.13804 7.44449 1.18715L5.70898 2.31939C5.47867 2.46779 5.21467 2.55574 4.94137 2.57512C4.66808 2.59451 4.39431 2.54469 4.14536 2.43029L2.17697 1.50653C2.10024 1.47053 2.01576 1.45422 1.93115 1.45906C1.84654 1.4639 1.76447 1.48974 1.69235 1.53426C1.65573 1.55324 1.62451 1.5812 1.60162 1.61553C1.57874 1.64986 1.56493 1.68943 1.5615 1.73054V20.2711C1.56493 20.3122 1.57874 20.3518 1.60162 20.3861C1.62451 20.4205 1.65573 20.4484 1.69235 20.4674C1.76491 20.5108 1.84695 20.5359 1.93137 20.5406C2.0158 20.5452 2.10009 20.5292 2.17697 20.494L4.14647 19.5747C4.36158 19.4779 4.59482 19.428 4.83069 19.4283Z" fill="white"/>
<path d="M11.0926 5.89899H4.33682C4.18977 5.89899 4.04874 5.84057 3.94475 5.73659C3.84077 5.6326 3.78235 5.49157 3.78235 5.34452C3.78235 5.19746 3.84077 5.05643 3.94475 4.95244C4.04874 4.84846 4.18977 4.79004 4.33682 4.79004H11.0926C11.2396 4.79004 11.3807 4.84846 11.4846 4.95244C11.5886 5.05643 11.647 5.19746 11.647 5.34452C11.647 5.49157 11.5886 5.6326 11.4846 5.73659C11.3807 5.84057 11.2396 5.89899 11.0926 5.89899ZM11.0926 9.8391H4.33682C4.18977 9.8391 4.04874 9.78068 3.94475 9.6767C3.84077 9.57271 3.78235 9.43168 3.78235 9.28462C3.78235 9.13757 3.84077 8.99653 3.94475 8.89255C4.04874 8.78856 4.18977 8.73015 4.33682 8.73015H11.0926C11.2396 8.73015 11.3807 8.78856 11.4846 8.89255C11.5886 8.99653 11.647 9.13757 11.647 9.28462C11.647 9.43168 11.5886 9.57271 11.4846 9.6767C11.3807 9.78068 11.2396 9.8391 11.0926 9.8391ZM7.71469 13.7726H4.33682C4.18977 13.7726 4.04874 13.7141 3.94475 13.6102C3.84077 13.5062 3.78235 13.3651 3.78235 13.2181C3.78235 13.071 3.84077 12.93 3.94475 12.826C4.04874 12.722 4.18977 12.6636 4.33682 12.6636H7.71469C7.86175 12.6636 8.00278 12.722 8.10677 12.826C8.21075 12.93 8.26917 13.071 8.26917 13.2181C8.26917 13.3651 8.21075 13.5062 8.10677 13.6102C8.00278 13.7141 7.86175 13.7726 7.71469 13.7726Z" fill="white"/>
</svg>
