<svg width="21" height="13" viewBox="0 0 21 13" fill="none" xmlns="http://www.w3.org/2000/svg">
<path d="M5.20703 2.81152V3.93652H6.45703V2.81152H5.20703ZM13.957 2.81152V3.93652H15.207V2.81152H13.957ZM5.20703 5.06152V6.18652H6.45703V5.06152H5.20703ZM13.957 5.06152V6.18652H15.207V5.06152H13.957ZM5.20703 7.31152V8.43652H6.45703V7.31152H5.20703ZM13.957 7.31152V8.43652H15.207V7.31152H13.957ZM5.20703 9.56152V10.6865H6.45703V9.56152H5.20703ZM13.957 9.56152V10.6865H15.207V9.56152H13.957Z" fill="white"/>
<path d="M2.08203 0.499023C1.58475 0.499023 1.10784 0.696568 0.756206 1.0482C0.404575 1.39983 0.207031 1.87674 0.207031 2.37402L0.207031 4.24902C0.207031 4.41478 0.272879 4.57375 0.39009 4.69097C0.5073 4.80818 0.666271 4.87402 0.832031 4.87402C1.32931 4.87402 1.80623 5.07157 2.15786 5.4232C2.50949 5.77483 2.70703 6.25174 2.70703 6.74902C2.70703 7.2463 2.50949 7.72322 2.15786 8.07485C1.80623 8.42648 1.32931 8.62402 0.832031 8.62402C0.666271 8.62402 0.5073 8.68987 0.39009 8.80708C0.272879 8.92429 0.207031 9.08326 0.207031 9.24902L0.207031 11.124C0.207031 11.6213 0.404575 12.0982 0.756206 12.4498C1.10784 12.8015 1.58475 12.999 2.08203 12.999H18.332C18.8293 12.999 19.3062 12.8015 19.6579 12.4498C20.0095 12.0982 20.207 11.6213 20.207 11.124V9.24902C20.207 9.08326 20.1412 8.92429 20.024 8.80708C19.9068 8.68987 19.7478 8.62402 19.582 8.62402C19.0848 8.62402 18.6078 8.42648 18.2562 8.07485C17.9046 7.72322 17.707 7.2463 17.707 6.74902C17.707 6.25174 17.9046 5.77483 18.2562 5.4232C18.6078 5.07157 19.0848 4.87402 19.582 4.87402C19.7478 4.87402 19.9068 4.80818 20.024 4.69097C20.1412 4.57375 20.207 4.41478 20.207 4.24902V2.37402C20.207 1.87674 20.0095 1.39983 19.6579 1.0482C19.3062 0.696568 18.8293 0.499023 18.332 0.499023H2.08203ZM1.45703 2.37402C1.45703 2.20826 1.52288 2.04929 1.64009 1.93208C1.7573 1.81487 1.91627 1.74902 2.08203 1.74902H18.332C18.4978 1.74902 18.6568 1.81487 18.774 1.93208C18.8912 2.04929 18.957 2.20826 18.957 2.37402V3.68652C18.2506 3.82997 17.6155 4.21323 17.1593 4.77136C16.7031 5.32949 16.4539 6.02818 16.4539 6.74902C16.4539 7.46987 16.7031 8.16855 17.1593 8.72669C17.6155 9.28482 18.2506 9.66808 18.957 9.81152V11.124C18.957 11.2898 18.8912 11.4488 18.774 11.566C18.6568 11.6832 18.4978 11.749 18.332 11.749H2.08203C1.91627 11.749 1.7573 11.6832 1.64009 11.566C1.52288 11.4488 1.45703 11.2898 1.45703 11.124V9.81152C2.16346 9.66808 2.79858 9.28482 3.25477 8.72669C3.71096 8.16855 3.96016 7.46987 3.96016 6.74902C3.96016 6.02818 3.71096 5.32949 3.25477 4.77136C2.79858 4.21323 2.16346 3.82997 1.45703 3.68652V2.37402Z" fill="white"/>
</svg>
