<svg width="33" height="21" viewBox="0 0 33 21" fill="none" xmlns="http://www.w3.org/2000/svg">
<path d="M6.0429 0.963049C5.90535 1.02557 5.69276 1.20064 5.56772 1.3507C5.29886 1.68833 0.490727 8.77861 0.359426 9.03496C0.24063 9.26005 0.24063 9.78525 0.353174 10.0541C0.396941 10.1667 0.515737 10.3292 0.615776 10.4168C0.872127 10.6481 2.82289 11.9549 3.03547 12.0299C3.26681 12.1174 3.61695 12.1112 3.89831 12.0111L4.11715 11.9361L4.72989 12.5176L5.33638 13.0928L5.09253 13.4554C4.96123 13.6555 4.81742 13.9119 4.77991 14.0307C4.68612 14.3058 4.68612 14.7372 4.77991 15.0498C4.92997 15.5438 5.58022 16.094 6.0304 16.1002C6.3055 16.1002 6.37428 16.1502 6.34302 16.3441C6.33051 16.4441 6.36178 16.6817 6.41805 16.8755C6.63063 17.5946 7.40594 18.1198 8.10621 18.0135L8.36881 17.9697L8.43759 18.2386C8.5939 18.7888 9.01282 19.2139 9.54427 19.3578C9.86315 19.4453 10.4384 19.3953 10.6885 19.264C10.876 19.1702 10.8823 19.1702 10.9573 19.3515C11.0574 19.5891 11.4138 19.9392 11.7014 20.083C11.8577 20.1643 12.064 20.1956 12.3954 20.1956C12.9519 20.1893 13.2457 20.0643 13.6021 19.6704C13.7272 19.5266 13.846 19.414 13.8585 19.414C13.8772 19.414 14.2586 19.7016 14.7213 20.0455C15.1777 20.3957 15.6404 20.7208 15.753 20.7646C16.0218 20.8833 16.6596 20.8771 16.9472 20.7583C17.3911 20.5707 17.8225 20.0455 17.9288 19.5578L17.9726 19.3515L18.1664 19.4578C18.3102 19.5391 18.5103 19.5703 18.8667 19.5703C19.3106 19.5703 19.4044 19.5516 19.7108 19.3765C20.0984 19.1514 20.4423 18.7138 20.4986 18.3574L20.5361 18.126L20.8299 18.2761C21.3989 18.5512 22.1805 18.4574 22.6557 18.0447C22.9433 17.8071 23.2121 17.3007 23.2121 17.0068V16.8193H23.7311C24.3126 16.8193 24.5939 16.7067 24.9441 16.3378C25.413 15.8501 25.538 15.0623 25.2504 14.4433C25.0754 14.0682 25.3255 14.2933 20.3485 10.0166C17.4661 7.54062 16.472 6.72155 16.3532 6.72155C16.2094 6.72155 14.3837 7.24676 14.2336 7.33429C14.1898 7.3593 13.846 7.75946 13.4646 8.22839C13.0894 8.69733 12.6893 9.15376 12.583 9.24754C12.0015 9.73523 11.1887 9.97283 10.5197 9.86028C10.0132 9.7665 9.6068 9.57892 9.56303 9.41636C9.53802 9.31632 9.76936 8.94117 10.5322 7.8595C11.0824 7.07794 11.6076 6.36516 11.6951 6.27138C11.8764 6.09006 15.3153 3.97048 15.7717 3.75789C15.9905 3.65785 16.1719 3.63284 16.6158 3.63284C17.166 3.6391 17.216 3.6516 18.6791 4.18931C20.0984 4.70827 20.2109 4.73953 20.7737 4.77079C21.3176 4.78955 21.4614 4.77079 22.4743 4.51444L23.5748 4.23933L25.7069 7.90327L27.8389 11.5672L27.3512 12.0361C27.0699 12.305 26.6197 12.6489 26.2883 12.8427C25.9757 13.0303 25.7006 13.2304 25.6818 13.2866C25.6631 13.3491 25.6756 13.4679 25.7069 13.5555C25.7944 13.7806 26.0382 13.8306 26.3321 13.693C26.7197 13.5117 27.5388 12.9365 27.964 12.5488C28.3579 12.1924 28.3704 12.1862 28.5455 12.2737C28.6643 12.33 28.8518 12.355 29.0832 12.3363C29.402 12.3112 29.5646 12.2425 30.565 11.6672C31.1777 11.3109 31.7717 10.9545 31.8843 10.8732C32.1469 10.6731 32.3032 10.2604 32.2657 9.83527C32.2407 9.53516 32.0218 9.135 29.8585 5.40854C27.1449 0.744213 27.2887 0.93804 26.5384 0.93804L26.1195 0.944292L24.869 1.66958C23.7811 2.30107 23.5935 2.42612 23.4497 2.66372C23.3309 2.85129 23.2746 3.03261 23.2684 3.23269C23.2496 3.57657 23.3309 3.53906 22.0867 3.85168C20.8987 4.14555 20.6799 4.12053 18.8041 3.43902C17.5787 2.99509 17.216 2.8888 16.8346 2.86379C15.9405 2.80127 15.5779 2.93257 13.896 3.97048C13.277 4.34562 12.7393 4.65825 12.708 4.65825C12.6705 4.65825 12.4767 4.60197 12.2766 4.5332C12.0765 4.46442 11.5763 4.35188 11.1699 4.27685C10.7572 4.20807 10.2696 4.08927 10.082 4.01424L9.7381 3.87669V3.47028C9.73185 2.78251 9.6193 2.64496 8.31254 1.76962C7.6998 1.35695 7.09957 0.981806 6.98702 0.931787C6.69941 0.81299 6.34927 0.825495 6.0429 0.963049ZM7.74982 2.31358C8.86276 3.05137 9.06283 3.23894 8.98781 3.47028C8.92528 3.67036 3.91082 11.042 3.7295 11.2046C3.64196 11.2858 3.51691 11.3484 3.44188 11.3484C3.30433 11.3484 1.30355 10.0416 1.12222 9.82902C1.0472 9.74149 1.01593 9.62894 1.02844 9.50389C1.05345 9.31007 6.0304 1.91967 6.2805 1.70084C6.34927 1.64457 6.46807 1.59455 6.5431 1.59455C6.61187 1.59455 7.16209 1.91967 7.74982 2.31358ZM26.801 1.79462C27.0386 2.00721 31.5279 9.77275 31.5279 9.96657C31.5279 10.0541 31.5029 10.1604 31.4779 10.2042C31.3903 10.3417 29.1645 11.5985 29.0081 11.5985C28.9206 11.5985 28.7956 11.5484 28.7268 11.4859C28.5205 11.3109 24.0124 3.48279 24.0124 3.30772C24.0124 3.22018 24.0625 3.09513 24.125 3.03261C24.3001 2.85754 26.4134 1.65707 26.5384 1.65707C26.5947 1.65707 26.7135 1.71959 26.801 1.79462ZM9.74435 4.69576C9.98194 4.78329 10.5384 4.9271 10.9823 5.00838C11.42 5.08341 11.7952 5.16469 11.8139 5.18345C11.8264 5.19596 11.6889 5.3085 11.5013 5.43355C11.2137 5.62738 11.0011 5.87747 10.1883 7.02167C8.82524 8.93492 8.83149 8.92867 8.83149 9.34133C8.83149 9.94156 9.0941 10.2229 9.89441 10.4793C10.4259 10.6481 11.2762 10.6606 11.8014 10.5105C12.6642 10.2542 13.0456 9.95407 14.0335 8.74109L14.6588 7.9783L15.2027 7.81573C15.4966 7.7282 15.853 7.61565 15.9905 7.57189L16.2406 7.49061L20.336 11.0107C22.5869 12.949 24.4814 14.6121 24.5376 14.7059C24.6002 14.806 24.6502 15.006 24.6502 15.1686C24.6502 15.9001 23.8436 16.3441 23.2496 15.9439C23.1183 15.8564 22.0867 15.0311 20.9487 14.1119C18.7104 12.2987 18.5853 12.2237 18.3602 12.5676C18.2789 12.6926 18.2664 12.7614 18.3227 12.874C18.3602 12.9615 19.2668 13.7305 20.3297 14.5996C21.4739 15.525 22.318 16.2503 22.3743 16.3566C22.7307 17.0569 22.0867 17.8759 21.3426 17.6633C21.1988 17.6196 20.336 16.9631 18.9292 15.8189C16.6658 13.9806 16.5408 13.8994 16.3094 14.137C16.2531 14.187 16.2094 14.312 16.2094 14.4121C16.2094 14.5746 16.3907 14.7434 17.8975 15.9564C19.048 16.888 19.6107 17.3882 19.6857 17.532C19.9734 18.126 19.5357 18.8513 18.8854 18.8513C18.5853 18.8513 18.4478 18.7638 17.2098 17.7634C16.5908 17.2569 16.0156 16.8193 15.9343 16.7817C15.6967 16.6692 15.4591 16.8443 15.4591 17.1256C15.4591 17.3132 15.5216 17.382 16.1781 17.9134C16.5783 18.2323 16.9597 18.5637 17.0222 18.645C17.2973 18.9951 17.241 19.5578 16.8972 19.883C16.7533 20.0205 16.6408 20.0643 16.3845 20.083L16.0531 20.108L15.1652 19.4265L14.2774 18.745L14.5837 18.3011C14.9526 17.7634 15.0589 17.357 14.9589 16.8755C14.8338 16.269 14.4024 15.8126 13.8147 15.6501L13.5333 15.5813L13.6334 15.3562C13.7834 15.006 13.7647 14.3746 13.5896 14.0182C13.4083 13.643 13.0206 13.3116 12.6205 13.1928C12.2203 13.074 12.0015 13.0803 11.5951 13.2178L11.2637 13.3304L11.1449 13.0991C10.8885 12.5989 10.3508 12.2862 9.7381 12.2862C9.28792 12.2862 8.9753 12.405 8.63767 12.7114C8.46885 12.8615 8.3313 12.9552 8.3313 12.9177C8.3313 12.7927 7.87487 12.3425 7.61852 12.205C7.22461 12.0049 6.58061 12.0174 6.18046 12.2425C6.01164 12.3363 5.83657 12.4113 5.7928 12.4113C5.74278 12.4113 5.46142 12.1737 5.16756 11.8861C4.78616 11.5234 4.64235 11.3359 4.67362 11.2796C4.85494 10.9732 9.24416 4.5332 9.27542 4.5332C9.30043 4.5332 9.51301 4.60823 9.74435 4.69576ZM7.37467 12.9427C7.45596 12.999 7.581 13.1303 7.64353 13.2429C7.86236 13.593 7.81235 13.7806 7.3184 14.5121C7.0683 14.881 6.79945 15.2249 6.71817 15.2749C6.52434 15.4062 6.06791 15.4 5.86158 15.2624C5.63024 15.1123 5.45517 14.7935 5.45517 14.5246C5.45517 14.3433 5.53645 14.1745 5.80531 13.7743C5.99914 13.4867 6.21797 13.1866 6.293 13.1053C6.58061 12.7864 7.03079 12.7177 7.37467 12.9427ZM10.1508 13.1303C10.5447 13.3366 10.6885 13.8618 10.4696 14.262C10.4134 14.3683 9.95693 15.0373 9.45674 15.7501C8.68144 16.8568 8.51262 17.0569 8.28128 17.1694C7.93114 17.3445 7.64978 17.2882 7.36217 17.0068C7.09331 16.738 7.02454 16.4191 7.16834 16.1252C7.36217 15.7063 9.15037 13.2241 9.31919 13.1303C9.54427 13.0115 9.91942 13.0115 10.1508 13.1303ZM12.6392 14.0307C12.7393 14.1057 12.8706 14.287 12.9331 14.4433C13.0269 14.6997 13.0269 14.7497 12.9456 14.9623C12.8768 15.1436 11.3575 17.3882 10.6885 18.3011C10.2008 18.9701 9.14412 18.6325 9.14412 17.8071C9.14412 17.5133 9.16913 17.4758 10.7447 15.2311C11.6263 13.9806 11.8014 13.8181 12.2203 13.8681C12.3454 13.8869 12.5329 13.9556 12.6392 14.0307ZM13.7272 16.4191C14.1211 16.6192 14.3211 17.0256 14.2149 17.3945C14.1336 17.6821 13.0269 19.2265 12.8081 19.3578C12.7018 19.4203 12.5142 19.4765 12.3891 19.4765C11.939 19.4765 11.4825 18.9826 11.5451 18.5637C11.5763 18.3198 12.8018 16.5567 13.0144 16.4441C13.2145 16.3378 13.5458 16.3253 13.7272 16.4191Z" fill="white"/>
</svg>
