<svg width="21" height="18" viewBox="0 0 21 18" fill="none" xmlns="http://www.w3.org/2000/svg">
<path d="M5.00131 1.77087C5.13367 1.62883 5.20572 1.44095 5.2023 1.24683C5.19887 1.05271 5.12023 0.867496 4.98295 0.730209C4.84566 0.592923 4.66045 0.514284 4.46633 0.510859C4.2722 0.507434 4.08433 0.57949 3.94229 0.711848L1.97411 2.68003L1.50454 2.21046C1.3625 2.07811 1.17462 2.00605 0.980502 2.00947C0.78638 2.0129 0.601167 2.09154 0.46388 2.22882C0.326594 2.36611 0.247955 2.55132 0.24453 2.74545C0.241105 2.93957 0.313161 3.12744 0.445519 3.26948L1.4446 4.26856C1.58509 4.40888 1.77554 4.4877 1.97411 4.4877C2.17267 4.4877 2.36312 4.40888 2.50362 4.26856L5.00131 1.77087ZM19.458 14.9857H7.96857L7.86666 14.9927C7.67859 15.0185 7.50734 15.1148 7.38754 15.2621C7.26773 15.4094 7.20829 15.5966 7.22123 15.786C7.23417 15.9754 7.31853 16.1529 7.45725 16.2825C7.59597 16.4121 7.77872 16.4842 7.96857 16.4843H19.458L19.5599 16.4773C19.7479 16.4514 19.9192 16.3551 20.039 16.2078C20.1588 16.0606 20.2182 15.8733 20.2053 15.6839C20.1923 15.4945 20.108 15.3171 19.9693 15.1874C19.8305 15.0578 19.6478 14.9857 19.458 14.9857ZM19.458 8.48467H7.96857L7.86666 8.49166C7.67859 8.51754 7.50734 8.61384 7.38754 8.76111C7.26773 8.90838 7.20829 9.09564 7.22123 9.28505C7.23417 9.47445 7.31853 9.65189 7.45725 9.78149C7.59597 9.9111 7.77872 9.98322 7.96857 9.98328H19.458L19.5599 9.97629C19.7479 9.95041 19.9192 9.85411 20.039 9.70683C20.1588 9.55956 20.2182 9.37231 20.2053 9.1829C20.1923 8.99349 20.108 8.81606 19.9693 8.68645C19.8305 8.55684 19.6478 8.48472 19.458 8.48467ZM19.458 1.99067H7.96857L7.86666 1.99766C7.67859 2.02354 7.50734 2.11984 7.38754 2.26711C7.26773 2.41438 7.20829 2.60164 7.22123 2.79105C7.23417 2.98045 7.31853 3.15789 7.45725 3.2875C7.59597 3.4171 7.77872 3.48922 7.96857 3.48928H19.458L19.5599 3.48229C19.7479 3.45641 19.9192 3.36011 20.039 3.21284C20.1588 3.06557 20.2182 2.87831 20.2053 2.6889C20.1923 2.49949 20.108 2.32206 19.9693 2.19245C19.8305 2.06284 19.6478 1.99072 19.458 1.99067ZM5.00131 14.7589C5.07493 14.6903 5.13398 14.6075 5.17493 14.5156C5.21588 14.4237 5.23791 14.3245 5.23968 14.2239C5.24146 14.1233 5.22295 14.0233 5.18526 13.93C5.14758 13.8367 5.09148 13.752 5.02033 13.6808C4.94918 13.6097 4.86442 13.5536 4.77112 13.5159C4.67782 13.4782 4.57788 13.4597 4.47727 13.4615C4.37666 13.4633 4.27744 13.4853 4.18553 13.5262C4.09361 13.5672 4.01089 13.6262 3.94229 13.6998L1.97411 15.668L1.50454 15.1985C1.3625 15.0661 1.17462 14.994 0.980502 14.9975C0.78638 15.0009 0.601167 15.0795 0.46388 15.2168C0.326594 15.3541 0.247955 15.5393 0.24453 15.7334C0.241105 15.9276 0.313161 16.1154 0.445519 16.2575L1.4446 17.2566C1.58509 17.3969 1.77554 17.4757 1.97411 17.4757C2.17267 17.4757 2.36312 17.3969 2.50362 17.2566L5.00131 14.7589ZM5.00131 7.20585C5.14163 7.34634 5.22045 7.53679 5.22045 7.73536C5.22045 7.93393 5.14163 8.12437 5.00131 8.26487L2.50362 10.7626C2.36312 10.9029 2.17267 10.9817 1.97411 10.9817C1.77554 10.9817 1.58509 10.9029 1.4446 10.7626L0.445519 9.76348C0.3719 9.69489 0.312853 9.61216 0.271899 9.52025C0.230945 9.42833 0.208923 9.32911 0.207148 9.2285C0.205373 9.12789 0.22388 9.02795 0.261566 8.93465C0.299253 8.84135 0.355345 8.75659 0.426498 8.68544C0.497651 8.61429 0.582407 8.5582 0.675709 8.52051C0.769011 8.48282 0.868948 8.46432 0.969557 8.46609C1.07017 8.46787 1.16939 8.48989 1.2613 8.53084C1.35322 8.5718 1.43594 8.63084 1.50454 8.70446L1.97411 9.17403L3.94229 7.20585C4.08278 7.06553 4.27323 6.98671 4.4718 6.98671C4.67037 6.98671 4.86081 7.06553 5.00131 7.20585Z" fill="white"/>
</svg>
