<svg width="20" height="18" viewBox="0 0 20 18" fill="none" xmlns="http://www.w3.org/2000/svg">
<path d="M-0.00195312 7.69249C-0.00195312 6.90896 -0.00195324 6.28896 0.0345173 5.78425C0.0733409 5.2666 0.152164 4.82896 0.328635 4.41366C0.619768 3.73081 1.09008 3.13936 1.68981 2.7019C2.05452 2.43719 2.46275 2.2619 2.95922 2.10896C3.44275 1.95955 4.04628 1.81955 4.80864 1.64425L8.85922 0.708957C10.0169 0.441898 10.9239 0.232487 11.6557 0.130134C12.3992 0.0266042 13.0298 0.0207215 13.6169 0.21131C14.5661 0.518036 15.3716 1.1589 15.8839 2.01484C16.0522 2.29602 16.1698 2.60072 16.2522 2.93602L16.2792 2.94778C16.779 3.15458 17.2331 3.4578 17.6156 3.84013C17.9981 4.22246 18.3016 4.67639 18.5086 5.17602C18.6769 5.58307 18.751 6.02307 18.7863 6.54543C18.8216 7.05719 18.8216 7.69013 18.8216 8.49484V8.51602H18.2333C18.7014 8.51602 19.1502 8.70194 19.4812 9.03289C19.8121 9.36383 19.998 9.81269 19.998 10.2807C19.998 10.7488 19.8121 11.1976 19.4812 11.5286C19.1502 11.8595 18.7014 12.0454 18.2333 12.0454H18.8216V12.0666C18.8216 12.8713 18.8216 13.5043 18.7863 14.016C18.751 14.5384 18.6769 14.9784 18.5086 15.3854C18.3017 15.8853 17.9983 16.3394 17.6158 16.722C17.2332 17.1045 16.7791 17.4079 16.2792 17.6148C15.8722 17.7831 15.4322 17.8572 14.911 17.8925C14.398 17.9278 13.7651 17.9278 12.9604 17.9278H6.20746C5.24158 17.9278 4.4804 17.9278 3.86628 17.8772C3.24275 17.8266 2.7204 17.7207 2.24628 17.4795C1.47122 17.0847 0.841102 16.4546 0.446282 15.6795C0.205106 15.2054 0.0992233 14.6831 0.0486351 14.0584C-0.00195315 13.4466 -0.00195312 12.6854 -0.00195312 11.7184V7.69249ZM9.09569 1.8619L5.75099 2.63366H12.9616C13.7616 2.63366 14.3933 2.63366 14.9039 2.66896L14.8757 2.61837C14.5099 2.00708 13.9347 1.54933 13.2569 1.33013C12.9157 1.22072 12.491 1.20072 11.8204 1.29484C11.1451 1.38896 10.2886 1.5866 9.09687 1.8619M17.6145 6.62543C17.5828 6.16307 17.5216 5.8666 17.4228 5.62543C17.2718 5.2615 17.0492 4.9316 16.7683 4.65534C16.4874 4.37907 16.1539 4.16206 15.7875 4.01719L15.6039 3.97013C15.011 3.81719 14.1886 3.81013 12.6863 3.81013H6.23334C5.23569 3.81013 4.52158 3.81013 3.96275 3.85719C3.41099 3.9019 3.06158 3.9866 2.7804 4.13013C2.19069 4.43116 1.7198 4.92236 1.44393 5.52425C1.33099 5.78778 1.2604 6.11602 1.2204 6.59837L1.20511 6.81602C1.17681 7.49994 1.16661 8.18449 1.17452 8.86896V11.6925C1.17452 12.6901 1.17452 13.4043 1.22158 13.9631C1.26628 14.5148 1.35099 14.8643 1.49452 15.1454C1.77675 15.6987 2.22688 16.1484 2.7804 16.4301C3.06158 16.5737 3.41099 16.6595 3.96275 16.7054C4.52158 16.7513 5.23569 16.7513 6.23334 16.7513H12.9392C13.7698 16.7513 14.3628 16.7513 14.8298 16.7195C15.2922 16.6878 15.5886 16.6266 15.8298 16.5278C16.1867 16.38 16.5109 16.1633 16.784 15.8902C17.0571 15.6171 17.2738 15.2929 17.4216 14.936C17.5204 14.6948 17.5816 14.3984 17.6133 13.936C17.6451 13.469 17.6451 12.876 17.6451 12.0454H15.8804C15.4124 12.0454 14.9635 11.8595 14.6326 11.5286C14.3016 11.1976 14.1157 10.7488 14.1157 10.2807C14.1157 9.81269 14.3016 9.36383 14.6326 9.03289C14.9635 8.70194 15.4124 8.51602 15.8804 8.51602H17.6451C17.6451 7.68543 17.6451 7.09249 17.6133 6.62543M15.8804 9.69249C15.7244 9.69249 15.5748 9.75446 15.4645 9.86478C15.3541 9.97509 15.2922 10.1247 15.2922 10.2807C15.2922 10.4367 15.3541 10.5864 15.4645 10.6967C15.5748 10.807 15.7244 10.869 15.8804 10.869H18.2333C18.3894 10.869 18.539 10.807 18.6493 10.6967C18.7596 10.5864 18.8216 10.4367 18.8216 10.2807C18.8216 10.1247 18.7596 9.97509 18.6493 9.86478C18.539 9.75446 18.3894 9.69249 18.2333 9.69249H15.8804Z" fill="white"/>
</svg>
