<svg width="40" height="40" viewBox="0 0 40 40" fill="none" xmlns="http://www.w3.org/2000/svg">
<path d="M1.13332 0.149574C0.961454 0.227695 0.688031 0.430809 0.531789 0.594864C-0.0384934 1.1964 0.000566997 0.383938 0.000566997 11.3443C0.000566997 20.7344 0.00837909 21.2266 0.148997 21.5234C0.336487 21.9375 0.734903 22.3281 1.17238 22.5312C1.48486 22.6718 1.7036 22.6953 3.07072 22.7187L4.6097 22.7499V31.3745V39.999H19.9995H35.3893V35.3118V30.6245H34.6862H33.9831V34.6087V38.5928H19.9995H6.01587V30.6636V22.7421L11.5859 22.7187C17.8121 22.6953 17.445 22.7265 18.0777 22.125C18.7183 21.5156 18.6715 22.2812 18.6715 12.6333V4.06343H22.3041H25.9367V8.04759V12.0318H29.9599H33.9831V16.719V21.4063H34.6862H35.3893V16.2347V11.0552L31.1942 6.86016L26.9913 2.65725H22.8353H18.6715V2.07135C18.6715 1.74324 18.6246 1.36826 18.5621 1.21983C18.4058 0.83704 17.9293 0.344875 17.5465 0.165199C17.2184 0.00114441 17.1325 0.00114441 9.3282 0.00114441C1.81297 0.00114441 1.43018 0.00895691 1.13332 0.149574ZM17.0856 1.57919L17.2653 1.74324V11.3287V20.9141L17.0622 21.1016L16.859 21.2891H9.33601H1.81297L1.60986 21.1016L1.40674 20.9141V11.3365V1.76668L1.57861 1.587L1.74266 1.40732H9.3282H16.9059L17.0856 1.57919ZM30.1552 7.85229L32.9285 10.6256H30.1318H27.3429V7.85229C27.3429 6.32893 27.3507 5.079 27.3663 5.079C27.3741 5.079 28.6319 6.32893 30.1552 7.85229Z" fill="#26212E"/>
<path d="M1.9541 4.33704V6.71973H9.33652H16.7189V4.33704V1.95435H9.33652H1.9541V4.33704ZM15.3128 4.33704V5.31355H9.33652H3.36028V4.33704V3.36053H9.33652H15.3128V4.33704Z" fill="#26212E" stroke="#E1DCFF" stroke-width="0.5"/>
<path d="M3.57026 7.3837C3.3984 7.43838 3.17966 7.57119 3.07029 7.67275C2.70312 8.01648 2.65625 8.20397 2.65625 9.36016C2.65625 10.3601 2.67187 10.4695 2.83593 10.7116C3.22653 11.2976 3.80463 11.4694 5.10143 11.3835C5.67953 11.3444 5.85139 11.3054 6.10919 11.1335C6.59354 10.8132 6.71853 10.4538 6.71853 9.33672C6.71853 8.05554 6.52323 7.63369 5.80452 7.37589C5.4061 7.23527 3.96087 7.23527 3.57026 7.3837ZM5.31236 9.33672V10.0007H4.68739H4.06243V9.33672V8.67269H4.68739H5.31236V9.33672Z" fill="#26212E" stroke="#E1DCFF" stroke-width="0.5"/>
<path d="M8.32069 7.33664C7.97696 7.42257 7.6801 7.6335 7.4848 7.94598C7.352 8.17253 7.31294 8.38346 7.28169 9.03968C7.19575 10.9068 7.63323 11.4067 9.33627 11.4067C10.9534 11.4067 11.4065 10.938 11.4065 9.28966C11.4065 8.11004 11.1018 7.53976 10.3675 7.35227C9.97686 7.25852 8.69567 7.25071 8.32069 7.33664ZM10.0003 9.33654V10.0006H9.33627H8.67224V9.33654V8.67251H9.33627H10.0003V9.33654Z" fill="#26212E" stroke="#E1DCFF" stroke-width="0.5"/>
<path d="M12.8671 7.37591C12.1562 7.63371 11.9609 8.05557 11.9531 9.33675C11.9531 10.1648 11.9766 10.3211 12.1328 10.6257C12.4375 11.2351 12.8437 11.3991 14.0233 11.3991C15.0623 11.407 15.4686 11.2507 15.8435 10.7039C15.9998 10.4695 16.0154 10.3601 16.0154 9.36018C16.0154 8.16493 15.9685 7.98526 15.5467 7.63371C15.4139 7.51653 15.1795 7.39154 15.0155 7.34467C14.6014 7.2353 13.2187 7.25092 12.8671 7.37591ZM14.6092 9.33675V10.0008H13.9843H13.3593V9.33675V8.67272H13.9843H14.6092V9.33675Z" fill="#26212E" stroke="#E1DCFF" stroke-width="0.5"/>
<path d="M3.35216 12.1334C3.14123 12.2506 2.93812 12.4381 2.82875 12.6255C2.66469 12.9068 2.65688 13.0083 2.6725 14.0786C2.69594 15.0942 2.71157 15.2504 2.86 15.4379C3.22716 15.9379 3.35216 15.9769 4.57865 16.0004C5.60204 16.0238 5.72703 16.016 6.00045 15.8597C6.1567 15.7738 6.38325 15.5707 6.4848 15.4145C6.66448 15.1567 6.6801 15.0395 6.71135 14.1958C6.73479 13.188 6.67229 12.813 6.39106 12.4615C6.08639 12.0709 5.69578 11.9537 4.64115 11.9537C3.80526 11.9537 3.65683 11.9771 3.35216 12.1334ZM5.31299 13.9848V14.6098H4.68802H4.06306V13.9848V13.3599H4.68802H5.31299V13.9848Z" fill="#26212E" stroke="#E1DCFF" stroke-width="0.5"/>
<path d="M8.08589 12.1023C7.46093 12.3913 7.27344 12.8053 7.26562 13.9459C7.26562 14.8521 7.35156 15.2115 7.63279 15.5474C7.98434 15.9692 8.16401 16.0161 9.35926 16.0161C10.3592 16.0161 10.4686 16.0005 10.7029 15.8364C11.2498 15.4693 11.406 15.0709 11.406 13.985C11.406 12.8366 11.2342 12.446 10.6248 12.1257C10.3202 11.9773 10.1639 11.9538 9.33583 11.9538C8.59368 11.9538 8.33588 11.9851 8.08589 12.1023ZM9.99985 13.985V14.6099H9.33583H8.6718V13.985V13.36H9.33583H9.99985V13.985Z" fill="#26212E" stroke="#E1DCFF" stroke-width="0.5"/>
<path d="M12.9296 12.0083C12.6484 12.0786 12.25 12.4379 12.1016 12.766C11.9844 13.0238 11.9531 13.2738 11.9531 14.016C11.9531 15.1565 12.0859 15.5081 12.625 15.8284C12.9531 16.0237 12.9999 16.0237 14.0858 16.0002C15.1639 15.9768 15.2186 15.969 15.4842 15.7659C15.9373 15.4221 16.0154 15.1565 16.0154 13.9769C16.0154 13.016 15.9998 12.9223 15.8201 12.6098C15.5076 12.0786 15.1561 11.9536 14.0155 11.9614C13.5077 11.9692 13.0156 11.9926 12.9296 12.0083ZM14.6092 13.9847V14.6097H13.9843H13.3593V13.9847V13.3597H13.9843H14.6092V13.9847Z" fill="#26212E" stroke="#E1DCFF" stroke-width="0.5"/>
<path d="M3.39854 16.7658C2.74233 17.1096 2.63296 17.4064 2.67202 18.8282C2.69546 19.7969 2.71108 19.9063 2.88295 20.1485C3.19543 20.5859 3.57041 20.7031 4.6641 20.7031C5.66405 20.7031 5.93747 20.6484 6.24214 20.3672C6.6015 20.0313 6.71868 19.6407 6.71868 18.711C6.71868 18.2345 6.67962 17.7267 6.64056 17.5783C6.55463 17.258 6.16402 16.844 5.83591 16.7268C5.47656 16.5862 3.67978 16.6174 3.39854 16.7658ZM5.31251 18.672V19.2969H4.68754H4.06257V18.672V18.047H4.68754H5.31251V18.672Z" fill="#26212E" stroke="#E1DCFF" stroke-width="0.5"/>
<path d="M8.08583 16.7504C7.75772 16.891 7.44524 17.2816 7.33587 17.68C7.289 17.8675 7.26556 18.3675 7.28119 18.8674C7.31244 19.8439 7.40618 20.0939 7.86709 20.4455C8.14052 20.6564 8.18739 20.6642 9.21077 20.6876C10.1873 20.7111 10.2967 20.6955 10.6248 20.5314C11.2732 20.1955 11.4685 19.6408 11.3903 18.2893C11.3357 17.3909 11.0857 16.9378 10.5232 16.7269C10.2029 16.6019 8.37488 16.6254 8.08583 16.7504ZM9.99979 18.6721V19.2971H9.33577H8.67174V18.6721V18.0472H9.33577H9.99979V18.6721Z" fill="#26212E" stroke="#E1DCFF" stroke-width="0.5"/>
<path d="M12.7734 16.7502C12.4844 16.883 12.1485 17.2346 12.0391 17.5236C11.9297 17.8048 11.9297 19.3985 12.0313 19.7657C12.1172 20.086 12.5078 20.5 12.8359 20.6172C12.9609 20.6641 13.4843 20.7031 14.0155 20.7031C15.1561 20.7031 15.5467 20.5625 15.8436 20.0391C16.0076 19.7501 16.0154 19.6485 15.9998 18.5939C15.9764 17.547 15.9608 17.4377 15.7967 17.2033C15.4608 16.7424 15.1405 16.6408 14.0077 16.6408C13.3437 16.6487 12.9297 16.6799 12.7734 16.7502ZM14.6093 18.672V19.2969H13.9843H13.3593V18.672V18.047H13.9843H14.6093V18.672Z" fill="#26212E" stroke="#E1DCFF" stroke-width="0.5"/>
<path d="M21.3271 14.688V15.3911H22.0302H22.7333V14.688V13.9849H22.0302H21.3271V14.688Z" fill="#26212E"/>
<path d="M23.9834 14.688V15.3911H28.0066H32.0298V14.688V13.9849H28.0066H23.9834V14.688Z" fill="#26212E"/>
<path d="M21.3271 17.3438V18.0469H22.0302H22.7333V17.3438V16.6407H22.0302H21.3271V17.3438Z" fill="#26212E"/>
<path d="M23.9834 17.3438V18.0469H28.0066H32.0298V17.3438V16.6407H28.0066H23.9834V17.3438Z" fill="#26212E"/>
<path d="M21.3271 20V20.7031H22.0302H22.7333V20V19.2969H22.0302H21.3271V20Z" fill="#26212E"/>
<path d="M23.9834 20V20.7031H28.0066H32.0298V20V19.2969H28.0066H23.9834V20Z" fill="#26212E"/>
<path d="M37.0692 20.8908C36.7568 21.0392 35.5068 22.2579 30.843 26.9217L25.0074 32.773L24.1793 34.5698C23.7184 35.5541 23.3278 36.4603 23.3043 36.5697C23.2653 36.7884 23.3825 37.0853 23.5856 37.2415C23.8668 37.4602 24.234 37.3509 26.0464 36.515L27.851 35.6869L33.7413 29.82C38.4442 25.125 39.6628 23.8672 39.8113 23.5547C40.0222 23.1173 40.0613 22.5157 39.905 22.0158C39.78 21.6095 39.3035 21.0705 38.866 20.8674C38.366 20.633 37.5926 20.6408 37.0692 20.8908ZM38.4207 22.2892C38.6863 22.5392 38.6473 22.8438 38.2879 23.2266L37.9754 23.5547L37.5458 23.1251L37.1083 22.7032L37.3661 22.4376C37.7801 22.0001 38.0614 21.9611 38.4207 22.2892ZM36.5458 24.1641L36.9521 24.5781L36.7568 24.7656L36.5615 24.9531L36.1318 24.5312L35.7021 24.1094L35.874 23.9297C35.9677 23.8282 36.0615 23.75 36.0927 23.75C36.1162 23.75 36.3193 23.9375 36.5458 24.1641ZM35.1397 25.5703L35.5459 25.9765L31.2649 30.2419L26.9916 34.5151L26.2807 34.8354C25.8901 35.0073 25.5464 35.1557 25.523 35.1557C25.4995 35.1557 25.6323 34.8119 25.8276 34.3901L26.1792 33.6323L30.4133 29.3904C32.7413 27.0624 34.6631 25.1562 34.6866 25.1562C34.71 25.1562 34.9131 25.3437 35.1397 25.5703Z" fill="#26212E"/>
<path d="M21.3271 22.6563V23.3594H22.0302H22.7333V22.6563V21.9532H22.0302H21.3271V22.6563Z" fill="#26212E"/>
<path d="M23.9834 22.6563V23.3594H28.0066H32.0298V22.6563V21.9532H28.0066H23.9834V22.6563Z" fill="#26212E"/>
<path d="M14.07 24.0625C11.1482 24.6797 8.97649 27.039 8.68744 29.9216C8.46089 32.0856 9.1796 34.0464 10.7108 35.5151C11.5467 36.3041 12.2185 36.7025 13.3591 37.0697C14.234 37.3509 15.7418 37.429 16.6636 37.2337C18.7807 36.7962 20.4993 35.4448 21.3977 33.5074C21.7961 32.648 21.9524 32.0074 22.007 31.0387C22.1867 27.8983 20.1946 25.0937 17.1714 24.211C16.523 24.0235 14.6793 23.9376 14.07 24.0625ZM16.5855 25.5468C18.1869 25.9531 19.4447 26.9999 20.1556 28.5232C21.3118 31.0153 20.1946 34.1323 17.7026 35.3744C16.6323 35.9057 15.2574 36.0775 14.1403 35.8119C12.6872 35.476 11.2732 34.3589 10.6405 33.0464C10.203 32.1637 10.078 31.6168 10.078 30.6638C10.078 29.7107 10.2108 29.1638 10.6405 28.2811C11.0936 27.3514 12.0232 26.4218 12.9685 25.9531C13.3356 25.7734 13.8434 25.5781 14.1012 25.5156C14.7965 25.3515 15.8746 25.3594 16.5855 25.5468Z" fill="#26212E"/>
<path d="M14.6093 26.9921C14.6093 27.2108 14.5703 27.3593 14.5156 27.3749C13.7187 27.6015 13.086 28.0624 12.8125 28.6014C12.6094 28.9998 12.6016 29.6717 12.8047 30.0701C13 30.4529 13.5156 30.906 13.9687 31.1013C14.164 31.1872 14.7031 31.3044 15.1562 31.3591C16.0311 31.4684 16.4217 31.6169 16.5702 31.8903C16.7889 32.3043 15.7421 32.7496 14.9609 32.5777C14.5 32.4762 14.1562 32.2809 14.0937 32.0934C14.0547 31.9684 13.9531 31.9528 13.3516 31.9528H12.6563V32.1871C12.6563 32.4215 12.8516 32.8746 13.0625 33.1246C13.2735 33.3824 13.7812 33.7027 14.164 33.8355C14.5703 33.9683 14.5703 33.9761 14.5937 34.3277L14.6171 34.687H15.3202H16.0155V34.3433V33.9995L16.4295 33.8589C17.4529 33.523 18.0466 32.8121 18.0466 31.945C18.0466 31.57 17.7263 30.9372 17.4139 30.6638C16.9764 30.2966 16.3983 30.0779 15.6483 29.9998C14.6874 29.8904 14.5546 29.8591 14.2968 29.6326C14.0156 29.3982 14.0078 29.2967 14.2422 29.0779C14.5 28.8358 14.8281 28.7342 15.3593 28.7342C15.8827 28.742 16.4139 28.9451 16.578 29.2186C16.6639 29.3514 16.7655 29.3748 17.3592 29.3748C18.0232 29.3748 18.0466 29.367 18.0466 29.1951C18.0466 28.8748 17.6326 28.1795 17.2889 27.9217C17.0154 27.7108 16.5702 27.5077 16.1171 27.3749C16.0546 27.3593 16.0155 27.2108 16.0155 26.9921V26.6406H15.3124H14.6093V26.9921Z" fill="#26212E"/>
</svg>
