<svg width="32" height="40" viewBox="0 0 32 40" fill="none" xmlns="http://www.w3.org/2000/svg">
<path d="M7.31601 0.0259705C6.1431 0.136921 5.2555 0.564877 4.37581 1.44456C3.57538 2.24499 3.0444 3.34657 3.03648 4.19455V4.45608H2.43417C2.10925 4.45608 1.68129 4.49571 1.49109 4.54326C1.06314 4.65421 0.555933 5.07424 0.318181 5.51804L0.14383 5.84297L0.120055 20.3458C0.104205 30.6167 0.12798 34.9517 0.183455 35.2053C0.310256 35.7205 0.595559 36.1167 1.03144 36.3703C1.38807 36.5764 1.48317 36.5922 2.45795 36.616L3.49613 36.6477L3.52783 37.6938C3.55161 38.7003 3.55953 38.7637 3.78936 39.1282C3.95579 39.3898 4.16184 39.58 4.46299 39.7543L4.89887 40H17.6978H30.4968L30.8772 39.8098C31.2814 39.6117 31.5667 39.2947 31.7648 38.8271C31.8679 38.5735 31.8837 36.8696 31.8837 23.9359C31.8837 9.87683 31.8758 9.32207 31.7331 9.01299C31.5429 8.60089 31.1388 8.19671 30.7346 8.01444C30.481 7.89556 30.2195 7.86386 29.4507 7.86386H28.4918L28.4601 6.80983C28.4363 5.83504 28.4205 5.73994 28.2144 5.39124C28.0955 5.18519 27.8895 4.93951 27.7548 4.84441C27.2 4.45608 27.2713 4.45608 19.7504 4.45608C12.1107 4.45608 12.6258 4.48778 12.6258 4.04398C12.6258 3.71112 12.2058 2.65709 11.865 2.14989C10.8506 0.628277 9.18633 -0.156307 7.31601 0.0259705ZM8.44137 1.37323C9.84411 1.66646 10.9932 2.79974 11.2785 4.17078C11.334 4.44816 11.3578 5.87467 11.3419 8.50579L11.3182 12.4208L11.0725 12.8567C10.6049 13.6888 9.67768 14.1564 8.8614 13.9741C8.3542 13.8631 7.80737 13.5224 7.52999 13.1578C7.08619 12.5793 7.07826 12.5238 7.07826 8.41862V4.63836L7.27639 4.43231C7.52999 4.18663 7.78359 4.13115 8.10852 4.26588C8.5761 4.46401 8.58402 4.55911 8.58402 8.33937C8.58402 11.6441 8.59195 11.7551 8.74253 11.9056C8.84555 12.0087 9.00405 12.0641 9.21803 12.0641C9.43201 12.0641 9.59051 12.0087 9.69353 11.9056C9.84411 11.7551 9.85204 11.6441 9.85204 8.07784C9.85204 4.56703 9.84411 4.40061 9.68561 4.05983C9.47163 3.58432 9.1784 3.28317 8.7029 3.06127C7.62509 2.55407 6.34916 3.06919 5.9212 4.19455L5.78648 4.53533H5.04152C4.36789 4.53533 4.29656 4.51948 4.33619 4.39268C4.35204 4.32136 4.39959 4.13115 4.43129 3.98058C4.58979 3.17222 5.2872 2.22121 6.048 1.77741C6.45218 1.53966 7.28431 1.29398 7.72812 1.29398C7.88662 1.28606 8.21155 1.32568 8.44137 1.37323ZM5.731 9.01299C5.731 11.0814 5.7627 12.3653 5.81818 12.6348C6.15895 14.2435 7.57754 15.3927 9.21803 15.3927C10.6683 15.3927 11.9126 14.5209 12.4832 13.1103C12.6575 12.6665 12.6654 12.5951 12.6892 9.22697L12.713 5.80334H19.7504C26.7166 5.80334 26.78 5.80334 26.9543 5.96185L27.1287 6.12827V20.544C27.1287 34.8646 27.1287 34.9676 26.9702 35.1261C26.8117 35.2846 26.7086 35.2846 14.2901 35.2846H1.76054L1.57034 35.0865L1.37222 34.8963V20.544V6.19167L1.57034 6.00147L1.76054 5.80334H3.74973H5.731V9.01299ZM30.1244 9.21905C30.2591 9.2666 30.4017 9.3934 30.4493 9.51227C30.5127 9.67077 30.5365 13.7126 30.5206 24.0468C30.4968 37.678 30.4889 38.3754 30.3542 38.5101C30.2195 38.6448 29.5934 38.6527 17.7058 38.6765L5.20002 38.6924L4.98604 38.5259C4.78792 38.3674 4.77999 38.3437 4.77999 37.4957V36.6318L15.9781 36.616L27.1842 36.5922L27.5725 36.3545C27.8102 36.2039 28.048 35.9661 28.1986 35.7284L28.4363 35.3401L28.4601 22.232L28.4759 9.13187H29.1813C29.5617 9.13187 29.9896 9.1715 30.1244 9.21905Z" fill="#26212E"/>
<path d="M16.4619 10.3526C16.0577 10.5348 15.9784 11.0658 16.3113 11.3907L16.5015 11.5889H19.9172C23.2219 11.5889 23.3329 11.5809 23.4835 11.4304C23.6895 11.2243 23.6975 10.725 23.4914 10.4714L23.3408 10.2812L20.0202 10.2654C17.3574 10.2495 16.66 10.2654 16.4619 10.3526Z" fill="#26212E"/>
<path d="M16.3107 15.2737C16.1126 15.4639 16.0571 15.7888 16.1602 16.0662C16.2949 16.407 16.493 16.4229 19.9404 16.4229C23.1421 16.4229 23.2293 16.4149 23.4354 16.2564C23.6018 16.1296 23.6414 16.0266 23.6414 15.7492C23.6414 15.4718 23.6018 15.3688 23.4354 15.242C23.2293 15.0756 23.1421 15.0756 19.8612 15.0756H16.5009L16.3107 15.2737Z" fill="#26212E"/>
<path d="M5.00962 20.0603C4.74809 20.2743 4.74809 20.8132 5.00962 21.0272C5.18397 21.1698 5.48513 21.1777 14.2582 21.1777C23.2214 21.1777 23.3244 21.1777 23.4829 21.0192C23.586 20.9162 23.6415 20.7577 23.6415 20.5437C23.6415 20.3298 23.586 20.1713 23.4829 20.0682C23.3244 19.9097 23.2214 19.9097 14.2582 19.9097C5.48513 19.9097 5.18397 19.9176 5.00962 20.0603Z" fill="#26212E"/>
<path d="M5.17663 24.768C4.74076 24.9899 4.66943 25.5129 5.03398 25.8537C5.20833 26.0122 5.27173 26.0122 14.2508 26.0122C23.2458 26.0122 23.2933 26.0122 23.4677 25.8537C23.7054 25.6318 23.7134 25.0691 23.4756 24.8551C23.3171 24.7125 23.0318 24.7046 14.338 24.6887C7.26885 24.6729 5.33513 24.6887 5.17663 24.768Z" fill="#26212E"/>
<path d="M5.02575 29.6341C4.93065 29.7134 4.83555 29.9115 4.80385 30.07C4.76422 30.3236 4.79592 30.395 5.00197 30.6089L5.24765 30.8467L14.2743 30.8308C23.0315 30.8071 23.3168 30.7991 23.4753 30.6565C23.7289 30.4267 23.7051 29.8798 23.4357 29.6658C23.2217 29.4994 23.2058 29.4994 14.2109 29.4994C5.739 29.4994 5.18425 29.5073 5.02575 29.6341Z" fill="#26212E"/>
</svg>
