<svg width="21" height="20" viewBox="0 0 21 20" fill="none" xmlns="http://www.w3.org/2000/svg">
<path d="M8.61719 10.8962C9.00589 11.4158 9.50179 11.8458 10.0713 12.1569C10.6408 12.4681 11.2705 12.6531 11.9178 12.6995C12.5651 12.7458 13.2147 12.6524 13.8227 12.4256C14.4307 12.1988 14.9829 11.8439 15.4417 11.3849L18.157 8.66957C18.9813 7.81603 19.4375 6.67286 19.4271 5.48627C19.4168 4.29967 18.9409 3.1646 18.1018 2.32551C17.2628 1.48643 16.1277 1.01048 14.9411 1.00017C13.7546 0.98986 12.6114 1.44601 11.7579 2.27039L10.2011 3.81814" stroke="#9F9F9F" stroke-width="1.5" stroke-linecap="round" stroke-linejoin="round"/>
<path d="M12.2379 9.08586C11.8492 8.5662 11.3533 8.13622 10.7838 7.82508C10.2143 7.51394 9.58455 7.32892 8.93728 7.28256C8.29 7.2362 7.64032 7.32959 7.03231 7.5564C6.4243 7.78321 5.87218 8.13813 5.4134 8.59709L2.6981 11.3124C1.87374 12.166 1.41759 13.3092 1.42791 14.4958C1.43822 15.6823 1.91416 16.8174 2.75322 17.6565C3.59229 18.4956 4.72734 18.9715 5.91392 18.9818C7.10049 18.9922 8.24364 18.536 9.09716 17.7116L10.6449 16.1639" stroke="#9F9F9F" stroke-width="1.5" stroke-linecap="round" stroke-linejoin="round"/>
</svg>
