<svg width="16" height="15" viewBox="0 0 16 15" fill="none" xmlns="http://www.w3.org/2000/svg">
<path d="M8.00063 9.17847L3.20063 13.9618C2.94507 14.2174 2.63396 14.3479 2.26731 14.3535C1.90064 14.359 1.59787 14.2285 1.35898 13.9618C1.09232 13.7063 0.958984 13.3993 0.958984 13.041C0.958984 12.6827 1.09232 12.3702 1.35898 12.1035L6.15898 7.32015L1.35898 2.5118C1.09232 2.25625 0.958984 1.94931 0.958984 1.59097C0.958984 1.23264 1.09232 0.920148 1.35898 0.653498C1.59787 0.397932 1.90064 0.272932 2.26731 0.278498C2.63396 0.284048 2.94507 0.414599 3.20063 0.670149L8.00063 5.4535L12.8006 0.670149C13.0562 0.414599 13.3673 0.284048 13.734 0.278498C14.1006 0.272932 14.4034 0.397932 14.6423 0.653498C14.909 0.920148 15.0423 1.23264 15.0423 1.59097C15.0423 1.94931 14.9145 2.25625 14.659 2.5118L9.85896 7.32015L14.659 12.1035C14.9145 12.3702 15.0423 12.6827 15.0423 13.041C15.0423 13.3993 14.909 13.7063 14.6423 13.9618C14.4034 14.2285 14.1006 14.359 13.734 14.3535C13.3673 14.3479 13.0562 14.2174 12.8006 13.9618L8.00063 9.17847Z" fill="#A5A5A5"/>
</svg>
