<svg width="20" height="20" viewBox="0 0 20 20" fill="none" xmlns="http://www.w3.org/2000/svg">
<path d="M9.05117 2.89746H2.78915C2.31464 2.89746 1.85956 3.08596 1.52403 3.42149C1.1885 3.75702 1 4.2121 1 4.68661V17.2106C1 17.6852 1.1885 18.1402 1.52403 18.4758C1.85956 18.8113 2.31464 18.9998 2.78915 18.9998H15.3132C15.7877 18.9998 16.2428 18.8113 16.5783 18.4758C16.9138 18.1402 17.1023 17.6852 17.1023 17.2106V10.9486" stroke="#9F9F9F" stroke-width="1.5" stroke-linecap="round" stroke-linejoin="round"/>
<path d="M15.7602 1.55582C16.1161 1.19993 16.5988 1 17.1021 1C17.6054 1 18.0881 1.19993 18.4439 1.55582C18.7998 1.9117 18.9998 2.39438 18.9998 2.89768C18.9998 3.40097 18.7998 3.88366 18.4439 4.23954L9.94548 12.738L6.36719 13.6326L7.26176 10.0543L15.7602 1.55582Z" stroke="#9F9F9F" stroke-width="1.5" stroke-linecap="round" stroke-linejoin="round"/>
</svg>
