<svg width="40" height="40" viewBox="0 0 40 40" fill="none" xmlns="http://www.w3.org/2000/svg">
<path d="M9.77719 0.11084C8.57388 0.376507 7.36275 0.92347 6.48761 1.59545C5.59684 2.28306 4.68263 3.36136 4.22944 4.26775C3.5809 5.57265 3.36992 6.47904 3.30741 8.31527C3.27616 9.30762 3.23709 9.69049 3.15114 9.83114C3.08082 9.93272 3.01049 10.2453 2.98705 10.5187C2.91673 11.4173 3.37774 12.1674 4.25288 12.5816C4.79984 12.8394 4.84672 12.9019 4.84672 13.3317C4.84672 14.2693 5.39368 15.7227 6.09692 16.676C6.49542 17.2151 7.42526 18.0668 7.94096 18.3637L8.36291 18.5982V19.1607L8.35509 19.7233L7.63623 20.0593C7.22991 20.2469 6.36259 20.536 5.6281 20.7391C3.59652 21.2783 3.28397 21.4267 2.5026 22.1925C1.96345 22.7238 1.5962 23.388 1.43993 24.1459C1.37742 24.435 1.0258 27.3417 0.658556 30.6001C-0.0993776 37.3121 -0.122819 37.7575 0.260055 38.531C0.533536 39.0858 1.11957 39.6249 1.68997 39.8359C2.09628 39.9922 2.28381 40 5.15146 40C7.98003 40 8.191 39.9922 8.30821 39.8594C8.54262 39.6015 8.55825 39.2733 8.33947 39.0155L8.14412 38.7889L6.93299 38.7654L5.71405 38.7342L5.76093 38.0622C6.01097 34.0069 6.29226 27.7402 6.23757 27.584C6.08129 27.162 5.54996 27.0448 5.24522 27.373C5.08895 27.5371 5.06551 27.6777 5.003 28.7482C4.96393 29.4046 4.90923 29.9593 4.88579 29.9828C4.84672 30.0218 2.1041 29.7718 2.0494 29.7249C2.01033 29.6859 2.58855 24.7319 2.6745 24.3725C2.88547 23.513 3.40899 22.8957 4.30757 22.4738C4.92486 22.1847 6.87048 21.669 6.95643 21.7705C6.98769 21.8018 7.33931 22.255 7.73781 22.7707C8.13631 23.2864 8.5895 23.8412 8.74578 23.9975C9.22242 24.5132 9.80845 24.5757 10.4023 24.1772L10.707 23.9818V25.3414C10.707 26.8729 10.7539 27.0604 11.1446 27.1855C11.4337 27.2792 11.8166 27.1386 11.9103 26.912C11.9338 26.8417 11.9572 26.1306 11.9572 25.3258V23.8724L12.176 24.0756C12.8324 24.7085 13.5669 24.5444 14.2935 23.6146C14.5279 23.3255 14.692 23.1536 14.6608 23.2395C14.5826 23.4505 14.4576 24.56 14.4576 25.0054C14.4576 25.2633 14.4107 25.4039 14.3092 25.4977C14.1216 25.6618 13.9107 26.2556 13.9107 26.5916C13.9107 26.7245 13.9497 26.9745 13.9966 27.1464C14.106 27.5527 14.7936 28.2325 15.2234 28.3653C15.5125 28.4513 15.5437 28.4904 15.5906 28.7638C15.7313 29.5999 16.6377 30.897 17.4347 31.4205C17.7941 31.6471 17.8175 31.6862 17.8175 31.9909V32.3113L16.6064 32.6082C14.692 33.077 13.9888 33.5068 13.4887 34.4913C13.2699 34.9211 13.2152 35.2805 12.8558 38.2966L12.8089 38.7498H11.7228C10.6133 38.7498 10.2929 38.8123 10.1132 39.0467C9.95691 39.2499 9.98035 39.6328 10.1601 39.8281L10.3242 40H19.8413C28.874 40 29.3741 39.9922 29.5382 39.8594C29.7726 39.6718 29.7726 39.1874 29.546 38.953C29.3897 38.8045 29.2725 38.7889 28.288 38.7654L27.2018 38.7342L27.1628 38.4529C27.1393 38.2888 27.0456 37.5309 26.9596 36.7573C26.8737 35.9837 26.7486 35.1633 26.6861 34.9289C26.4752 34.1319 25.8188 33.413 24.9906 33.0692C24.764 32.9754 24.0373 32.7645 23.3887 32.6004L22.1932 32.3113V31.9831C22.1932 31.6862 22.2167 31.6471 22.6308 31.3658C23.4122 30.8267 24.092 29.8656 24.342 28.9436C24.4748 28.4904 24.4827 28.4669 24.8968 28.2872C25.7485 27.9121 26.2408 27.0292 26.0376 26.24C25.9438 25.8806 25.9673 25.779 26.147 25.779C26.4752 25.779 28.2176 24.7788 28.5145 24.4272C28.6005 24.3178 28.6786 24.3491 29.1709 24.7241C29.4756 24.9585 29.9757 25.2711 30.2726 25.4274C32.0542 26.3181 33.3591 25.9821 34.0623 24.4507C34.3124 23.9115 34.5389 22.9426 34.5389 22.4191C34.5389 22.044 34.578 22.0362 35.2734 22.2941C36.4455 22.716 37.1253 23.4114 37.3519 24.4116C37.4144 24.6929 37.977 29.428 37.977 29.678C37.977 29.7327 35.6798 30.0062 35.2734 29.9984C35.1094 29.9984 35.1015 29.9515 35.0547 28.9279C35.0234 28.3341 34.9843 27.7715 34.9609 27.6699C34.8671 27.2011 34.328 27.0448 33.9373 27.373L33.7263 27.5605L33.9764 32.5066C34.117 35.2336 34.2577 37.7496 34.2811 38.1091L34.328 38.7498H33.1168C31.8588 38.7498 31.4681 38.8201 31.3353 39.0624C31.2103 39.3046 31.2494 39.6796 31.4134 39.8437C31.5619 39.9922 31.6713 40 34.7343 40C37.7738 40 37.9067 39.9922 38.3442 39.8359C38.9381 39.6093 39.4616 39.1092 39.7429 38.4919C40.118 37.6715 40.1023 37.3511 39.3444 30.5844C38.9772 27.2714 38.6255 24.3569 38.5552 24.099C38.2661 22.9113 37.5551 21.9971 36.5002 21.4502C35.8751 21.122 35.164 20.9032 33.0387 20.3797C32.273 20.1922 31.6479 20.0124 31.6479 19.9812C31.6479 19.9499 32.5074 19.9187 33.5466 19.9187C35.3906 19.9187 35.461 19.9109 35.797 19.739C36.0157 19.6218 36.2189 19.4264 36.3674 19.192L36.5861 18.8326L36.8049 15.1757C37.0003 11.9252 37.0862 10.0812 37.0472 9.65924C37.0003 9.05758 35.8673 9.09665 35.8673 9.6983C35.8673 10.089 35.3906 18.0981 35.3516 18.3325C35.3281 18.5122 35.2656 18.5982 35.1406 18.6294C35.0468 18.6529 34.2186 18.6607 33.3044 18.6529L31.64 18.6294L32.2417 18.2387C33.4294 17.4652 34.4139 16.1915 34.8593 14.871C35.2578 13.6911 35.3828 11.2376 35.0625 10.7453C34.8515 10.4328 34.4921 10.2453 33.9998 10.1906C32.1167 10.003 31.3119 9.79988 30.046 9.1826C29.0303 8.69033 28.1317 8.03398 27.3894 7.24479C26.7408 6.54937 26.6314 6.48685 26.1626 6.47904C25.8266 6.47904 25.7563 6.51811 25.3031 6.91661C24.6233 7.52608 24.0842 7.85426 23.3809 8.08867C22.0526 8.53406 22.0917 8.43248 22.1385 11.5267C22.1776 14.2381 22.201 14.3631 22.7714 15.5821C23.3184 16.7307 24.0842 17.598 25.2015 18.3247L25.6703 18.6294L23.881 18.6529C22.5058 18.6685 22.0604 18.645 21.9901 18.5747C21.8807 18.4575 21.3259 9.26073 21.3806 8.51061C21.5916 5.66641 22.3261 4.20524 23.8263 3.62703C24.2951 3.45512 24.4123 3.36136 24.6858 3.00193C25.2797 2.21274 26.3189 1.59545 27.4128 1.36104C28.1317 1.21258 29.5772 1.21258 30.3352 1.35323C31.601 1.59545 32.609 2.17367 33.6872 3.27541C34.7265 4.33026 35.3594 5.47107 35.6719 6.84629C35.8204 7.4792 35.9689 7.66673 36.383 7.67455C36.7424 7.68236 36.9612 7.44794 36.9612 7.03382C36.9612 6.18993 36.172 4.25994 35.4141 3.27541C34.3202 1.82986 32.5933 0.626549 31.0306 0.212418C30.2805 0.0170746 28.3583 -0.0688744 27.5144 0.0639572C26.0532 0.290558 24.6702 1.02505 23.8341 2.02521C23.6544 2.23618 23.4747 2.41589 23.4278 2.41589C23.2168 2.41589 22.4198 2.90034 22.0135 3.27541C20.8962 4.30682 20.3414 5.76799 20.1695 8.159C20.107 8.94818 20.1226 9.6983 20.2398 11.6361C20.3257 12.9879 20.4508 15.082 20.5133 16.2853C20.5836 17.4886 20.6696 18.606 20.7086 18.7622L20.7711 19.0592H20.0366C19.2396 19.0592 18.7161 19.1451 18.0207 19.3952C17.5519 19.5592 16.5361 20.1765 16.3486 20.4031C16.2157 20.5672 16.0594 20.5282 15.1452 20.0906L14.3795 19.739V19.1686V18.606L15.0358 18.1684C16.0516 17.4886 16.7158 16.6994 17.2862 15.4883C17.5988 14.8241 17.8957 13.6677 17.8957 13.0973C17.8957 12.8863 17.9347 12.7925 18.0363 12.7535C18.7317 12.5191 19.31 12.0424 19.56 11.4876C19.7632 11.0188 19.7632 10.2843 19.56 9.87802C19.4272 9.61235 19.3959 9.3545 19.3568 8.19806C19.3178 6.69783 19.1771 5.93989 18.7708 4.93192C18.1145 3.32229 16.8877 1.92363 15.3484 1.02505C14.7233 0.657803 13.6216 0.251488 12.9027 0.118652C12.1057 -0.0376205 10.4726 -0.0376205 9.77719 0.11084ZM12.1604 1.27509C13.5512 1.3923 15.4343 2.38464 16.4032 3.50201C17.4581 4.71313 18.0051 6.11179 18.1066 7.82301L18.1535 8.65907L17.7081 8.5575C17.0127 8.39341 16.7158 8.02616 16.5595 7.12758C16.4345 6.37746 16.4189 6.33839 16.161 6.04929C15.6766 5.48669 15.4812 5.46325 13.3637 5.69767C12.2854 5.80706 9.99598 5.79143 8.8708 5.65078C7.76906 5.51795 7.12833 5.54139 6.83923 5.72892C6.47979 5.96333 6.2532 6.36184 6.17506 6.87754C6.05785 7.64329 5.94065 7.9324 5.63591 8.22151C5.43275 8.41685 5.23741 8.51061 4.94049 8.56531L4.53417 8.64345V8.28402C4.53417 7.06507 4.92486 5.58046 5.51089 4.5803C5.93283 3.86144 6.79234 2.9316 7.48777 2.43152C8.56606 1.66578 10.3163 1.13444 11.4493 1.22039C11.5822 1.22821 11.8947 1.25165 12.1604 1.27509ZM9.0974 6.91661C10.4492 7.05726 13.0199 7.03382 14.356 6.86192C14.8014 6.80722 15.1843 6.78378 15.2156 6.81503C15.239 6.84629 15.2937 7.10414 15.325 7.38544C15.4109 8.07305 15.786 8.81535 16.2704 9.25292L16.6455 9.58891V11.3783C16.6455 12.8082 16.6142 13.3004 16.497 13.863C16.2392 15.121 15.5047 16.2775 14.5201 16.9729C13.5122 17.6839 12.762 17.9496 11.5665 18.0121C10.5586 18.0668 9.94128 17.9418 8.98801 17.4808C8.05817 17.0354 7.12052 16.0978 6.6517 15.1523C6.11255 14.0584 6.08129 13.8708 6.04222 11.6127L6.00316 9.59673L6.3704 9.27636C6.94862 8.76847 7.25336 8.16681 7.38619 7.26041C7.41744 7.06507 7.45651 6.88536 7.47995 6.84629C7.52684 6.76815 7.76906 6.77596 9.0974 6.91661ZM26.858 8.51843C28.5849 10.1437 30.929 11.1907 33.3044 11.3861L33.9529 11.4408L33.9764 12.1674C34.0076 13.2457 33.8279 14.1834 33.4138 15.0351C31.9057 18.1293 27.9285 19.0045 25.3187 16.8088C24.4358 16.0665 23.8419 15.1523 23.5528 14.0974C23.3965 13.5192 23.3106 11.8783 23.3653 10.4641L23.4044 9.41701L23.7482 9.31543C24.3186 9.15134 25.1781 8.68252 25.6703 8.2762C25.9282 8.06523 26.1548 7.89333 26.1704 7.89333C26.1861 7.88551 26.4986 8.16681 26.858 8.51843ZM4.72952 11.3939C4.63575 11.4798 4.22162 10.9329 4.22162 10.7297C4.22162 10.4797 4.34664 10.2296 4.56543 10.0577L4.72952 9.9249L4.75296 10.636C4.76077 11.0266 4.75296 11.3626 4.72952 11.3939ZM18.3411 10.2765C18.5286 10.5656 18.4895 10.9172 18.2395 11.1751C18.1223 11.3001 17.9973 11.4017 17.9582 11.4017C17.9269 11.4017 17.8957 11.0657 17.8957 10.6594C17.8957 9.93272 17.9035 9.91709 18.0519 9.99523C18.1379 10.0421 18.2629 10.1671 18.3411 10.2765ZM11.3321 19.2858C11.7384 19.2858 12.2932 19.2389 12.5667 19.1842L13.0512 19.0748V19.4811V19.8874L12.1995 20.6844L11.3399 21.4814L10.4804 20.6844L9.62092 19.8796V19.4811L9.6131 19.0748L10.1054 19.1842C10.371 19.2389 10.9258 19.2858 11.3321 19.2858ZM27.5769 19.2154C28.1473 19.3248 29.2334 19.3092 29.8741 19.1842L30.3977 19.0826V19.739C30.3977 20.1297 30.4445 20.4969 30.5071 20.661C30.6399 20.9735 30.9993 21.2158 31.4291 21.2861C31.5932 21.3173 31.726 21.372 31.726 21.4111C31.726 21.5361 30.8352 22.2003 30.3586 22.4191C29.1475 22.9739 27.9441 22.9348 26.7252 22.2941C26.4439 22.1456 26.061 21.8721 25.8735 21.6846L25.5453 21.3486L25.9673 21.2548C26.2564 21.1923 26.4595 21.0907 26.6158 20.9267C26.8346 20.7001 26.8424 20.6532 26.8659 19.8718C26.8893 19.1529 26.9127 19.0592 27.0221 19.0904C27.1003 19.1139 27.3425 19.1686 27.5769 19.2154ZM25.6313 19.989C25.6313 20.0281 25.2171 20.1609 24.7093 20.2859L23.795 20.5125L23.42 20.2156L23.0371 19.9187H24.3342C25.0452 19.9187 25.6313 19.9499 25.6313 19.989ZM21.0602 20.4266C22.498 20.8016 23.7325 22.044 24.0998 23.4817C24.217 23.9193 24.2717 24.5288 24.1936 24.5288C24.1779 24.5288 24.0295 24.4741 23.8654 24.4038C23.4044 24.2162 23.0762 23.9349 22.7871 23.4817C22.4433 22.9504 22.2479 22.8098 21.8104 22.8098C21.5056 22.8098 21.4353 22.8488 21.1853 23.1301C20.3804 24.0443 20.021 24.3022 19.1537 24.56C18.6302 24.7163 17.4972 24.7241 16.8017 24.5679C16.3876 24.4819 16.247 24.4819 16.0047 24.5679L15.7078 24.6694L15.7547 24.2241C15.8172 23.599 16.0673 22.841 16.3798 22.3253C16.8955 21.4814 17.9504 20.6922 18.9193 20.4344C19.4819 20.2859 20.4898 20.2781 21.0602 20.4266ZM14.4733 21.2939C14.442 21.3486 14.106 21.7862 13.7309 22.2628L13.0355 23.1458L12.6448 22.7629L12.2542 22.38L13.059 21.6221L13.856 20.872L14.192 21.036C14.4107 21.1376 14.5123 21.2314 14.4733 21.2939ZM9.63655 21.6143C10.035 21.9893 10.371 22.3097 10.3945 22.3253C10.4101 22.3331 10.246 22.5207 10.035 22.7394L9.63655 23.1379L8.95675 22.2628C8.58169 21.7862 8.26133 21.3486 8.23789 21.2939C8.19882 21.2001 8.61295 20.9501 8.8161 20.9423C8.8708 20.9345 9.23805 21.2392 9.63655 21.6143ZM33.2966 22.255C33.2497 23.3489 32.859 24.3178 32.3433 24.5913C32.0151 24.771 31.3353 24.5835 30.4914 24.0912L30.1476 23.8881L30.7337 23.6302C31.5228 23.2942 32.273 22.7473 32.7262 22.1847C33.2028 21.583 33.3278 21.5986 33.2966 22.255ZM26.2954 23.5286C26.5142 23.638 26.8033 23.7552 26.9518 23.7865L27.2175 23.8412L26.8424 24.0756C26.3736 24.3647 25.8266 24.6069 25.6235 24.6069C25.4984 24.6069 25.475 24.5522 25.475 24.2631C25.475 23.9115 25.3734 23.2708 25.2718 23.0129C25.225 22.8879 25.2797 22.9035 25.561 23.0989C25.7485 23.2317 26.0845 23.427 26.2954 23.5286ZM22.8652 25.3258L23.2872 25.5602V26.7166C23.2872 27.3495 23.2559 28.045 23.209 28.2716C23.0215 29.2795 22.3026 30.2016 21.3572 30.6469C20.8649 30.8814 20.7711 30.897 20.0054 30.897C19.2474 30.897 19.1459 30.8814 18.6614 30.6469C17.9269 30.3031 17.4034 29.7874 17.0518 29.0686L16.7627 28.4747L16.7392 27.1776L16.708 25.8806L17.7316 25.9196C18.5286 25.9509 18.8802 25.9274 19.3256 25.8181C20.0835 25.6383 20.8883 25.232 21.4119 24.771L21.8416 24.3881L22.1463 24.7319C22.3104 24.9273 22.6386 25.193 22.8652 25.3258ZM15.4734 26.5994C15.4734 27.0604 15.4343 27.1073 15.2703 26.8885C15.1374 26.7166 15.1374 26.5213 15.2546 26.3259C15.4187 26.0681 15.4734 26.1462 15.4734 26.5994ZM24.8499 26.5994C24.8499 26.6541 24.7796 26.7791 24.6936 26.8807L24.5452 27.0683V26.5994V26.1306L24.6936 26.3181C24.7796 26.4197 24.8499 26.5447 24.8499 26.5994ZM3.44025 31.1392C4.1513 31.2095 4.75296 31.2955 4.7764 31.3189C4.80765 31.3424 4.74514 32.9676 4.64356 34.9211C4.54199 36.8745 4.46385 38.5388 4.45603 38.6092C4.45603 38.7342 4.35446 38.7498 3.40899 38.7498C2.83078 38.7498 2.26037 38.7107 2.13535 38.6638C1.57276 38.4529 1.26021 37.8825 1.2524 37.0855C1.2524 36.7964 1.39305 35.3274 1.56495 33.8193C1.73685 32.3113 1.8775 31.0611 1.8775 31.0455C1.8775 30.9908 2.09628 31.0064 3.44025 31.1392ZM38.1333 31.0533C38.1333 31.0689 38.2739 32.3347 38.4458 33.8584C38.6177 35.3821 38.7584 36.8589 38.7584 37.1402C38.7584 37.8981 38.4302 38.4529 37.8754 38.6638C37.7504 38.7107 37.18 38.7498 36.6018 38.7498C35.6563 38.7498 35.5547 38.7342 35.5547 38.6092C35.5547 38.5388 35.4688 36.8589 35.3594 34.8898C35.25 32.9129 35.1719 31.2955 35.1797 31.2877C35.2187 31.2564 37.4691 31.0376 37.8051 31.022C37.9848 31.022 38.1333 31.0298 38.1333 31.0533ZM20.943 32.4441C20.943 32.6082 20.9977 32.8661 21.0602 33.0145C21.1227 33.1708 21.154 33.3271 21.1384 33.3661C21.0681 33.4677 20.3257 33.6709 20.0054 33.6709C19.685 33.6709 18.9427 33.4677 18.8724 33.3661C18.8568 33.3271 18.888 33.1708 18.9505 33.0145C19.013 32.8661 19.0677 32.6082 19.0677 32.4441V32.1472H20.0054H20.943V32.4441ZM17.7707 34.1319C18.5364 34.7179 19.013 34.8742 20.0054 34.8742C20.9977 34.8742 21.4744 34.7179 22.2401 34.1319L22.748 33.749L23.5372 33.9522C24.4358 34.1788 24.7952 34.3428 25.0999 34.6632C25.4437 35.0226 25.5453 35.3899 25.7094 36.8511C25.7954 37.6168 25.8813 38.3591 25.9048 38.4919L25.9516 38.7498H25.2093H24.4748L24.4201 38.07C24.3498 37.2652 24.3108 37.1636 23.9904 37.0308C23.8029 36.9526 23.7091 36.9526 23.5294 37.0308C23.2012 37.1636 23.0996 37.4683 23.17 38.1638L23.2246 38.7498H20.0288H16.833L16.8643 38.0856C16.8877 37.5699 16.8721 37.3824 16.7783 37.2339C16.5361 36.8667 15.9032 36.9136 15.7156 37.3121C15.6688 37.4215 15.6297 37.6793 15.6297 37.8825C15.6297 38.0934 15.6062 38.3747 15.5828 38.5076L15.5359 38.7498H14.7936H14.0591L14.0982 38.4919C14.1216 38.3591 14.1998 37.734 14.2623 37.1167C14.5358 34.6241 14.6608 34.4366 16.372 33.9756C16.8017 33.8584 17.1768 33.7568 17.2081 33.7568C17.2393 33.749 17.4894 33.9209 17.7707 34.1319Z" fill="#26212E"/>
</svg>
