<svg width="34" height="40" viewBox="0 0 34 40" fill="none" xmlns="http://www.w3.org/2000/svg">
<path d="M11.1708 0.102261C8.99765 0.641628 7.34827 2.58805 6.76982 5.29272C6.21481 7.86449 6.42587 10.6395 7.317 12.4609L7.55151 12.9455L7.38736 13.2816C7.01214 14.0633 7.10595 14.7043 7.69222 15.3141C7.96581 15.6033 8.12215 15.8534 8.31757 16.3772C8.63025 17.2292 9.36505 18.7066 9.83406 19.4649L10.1936 20.0433V21.5676V23.0919L9.63082 23.1545C9.31814 23.1779 8.6068 23.3264 8.04398 23.4671C4.54198 24.3661 2.07964 26.2812 1.17287 28.8061L0.930549 29.4862L0.907098 34.4265C0.891465 37.9129 0.914915 39.4215 0.969634 39.5388C1.01654 39.6248 1.17287 39.7655 1.30576 39.8437C1.54809 40 1.82168 40 14.9464 40C26.6718 40 28.3681 39.9844 28.5635 39.8827C29.0169 39.6482 29.0325 39.5857 29.0325 37.6158V35.8101L29.6031 35.6772C30.5021 35.4662 31.104 35.13 31.7763 34.4578C32.7065 33.5197 33.0973 32.5583 33.0973 31.1668C33.0973 29.7754 32.7065 28.8139 31.7763 27.8759C30.7835 26.891 29.8533 26.5314 28.3212 26.5705L27.4144 26.5861L26.8359 26.0624C25.3273 24.6553 23.3261 23.7251 20.942 23.303C20.598 23.2404 20.1837 23.1935 20.0274 23.1935H19.7303V21.6145V20.0433L20.0743 19.4883C20.5589 18.7066 21.2234 17.3465 21.5595 16.4553C21.7158 16.041 21.8409 15.6658 21.8409 15.6346C21.8409 15.6033 21.966 15.4938 22.1145 15.4C22.7008 15.017 22.904 14.0477 22.5522 13.3207L22.3725 12.9533L22.5288 12.539C22.9196 11.4916 23.1698 9.51387 23.1698 7.44238C23.1698 5.793 23.0525 4.84715 22.732 3.89348C22.4741 3.13524 22.3099 2.85383 21.7706 2.30664C21.2234 1.72819 20.8091 1.57966 19.9961 1.6422L19.4255 1.68129L19.2691 1.43896C18.9564 0.938675 18.1591 0.469658 17.1664 0.196064C16.627 0.0475426 16.3221 0.0240898 14.1021 0.00845718C12.1244 -0.0149956 11.546 0.00845718 11.1708 0.102261ZM16.4003 1.26699C17.737 1.54058 18.2764 1.87671 18.4327 2.5177C18.5656 3.03362 18.761 3.11179 19.4489 2.92418C20.1837 2.72876 20.512 2.75221 20.8794 3.01798C21.9269 3.77623 22.349 7.17661 21.794 10.4519C21.7237 10.8584 21.6455 11.2414 21.6064 11.304C21.5126 11.4681 20.9185 9.56078 20.7856 8.65401C20.6371 7.64562 20.5511 7.30949 20.3166 6.84829C19.785 5.80864 18.8705 5.6523 17.1898 6.30111C16.7208 6.48871 16.0251 6.75449 15.6577 6.90301C14.8604 7.20787 12.7889 7.63781 12.101 7.63781C11.8352 7.63781 11.3975 7.56745 11.1239 7.48928C10.3734 7.26259 10.0998 7.23914 9.66209 7.33294C9.15399 7.44238 8.63025 7.88013 8.41138 8.40387C8.2394 8.79471 8.01271 9.92817 7.99708 10.4441C7.98926 10.7099 7.98144 10.7021 7.87201 10.2956C7.69222 9.61549 7.65313 7.36421 7.80165 6.46526C8.32539 3.26813 9.82625 1.42332 12.1088 1.14973C12.9687 1.04029 15.689 1.11847 16.4003 1.26699ZM19.1753 7.31731C19.3707 7.59872 19.4567 7.9114 19.6443 8.98232C19.9258 10.5457 20.8169 13.1019 21.2625 13.5943C21.622 14.0008 21.6064 14.1962 21.1843 14.5949C20.8951 14.8685 20.7934 15.0405 20.5824 15.6736C20.215 16.7524 19.2691 18.5815 18.6829 19.3632C18.0028 20.2856 17.2133 20.997 16.4707 21.3644C15.8688 21.6692 15.8531 21.6692 14.962 21.6692C14.0709 21.6692 14.0552 21.6692 13.4533 21.3644C11.8977 20.5905 10.3891 18.519 9.40413 15.8222C9.10709 15.0092 9.03673 14.8685 8.77096 14.6887C8.2394 14.3057 8.22377 13.8914 8.73969 13.4458C8.98983 13.2269 8.98983 13.2113 9.09927 11.4759C9.19307 9.8969 9.33378 9.07612 9.5761 8.67746C9.77153 8.35696 9.95132 8.34915 10.7017 8.61492C11.4913 8.88852 12.4137 8.8807 13.977 8.57584C15.3372 8.31006 15.8609 8.14591 17.1898 7.55964C18.5343 6.97336 18.9017 6.93428 19.1753 7.31731ZM12.9061 22.4275C13.6253 22.7714 14.1334 22.8809 14.9698 22.8809C16.1423 22.8809 17.1898 22.4822 18.1669 21.6692C18.3467 21.5207 18.5109 21.3956 18.5265 21.3956C18.5422 21.3956 18.5578 21.8647 18.5578 22.4353V23.475L16.8302 25.523C15.8844 26.6486 15.0792 27.571 15.0402 27.571C15.0011 27.571 14.149 26.633 13.1328 25.4761L11.2958 23.389L11.288 22.3571V21.3175L11.8587 21.763C12.1635 22.0054 12.6404 22.3024 12.9061 22.4275ZM12.6013 26.7112L14.6884 29.0953H15.0089H15.3294L17.3071 26.7503C18.3858 25.4605 19.3082 24.3739 19.3473 24.327C19.4489 24.2254 20.7778 24.4052 21.7237 24.6553C22.7008 24.9133 23.7482 25.3276 24.5221 25.7731C25.1475 26.1327 26.1481 26.8597 26.195 26.9848C26.2106 27.0317 26.0621 27.1646 25.8745 27.2818C25.3585 27.6101 24.6237 28.4309 24.3501 28.9937C24.0062 29.6973 23.8733 30.307 23.8733 31.1668C23.8733 32.5583 24.2642 33.5197 25.1944 34.4578C25.8666 35.13 26.4685 35.4662 27.3753 35.6772L27.9381 35.8101V37.3579V38.9056H25.6712H23.4043V36.5449C23.4043 34.4656 23.3887 34.1686 23.2714 34.0435C23.1151 33.8637 22.6461 33.8559 22.4506 34.0357C22.3177 34.1529 22.3099 34.3327 22.3099 36.5371V38.9056H14.962H7.61405V36.5449C7.61405 34.4656 7.59841 34.1686 7.48116 34.0435C7.32482 33.8637 6.8558 33.8559 6.66038 34.0357C6.52749 34.1529 6.51967 34.3327 6.51967 36.5371V38.9056H4.24494H1.97802L2.00929 34.4656C2.04056 29.5722 2.02492 29.7129 2.56429 28.6263C3.63522 26.4767 6.23045 24.9367 9.8028 24.3348C10.4594 24.2254 10.3578 24.1394 12.6013 26.7112ZM29.9784 28.0557C30.2989 28.212 30.6584 28.4465 30.7757 28.5716L30.9946 28.7983L30.7913 28.7592C30.6115 28.728 30.3927 28.9156 28.9153 30.393L27.2424 32.058L26.8125 31.6515C26.5702 31.4248 26.3122 31.245 26.2184 31.245C25.9995 31.245 25.593 31.6515 25.593 31.8782C25.593 31.9876 25.8354 32.2925 26.2731 32.738C27.2893 33.7777 27.0861 33.8559 29.3999 31.5342C30.4396 30.4946 31.3229 29.5565 31.362 29.4549C31.4245 29.2908 31.4479 29.3142 31.659 29.7676C31.8701 30.2288 31.8857 30.3382 31.8857 31.1668C31.8857 32.0189 31.8701 32.0971 31.6356 32.5973C31.2916 33.3243 30.7053 33.9184 29.9784 34.278C29.4077 34.5594 29.3765 34.5672 28.4853 34.5672C27.5942 34.5672 27.5629 34.5594 26.9923 34.278C26.2653 33.9184 25.679 33.3243 25.3351 32.5973C25.1006 32.0971 25.0849 32.0189 25.0849 31.1668C25.0849 30.3148 25.1006 30.2366 25.3351 29.7442C25.7572 28.853 26.4764 28.2042 27.43 27.8603C27.7271 27.7586 28.0085 27.7274 28.6104 27.743C29.3374 27.7665 29.4468 27.7899 29.9784 28.0557Z" fill="#26212E"/>
<path d="M5.71401 29.0405C5.53422 29.2359 5.54203 29.7049 5.72182 29.8613C5.84689 29.9785 6.07359 29.9941 7.2774 29.9941C8.85642 29.9941 8.94241 29.9629 8.94241 29.4313C8.94241 28.931 8.84079 28.8998 7.24613 28.8998C5.97978 28.8998 5.82344 28.9154 5.71401 29.0405Z" fill="#26212E"/>
</svg>
