<svg width="40" height="30" viewBox="0 0 40 30" fill="none" xmlns="http://www.w3.org/2000/svg">
<path d="M1.34407 0.229467C0.797068 0.502972 0.453234 0.870249 0.187545 1.43288L0 1.83142V12.0292V22.227L0.187545 22.6255C0.453234 23.1881 0.797068 23.5554 1.34407 23.8289L1.82075 24.0633H14.8864H27.9599L28.0146 24.5791C28.2881 27.1657 30.0619 29.2208 32.5782 29.8538C33.5315 30.0961 35.0163 30.0414 35.9071 29.7366C37.681 29.1349 39.1032 27.7205 39.7205 25.9544C39.9315 25.3605 39.9628 25.1417 39.994 24.2509C40.0331 23.0475 39.8846 22.2895 39.4158 21.3439C39.1188 20.7422 38.3218 19.6717 38.0561 19.531C37.9076 19.4529 37.8998 19.3747 37.8842 10.5992L37.8607 1.75327L37.6732 1.37037C37.4465 0.901505 37.0089 0.456083 36.5557 0.213837L36.2197 0.0341072L19.0202 0.010664L1.82857 -0.00496292L1.34407 0.229467ZM35.9462 1.44851C36.0947 1.53447 36.2978 1.72202 36.3916 1.87049L36.5713 2.12836V10.3335C36.5713 18.1088 36.5635 18.5308 36.4385 18.4761C35.3445 18.0541 34.3052 17.9056 33.344 18.0306C31.9061 18.2182 30.7418 18.7808 29.765 19.7576C29.0539 20.4844 28.6007 21.2111 28.3115 22.1176L28.0927 22.813H15.3162C7.77532 22.813 2.41465 22.7818 2.2271 22.7349C2.02393 22.688 1.81294 22.5552 1.62539 22.352L1.32845 22.0394V12.0292V2.01896L1.62539 1.69857C1.83638 1.47977 2.01611 1.36255 2.23491 1.32348C2.39902 1.29222 9.9946 1.26878 19.1062 1.2766C35.6649 1.28441 35.6727 1.28441 35.9462 1.44851ZM34.9147 19.4216C36.6417 19.7732 38.1186 21.1642 38.564 22.8599C38.7125 23.4382 38.7125 24.5947 38.564 25.1574C38.1342 26.7906 36.7901 28.1268 35.1647 28.5566C34.6099 28.7051 33.4456 28.7051 32.8751 28.5566C31.1638 28.1112 29.7806 26.6577 29.4134 24.9073C29.0226 23.1022 29.89 21.1173 31.5154 20.0702C32.5782 19.3825 33.6956 19.1715 34.9147 19.4216Z" fill="#26212E"/>
<path d="M8.0491 3.95677C7.9397 3.9724 7.62713 4.05835 7.35362 4.14431C4.80613 4.94919 3.18856 7.46543 3.51676 10.1223C3.80589 12.4119 5.43128 14.2796 7.62713 14.8422C8.36168 15.0298 9.65887 15.0532 10.3778 14.8813C12.2376 14.4437 13.7458 13.0371 14.3788 11.1694C14.6444 10.3802 14.6835 8.98142 14.4647 8.12183C13.8239 5.56653 11.6437 3.87862 9.03372 3.90988C8.59611 3.9177 8.15851 3.94114 8.0491 3.95677ZM10.1121 5.35554C10.8232 5.53527 11.464 5.91036 12.0344 6.48081C13.5582 7.98899 13.7145 10.2473 12.433 12.0056L12.1907 12.3416L11.9094 12.029C10.495 10.4662 7.98659 10.3802 6.40808 11.8493C5.8767 12.3416 5.86889 12.3416 5.47036 11.7086C4.61077 10.3724 4.59515 8.63758 5.4391 7.24662C5.96266 6.38704 6.99416 5.62123 7.9944 5.34773C8.54141 5.19925 9.52602 5.20707 10.1121 5.35554ZM10.1199 12.3807C10.3387 12.4823 10.6435 12.7011 10.8076 12.8574L11.1045 13.1543L10.9248 13.2559C10.8232 13.3106 10.5028 13.4278 10.2137 13.5216C9.29941 13.8107 7.76779 13.6466 7.11138 13.2012C6.88476 13.0449 7.82249 12.3572 8.49452 12.1853C8.94776 12.0759 9.6745 12.1619 10.1199 12.3807Z" fill="#26212E"/>
<path d="M8.65075 6.56677C7.78335 6.69961 7.13476 7.43417 7.05661 8.35626C6.91595 9.85663 8.32254 10.9194 9.77602 10.4271C10.7294 10.0989 11.2842 8.96579 10.9872 7.95773C10.831 7.41072 10.4871 7.00437 9.97919 6.76994C9.4947 6.53551 9.15868 6.48863 8.65075 6.56677ZM9.54159 8.09057C9.94012 8.51255 9.62754 9.21585 9.05709 9.21585C8.77578 9.21585 8.36161 8.84857 8.36161 8.59851C8.36161 8.32501 8.54916 8.02806 8.77578 7.92647C9.07272 7.80144 9.32278 7.85614 9.54159 8.09057Z" fill="#26212E"/>
<path d="M16.7229 5.09003C16.3165 5.30884 16.2384 5.84022 16.5666 6.16842C16.6994 6.30126 16.8323 6.32471 17.4887 6.32471C18.192 6.32471 18.2701 6.30908 18.4264 6.14498C18.6452 5.91836 18.653 5.47294 18.4499 5.22288C18.317 5.05878 18.2232 5.03533 17.6059 5.01189C17.1527 4.99626 16.8557 5.02752 16.7229 5.09003Z" fill="#26212E"/>
<path d="M21.1381 5.09003C20.7395 5.31665 20.6614 5.81677 20.9818 6.12935C21.1537 6.30908 21.2318 6.32471 21.9195 6.32471C22.6072 6.32471 22.6853 6.30908 22.8572 6.12935C23.1698 5.82459 23.076 5.26195 22.6853 5.08222C22.4431 4.97282 21.3412 4.97282 21.1381 5.09003Z" fill="#26212E"/>
<path d="M25.5761 5.07441C25.2088 5.22288 25.115 5.86366 25.4198 6.15279C25.5839 6.30126 25.6855 6.32471 26.3419 6.32471C27.1546 6.31689 27.2953 6.26219 27.4359 5.87147C27.5375 5.57453 27.4047 5.24632 27.1155 5.09785C26.8967 4.98845 25.834 4.97282 25.5761 5.07441Z" fill="#26212E"/>
<path d="M16.6369 7.98896C16.2774 8.26247 16.2696 8.77821 16.6212 9.05953C16.8166 9.21582 16.926 9.21582 25.7953 9.21582C32.2969 9.21582 34.8209 9.19238 34.9616 9.12986C35.2038 9.01265 35.3523 8.66881 35.282 8.36405C35.1726 7.85612 35.8056 7.88737 25.8266 7.88737C18.8249 7.89519 16.7306 7.91082 16.6369 7.98896Z" fill="#26212E"/>
<path d="M16.6369 11.5056C16.2774 11.7791 16.2696 12.2948 16.6212 12.5761C16.8166 12.7324 16.9338 12.7324 21.9272 12.7324H27.03L27.241 12.5449C27.5301 12.3026 27.5379 11.8885 27.2722 11.5993L27.0925 11.404H21.9272C17.9887 11.4118 16.7306 11.4352 16.6369 11.5056Z" fill="#26212E"/>
<path d="M16.5586 15.1472C16.4258 15.2879 16.332 15.4598 16.332 15.5848C16.332 15.7098 16.4258 15.8817 16.5586 16.0224L16.7853 16.249H25.7796C32.289 16.249 34.8209 16.2256 34.9615 16.1631C35.2038 16.0458 35.3523 15.702 35.2819 15.3973C35.1725 14.8893 35.7977 14.9206 25.8421 14.9206H16.7853L16.5586 15.1472Z" fill="#26212E"/>
<path d="M16.5586 18.6638C16.4258 18.8045 16.332 18.9764 16.332 19.1014C16.332 19.2264 16.4258 19.3983 16.5586 19.539L16.7853 19.7656H21.9115H27.0299L27.2409 19.5781C27.405 19.4374 27.4597 19.328 27.4597 19.1014C27.4597 18.8748 27.405 18.7654 27.2409 18.6247L27.0299 18.4372H21.9115H16.7853L16.5586 18.6638Z" fill="#26212E"/>
<path d="M6.5096 18.9059C6.23609 19.0153 6.07199 19.3357 6.12669 19.6483C6.22046 20.1562 6.23609 20.1562 9.04927 20.1562C10.5496 20.1562 11.6358 20.125 11.7218 20.0781C11.9328 19.9609 12.0422 19.578 11.9406 19.2889C11.7921 18.8591 11.6046 18.8278 9.0102 18.8356C7.72864 18.8356 6.60337 18.8669 6.5096 18.9059Z" fill="#26212E"/>
<path d="M33.5633 21.4457C33.2429 21.7582 33.3054 22.2662 33.6883 22.4615C34.0009 22.6256 34.1885 22.61 34.4385 22.3912C34.6183 22.2349 34.6573 22.1411 34.6495 21.8676C34.6417 21.6254 34.5948 21.4926 34.462 21.391C34.2119 21.1878 33.7899 21.2112 33.5633 21.4457Z" fill="#26212E"/>
<path d="M33.5391 23.2273C33.375 23.3993 33.3672 23.4774 33.3672 24.8996C33.3672 26.5797 33.3984 26.6891 33.9298 26.7751C34.1799 26.8141 34.2502 26.7829 34.4612 26.5719L34.7034 26.3297L34.68 24.8371C34.6566 23.3758 34.6487 23.3446 34.469 23.1961C34.2111 22.9851 33.7501 23.0007 33.5391 23.2273Z" fill="#26212E"/>
</svg>
