<svg width="38" height="40" viewBox="0 0 38 40" fill="none" xmlns="http://www.w3.org/2000/svg">
<path d="M12.8434 0.0187607C11.3736 0.26112 10.0915 0.753654 9.16893 1.41818C8.97348 1.55891 8.60603 1.7309 8.34803 1.80909C7.12843 2.15308 6.33881 3.03651 6.11208 4.31085C5.987 5.02229 6.06518 6.60934 6.26844 7.82113L6.43262 8.75147L6.11208 9.02511C5.63519 9.43164 5.49446 9.79909 5.49446 10.6513C5.49446 11.2689 5.51792 11.4096 5.71337 11.7849C5.95572 12.2696 6.44826 12.6214 6.97206 12.6918L7.2926 12.7387L7.45678 13.2937C7.69132 14.0834 8.01968 14.7401 8.51221 15.3968L8.93439 15.9597V16.6008C8.93439 17.1558 8.91875 17.2496 8.80148 17.2496C8.73112 17.2496 8.2464 17.6718 7.72259 18.1956L6.7688 19.1338L5.08792 19.7827C2.96924 20.6036 2.56271 20.8225 1.97636 21.4479C1.1711 22.3079 0.881836 23.0897 0.881836 24.4031C0.881836 25.2787 1.24928 34.9027 1.31964 35.9191C1.37437 36.693 1.49164 36.8728 1.96072 36.8728C2.25781 36.8728 2.44544 36.7478 2.53925 36.4819C2.56271 36.4116 2.48453 33.8942 2.35944 30.8921C2.1249 25.0598 2.09363 23.6917 2.20308 23.6291C2.23435 23.6057 2.75034 24.0748 3.33669 24.6689C4.14195 25.4976 4.45467 25.8651 4.61884 26.2169L4.82993 26.6703L4.86902 31.6035C4.90811 36.3256 4.91593 36.5523 5.05665 36.7087C5.26774 36.9432 5.72118 36.9276 5.94791 36.693L6.1199 36.5132V31.6817C6.1199 26.3654 6.1199 26.3889 5.63519 25.4273C5.45537 25.0677 5.08792 24.6377 4.11849 23.6526L2.83634 22.3626L3.09433 22.1203C3.43051 21.7997 3.49305 21.7685 5.37719 21.0336L7.01897 20.3925L8.22295 22.2063C8.87966 23.1992 9.49728 24.0982 9.5911 24.192C9.99763 24.6455 10.7638 24.8409 11.3736 24.6533L11.741 24.536L11.702 25.2553C11.5691 27.4756 11.2172 36.3647 11.2563 36.4741C11.3502 36.7399 11.5378 36.8728 11.8192 36.8728C12.1163 36.8728 12.1945 36.8338 12.3587 36.6305C12.429 36.5367 12.5229 35.106 12.687 31.2752C12.8121 28.3981 12.9216 25.8964 12.9216 25.7087V25.3804H13.547H14.1646L14.2037 25.6306C14.2272 25.7713 14.3366 28.1714 14.4461 30.9703C14.5555 33.7613 14.665 36.1692 14.6884 36.31C14.7119 36.4507 14.7979 36.6383 14.8839 36.7243C15.0872 36.9276 15.5328 36.9198 15.7361 36.7165C15.9393 36.5132 15.9393 36.4976 15.6579 30.1103C15.5328 27.2254 15.4233 24.794 15.4233 24.6924C15.4233 24.5282 15.439 24.5204 15.6031 24.6064C15.697 24.6611 16.0019 24.708 16.2833 24.708C16.7055 24.7158 16.854 24.6768 17.1667 24.4969C17.4951 24.3015 17.6906 24.0435 18.8398 22.3314C19.5512 21.2603 20.161 20.3925 20.1845 20.4081C20.4347 20.5645 22.9443 21.4714 23.1084 21.4714C23.6166 21.4714 23.8902 20.799 23.5306 20.455C23.429 20.3612 22.6706 20.0172 21.8341 19.6967L20.3096 19.1182L19.3714 18.1878C18.8554 17.6718 18.3864 17.2496 18.3316 17.2496C18.2691 17.2496 18.2378 17.062 18.2378 16.5851V15.9128L18.6287 15.4046C19.0978 14.7948 19.5903 13.7863 19.7232 13.1608C19.8249 12.7387 19.8405 12.7152 20.0672 12.7152C20.6536 12.7074 21.3963 12.1054 21.5839 11.4721C21.7325 10.9796 21.7012 10.0727 21.5136 9.66618C21.4276 9.47855 21.3103 9.26746 21.2477 9.1971C21.1696 9.10328 21.1618 8.98602 21.2321 8.61075C21.279 8.35276 21.3103 7.52405 21.3103 6.77352C21.3103 5.54609 21.2947 5.32719 21.107 4.6392C20.6067 2.75506 19.5981 1.50418 17.9642 0.714561C16.8071 0.159485 16.1739 0.0343971 14.4852 0.00312424C13.6877 -0.00469208 12.9528 0.00312424 12.8434 0.0187607ZM16.4788 1.48854C18.2691 2.02799 19.3871 3.14596 19.8796 4.8972C20.1767 5.96826 20.161 8.39185 19.8561 8.5873C19.6294 8.72802 19.4809 8.64202 19.3167 8.27458C18.66 6.75006 18.6834 6.7657 17.714 6.96115C15.1419 7.47714 12.6948 7.25042 11.2251 6.36698C10.9905 6.22626 10.5527 5.89009 10.2556 5.61645C9.64582 5.07701 9.43474 5.01447 9.12984 5.32719C8.69984 5.74936 8.96566 6.2888 9.97418 7.05497C11.5769 8.27458 14.0552 8.74366 16.8775 8.37621C17.3857 8.30585 17.8391 8.26676 17.886 8.29021C17.9329 8.30585 18.0736 8.57166 18.1909 8.86875C18.316 9.17365 18.5193 9.51764 18.6444 9.64273C18.8554 9.846 18.918 9.86163 19.5043 9.86163C20.2783 9.86945 20.4269 9.98672 20.4269 10.6434C20.4269 11.1907 20.2236 11.4643 19.8171 11.4643C19.434 11.4643 18.9571 11.7536 18.7773 12.0898C18.6991 12.2383 18.5505 12.6605 18.4411 13.0279C17.9407 14.7166 16.5335 16.0457 14.7588 16.5069C14.1803 16.6555 13.031 16.6555 12.4134 16.5069C11.8661 16.3819 11.1547 16.0613 10.6543 15.7095C10.2009 15.3968 9.5051 14.6619 9.19238 14.1615C8.96566 13.7941 8.62166 12.895 8.50439 12.3712C8.42621 12.0194 7.93368 11.566 7.56623 11.5112C6.95643 11.4174 6.87043 11.3627 6.76098 11.0343C6.62025 10.6122 6.70625 10.1744 6.95643 9.9789C7.19879 9.79127 7.3786 9.83036 7.74605 10.1431C7.9415 10.3229 8.08222 10.3698 8.34803 10.3698C8.6373 10.3698 8.76239 10.3151 9.10638 10.0336C9.71619 9.53328 10.1071 8.98602 10.1071 8.62639C10.1071 8.01658 9.42692 7.78986 9.0282 8.26676C8.91093 8.40748 8.7233 8.62639 8.61385 8.75929L8.40276 8.99383L8.05095 8.8062L7.69132 8.61857L7.57405 7.94622C7.28479 6.38262 7.21442 5.17083 7.3786 4.42812C7.53496 3.69323 8.16822 3.06778 8.84057 2.98178C9.09856 2.9427 9.37219 2.81761 9.77873 2.53616C10.6856 1.91854 11.7254 1.48073 12.7496 1.30091C12.9528 1.26183 13.719 1.24619 14.4461 1.25401C15.6266 1.27746 15.8533 1.30091 16.4788 1.48854ZM11.2798 17.4764C12.0381 17.7578 12.7027 17.8751 13.5626 17.8751C14.6963 17.8751 15.5797 17.664 16.5413 17.1637L16.9869 16.9369V17.4998V18.0705L15.3295 19.5169C14.4148 20.3143 13.6252 20.9632 13.5783 20.9632C13.5236 20.9632 12.7418 20.3143 11.8349 19.5325L10.1853 18.094V17.5155V16.9291L10.5214 17.1246C10.7013 17.234 11.0452 17.3904 11.2798 17.4764ZM10.7716 20.2909C11.6316 21.0414 12.4056 21.7137 12.4916 21.7997C12.6401 21.9405 12.6323 21.9483 11.9443 22.6441C11.1547 23.4415 10.9045 23.5822 10.6309 23.4102C10.5371 23.3399 9.91164 22.4721 9.25492 21.4792L8.04313 19.6654L8.50439 19.2042C8.88748 18.8133 8.98129 18.7585 9.08293 18.8367C9.15329 18.8914 9.91164 19.5403 10.7716 20.2909ZM17.8469 21.5496C16.5648 23.465 16.4162 23.6291 16.0644 23.4337C15.994 23.3946 15.6188 23.0428 15.2279 22.6519C14.5321 21.9405 14.5321 21.9405 14.6806 21.7841C14.7666 21.6981 15.5797 20.9867 16.4788 20.1892L18.1205 18.7507L18.6053 19.2198L19.0822 19.6967L17.8469 21.5496ZM14.1177 23.7151L14.1646 24.1295H13.5861H12.9997V23.762C12.9997 23.4415 13.0388 23.3555 13.289 23.0975L13.5783 22.8004L13.8285 23.0506C14.0239 23.2539 14.0865 23.4024 14.1177 23.7151Z" fill="#26212E"/>
<path d="M24.8052 21.9326C24.2658 22.0968 23.8514 22.4486 23.5856 22.9567C23.484 23.16 23.4371 23.4571 23.4136 24.106L23.3823 24.9816L21.2167 25.0051C18.8792 25.0285 18.8244 25.0442 18.1443 25.5132C17.7768 25.7634 17.3546 26.4045 17.2374 26.8814C17.1826 27.0847 17.1436 27.7961 17.1436 28.4684C17.1436 29.7584 17.2608 30.3604 17.6126 30.8607C17.7534 31.0484 17.7612 31.2829 17.7846 34.6525L17.8081 38.2409L17.9957 38.624C18.2459 39.1322 18.7072 39.5778 19.2153 39.8124L19.6219 40L27.2366 39.9844L34.8513 39.9609L35.2188 39.7733C35.6644 39.5466 36.071 39.14 36.3133 38.6709C36.4931 38.3191 36.4931 38.3035 36.5322 34.7228L36.5713 31.1266L36.8449 30.5793L37.1186 30.032V28.3903C37.1186 26.7641 37.1186 26.7485 36.9075 26.3498C36.6886 25.9432 36.2273 25.4663 35.852 25.2787C35.4064 25.052 34.7888 24.9894 32.8578 24.9894H30.9032V24.1451C30.9032 23.3946 30.8798 23.2538 30.7 22.8942C30.5905 22.6675 30.3794 22.3938 30.2465 22.2922C29.7227 21.8935 29.4882 21.8622 27.1584 21.87C25.9701 21.87 24.9147 21.9013 24.8052 21.9326ZM29.2849 23.2069C29.5976 23.3711 29.6446 23.5196 29.6524 24.2624V24.9894H27.1428H24.6332L24.6645 24.2389C24.6879 23.5275 24.7036 23.4805 24.9068 23.3007L25.1257 23.1131H27.1193C28.4875 23.1131 29.1677 23.1444 29.2849 23.2069ZM35.383 26.4983C35.8677 26.8657 35.9068 27.0221 35.9068 28.4137C35.9068 29.5864 35.899 29.6724 35.7035 30.0555C35.4533 30.548 34.8201 31.1422 34.0383 31.5956L33.4519 31.9475L33.3659 31.6973C33.233 31.2751 33.061 31.236 31.474 31.2595C29.5742 31.2907 29.6915 31.1813 29.6915 32.9482C29.6915 34.074 29.7149 34.2929 29.84 34.5508C30.1762 35.231 30.8016 35.6141 31.5521 35.6219C32.631 35.6219 33.3972 34.8636 33.405 33.7847V33.3078L34.0148 33.0263C34.3432 32.87 34.7653 32.6511 34.953 32.5338L35.2813 32.3305V35.1372C35.2813 37.9204 35.2813 37.9439 35.1015 38.2019C35.0077 38.3504 34.8044 38.538 34.6559 38.624C34.3823 38.7882 34.3041 38.7882 27.1506 38.7882C19.1059 38.7882 19.6453 38.8273 19.2388 38.2644C19.059 38.0064 19.059 37.9986 19.0355 35.1685C19.0277 33.6127 19.0355 32.3384 19.0511 32.3384C19.0746 32.3384 19.2779 32.4556 19.5046 32.5963C19.7313 32.7371 20.1379 32.956 20.4115 33.0811L20.8962 33.3078V33.6987C20.904 34.4883 21.2949 35.1294 21.9438 35.4343C22.9132 35.8877 24.0938 35.4812 24.4612 34.5665C24.5863 34.2694 24.641 34.2147 24.7661 34.2538C24.8521 34.2772 25.6183 34.3241 26.4704 34.3476C28.0106 34.3945 28.0184 34.3945 28.206 34.2147C28.4484 33.988 28.464 33.6049 28.2529 33.3469C28.1044 33.1671 28.0575 33.1592 26.6268 33.1123C25.8137 33.0811 25.0397 33.0342 24.899 33.0029L24.6488 32.9482V32.3305C24.6488 31.6035 24.5863 31.4471 24.2501 31.3298C23.9296 31.2204 21.6233 31.2204 21.3027 31.3298C21.162 31.3767 21.0291 31.5018 20.9744 31.6425C20.9197 31.7676 20.8649 31.8693 20.8415 31.8693C20.732 31.8693 19.9971 31.4393 19.6062 31.1422C19.0746 30.7357 18.7697 30.376 18.5508 29.8913C18.4257 29.6177 18.3944 29.3753 18.3944 28.4293C18.3944 27.3974 18.4101 27.2566 18.5743 26.9439C18.6993 26.7016 18.8479 26.5452 19.0902 26.4201L19.442 26.2403L27.2679 26.2559L35.1015 26.2794L35.383 26.4983ZM23.398 33.2374C23.398 33.9254 23.3823 34.0036 23.2025 34.1756C23.0149 34.3632 22.7569 34.4179 22.4989 34.3241C22.2644 34.2303 22.1471 33.855 22.1471 33.1592V32.4947H22.7725H23.398V33.2374ZM32.1541 33.2531C32.1541 33.9254 32.1307 34.027 31.9821 34.1912C31.8727 34.3085 31.7241 34.371 31.5756 34.371C31.0752 34.3632 30.9032 34.0427 30.9032 33.1123V32.4947H31.5287H32.1541V33.2531Z" fill="#26212E"/>
</svg>
