<svg width="49" height="56" viewBox="0 0 49 56" fill="none" xmlns="http://www.w3.org/2000/svg">
<path d="M31.4803 23.5747C34.2577 22.7889 39.1804 22.8928 40.6211 22.9967C43.1412 23.1773 45.6612 23.1231 46.0948 26.1806C46.3838 28.24 45.6928 30.1143 42.6399 30.4485C41.565 30.5659 40.2508 30.6291 39.1669 30.8007L38.3178 31.7356C39.3204 31.6001 41.6192 31.6453 42.3102 31.5594C45.2277 31.2027 47.6935 32.3724 48.0639 35.177C48.389 37.6338 46.5374 39.5306 43.9089 39.3861C43.0102 39.3364 40.4721 39.6842 37.952 39.7519L37.7578 40.2622L37.6675 40.4158C39.2663 40.4609 40.7973 40.5242 41.8857 40.5784C44.7986 40.7229 46.3883 42.2855 46.3477 44.363C46.298 46.8876 43.936 47.836 42.247 47.976C40.9824 48.0798 36.4571 47.9489 33.4177 47.7005L32.939 48.5179C33.1558 48.5224 38.9772 48.8024 39.1985 48.816C41.8676 49.0147 43.0057 49.9812 42.9379 51.887C42.8431 54.5606 39.9888 55.2697 38.4443 55.5136C35.9378 55.911 32.5958 55.7936 30.1615 55.8613C24.8956 56.0058 14.1198 56.2407 9.08876 51.8328C7.37259 50.3289 5.64288 48.2831 4.17058 47.696C1.08599 46.4675 0.819536 42.4481 0.95954 37.3673C1.02728 34.9105 0.182747 28.0142 3.16346 26.3432C7.3455 23.9993 14.436 22.2289 16.7935 20.3773C20.6594 17.3378 22.9175 12.3925 23.9472 9.49764C25.9072 3.98332 26.5034 0 29.9312 0C35.9378 0 35.7797 5.36529 35.8926 8.04793C36.1139 13.3003 29.6331 23.0193 31.4803 23.5747Z" fill="#FAC036"/>
<path d="M26.3127 35.6506C26.3715 38.3558 28.458 39.5165 28.5528 39.5662C27.356 39.5391 24.7637 40.7539 24.7637 43.3327C24.7637 45.4598 25.9198 47.1173 27.0805 47.6818C26.3173 47.8444 24.8766 48.8832 24.8766 51.1503C24.8766 54.4743 27.3424 55.6891 29.2076 55.9194C31.0729 56.1498 36.2575 55.8382 37.9691 55.5762C38.8859 55.4362 33.4258 55.373 29.4289 54.8491C28.2818 54.7001 26.9134 53.6207 26.6921 52.1665C26.6921 52.1665 26.3669 50.2471 28.1192 49.1406C28.1192 49.1406 28.8599 48.5038 32.2968 48.5309L33.3355 48.5444C33.6607 48.567 37.8111 48.7115 39.193 48.8109C39.8027 48.8561 40.3266 48.9419 40.7782 49.0683C40.706 48.9644 40.6247 48.7928 40.6518 48.5444C40.7105 48.0206 41.0537 47.998 41.1441 47.998L40.3221 47.9528L37.3956 47.7857C34.4781 47.6096 30.3683 47.3296 29.8941 47.1399C29.8941 47.1399 27.0308 46.4173 27.0308 43.4817C27.0308 43.4817 26.8818 40.9843 30.7025 40.8668C30.7025 40.8668 39.7305 40.3475 43.5512 40.8533C43.5512 40.8533 43.0047 39.8371 43.908 39.381C43.908 39.381 37.4633 39.5391 33.4258 39.6475C29.3883 39.7558 28.5257 37.6106 28.4218 36.4409C28.4083 36.2648 28.3721 35.9848 28.3721 35.6551C28.3721 33.3292 30.4135 33.0221 33.3355 32.6428C39.6402 31.8163 42.3092 31.5589 42.3092 31.5589C42.657 31.5182 42.9867 31.4957 43.3073 31.5002C43.1312 31.4008 42.8918 31.2156 42.8602 30.9085C42.8422 30.7098 42.9415 30.4072 42.9415 30.4072C42.9415 30.4072 40.2227 30.6285 36.0272 31.1885C31.8361 31.7486 28.4851 31.4911 28.1825 29.0388C27.9612 27.2414 28.2638 26.0988 29.0405 25.2091C29.998 24.1116 31.538 23.5651 31.538 23.5651C31.538 23.5651 31.3619 23.529 31.2625 23.398C31.1632 23.2626 31.1587 23.0503 31.1587 23.0503C27.7399 23.4839 25.4005 25.6562 25.5947 28.4472C25.7301 30.3576 26.236 31.6311 27.505 32.2499C27.5095 32.2453 26.254 32.9499 26.3127 35.6506Z" fill="#E48C15"/>
<path d="M27.7093 29.5903L26.21 30.0239C26.21 30.0239 28.4319 38.2028 20.2305 43.8391C20.2305 43.8391 19.1782 44.5436 19.6885 45.072C19.6885 45.072 20.0453 45.6862 21.5537 44.5346C21.5537 44.53 29.5565 39.3093 27.7093 29.5903Z" fill="#E48C15"/>
</svg>
