<svg width="64" height="64" viewBox="0 0 64 64" fill="none" xmlns="http://www.w3.org/2000/svg">
<path d="M18.3359 9.33443C20.3489 8.12277 22.5147 7.18535 24.7757 6.54699L26.0988 0.187396L36.8357 0L38.3813 6.30689C40.6588 6.86432 42.8507 7.72711 44.8972 8.87181L50.3242 5.31138L58.0519 12.7719L54.6857 18.3234C55.9012 20.3355 56.8405 22.5021 57.4782 24.7649L63.8127 26.0708L64 36.8107L57.6948 38.3332C57.1369 40.6085 56.2765 42.7987 55.1365 44.8451L58.6901 50.2736L51.2316 58.0035L45.6641 54.6597C43.652 55.8746 41.4861 56.8141 39.2243 57.453L37.9012 63.8126L27.1643 64L25.6187 57.6931C23.3425 57.1315 21.1512 56.2689 19.1028 55.1282L13.6758 58.6886L5.98901 51.2164L9.35528 45.6649C8.13971 43.6528 7.20046 41.4861 6.56276 39.2234L0.210749 37.8999L0 27.2069L6.29931 25.6609C6.86183 23.3844 7.72411 21.1926 8.86353 19.1432L5.30992 13.7147L12.7684 5.99067L18.3125 9.352L18.3359 9.33443Z" fill="#FF845C"/>
</svg>
