<svg width="16" height="15" viewBox="0 0 16 15" fill="none" xmlns="http://www.w3.org/2000/svg">
<path d="M13.6006 5.39453H7.30043C6.52721 5.39453 5.90039 6.02165 5.90039 6.79524V13.0984C5.90039 13.872 6.52721 14.4992 7.30043 14.4992H13.6006C14.3738 14.4992 15.0006 13.872 15.0006 13.0984V6.79524C15.0006 6.02165 14.3738 5.39453 13.6006 5.39453Z" stroke="#806BFF" stroke-linecap="round" stroke-linejoin="round"/>
<path d="M3.10005 9.60463H2.40003C2.02872 9.60463 1.67262 9.45705 1.41006 9.19437C1.1475 8.93169 1 8.57541 1 8.20392V1.90071C1 1.52922 1.1475 1.17294 1.41006 0.910259C1.67262 0.647575 2.02872 0.5 2.40003 0.5H8.70019C9.0715 0.5 9.42761 0.647575 9.69017 0.910259C9.95272 1.17294 10.1002 1.52922 10.1002 1.90071V2.60107" stroke="#806BFF" stroke-linecap="round" stroke-linejoin="round"/>
</svg>
