<svg width="400" height="256" viewBox="0 0 400 256" fill="none" xmlns="http://www.w3.org/2000/svg">
<path d="M206.929 93.8674C209.113 92.5478 211.464 91.5282 213.92 90.8359L215.357 83.9402L227.012 83.7305L228.69 90.5753C231.161 91.186 233.54 92.1221 235.764 93.359L241.655 89.5012L250.045 97.5981L246.397 103.617C247.716 105.8 248.736 108.152 249.428 110.608L256.324 112.044L256.527 123.7L249.682 125.378C249.077 127.849 248.143 130.228 246.905 132.451L250.763 138.343L242.666 146.732L236.616 143.091C234.431 144.408 232.08 145.428 229.625 146.122L228.188 153.018L216.532 153.221L214.854 146.376C212.383 145.772 210.004 144.838 207.781 143.599L201.908 147.425L193.519 139.328L197.174 133.303C195.853 131.12 194.834 128.768 194.142 126.312L187.246 124.876L187.043 113.22L193.888 111.542C194.497 109.071 195.433 106.692 196.672 104.468L192.814 98.6023L200.911 90.213L206.929 93.8674Z" fill="#FF845C"/>
<path d="M214.447 107.395H208.041V127.395H214.447V107.395Z" fill="white"/>
<path d="M224.012 111.961H217.605V127.392H224.012V111.961Z" fill="white"/>
<path d="M232.857 118.23H226.451V127.395H232.857V118.23Z" fill="white"/>
<path d="M110.935 92.4509C113.12 91.1353 115.471 90.1179 117.926 89.4257L119.362 82.5237L131.018 82.3203L132.696 89.1651C135.168 89.7718 137.547 90.7081 139.77 91.9488L145.661 88.0847L154.05 96.1816L150.396 102.207C151.716 104.39 152.735 106.742 153.428 109.198L160.323 110.634L160.527 122.29L153.688 123.968C153.067 126.431 152.123 128.801 150.879 131.016L154.737 136.907L146.615 145.297L140.596 141.649C138.411 142.964 136.06 143.981 133.605 144.674L132.169 151.576L120.513 151.779L118.835 144.934C116.364 144.324 113.985 143.388 111.761 142.151L105.94 146.015L97.5504 137.918L101.205 131.893C99.8852 129.709 98.8655 127.358 98.1733 124.902L91.2776 123.466L91.0742 111.81L97.9191 110.132C98.5161 107.66 99.4416 105.278 100.671 103.052L96.8132 97.1603L104.91 88.7775L110.935 92.4255V92.4509Z" fill="#FF845C"/>
<path d="M127.631 136.585C123.37 136.566 119.227 135.183 115.809 132.639C112.392 130.094 109.879 126.521 108.641 122.444C108.619 122.363 108.629 122.277 108.669 122.203C108.71 122.13 108.777 122.075 108.857 122.05C108.937 122.026 109.023 122.035 109.097 122.074C109.171 122.113 109.226 122.18 109.251 122.26C110.579 126.709 113.477 130.525 117.407 132.999C121.336 135.474 126.03 136.438 130.616 135.713C135.203 134.989 139.37 132.624 142.346 129.059C145.321 125.494 146.901 120.97 146.793 116.328C146.685 111.686 144.896 107.241 141.759 103.818C138.621 100.394 134.348 98.2263 129.732 97.7157C125.117 97.205 120.473 98.3865 116.663 101.041C112.853 103.695 110.136 107.642 109.016 112.148C108.995 112.232 108.943 112.305 108.869 112.35C108.795 112.396 108.706 112.41 108.622 112.39C108.537 112.369 108.465 112.316 108.419 112.243C108.374 112.169 108.36 112.08 108.38 111.996C109.276 108.393 111.166 105.114 113.835 102.534C116.503 99.953 119.844 98.1742 123.475 97.4002C127.105 96.6262 130.881 96.888 134.37 98.1558C137.859 99.4236 140.922 101.646 143.209 104.571C145.496 107.495 146.916 111.003 147.305 114.695C147.695 118.387 147.04 122.114 145.414 125.451C143.788 128.789 141.257 131.602 138.109 133.571C134.962 135.539 131.324 136.584 127.612 136.585H127.631Z" fill="white"/>
<path d="M127.548 130.536C124.546 130.53 121.627 129.545 119.234 127.731C116.842 125.916 115.106 123.371 114.291 120.481C114.279 120.442 114.276 120.4 114.28 120.359C114.285 120.318 114.297 120.278 114.318 120.242C114.338 120.206 114.365 120.175 114.397 120.149C114.43 120.124 114.467 120.105 114.507 120.094C114.588 120.07 114.675 120.08 114.749 120.12C114.822 120.161 114.877 120.229 114.901 120.31C115.756 123.363 117.688 126.004 120.34 127.744C122.992 129.483 126.183 130.203 129.325 129.772C132.467 129.34 135.346 127.785 137.43 125.395C139.514 123.005 140.662 119.941 140.662 116.77C140.662 113.599 139.514 110.535 137.43 108.144C135.346 105.754 132.467 104.2 129.325 103.768C126.183 103.336 122.992 104.057 120.34 105.796C117.688 107.535 115.756 110.176 114.901 113.23C114.89 113.272 114.87 113.311 114.844 113.345C114.817 113.379 114.785 113.408 114.747 113.429C114.71 113.451 114.668 113.465 114.625 113.47C114.583 113.476 114.539 113.473 114.497 113.462C114.456 113.451 114.416 113.431 114.382 113.405C114.348 113.378 114.319 113.346 114.298 113.308C114.276 113.271 114.262 113.229 114.257 113.186C114.251 113.144 114.254 113.1 114.265 113.058C114.956 110.591 116.321 108.366 118.208 106.633C120.094 104.9 122.426 103.727 124.943 103.248C127.459 102.768 130.059 103 132.451 103.917C134.843 104.834 136.931 106.401 138.481 108.44C140.031 110.48 140.982 112.911 141.225 115.461C141.468 118.012 140.996 120.579 139.86 122.875C138.723 125.171 136.969 127.104 134.794 128.458C132.619 129.811 130.11 130.531 127.548 130.536Z" fill="white"/>
<path d="M127.548 119.853C126.847 119.856 126.161 119.648 125.578 119.256C125.511 119.206 125.464 119.133 125.449 119.05C125.434 118.967 125.45 118.882 125.496 118.811C125.543 118.742 125.616 118.695 125.698 118.68C125.78 118.664 125.865 118.682 125.934 118.728C126.307 118.979 126.734 119.139 127.18 119.195C127.626 119.251 128.079 119.202 128.503 119.052C128.926 118.902 129.309 118.654 129.62 118.33C129.93 118.005 130.161 117.612 130.293 117.182C130.424 116.752 130.454 116.298 130.378 115.855C130.302 115.412 130.124 114.992 129.857 114.63C129.591 114.269 129.243 113.974 128.842 113.771C128.441 113.568 127.998 113.461 127.548 113.46C127.072 113.461 126.603 113.579 126.182 113.803C126.146 113.823 126.106 113.836 126.065 113.84C126.024 113.844 125.982 113.841 125.943 113.829C125.903 113.817 125.866 113.797 125.834 113.771C125.802 113.745 125.776 113.712 125.756 113.676C125.736 113.639 125.723 113.599 125.719 113.557C125.714 113.516 125.718 113.474 125.73 113.433C125.742 113.393 125.761 113.356 125.788 113.323C125.814 113.291 125.847 113.264 125.883 113.244C126.354 112.99 126.877 112.848 127.411 112.827C127.945 112.806 128.477 112.907 128.966 113.123C129.455 113.339 129.889 113.663 130.234 114.071C130.579 114.48 130.826 114.962 130.957 115.48C131.087 115.999 131.098 116.54 130.988 117.063C130.877 117.586 130.649 118.077 130.321 118.499C129.992 118.921 129.571 119.262 129.091 119.497C128.611 119.731 128.083 119.853 127.548 119.853Z" fill="white"/>
<path d="M127.63 116.22L122.495 113.723L122.59 115.947L108.951 116.271L109.097 117.269L122.762 117.047L122.8 119.309L127.63 116.22Z" fill="white"/>
<path d="M112.702 116.604L112.632 116.464C112.451 116.113 112.178 115.816 111.842 115.606C111.507 115.396 111.121 115.28 110.726 115.269L106.207 115.098L108.165 116.864L106.429 119.006L110.751 118.917C111.226 118.908 111.685 118.745 112.06 118.455C112.436 118.164 112.708 117.76 112.836 117.303L112.702 116.604Z" fill="white"/>
<path d="M127.629 125.078C125.833 125.071 124.086 124.484 122.649 123.406C121.213 122.327 120.162 120.814 119.653 119.091C119.641 119.052 119.636 119.01 119.641 118.968C119.645 118.927 119.657 118.887 119.678 118.851C119.698 118.814 119.725 118.783 119.758 118.757C119.791 118.732 119.829 118.714 119.869 118.704C119.909 118.692 119.951 118.688 119.993 118.693C120.034 118.697 120.074 118.71 120.111 118.73C120.148 118.75 120.18 118.777 120.206 118.81C120.232 118.842 120.252 118.88 120.263 118.92C120.788 120.688 121.932 122.209 123.486 123.204C125.04 124.198 126.901 124.599 128.727 124.334C130.553 124.069 132.222 123.155 133.429 121.76C134.637 120.365 135.301 118.582 135.301 116.736C135.301 114.891 134.637 113.108 133.429 111.713C132.222 110.318 130.553 109.404 128.727 109.139C126.901 108.874 125.04 109.275 123.486 110.269C121.932 111.264 120.788 112.784 120.263 114.553C120.252 114.593 120.232 114.631 120.206 114.663C120.18 114.696 120.148 114.723 120.111 114.743C120.074 114.763 120.034 114.776 119.993 114.78C119.951 114.785 119.909 114.781 119.869 114.769C119.828 114.758 119.79 114.738 119.757 114.712C119.724 114.685 119.697 114.652 119.677 114.615C119.657 114.577 119.644 114.537 119.64 114.494C119.636 114.452 119.64 114.41 119.653 114.369C120.098 112.896 120.944 111.575 122.096 110.555C123.248 109.534 124.66 108.853 126.176 108.589C127.693 108.324 129.252 108.486 130.682 109.056C132.111 109.626 133.354 110.582 134.272 111.817C135.19 113.053 135.747 114.519 135.88 116.052C136.013 117.585 135.718 119.125 135.027 120.5C134.336 121.876 133.277 123.032 131.967 123.84C130.658 124.648 129.149 125.077 127.61 125.078H127.629Z" fill="white"/>
<path d="M301.892 91.9197C304.077 90.6047 306.428 89.5873 308.883 88.8945L310.319 81.9924L321.975 81.7891L323.653 88.6339C326.125 89.2389 328.505 90.1753 330.726 91.4176L336.618 87.5535L345.007 95.6503L341.353 101.675C342.672 103.859 343.692 106.211 344.384 108.666L351.261 110.084L351.464 121.74L344.619 123.392C344.014 125.861 343.08 128.238 341.842 130.459L345.7 136.351L337.603 144.74L331.559 141.111C329.375 142.43 327.023 143.449 324.568 144.143L323.132 151.045L311.476 151.248L309.798 144.403C307.327 143.794 304.948 142.857 302.724 141.619L296.833 145.484L288.488 137.374L292.142 131.349C290.823 129.165 289.803 126.814 289.111 124.358L282.215 122.922L281.986 111.317L288.825 109.639C289.435 107.168 290.372 104.789 291.609 102.565L287.751 96.6736L295.848 88.2907L301.866 91.9387L301.892 91.9197Z" fill="#FF845C"/>
<path d="M299.668 117.521L304.136 113.053L312.748 120.711L329.659 104.441L333.809 108.909L312.112 129.329L299.668 117.521Z" fill="white"/>
<path d="M184.221 95.5575C184.237 95.4865 184.262 95.4181 184.297 95.3541L184.551 94.7821C184.666 94.5215 184.805 94.2165 184.971 93.8542C185.153 93.4164 185.365 92.9917 185.606 92.5831L186.445 91.0578C186.776 90.5049 187.17 89.9392 187.57 89.31C187.97 88.6809 188.472 88.039 188.975 87.4034C189.512 86.6909 190.085 86.0057 190.691 85.3506C191.288 84.6261 192.025 83.9651 192.737 83.2342C193.093 82.8592 193.506 82.5415 193.9 82.1856C194.294 81.8297 194.707 81.4738 195.133 81.1242L196.474 80.1073C196.703 79.9357 196.925 79.7578 197.16 79.5925L197.891 79.1095C198.387 78.7854 198.876 78.474 199.391 78.1308L200.993 77.222C201.52 76.8978 202.099 76.65 202.671 76.3703C203.243 76.0907 203.815 75.792 204.425 75.5695L206.249 74.8323L208.155 74.1967C213.504 72.5424 219.173 72.2045 224.68 73.2116L226.65 73.5993L228.556 74.1141C229.192 74.2667 229.789 74.5018 230.393 74.6988C230.997 74.8959 231.594 75.0929 232.16 75.3344L233.85 76.0462C234.403 76.2941 234.931 76.5801 235.458 76.8343L236.24 77.2283C236.494 77.3681 236.742 77.5207 236.984 77.6605L238.439 78.5121C238.903 78.8045 239.348 79.1477 239.786 79.4209C240.225 79.6942 240.67 79.9993 241.058 80.3234C241.858 80.959 242.666 81.531 243.339 82.1856C244.013 82.8402 244.718 83.3931 245.29 84.0159C245.862 84.6388 246.453 85.179 246.911 85.7637C247.369 86.3484 247.845 86.8632 248.233 87.3653L249.25 88.7825C249.53 89.1541 249.787 89.5425 250.019 89.9456L250.546 90.8163C250.673 91.0387 250.781 91.223 250.864 91.3565C250.906 91.4147 250.938 91.479 250.959 91.5472C250.913 91.4927 250.871 91.4354 250.832 91.3756L250.489 90.8481L249.936 89.9964C249.694 89.6013 249.431 89.2195 249.148 88.8524L248.106 87.4606C247.712 86.9649 247.248 86.4564 246.771 85.8908C246.294 85.3252 245.722 84.7722 245.138 84.1685C244.553 83.5647 243.867 82.98 243.187 82.3572C242.507 81.7343 241.699 81.1623 240.905 80.5331C240.511 80.209 240.066 79.9421 239.634 79.637C239.202 79.332 238.751 79.0333 238.287 78.7473C237.823 78.4613 237.333 78.188 236.838 77.9083C236.596 77.7685 236.355 77.616 236.1 77.4825L235.319 77.0948C234.791 76.8406 234.27 76.5673 233.723 76.3195L232.039 75.614C231.48 75.3598 230.876 75.1882 230.285 74.9785C229.694 74.7687 229.09 74.5463 228.461 74.4001L226.554 73.8917L224.597 73.5104C221.869 73.0447 219.099 72.8785 216.335 73.0146C213.597 73.2233 210.89 73.7327 208.263 74.5336L206.357 75.1691L204.539 75.8937C203.935 76.1097 203.37 76.4148 202.798 76.6817C202.226 76.9487 201.66 77.2029 201.133 77.5207L199.544 78.4168C199.029 78.7282 198.54 79.0523 198.05 79.3828L197.319 79.8595C197.084 80.0184 196.862 80.1963 196.633 80.3679L195.298 81.3721C194.872 81.7153 194.472 82.0712 194.065 82.4144C193.659 82.7576 193.258 83.0817 192.909 83.4503C192.19 84.1748 191.453 84.8231 190.856 85.5413C190.258 86.2594 189.629 86.8823 189.133 87.5623C188.638 88.2423 188.11 88.8334 187.716 89.4689C187.322 90.1045 186.909 90.6447 186.579 91.1849L185.708 92.6912C185.474 93.0885 185.262 93.4979 185.072 93.9178L184.621 94.8329C184.507 95.0681 184.411 95.2524 184.341 95.3922C184.307 95.4514 184.267 95.5068 184.221 95.5575Z" fill="#263238"/>
<path d="M197.377 74.5367C197.603 74.3484 197.846 74.1804 198.101 74.0346C198.578 73.7296 199.29 73.3228 200.186 72.8652C204.913 70.4768 210.143 69.2564 215.439 69.3062C216.45 69.3062 217.27 69.3697 217.829 69.4333C218.123 69.4476 218.415 69.4923 218.7 69.5667C218.408 69.5913 218.114 69.5913 217.822 69.5667C217.257 69.535 216.443 69.5222 215.439 69.5667C210.191 69.6387 205.02 70.8441 200.281 73.1004C199.379 73.5262 198.654 73.9012 198.159 74.1744C197.91 74.3195 197.648 74.4408 197.377 74.5367Z" fill="#263238"/>
<path d="M350.116 139.16C350.1 139.23 350.076 139.298 350.046 139.364C349.983 139.503 349.894 139.694 349.792 139.936L349.373 140.863C349.186 141.299 348.974 141.724 348.737 142.135C348.483 142.592 348.203 143.107 347.892 143.66C347.58 144.213 347.174 144.778 346.767 145.408C346.36 146.037 345.871 146.679 345.362 147.314C344.854 147.95 344.263 148.655 343.646 149.367C343.03 150.079 342.318 150.746 341.6 151.483C341.25 151.852 340.837 152.176 340.443 152.532C340.049 152.888 339.636 153.244 339.21 153.593C338.784 153.943 338.32 154.267 337.869 154.61C337.64 154.782 337.412 154.96 337.176 155.125L336.446 155.608C335.956 155.926 335.46 156.244 334.946 156.587L333.35 157.496C332.817 157.813 332.238 158.068 331.673 158.347C331.107 158.627 330.529 158.926 329.918 159.148L328.088 159.879L326.181 160.515C320.833 162.169 315.164 162.507 309.657 161.5L307.687 161.106L305.78 160.597C305.145 160.445 304.547 160.209 303.944 160.006C303.34 159.803 302.743 159.618 302.177 159.371L300.48 158.659C299.933 158.405 299.406 158.125 298.878 157.864L298.097 157.477C297.836 157.337 297.595 157.184 297.347 157.044L295.898 156.193C295.427 155.894 294.989 155.557 294.544 155.284C294.099 155.011 293.661 154.706 293.273 154.375C292.478 153.74 291.671 153.174 290.991 152.519C290.311 151.865 289.612 151.312 289.047 150.683C288.481 150.053 287.883 149.526 287.426 148.935C286.968 148.344 286.492 147.842 286.098 147.34C285.704 146.838 285.392 146.348 285.081 145.922C284.803 145.551 284.548 145.162 284.318 144.759C284.108 144.422 283.937 144.124 283.791 143.889C283.644 143.653 283.555 143.482 283.473 143.348L283.371 143.158C283.371 143.158 283.422 143.215 283.505 143.329C283.587 143.444 283.702 143.634 283.848 143.85L284.401 144.708C284.641 145.103 284.904 145.483 285.189 145.846L286.225 147.244C286.619 147.74 287.083 148.248 287.559 148.814C288.036 149.38 288.614 149.933 289.193 150.536C289.771 151.14 290.464 151.725 291.144 152.341C291.824 152.958 292.631 153.536 293.425 154.172C293.819 154.496 294.264 154.763 294.697 155.068C295.129 155.373 295.574 155.665 296.044 155.958L297.487 156.797C297.734 156.936 297.976 157.089 298.23 157.222L299.006 157.61C299.533 157.864 300.061 158.138 300.601 158.385L302.285 159.085C302.851 159.339 303.448 159.517 304.045 159.72C304.643 159.923 305.24 160.152 305.869 160.298L307.776 160.801L309.727 161.182C315.194 162.18 320.82 161.847 326.131 160.209L328.037 159.574L329.849 158.849C330.484 158.627 331.024 158.328 331.59 158.061C332.156 157.794 332.734 157.54 333.261 157.216L334.85 156.32C335.365 156.015 335.848 155.684 336.344 155.36L337.068 154.884C337.304 154.725 337.526 154.547 337.755 154.375L339.096 153.371C339.522 153.028 339.922 152.666 340.322 152.329C340.723 151.992 341.13 151.655 341.485 151.293C342.197 150.568 342.934 149.92 343.532 149.202C344.129 148.484 344.765 147.861 345.254 147.181C345.744 146.501 346.284 145.91 346.672 145.274C347.059 144.639 347.485 144.092 347.815 143.552C348.146 143.012 348.451 142.503 348.68 142.046C348.915 141.649 349.128 141.24 349.315 140.819L349.76 139.91L350.046 139.344L350.116 139.16Z" fill="#263238"/>
<path d="M337.22 162.113C336.996 162.304 336.753 162.472 336.496 162.615C335.821 163.04 335.125 163.43 334.411 163.785C329.685 166.173 324.454 167.394 319.158 167.344C318.36 167.341 317.562 167.297 316.769 167.21C316.477 167.201 316.187 167.159 315.904 167.083C316.196 167.058 316.49 167.058 316.781 167.083C317.341 167.115 318.154 167.121 319.158 167.083C324.407 167.013 329.578 165.808 334.316 163.55C335.225 163.117 335.949 162.749 336.439 162.476C336.687 162.33 336.949 162.209 337.22 162.113Z" fill="#263238"/>
<path d="M159.961 137.747C159.944 137.815 159.919 137.881 159.885 137.944C159.822 138.09 159.739 138.28 159.631 138.516L159.211 139.45C159.026 139.886 158.814 140.311 158.576 140.721L157.737 142.246C157.406 142.793 157.012 143.365 156.612 143.988C156.212 144.61 155.71 145.259 155.207 145.894C154.705 146.53 154.108 147.235 153.491 147.941C152.875 148.646 152.157 149.326 151.445 150.057C151.089 150.432 150.676 150.756 150.282 151.112C149.888 151.468 149.475 151.824 149.049 152.167L147.708 153.19C147.479 153.356 147.257 153.54 147.015 153.705L146.291 154.188C145.795 154.506 145.306 154.824 144.791 155.16L143.189 156.069C142.662 156.393 142.083 156.641 141.511 156.927C140.939 157.213 140.367 157.499 139.757 157.722L137.933 158.459L136.027 159.095C130.68 160.757 125.009 161.095 119.502 160.08L117.532 159.692L115.626 159.177C114.99 159.031 114.393 158.796 113.789 158.592C113.185 158.389 112.588 158.198 112.022 157.957L110.332 157.239C109.779 156.991 109.251 156.711 108.724 156.451L107.942 156.057C107.688 155.923 107.44 155.771 107.198 155.624L105.743 154.773C105.279 154.48 104.834 154.137 104.396 153.87C103.957 153.603 103.512 153.292 103.124 152.962C102.324 152.326 101.517 151.754 100.836 151.106C100.156 150.457 99.4637 149.898 98.8917 149.269C98.3197 148.64 97.7287 148.112 97.2711 147.521C96.8135 146.93 96.3368 146.428 95.9491 145.92L94.9323 144.509C94.6537 144.136 94.397 143.748 94.1633 143.346L93.6358 142.469L93.318 141.928C93.2765 141.87 93.2443 141.806 93.2227 141.738C93.2693 141.794 93.3118 141.853 93.3498 141.916L93.693 142.437L94.2459 143.288C94.488 143.684 94.7511 144.065 95.034 144.432L96.0699 145.824C96.4703 146.32 96.9342 146.835 97.4109 147.4C97.8876 147.966 98.4595 148.513 99.0443 149.123C99.629 149.733 100.315 150.305 100.995 150.928C101.675 151.551 102.483 152.123 103.277 152.758C103.671 153.082 104.116 153.349 104.548 153.648C104.98 153.947 105.431 154.252 105.895 154.544L107.338 155.383C107.586 155.523 107.827 155.669 108.082 155.802L108.863 156.19C109.385 156.444 109.912 156.724 110.459 156.972L112.143 157.671C112.702 157.925 113.306 158.103 113.897 158.306C114.488 158.51 115.092 158.732 115.721 158.878L117.628 159.387L119.585 159.768C125.05 160.766 130.674 160.433 135.982 158.796L137.889 158.16L139.706 157.436C140.342 157.213 140.876 156.908 141.448 156.648C142.02 156.387 142.586 156.12 143.113 155.802L144.702 154.906C145.217 154.595 145.706 154.271 146.195 153.947L146.926 153.47C147.161 153.305 147.384 153.127 147.613 152.962L148.947 151.957C149.373 151.614 149.774 151.252 150.18 150.909C150.587 150.565 150.987 150.241 151.337 149.873C152.055 149.148 152.792 148.506 153.39 147.788C153.987 147.07 154.616 146.441 155.112 145.761C155.608 145.081 156.135 144.49 156.529 143.854C156.923 143.219 157.337 142.672 157.667 142.132C157.998 141.592 158.303 141.077 158.538 140.626C158.772 140.229 158.985 139.819 159.173 139.399L159.625 138.484L159.904 137.924C159.904 137.804 159.961 137.74 159.961 137.747Z" fill="#263238"/>
<path d="M147.047 160.695C146.824 160.883 146.583 161.049 146.329 161.191C145.852 161.502 145.14 161.903 144.244 162.367C139.517 164.755 134.287 165.976 128.991 165.926C127.98 165.926 127.16 165.862 126.601 165.792C126.308 165.774 126.017 165.732 125.73 165.665C126.022 165.633 126.316 165.633 126.608 165.665C127.173 165.665 127.987 165.703 128.991 165.665C134.232 165.593 139.397 164.397 144.136 162.157C145.045 161.725 145.769 161.356 146.265 161.083C146.511 160.926 146.773 160.797 147.047 160.695Z" fill="#263238"/>
<path d="M295.334 60.2747H167.157C164.281 60.2747 161.523 59.1324 159.49 57.099C157.457 55.0657 156.314 52.3079 156.314 49.4323C156.314 46.5567 157.457 43.7989 159.49 41.7655C161.523 39.7322 164.281 38.5898 167.157 38.5898H295.334C298.209 38.5898 300.967 39.7322 303.001 41.7655C305.034 43.7989 306.176 46.5567 306.176 49.4323C306.176 52.3079 305.034 55.0657 303.001 57.099C300.967 59.1324 298.209 60.2747 295.334 60.2747Z" fill="#FAFAFA"/>
<path d="M295.332 60.273L296.164 60.2158C296.98 60.1454 297.785 59.9877 298.567 59.7455C299.834 59.3229 301.016 58.6772 302.056 57.8388C303.471 56.6962 304.581 55.2199 305.284 53.5425C305.683 52.5427 305.942 51.4926 306.053 50.422C306.152 49.2374 306.062 48.0447 305.786 46.8884C305.29 44.8499 304.206 43.0022 302.668 41.5751C301.13 40.1479 299.206 39.2043 297.137 38.8614C295.545 38.6974 293.944 38.6464 292.345 38.7089H281.877L167.167 38.7534C165.127 38.7556 163.131 39.3419 161.413 40.443C159.696 41.5441 158.33 43.1138 157.476 44.9667C156.622 46.8197 156.317 48.8782 156.596 50.8991C156.876 52.92 157.728 54.8187 159.052 56.3707C160.769 58.3939 163.186 59.6963 165.82 60.0187C167.091 60.1649 168.432 60.095 169.735 60.1141H196.25L247.825 60.1522L282.589 60.2031H292.04L282.621 60.3429L247.856 60.3937L196.282 60.4255H169.735C168.432 60.4255 167.117 60.4763 165.782 60.3302C163.726 60.0703 161.785 59.2349 160.183 57.9201C158.58 56.6054 157.382 54.8648 156.726 52.8988C156.07 50.9329 155.982 48.8216 156.474 46.8081C156.965 44.7946 158.015 42.9608 159.503 41.518C161.558 39.5279 164.306 38.4137 167.167 38.4102L281.877 38.461H292.345C293.955 38.4022 295.567 38.4595 297.168 38.6326C298.676 38.8812 300.112 39.4489 301.382 40.2977C303.684 41.8236 305.318 44.1689 305.952 46.8566C306.224 48.0307 306.308 49.2406 306.2 50.4411C306.085 51.5323 305.818 52.6021 305.405 53.6188C304.792 55.0892 303.864 56.4075 302.687 57.4812C301.51 58.555 300.112 59.3582 298.592 59.8344C297.806 60.0719 296.996 60.219 296.177 60.273C295.624 60.273 295.332 60.273 295.332 60.273Z" fill="#263238"/>
<path d="M238.801 57.6961H167.219C165.028 57.6961 162.926 56.8256 161.377 55.2762C159.827 53.7267 158.957 51.6252 158.957 49.434C158.957 47.2427 159.827 45.1412 161.377 43.5918C162.926 42.0423 165.028 41.1719 167.219 41.1719H238.801C240.992 41.1719 243.093 42.0423 244.643 43.5918C246.192 45.1412 247.063 47.2427 247.063 49.434C247.063 51.6252 246.192 53.7267 244.643 55.2762C243.093 56.8256 240.992 57.6961 238.801 57.6961Z" fill="#FF845C"/>
<g opacity="0.4">
<path d="M169.607 57.6946L179.878 41.1641H190.886L180.825 57.6946H169.607Z" fill="white"/>
</g>
<g opacity="0.4">
<path d="M191.676 57.6946L201.953 41.1641H212.954L202.893 57.6946H191.676Z" fill="white"/>
</g>
<g opacity="0.4">
<path d="M215.369 57.6946L225.64 41.1641H236.647L226.58 57.6946H215.369Z" fill="white"/>
</g>
<path d="M214.414 31.6651C214.414 32.9362 213.474 33.6989 211.967 33.6989H210.836V35.2559H209.533V29.625H211.967C213.474 29.625 214.414 30.4067 214.414 31.6651ZM213.092 31.6651C213.092 31.0296 212.692 30.6864 211.897 30.6864H210.836V32.6375H211.897C212.711 32.6375 213.092 32.2816 213.092 31.6651Z" fill="#263238"/>
<path d="M218.918 35.2559L217.838 33.6861H216.637V35.2559H215.334V29.625H217.794C219.3 29.625 220.24 30.4067 220.24 31.6651C220.256 32.0451 220.154 32.4207 219.946 32.7396C219.739 33.0586 219.438 33.305 219.084 33.4446L220.355 35.2559H218.918ZM217.698 30.6864H216.637V32.6502H217.698C218.493 32.6502 218.893 32.2816 218.893 31.6651C218.893 31.0486 218.493 30.6864 217.698 30.6864Z" fill="#263238"/>
<path d="M220.89 32.4415C220.855 31.8254 221.007 31.2132 221.324 30.6841C221.641 30.155 222.11 29.7334 222.67 29.4737C223.23 29.2141 223.855 29.1284 224.464 29.2277C225.072 29.3271 225.638 29.6069 226.086 30.031C226.534 30.4551 226.845 31.0039 226.977 31.6065C227.11 32.2091 227.059 32.8376 226.831 33.4108C226.602 33.984 226.207 34.4755 225.696 34.8216C225.186 35.1677 224.583 35.3526 223.966 35.3523C223.57 35.3748 223.173 35.3162 222.801 35.18C222.428 35.0439 222.088 34.833 221.8 34.5604C221.512 34.2879 221.282 33.9593 221.126 33.5949C220.969 33.2306 220.889 32.8381 220.89 32.4415ZM225.726 32.4415C225.719 32.095 225.609 31.7585 225.411 31.474C225.213 31.1896 224.936 30.9699 224.613 30.8425C224.291 30.7151 223.938 30.6856 223.599 30.7578C223.26 30.8299 222.95 31.0006 222.708 31.2482C222.465 31.4959 222.302 31.8095 222.237 32.15C222.172 32.4904 222.209 32.8424 222.343 33.1618C222.477 33.4813 222.703 33.754 222.992 33.9458C223.28 34.1377 223.619 34.24 223.966 34.2401C224.202 34.2465 224.437 34.2041 224.656 34.1154C224.875 34.0268 225.073 33.8939 225.238 33.7251C225.404 33.5562 225.532 33.3551 225.616 33.1342C225.7 32.9133 225.738 32.6775 225.726 32.4415Z" fill="#263238"/>
<path d="M227.67 32.4407C227.706 31.8341 227.921 31.2517 228.286 30.766C228.651 30.2803 229.151 29.9129 229.724 29.7096C230.297 29.5063 230.916 29.4761 231.506 29.6227C232.096 29.7693 232.629 30.0863 233.04 30.5341L232.208 31.3031C232.033 31.0994 231.815 30.9368 231.57 30.8269C231.325 30.7171 231.059 30.6627 230.79 30.6676C230.331 30.6949 229.9 30.8966 229.584 31.2315C229.268 31.5664 229.093 32.0092 229.093 32.4693C229.093 32.9295 229.268 33.3723 229.584 33.7072C229.9 34.0421 230.331 34.2438 230.79 34.2711C231.059 34.2783 231.326 34.2249 231.572 34.1149C231.817 34.0048 232.034 33.841 232.208 33.6356L233.047 34.3474C232.636 34.7952 232.102 35.1122 231.513 35.2588C230.923 35.4054 230.303 35.3752 229.73 35.1719C229.158 34.9686 228.657 34.6012 228.292 34.1155C227.927 33.6298 227.713 33.0473 227.676 32.4407H227.67Z" fill="#263238"/>
<path d="M238.278 34.2073V35.2559H233.918V29.625H238.17V30.6736H235.214V31.8685H237.827V32.879H235.214V34.1819L238.278 34.2073Z" fill="#263238"/>
<path d="M238.869 34.6997L239.314 33.721C239.86 34.097 240.507 34.3006 241.17 34.3057C241.939 34.3057 242.257 34.0515 242.257 33.6701C242.257 32.6215 238.984 33.346 238.984 31.2551C238.984 30.2954 239.753 29.501 241.354 29.501C242.037 29.4856 242.712 29.657 243.305 29.9967L242.905 30.9881C242.433 30.7079 241.897 30.5546 241.348 30.5432C240.572 30.5432 240.274 30.8356 240.274 31.1788C240.274 32.2147 243.547 31.4966 243.547 33.5621C243.547 34.5027 242.771 35.3098 241.163 35.3098C240.354 35.3439 239.554 35.1311 238.869 34.6997Z" fill="#263238"/>
<path d="M243.998 34.6997L244.437 33.721C244.985 34.0971 245.634 34.3007 246.299 34.3057C247.068 34.3057 247.379 34.0515 247.379 33.6701C247.379 32.6215 244.112 33.346 244.112 31.2551C244.112 30.2954 244.881 29.501 246.483 29.501C247.166 29.4856 247.841 29.657 248.434 29.9967L248.034 30.9881C247.56 30.7068 247.021 30.5535 246.47 30.5432C245.701 30.5432 245.403 30.8356 245.403 31.1788C245.403 32.2147 248.676 31.4966 248.676 33.5621C248.676 34.5027 247.894 35.3098 246.286 35.3098C245.479 35.343 244.681 35.1302 243.998 34.6997Z" fill="#263238"/>
<path d="M400 246.564C400 246.653 310.452 246.729 200.013 246.729C89.5739 246.729 0 246.684 0 246.564C0 246.443 89.5294 246.398 200.013 246.398C310.496 246.398 400 246.475 400 246.564Z" fill="#263238"/>
<path d="M9.5625 230.975L15.7845 217.629L30.3067 225.98L22.7755 238.195C22.7755 238.195 16.8967 239.237 14.2846 237.63C11.6725 236.022 9.5625 230.975 9.5625 230.975Z" fill="#FFBE9D"/>
<path d="M22.0453 239.432L22.7889 238.192C17.7032 237.325 13.0529 234.784 9.57593 230.973L4.59961 240.125L32.087 255.238C33.3581 252.524 22.0453 239.432 22.0453 239.432Z" fill="#FF845C"/>
<path d="M4.58594 240.128L5.79983 237.891L31.7555 253.252C31.7555 253.252 32.6834 254.453 32.0733 255.241L4.58594 240.128Z" fill="#263238"/>
<path d="M22.559 239.541C22.4764 239.675 21.7709 239.363 20.8748 239.433C19.9787 239.503 19.3177 239.872 19.2224 239.751C19.127 239.63 19.7562 238.963 20.843 238.899C21.9298 238.836 22.6797 239.433 22.559 239.541Z" fill="#263238"/>
<path d="M24.784 242.321C24.7458 242.467 24.034 242.378 23.2714 242.689C22.5087 243.001 22.0448 243.509 21.9049 243.458C21.7651 243.408 22.1083 242.575 23.0744 242.187C24.0404 241.8 24.8539 242.187 24.784 242.321Z" fill="#263238"/>
<path d="M24.5216 246.688C24.3818 246.65 24.5661 245.881 25.316 245.334C26.066 244.787 26.854 244.838 26.8477 244.985C26.8413 245.131 26.2121 245.309 25.6338 245.76C25.0554 246.211 24.6614 246.732 24.5216 246.688Z" fill="#263238"/>
<path d="M11.101 237.655C11.0184 237.795 10.8963 237.908 10.7498 237.98C10.6033 238.051 10.4391 238.077 10.2777 238.055C10.1164 238.033 9.96505 237.964 9.84282 237.857C9.72058 237.749 9.63287 237.608 9.59069 237.45C9.54852 237.293 9.55376 237.127 9.60576 236.973C9.65777 236.818 9.75421 236.683 9.88298 236.583C10.0118 236.483 10.1671 236.424 10.3295 236.412C10.492 236.401 10.6542 236.437 10.7959 236.517C10.8913 236.571 10.975 236.644 11.0421 236.731C11.1092 236.817 11.1583 236.916 11.1867 237.022C11.2151 237.128 11.2222 237.239 11.2074 237.347C11.1927 237.456 11.1565 237.561 11.101 237.655Z" fill="#263238"/>
<path d="M75.0938 236.423L82.3008 221.215L96.982 221.444L89.4571 236.252C89.4571 236.252 84.6015 240.014 81.4556 239.798C78.3096 239.582 75.0938 236.423 75.0938 236.423Z" fill="#FFBE9D"/>
<path d="M89.3741 237.734L89.4567 236.253C84.1626 237.899 79.8028 237.81 74.7692 236.012C74.2321 236.938 73.9411 237.986 73.924 239.056L73.8223 246.689L106.076 247.293C105.936 244.236 89.3741 237.734 89.3741 237.734Z" fill="#FF845C"/>
<path d="M73.8223 246.685L73.854 244.066L104.831 245.63C104.831 245.63 106.254 246.265 106.102 247.289L73.8223 246.685Z" fill="#263238"/>
<path d="M89.9023 237.58C89.9023 237.739 89.1079 237.796 88.3198 238.286C87.5317 238.775 87.1122 239.43 86.9661 239.366C86.8199 239.302 87.0741 238.394 88.0338 237.815C88.9935 237.237 89.9404 237.434 89.9023 237.58Z" fill="#263238"/>
<path d="M93.2566 239.062C93.2566 239.215 92.6211 239.469 92.0554 240.13C91.4898 240.791 91.3373 241.483 91.1847 241.477C91.0322 241.471 90.9432 240.575 91.6423 239.767C92.3414 238.96 93.2566 238.897 93.2566 239.062Z" fill="#263238"/>
<path d="M95.1332 243.129C94.9934 243.161 94.79 242.367 95.2094 241.515C95.6289 240.663 96.3407 240.333 96.4043 240.46C96.4678 240.587 96.0039 241.045 95.667 241.731C95.3302 242.417 95.2603 243.116 95.1332 243.129Z" fill="#263238"/>
<path d="M78.5701 241.342C78.5649 241.511 78.5098 241.674 78.4118 241.812C78.3137 241.949 78.1771 242.054 78.0193 242.113C77.8615 242.173 77.6895 242.184 77.5253 242.146C77.361 242.108 77.2119 242.021 77.0967 241.898C76.9815 241.775 76.9055 241.62 76.8783 241.454C76.8511 241.287 76.874 241.116 76.944 240.963C77.014 240.81 77.128 240.68 77.2715 240.592C77.415 240.503 77.5816 240.459 77.7502 240.465C77.975 240.474 78.1874 240.571 78.341 240.735C78.4946 240.899 78.5769 241.118 78.5701 241.342Z" fill="#263238"/>
<path d="M159.482 34.4148C160.746 34.1854 161.918 33.6011 162.862 32.73C163.807 31.8589 164.483 30.7371 164.814 29.4957C164.809 29.3604 164.835 29.2258 164.89 29.102C164.945 28.9782 165.027 28.8684 165.131 28.781C165.234 28.6935 165.356 28.6306 165.487 28.597C165.618 28.5634 165.755 28.5599 165.888 28.5869C166.566 28.5707 167.234 28.4171 167.851 28.1352C168.469 27.8534 169.022 27.4492 169.479 26.9472C169.928 26.4337 170.235 25.8114 170.369 25.1423C170.503 24.4732 170.459 23.7807 170.241 23.1339C172.313 23.3818 174.233 21.3671 174.239 19.2761C174.245 17.1852 172.644 15.304 170.68 14.6049C171.208 14.2443 171.606 13.7234 171.816 13.1192C172.025 12.5149 172.035 11.8593 171.843 11.2492C171.426 10.0342 170.619 8.99095 169.549 8.28117C168.182 7.25794 166.282 6.53342 164.788 7.3787C165.176 6.39995 164.553 5.29411 163.752 4.62043C162.646 3.74562 161.256 3.31041 159.848 3.39839C158.44 3.48637 157.115 4.09134 156.126 5.09709C155.686 4.10698 154.948 3.27844 154.016 2.7265C153.544 2.46401 152.998 2.3647 152.464 2.44399C151.929 2.52328 151.436 2.77674 151.061 3.16502C151.061 2.09731 150.222 1.25839 149.319 0.673683C148.686 0.236829 147.934 0.00197266 147.165 0C146.78 0.0114018 146.408 0.138916 146.097 0.365782C145.786 0.592647 145.551 0.908245 145.423 1.27109C144.909 0.731029 144.213 0.401662 143.469 0.347181C142.726 0.292701 141.989 0.51701 141.402 0.976395C140.815 1.43578 140.419 2.09732 140.294 2.83209C140.168 3.56686 140.32 4.3222 140.72 4.95091C140.065 4.97962 139.429 5.1767 138.872 5.52312C138.316 5.86954 137.858 6.35359 137.543 6.92854C137.228 7.5035 137.067 8.14995 137.074 8.80547C137.082 9.46099 137.259 10.1035 137.587 10.6708C136.99 10.4357 136.316 11.0712 136.316 11.7131C136.347 12.0349 136.453 12.3447 136.627 12.6175C136.8 12.8903 137.036 13.1183 137.314 13.2829C136.106 15.1599 134.894 17.0326 133.678 18.9012C132.835 20.0626 132.178 21.3493 131.734 22.7144C131.518 23.4014 131.466 24.1294 131.582 24.8401C131.697 25.5508 131.978 26.2245 132.401 26.8074" fill="#263238"/>
<path d="M162.944 29.0013C165.638 24.3173 163.789 16.6272 159.022 14.1422L142.733 7.31641L141.183 9.76326L120.953 41.28L132.113 57.9313L140.547 47.6228C140.547 47.6228 146.902 50.4637 153.035 43.7523C156.092 40.4347 159.957 34.2 162.944 29.0013Z" fill="#FFBE9D"/>
<path d="M157.912 33.0783C157.75 33.3307 157.495 33.5094 157.203 33.576C156.911 33.6425 156.604 33.5916 156.348 33.4342C156.22 33.3629 156.108 33.2667 156.017 33.1512C155.927 33.0357 155.86 32.9033 155.822 32.7618C155.783 32.6202 155.773 32.4724 155.793 32.327C155.812 32.1816 155.861 32.0416 155.935 31.9152C156.097 31.663 156.351 31.4841 156.643 31.4164C156.935 31.3488 157.242 31.3977 157.499 31.553C157.627 31.6249 157.74 31.7217 157.83 31.8377C157.921 31.9538 157.987 32.0867 158.026 32.2288C158.064 32.3708 158.074 32.5192 158.055 32.665C158.035 32.8109 157.986 32.9514 157.912 33.0783Z" fill="#263238"/>
<path d="M159.528 31.2976C159.324 31.3421 158.956 30.3252 157.926 29.6451C156.896 28.9651 155.797 29.0096 155.771 28.7808C155.771 28.6855 156.019 28.5393 156.509 28.5202C157.159 28.5066 157.798 28.693 158.339 29.0541C158.876 29.4088 159.285 29.9252 159.508 30.5286C159.661 30.9798 159.623 31.2785 159.528 31.2976Z" fill="#263238"/>
<path d="M148.287 27.4682C148.125 27.7204 147.871 27.8994 147.579 27.967C147.287 28.0347 146.98 27.9857 146.724 27.8305C146.595 27.7586 146.483 27.6618 146.392 27.5457C146.302 27.4297 146.235 27.2967 146.197 27.1547C146.158 27.0126 146.148 26.8643 146.168 26.7184C146.188 26.5726 146.236 26.4321 146.311 26.3052C146.474 26.0541 146.728 25.8764 147.02 25.8099C147.312 25.7435 147.618 25.7935 147.874 25.9493C148.002 26.0206 148.115 26.1168 148.205 26.2323C148.296 26.3477 148.362 26.4801 148.401 26.6217C148.439 26.7632 148.449 26.9111 148.43 27.0564C148.41 27.2018 148.362 27.3418 148.287 27.4682Z" fill="#263238"/>
<path d="M149.155 25.0244C148.951 25.0753 148.583 24.052 147.553 23.372C146.523 22.692 145.43 22.7364 145.398 22.5076C145.398 22.4187 145.653 22.2725 146.142 22.2471C146.792 22.2308 147.43 22.4198 147.966 22.7873C148.51 23.1329 148.927 23.6459 149.155 24.249C149.301 24.713 149.256 25.0053 149.155 25.0244Z" fill="#263238"/>
<path d="M147.939 34.9307C148.593 35.1217 149.221 35.3928 149.808 35.7378C150.088 35.884 150.374 35.9984 150.539 35.8459C150.74 35.5881 150.86 35.276 150.882 34.9497C151.054 34.1426 151.238 33.3037 151.435 32.4076C152.248 28.8294 153.03 25.9568 153.17 25.9885C153.31 26.0203 152.77 28.9502 151.95 32.5283C151.746 33.4117 151.549 34.2506 151.359 35.0705C151.312 35.4987 151.116 35.8969 150.806 36.1954C150.707 36.2636 150.593 36.3083 150.474 36.3259C150.355 36.3435 150.234 36.3337 150.119 36.2971C149.948 36.2364 149.784 36.1576 149.63 36.062C149.018 35.7624 148.45 35.3819 147.939 34.9307Z" fill="#263238"/>
<path d="M140.547 47.6442C136.996 45.3665 134.151 42.1445 132.329 38.3398C132.329 38.3398 131.153 45.191 139.079 49.4365L140.547 47.6442Z" fill="#EB996E"/>
<path d="M145.857 37.1333C145.825 36.7563 145.698 36.3935 145.487 36.0797C145.275 35.7659 144.987 35.5116 144.649 35.3411C144.408 35.2112 144.142 35.1314 143.869 35.1062C143.597 35.0811 143.321 35.1113 143.06 35.1949C142.81 35.2778 142.59 35.4344 142.43 35.6442C142.27 35.854 142.178 36.1072 142.164 36.3707C142.206 36.666 142.336 36.9418 142.537 37.1627C142.737 37.3836 142.999 37.5394 143.289 37.61C143.89 37.7584 144.514 37.7865 145.126 37.6926C145.296 37.6893 145.465 37.6526 145.621 37.5846C145.698 37.5528 145.763 37.4989 145.808 37.4298C145.853 37.3606 145.877 37.2795 145.876 37.1969" fill="#EB996E"/>
<path d="M144.438 33.6385C144.609 33.7402 143.866 34.8588 144.298 36.2951C144.73 37.7314 145.995 38.3924 145.899 38.5513C145.804 38.7102 145.493 38.5958 144.978 38.2716C144.316 37.8495 143.827 37.2049 143.599 36.454C143.377 35.7301 143.445 34.9484 143.789 34.274C144.069 33.7783 144.361 33.5813 144.438 33.6385Z" fill="#263238"/>
<path d="M151.917 21.5339C151.625 21.75 150.69 20.9365 149.375 20.2628C148.059 19.5891 146.871 19.2904 146.877 18.9281C146.877 18.7629 147.233 18.6104 147.805 18.5977C148.549 18.6133 149.279 18.799 149.94 19.1405C150.601 19.482 151.175 19.9702 151.618 20.5678C151.968 21.0699 152.05 21.4322 151.917 21.5339Z" fill="#263238"/>
<path d="M161.126 28.0581C160.789 28.1725 160.242 27.4226 159.397 26.876C158.552 26.3294 157.719 25.9926 157.713 25.6049C157.713 25.4397 157.986 25.2744 158.45 25.2617C159.05 25.2794 159.631 25.4741 160.121 25.8213C160.611 26.1684 160.987 26.6526 161.202 27.2128C161.342 27.6832 161.278 27.9946 161.126 28.0581Z" fill="#263238"/>
<path d="M165.588 18.3244C165.38 19.1715 164.922 19.9364 164.273 20.5196C163.624 21.1028 162.815 21.4774 161.951 21.5946C161.086 21.7118 160.207 21.5663 159.426 21.1769C158.646 20.7875 158 20.1723 157.574 19.4112C157.625 19.8208 157.523 20.2348 157.289 20.5745C157.055 20.9143 156.704 21.1562 156.303 21.2543C155.487 21.4161 154.641 21.2518 153.945 20.7967C153.197 20.3572 152.553 19.7619 152.057 19.0513C151.56 18.3406 151.222 17.5313 151.066 16.6784C150.608 17.2008 150.035 17.6099 149.392 17.8734C148.749 18.137 148.054 18.2479 147.361 18.1973C146.67 18.1347 146.003 17.9112 145.414 17.5448C144.824 17.1785 144.329 16.6793 143.967 16.0873C144.137 16.9094 144.056 17.7636 143.734 18.5389C143.412 19.3142 142.864 19.9747 142.162 20.4344C141.45 20.8845 140.614 21.0997 139.773 21.0495C138.932 20.9994 138.128 20.6865 137.475 20.155C136.821 19.6235 136.351 18.9003 136.13 18.0872C135.909 17.2742 135.95 16.4124 136.245 15.6234C135.863 15.0414 135.62 14.3793 135.534 13.6883C135.449 12.9973 135.524 12.2959 135.753 11.6385C135.982 10.981 136.359 10.3851 136.856 9.89689C137.352 9.40867 137.954 9.04124 138.616 8.82301C138.338 8.43805 138.168 7.98674 138.121 7.5147C138.074 7.04265 138.153 6.5666 138.349 6.13465C138.74 5.2662 139.354 4.51645 140.128 3.96108C141.016 3.22185 142.044 2.66783 143.149 2.33165C144.255 1.99547 145.417 1.88393 146.566 2.0036C148.854 2.34044 150.983 4.05006 151.428 6.32532C151.448 6.58638 151.548 6.83497 151.714 7.03712C151.864 7.13567 152.035 7.19642 152.213 7.21413C152.391 7.23184 152.571 7.206 152.737 7.13881C154.275 6.77655 155.915 6.3698 157.415 6.85917C158.319 7.18255 159.086 7.80165 159.594 8.61609C160.102 9.43052 160.319 10.3925 160.211 11.3461C162.118 10.3992 164.66 10.7106 166.039 12.2995C167.419 13.8883 167.133 16.7864 165.283 17.8414" fill="#263238"/>
<path d="M138.986 19.5231C137.905 20.9935 136.621 22.303 135.173 23.4127C134.537 23.883 133.774 24.3342 133.05 24.0482C132.734 23.8914 132.477 23.6379 132.316 23.3246C132.155 23.0113 132.098 22.6547 132.154 22.3068C132.281 21.6101 132.578 20.9553 133.018 20.4002C134.48 18.3632 136.074 16.4248 137.791 14.5977" fill="#263238"/>
<path d="M136.557 19.6239C136.494 19.5222 133.666 15.8106 131.073 19.6239C128.479 23.4371 132.795 25.223 132.877 25.1213C132.96 25.0197 136.557 19.6239 136.557 19.6239Z" fill="#FFBE9D"/>
<path d="M132.705 22.8648C132.705 22.8648 132.61 22.8648 132.464 22.8648C132.262 22.8253 132.085 22.709 131.968 22.5406C131.831 22.2172 131.782 21.8632 131.827 21.5148C131.871 21.1664 132.008 20.8361 132.222 20.5577C132.432 20.2274 132.715 19.9492 133.048 19.7442C133.165 19.6504 133.303 19.5864 133.451 19.5576C133.598 19.5288 133.75 19.5362 133.894 19.579C133.982 19.6106 134.057 19.6725 134.105 19.7539C134.153 19.8353 134.17 19.9309 134.154 20.0239C134.154 20.1637 134.059 20.2209 134.071 20.2399C134.084 20.259 134.199 20.24 134.275 20.0556C134.311 19.9463 134.311 19.8281 134.275 19.7188C134.251 19.6444 134.212 19.5756 134.161 19.5166C134.109 19.4576 134.047 19.4096 133.976 19.3756C133.801 19.2976 133.608 19.2672 133.417 19.2873C133.227 19.3073 133.045 19.3773 132.889 19.49C132.505 19.7067 132.18 20.0144 131.942 20.3861C131.44 21.1678 131.339 22.1466 131.777 22.6804C131.859 22.7776 131.961 22.8558 132.077 22.9096C132.192 22.9634 132.317 22.9914 132.444 22.9919C132.629 22.9728 132.718 22.8838 132.705 22.8648Z" fill="#EB996E"/>
<path d="M151.377 15.7908C151.377 15.7908 151.409 15.8353 151.472 15.8988C151.536 15.9624 151.65 16.0641 151.79 16.1848C152.2 16.5395 152.655 16.8387 153.144 17.0746C153.493 17.246 153.862 17.3721 154.243 17.4496C154.731 17.5523 155.236 17.5422 155.72 17.4199C156.204 17.2977 156.653 17.0665 157.033 16.7441C157.492 16.3536 157.793 15.809 157.879 15.2124H157.688C158.157 16.4306 159.009 17.4634 160.116 18.155C160.715 18.5344 161.378 18.8014 162.073 18.9431C162.438 19.0207 162.813 19.0443 163.185 19.013C163.575 18.9709 163.947 18.8237 164.259 18.5872C164.609 18.3028 164.891 17.9447 165.086 17.5385C165.274 17.1548 165.433 16.7575 165.562 16.3501C165.705 15.9535 165.789 15.538 165.81 15.1171C165.825 14.905 165.794 14.6922 165.718 14.4935C165.642 14.2948 165.524 14.1151 165.372 13.9668L165.206 14.1193C165.724 14.738 166.433 15.1672 167.221 15.3396C167.933 15.5031 168.677 15.4657 169.369 15.2315C169.985 15.0171 170.523 14.6231 170.914 14.1002C171.245 13.6552 171.474 13.1434 171.587 12.6003C171.755 11.8354 171.678 11.0369 171.365 10.3187C171.257 10.0617 171.109 9.8236 170.926 9.61328C170.926 9.61328 171.098 9.85479 171.301 10.3442C171.574 11.0558 171.627 11.8328 171.454 12.5749C171.345 13.0911 171.129 13.5784 170.818 14.0049C170.437 14.491 169.923 14.8554 169.337 15.0536C168.678 15.2696 167.972 15.2982 167.297 15.1362C166.55 14.9764 165.878 14.5688 165.391 13.9795L165.232 14.132C165.358 14.2615 165.455 14.4163 165.516 14.5862C165.577 14.7561 165.602 14.9371 165.588 15.1171C165.567 15.5143 165.488 15.9062 165.353 16.2802C165.155 17.0904 164.729 17.827 164.126 18.4029C163.836 18.5964 163.507 18.7251 163.163 18.7799C162.819 18.8347 162.466 18.8145 162.13 18.7207C161.454 18.5855 160.809 18.3293 160.224 17.9644C159.156 17.3008 158.329 16.3115 157.866 15.1425L157.72 14.7612L157.675 15.168C157.598 15.7158 157.325 16.217 156.906 16.5789C156.526 16.9107 156.07 17.1442 155.578 17.2589C155.144 17.3474 154.696 17.3474 154.262 17.2589C153.892 17.1916 153.531 17.0785 153.188 16.9221C152.703 16.6968 152.245 16.4175 151.822 16.0895C151.536 15.9115 151.383 15.7844 151.377 15.7908Z" fill="white"/>
<path d="M164.248 21.9178C164.248 21.9178 164.286 22.0322 164.42 22.2038C164.616 22.4456 164.858 22.6465 165.131 22.7948C165.543 23.0317 166.018 23.136 166.492 23.0935C166.788 23.0645 167.062 22.9209 167.254 22.6931C167.363 22.5658 167.432 22.4097 167.453 22.2439C167.474 22.0781 167.447 21.9096 167.375 21.7589L167.184 21.8923L167.235 21.9559C167.58 22.3536 168.008 22.6707 168.489 22.8849C168.97 23.099 169.492 23.2049 170.019 23.1952C170.336 23.1955 170.652 23.1439 170.953 23.0427C171.163 22.9728 171.271 22.9092 171.264 22.8965C170.846 22.9822 170.42 23.029 169.993 23.0363C169.497 23.0221 169.008 22.9052 168.558 22.693C168.109 22.4808 167.708 22.1779 167.381 21.8034L167.33 21.7462L166.593 20.8945L167.14 21.8733C167.191 21.9838 167.209 22.1067 167.192 22.2273C167.175 22.3478 167.124 22.461 167.044 22.5533C166.884 22.7424 166.656 22.8611 166.409 22.8838C165.972 22.9308 165.531 22.8514 165.138 22.655C164.807 22.4542 164.507 22.2058 164.248 21.9178Z" fill="white"/>
<path d="M155.42 28.3708C155.42 28.4089 155.763 28.3708 156.297 28.3708C156.988 28.4129 157.66 28.613 158.261 28.9555C158.856 29.3097 159.359 29.7997 159.729 30.3854C160.021 30.8367 160.129 31.1545 160.167 31.1417C160.137 30.843 160.037 30.5555 159.875 30.3028C159.524 29.6622 159.006 29.1287 158.376 28.7594C157.746 28.39 157.027 28.1986 156.297 28.2055C155.996 28.1904 155.695 28.2471 155.42 28.3708Z" fill="#EB996E"/>
<path d="M145.342 21.6528C145.577 21.6664 145.812 21.6664 146.047 21.6528C146.603 21.687 147.142 21.8502 147.623 22.1295C148.104 22.4119 148.513 22.8012 148.818 23.2671C149.06 23.623 149.155 23.9027 149.187 23.9027C149.175 23.6572 149.096 23.4197 148.958 23.2163C148.681 22.6869 148.26 22.2463 147.744 21.9452C147.228 21.6487 146.642 21.4971 146.047 21.5067C145.803 21.4911 145.56 21.5416 145.342 21.6528Z" fill="#EB996E"/>
<path d="M143.269 33.4248C143.269 33.4248 143.384 33.4248 143.536 33.374C143.73 33.3275 143.933 33.3275 144.127 33.374C144.591 33.5075 144.953 33.749 144.991 33.679C145.03 33.6091 144.731 33.3168 144.191 33.1515C143.955 33.0828 143.704 33.0985 143.479 33.196C143.307 33.2977 143.25 33.4058 143.269 33.4248Z" fill="#EB996E"/>
<path d="M142.164 33.4967C142.215 33.5412 142.482 33.3061 142.85 33.0773C143.219 32.8485 143.537 32.6959 143.486 32.6324C143.435 32.5688 143.086 32.6324 142.692 32.8802C142.298 33.1281 142.164 33.4586 142.164 33.4967Z" fill="#EB996E"/>
<path d="M129.541 22.3372C129.242 22.2678 128.931 22.2678 128.632 22.3372C127.804 22.4884 127.03 22.8544 126.388 23.3986C125.909 23.8152 125.529 24.3341 125.277 24.9172C125.025 25.5002 124.908 26.1324 124.933 26.767C124.966 27.5499 125.223 28.3068 125.674 28.9478C126.125 29.5889 126.75 30.0871 127.475 30.3833C128.236 30.6928 129.078 30.7441 129.871 30.5294C130.597 30.3402 131.269 29.9857 131.835 29.4935C132.324 29.0894 132.717 28.5815 132.985 28.0065C133.254 27.4315 133.39 26.804 133.386 26.1696C133.363 25.3185 133.052 24.5004 132.502 23.8498C132.108 23.3986 131.803 23.2588 131.791 23.2779C131.778 23.2969 132.032 23.5003 132.363 23.9579C132.822 24.6035 133.066 25.3773 133.062 26.1696C133.044 26.7485 132.901 27.3167 132.642 27.8347C132.383 28.3527 132.014 28.8081 131.562 29.1694C131.042 29.6434 130.403 29.9677 129.714 30.1076C129.025 30.2475 128.31 30.1978 127.647 29.9638C126.996 29.7002 126.432 29.2578 126.022 28.6876C125.611 28.1174 125.37 27.4428 125.327 26.7416C125.298 26.163 125.397 25.585 125.616 25.049C125.836 24.5129 126.171 24.0318 126.598 23.6401C127.189 23.1037 127.899 22.7159 128.67 22.5088C129.223 22.4071 129.541 22.3881 129.541 22.3372Z" fill="#455A64"/>
<path d="M62.8975 98.7969C51.3433 107.758 49.5892 121.988 48.7948 130.148C48.0003 138.309 41.6957 170.931 41.6957 170.931C41.6957 170.931 28.4954 191.428 23.7542 200.116C19.0131 208.804 9.5625 226.942 9.5625 226.942L25.3812 236.717C25.3812 236.717 53.7965 198.037 58.7983 190.405C63.8 182.772 89.3045 118.512 89.3045 118.512L62.8975 98.7969Z" fill="#263238"/>
<path d="M100.497 119.94C101.292 121.465 122.271 173.224 121.725 178.41C121.178 183.597 95.0316 236.728 95.0316 236.728L75.6855 228.523L95.5718 184.404L96.1184 178.341L77.5922 143.258L83.5854 117.379L100.497 119.94Z" fill="#263238"/>
<path d="M86.7164 126.735C86.8053 126.773 84.6127 131.978 81.829 138.365C79.0453 144.752 76.7447 149.894 76.6366 149.856C76.5286 149.818 78.7403 144.619 81.524 138.232C84.3077 131.844 86.6337 126.696 86.7164 126.735Z" fill="#455A64"/>
<path d="M103.357 180.115C102.162 180.456 100.896 180.456 99.7023 180.115C98.4826 179.877 97.3522 179.308 96.4355 178.469C97.5062 179.014 98.6253 179.459 99.7785 179.797C100.959 180.012 102.157 180.118 103.357 180.115Z" fill="#455A64"/>
<path d="M102.523 185.207C102.523 185.296 101.093 184.781 99.3009 184.464C97.5087 184.146 96.0215 184.133 96.0215 184.031C97.1301 183.85 98.2635 183.887 99.3581 184.139C100.473 184.283 101.549 184.646 102.523 185.207Z" fill="#455A64"/>
<path d="M68.0021 108.496C68.0021 108.496 67.8813 108.63 67.6271 108.827C67.3729 109.024 66.9916 109.284 66.4958 109.589C63.9012 111.132 60.9638 112.005 57.9478 112.131C57.4948 112.159 57.0406 112.159 56.5877 112.131C56.2636 112.131 56.0856 112.087 56.092 112.062C56.0983 112.036 56.7974 112.011 57.935 111.915C59.4099 111.781 60.8681 111.502 62.2885 111.083C63.7059 110.655 65.077 110.086 66.3814 109.386C66.905 109.06 67.4461 108.763 68.0021 108.496Z" fill="#455A64"/>
<path d="M135.895 55.7275L152.82 77.5776L188.321 92.1189L184.54 99.6947L139.162 84.2L124.303 53.7383L135.895 55.7275Z" fill="#455A64"/>
<g opacity="0.2">
<path d="M135.897 55.7314L152.822 77.5815L188.323 92.1228L184.542 99.6986L139.164 84.2039L124.305 53.7422L135.897 55.7314Z" fill="black"/>
</g>
<path d="M119.431 42.7917C119.072 42.4445 118.863 41.9705 118.85 41.4713C118.837 40.9722 119.02 40.4879 119.361 40.1224L121.674 37.5357C121.821 37.3378 122.04 37.2055 122.284 37.1675C122.528 37.1295 122.776 37.1887 122.977 37.3323C126.199 39.6648 138.395 48.9247 138.37 51.5813C138.37 54.5811 133.171 57.6063 133.171 57.6063L119.431 42.7917Z" fill="#455A64"/>
<path d="M111.358 58.9596C111.358 58.9596 134.028 90.2794 139.957 93.9147C145.887 97.55 182.984 102.628 182.984 102.628L184.395 91.614L148.601 80.1742C148.601 80.1742 125.245 45.753 124.647 44.7615C124.05 43.7701 119.442 40.0521 114.358 40.7004C109.273 41.3486 106.693 49.3756 108.447 53.3478C109.114 54.8349 111.358 58.9596 111.358 58.9596Z" fill="#455A64"/>
<path d="M119.574 40.7159C119.574 40.7159 113.054 37.9131 106.794 43.7475C103.444 46.8807 72.7918 89.8309 70.6246 92.6846L61.8223 98.7667C76.5542 112.329 87.9686 123.674 103.679 127.614L111.865 101.067L137.014 78.1877L119.574 40.7159Z" fill="#455A64"/>
<path d="M108.912 55.7344C108.999 55.8233 109.075 55.9213 109.141 56.0267C109.293 56.2555 109.49 56.5479 109.738 56.8974C110.247 57.6664 111.009 58.7596 111.944 60.0752C113.85 62.7635 116.564 66.3861 119.735 70.2757C122.907 74.1652 125.881 77.5972 127.998 80.0885C129.046 81.3151 129.904 82.3129 130.54 83.0502L131.22 83.8637C131.372 84.048 131.449 84.156 131.436 84.1624C131.338 84.087 131.249 84.0018 131.169 83.9082L130.444 83.1328L127.832 80.2411C125.646 77.7878 122.646 74.375 119.469 70.4791C116.291 66.5832 113.583 62.9351 111.74 60.2086C110.812 58.8422 110.088 57.7236 109.618 56.9356C109.395 56.5669 109.211 56.3 109.071 56.0267C109.007 55.9355 108.954 55.8374 108.912 55.7344Z" fill="#263238"/>
<path d="M184.395 91.6138L184.217 91.5693L183.696 91.404L181.694 90.7685L174.207 88.2771L148.55 79.6401H148.499L148.468 79.5892C146.148 76.17 143.663 72.4965 141.102 68.7087L129.999 52.2734L125.162 45.0981C124.811 44.5412 124.429 44.0043 124.018 43.4902C123.805 43.2595 123.574 43.0469 123.325 42.8546C123.078 42.6576 122.862 42.4288 122.601 42.2572C121.602 41.595 120.479 41.1443 119.3 40.9328C118.12 40.7212 116.91 40.7534 115.744 41.0273C114.577 41.3012 113.479 41.811 112.517 42.5253C111.555 43.2396 110.75 44.1433 110.151 45.1807C109.894 45.6827 109.682 46.2058 109.515 46.7442C109.379 47.1363 109.281 47.5407 109.223 47.9517C109.14 48.5173 109.102 48.797 109.077 48.9749C109.073 48.63 109.1 48.2853 109.159 47.9454C109.201 47.5256 109.291 47.1119 109.426 46.7124C109.583 46.1605 109.796 45.626 110.062 45.1172C110.844 43.7352 111.978 42.5843 113.347 41.7806C115.178 40.7163 117.319 40.3167 119.41 40.6493C120.614 40.8822 121.758 41.358 122.773 42.0475C123.033 42.2464 123.283 42.4586 123.522 42.683C123.782 42.8857 124.022 43.1111 124.241 43.3567C124.663 43.8785 125.056 44.4238 125.416 44.9901L130.278 52.1527L141.4 68.5688L148.76 79.4557L148.677 79.3986L174.303 88.1437L181.751 90.7176L183.74 91.4231L184.255 91.6138C184.344 91.6138 184.401 91.6138 184.395 91.6138Z" fill="#263238"/>
<path d="M124.304 77.58C124.213 77.7382 124.102 77.8835 123.973 78.0122C123.744 78.2791 123.395 78.6477 122.943 79.0672C120.55 81.2931 117.661 82.9181 114.516 83.8084C114.042 83.9472 113.56 84.0596 113.073 84.1452C112.897 84.19 112.715 84.2092 112.533 84.2024C112.533 84.1452 113.27 83.9736 114.44 83.5668C117.498 82.569 120.333 80.9845 122.785 78.9019C123.732 78.0884 124.259 77.5419 124.304 77.58Z" fill="#263238"/>
<path d="M109.697 96.5127C109.333 96.5936 108.963 96.6446 108.591 96.6652C107.879 96.7479 106.843 96.8114 105.56 96.8559C98.8547 97.0452 92.1732 95.9826 85.8577 93.7227C84.6502 93.2841 83.6842 92.9028 83.0296 92.6041C82.6839 92.4669 82.3484 92.3055 82.0254 92.1211C82.3872 92.2099 82.7403 92.3311 83.0804 92.4834C83.7159 92.7439 84.7201 93.1189 85.934 93.5002C92.2552 95.6222 98.8857 96.6768 105.553 96.6208C106.824 96.6208 107.86 96.5763 108.579 96.5381C108.95 96.5028 109.324 96.4943 109.697 96.5127Z" fill="#263238"/>
<path d="M110.569 92.6652C109.999 92.885 109.403 93.0323 108.796 93.1037C105.879 93.5859 102.895 93.4669 100.026 92.7541C99.4271 92.6356 98.8462 92.4413 98.2969 92.1758C98.8982 92.2591 99.4944 92.3758 100.083 92.5253C101.508 92.8111 102.953 92.9853 104.404 93.0465C105.86 93.0987 107.318 93.0393 108.764 92.8685C109.362 92.7666 109.964 92.6987 110.569 92.6652Z" fill="#263238"/>
<g opacity="0.2">
<path d="M112.855 61.6016L123.024 78.8439C123.024 78.8439 117.304 82.9242 114.934 83.5597C118.151 82.6442 121.288 81.4688 124.314 80.0451L129.672 82.4729L112.855 61.6016Z" fill="black"/>
</g>
<g opacity="0.2">
<path d="M106.704 96.6273C103.146 98.4744 99.1 99.1653 95.1305 98.6038C91.2954 98.1229 87.7394 96.3472 85.0508 93.5703C85.0508 93.5703 93.351 95.8265 96.5351 96.1824C99.7192 96.5383 106.704 96.6273 106.704 96.6273Z" fill="black"/>
</g>
<path d="M72.9268 100.512C71.8155 100.855 70.7489 101.329 69.749 101.923C68.8949 102.493 68.132 103.189 67.4865 103.988L67.3594 103.893C67.55 103.683 67.6581 103.575 67.6835 103.594C67.7089 103.613 67.639 103.747 67.4865 103.988L67.3594 103.899C67.9154 102.991 68.6693 102.22 69.5647 101.643C70.5461 100.936 71.7178 100.542 72.9268 100.512Z" fill="#263238"/>
<path d="M81.3037 107.303C80.1526 109.221 78.4825 110.775 76.4863 111.784C76.4291 111.701 77.662 110.875 78.984 109.636C80.3059 108.396 81.2211 107.24 81.3037 107.303Z" fill="#263238"/>
<path d="M90.1481 114.748C89.703 115.824 89.0558 116.806 88.2415 117.639C87.5186 118.544 86.6326 119.305 85.6294 119.883C85.5658 119.8 86.7607 118.834 87.9936 117.417C89.2266 116 90.0464 114.697 90.1481 114.748Z" fill="#263238"/>
<path d="M99.4467 118.465C99.2797 120.755 98.2991 122.91 96.6821 124.541C96.6058 124.477 97.5528 123.27 98.3091 121.611C99.0654 119.952 99.345 118.446 99.4467 118.465Z" fill="#263238"/>
<path d="M121.826 41.5655C121.826 41.5655 121.858 41.2986 122.068 40.9299C122.347 40.4545 122.732 40.05 123.193 39.7478C123.654 39.4554 124.161 39.2407 124.692 39.1123C125.099 39.0169 125.328 38.9979 125.36 39.0424C125.392 39.0869 124.394 39.3856 123.377 40.0148C122.36 40.6439 121.896 41.6227 121.826 41.5655Z" fill="#263238"/>
<path d="M126.236 45.9279C126.477 45.1663 126.95 44.4994 127.59 44.0213C128.153 43.462 128.878 43.095 129.662 42.9727C129.7 43.0616 128.74 43.4557 127.806 44.2437C126.872 45.0318 126.325 45.9724 126.236 45.9279Z" fill="#263238"/>
<path d="M134.973 47.7629C134.564 48.7777 133.93 49.6862 133.118 50.4195C132.383 51.2285 131.472 51.8571 130.455 52.2562C130.404 52.1672 131.643 51.43 132.889 50.1843C134.134 48.9387 134.884 47.7184 134.973 47.7629Z" fill="#263238"/>
<path d="M183.912 92.1084L189.048 85.0666L192.861 84.234L201.078 82.5625C201.078 82.5625 202.032 83.1281 200.875 84.5708L200.208 85.111L203.385 85.0284C203.409 85.5216 203.283 86.0104 203.023 86.4302C202.763 86.8501 202.382 87.1812 201.93 87.3799L196.566 88.937L194.545 89.5726C194.545 89.5726 198.771 89.8649 200.265 89.3374C201.158 89.0195 202.101 88.8645 203.049 88.8798C203.049 88.8798 203.932 89.776 202.839 90.9517C201.746 92.1275 198.53 92.477 197.754 92.6677C196.601 92.8111 195.44 92.8833 194.278 92.8838C195.163 93.3811 196.168 93.6231 197.183 93.5829C199.013 93.5829 200.9 93.621 200.9 93.621C200.9 93.621 200.989 95.3624 199.877 95.6992C198.765 96.0361 193.833 95.9471 193.833 95.9471L192.467 96.6971C192.467 96.6971 188.838 100.51 187.56 101.07C186.283 101.629 182.959 102.601 182.959 102.601L183.912 92.1084Z" fill="#FFBE9D"/>
<path d="M200.633 85.2073C200.25 85.4563 199.832 85.6469 199.393 85.7729C198.363 86.1445 197.299 86.4148 196.216 86.5801C195.135 86.7493 194.042 86.8174 192.949 86.7834C192.494 86.8013 192.04 86.7477 191.602 86.6245C191.602 86.5228 193.667 86.6245 196.165 86.2559C198.662 85.8873 200.588 85.1119 200.633 85.2073Z" fill="#EB996E"/>
</svg>
