<svg width="22" height="18" viewBox="0 0 22 18" fill="none" xmlns="http://www.w3.org/2000/svg">
<path d="M20.5558 1.77734V7.1105H15.2227" stroke="#26212E" stroke-width="1.5" stroke-linecap="round" stroke-linejoin="round"/>
<path d="M1 16.0011V10.668H6.33316" stroke="#26212E" stroke-width="1.5" stroke-linecap="round" stroke-linejoin="round"/>
<path d="M3.23104 6.22168C3.68184 4.94775 4.44801 3.80878 5.45805 2.91105C6.46809 2.01332 7.68908 1.38607 9.0071 1.08786C10.3251 0.789638 11.6972 0.830161 12.9953 1.20564C14.2935 1.58113 15.4753 2.27933 16.4306 3.23511L20.5549 7.11054M1 10.666L5.12431 14.5414C6.07961 15.4972 7.26146 16.1954 8.55958 16.5709C9.85771 16.9464 11.2298 16.9869 12.5478 16.6887C13.8658 16.3904 15.0868 15.7632 16.0969 14.8655C17.1069 13.9677 17.8731 12.8288 18.3239 11.5548" stroke="#26212E" stroke-width="1.5" stroke-linecap="round" stroke-linejoin="round"/>
</svg>
