<svg width="18" height="18" viewBox="0 0 18 18" fill="none" xmlns="http://www.w3.org/2000/svg">
<path d="M16.8 8.55158L9.66575 15.6858C8.79176 16.5598 7.60637 17.0508 6.37036 17.0508C5.13434 17.0508 3.94895 16.5598 3.07496 15.6858C2.20097 14.8118 1.70996 13.6264 1.70996 12.3904C1.70996 11.1544 2.20097 9.96898 3.07496 9.09499L10.2092 1.96078C10.7918 1.37812 11.5821 1.05078 12.4061 1.05078C13.2301 1.05078 14.0204 1.37812 14.603 1.96078C15.1857 2.54344 15.513 3.3337 15.513 4.15771C15.513 4.98172 15.1857 5.77198 14.603 6.35464L7.46106 13.4889C7.16973 13.7802 6.7746 13.9439 6.36259 13.9439C5.95059 13.9439 5.55546 13.7802 5.26413 13.4889C4.9728 13.1975 4.80913 12.8024 4.80913 12.3904C4.80913 11.9784 4.9728 11.5833 5.26413 11.2919L11.8549 4.70889" stroke="#C4C0DC" stroke-width="1.5" stroke-linecap="round" stroke-linejoin="round"/>
</svg>
