<svg width="19" height="19" viewBox="0 0 19 19" fill="none" xmlns="http://www.w3.org/2000/svg">
<path d="M8.87533 3.22021H3.3091C2.88731 3.22021 2.4828 3.38777 2.18455 3.68602C1.8863 3.98427 1.71875 4.38878 1.71875 4.81057V15.943C1.71875 16.3648 1.8863 16.7693 2.18455 17.0676C2.4828 17.3658 2.88731 17.5334 3.3091 17.5334H14.4416C14.8634 17.5334 15.2679 17.3658 15.5661 17.0676C15.8644 16.7693 16.0319 16.3648 16.0319 15.943V10.3768" stroke="#26212E" stroke-width="1.5" stroke-linecap="round" stroke-linejoin="round"/>
<path d="M14.8396 2.02726C15.1559 1.71092 15.585 1.5332 16.0323 1.5332C16.4797 1.5332 16.9088 1.71092 17.2251 2.02726C17.5414 2.3436 17.7192 2.77265 17.7192 3.22003C17.7192 3.6674 17.5414 4.09645 17.2251 4.41279L9.67094 11.967L6.49023 12.7621L7.28541 9.58143L14.8396 2.02726Z" stroke="#26212E" stroke-width="1.5" stroke-linecap="round" stroke-linejoin="round"/>
</svg>
