<svg width="18" height="18" viewBox="0 0 18 18" fill="none" xmlns="http://www.w3.org/2000/svg">
<path d="M7.97934 2.68677H2.41311C1.99132 2.68677 1.58681 2.85432 1.28856 3.15257C0.990308 3.45082 0.822754 3.85533 0.822754 4.27712V15.4096C0.822754 15.8314 0.990308 16.2359 1.28856 16.5341C1.58681 16.8324 1.99132 16.9999 2.41311 16.9999H13.5456C13.9674 16.9999 14.3719 16.8324 14.6701 16.5341C14.9684 16.2359 15.1359 15.8314 15.1359 15.4096V9.84335" stroke="#26212E" stroke-width="1.5" stroke-linecap="round" stroke-linejoin="round"/>
<path d="M13.9431 1.49406C14.2594 1.17772 14.6885 1 15.1359 1C15.5832 1 16.0123 1.17772 16.3286 1.49406C16.645 1.8104 16.8227 2.23945 16.8227 2.68682C16.8227 3.1342 16.645 3.56325 16.3286 3.87959L8.77445 11.4338L5.59375 12.2289L6.38893 9.04823L13.9431 1.49406Z" stroke="#26212E" stroke-width="1.5" stroke-linecap="round" stroke-linejoin="round"/>
</svg>
