<svg width="18" height="17" viewBox="0 0 18 17" fill="none" xmlns="http://www.w3.org/2000/svg">
<path d="M15.608 4.72754H2.80801C1.92435 4.72754 1.20801 5.44388 1.20801 6.32754V14.3275C1.20801 15.2112 1.92435 15.9275 2.80801 15.9275H15.608C16.4917 15.9275 17.208 15.2112 17.208 14.3275V6.32754C17.208 5.44388 16.4917 4.72754 15.608 4.72754Z" stroke="#9F9F9F" stroke-width="1.5" stroke-linecap="round" stroke-linejoin="round"/>
<path d="M12.4088 15.9273V3.12734C12.4088 2.703 12.2402 2.29603 11.9402 1.99597C11.6401 1.69591 11.2331 1.52734 10.8088 1.52734H7.60879C7.18444 1.52734 6.77748 1.69591 6.47742 1.99597C6.17736 2.29603 6.00879 2.703 6.00879 3.12734V15.9273" stroke="#9F9F9F" stroke-width="1.5" stroke-linecap="round" stroke-linejoin="round"/>
</svg>
