<svg width="25" height="25" viewBox="0 0 25 25" fill="none" xmlns="http://www.w3.org/2000/svg">
<path d="M12.2184 14.4424L7.41841 19.2257C7.16284 19.4813 6.85173 19.6118 6.48508 19.6174C6.11842 19.6229 5.81564 19.4924 5.57676 19.2257C5.31009 18.9702 5.17676 18.6632 5.17676 18.3049C5.17676 17.9466 5.31009 17.6341 5.57676 17.3674L10.3768 12.5841L5.57676 7.77572C5.31009 7.52017 5.17676 7.21322 5.17676 6.85489C5.17676 6.49656 5.31009 6.18406 5.57676 5.91741C5.81564 5.66185 6.11842 5.53685 6.48508 5.54241C6.85173 5.54796 7.16284 5.67851 7.41841 5.93406L12.2184 10.7174L17.0184 5.93406C17.274 5.67851 17.5851 5.54796 17.9517 5.54241C18.3184 5.53685 18.6212 5.66185 18.8601 5.91741C19.1267 6.18406 19.2601 6.49656 19.2601 6.85489C19.2601 7.21322 19.1323 7.52017 18.8767 7.77572L14.0767 12.5841L18.8767 17.3674C19.1323 17.6341 19.2601 17.9466 19.2601 18.3049C19.2601 18.6632 19.1267 18.9702 18.8601 19.2257C18.6212 19.4924 18.3184 19.6229 17.9517 19.6174C17.5851 19.6118 17.274 19.4813 17.0184 19.2257L12.2184 14.4424Z" fill="#260B6A"/>
</svg>
