<svg width="18" height="18" viewBox="0 0 18 18" fill="none" xmlns="http://www.w3.org/2000/svg">
<path d="M15.2224 6.6001H8.02236C7.13871 6.6001 6.42236 7.31644 6.42236 8.2001V15.4001C6.42236 16.2838 7.13871 17.0001 8.02236 17.0001H15.2224C16.106 17.0001 16.8224 16.2838 16.8224 15.4001V8.2001C16.8224 7.31644 16.106 6.6001 15.2224 6.6001Z" stroke="#26212E" stroke-width="1.5" stroke-linecap="round" stroke-linejoin="round"/>
<path d="M3.22275 11.4H2.42275C1.99841 11.4 1.59144 11.2314 1.29138 10.9314C0.991325 10.6313 0.822754 10.2243 0.822754 9.8V2.6C0.822754 2.17565 0.991325 1.76869 1.29138 1.46863C1.59144 1.16857 1.99841 1 2.42275 1H9.62276C10.0471 1 10.4541 1.16857 10.7541 1.46863C11.0542 1.76869 11.2228 2.17565 11.2228 2.6V3.4" stroke="#26212E" stroke-width="1.5" stroke-linecap="round" stroke-linejoin="round"/>
</svg>
