<svg width="17" height="18" viewBox="0 0 17 18" fill="none" xmlns="http://www.w3.org/2000/svg">
<path d="M1.48535 4.32031H3.08535H15.8854" stroke="#26212E" stroke-width="1.5" stroke-linecap="round" stroke-linejoin="round"/>
<path d="M14.285 4.32012V15.5201C14.285 15.9445 14.1164 16.3514 13.8163 16.6515C13.5163 16.9515 13.1093 17.1201 12.685 17.1201H4.68496C4.26061 17.1201 3.85365 16.9515 3.55359 16.6515C3.25353 16.3514 3.08496 15.9445 3.08496 15.5201V4.32012M5.48496 4.32012V2.72012C5.48496 2.29577 5.65353 1.8888 5.95359 1.58875C6.25365 1.28869 6.66061 1.12012 7.08496 1.12012H10.285C10.7093 1.12012 11.1163 1.28869 11.4163 1.58875C11.7164 1.8888 11.885 2.29577 11.885 2.72012V4.32012" stroke="#26212E" stroke-width="1.5" stroke-linecap="round" stroke-linejoin="round"/>
<path d="M7.08594 8.32007V13.1201" stroke="#26212E" stroke-width="1.5" stroke-linecap="round" stroke-linejoin="round"/>
<path d="M10.2852 8.32007V13.1201" stroke="#26212E" stroke-width="1.5" stroke-linecap="round" stroke-linejoin="round"/>
</svg>
