<svg width="16" height="18" viewBox="0 0 16 18" fill="none" xmlns="http://www.w3.org/2000/svg">
<path d="M0.822754 4.19995H2.42275H15.2228" stroke="#FF0000" stroke-width="1.5" stroke-linecap="round" stroke-linejoin="round"/>
<path d="M13.6229 4.2V15.4C13.6229 15.8243 13.4543 16.2313 13.1542 16.5314C12.8542 16.8314 12.4472 17 12.0229 17H4.02285C3.59851 17 3.19154 16.8314 2.89148 16.5314C2.59142 16.2313 2.42285 15.8243 2.42285 15.4V4.2M4.82285 4.2V2.6C4.82285 2.17565 4.99142 1.76869 5.29148 1.46863C5.59154 1.16857 5.99851 1 6.42285 1H9.62285C10.0472 1 10.4542 1.16857 10.7542 1.46863C11.0543 1.76869 11.2229 2.17565 11.2229 2.6V4.2" stroke="#FF0000" stroke-width="1.5" stroke-linecap="round" stroke-linejoin="round"/>
<path d="M6.42285 8.19995V13" stroke="#FF0000" stroke-width="1.5" stroke-linecap="round" stroke-linejoin="round"/>
<path d="M9.62305 8.19995V13" stroke="#FF0000" stroke-width="1.5" stroke-linecap="round" stroke-linejoin="round"/>
</svg>
