<svg width="15" height="18" viewBox="0 0 15 18" fill="none" xmlns="http://www.w3.org/2000/svg">
<path d="M9.00439 0.813232H2.60439C2.18005 0.813232 1.77308 0.981803 1.47302 1.28186C1.17297 1.58192 1.00439 1.98889 1.00439 2.41323V15.2132C1.00439 15.6376 1.17297 16.0445 1.47302 16.3446C1.77308 16.6447 2.18005 16.8132 2.60439 16.8132H12.2044C12.6287 16.8132 13.0357 16.6447 13.3358 16.3446C13.6358 16.0445 13.8044 15.6376 13.8044 15.2132V5.61323L9.00439 0.813232Z" stroke="#E1DCFF" stroke-width="1.5" stroke-linecap="round" stroke-linejoin="round"/>
<path d="M9.00439 0.813232V5.61323H13.8044" stroke="#E1DCFF" stroke-width="1.5" stroke-linecap="round" stroke-linejoin="round"/>
<path d="M10.6046 9.61328H4.20459" stroke="#E1DCFF" stroke-width="1.5" stroke-linecap="round" stroke-linejoin="round"/>
<path d="M10.6046 12.8132H4.20459" stroke="#E1DCFF" stroke-width="1.5" stroke-linecap="round" stroke-linejoin="round"/>
<path d="M5.80459 6.41333H5.00459H4.20459" stroke="#E1DCFF" stroke-width="1.5" stroke-linecap="round" stroke-linejoin="round"/>
</svg>
