<svg width="17" height="18" viewBox="0 0 17 18" fill="none" xmlns="http://www.w3.org/2000/svg">
<path d="M1.12109 4.01318H2.72109H15.5211" stroke="#E1DCFF" stroke-width="1.5" stroke-linecap="round" stroke-linejoin="round"/>
<path d="M13.9212 4.01323V15.2132C13.9212 15.6376 13.7526 16.0445 13.4526 16.3446C13.1525 16.6447 12.7455 16.8132 12.3212 16.8132H4.32119C3.89685 16.8132 3.48988 16.6447 3.18982 16.3446C2.88976 16.0445 2.72119 15.6376 2.72119 15.2132V4.01323M5.12119 4.01323V2.41323C5.12119 1.98889 5.28976 1.58192 5.58982 1.28186C5.88988 0.981803 6.29685 0.813232 6.72119 0.813232H9.92119C10.3455 0.813232 10.7525 0.981803 11.0526 1.28186C11.3526 1.58192 11.5212 1.98889 11.5212 2.41323V4.01323" stroke="#E1DCFF" stroke-width="1.5" stroke-linecap="round" stroke-linejoin="round"/>
<path d="M6.72119 8.01318V12.8132" stroke="#E1DCFF" stroke-width="1.5" stroke-linecap="round" stroke-linejoin="round"/>
<path d="M9.9209 8.01318V12.8132" stroke="#E1DCFF" stroke-width="1.5" stroke-linecap="round" stroke-linejoin="round"/>
</svg>
