<svg width="18" height="18" viewBox="0 0 18 18" fill="none" xmlns="http://www.w3.org/2000/svg">
<path d="M15.2266 1.06177H2.78217C1.80033 1.06177 1.00439 1.85771 1.00439 2.83955V15.284C1.00439 16.2658 1.80033 17.0618 2.78217 17.0618H15.2266C16.2085 17.0618 17.0044 16.2658 17.0044 15.284V2.83955C17.0044 1.85771 16.2085 1.06177 15.2266 1.06177Z" stroke="#E1DCFF" stroke-width="1.5" stroke-linecap="round" stroke-linejoin="round"/>
<path d="M5.89339 7.2841C6.62977 7.2841 7.22673 6.68714 7.22673 5.95076C7.22673 5.21439 6.62977 4.61743 5.89339 4.61743C5.15701 4.61743 4.56006 5.21439 4.56006 5.95076C4.56006 6.68714 5.15701 7.2841 5.89339 7.2841Z" stroke="#E1DCFF" stroke-width="1.5" stroke-linecap="round" stroke-linejoin="round"/>
<path d="M17.0044 11.7286L12.56 7.28418L2.78223 17.062" stroke="#E1DCFF" stroke-width="1.5" stroke-linecap="round" stroke-linejoin="round"/>
</svg>
