<svg width="15" height="15" viewBox="0 0 15 15" fill="none" xmlns="http://www.w3.org/2000/svg">
<path d="M6.06353 12.1948C4.43494 12.1948 3.05106 11.6256 1.91188 10.4873C0.772711 9.34894 0.203125 7.96644 0.203125 6.33979C0.203125 4.71313 0.772711 3.32893 1.91188 2.1872C3.05106 1.04547 4.43456 0.474609 6.0624 0.474609C7.69023 0.474609 9.07543 1.04547 10.218 2.1872C11.3606 3.32893 11.9318 4.71351 11.9318 6.34092C11.9318 6.98707 11.8149 7.6254 11.5812 8.2559C11.3474 8.88641 11.0455 9.45142 10.6754 9.95093L13.9803 13.2534C14.1289 13.4019 14.2031 13.57 14.2031 13.7578C14.2031 13.9455 14.1289 14.1103 13.9803 14.2519C13.8385 14.4004 13.672 14.4746 13.4807 14.4746C13.2894 14.4746 13.1228 14.4004 12.9811 14.2519L9.66598 10.9494C9.17289 11.326 8.61256 11.6277 7.98499 11.8546C7.35741 12.0814 6.71693 12.1948 6.06353 12.1948ZM6.07617 10.7713C7.29984 10.7713 8.34258 10.3378 9.20438 9.47081C10.0662 8.60385 10.4971 7.55558 10.4971 6.32602C10.4971 5.10324 10.0667 4.06126 9.20589 3.20008C8.34508 2.33889 7.29884 1.90829 6.06718 1.90829C4.84272 1.90829 3.79669 2.33838 2.9291 3.19857C2.06149 4.05876 1.62768 5.10424 1.62768 6.33501C1.62768 7.55858 2.06149 8.60385 2.9291 9.47081C3.79669 10.3378 4.84572 10.7713 6.07617 10.7713Z" fill="#746892" fill-opacity="0.5"/>
</svg>
