<svg width="24" height="20" viewBox="0 0 24 20" fill="none" xmlns="http://www.w3.org/2000/svg">
<path d="M15.5679 14.4744L11.5679 10.4744L7.56787 14.4744" stroke="#9F9F9F" stroke-linecap="round" stroke-linejoin="round"/>
<path d="M11.5679 10.4744V19.4744" stroke="#9F9F9F" stroke-linecap="round" stroke-linejoin="round"/>
<path d="M19.9578 16.8648C20.9332 16.3331 21.7037 15.4917 22.1477 14.4735C22.5917 13.4552 22.684 12.3181 22.41 11.2415C22.136 10.165 21.5113 9.21035 20.6345 8.52828C19.7577 7.84622 18.6787 7.47557 17.5678 7.47484H16.3078C16.0051 6.30408 15.441 5.21717 14.6578 4.29583C13.8746 3.37449 12.8927 2.64269 11.7859 2.15544C10.6792 1.6682 9.47638 1.4382 8.26795 1.48272C7.05951 1.52724 5.8769 1.84514 4.80901 2.4125C3.74112 2.97987 2.81574 3.78194 2.10245 4.75842C1.38916 5.7349 0.906521 6.86037 0.690811 8.05023C0.475101 9.24009 0.531937 10.4634 0.857045 11.6281C1.18215 12.7928 1.76707 13.8687 2.56783 14.7748" stroke="#9F9F9F" stroke-linecap="round" stroke-linejoin="round"/>
<path d="M15.5679 14.4744L11.5679 10.4744L7.56787 14.4744" stroke="#9F9F9F" stroke-linecap="round" stroke-linejoin="round"/>
</svg>
