<svg width="25" height="24" viewBox="0 0 25 24" fill="none" xmlns="http://www.w3.org/2000/svg">
<path d="M12.0861 13.8582L7.28608 18.6415C7.03052 18.8971 6.71941 19.0276 6.35276 19.0332C5.98609 19.0387 5.68332 18.9082 5.44443 18.6415C5.17777 18.3859 5.04443 18.079 5.04443 17.7207C5.04443 17.3623 5.17777 17.0499 5.44443 16.7832L10.2444 11.9998L5.44443 7.19149C5.17777 6.93594 5.04443 6.62899 5.04443 6.27066C5.04443 5.91233 5.17777 5.59984 5.44443 5.33319C5.68332 5.07762 5.98609 4.95262 6.35276 4.95819C6.71941 4.96374 7.03052 5.09429 7.28608 5.34984L12.0861 10.1332L16.8861 5.34984C17.1417 5.09429 17.4528 4.96374 17.8194 4.95819C18.1861 4.95262 18.4889 5.07762 18.7277 5.33319C18.9944 5.59984 19.1277 5.91233 19.1277 6.27066C19.1277 6.62899 19 6.93594 18.7444 7.19149L13.9444 11.9998L18.7444 16.7832C19 17.0499 19.1277 17.3623 19.1277 17.7207C19.1277 18.079 18.9944 18.3859 18.7277 18.6415C18.4889 18.9082 18.1861 19.0387 17.8194 19.0332C17.4528 19.0276 17.1417 18.8971 16.8861 18.6415L12.0861 13.8582Z" fill="#A5A5A5"/>
</svg>
