<svg width="20" height="22" viewBox="0 0 20 22" fill="none" xmlns="http://www.w3.org/2000/svg">
<path d="M0.948242 5.23047H2.94824H18.9482" stroke="#26212E" stroke-width="1.2" stroke-linecap="round" stroke-linejoin="round"/>
<path d="M16.9482 5.23047V19.2305C16.9482 19.7609 16.7375 20.2696 16.3625 20.6447C15.9874 21.0198 15.4787 21.2305 14.9482 21.2305H4.94824C4.41781 21.2305 3.9091 21.0198 3.53403 20.6447C3.15896 20.2696 2.94824 19.7609 2.94824 19.2305V5.23047M5.94824 5.23047V3.23047C5.94824 2.70004 6.15896 2.19133 6.53403 1.81626C6.9091 1.44118 7.41781 1.23047 7.94824 1.23047H11.9482C12.4787 1.23047 12.9874 1.44118 13.3625 1.81626C13.7375 2.19133 13.9482 2.70004 13.9482 3.23047V5.23047" stroke="#26212E" stroke-width="1.2" stroke-linecap="round" stroke-linejoin="round"/>
<path d="M7.94824 10.2305V16.2305" stroke="#26212E" stroke-width="1.2" stroke-linecap="round" stroke-linejoin="round"/>
<path d="M11.9482 10.2305V16.2305" stroke="#26212E" stroke-width="1.2" stroke-linecap="round" stroke-linejoin="round"/>
</svg>
