<svg width="18" height="17" viewBox="0 0 18 17" fill="none" xmlns="http://www.w3.org/2000/svg">
<path d="M2.70968 1.84969C1.2176 2.64148 0 3.30306 0 3.32066C0 3.34177 0.422287 3.67608 0.939589 4.07022C1.45337 4.46435 2.29091 5.10482 2.79413 5.4884C3.30088 5.87198 3.71261 6.20277 3.71261 6.21685C3.71261 6.23092 3.01232 6.88195 2.15718 7.65966C1.29853 8.44089 0.59824 9.0884 0.59824 9.106C0.59824 9.12007 0.802346 9.2538 1.05572 9.4016C1.62581 9.73943 3.65982 10.9324 4.95836 11.6925C5.49677 12.0057 5.94721 12.2661 5.95425 12.2661C5.9824 12.2661 6.17595 12.1007 6.43988 11.8473C6.57713 11.7171 7.0522 11.2737 7.4956 10.8585C7.94252 10.4432 8.42815 9.98576 8.57947 9.83796C9.01584 9.41919 8.95601 9.42271 9.38182 9.79573C9.5824 9.96817 10.2475 10.5453 10.8563 11.0696C11.4651 11.5975 11.9965 12.0585 12.0352 12.0937C12.1056 12.157 12.1267 12.1465 13.0557 11.5553C14.0833 10.9042 14.6182 10.5664 16.2933 9.50717C16.895 9.12711 17.3877 8.80336 17.3912 8.78928C17.3947 8.7752 16.6944 8.16289 15.8323 7.4274L14.2663 6.09016L14.3472 6.03034C14.4317 5.96347 14.495 5.91773 16.6557 4.33063C17.3947 3.78869 18 3.33473 18 3.32066C18 3.30658 16.9126 2.645 15.5859 1.84617L13.1718 0.399837L11.2469 1.68429L9.31847 2.96875L7.39003 1.68781C6.33079 0.984001 5.45103 0.406876 5.44047 0.410395C5.42991 0.410395 4.20176 1.0579 2.70968 1.84969ZM12.0352 4.72828C12.6369 5.10482 13.3689 5.5623 13.6645 5.74881C13.9566 5.9318 14.1959 6.08664 14.1924 6.09016C14.1853 6.09368 13.8018 6.34001 13.3372 6.63561C12.5279 7.15292 10.8809 8.2016 9.59648 9.02154L8.98768 9.40864L7.69619 8.60981C6.98534 8.16993 5.83108 7.45556 5.13079 7.02271C4.42698 6.58987 3.85337 6.22388 3.85337 6.21333C3.85337 6.20277 4.79296 5.64676 5.94018 4.98166C7.08387 4.31303 8.31202 3.59866 8.66745 3.39456L9.31496 3.01802L10.1279 3.5318C10.5783 3.81333 11.4369 4.35174 12.0352 4.72828Z" fill="#1596EC"/>
<path d="M8.4108 10.585C6.85186 12.0595 6.00728 12.8443 5.96857 12.8583C5.95098 12.8618 5.40552 12.5592 4.75449 12.1791C4.10347 11.8026 3.55449 11.4929 3.53338 11.4929C3.51579 11.4929 3.50171 11.7885 3.50171 12.2214V12.9533L3.86417 13.1891C4.45186 13.5727 7.11227 15.3041 8.08353 15.941L8.99144 16.5322L11.7363 14.7621L14.4777 12.9885L14.4812 12.1334C14.4812 11.6654 14.4741 11.2818 14.4671 11.2818C14.4601 11.2818 13.9252 11.6126 13.2847 12.0173L12.1129 12.7528L11.7398 12.429C9.79731 10.7434 8.99496 10.0501 8.98441 10.0536C8.97737 10.0536 8.72048 10.2929 8.4108 10.585Z" fill="#1596EC"/>
</svg>
