<svg width="160" height="49" viewBox="0 0 160 49" fill="none" xmlns="http://www.w3.org/2000/svg">
<path d="M5.08611 30.3919C6.16878 30.3919 7.09278 30.5926 7.85811 30.9939C8.63278 31.3859 9.22544 31.9506 9.63611 32.6879C10.0561 33.4252 10.2661 34.3026 10.2661 35.3199C10.2661 36.3279 10.0561 37.1959 9.63611 37.9239C9.22544 38.6519 8.63278 39.2119 7.85811 39.6039C7.09278 39.9959 6.16878 40.1919 5.08611 40.1919H1.85211V30.3919H5.08611ZM5.08611 39.2119C6.42078 39.2119 7.42878 38.8712 8.11011 38.1899C8.79144 37.5086 9.13211 36.5519 9.13211 35.3199C9.13211 34.0786 8.79144 33.1126 8.11011 32.4219C7.42878 31.7219 6.42078 31.3719 5.08611 31.3719H2.97211V39.2119H5.08611ZM11.9393 33.1919H12.9053L12.9613 34.2139C13.148 33.9619 13.372 33.7472 13.6333 33.5699C13.904 33.3926 14.198 33.2712 14.5153 33.2059C14.842 33.1312 15.1873 33.1266 15.5513 33.1919V34.2419C15.1593 34.1672 14.8047 34.1672 14.4873 34.2419C14.1793 34.3166 13.9133 34.4566 13.6893 34.6619C13.4653 34.8672 13.2927 35.1286 13.1713 35.4459C13.05 35.7539 12.9893 36.1132 12.9893 36.5239V40.1919H11.9393V33.1919ZM20.0083 40.2899C19.3456 40.2899 18.7529 40.1452 18.2303 39.8559C17.7076 39.5666 17.2969 39.1559 16.9983 38.6239C16.6996 38.0826 16.5503 37.4432 16.5503 36.7059C16.5503 35.9592 16.6996 35.3152 16.9983 34.7739C17.3063 34.2326 17.7216 33.8172 18.2443 33.5279C18.7763 33.2386 19.3736 33.0939 20.0363 33.0939C20.6989 33.0939 21.2916 33.2386 21.8143 33.5279C22.3463 33.8172 22.7616 34.2326 23.0603 34.7739C23.3683 35.3059 23.5223 35.9406 23.5223 36.6779C23.5223 37.4246 23.3683 38.0686 23.0603 38.6099C22.7523 39.1512 22.3323 39.5666 21.8003 39.8559C21.2683 40.1452 20.6709 40.2899 20.0083 40.2899ZM19.9943 39.2959C20.4049 39.2959 20.7923 39.2072 21.1563 39.0299C21.5203 38.8432 21.8143 38.5586 22.0383 38.1759C22.2716 37.7839 22.3883 37.2892 22.3883 36.6919C22.3883 36.0852 22.2763 35.5906 22.0523 35.2079C21.8283 34.8252 21.5343 34.5452 21.1703 34.3679C20.8156 34.1812 20.4329 34.0879 20.0222 34.0879C19.6116 34.0879 19.2289 34.1812 18.8743 34.3679C18.5196 34.5452 18.2303 34.8299 18.0063 35.2219C17.7916 35.6046 17.6843 36.0946 17.6843 36.6919C17.6843 37.2986 17.7916 37.7932 18.0063 38.1759C18.2209 38.5586 18.5009 38.8432 18.8463 39.0299C19.2009 39.2072 19.5836 39.2959 19.9943 39.2959ZM26.1801 38.7779L26.2921 38.7639V42.9919H25.2421V33.1919H26.2081L26.2781 34.4939C26.4927 34.1019 26.8101 33.7706 27.2301 33.4999C27.6501 33.2292 28.1774 33.0939 28.8121 33.0939C29.4187 33.0939 29.9647 33.2432 30.4501 33.5419C30.9354 33.8312 31.3181 34.2466 31.5981 34.7879C31.8781 35.3199 32.0181 35.9546 32.0181 36.6919C32.0181 37.4199 31.8827 38.0546 31.6121 38.5959C31.3507 39.1279 30.9774 39.5432 30.4921 39.8419C30.0161 40.1406 29.4561 40.2899 28.8121 40.2899C28.1401 40.2899 27.5847 40.1452 27.1461 39.8559C26.7074 39.5666 26.3854 39.2072 26.1801 38.7779ZM30.8841 36.6919C30.8841 35.8892 30.6741 35.2546 30.2541 34.7879C29.8434 34.3119 29.2881 34.0739 28.5881 34.0739C28.1494 34.0739 27.7527 34.1766 27.3981 34.3819C27.0527 34.5872 26.7821 34.8859 26.5861 35.2779C26.3901 35.6699 26.2921 36.1412 26.2921 36.6919C26.2921 37.2332 26.3901 37.6999 26.5861 38.0919C26.7821 38.4839 27.0527 38.7872 27.3981 39.0019C27.7527 39.2072 28.1494 39.3099 28.5881 39.3099C29.2881 39.3099 29.8434 39.0766 30.2541 38.6099C30.6741 38.1339 30.8841 37.4946 30.8841 36.6919ZM42.3461 31.8339C42.1408 31.8339 41.9635 31.7639 41.8141 31.6239C41.6648 31.4746 41.5901 31.2972 41.5901 31.0919C41.5901 30.8679 41.6648 30.6859 41.8141 30.5459C41.9635 30.3966 42.1408 30.3219 42.3461 30.3219C42.5608 30.3219 42.7381 30.3966 42.8781 30.5459C43.0275 30.6859 43.1021 30.8679 43.1021 31.0919C43.1021 31.2972 43.0275 31.4746 42.8781 31.6239C42.7381 31.7639 42.5608 31.8339 42.3461 31.8339ZM42.8501 33.1779V40.1919H41.8001V34.1579H37.0541V33.1779H42.8501ZM38.0341 32.3659C38.0341 31.8526 38.1181 31.4186 38.2861 31.0639C38.4541 30.7092 38.7201 30.4526 39.0841 30.2939C39.4575 30.1259 39.9521 30.0652 40.5681 30.1119V31.0499C40.0081 31.0032 39.6208 31.0966 39.4061 31.3299C39.1915 31.5539 39.0841 31.8992 39.0841 32.3659V40.1919H38.0341V32.3659ZM45.2577 30.1119H46.3077V40.1919H45.2577V30.1119ZM51.3832 40.2899C50.7299 40.2899 50.1466 40.1312 49.6332 39.8139C49.1292 39.4966 48.7326 39.0626 48.4432 38.5119C48.1539 37.9612 48.0092 37.3312 48.0092 36.6219C48.0092 35.9406 48.1539 35.3339 48.4432 34.8019C48.7326 34.2699 49.1292 33.8546 49.6332 33.5559C50.1372 33.2479 50.7112 33.0939 51.3552 33.0939C51.9899 33.0939 52.5546 33.2339 53.0492 33.5139C53.5532 33.7939 53.9452 34.1812 54.2252 34.6759C54.5052 35.1706 54.6359 35.7352 54.6172 36.3699C54.6172 36.4726 54.6126 36.5799 54.6032 36.6919C54.5939 36.8039 54.5846 36.9252 54.5752 37.0559H49.1572C49.1759 37.4946 49.2832 37.8819 49.4792 38.2179C49.6752 38.5539 49.9319 38.8199 50.2492 39.0159C50.5759 39.2026 50.9446 39.2959 51.3552 39.2959C51.8966 39.2959 52.3539 39.1932 52.7272 38.9879C53.1099 38.7826 53.3852 38.4886 53.5532 38.1059L54.4632 38.4699C54.1832 39.0579 53.7772 39.5106 53.2452 39.8279C52.7132 40.1359 52.0926 40.2899 51.3832 40.2899ZM53.4692 36.1459C53.4786 35.7446 53.3899 35.3899 53.2032 35.0819C53.0259 34.7739 52.7739 34.5312 52.4472 34.3539C52.1206 34.1766 51.7426 34.0879 51.3132 34.0879C50.9399 34.0879 50.5992 34.1766 50.2912 34.3539C49.9832 34.5312 49.7266 34.7786 49.5212 35.0959C49.3252 35.4039 49.2086 35.7539 49.1712 36.1459H53.4692ZM56.9196 38.0499C56.9756 38.3299 57.0782 38.5632 57.2276 38.7499C57.3769 38.9272 57.5682 39.0626 57.8016 39.1559C58.0442 39.2492 58.3242 39.2959 58.6416 39.2959C59.1362 39.2959 59.5096 39.2026 59.7616 39.0159C60.0229 38.8199 60.1536 38.5772 60.1536 38.2879C60.1536 38.0452 60.0742 37.8492 59.9156 37.6999C59.7662 37.5506 59.5656 37.4292 59.3136 37.3359C59.0616 37.2332 58.7816 37.1446 58.4736 37.0699C58.2309 37.0139 57.9696 36.9486 57.6896 36.8739C57.4096 36.7899 57.1436 36.6779 56.8916 36.5379C56.6396 36.3979 56.4342 36.2159 56.2756 35.9919C56.1169 35.7679 56.0376 35.4739 56.0376 35.1099C56.0376 34.7086 56.1449 34.3586 56.3596 34.0599C56.5836 33.7519 56.8869 33.5139 57.2696 33.3459C57.6616 33.1779 58.1096 33.0939 58.6136 33.0939C59.1922 33.0939 59.7056 33.2199 60.1536 33.4719C60.6109 33.7239 60.9282 34.1159 61.1056 34.6479L60.1256 34.9839C60.0602 34.7412 59.9389 34.5546 59.7616 34.4239C59.5936 34.2932 59.4022 34.2046 59.1876 34.1579C58.9822 34.1112 58.7769 34.0879 58.5716 34.0879C58.1516 34.0879 57.8109 34.1719 57.5496 34.3399C57.2976 34.4986 57.1716 34.7412 57.1716 35.0679C57.1716 35.2452 57.2136 35.3946 57.2976 35.5159C57.3816 35.6279 57.4982 35.7212 57.6476 35.7959C57.7969 35.8706 57.9742 35.9359 58.1796 35.9919C58.3849 36.0386 58.6089 36.0946 58.8516 36.1599C59.1222 36.2252 59.3976 36.3092 59.6776 36.4119C59.9576 36.5052 60.2189 36.6312 60.4616 36.7899C60.7042 36.9392 60.9002 37.1352 61.0496 37.3779C61.2082 37.6112 61.2876 37.9052 61.2876 38.2599C61.2876 38.6706 61.1756 39.0299 60.9516 39.3379C60.7276 39.6366 60.4149 39.8699 60.0136 40.0379C59.6216 40.2059 59.1642 40.2899 58.6416 40.2899C57.9229 40.2899 57.3256 40.1312 56.8496 39.8139C56.3829 39.4872 56.0702 39.0112 55.9116 38.3859L56.9196 38.0499ZM66.9139 30.1119H67.9639V34.1439C68.1879 33.8079 68.4913 33.5512 68.8739 33.3739C69.2566 33.1872 69.6859 33.0939 70.1619 33.0939C70.6753 33.0939 71.1326 33.2106 71.5339 33.4439C71.9353 33.6772 72.2479 34.0226 72.4719 34.4799C72.7053 34.9372 72.8219 35.5066 72.8219 36.1879V40.1919H71.7019V36.3139C71.7019 35.5859 71.5479 35.0306 71.2399 34.6479C70.9319 34.2559 70.4839 34.0599 69.8959 34.0599C69.2893 34.0599 68.8133 34.2652 68.4679 34.6759C68.1319 35.0866 67.9639 35.6839 67.9639 36.4679V40.1919H66.9139V30.1119ZM77.7973 40.2899C77.144 40.2899 76.5606 40.1312 76.0473 39.8139C75.5433 39.4966 75.1466 39.0626 74.8573 38.5119C74.568 37.9612 74.4233 37.3312 74.4233 36.6219C74.4233 35.9406 74.568 35.3339 74.8573 34.8019C75.1466 34.2699 75.5433 33.8546 76.0473 33.5559C76.5513 33.2479 77.1253 33.0939 77.7693 33.0939C78.404 33.0939 78.9686 33.2339 79.4633 33.5139C79.9673 33.7939 80.3593 34.1812 80.6393 34.6759C80.9193 35.1706 81.05 35.7352 81.0313 36.3699C81.0313 36.4726 81.0266 36.5799 81.0173 36.6919C81.008 36.8039 80.9986 36.9252 80.9893 37.0559H75.5713C75.59 37.4946 75.6973 37.8819 75.8933 38.2179C76.0893 38.5539 76.346 38.8199 76.6633 39.0159C76.99 39.2026 77.3586 39.2959 77.7693 39.2959C78.3106 39.2959 78.768 39.1932 79.1413 38.9879C79.524 38.7826 79.7993 38.4886 79.9673 38.1059L80.8773 38.4699C80.5973 39.0579 80.1913 39.5106 79.6593 39.8279C79.1273 40.1359 78.5066 40.2899 77.7973 40.2899ZM79.8833 36.1459C79.8926 35.7446 79.804 35.3899 79.6173 35.0819C79.44 34.7739 79.188 34.5312 78.8613 34.3539C78.5346 34.1766 78.1566 34.0879 77.7273 34.0879C77.354 34.0879 77.0133 34.1766 76.7053 34.3539C76.3973 34.5312 76.1406 34.7786 75.9353 35.0959C75.7393 35.4039 75.6226 35.7539 75.5853 36.1459H79.8833ZM82.7596 33.1919H83.7256L83.7816 34.2139C83.9683 33.9619 84.1923 33.7472 84.4536 33.5699C84.7243 33.3926 85.0183 33.2712 85.3356 33.2059C85.6623 33.1312 86.0076 33.1266 86.3716 33.1919V34.2419C85.9796 34.1672 85.625 34.1672 85.3076 34.2419C84.9996 34.3166 84.7336 34.4566 84.5096 34.6619C84.2856 34.8672 84.113 35.1286 83.9916 35.4459C83.8703 35.7539 83.8096 36.1132 83.8096 36.5239V40.1919H82.7596V33.1919ZM90.7446 40.2899C90.0912 40.2899 89.5079 40.1312 88.9946 39.8139C88.4906 39.4966 88.0939 39.0626 87.8046 38.5119C87.5152 37.9612 87.3706 37.3312 87.3706 36.6219C87.3706 35.9406 87.5152 35.3339 87.8046 34.8019C88.0939 34.2699 88.4906 33.8546 88.9946 33.5559C89.4986 33.2479 90.0726 33.0939 90.7166 33.0939C91.3512 33.0939 91.9159 33.2339 92.4106 33.5139C92.9146 33.7939 93.3066 34.1812 93.5866 34.6759C93.8666 35.1706 93.9972 35.7352 93.9786 36.3699C93.9786 36.4726 93.9739 36.5799 93.9646 36.6919C93.9552 36.8039 93.9459 36.9252 93.9366 37.0559H88.5186C88.5372 37.4946 88.6446 37.8819 88.8406 38.2179C89.0366 38.5539 89.2932 38.8199 89.6106 39.0159C89.9372 39.2026 90.3059 39.2959 90.7166 39.2959C91.2579 39.2959 91.7152 39.1932 92.0886 38.9879C92.4712 38.7826 92.7466 38.4886 92.9146 38.1059L93.8246 38.4699C93.5446 39.0579 93.1386 39.5106 92.6066 39.8279C92.0746 40.1359 91.4539 40.2899 90.7446 40.2899ZM92.8306 36.1459C92.8399 35.7446 92.7512 35.3899 92.5646 35.0819C92.3872 34.7739 92.1352 34.5312 91.8086 34.3539C91.4819 34.1766 91.1039 34.0879 90.6746 34.0879C90.3012 34.0879 89.9606 34.1766 89.6526 34.3539C89.3446 34.5312 89.0879 34.7786 88.8826 35.0959C88.6866 35.4039 88.5699 35.7539 88.5326 36.1459H92.8306ZM100.079 33.1919V31.2319H101.129V33.1919H102.991V34.1719H101.129V37.9379C101.129 38.3672 101.217 38.6799 101.395 38.8759C101.581 39.0719 101.815 39.1886 102.095 39.2259C102.384 39.2632 102.683 39.2632 102.991 39.2259V40.1359C102.627 40.2199 102.267 40.2432 101.913 40.2059C101.567 40.1686 101.255 40.0659 100.975 39.8979C100.704 39.7206 100.485 39.4732 100.317 39.1559C100.158 38.8386 100.079 38.4326 100.079 37.9379V34.1719H99.0287V33.1919H100.079ZM107.577 40.2899C106.914 40.2899 106.321 40.1452 105.799 39.8559C105.276 39.5666 104.865 39.1559 104.567 38.6239C104.268 38.0826 104.119 37.4432 104.119 36.7059C104.119 35.9592 104.268 35.3152 104.567 34.7739C104.875 34.2326 105.29 33.8172 105.813 33.5279C106.345 33.2386 106.942 33.0939 107.605 33.0939C108.267 33.0939 108.86 33.2386 109.383 33.5279C109.915 33.8172 110.33 34.2326 110.629 34.7739C110.937 35.3059 111.091 35.9406 111.091 36.6779C111.091 37.4246 110.937 38.0686 110.629 38.6099C110.321 39.1512 109.901 39.5666 109.369 39.8559C108.837 40.1452 108.239 40.2899 107.577 40.2899ZM107.563 39.2959C107.973 39.2959 108.361 39.2072 108.725 39.0299C109.089 38.8432 109.383 38.5586 109.607 38.1759C109.84 37.7839 109.957 37.2892 109.957 36.6919C109.957 36.0852 109.845 35.5906 109.621 35.2079C109.397 34.8252 109.103 34.5452 108.739 34.3679C108.384 34.1812 108.001 34.0879 107.591 34.0879C107.18 34.0879 106.797 34.1812 106.443 34.3679C106.088 34.5452 105.799 34.8299 105.575 35.2219C105.36 35.6046 105.253 36.0946 105.253 36.6919C105.253 37.2986 105.36 37.7932 105.575 38.1759C105.789 38.5586 106.069 38.8432 106.415 39.0299C106.769 39.2072 107.152 39.2959 107.563 39.2959ZM122.46 40.1919H121.508L121.438 39.1839C121.224 39.5386 120.934 39.8139 120.57 40.0099C120.206 40.1966 119.782 40.2899 119.296 40.2899C118.755 40.2899 118.284 40.1779 117.882 39.9539C117.481 39.7299 117.168 39.3939 116.944 38.9459C116.73 38.4979 116.622 37.9332 116.622 37.2519V33.1919H117.658V37.1399C117.658 37.8586 117.812 38.4046 118.12 38.7779C118.438 39.1419 118.89 39.3239 119.478 39.3239C120.076 39.3239 120.547 39.1326 120.892 38.7499C121.247 38.3579 121.424 37.7699 121.424 36.9859V33.1919H122.46V40.1919ZM125.534 38.7779L125.646 38.7639V42.9919H124.596V33.1919H125.562L125.632 34.4939C125.846 34.1019 126.164 33.7706 126.584 33.4999C127.004 33.2292 127.531 33.0939 128.166 33.0939C128.772 33.0939 129.318 33.2432 129.804 33.5419C130.289 33.8312 130.672 34.2466 130.952 34.7879C131.232 35.3199 131.372 35.9546 131.372 36.6919C131.372 37.4199 131.236 38.0546 130.966 38.5959C130.704 39.1279 130.331 39.5432 129.846 39.8419C129.37 40.1406 128.81 40.2899 128.166 40.2899C127.494 40.2899 126.938 40.1452 126.5 39.8559C126.061 39.5666 125.739 39.2072 125.534 38.7779ZM130.238 36.6919C130.238 35.8892 130.028 35.2546 129.608 34.7879C129.197 34.3119 128.642 34.0739 127.942 34.0739C127.503 34.0739 127.106 34.1766 126.752 34.3819C126.406 34.5872 126.136 34.8859 125.94 35.2779C125.744 35.6699 125.646 36.1412 125.646 36.6919C125.646 37.2332 125.744 37.6999 125.94 38.0919C126.136 38.4839 126.406 38.7872 126.752 39.0019C127.106 39.2072 127.503 39.3099 127.942 39.3099C128.642 39.3099 129.197 39.0766 129.608 38.6099C130.028 38.1339 130.238 37.4946 130.238 36.6919ZM133.086 30.1119H134.136V40.1919H133.086V30.1119ZM139.295 40.2899C138.633 40.2899 138.04 40.1452 137.517 39.8559C136.995 39.5666 136.584 39.1559 136.285 38.6239C135.987 38.0826 135.837 37.4432 135.837 36.7059C135.837 35.9592 135.987 35.3152 136.285 34.7739C136.593 34.2326 137.009 33.8172 137.531 33.5279C138.063 33.2386 138.661 33.0939 139.323 33.0939C139.986 33.0939 140.579 33.2386 141.101 33.5279C141.633 33.8172 142.049 34.2326 142.347 34.7739C142.655 35.3059 142.809 35.9406 142.809 36.6779C142.809 37.4246 142.655 38.0686 142.347 38.6099C142.039 39.1512 141.619 39.5666 141.087 39.8559C140.555 40.1452 139.958 40.2899 139.295 40.2899ZM139.281 39.2959C139.692 39.2959 140.079 39.2072 140.443 39.0299C140.807 38.8432 141.101 38.5586 141.325 38.1759C141.559 37.7839 141.675 37.2892 141.675 36.6919C141.675 36.0852 141.563 35.5906 141.339 35.2079C141.115 34.8252 140.821 34.5452 140.457 34.3679C140.103 34.1812 139.72 34.0879 139.309 34.0879C138.899 34.0879 138.516 34.1812 138.161 34.3679C137.807 34.5452 137.517 34.8299 137.293 35.2219C137.079 35.6046 136.971 36.0946 136.971 36.6919C136.971 37.2986 137.079 37.7932 137.293 38.1759C137.508 38.5586 137.788 38.8432 138.133 39.0299C138.488 39.2072 138.871 39.2959 139.281 39.2959ZM148.911 40.1919L148.827 38.9319C148.631 39.3612 148.342 39.6972 147.959 39.9399C147.577 40.1732 147.091 40.2899 146.503 40.2899C145.999 40.2899 145.57 40.2106 145.215 40.0519C144.861 39.8932 144.585 39.6692 144.389 39.3799C144.203 39.0812 144.109 38.7312 144.109 38.3299C144.109 37.7419 144.329 37.2612 144.767 36.8879C145.206 36.5052 145.841 36.2719 146.671 36.1879L148.827 35.9499V35.3899C148.827 34.9979 148.683 34.6852 148.393 34.4519C148.104 34.2092 147.712 34.0879 147.217 34.0879C146.732 34.0879 146.326 34.1999 145.999 34.4239C145.682 34.6479 145.463 34.9699 145.341 35.3899L144.389 35.0539C144.576 34.4379 144.917 33.9572 145.411 33.6119C145.915 33.2666 146.527 33.0939 147.245 33.0939C148.076 33.0939 148.72 33.3086 149.177 33.7379C149.644 34.1579 149.877 34.7319 149.877 35.4599V40.1919H148.911ZM148.827 36.8459L146.657 37.0979C146.191 37.1539 145.836 37.2846 145.593 37.4899C145.351 37.6859 145.229 37.9472 145.229 38.2739C145.229 38.6006 145.346 38.8619 145.579 39.0579C145.822 39.2539 146.167 39.3519 146.615 39.3519C147.129 39.3519 147.549 39.2492 147.875 39.0439C148.202 38.8386 148.44 38.5632 148.589 38.2179C148.748 37.8632 148.827 37.4806 148.827 37.0699V36.8459ZM157.33 34.6059L157.218 34.6199V30.1119H158.268V40.1919H157.302L157.232 38.8899C157.017 39.2819 156.695 39.6132 156.266 39.8839C155.846 40.1546 155.323 40.2899 154.698 40.2899C154.054 40.2899 153.489 40.1452 153.004 39.8559C152.528 39.5572 152.154 39.1372 151.884 38.5959C151.622 38.0546 151.492 37.4199 151.492 36.6919C151.492 35.9639 151.622 35.3339 151.884 34.8019C152.154 34.2606 152.528 33.8406 153.004 33.5419C153.489 33.2432 154.054 33.0939 154.698 33.0939C155.36 33.0939 155.911 33.2386 156.35 33.5279C156.788 33.8172 157.115 34.1766 157.33 34.6059ZM152.626 36.6919C152.626 37.4946 152.831 38.1339 153.242 38.6099C153.652 39.0766 154.212 39.3099 154.922 39.3099C155.36 39.3099 155.752 39.2072 156.098 39.0019C156.443 38.7966 156.714 38.4979 156.91 38.1059C157.115 37.7139 157.218 37.2426 157.218 36.6919C157.218 36.1412 157.115 35.6746 156.91 35.2919C156.714 34.8999 156.443 34.6012 156.098 34.3959C155.752 34.1812 155.36 34.0739 154.922 34.0739C154.222 34.0739 153.662 34.3119 153.242 34.7879C152.831 35.2546 152.626 35.8892 152.626 36.6919Z" fill="#9F9F9F"/>
<path d="M83.0483 14.4771L79.0483 10.4771L75.0483 14.4771" stroke="#9F9F9F" stroke-linecap="round" stroke-linejoin="round"/>
<path d="M79.0483 10.4771V19.4771" stroke="#9F9F9F" stroke-linecap="round" stroke-linejoin="round"/>
<path d="M87.4383 16.8675C88.4136 16.3358 89.1841 15.4944 89.6282 14.4761C90.0722 13.4579 90.1645 12.3208 89.8905 11.2442C89.6165 10.1677 88.9918 9.21303 88.115 8.53097C87.2382 7.8489 86.1592 7.47826 85.0483 7.47752H83.7883C83.4856 6.30676 82.9215 5.21986 82.1382 4.29852C81.355 3.37717 80.3731 2.64537 79.2664 2.15813C78.1597 1.67089 76.9569 1.44088 75.7484 1.48541C74.54 1.52993 73.3574 1.84782 72.2895 2.41519C71.2216 2.98255 70.2962 3.78463 69.5829 4.7611C68.8696 5.73758 68.387 6.86306 68.1713 8.05292C67.9556 9.24278 68.0124 10.4661 68.3375 11.6308C68.6626 12.7955 69.2475 13.8714 70.0483 14.7775" stroke="#9F9F9F" stroke-linecap="round" stroke-linejoin="round"/>
<path d="M83.0483 14.4771L79.0483 10.4771L75.0483 14.4771" stroke="#9F9F9F" stroke-linecap="round" stroke-linejoin="round"/>
</svg>
