<svg width="41" height="53" viewBox="0 0 41 53" fill="none" xmlns="http://www.w3.org/2000/svg">
<path d="M24.6481 7.31383C24.6481 11.7724 24.6887 14.4028 24.7496 14.6466C24.8918 15.1341 25.3692 15.6114 25.8567 15.7434C26.1106 15.8145 28.6496 15.8349 33.1691 15.8247L40.0854 15.7942L32.3668 8.07554L24.6481 0.356857V7.31383Z" fill="#C14015"/>
<rect x="0.364746" y="19.2842" width="39.9238" height="19.9931" fill="#FF845C"/>
<path d="M5.38189 0.458984C3.57409 0.94648 1.96942 2.23631 1.13661 3.8613C0.385058 5.3441 0.435839 4.6941 0.395215 14.0378L0.364746 22.4471H14.6849C30.5387 22.4471 29.5637 22.4065 30.0614 23.0971L30.2848 23.4119L30.3153 30.2978C30.3356 36.9196 30.3356 37.204 30.1426 37.6305C30.0207 37.9149 29.8278 38.1384 29.6043 38.2602C29.2895 38.4329 28.5786 38.443 14.817 38.4735L0.364746 38.4938L0.395215 42.7391C0.435839 46.8422 0.445995 46.9945 0.669431 47.6344C1.31943 49.4929 2.49754 50.8742 4.0819 51.6461C5.52408 52.3468 4.47799 52.3062 20.3115 52.3062C35.9824 52.3062 35.1191 52.3367 36.4191 51.707C38.5418 50.6812 39.923 48.7617 40.1871 46.4563C40.248 45.8875 40.2886 40.1391 40.2886 30.7244V15.8964L32.4887 8.09642L24.6989 0.306641L15.3045 0.316795C7.58578 0.316795 5.81861 0.347263 5.38189 0.458984ZM33.0574 15.8253C26.1309 15.8456 26.0294 15.8456 25.6028 15.6323C25.3388 15.5104 25.0645 15.2667 24.9325 15.0534L24.6989 14.6776L24.6684 7.51752L24.6481 0.357422L32.3668 8.07611L40.0855 15.7948L33.0574 15.8253Z" fill="#FF845C"/>
<path d="M4.65388 25.3809L4.41013 25.5739L4.37966 30.2356C4.36951 32.7949 4.37966 34.9887 4.41013 35.1207C4.56247 35.7402 5.28356 35.9535 5.73043 35.4965C5.98434 35.2527 5.98434 35.2426 5.98434 33.2621V31.2817L7.8937 31.302L9.7929 31.3325L9.82337 33.3129C9.84368 35.1715 9.86399 35.2934 10.0671 35.5168C10.3616 35.8316 10.8491 35.8316 11.1437 35.5168C11.3671 35.2832 11.3671 35.2731 11.3671 30.459V25.6247L11.1335 25.4114C10.8593 25.1575 10.382 25.1169 10.0874 25.3302C9.91477 25.4622 9.89446 25.645 9.84368 27.5442L9.7929 29.6059L7.8937 29.6364L5.98434 29.6567V27.6966C5.98434 25.8583 5.97418 25.7059 5.77106 25.452C5.51715 25.127 5.00935 25.0966 4.65388 25.3809Z" fill="white"/>
<path d="M13.0122 25.4205C12.7379 25.715 12.7278 26.2025 12.9817 26.5173C13.1543 26.7408 13.2661 26.7611 14.302 26.7916L15.4192 26.8322L15.4496 31.0978L15.4801 35.3634L15.7239 35.5563C16.0488 35.8204 16.5059 35.8001 16.8004 35.4954L17.0543 35.2517V31.0267V26.8119H18.0496C19.1465 26.8119 19.4715 26.7002 19.6746 26.2634C19.8371 25.9384 19.6949 25.4509 19.3801 25.2885C19.2785 25.2275 17.9277 25.1869 16.2113 25.1869H13.2254L13.0122 25.4205Z" fill="white"/>
<path d="M21.2695 25.4419L21.0156 25.6857V30.4692V35.2528L21.2695 35.4966C21.5641 35.8012 22.0211 35.8215 22.3461 35.5575L22.5898 35.3645L22.6406 31.9927L22.6914 28.6208L23.5851 29.9005C24.875 31.7489 25.0273 31.7388 26.3984 29.8091L27.2617 28.6005L27.3124 31.9825L27.3632 35.3645L27.607 35.5575C28.0742 35.9333 28.7445 35.7098 28.8867 35.1208C28.9171 34.9887 28.9273 32.795 28.9171 30.2357L28.8867 25.574L28.6429 25.381C28.3179 25.117 27.8101 25.1271 27.546 25.4115C27.4343 25.5435 26.8046 26.4068 26.1546 27.3513L24.9562 29.0575L23.7375 27.3005C23.0672 26.3357 22.4273 25.4623 22.3156 25.3607C22.0211 25.1068 21.5641 25.1373 21.2695 25.4419Z" fill="white"/>
<path d="M30.7858 25.4222C30.5624 25.6557 30.5624 25.6659 30.5624 30.4799V35.3143L30.796 35.5275C31.0296 35.751 31.0905 35.751 33.985 35.751C35.61 35.751 37.0217 35.7205 37.1131 35.69C37.3467 35.5986 37.5803 35.0807 37.5092 34.7963C37.4787 34.6541 37.3569 34.4611 37.2451 34.3596C37.0623 34.1971 36.778 34.1666 34.5842 34.126L32.1366 34.0752L32.0858 29.7792C32.035 25.6659 32.0249 25.4729 31.8421 25.3308C31.5374 25.1073 31.0397 25.1581 30.7858 25.4222Z" fill="white"/>
</svg>
