<svg width="40" height="53" viewBox="0 0 40 53" fill="none" xmlns="http://www.w3.org/2000/svg">
<path d="M5.83501 0.439625C3.36946 1.03826 1.33005 3.19942 0.843032 5.72585C0.629959 6.86224 0.629959 45.6414 0.843032 46.7778C1.23874 48.8375 2.61864 50.6435 4.52614 51.5669C5.94662 52.2568 5.09433 52.2264 20.1819 52.2264C35.1375 52.2264 34.4273 52.2467 35.7463 51.6176C37.5422 50.7653 38.7496 49.3448 39.3787 47.3561L39.6121 46.5952V31.0713V15.5475L32.2357 15.517L24.8492 15.4967V7.88701V0.277283L15.6465 0.28743C8.05705 0.297577 6.33218 0.317867 5.83501 0.439625ZM14.4695 28.2709C15.8596 28.9 16.5292 30.4524 16.0726 31.9946C15.8393 32.786 15.3928 33.3035 14.6217 33.6789C13.9825 33.9935 13.8709 34.0137 12.6533 34.0543L11.3546 34.0848V35.7995V37.5142H10.137H8.91949V32.7353V27.9665L11.4358 27.997C13.8202 28.0274 13.9724 28.0376 14.4695 28.2709ZM22.7286 28.2405C23.8853 28.7783 24.4738 29.7117 24.4738 31.0206C24.4738 31.9642 24.1897 32.6846 23.6113 33.2122C22.891 33.8514 22.4344 34.0036 20.9733 34.0442L19.6746 34.0848L19.6543 35.7691L19.6238 37.4635H18.4063H17.1887L17.1583 32.715L17.138 27.9564L19.6949 27.997C22.059 28.0274 22.3025 28.0477 22.7286 28.2405ZM33.0677 29.0421V30.1074H31.7487H30.4297L30.4094 33.7804L30.3789 37.4635H29.1614H27.9438L27.9134 33.7804L27.8931 30.1074H26.5741H25.255V29.0421V27.9767H29.1614H33.0677V29.0421Z" fill="#EC4015"/>
<path d="M11.3546 31.0204V31.9336H12.2576C13.0693 31.9336 13.2012 31.9032 13.4549 31.6901C13.6781 31.4973 13.739 31.3654 13.739 31.0204C13.739 30.6755 13.6781 30.5436 13.4549 30.3508C13.2012 30.1377 13.0693 30.1073 12.2576 30.1073H11.3546V31.0204Z" fill="#EC4015"/>
<path d="M19.6746 31.0204V31.9336H20.5877C21.4299 31.9336 21.5313 31.9133 21.7546 31.6799C22.0082 31.4364 22.0894 30.9393 21.9473 30.5638C21.8256 30.2595 21.3386 30.1073 20.4863 30.1073H19.6746V31.0204Z" fill="#EC4015"/>
<path d="M24.8492 7.85641V15.4966H32.1241H39.3889L39.1454 15.2226C39.0135 15.0704 37.2582 13.234 35.2492 11.1337C30.3993 6.07066 28.5121 4.08199 27.9845 3.47321C27.7409 3.18911 26.9394 2.34697 26.1987 1.59614L24.8492 0.226393V7.85641Z" fill="#EC6B40"/>
<path d="M30.3485 33.7295L30.3282 37.4024L29.1411 37.443L27.9438 37.4735L29.1411 37.4938C30.0238 37.5039 30.3485 37.4836 30.379 37.3821C30.4094 37.3213 30.4195 35.637 30.3993 33.6584L30.379 30.0565L30.3485 33.7295Z" fill="#EC6B40"/>
<path d="M24.4636 31.0204C24.4636 31.2132 24.4839 31.2943 24.5144 31.1929C24.5346 31.1016 24.5346 30.9392 24.5144 30.8378C24.4839 30.7464 24.4636 30.8276 24.4636 31.0204Z" fill="#EC6B40"/>
<path d="M9.508 37.4838C9.85297 37.5041 10.4212 37.5041 10.7763 37.4838C11.1213 37.4635 10.8372 37.4534 10.1371 37.4534C9.43697 37.4534 9.15288 37.4635 9.508 37.4838Z" fill="#EC6B40"/>
<path d="M17.8279 37.4838C18.1729 37.5041 18.7208 37.5041 19.0455 37.4838C19.36 37.4635 19.0759 37.4534 18.4063 37.4534C17.7366 37.4534 17.4728 37.4635 17.8279 37.4838Z" fill="#EC6B40"/>
<path d="M30.8864 6.46583C31.1603 6.73978 31.4038 6.97314 31.4343 6.97314C31.4647 6.97314 31.2618 6.73978 30.9878 6.46583C30.7139 6.18173 30.4704 5.95851 30.4399 5.95851C30.4095 5.95851 30.6124 6.18173 30.8864 6.46583Z" fill="#ECECEC"/>
<path d="M33.5243 9.20548C34.0215 9.70265 34.4578 10.1187 34.4882 10.1187C34.5085 10.1187 34.123 9.70265 33.6258 9.20548C33.1286 8.69817 32.6923 8.29232 32.6619 8.29232C32.6416 8.29232 33.0272 8.69817 33.5243 9.20548Z" fill="#ECECEC"/>
<path d="M36.0609 11.8334C37.735 13.5988 39.5918 15.4962 39.6223 15.4759C39.6324 15.4556 38.5873 14.37 37.2988 13.0509C36 11.7319 35.442 11.184 36.0609 11.8334Z" fill="#ECECEC"/>
<path d="M8.91956 32.7347V37.4121H10.0864H11.2532L11.2735 35.7075L11.3039 34.0131L12.6737 33.9624C13.9217 33.9116 14.0942 33.8812 14.6421 33.6174C15.6263 33.1304 16.1031 32.2984 16.1133 31.0199C16.1234 29.7922 15.5451 28.8182 14.5 28.3413C14.084 28.1485 13.8304 28.1282 11.4866 28.0978L8.91956 28.0674V32.7347ZM13.2317 30.1474C13.4144 30.2285 13.6173 30.3807 13.6782 30.4923C13.871 30.8576 13.8101 31.3954 13.5463 31.6997C13.3129 31.9737 13.252 31.9838 12.278 32.0143L11.2532 32.0549V31.0301V30.0053H12.0649C12.5418 30.0053 13.0288 30.0662 13.2317 30.1474Z" fill="#ECECEC"/>
<path d="M17.2395 32.7347V37.4121H18.4063H19.5732L19.5934 35.7075L19.6239 34.0131L20.9936 33.9624C22.1503 33.9218 22.4344 33.871 22.8403 33.6783C24.9608 32.6433 24.9811 29.5081 22.8808 28.4022L22.3634 28.1282L19.8065 28.0978L17.2395 28.0674V32.7347ZM21.4908 30.1169C22.0083 30.2995 22.2721 31.0402 21.9981 31.5475C21.8256 31.8722 21.2777 32.0346 20.3849 32.0346H19.5732V31.0199V30.0053H20.3747C20.811 30.0053 21.3082 30.056 21.4908 30.1169Z" fill="#ECECEC"/>
<path d="M25.2551 29.0414V30.0053H26.6249H27.9946V33.7087V37.4121H29.1615H30.3283V33.7087V30.0053H31.698H33.0678V29.0414V28.0775H29.1615H25.2551V29.0414Z" fill="#ECECEC"/>
</svg>
