<svg width="24" height="20" viewBox="0 0 24 20" fill="none" xmlns="http://www.w3.org/2000/svg">
<path d="M16.0483 14.4771L12.0483 10.4771L8.04834 14.4771" stroke="#9F9F9F" stroke-linecap="round" stroke-linejoin="round"/>
<path d="M12.0483 10.4771V19.4771" stroke="#9F9F9F" stroke-linecap="round" stroke-linejoin="round"/>
<path d="M20.4383 16.8675C21.4136 16.3358 22.1841 15.4944 22.6282 14.4761C23.0722 13.4579 23.1645 12.3208 22.8905 11.2442C22.6165 10.1677 21.9918 9.21303 21.115 8.53097C20.2382 7.8489 19.1592 7.47826 18.0483 7.47752H16.7883C16.4856 6.30676 15.9215 5.21986 15.1382 4.29852C14.355 3.37717 13.3731 2.64537 12.2664 2.15813C11.1597 1.67089 9.95685 1.44088 8.74842 1.48541C7.53998 1.52993 6.35737 1.84782 5.28948 2.41519C4.22159 2.98255 3.29621 3.78463 2.58292 4.7611C1.86963 5.73758 1.38699 6.86306 1.17128 8.05292C0.95557 9.24278 1.01241 10.4661 1.33751 11.6308C1.66262 12.7955 2.24754 13.8714 3.0483 14.7775" stroke="#9F9F9F" stroke-linecap="round" stroke-linejoin="round"/>
<path d="M16.0483 14.4771L12.0483 10.4771L8.04834 14.4771" stroke="#9F9F9F" stroke-linecap="round" stroke-linejoin="round"/>
</svg>
